ISO-10303-21;
HEADER;
FILE_DESCRIPTION((''),'2;1');
FILE_NAME('C-5-1775444-2','2019-01-15T00:09:57',('workeradm'),(
'TE Connectivity Ltd.'),'CREO PARAMETRIC BY PTC INC, 2018190',
'CREO PARAMETRIC BY PTC INC, 2018190','');
FILE_SCHEMA(('AUTOMOTIVE_DESIGN { 1 0 10303 214 1 1 1 1 }'));
ENDSEC;
DATA;
#2=DIRECTION('',(0.E0,-1.E0,0.E0));
#3=VECTOR('',#2,1.8E0);
#4=CARTESIAN_POINT('',(1.95E0,1.925E0,0.E0));
#5=LINE('',#4,#3);
#6=DIRECTION('',(1.E0,0.E0,0.E0));
#7=VECTOR('',#6,3.9E0);
#8=CARTESIAN_POINT('',(-1.95E0,1.925E0,0.E0));
#9=LINE('',#8,#7);
#10=DIRECTION('',(0.E0,1.E0,0.E0));
#11=VECTOR('',#10,1.8E0);
#12=CARTESIAN_POINT('',(-1.95E0,1.25E-1,0.E0));
#13=LINE('',#12,#11);
#14=DIRECTION('',(-1.E0,0.E0,0.E0));
#15=VECTOR('',#14,3.9E0);
#16=CARTESIAN_POINT('',(1.95E0,-1.425E0,0.E0));
#17=LINE('',#16,#15);
#18=DIRECTION('',(0.E0,1.E0,0.E0));
#19=VECTOR('',#18,7.E-1);
#20=CARTESIAN_POINT('',(1.25E0,-2.225E0,0.E0));
#21=LINE('',#20,#19);
#22=DIRECTION('',(-1.E0,0.E0,0.E0));
#23=VECTOR('',#22,1.E0);
#24=CARTESIAN_POINT('',(1.25E0,-1.525E0,0.E0));
#25=LINE('',#24,#23);
#26=DIRECTION('',(0.E0,1.E0,0.E0));
#27=VECTOR('',#26,7.E-1);
#28=CARTESIAN_POINT('',(2.5E-1,-2.225E0,0.E0));
#29=LINE('',#28,#27);
#30=DIRECTION('',(1.E0,0.E0,0.E0));
#31=VECTOR('',#30,5.E-1);
#32=CARTESIAN_POINT('',(-2.5E-1,-2.225E0,0.E0));
#33=LINE('',#32,#31);
#34=DIRECTION('',(0.E0,1.E0,0.E0));
#35=VECTOR('',#34,7.E-1);
#36=CARTESIAN_POINT('',(-2.5E-1,-2.225E0,0.E0));
#37=LINE('',#36,#35);
#38=DIRECTION('',(-1.E0,0.E0,0.E0));
#39=VECTOR('',#38,1.E0);
#40=CARTESIAN_POINT('',(-2.5E-1,-1.525E0,0.E0));
#41=LINE('',#40,#39);
#42=DIRECTION('',(0.E0,1.E0,0.E0));
#43=VECTOR('',#42,7.E-1);
#44=CARTESIAN_POINT('',(-1.25E0,-2.225E0,0.E0));
#45=LINE('',#44,#43);
#46=DIRECTION('',(1.E0,0.E0,0.E0));
#47=VECTOR('',#46,1.E0);
#48=CARTESIAN_POINT('',(-2.25E0,-2.225E0,0.E0));
#49=LINE('',#48,#47);
#50=DIRECTION('',(0.E0,-1.E0,0.E0));
#51=VECTOR('',#50,4.45E0);
#52=CARTESIAN_POINT('',(-2.25E0,2.225E0,0.E0));
#53=LINE('',#52,#51);
#54=DIRECTION('',(-1.E0,0.E0,0.E0));
#55=VECTOR('',#54,4.5E0);
#56=CARTESIAN_POINT('',(2.25E0,2.225E0,0.E0));
#57=LINE('',#56,#55);
#58=DIRECTION('',(0.E0,1.E0,0.E0));
#59=VECTOR('',#58,4.45E0);
#60=CARTESIAN_POINT('',(2.25E0,-2.225E0,0.E0));
#61=LINE('',#60,#59);
#62=DIRECTION('',(1.E0,0.E0,0.E0));
#63=VECTOR('',#62,1.E0);
#64=CARTESIAN_POINT('',(1.25E0,-2.225E0,0.E0));
#65=LINE('',#64,#63);
#66=DIRECTION('',(0.E0,-1.E0,0.E0));
#67=VECTOR('',#66,1.4E0);
#68=CARTESIAN_POINT('',(1.75E0,1.725E0,-2.E-1));
#69=LINE('',#68,#67);
#70=DIRECTION('',(0.E0,0.E0,-1.E0));
#71=VECTOR('',#70,3.15E0);
#72=CARTESIAN_POINT('',(1.75E0,3.25E-1,-2.E-1));
#73=LINE('',#72,#71);
#74=DIRECTION('',(-5.773502691896E-1,5.773502691896E-1,-5.773502691896E-1));
#75=VECTOR('',#74,3.464101615138E-1);
#76=CARTESIAN_POINT('',(1.95E0,1.25E-1,0.E0));
#77=LINE('',#76,#75);
#78=DIRECTION('',(0.E0,-1.E0,0.E0));
#79=VECTOR('',#78,1.55E0);
#80=CARTESIAN_POINT('',(1.95E0,1.25E-1,0.E0));
#81=LINE('',#80,#79);
#82=DIRECTION('',(0.E0,0.E0,1.E0));
#83=VECTOR('',#82,3.55E0);
#84=CARTESIAN_POINT('',(1.95E0,-1.225E0,-3.75E0));
#85=LINE('',#84,#83);
#86=DIRECTION('',(0.E0,-1.E0,0.E0));
#87=VECTOR('',#86,1.15E0);
#88=CARTESIAN_POINT('',(1.95E0,-7.5E-2,-3.75E0));
#89=LINE('',#88,#87);
#90=DIRECTION('',(0.E0,-7.071067811865E-1,-7.071067811865E-1));
#91=VECTOR('',#90,2.828427124746E-1);
#92=CARTESIAN_POINT('',(1.95E0,1.25E-1,-3.55E0));
#93=LINE('',#92,#91);
#94=DIRECTION('',(0.E0,0.E0,1.E0));
#95=VECTOR('',#94,3.55E0);
#96=CARTESIAN_POINT('',(1.95E0,1.25E-1,-3.55E0));
#97=LINE('',#96,#95);
#98=DIRECTION('',(0.E0,-7.071067811865E-1,7.071067811865E-1));
#99=VECTOR('',#98,2.828427124746E-1);
#100=CARTESIAN_POINT('',(1.95E0,-1.225E0,-2.E-1));
#101=LINE('',#100,#99);
#102=DIRECTION('',(0.E0,7.071067811865E-1,-7.071067811865E-1));
#103=VECTOR('',#102,2.828427124746E-1);
#104=CARTESIAN_POINT('',(-1.95E0,-1.425E0,0.E0));
#105=LINE('',#104,#103);
#106=DIRECTION('',(-1.E0,0.E0,0.E0));
#107=VECTOR('',#106,3.9E0);
#108=CARTESIAN_POINT('',(1.95E0,-1.225E0,-2.E-1));
#109=LINE('',#108,#107);
#110=DIRECTION('',(1.E0,0.E0,0.E0));
#111=VECTOR('',#110,3.9E0);
#112=CARTESIAN_POINT('',(-1.95E0,-1.225E0,-3.75E0));
#113=LINE('',#112,#111);
#114=DIRECTION('',(0.E0,0.E0,1.E0));
#115=VECTOR('',#114,3.55E0);
#116=CARTESIAN_POINT('',(-1.95E0,-1.225E0,-3.75E0));
#117=LINE('',#116,#115);
#118=DIRECTION('',(0.E0,1.E0,0.E0));
#119=VECTOR('',#118,1.55E0);
#120=CARTESIAN_POINT('',(-1.95E0,-1.425E0,0.E0));
#121=LINE('',#120,#119);
#122=DIRECTION('',(0.E0,0.E0,1.E0));
#123=VECTOR('',#122,3.55E0);
#124=CARTESIAN_POINT('',(-1.95E0,1.25E-1,-3.55E0));
#125=LINE('',#124,#123);
#126=DIRECTION('',(0.E0,-7.071067811865E-1,-7.071067811865E-1));
#127=VECTOR('',#126,2.828427124746E-1);
#128=CARTESIAN_POINT('',(-1.95E0,1.25E-1,-3.55E0));
#129=LINE('',#128,#127);
#130=DIRECTION('',(0.E0,-1.E0,0.E0));
#131=VECTOR('',#130,1.15E0);
#132=CARTESIAN_POINT('',(-1.95E0,-7.5E-2,-3.75E0));
#133=LINE('',#132,#131);
#134=DIRECTION('',(-5.773502691896E-1,-5.773502691896E-1,5.773502691896E-1));
#135=VECTOR('',#134,3.464101615138E-1);
#136=CARTESIAN_POINT('',(-1.75E0,3.25E-1,-2.E-1));
#137=LINE('',#136,#135);
#138=DIRECTION('',(-5.773502691896E-1,5.773502691896E-1,5.773502691896E-1));
#139=VECTOR('',#138,3.464101615138E-1);
#140=CARTESIAN_POINT('',(-1.75E0,1.725E0,-2.E-1));
#141=LINE('',#140,#139);
#142=DIRECTION('',(0.E0,1.E0,0.E0));
#143=VECTOR('',#142,1.4E0);
#144=CARTESIAN_POINT('',(-1.75E0,3.25E-1,-2.E-1));
#145=LINE('',#144,#143);
#146=DIRECTION('',(0.E0,0.E0,-1.E0));
#147=VECTOR('',#146,3.15E0);
#148=CARTESIAN_POINT('',(-1.75E0,3.25E-1,-2.E-1));
#149=LINE('',#148,#147);
#150=DIRECTION('',(0.E0,0.E0,-1.E0));
#151=VECTOR('',#150,3.05E0);
#152=CARTESIAN_POINT('',(4.E-1,1.725E0,-2.E-1));
#153=LINE('',#152,#151);
#154=DIRECTION('',(1.E0,0.E0,0.E0));
#155=VECTOR('',#154,1.35E0);
#156=CARTESIAN_POINT('',(4.E-1,1.725E0,-2.E-1));
#157=LINE('',#156,#155);
#158=DIRECTION('',(0.E0,0.E0,-1.E0));
#159=VECTOR('',#158,3.05E0);
#160=CARTESIAN_POINT('',(1.75E0,1.725E0,-2.E-1));
#161=LINE('',#160,#159);
#162=DIRECTION('',(0.E0,0.E0,-1.E0));
#163=VECTOR('',#162,3.05E0);
#164=CARTESIAN_POINT('',(-4.E-1,1.725E0,-2.E-1));
#165=LINE('',#164,#163);
#166=DIRECTION('',(0.E0,0.E0,-1.E0));
#167=VECTOR('',#166,3.05E0);
#168=CARTESIAN_POINT('',(-1.75E0,1.725E0,-2.E-1));
#169=LINE('',#168,#167);
#170=DIRECTION('',(1.E0,0.E0,0.E0));
#171=VECTOR('',#170,1.35E0);
#172=CARTESIAN_POINT('',(-1.75E0,1.725E0,-2.E-1));
#173=LINE('',#172,#171);
#174=DIRECTION('',(1.E0,0.E0,0.E0));
#175=VECTOR('',#174,1.35E0);
#176=CARTESIAN_POINT('',(-1.75E0,1.725E0,-3.25E0));
#177=LINE('',#176,#175);
#178=DIRECTION('',(0.E0,-1.E0,0.E0));
#179=VECTOR('',#178,1.E-1);
#180=CARTESIAN_POINT('',(-4.E-1,1.825E0,-3.25E0));
#181=LINE('',#180,#179);
#182=DIRECTION('',(-1.E0,0.E0,0.E0));
#183=VECTOR('',#182,8.E-1);
#184=CARTESIAN_POINT('',(4.E-1,1.825E0,-3.25E0));
#185=LINE('',#184,#183);
#186=DIRECTION('',(0.E0,1.E0,0.E0));
#187=VECTOR('',#186,1.E-1);
#188=CARTESIAN_POINT('',(4.E-1,1.725E0,-3.25E0));
#189=LINE('',#188,#187);
#190=DIRECTION('',(1.E0,0.E0,0.E0));
#191=VECTOR('',#190,1.35E0);
#192=CARTESIAN_POINT('',(4.E-1,1.725E0,-3.25E0));
#193=LINE('',#192,#191);
#194=DIRECTION('',(0.E0,1.E0,0.E0));
#195=VECTOR('',#194,1.3E0);
#196=CARTESIAN_POINT('',(1.75E0,4.25E-1,-3.25E0));
#197=LINE('',#196,#195);
#198=DIRECTION('',(0.E0,1.E0,0.E0));
#199=VECTOR('',#198,1.3E0);
#200=CARTESIAN_POINT('',(-1.75E0,4.25E-1,-3.25E0));
#201=LINE('',#200,#199);
#202=DIRECTION('',(0.E0,1.E0,0.E0));
#203=VECTOR('',#202,4.E-1);
#204=CARTESIAN_POINT('',(-9.5E-1,5.25E-1,-3.25E0));
#205=LINE('',#204,#203);
#206=DIRECTION('',(1.E0,0.E0,0.E0));
#207=VECTOR('',#206,4.E-1);
#208=CARTESIAN_POINT('',(-9.5E-1,5.25E-1,-3.25E0));
#209=LINE('',#208,#207);
#210=DIRECTION('',(0.E0,1.E0,0.E0));
#211=VECTOR('',#210,4.E-1);
#212=CARTESIAN_POINT('',(-5.5E-1,5.25E-1,-3.25E0));
#213=LINE('',#212,#211);
#214=DIRECTION('',(-1.E0,0.E0,0.E0));
#215=VECTOR('',#214,4.E-1);
#216=CARTESIAN_POINT('',(-5.5E-1,9.25E-1,-3.25E0));
#217=LINE('',#216,#215);
#218=DIRECTION('',(0.E0,-1.E0,0.E0));
#219=VECTOR('',#218,4.E-1);
#220=CARTESIAN_POINT('',(5.5E-1,9.25E-1,-3.25E0));
#221=LINE('',#220,#219);
#222=DIRECTION('',(1.E0,0.E0,0.E0));
#223=VECTOR('',#222,4.E-1);
#224=CARTESIAN_POINT('',(5.5E-1,5.25E-1,-3.25E0));
#225=LINE('',#224,#223);
#226=DIRECTION('',(0.E0,1.E0,0.E0));
#227=VECTOR('',#226,4.E-1);
#228=CARTESIAN_POINT('',(9.5E-1,5.25E-1,-3.25E0));
#229=LINE('',#228,#227);
#230=DIRECTION('',(-1.E0,0.E0,0.E0));
#231=VECTOR('',#230,4.E-1);
#232=CARTESIAN_POINT('',(9.5E-1,9.25E-1,-3.25E0));
#233=LINE('',#232,#231);
#234=DIRECTION('',(0.E0,0.E0,-1.E0));
#235=VECTOR('',#234,3.15E0);
#236=CARTESIAN_POINT('',(-4.E-1,1.825E0,-1.E-1));
#237=LINE('',#236,#235);
#238=DIRECTION('',(0.E0,7.071067811865E-1,7.071067811865E-1));
#239=VECTOR('',#238,1.414213562373E-1);
#240=CARTESIAN_POINT('',(4.E-1,1.725E0,-2.E-1));
#241=LINE('',#240,#239);
#242=DIRECTION('',(-1.E0,0.E0,0.E0));
#243=VECTOR('',#242,8.E-1);
#244=CARTESIAN_POINT('',(4.E-1,1.825E0,-1.E-1));
#245=LINE('',#244,#243);
#246=DIRECTION('',(0.E0,7.071067811865E-1,7.071067811865E-1));
#247=VECTOR('',#246,1.414213562373E-1);
#248=CARTESIAN_POINT('',(-4.E-1,1.725E0,-2.E-1));
#249=LINE('',#248,#247);
#250=DIRECTION('',(5.773502691896E-1,5.773502691896E-1,5.773502691896E-1));
#251=VECTOR('',#250,3.464101615138E-1);
#252=CARTESIAN_POINT('',(1.75E0,1.725E0,-2.E-1));
#253=LINE('',#252,#251);
#254=DIRECTION('',(0.E0,0.E0,-1.E0));
#255=VECTOR('',#254,3.15E0);
#256=CARTESIAN_POINT('',(4.E-1,1.825E0,-1.E-1));
#257=LINE('',#256,#255);
#258=DIRECTION('',(5.773502691896E-1,5.773502691896E-1,5.773502691896E-1));
#259=VECTOR('',#258,3.464101615138E-1);
#260=CARTESIAN_POINT('',(-1.95E0,1.25E-1,-3.55E0));
#261=LINE('',#260,#259);
#262=DIRECTION('',(0.E0,-7.071067811865E-1,-7.071067811865E-1));
#263=VECTOR('',#262,1.414213562373E-1);
#264=CARTESIAN_POINT('',(-1.75E0,4.25E-1,-3.25E0));
#265=LINE('',#264,#263);
#266=DIRECTION('',(1.E0,0.E0,0.E0));
#267=VECTOR('',#266,3.5E0);
#268=CARTESIAN_POINT('',(-1.75E0,4.25E-1,-3.25E0));
#269=LINE('',#268,#267);
#270=DIRECTION('',(0.E0,-7.071067811865E-1,-7.071067811865E-1));
#271=VECTOR('',#270,1.414213562373E-1);
#272=CARTESIAN_POINT('',(1.75E0,4.25E-1,-3.25E0));
#273=LINE('',#272,#271);
#274=DIRECTION('',(5.773502691896E-1,-5.773502691896E-1,-5.773502691896E-1));
#275=VECTOR('',#274,3.464101615138E-1);
#276=CARTESIAN_POINT('',(1.75E0,3.25E-1,-3.35E0));
#277=LINE('',#276,#275);
#278=DIRECTION('',(1.E0,0.E0,0.E0));
#279=VECTOR('',#278,3.9E0);
#280=CARTESIAN_POINT('',(-1.95E0,-7.5E-2,-3.75E0));
#281=LINE('',#280,#279);
#282=DIRECTION('',(0.E0,0.E0,1.E0));
#283=VECTOR('',#282,2.7E0);
#284=CARTESIAN_POINT('',(-9.5E-1,9.25E-1,-3.25E0));
#285=LINE('',#284,#283);
#286=DIRECTION('',(0.E0,0.E0,1.E0));
#287=VECTOR('',#286,2.7E0);
#288=CARTESIAN_POINT('',(-5.5E-1,9.25E-1,-3.25E0));
#289=LINE('',#288,#287);
#290=DIRECTION('',(0.E0,0.E0,1.E0));
#291=VECTOR('',#290,2.7E0);
#292=CARTESIAN_POINT('',(-5.5E-1,5.25E-1,-3.25E0));
#293=LINE('',#292,#291);
#294=DIRECTION('',(0.E0,0.E0,1.E0));
#295=VECTOR('',#294,2.7E0);
#296=CARTESIAN_POINT('',(-9.5E-1,5.25E-1,-3.25E0));
#297=LINE('',#296,#295);
#298=DIRECTION('',(0.E0,-1.E0,0.E0));
#299=VECTOR('',#298,4.E-1);
#300=CARTESIAN_POINT('',(-9.5E-1,9.25E-1,-5.5E-1));
#301=LINE('',#300,#299);
#302=DIRECTION('',(-1.E0,0.E0,0.E0));
#303=VECTOR('',#302,4.E-1);
#304=CARTESIAN_POINT('',(-5.5E-1,9.25E-1,-5.5E-1));
#305=LINE('',#304,#303);
#306=DIRECTION('',(0.E0,1.E0,0.E0));
#307=VECTOR('',#306,4.E-1);
#308=CARTESIAN_POINT('',(-5.5E-1,5.25E-1,-5.5E-1));
#309=LINE('',#308,#307);
#310=DIRECTION('',(1.E0,0.E0,0.E0));
#311=VECTOR('',#310,4.E-1);
#312=CARTESIAN_POINT('',(-9.5E-1,5.25E-1,-5.5E-1));
#313=LINE('',#312,#311);
#314=DIRECTION('',(0.E0,0.E0,1.E0));
#315=VECTOR('',#314,2.7E0);
#316=CARTESIAN_POINT('',(5.5E-1,9.25E-1,-3.25E0));
#317=LINE('',#316,#315);
#318=DIRECTION('',(0.E0,0.E0,1.E0));
#319=VECTOR('',#318,2.7E0);
#320=CARTESIAN_POINT('',(9.5E-1,9.25E-1,-3.25E0));
#321=LINE('',#320,#319);
#322=DIRECTION('',(0.E0,0.E0,1.E0));
#323=VECTOR('',#322,2.7E0);
#324=CARTESIAN_POINT('',(9.5E-1,5.25E-1,-3.25E0));
#325=LINE('',#324,#323);
#326=DIRECTION('',(0.E0,0.E0,1.E0));
#327=VECTOR('',#326,2.7E0);
#328=CARTESIAN_POINT('',(5.5E-1,5.25E-1,-3.25E0));
#329=LINE('',#328,#327);
#330=DIRECTION('',(0.E0,-1.E0,0.E0));
#331=VECTOR('',#330,4.E-1);
#332=CARTESIAN_POINT('',(5.5E-1,9.25E-1,-5.5E-1));
#333=LINE('',#332,#331);
#334=DIRECTION('',(-1.E0,0.E0,0.E0));
#335=VECTOR('',#334,4.E-1);
#336=CARTESIAN_POINT('',(9.5E-1,9.25E-1,-5.5E-1));
#337=LINE('',#336,#335);
#338=DIRECTION('',(0.E0,1.E0,0.E0));
#339=VECTOR('',#338,4.E-1);
#340=CARTESIAN_POINT('',(9.5E-1,5.25E-1,-5.5E-1));
#341=LINE('',#340,#339);
#342=DIRECTION('',(1.E0,0.E0,0.E0));
#343=VECTOR('',#342,4.E-1);
#344=CARTESIAN_POINT('',(5.5E-1,5.25E-1,-5.5E-1));
#345=LINE('',#344,#343);
#346=DIRECTION('',(0.E0,1.E0,0.E0));
#347=VECTOR('',#346,3.5E-1);
#348=CARTESIAN_POINT('',(9.5E-1,-2.225E0,-2.15E0));
#349=LINE('',#348,#347);
#350=DIRECTION('',(-1.E0,0.E0,0.E0));
#351=VECTOR('',#350,4.E-1);
#352=CARTESIAN_POINT('',(9.5E-1,-1.875E0,-2.15E0));
#353=LINE('',#352,#351);
#354=DIRECTION('',(0.E0,1.E0,0.E0));
#355=VECTOR('',#354,3.5E-1);
#356=CARTESIAN_POINT('',(5.5E-1,-2.225E0,-2.15E0));
#357=LINE('',#356,#355);
#358=DIRECTION('',(0.E0,-1.E0,0.E0));
#359=VECTOR('',#358,7.E-1);
#360=CARTESIAN_POINT('',(2.5E-1,-1.525E0,-2.15E0));
#361=LINE('',#360,#359);
#362=DIRECTION('',(-1.E0,0.E0,0.E0));
#363=VECTOR('',#362,1.E0);
#364=CARTESIAN_POINT('',(1.25E0,-1.525E0,-2.15E0));
#365=LINE('',#364,#363);
#366=DIRECTION('',(0.E0,1.E0,0.E0));
#367=VECTOR('',#366,7.E-1);
#368=CARTESIAN_POINT('',(1.25E0,-2.225E0,-2.15E0));
#369=LINE('',#368,#367);
#370=DIRECTION('',(0.E0,0.E0,-1.E0));
#371=VECTOR('',#370,2.E0);
#372=CARTESIAN_POINT('',(9.5E-1,-1.715E0,-5.E0));
#373=LINE('',#372,#371);
#374=DIRECTION('',(0.E0,-1.E0,0.E0));
#375=VECTOR('',#374,5.6E-1);
#376=CARTESIAN_POINT('',(9.5E-1,-1.715E0,-7.E0));
#377=LINE('',#376,#375);
#378=DIRECTION('',(0.E0,1.E0,0.E0));
#379=VECTOR('',#378,4.E-1);
#380=CARTESIAN_POINT('',(9.5E-1,-2.275E0,-1.E0));
#381=LINE('',#380,#379);
#382=DIRECTION('',(0.E0,0.E0,-1.E0));
#383=VECTOR('',#382,1.15E0);
#384=CARTESIAN_POINT('',(9.5E-1,-1.875E0,-1.E0));
#385=LINE('',#384,#383);
#386=DIRECTION('',(0.E0,1.E0,0.E0));
#387=VECTOR('',#386,5.1E-1);
#388=CARTESIAN_POINT('',(9.5E-1,-2.225E0,-5.E0));
#389=LINE('',#388,#387);
#390=DIRECTION('',(1.E0,0.E0,0.E0));
#391=VECTOR('',#390,1.3E0);
#392=CARTESIAN_POINT('',(9.5E-1,-2.225E0,-5.E0));
#393=LINE('',#392,#391);
#394=DIRECTION('',(0.E0,1.E0,0.E0));
#395=VECTOR('',#394,4.45E0);
#396=CARTESIAN_POINT('',(2.25E0,-2.225E0,-5.E0));
#397=LINE('',#396,#395);
#398=DIRECTION('',(-1.E0,0.E0,0.E0));
#399=VECTOR('',#398,4.5E0);
#400=CARTESIAN_POINT('',(2.25E0,2.225E0,-5.E0));
#401=LINE('',#400,#399);
#402=DIRECTION('',(0.E0,-1.E0,0.E0));
#403=VECTOR('',#402,4.45E0);
#404=CARTESIAN_POINT('',(-2.25E0,2.225E0,-5.E0));
#405=LINE('',#404,#403);
#406=DIRECTION('',(1.E0,0.E0,0.E0));
#407=VECTOR('',#406,1.3E0);
#408=CARTESIAN_POINT('',(-2.25E0,-2.225E0,-5.E0));
#409=LINE('',#408,#407);
#410=DIRECTION('',(0.E0,1.E0,0.E0));
#411=VECTOR('',#410,5.1E-1);
#412=CARTESIAN_POINT('',(-9.5E-1,-2.225E0,-5.E0));
#413=LINE('',#412,#411);
#414=DIRECTION('',(-1.E0,0.E0,0.E0));
#415=VECTOR('',#414,4.E-1);
#416=CARTESIAN_POINT('',(-5.5E-1,-1.715E0,-5.E0));
#417=LINE('',#416,#415);
#418=DIRECTION('',(0.E0,1.E0,0.E0));
#419=VECTOR('',#418,5.1E-1);
#420=CARTESIAN_POINT('',(-5.5E-1,-2.225E0,-5.E0));
#421=LINE('',#420,#419);
#422=DIRECTION('',(1.E0,0.E0,0.E0));
#423=VECTOR('',#422,1.1E0);
#424=CARTESIAN_POINT('',(-5.5E-1,-2.225E0,-5.E0));
#425=LINE('',#424,#423);
#426=DIRECTION('',(0.E0,1.E0,0.E0));
#427=VECTOR('',#426,5.1E-1);
#428=CARTESIAN_POINT('',(5.5E-1,-2.225E0,-5.E0));
#429=LINE('',#428,#427);
#430=DIRECTION('',(-1.E0,0.E0,0.E0));
#431=VECTOR('',#430,4.E-1);
#432=CARTESIAN_POINT('',(9.5E-1,-1.715E0,-5.E0));
#433=LINE('',#432,#431);
#434=DIRECTION('',(0.E0,0.E0,-1.E0));
#435=VECTOR('',#434,5.E0);
#436=CARTESIAN_POINT('',(-2.25E0,-2.225E0,0.E0));
#437=LINE('',#436,#435);
#438=DIRECTION('',(0.E0,0.E0,-1.E0));
#439=VECTOR('',#438,2.15E0);
#440=CARTESIAN_POINT('',(-1.25E0,-2.225E0,0.E0));
#441=LINE('',#440,#439);
#442=DIRECTION('',(1.E0,0.E0,0.E0));
#443=VECTOR('',#442,3.E-1);
#444=CARTESIAN_POINT('',(-1.25E0,-2.225E0,-2.15E0));
#445=LINE('',#444,#443);
#446=DIRECTION('',(0.E0,0.E0,1.E0));
#447=VECTOR('',#446,2.85E0);
#448=CARTESIAN_POINT('',(-9.5E-1,-2.225E0,-5.E0));
#449=LINE('',#448,#447);
#450=DIRECTION('',(0.E0,0.E0,1.E0));
#451=VECTOR('',#450,2.85E0);
#452=CARTESIAN_POINT('',(-5.5E-1,-2.225E0,-5.E0));
#453=LINE('',#452,#451);
#454=DIRECTION('',(1.E0,0.E0,0.E0));
#455=VECTOR('',#454,3.E-1);
#456=CARTESIAN_POINT('',(-5.5E-1,-2.225E0,-2.15E0));
#457=LINE('',#456,#455);
#458=DIRECTION('',(0.E0,0.E0,-1.E0));
#459=VECTOR('',#458,2.15E0);
#460=CARTESIAN_POINT('',(-2.5E-1,-2.225E0,0.E0));
#461=LINE('',#460,#459);
#462=DIRECTION('',(0.E0,0.E0,-1.E0));
#463=VECTOR('',#462,2.15E0);
#464=CARTESIAN_POINT('',(2.5E-1,-2.225E0,0.E0));
#465=LINE('',#464,#463);
#466=DIRECTION('',(1.E0,0.E0,0.E0));
#467=VECTOR('',#466,3.E-1);
#468=CARTESIAN_POINT('',(2.5E-1,-2.225E0,-2.15E0));
#469=LINE('',#468,#467);
#470=DIRECTION('',(0.E0,0.E0,1.E0));
#471=VECTOR('',#470,2.85E0);
#472=CARTESIAN_POINT('',(5.5E-1,-2.225E0,-5.E0));
#473=LINE('',#472,#471);
#474=DIRECTION('',(0.E0,0.E0,1.E0));
#475=VECTOR('',#474,2.85E0);
#476=CARTESIAN_POINT('',(9.5E-1,-2.225E0,-5.E0));
#477=LINE('',#476,#475);
#478=DIRECTION('',(1.E0,0.E0,0.E0));
#479=VECTOR('',#478,3.E-1);
#480=CARTESIAN_POINT('',(9.5E-1,-2.225E0,-2.15E0));
#481=LINE('',#480,#479);
#482=DIRECTION('',(0.E0,0.E0,-1.E0));
#483=VECTOR('',#482,2.15E0);
#484=CARTESIAN_POINT('',(1.25E0,-2.225E0,0.E0));
#485=LINE('',#484,#483);
#486=DIRECTION('',(0.E0,0.E0,-1.E0));
#487=VECTOR('',#486,5.E0);
#488=CARTESIAN_POINT('',(-2.25E0,2.225E0,0.E0));
#489=LINE('',#488,#487);
#490=DIRECTION('',(0.E0,0.E0,-1.E0));
#491=VECTOR('',#490,5.E0);
#492=CARTESIAN_POINT('',(2.25E0,2.225E0,0.E0));
#493=LINE('',#492,#491);
#494=DIRECTION('',(0.E0,0.E0,-1.E0));
#495=VECTOR('',#494,5.E0);
#496=CARTESIAN_POINT('',(2.25E0,-2.225E0,0.E0));
#497=LINE('',#496,#495);
#498=DIRECTION('',(0.E0,0.E0,-1.E0));
#499=VECTOR('',#498,2.15E0);
#500=CARTESIAN_POINT('',(-1.25E0,-1.525E0,0.E0));
#501=LINE('',#500,#499);
#502=DIRECTION('',(0.E0,0.E0,-1.E0));
#503=VECTOR('',#502,2.15E0);
#504=CARTESIAN_POINT('',(-2.5E-1,-1.525E0,0.E0));
#505=LINE('',#504,#503);
#506=DIRECTION('',(0.E0,1.E0,0.E0));
#507=VECTOR('',#506,3.5E-1);
#508=CARTESIAN_POINT('',(-5.5E-1,-2.225E0,-2.15E0));
#509=LINE('',#508,#507);
#510=DIRECTION('',(-1.E0,0.E0,0.E0));
#511=VECTOR('',#510,4.E-1);
#512=CARTESIAN_POINT('',(-5.5E-1,-1.875E0,-2.15E0));
#513=LINE('',#512,#511);
#514=DIRECTION('',(0.E0,1.E0,0.E0));
#515=VECTOR('',#514,3.5E-1);
#516=CARTESIAN_POINT('',(-9.5E-1,-2.225E0,-2.15E0));
#517=LINE('',#516,#515);
#518=DIRECTION('',(0.E0,-1.E0,0.E0));
#519=VECTOR('',#518,7.E-1);
#520=CARTESIAN_POINT('',(-1.25E0,-1.525E0,-2.15E0));
#521=LINE('',#520,#519);
#522=DIRECTION('',(-1.E0,0.E0,0.E0));
#523=VECTOR('',#522,1.E0);
#524=CARTESIAN_POINT('',(-2.5E-1,-1.525E0,-2.15E0));
#525=LINE('',#524,#523);
#526=DIRECTION('',(0.E0,1.E0,0.E0));
#527=VECTOR('',#526,7.E-1);
#528=CARTESIAN_POINT('',(-2.5E-1,-2.225E0,-2.15E0));
#529=LINE('',#528,#527);
#530=DIRECTION('',(0.E0,0.E0,-1.E0));
#531=VECTOR('',#530,2.E0);
#532=CARTESIAN_POINT('',(-5.5E-1,-1.715E0,-5.E0));
#533=LINE('',#532,#531);
#534=DIRECTION('',(0.E0,-1.E0,0.E0));
#535=VECTOR('',#534,5.6E-1);
#536=CARTESIAN_POINT('',(-5.5E-1,-1.715E0,-7.E0));
#537=LINE('',#536,#535);
#538=DIRECTION('',(0.E0,1.E0,0.E0));
#539=VECTOR('',#538,4.E-1);
#540=CARTESIAN_POINT('',(-5.5E-1,-2.275E0,-1.E0));
#541=LINE('',#540,#539);
#542=DIRECTION('',(0.E0,0.E0,-1.E0));
#543=VECTOR('',#542,1.15E0);
#544=CARTESIAN_POINT('',(-5.5E-1,-1.875E0,-1.E0));
#545=LINE('',#544,#543);
#546=DIRECTION('',(0.E0,0.E0,-1.E0));
#547=VECTOR('',#546,1.15E0);
#548=CARTESIAN_POINT('',(-9.5E-1,-1.875E0,-1.E0));
#549=LINE('',#548,#547);
#550=DIRECTION('',(0.E0,1.E0,0.E0));
#551=VECTOR('',#550,4.E-1);
#552=CARTESIAN_POINT('',(-9.5E-1,-2.275E0,-1.E0));
#553=LINE('',#552,#551);
#554=DIRECTION('',(0.E0,-1.E0,0.E0));
#555=VECTOR('',#554,5.6E-1);
#556=CARTESIAN_POINT('',(-9.5E-1,-1.715E0,-7.E0));
#557=LINE('',#556,#555);
#558=DIRECTION('',(0.E0,0.E0,-1.E0));
#559=VECTOR('',#558,2.E0);
#560=CARTESIAN_POINT('',(-9.5E-1,-1.715E0,-5.E0));
#561=LINE('',#560,#559);
#562=DIRECTION('',(-1.E0,0.E0,0.E0));
#563=VECTOR('',#562,4.E-1);
#564=CARTESIAN_POINT('',(-5.5E-1,-1.875E0,-1.E0));
#565=LINE('',#564,#563);
#566=DIRECTION('',(-1.E0,0.E0,0.E0));
#567=VECTOR('',#566,4.E-1);
#568=CARTESIAN_POINT('',(-5.5E-1,-2.275E0,-1.E0));
#569=LINE('',#568,#567);
#570=DIRECTION('',(0.E0,0.E0,-1.E0));
#571=VECTOR('',#570,6.E0);
#572=CARTESIAN_POINT('',(-5.5E-1,-2.275E0,-1.E0));
#573=LINE('',#572,#571);
#574=DIRECTION('',(-1.E0,0.E0,0.E0));
#575=VECTOR('',#574,4.E-1);
#576=CARTESIAN_POINT('',(-5.5E-1,-2.275E0,-7.E0));
#577=LINE('',#576,#575);
#578=DIRECTION('',(0.E0,0.E0,1.E0));
#579=VECTOR('',#578,6.E0);
#580=CARTESIAN_POINT('',(-9.5E-1,-2.275E0,-7.E0));
#581=LINE('',#580,#579);
#582=DIRECTION('',(-1.E0,0.E0,0.E0));
#583=VECTOR('',#582,4.E-1);
#584=CARTESIAN_POINT('',(-5.5E-1,-1.715E0,-7.E0));
#585=LINE('',#584,#583);
#586=DIRECTION('',(0.E0,0.E0,-1.E0));
#587=VECTOR('',#586,2.15E0);
#588=CARTESIAN_POINT('',(2.5E-1,-1.525E0,0.E0));
#589=LINE('',#588,#587);
#590=DIRECTION('',(0.E0,0.E0,-1.E0));
#591=VECTOR('',#590,2.15E0);
#592=CARTESIAN_POINT('',(1.25E0,-1.525E0,0.E0));
#593=LINE('',#592,#591);
#594=DIRECTION('',(0.E0,0.E0,-1.E0));
#595=VECTOR('',#594,2.E0);
#596=CARTESIAN_POINT('',(5.5E-1,-1.715E0,-5.E0));
#597=LINE('',#596,#595);
#598=DIRECTION('',(0.E0,0.E0,-1.E0));
#599=VECTOR('',#598,1.15E0);
#600=CARTESIAN_POINT('',(5.5E-1,-1.875E0,-1.E0));
#601=LINE('',#600,#599);
#602=DIRECTION('',(0.E0,1.E0,0.E0));
#603=VECTOR('',#602,4.E-1);
#604=CARTESIAN_POINT('',(5.5E-1,-2.275E0,-1.E0));
#605=LINE('',#604,#603);
#606=DIRECTION('',(0.E0,-1.E0,0.E0));
#607=VECTOR('',#606,5.6E-1);
#608=CARTESIAN_POINT('',(5.5E-1,-1.715E0,-7.E0));
#609=LINE('',#608,#607);
#610=DIRECTION('',(-1.E0,0.E0,0.E0));
#611=VECTOR('',#610,4.E-1);
#612=CARTESIAN_POINT('',(9.5E-1,-1.875E0,-1.E0));
#613=LINE('',#612,#611);
#614=DIRECTION('',(-1.E0,0.E0,0.E0));
#615=VECTOR('',#614,4.E-1);
#616=CARTESIAN_POINT('',(9.5E-1,-2.275E0,-1.E0));
#617=LINE('',#616,#615);
#618=DIRECTION('',(0.E0,0.E0,-1.E0));
#619=VECTOR('',#618,6.E0);
#620=CARTESIAN_POINT('',(9.5E-1,-2.275E0,-1.E0));
#621=LINE('',#620,#619);
#622=DIRECTION('',(-1.E0,0.E0,0.E0));
#623=VECTOR('',#622,4.E-1);
#624=CARTESIAN_POINT('',(9.5E-1,-2.275E0,-7.E0));
#625=LINE('',#624,#623);
#626=DIRECTION('',(0.E0,0.E0,1.E0));
#627=VECTOR('',#626,6.E0);
#628=CARTESIAN_POINT('',(5.5E-1,-2.275E0,-7.E0));
#629=LINE('',#628,#627);
#630=DIRECTION('',(-1.E0,0.E0,0.E0));
#631=VECTOR('',#630,4.E-1);
#632=CARTESIAN_POINT('',(9.5E-1,-1.715E0,-7.E0));
#633=LINE('',#632,#631);
#634=CARTESIAN_POINT('',(-2.25E0,2.225E0,0.E0));
#635=CARTESIAN_POINT('',(-2.25E0,-2.225E0,0.E0));
#636=VERTEX_POINT('',#634);
#637=VERTEX_POINT('',#635);
#638=CARTESIAN_POINT('',(2.25E0,-2.225E0,0.E0));
#639=CARTESIAN_POINT('',(2.25E0,2.225E0,0.E0));
#640=VERTEX_POINT('',#638);
#641=VERTEX_POINT('',#639);
#642=CARTESIAN_POINT('',(-2.25E0,2.225E0,-5.E0));
#643=CARTESIAN_POINT('',(-2.25E0,-2.225E0,-5.E0));
#644=VERTEX_POINT('',#642);
#645=VERTEX_POINT('',#643);
#646=CARTESIAN_POINT('',(2.25E0,-2.225E0,-5.E0));
#647=CARTESIAN_POINT('',(2.25E0,2.225E0,-5.E0));
#648=VERTEX_POINT('',#646);
#649=VERTEX_POINT('',#647);
#650=CARTESIAN_POINT('',(-1.95E0,-7.5E-2,-3.75E0));
#651=CARTESIAN_POINT('',(-1.95E0,-1.225E0,-3.75E0));
#652=VERTEX_POINT('',#650);
#653=VERTEX_POINT('',#651);
#654=CARTESIAN_POINT('',(1.95E0,-7.5E-2,-3.75E0));
#655=CARTESIAN_POINT('',(1.95E0,-1.225E0,-3.75E0));
#656=VERTEX_POINT('',#654);
#657=VERTEX_POINT('',#655);
#658=CARTESIAN_POINT('',(-1.75E0,4.25E-1,-3.25E0));
#659=CARTESIAN_POINT('',(-1.75E0,1.725E0,-3.25E0));
#660=VERTEX_POINT('',#658);
#661=VERTEX_POINT('',#659);
#662=CARTESIAN_POINT('',(1.75E0,4.25E-1,-3.25E0));
#663=CARTESIAN_POINT('',(1.75E0,1.725E0,-3.25E0));
#664=VERTEX_POINT('',#662);
#665=VERTEX_POINT('',#663);
#666=CARTESIAN_POINT('',(-1.95E0,1.25E-1,-3.55E0));
#667=CARTESIAN_POINT('',(-1.75E0,3.25E-1,-3.35E0));
#668=VERTEX_POINT('',#666);
#669=VERTEX_POINT('',#667);
#670=CARTESIAN_POINT('',(1.75E0,3.25E-1,-3.35E0));
#671=VERTEX_POINT('',#670);
#672=CARTESIAN_POINT('',(1.95E0,1.25E-1,-3.55E0));
#673=VERTEX_POINT('',#672);
#674=CARTESIAN_POINT('',(1.75E0,1.725E0,-2.E-1));
#675=CARTESIAN_POINT('',(1.75E0,3.25E-1,-2.E-1));
#676=VERTEX_POINT('',#674);
#677=VERTEX_POINT('',#675);
#678=CARTESIAN_POINT('',(1.95E0,1.925E0,0.E0));
#679=CARTESIAN_POINT('',(1.95E0,1.25E-1,0.E0));
#680=VERTEX_POINT('',#678);
#681=VERTEX_POINT('',#679);
#682=CARTESIAN_POINT('',(-1.75E0,3.25E-1,-2.E-1));
#683=CARTESIAN_POINT('',(-1.75E0,1.725E0,-2.E-1));
#684=VERTEX_POINT('',#682);
#685=VERTEX_POINT('',#683);
#686=CARTESIAN_POINT('',(-1.95E0,1.25E-1,0.E0));
#687=CARTESIAN_POINT('',(-1.95E0,1.925E0,0.E0));
#688=VERTEX_POINT('',#686);
#689=VERTEX_POINT('',#687);
#690=CARTESIAN_POINT('',(1.95E0,-1.225E0,-2.E-1));
#691=CARTESIAN_POINT('',(-1.95E0,-1.225E0,-2.E-1));
#692=VERTEX_POINT('',#690);
#693=VERTEX_POINT('',#691);
#694=CARTESIAN_POINT('',(1.95E0,-1.425E0,0.E0));
#695=CARTESIAN_POINT('',(-1.95E0,-1.425E0,0.E0));
#696=VERTEX_POINT('',#694);
#697=VERTEX_POINT('',#695);
#698=CARTESIAN_POINT('',(4.E-1,1.825E0,-3.25E0));
#699=CARTESIAN_POINT('',(-4.E-1,1.825E0,-3.25E0));
#700=VERTEX_POINT('',#698);
#701=VERTEX_POINT('',#699);
#702=CARTESIAN_POINT('',(4.E-1,1.725E0,-3.25E0));
#703=VERTEX_POINT('',#702);
#704=CARTESIAN_POINT('',(-4.E-1,1.725E0,-3.25E0));
#705=VERTEX_POINT('',#704);
#706=CARTESIAN_POINT('',(4.E-1,1.825E0,-1.E-1));
#707=VERTEX_POINT('',#706);
#708=CARTESIAN_POINT('',(-4.E-1,1.825E0,-1.E-1));
#709=VERTEX_POINT('',#708);
#710=CARTESIAN_POINT('',(-2.5E-1,-1.525E0,-2.15E0));
#711=CARTESIAN_POINT('',(-1.25E0,-1.525E0,-2.15E0));
#712=VERTEX_POINT('',#710);
#713=VERTEX_POINT('',#711);
#714=CARTESIAN_POINT('',(-2.5E-1,-2.225E0,0.E0));
#715=CARTESIAN_POINT('',(-2.5E-1,-1.525E0,0.E0));
#716=VERTEX_POINT('',#714);
#717=VERTEX_POINT('',#715);
#718=CARTESIAN_POINT('',(-1.25E0,-1.525E0,0.E0));
#719=VERTEX_POINT('',#718);
#720=CARTESIAN_POINT('',(-1.25E0,-2.225E0,0.E0));
#721=VERTEX_POINT('',#720);
#722=CARTESIAN_POINT('',(-2.5E-1,-2.225E0,-2.15E0));
#723=VERTEX_POINT('',#722);
#724=CARTESIAN_POINT('',(-1.25E0,-2.225E0,-2.15E0));
#725=VERTEX_POINT('',#724);
#726=CARTESIAN_POINT('',(-9.5E-1,9.25E-1,-5.5E-1));
#727=CARTESIAN_POINT('',(-9.5E-1,5.25E-1,-5.5E-1));
#728=VERTEX_POINT('',#726);
#729=VERTEX_POINT('',#727);
#730=CARTESIAN_POINT('',(-5.5E-1,5.25E-1,-5.5E-1));
#731=VERTEX_POINT('',#730);
#732=CARTESIAN_POINT('',(-5.5E-1,9.25E-1,-5.5E-1));
#733=VERTEX_POINT('',#732);
#734=CARTESIAN_POINT('',(-9.5E-1,5.25E-1,-3.25E0));
#735=CARTESIAN_POINT('',(-9.5E-1,9.25E-1,-3.25E0));
#736=VERTEX_POINT('',#734);
#737=VERTEX_POINT('',#735);
#738=CARTESIAN_POINT('',(-5.5E-1,5.25E-1,-3.25E0));
#739=CARTESIAN_POINT('',(-5.5E-1,9.25E-1,-3.25E0));
#740=VERTEX_POINT('',#738);
#741=VERTEX_POINT('',#739);
#742=CARTESIAN_POINT('',(4.E-1,1.725E0,-2.E-1));
#743=VERTEX_POINT('',#742);
#744=CARTESIAN_POINT('',(-4.E-1,1.725E0,-2.E-1));
#745=VERTEX_POINT('',#744);
#746=CARTESIAN_POINT('',(-5.5E-1,-1.715E0,-7.E0));
#747=CARTESIAN_POINT('',(-5.5E-1,-2.275E0,-7.E0));
#748=VERTEX_POINT('',#746);
#749=VERTEX_POINT('',#747);
#750=CARTESIAN_POINT('',(-5.5E-1,-2.275E0,-1.E0));
#751=CARTESIAN_POINT('',(-5.5E-1,-1.875E0,-1.E0));
#752=VERTEX_POINT('',#750);
#753=VERTEX_POINT('',#751);
#754=CARTESIAN_POINT('',(-9.5E-1,-1.715E0,-7.E0));
#755=CARTESIAN_POINT('',(-9.5E-1,-2.275E0,-7.E0));
#756=VERTEX_POINT('',#754);
#757=VERTEX_POINT('',#755);
#758=CARTESIAN_POINT('',(-9.5E-1,-2.275E0,-1.E0));
#759=CARTESIAN_POINT('',(-9.5E-1,-1.875E0,-1.E0));
#760=VERTEX_POINT('',#758);
#761=VERTEX_POINT('',#759);
#762=CARTESIAN_POINT('',(-5.5E-1,-2.225E0,-5.E0));
#763=CARTESIAN_POINT('',(-5.5E-1,-1.715E0,-5.E0));
#764=VERTEX_POINT('',#762);
#765=VERTEX_POINT('',#763);
#766=CARTESIAN_POINT('',(-9.5E-1,-2.225E0,-5.E0));
#767=CARTESIAN_POINT('',(-9.5E-1,-1.715E0,-5.E0));
#768=VERTEX_POINT('',#766);
#769=VERTEX_POINT('',#767);
#770=CARTESIAN_POINT('',(-5.5E-1,-2.225E0,-2.15E0));
#771=CARTESIAN_POINT('',(-5.5E-1,-1.875E0,-2.15E0));
#772=VERTEX_POINT('',#770);
#773=VERTEX_POINT('',#771);
#774=CARTESIAN_POINT('',(-9.5E-1,-2.225E0,-2.15E0));
#775=CARTESIAN_POINT('',(-9.5E-1,-1.875E0,-2.15E0));
#776=VERTEX_POINT('',#774);
#777=VERTEX_POINT('',#775);
#778=CARTESIAN_POINT('',(1.25E0,-1.525E0,-2.15E0));
#779=CARTESIAN_POINT('',(2.5E-1,-1.525E0,-2.15E0));
#780=VERTEX_POINT('',#778);
#781=VERTEX_POINT('',#779);
#782=CARTESIAN_POINT('',(1.25E0,-2.225E0,-2.15E0));
#783=VERTEX_POINT('',#782);
#784=CARTESIAN_POINT('',(2.5E-1,-2.225E0,-2.15E0));
#785=VERTEX_POINT('',#784);
#786=CARTESIAN_POINT('',(1.25E0,-1.525E0,0.E0));
#787=VERTEX_POINT('',#786);
#788=CARTESIAN_POINT('',(2.5E-1,-1.525E0,0.E0));
#789=VERTEX_POINT('',#788);
#790=CARTESIAN_POINT('',(5.5E-1,9.25E-1,-5.5E-1));
#791=CARTESIAN_POINT('',(5.5E-1,5.25E-1,-5.5E-1));
#792=VERTEX_POINT('',#790);
#793=VERTEX_POINT('',#791);
#794=CARTESIAN_POINT('',(9.5E-1,5.25E-1,-5.5E-1));
#795=VERTEX_POINT('',#794);
#796=CARTESIAN_POINT('',(9.5E-1,9.25E-1,-5.5E-1));
#797=VERTEX_POINT('',#796);
#798=CARTESIAN_POINT('',(5.5E-1,9.25E-1,-3.25E0));
#799=VERTEX_POINT('',#798);
#800=CARTESIAN_POINT('',(9.5E-1,9.25E-1,-3.25E0));
#801=VERTEX_POINT('',#800);
#802=CARTESIAN_POINT('',(5.5E-1,5.25E-1,-3.25E0));
#803=VERTEX_POINT('',#802);
#804=CARTESIAN_POINT('',(9.5E-1,5.25E-1,-3.25E0));
#805=VERTEX_POINT('',#804);
#806=CARTESIAN_POINT('',(9.5E-1,-1.715E0,-7.E0));
#807=CARTESIAN_POINT('',(9.5E-1,-2.275E0,-7.E0));
#808=VERTEX_POINT('',#806);
#809=VERTEX_POINT('',#807);
#810=CARTESIAN_POINT('',(9.5E-1,-2.275E0,-1.E0));
#811=CARTESIAN_POINT('',(9.5E-1,-1.875E0,-1.E0));
#812=VERTEX_POINT('',#810);
#813=VERTEX_POINT('',#811);
#814=CARTESIAN_POINT('',(5.5E-1,-1.715E0,-7.E0));
#815=CARTESIAN_POINT('',(5.5E-1,-2.275E0,-7.E0));
#816=VERTEX_POINT('',#814);
#817=VERTEX_POINT('',#815);
#818=CARTESIAN_POINT('',(5.5E-1,-2.275E0,-1.E0));
#819=CARTESIAN_POINT('',(5.5E-1,-1.875E0,-1.E0));
#820=VERTEX_POINT('',#818);
#821=VERTEX_POINT('',#819);
#822=CARTESIAN_POINT('',(9.5E-1,-1.715E0,-5.E0));
#823=VERTEX_POINT('',#822);
#824=CARTESIAN_POINT('',(5.5E-1,-1.715E0,-5.E0));
#825=VERTEX_POINT('',#824);
#826=CARTESIAN_POINT('',(1.25E0,-2.225E0,0.E0));
#827=VERTEX_POINT('',#826);
#828=CARTESIAN_POINT('',(2.5E-1,-2.225E0,0.E0));
#829=VERTEX_POINT('',#828);
#830=CARTESIAN_POINT('',(9.5E-1,-2.225E0,-5.E0));
#831=VERTEX_POINT('',#830);
#832=CARTESIAN_POINT('',(5.5E-1,-2.225E0,-5.E0));
#833=VERTEX_POINT('',#832);
#834=CARTESIAN_POINT('',(9.5E-1,-2.225E0,-2.15E0));
#835=CARTESIAN_POINT('',(9.5E-1,-1.875E0,-2.15E0));
#836=VERTEX_POINT('',#834);
#837=VERTEX_POINT('',#835);
#838=CARTESIAN_POINT('',(5.5E-1,-2.225E0,-2.15E0));
#839=CARTESIAN_POINT('',(5.5E-1,-1.875E0,-2.15E0));
#840=VERTEX_POINT('',#838);
#841=VERTEX_POINT('',#839);
#842=CARTESIAN_POINT('',(0.E0,0.E0,0.E0));
#843=DIRECTION('',(0.E0,0.E0,1.E0));
#844=DIRECTION('',(1.E0,0.E0,0.E0));
#845=AXIS2_PLACEMENT_3D('',#842,#843,#844);
#846=PLANE('',#845);
#848=ORIENTED_EDGE('',*,*,#847,.T.);
#850=ORIENTED_EDGE('',*,*,#849,.T.);
#852=ORIENTED_EDGE('',*,*,#851,.F.);
#854=ORIENTED_EDGE('',*,*,#853,.F.);
#856=ORIENTED_EDGE('',*,*,#855,.T.);
#858=ORIENTED_EDGE('',*,*,#857,.T.);
#860=ORIENTED_EDGE('',*,*,#859,.F.);
#862=ORIENTED_EDGE('',*,*,#861,.F.);
#864=ORIENTED_EDGE('',*,*,#863,.F.);
#866=ORIENTED_EDGE('',*,*,#865,.F.);
#868=ORIENTED_EDGE('',*,*,#867,.F.);
#870=ORIENTED_EDGE('',*,*,#869,.F.);
#871=EDGE_LOOP('',(#848,#850,#852,#854,#856,#858,#860,#862,#864,#866,#868,
#870));
#872=FACE_OUTER_BOUND('',#871,.F.);
#874=ORIENTED_EDGE('',*,*,#873,.F.);
#876=ORIENTED_EDGE('',*,*,#875,.F.);
#878=ORIENTED_EDGE('',*,*,#877,.F.);
#880=ORIENTED_EDGE('',*,*,#879,.F.);
#882=ORIENTED_EDGE('',*,*,#881,.F.);
#884=ORIENTED_EDGE('',*,*,#883,.F.);
#885=EDGE_LOOP('',(#874,#876,#878,#880,#882,#884));
#886=FACE_BOUND('',#885,.F.);
#888=CARTESIAN_POINT('',(1.85E0,1.025E0,-1.E-1));
#889=DIRECTION('',(-7.071067811865E-1,0.E0,7.071067811865E-1));
#890=DIRECTION('',(-7.071067811865E-1,0.E0,-7.071067811865E-1));
#891=AXIS2_PLACEMENT_3D('',#888,#889,#890);
#892=PLANE('',#891);
#894=ORIENTED_EDGE('',*,*,#893,.F.);
#896=ORIENTED_EDGE('',*,*,#895,.T.);
#897=ORIENTED_EDGE('',*,*,#873,.T.);
#899=ORIENTED_EDGE('',*,*,#898,.T.);
#900=EDGE_LOOP('',(#894,#896,#897,#899));
#901=FACE_OUTER_BOUND('',#900,.F.);
#903=CARTESIAN_POINT('',(1.75E0,1.725E0,0.E0));
#904=DIRECTION('',(-1.E0,0.E0,0.E0));
#905=DIRECTION('',(0.E0,-1.E0,0.E0));
#906=AXIS2_PLACEMENT_3D('',#903,#904,#905);
#907=PLANE('',#906);
#908=ORIENTED_EDGE('',*,*,#893,.T.);
#910=ORIENTED_EDGE('',*,*,#909,.T.);
#912=ORIENTED_EDGE('',*,*,#911,.F.);
#914=ORIENTED_EDGE('',*,*,#913,.T.);
#916=ORIENTED_EDGE('',*,*,#915,.F.);
#917=EDGE_LOOP('',(#908,#910,#912,#914,#916));
#918=FACE_OUTER_BOUND('',#917,.F.);
#920=CARTESIAN_POINT('',(1.75E0,3.25E-1,0.E0));
#921=DIRECTION('',(-7.071067811865E-1,-7.071067811865E-1,0.E0));
#922=DIRECTION('',(7.071067811865E-1,-7.071067811865E-1,0.E0));
#923=AXIS2_PLACEMENT_3D('',#920,#921,#922);
#924=PLANE('',#923);
#926=ORIENTED_EDGE('',*,*,#925,.F.);
#928=ORIENTED_EDGE('',*,*,#927,.F.);
#929=ORIENTED_EDGE('',*,*,#909,.F.);
#930=ORIENTED_EDGE('',*,*,#898,.F.);
#931=EDGE_LOOP('',(#926,#928,#929,#930));
#932=FACE_OUTER_BOUND('',#931,.F.);
#934=CARTESIAN_POINT('',(1.95E0,-2.225E0,0.E0));
#935=DIRECTION('',(1.E0,0.E0,0.E0));
#936=DIRECTION('',(0.E0,1.E0,0.E0));
#937=AXIS2_PLACEMENT_3D('',#934,#935,#936);
#938=PLANE('',#937);
#939=ORIENTED_EDGE('',*,*,#883,.T.);
#941=ORIENTED_EDGE('',*,*,#940,.F.);
#943=ORIENTED_EDGE('',*,*,#942,.F.);
#945=ORIENTED_EDGE('',*,*,#944,.F.);
#947=ORIENTED_EDGE('',*,*,#946,.F.);
#948=ORIENTED_EDGE('',*,*,#925,.T.);
#949=EDGE_LOOP('',(#939,#941,#943,#945,#947,#948));
#950=FACE_OUTER_BOUND('',#949,.F.);
#952=CARTESIAN_POINT('',(0.E0,-1.325E0,-1.E-1));
#953=DIRECTION('',(0.E0,7.071067811865E-1,7.071067811865E-1));
#954=DIRECTION('',(0.E0,7.071067811865E-1,-7.071067811865E-1));
#955=AXIS2_PLACEMENT_3D('',#952,#953,#954);
#956=PLANE('',#955);
#958=ORIENTED_EDGE('',*,*,#957,.F.);
#959=ORIENTED_EDGE('',*,*,#940,.T.);
#960=ORIENTED_EDGE('',*,*,#881,.T.);
#962=ORIENTED_EDGE('',*,*,#961,.T.);
#963=EDGE_LOOP('',(#958,#959,#960,#962));
#964=FACE_OUTER_BOUND('',#963,.F.);
#966=CARTESIAN_POINT('',(-1.95E0,-1.225E0,-3.75E0));
#967=DIRECTION('',(0.E0,-1.E0,0.E0));
#968=DIRECTION('',(0.E0,0.E0,1.E0));
#969=AXIS2_PLACEMENT_3D('',#966,#967,#968);
#970=PLANE('',#969);
#971=ORIENTED_EDGE('',*,*,#957,.T.);
#973=ORIENTED_EDGE('',*,*,#972,.F.);
#975=ORIENTED_EDGE('',*,*,#974,.T.);
#976=ORIENTED_EDGE('',*,*,#942,.T.);
#977=EDGE_LOOP('',(#971,#973,#975,#976));
#978=FACE_OUTER_BOUND('',#977,.F.);
#980=CARTESIAN_POINT('',(-1.95E0,0.E0,0.E0));
#981=DIRECTION('',(-1.E0,0.E0,0.E0));
#982=DIRECTION('',(0.E0,0.E0,1.E0));
#983=AXIS2_PLACEMENT_3D('',#980,#981,#982);
#984=PLANE('',#983);
#985=ORIENTED_EDGE('',*,*,#972,.T.);
#986=ORIENTED_EDGE('',*,*,#961,.F.);
#987=ORIENTED_EDGE('',*,*,#879,.T.);
#989=ORIENTED_EDGE('',*,*,#988,.F.);
#991=ORIENTED_EDGE('',*,*,#990,.T.);
#993=ORIENTED_EDGE('',*,*,#992,.T.);
#994=EDGE_LOOP('',(#985,#986,#987,#989,#991,#993));
#995=FACE_OUTER_BOUND('',#994,.F.);
#997=CARTESIAN_POINT('',(-1.95E0,1.25E-1,0.E0));
#998=DIRECTION('',(7.071067811865E-1,-7.071067811865E-1,0.E0));
#999=DIRECTION('',(7.071067811865E-1,7.071067811865E-1,0.E0));
#1000=AXIS2_PLACEMENT_3D('',#997,#998,#999);
#1001=PLANE('',#1000);
#1002=ORIENTED_EDGE('',*,*,#988,.T.);
#1004=ORIENTED_EDGE('',*,*,#1003,.F.);
#1006=ORIENTED_EDGE('',*,*,#1005,.T.);
#1008=ORIENTED_EDGE('',*,*,#1007,.F.);
#1009=EDGE_LOOP('',(#1002,#1004,#1006,#1008));
#1010=FACE_OUTER_BOUND('',#1009,.F.);
#1012=CARTESIAN_POINT('',(-1.85E0,1.025E0,-1.E-1));
#1013=DIRECTION('',(7.071067811865E-1,0.E0,7.071067811865E-1));
#1014=DIRECTION('',(7.071067811865E-1,0.E0,-7.071067811865E-1));
#1015=AXIS2_PLACEMENT_3D('',#1012,#1013,#1014);
#1016=PLANE('',#1015);
#1018=ORIENTED_EDGE('',*,*,#1017,.F.);
#1019=ORIENTED_EDGE('',*,*,#1003,.T.);
#1020=ORIENTED_EDGE('',*,*,#877,.T.);
#1022=ORIENTED_EDGE('',*,*,#1021,.F.);
#1023=EDGE_LOOP('',(#1018,#1019,#1020,#1022));
#1024=FACE_OUTER_BOUND('',#1023,.F.);
#1026=CARTESIAN_POINT('',(-1.75E0,3.25E-1,0.E0));
#1027=DIRECTION('',(1.E0,0.E0,0.E0));
#1028=DIRECTION('',(0.E0,1.E0,0.E0));
#1029=AXIS2_PLACEMENT_3D('',#1026,#1027,#1028);
#1030=PLANE('',#1029);
#1031=ORIENTED_EDGE('',*,*,#1017,.T.);
#1033=ORIENTED_EDGE('',*,*,#1032,.T.);
#1035=ORIENTED_EDGE('',*,*,#1034,.F.);
#1037=ORIENTED_EDGE('',*,*,#1036,.T.);
#1038=ORIENTED_EDGE('',*,*,#1005,.F.);
#1039=EDGE_LOOP('',(#1031,#1033,#1035,#1037,#1038));
#1040=FACE_OUTER_BOUND('',#1039,.F.);
#1042=CARTESIAN_POINT('',(-1.95E0,1.725E0,0.E0));
#1043=DIRECTION('',(0.E0,1.E0,0.E0));
#1044=DIRECTION('',(0.E0,0.E0,-1.E0));
#1045=AXIS2_PLACEMENT_3D('',#1042,#1043,#1044);
#1046=PLANE('',#1045);
#1048=ORIENTED_EDGE('',*,*,#1047,.F.);
#1050=ORIENTED_EDGE('',*,*,#1049,.T.);
#1051=ORIENTED_EDGE('',*,*,#915,.T.);
#1053=ORIENTED_EDGE('',*,*,#1052,.F.);
#1054=EDGE_LOOP('',(#1048,#1050,#1051,#1053));
#1055=FACE_OUTER_BOUND('',#1054,.F.);
#1057=CARTESIAN_POINT('',(-1.95E0,1.725E0,0.E0));
#1058=DIRECTION('',(0.E0,1.E0,0.E0));
#1059=DIRECTION('',(0.E0,0.E0,-1.E0));
#1060=AXIS2_PLACEMENT_3D('',#1057,#1058,#1059);
#1061=PLANE('',#1060);
#1063=ORIENTED_EDGE('',*,*,#1062,.T.);
#1065=ORIENTED_EDGE('',*,*,#1064,.F.);
#1066=ORIENTED_EDGE('',*,*,#1032,.F.);
#1068=ORIENTED_EDGE('',*,*,#1067,.T.);
#1069=EDGE_LOOP('',(#1063,#1065,#1066,#1068));
#1070=FACE_OUTER_BOUND('',#1069,.F.);
#1072=CARTESIAN_POINT('',(4.E-1,1.725E0,0.E0));
#1073=DIRECTION('',(1.E0,0.E0,0.E0));
#1074=DIRECTION('',(0.E0,1.E0,0.E0));
#1075=AXIS2_PLACEMENT_3D('',#1072,#1073,#1074);
#1076=PLANE('',#1075);
#1078=ORIENTED_EDGE('',*,*,#1077,.T.);
#1080=ORIENTED_EDGE('',*,*,#1079,.F.);
#1082=ORIENTED_EDGE('',*,*,#1081,.F.);
#1083=ORIENTED_EDGE('',*,*,#1047,.T.);
#1084=EDGE_LOOP('',(#1078,#1080,#1082,#1083));
#1085=FACE_OUTER_BOUND('',#1084,.F.);
#1087=CARTESIAN_POINT('',(-1.95E0,1.725E0,-3.25E0));
#1088=DIRECTION('',(0.E0,0.E0,-1.E0));
#1089=DIRECTION('',(0.E0,-1.E0,0.E0));
#1090=AXIS2_PLACEMENT_3D('',#1087,#1088,#1089);
#1091=PLANE('',#1090);
#1092=ORIENTED_EDGE('',*,*,#1064,.T.);
#1094=ORIENTED_EDGE('',*,*,#1093,.F.);
#1096=ORIENTED_EDGE('',*,*,#1095,.F.);
#1097=ORIENTED_EDGE('',*,*,#1077,.F.);
#1098=ORIENTED_EDGE('',*,*,#1052,.T.);
#1099=ORIENTED_EDGE('',*,*,#913,.F.);
#1101=ORIENTED_EDGE('',*,*,#1100,.F.);
#1102=ORIENTED_EDGE('',*,*,#1034,.T.);
#1103=EDGE_LOOP('',(#1092,#1094,#1096,#1097,#1098,#1099,#1101,#1102));
#1104=FACE_OUTER_BOUND('',#1103,.F.);
#1106=ORIENTED_EDGE('',*,*,#1105,.F.);
#1108=ORIENTED_EDGE('',*,*,#1107,.T.);
#1110=ORIENTED_EDGE('',*,*,#1109,.T.);
#1112=ORIENTED_EDGE('',*,*,#1111,.T.);
#1113=EDGE_LOOP('',(#1106,#1108,#1110,#1112));
#1114=FACE_BOUND('',#1113,.F.);
#1116=ORIENTED_EDGE('',*,*,#1115,.T.);
#1118=ORIENTED_EDGE('',*,*,#1117,.T.);
#1120=ORIENTED_EDGE('',*,*,#1119,.T.);
#1122=ORIENTED_EDGE('',*,*,#1121,.T.);
#1123=EDGE_LOOP('',(#1116,#1118,#1120,#1122));
#1124=FACE_BOUND('',#1123,.F.);
#1126=CARTESIAN_POINT('',(-4.E-1,1.825E0,0.E0));
#1127=DIRECTION('',(-1.E0,0.E0,0.E0));
#1128=DIRECTION('',(0.E0,-1.E0,0.E0));
#1129=AXIS2_PLACEMENT_3D('',#1126,#1127,#1128);
#1130=PLANE('',#1129);
#1131=ORIENTED_EDGE('',*,*,#1093,.T.);
#1132=ORIENTED_EDGE('',*,*,#1062,.F.);
#1134=ORIENTED_EDGE('',*,*,#1133,.T.);
#1136=ORIENTED_EDGE('',*,*,#1135,.T.);
#1137=EDGE_LOOP('',(#1131,#1132,#1134,#1136));
#1138=FACE_OUTER_BOUND('',#1137,.F.);
#1140=CARTESIAN_POINT('',(0.E0,1.825E0,-1.E-1));
#1141=DIRECTION('',(0.E0,-7.071067811865E-1,7.071067811865E-1));
#1142=DIRECTION('',(0.E0,-7.071067811865E-1,-7.071067811865E-1));
#1143=AXIS2_PLACEMENT_3D('',#1140,#1141,#1142);
#1144=PLANE('',#1143);
#1145=ORIENTED_EDGE('',*,*,#1081,.T.);
#1147=ORIENTED_EDGE('',*,*,#1146,.T.);
#1148=ORIENTED_EDGE('',*,*,#1133,.F.);
#1149=ORIENTED_EDGE('',*,*,#1067,.F.);
#1150=ORIENTED_EDGE('',*,*,#1021,.T.);
#1151=ORIENTED_EDGE('',*,*,#875,.T.);
#1152=ORIENTED_EDGE('',*,*,#895,.F.);
#1153=ORIENTED_EDGE('',*,*,#1049,.F.);
#1154=EDGE_LOOP('',(#1145,#1147,#1148,#1149,#1150,#1151,#1152,#1153));
#1155=FACE_OUTER_BOUND('',#1154,.F.);
#1157=CARTESIAN_POINT('',(4.E-1,1.825E0,0.E0));
#1158=DIRECTION('',(0.E0,1.E0,0.E0));
#1159=DIRECTION('',(-1.E0,0.E0,0.E0));
#1160=AXIS2_PLACEMENT_3D('',#1157,#1158,#1159);
#1161=PLANE('',#1160);
#1162=ORIENTED_EDGE('',*,*,#1079,.T.);
#1163=ORIENTED_EDGE('',*,*,#1095,.T.);
#1164=ORIENTED_EDGE('',*,*,#1135,.F.);
#1165=ORIENTED_EDGE('',*,*,#1146,.F.);
#1166=EDGE_LOOP('',(#1162,#1163,#1164,#1165));
#1167=FACE_OUTER_BOUND('',#1166,.F.);
#1169=CARTESIAN_POINT('',(-1.95E0,4.25E-1,-3.25E0));
#1170=DIRECTION('',(0.E0,7.071067811865E-1,-7.071067811865E-1));
#1171=DIRECTION('',(0.E0,-7.071067811865E-1,-7.071067811865E-1));
#1172=AXIS2_PLACEMENT_3D('',#1169,#1170,#1171);
#1173=PLANE('',#1172);
#1174=ORIENTED_EDGE('',*,*,#1007,.T.);
#1175=ORIENTED_EDGE('',*,*,#1036,.F.);
#1176=ORIENTED_EDGE('',*,*,#1100,.T.);
#1177=ORIENTED_EDGE('',*,*,#911,.T.);
#1178=ORIENTED_EDGE('',*,*,#927,.T.);
#1179=ORIENTED_EDGE('',*,*,#946,.T.);
#1181=ORIENTED_EDGE('',*,*,#1180,.F.);
#1182=ORIENTED_EDGE('',*,*,#990,.F.);
#1183=EDGE_LOOP('',(#1174,#1175,#1176,#1177,#1178,#1179,#1181,#1182));
#1184=FACE_OUTER_BOUND('',#1183,.F.);
#1186=CARTESIAN_POINT('',(-1.95E0,-7.5E-2,-3.75E0));
#1187=DIRECTION('',(0.E0,0.E0,-1.E0));
#1188=DIRECTION('',(0.E0,-1.E0,0.E0));
#1189=AXIS2_PLACEMENT_3D('',#1186,#1187,#1188);
#1190=PLANE('',#1189);
#1191=ORIENTED_EDGE('',*,*,#992,.F.);
#1192=ORIENTED_EDGE('',*,*,#1180,.T.);
#1193=ORIENTED_EDGE('',*,*,#944,.T.);
#1194=ORIENTED_EDGE('',*,*,#974,.F.);
#1195=EDGE_LOOP('',(#1191,#1192,#1193,#1194));
#1196=FACE_OUTER_BOUND('',#1195,.F.);
#1198=CARTESIAN_POINT('',(-9.5E-1,9.25E-1,-3.25E0));
#1199=DIRECTION('',(-1.E0,0.E0,0.E0));
#1200=DIRECTION('',(0.E0,-1.E0,0.E0));
#1201=AXIS2_PLACEMENT_3D('',#1198,#1199,#1200);
#1202=PLANE('',#1201);
#1203=ORIENTED_EDGE('',*,*,#1105,.T.);
#1205=ORIENTED_EDGE('',*,*,#1204,.T.);
#1207=ORIENTED_EDGE('',*,*,#1206,.T.);
#1209=ORIENTED_EDGE('',*,*,#1208,.F.);
#1210=EDGE_LOOP('',(#1203,#1205,#1207,#1209));
#1211=FACE_OUTER_BOUND('',#1210,.F.);
#1213=CARTESIAN_POINT('',(-5.5E-1,9.25E-1,-3.25E0));
#1214=DIRECTION('',(0.E0,1.E0,0.E0));
#1215=DIRECTION('',(-1.E0,0.E0,0.E0));
#1216=AXIS2_PLACEMENT_3D('',#1213,#1214,#1215);
#1217=PLANE('',#1216);
#1218=ORIENTED_EDGE('',*,*,#1111,.F.);
#1220=ORIENTED_EDGE('',*,*,#1219,.T.);
#1222=ORIENTED_EDGE('',*,*,#1221,.T.);
#1223=ORIENTED_EDGE('',*,*,#1204,.F.);
#1224=EDGE_LOOP('',(#1218,#1220,#1222,#1223));
#1225=FACE_OUTER_BOUND('',#1224,.F.);
#1227=CARTESIAN_POINT('',(-5.5E-1,5.25E-1,-3.25E0));
#1228=DIRECTION('',(1.E0,0.E0,0.E0));
#1229=DIRECTION('',(0.E0,1.E0,0.E0));
#1230=AXIS2_PLACEMENT_3D('',#1227,#1228,#1229);
#1231=PLANE('',#1230);
#1232=ORIENTED_EDGE('',*,*,#1109,.F.);
#1234=ORIENTED_EDGE('',*,*,#1233,.T.);
#1236=ORIENTED_EDGE('',*,*,#1235,.T.);
#1237=ORIENTED_EDGE('',*,*,#1219,.F.);
#1238=EDGE_LOOP('',(#1232,#1234,#1236,#1237));
#1239=FACE_OUTER_BOUND('',#1238,.F.);
#1241=CARTESIAN_POINT('',(-9.5E-1,5.25E-1,-3.25E0));
#1242=DIRECTION('',(0.E0,-1.E0,0.E0));
#1243=DIRECTION('',(1.E0,0.E0,0.E0));
#1244=AXIS2_PLACEMENT_3D('',#1241,#1242,#1243);
#1245=PLANE('',#1244);
#1246=ORIENTED_EDGE('',*,*,#1107,.F.);
#1247=ORIENTED_EDGE('',*,*,#1208,.T.);
#1249=ORIENTED_EDGE('',*,*,#1248,.T.);
#1250=ORIENTED_EDGE('',*,*,#1233,.F.);
#1251=EDGE_LOOP('',(#1246,#1247,#1249,#1250));
#1252=FACE_OUTER_BOUND('',#1251,.F.);
#1254=CARTESIAN_POINT('',(-1.95E0,0.E0,-5.5E-1));
#1255=DIRECTION('',(0.E0,0.E0,1.E0));
#1256=DIRECTION('',(1.E0,0.E0,0.E0));
#1257=AXIS2_PLACEMENT_3D('',#1254,#1255,#1256);
#1258=PLANE('',#1257);
#1259=ORIENTED_EDGE('',*,*,#1206,.F.);
#1260=ORIENTED_EDGE('',*,*,#1221,.F.);
#1261=ORIENTED_EDGE('',*,*,#1235,.F.);
#1262=ORIENTED_EDGE('',*,*,#1248,.F.);
#1263=EDGE_LOOP('',(#1259,#1260,#1261,#1262));
#1264=FACE_OUTER_BOUND('',#1263,.F.);
#1266=CARTESIAN_POINT('',(5.5E-1,9.25E-1,-3.25E0));
#1267=DIRECTION('',(-1.E0,0.E0,0.E0));
#1268=DIRECTION('',(0.E0,-1.E0,0.E0));
#1269=AXIS2_PLACEMENT_3D('',#1266,#1267,#1268);
#1270=PLANE('',#1269);
#1272=ORIENTED_EDGE('',*,*,#1271,.T.);
#1274=ORIENTED_EDGE('',*,*,#1273,.T.);
#1276=ORIENTED_EDGE('',*,*,#1275,.F.);
#1277=ORIENTED_EDGE('',*,*,#1115,.F.);
#1278=EDGE_LOOP('',(#1272,#1274,#1276,#1277));
#1279=FACE_OUTER_BOUND('',#1278,.F.);
#1281=CARTESIAN_POINT('',(9.5E-1,9.25E-1,-3.25E0));
#1282=DIRECTION('',(0.E0,1.E0,0.E0));
#1283=DIRECTION('',(-1.E0,0.E0,0.E0));
#1284=AXIS2_PLACEMENT_3D('',#1281,#1282,#1283);
#1285=PLANE('',#1284);
#1286=ORIENTED_EDGE('',*,*,#1271,.F.);
#1287=ORIENTED_EDGE('',*,*,#1121,.F.);
#1289=ORIENTED_EDGE('',*,*,#1288,.T.);
#1291=ORIENTED_EDGE('',*,*,#1290,.T.);
#1292=EDGE_LOOP('',(#1286,#1287,#1289,#1291));
#1293=FACE_OUTER_BOUND('',#1292,.F.);
#1295=CARTESIAN_POINT('',(9.5E-1,5.25E-1,-3.25E0));
#1296=DIRECTION('',(1.E0,0.E0,0.E0));
#1297=DIRECTION('',(0.E0,1.E0,0.E0));
#1298=AXIS2_PLACEMENT_3D('',#1295,#1296,#1297);
#1299=PLANE('',#1298);
#1300=ORIENTED_EDGE('',*,*,#1288,.F.);
#1301=ORIENTED_EDGE('',*,*,#1119,.F.);
#1303=ORIENTED_EDGE('',*,*,#1302,.T.);
#1305=ORIENTED_EDGE('',*,*,#1304,.T.);
#1306=EDGE_LOOP('',(#1300,#1301,#1303,#1305));
#1307=FACE_OUTER_BOUND('',#1306,.F.);
#1309=CARTESIAN_POINT('',(5.5E-1,5.25E-1,-3.25E0));
#1310=DIRECTION('',(0.E0,-1.E0,0.E0));
#1311=DIRECTION('',(1.E0,0.E0,0.E0));
#1312=AXIS2_PLACEMENT_3D('',#1309,#1310,#1311);
#1313=PLANE('',#1312);
#1314=ORIENTED_EDGE('',*,*,#1275,.T.);
#1316=ORIENTED_EDGE('',*,*,#1315,.T.);
#1317=ORIENTED_EDGE('',*,*,#1302,.F.);
#1318=ORIENTED_EDGE('',*,*,#1117,.F.);
#1319=EDGE_LOOP('',(#1314,#1316,#1317,#1318));
#1320=FACE_OUTER_BOUND('',#1319,.F.);
#1322=CARTESIAN_POINT('',(-4.5E-1,0.E0,-5.5E-1));
#1323=DIRECTION('',(0.E0,0.E0,1.E0));
#1324=DIRECTION('',(1.E0,0.E0,0.E0));
#1325=AXIS2_PLACEMENT_3D('',#1322,#1323,#1324);
#1326=PLANE('',#1325);
#1327=ORIENTED_EDGE('',*,*,#1273,.F.);
#1328=ORIENTED_EDGE('',*,*,#1290,.F.);
#1329=ORIENTED_EDGE('',*,*,#1304,.F.);
#1330=ORIENTED_EDGE('',*,*,#1315,.F.);
#1331=EDGE_LOOP('',(#1327,#1328,#1329,#1330));
#1332=FACE_OUTER_BOUND('',#1331,.F.);
#1334=CARTESIAN_POINT('',(1.25E0,-2.225E0,0.E0));
#1335=DIRECTION('',(1.E0,0.E0,0.E0));
#1336=DIRECTION('',(0.E0,1.E0,0.E0));
#1337=AXIS2_PLACEMENT_3D('',#1334,#1335,#1336);
#1338=PLANE('',#1337);
#1340=ORIENTED_EDGE('',*,*,#1339,.T.);
#1342=ORIENTED_EDGE('',*,*,#1341,.F.);
#1343=ORIENTED_EDGE('',*,*,#847,.F.);
#1345=ORIENTED_EDGE('',*,*,#1344,.T.);
#1346=EDGE_LOOP('',(#1340,#1342,#1343,#1345));
#1347=FACE_OUTER_BOUND('',#1346,.F.);
#1349=CARTESIAN_POINT('',(1.5E0,0.E0,-2.15E0));
#1350=DIRECTION('',(0.E0,0.E0,1.E0));
#1351=DIRECTION('',(1.E0,0.E0,0.E0));
#1352=AXIS2_PLACEMENT_3D('',#1349,#1350,#1351);
#1353=PLANE('',#1352);
#1355=ORIENTED_EDGE('',*,*,#1354,.T.);
#1357=ORIENTED_EDGE('',*,*,#1356,.T.);
#1359=ORIENTED_EDGE('',*,*,#1358,.F.);
#1361=ORIENTED_EDGE('',*,*,#1360,.F.);
#1363=ORIENTED_EDGE('',*,*,#1362,.F.);
#1365=ORIENTED_EDGE('',*,*,#1364,.F.);
#1366=ORIENTED_EDGE('',*,*,#1339,.F.);
#1368=ORIENTED_EDGE('',*,*,#1367,.F.);
#1369=EDGE_LOOP('',(#1355,#1357,#1359,#1361,#1363,#1365,#1366,#1368));
#1370=FACE_OUTER_BOUND('',#1369,.F.);
#1372=CARTESIAN_POINT('',(9.5E-1,0.E0,0.E0));
#1373=DIRECTION('',(-1.E0,0.E0,0.E0));
#1374=DIRECTION('',(0.E0,0.E0,1.E0));
#1375=AXIS2_PLACEMENT_3D('',#1372,#1373,#1374);
#1376=PLANE('',#1375);
#1378=ORIENTED_EDGE('',*,*,#1377,.T.);
#1380=ORIENTED_EDGE('',*,*,#1379,.T.);
#1382=ORIENTED_EDGE('',*,*,#1381,.F.);
#1384=ORIENTED_EDGE('',*,*,#1383,.T.);
#1386=ORIENTED_EDGE('',*,*,#1385,.T.);
#1387=ORIENTED_EDGE('',*,*,#1354,.F.);
#1389=ORIENTED_EDGE('',*,*,#1388,.F.);
#1391=ORIENTED_EDGE('',*,*,#1390,.T.);
#1392=EDGE_LOOP('',(#1378,#1380,#1382,#1384,#1386,#1387,#1389,#1391));
#1393=FACE_OUTER_BOUND('',#1392,.F.);
#1395=CARTESIAN_POINT('',(9.5E-1,-1.715E0,-5.E0));
#1396=DIRECTION('',(0.E0,1.E0,0.E0));
#1397=DIRECTION('',(0.E0,0.E0,-1.E0));
#1398=AXIS2_PLACEMENT_3D('',#1395,#1396,#1397);
#1399=PLANE('',#1398);
#1400=ORIENTED_EDGE('',*,*,#1377,.F.);
#1402=ORIENTED_EDGE('',*,*,#1401,.T.);
#1404=ORIENTED_EDGE('',*,*,#1403,.T.);
#1406=ORIENTED_EDGE('',*,*,#1405,.F.);
#1407=EDGE_LOOP('',(#1400,#1402,#1404,#1406));
#1408=FACE_OUTER_BOUND('',#1407,.F.);
#1410=CARTESIAN_POINT('',(0.E0,0.E0,-5.E0));
#1411=DIRECTION('',(0.E0,0.E0,1.E0));
#1412=DIRECTION('',(1.E0,0.E0,0.E0));
#1413=AXIS2_PLACEMENT_3D('',#1410,#1411,#1412);
#1414=PLANE('',#1413);
#1415=ORIENTED_EDGE('',*,*,#1390,.F.);
#1417=ORIENTED_EDGE('',*,*,#1416,.T.);
#1419=ORIENTED_EDGE('',*,*,#1418,.T.);
#1421=ORIENTED_EDGE('',*,*,#1420,.T.);
#1423=ORIENTED_EDGE('',*,*,#1422,.T.);
#1425=ORIENTED_EDGE('',*,*,#1424,.T.);
#1427=ORIENTED_EDGE('',*,*,#1426,.T.);
#1429=ORIENTED_EDGE('',*,*,#1428,.F.);
#1431=ORIENTED_EDGE('',*,*,#1430,.F.);
#1433=ORIENTED_EDGE('',*,*,#1432,.T.);
#1435=ORIENTED_EDGE('',*,*,#1434,.T.);
#1436=ORIENTED_EDGE('',*,*,#1401,.F.);
#1437=EDGE_LOOP('',(#1415,#1417,#1419,#1421,#1423,#1425,#1427,#1429,#1431,#1433,
#1435,#1436));
#1438=FACE_OUTER_BOUND('',#1437,.F.);
#1440=CARTESIAN_POINT('',(-2.25E0,-2.225E0,0.E0));
#1441=DIRECTION('',(0.E0,-1.E0,0.E0));
#1442=DIRECTION('',(1.E0,0.E0,0.E0));
#1443=AXIS2_PLACEMENT_3D('',#1440,#1441,#1442);
#1444=PLANE('',#1443);
#1445=ORIENTED_EDGE('',*,*,#1424,.F.);
#1447=ORIENTED_EDGE('',*,*,#1446,.F.);
#1448=ORIENTED_EDGE('',*,*,#861,.T.);
#1450=ORIENTED_EDGE('',*,*,#1449,.T.);
#1452=ORIENTED_EDGE('',*,*,#1451,.T.);
#1454=ORIENTED_EDGE('',*,*,#1453,.F.);
#1455=EDGE_LOOP('',(#1445,#1447,#1448,#1450,#1452,#1454));
#1456=FACE_OUTER_BOUND('',#1455,.F.);
#1458=CARTESIAN_POINT('',(-2.25E0,-2.225E0,0.E0));
#1459=DIRECTION('',(0.E0,-1.E0,0.E0));
#1460=DIRECTION('',(1.E0,0.E0,0.E0));
#1461=AXIS2_PLACEMENT_3D('',#1458,#1459,#1460);
#1462=PLANE('',#1461);
#1463=ORIENTED_EDGE('',*,*,#1432,.F.);
#1465=ORIENTED_EDGE('',*,*,#1464,.T.);
#1467=ORIENTED_EDGE('',*,*,#1466,.T.);
#1469=ORIENTED_EDGE('',*,*,#1468,.F.);
#1470=ORIENTED_EDGE('',*,*,#853,.T.);
#1472=ORIENTED_EDGE('',*,*,#1471,.T.);
#1473=ORIENTED_EDGE('',*,*,#1360,.T.);
#1475=ORIENTED_EDGE('',*,*,#1474,.F.);
#1476=EDGE_LOOP('',(#1463,#1465,#1467,#1469,#1470,#1472,#1473,#1475));
#1477=FACE_OUTER_BOUND('',#1476,.F.);
#1479=CARTESIAN_POINT('',(-2.25E0,-2.225E0,0.E0));
#1480=DIRECTION('',(0.E0,-1.E0,0.E0));
#1481=DIRECTION('',(1.E0,0.E0,0.E0));
#1482=AXIS2_PLACEMENT_3D('',#1479,#1480,#1481);
#1483=PLANE('',#1482);
#1484=ORIENTED_EDGE('',*,*,#1416,.F.);
#1485=ORIENTED_EDGE('',*,*,#1388,.T.);
#1486=ORIENTED_EDGE('',*,*,#1367,.T.);
#1487=ORIENTED_EDGE('',*,*,#1344,.F.);
#1488=ORIENTED_EDGE('',*,*,#869,.T.);
#1490=ORIENTED_EDGE('',*,*,#1489,.T.);
#1491=EDGE_LOOP('',(#1484,#1485,#1486,#1487,#1488,#1490));
#1492=FACE_OUTER_BOUND('',#1491,.F.);
#1494=CARTESIAN_POINT('',(-2.25E0,2.225E0,0.E0));
#1495=DIRECTION('',(-1.E0,0.E0,0.E0));
#1496=DIRECTION('',(0.E0,-1.E0,0.E0));
#1497=AXIS2_PLACEMENT_3D('',#1494,#1495,#1496);
#1498=PLANE('',#1497);
#1499=ORIENTED_EDGE('',*,*,#863,.T.);
#1500=ORIENTED_EDGE('',*,*,#1446,.T.);
#1501=ORIENTED_EDGE('',*,*,#1422,.F.);
#1503=ORIENTED_EDGE('',*,*,#1502,.F.);
#1504=EDGE_LOOP('',(#1499,#1500,#1501,#1503));
#1505=FACE_OUTER_BOUND('',#1504,.F.);
#1507=CARTESIAN_POINT('',(2.25E0,2.225E0,0.E0));
#1508=DIRECTION('',(0.E0,1.E0,0.E0));
#1509=DIRECTION('',(-1.E0,0.E0,0.E0));
#1510=AXIS2_PLACEMENT_3D('',#1507,#1508,#1509);
#1511=PLANE('',#1510);
#1512=ORIENTED_EDGE('',*,*,#865,.T.);
#1513=ORIENTED_EDGE('',*,*,#1502,.T.);
#1514=ORIENTED_EDGE('',*,*,#1420,.F.);
#1516=ORIENTED_EDGE('',*,*,#1515,.F.);
#1517=EDGE_LOOP('',(#1512,#1513,#1514,#1516));
#1518=FACE_OUTER_BOUND('',#1517,.F.);
#1520=CARTESIAN_POINT('',(2.25E0,-2.225E0,0.E0));
#1521=DIRECTION('',(1.E0,0.E0,0.E0));
#1522=DIRECTION('',(0.E0,1.E0,0.E0));
#1523=AXIS2_PLACEMENT_3D('',#1520,#1521,#1522);
#1524=PLANE('',#1523);
#1525=ORIENTED_EDGE('',*,*,#867,.T.);
#1526=ORIENTED_EDGE('',*,*,#1515,.T.);
#1527=ORIENTED_EDGE('',*,*,#1418,.F.);
#1528=ORIENTED_EDGE('',*,*,#1489,.F.);
#1529=EDGE_LOOP('',(#1525,#1526,#1527,#1528));
#1530=FACE_OUTER_BOUND('',#1529,.F.);
#1532=CARTESIAN_POINT('',(-1.25E0,-1.525E0,0.E0));
#1533=DIRECTION('',(-1.E0,0.E0,0.E0));
#1534=DIRECTION('',(0.E0,-1.E0,0.E0));
#1535=AXIS2_PLACEMENT_3D('',#1532,#1533,#1534);
#1536=PLANE('',#1535);
#1537=ORIENTED_EDGE('',*,*,#859,.T.);
#1539=ORIENTED_EDGE('',*,*,#1538,.T.);
#1541=ORIENTED_EDGE('',*,*,#1540,.T.);
#1542=ORIENTED_EDGE('',*,*,#1449,.F.);
#1543=EDGE_LOOP('',(#1537,#1539,#1541,#1542));
#1544=FACE_OUTER_BOUND('',#1543,.F.);
#1546=CARTESIAN_POINT('',(-2.5E-1,-1.525E0,0.E0));
#1547=DIRECTION('',(0.E0,1.E0,0.E0));
#1548=DIRECTION('',(-1.E0,0.E0,0.E0));
#1549=AXIS2_PLACEMENT_3D('',#1546,#1547,#1548);
#1550=PLANE('',#1549);
#1551=ORIENTED_EDGE('',*,*,#857,.F.);
#1553=ORIENTED_EDGE('',*,*,#1552,.T.);
#1555=ORIENTED_EDGE('',*,*,#1554,.T.);
#1556=ORIENTED_EDGE('',*,*,#1538,.F.);
#1557=EDGE_LOOP('',(#1551,#1553,#1555,#1556));
#1558=FACE_OUTER_BOUND('',#1557,.F.);
#1560=CARTESIAN_POINT('',(-2.5E-1,-2.225E0,0.E0));
#1561=DIRECTION('',(1.E0,0.E0,0.E0));
#1562=DIRECTION('',(0.E0,1.E0,0.E0));
#1563=AXIS2_PLACEMENT_3D('',#1560,#1561,#1562);
#1564=PLANE('',#1563);
#1565=ORIENTED_EDGE('',*,*,#855,.F.);
#1566=ORIENTED_EDGE('',*,*,#1468,.T.);
#1568=ORIENTED_EDGE('',*,*,#1567,.T.);
#1569=ORIENTED_EDGE('',*,*,#1552,.F.);
#1570=EDGE_LOOP('',(#1565,#1566,#1568,#1569));
#1571=FACE_OUTER_BOUND('',#1570,.F.);
#1573=CARTESIAN_POINT('',(0.E0,0.E0,-2.15E0));
#1574=DIRECTION('',(0.E0,0.E0,1.E0));
#1575=DIRECTION('',(1.E0,0.E0,0.E0));
#1576=AXIS2_PLACEMENT_3D('',#1573,#1574,#1575);
#1577=PLANE('',#1576);
#1579=ORIENTED_EDGE('',*,*,#1578,.T.);
#1581=ORIENTED_EDGE('',*,*,#1580,.T.);
#1583=ORIENTED_EDGE('',*,*,#1582,.F.);
#1584=ORIENTED_EDGE('',*,*,#1451,.F.);
#1585=ORIENTED_EDGE('',*,*,#1540,.F.);
#1586=ORIENTED_EDGE('',*,*,#1554,.F.);
#1587=ORIENTED_EDGE('',*,*,#1567,.F.);
#1588=ORIENTED_EDGE('',*,*,#1466,.F.);
#1589=EDGE_LOOP('',(#1579,#1581,#1583,#1584,#1585,#1586,#1587,#1588));
#1590=FACE_OUTER_BOUND('',#1589,.F.);
#1592=CARTESIAN_POINT('',(-5.5E-1,0.E0,0.E0));
#1593=DIRECTION('',(-1.E0,0.E0,0.E0));
#1594=DIRECTION('',(0.E0,0.E0,1.E0));
#1595=AXIS2_PLACEMENT_3D('',#1592,#1593,#1594);
#1596=PLANE('',#1595);
#1597=ORIENTED_EDGE('',*,*,#1430,.T.);
#1599=ORIENTED_EDGE('',*,*,#1598,.T.);
#1601=ORIENTED_EDGE('',*,*,#1600,.T.);
#1603=ORIENTED_EDGE('',*,*,#1602,.F.);
#1605=ORIENTED_EDGE('',*,*,#1604,.T.);
#1607=ORIENTED_EDGE('',*,*,#1606,.T.);
#1608=ORIENTED_EDGE('',*,*,#1578,.F.);
#1609=ORIENTED_EDGE('',*,*,#1464,.F.);
#1610=EDGE_LOOP('',(#1597,#1599,#1601,#1603,#1605,#1607,#1608,#1609));
#1611=FACE_OUTER_BOUND('',#1610,.F.);
#1613=CARTESIAN_POINT('',(-5.5E-1,-1.715E0,-5.E0));
#1614=DIRECTION('',(0.E0,1.E0,0.E0));
#1615=DIRECTION('',(0.E0,0.E0,-1.E0));
#1616=AXIS2_PLACEMENT_3D('',#1613,#1614,#1615);
#1617=PLANE('',#1616);
#1618=ORIENTED_EDGE('',*,*,#1428,.T.);
#1620=ORIENTED_EDGE('',*,*,#1619,.T.);
#1622=ORIENTED_EDGE('',*,*,#1621,.F.);
#1623=ORIENTED_EDGE('',*,*,#1598,.F.);
#1624=EDGE_LOOP('',(#1618,#1620,#1622,#1623));
#1625=FACE_OUTER_BOUND('',#1624,.F.);
#1627=CARTESIAN_POINT('',(-9.5E-1,0.E0,0.E0));
#1628=DIRECTION('',(-1.E0,0.E0,0.E0));
#1629=DIRECTION('',(0.E0,0.E0,1.E0));
#1630=AXIS2_PLACEMENT_3D('',#1627,#1628,#1629);
#1631=PLANE('',#1630);
#1632=ORIENTED_EDGE('',*,*,#1426,.F.);
#1633=ORIENTED_EDGE('',*,*,#1453,.T.);
#1634=ORIENTED_EDGE('',*,*,#1582,.T.);
#1636=ORIENTED_EDGE('',*,*,#1635,.F.);
#1638=ORIENTED_EDGE('',*,*,#1637,.F.);
#1640=ORIENTED_EDGE('',*,*,#1639,.F.);
#1642=ORIENTED_EDGE('',*,*,#1641,.F.);
#1643=ORIENTED_EDGE('',*,*,#1619,.F.);
#1644=EDGE_LOOP('',(#1632,#1633,#1634,#1636,#1638,#1640,#1642,#1643));
#1645=FACE_OUTER_BOUND('',#1644,.F.);
#1647=CARTESIAN_POINT('',(-5.5E-1,-1.875E0,-1.E0));
#1648=DIRECTION('',(0.E0,1.E0,0.E0));
#1649=DIRECTION('',(0.E0,0.E0,-1.E0));
#1650=AXIS2_PLACEMENT_3D('',#1647,#1648,#1649);
#1651=PLANE('',#1650);
#1652=ORIENTED_EDGE('',*,*,#1580,.F.);
#1653=ORIENTED_EDGE('',*,*,#1606,.F.);
#1655=ORIENTED_EDGE('',*,*,#1654,.T.);
#1656=ORIENTED_EDGE('',*,*,#1635,.T.);
#1657=EDGE_LOOP('',(#1652,#1653,#1655,#1656));
#1658=FACE_OUTER_BOUND('',#1657,.F.);
#1660=CARTESIAN_POINT('',(-5.5E-1,-2.275E0,-1.E0));
#1661=DIRECTION('',(0.E0,0.E0,1.E0));
#1662=DIRECTION('',(0.E0,1.E0,0.E0));
#1663=AXIS2_PLACEMENT_3D('',#1660,#1661,#1662);
#1664=PLANE('',#1663);
#1665=ORIENTED_EDGE('',*,*,#1604,.F.);
#1667=ORIENTED_EDGE('',*,*,#1666,.T.);
#1668=ORIENTED_EDGE('',*,*,#1637,.T.);
#1669=ORIENTED_EDGE('',*,*,#1654,.F.);
#1670=EDGE_LOOP('',(#1665,#1667,#1668,#1669));
#1671=FACE_OUTER_BOUND('',#1670,.F.);
#1673=CARTESIAN_POINT('',(-5.5E-1,-2.275E0,-5.E0));
#1674=DIRECTION('',(0.E0,-1.E0,0.E0));
#1675=DIRECTION('',(0.E0,0.E0,1.E0));
#1676=AXIS2_PLACEMENT_3D('',#1673,#1674,#1675);
#1677=PLANE('',#1676);
#1678=ORIENTED_EDGE('',*,*,#1602,.T.);
#1680=ORIENTED_EDGE('',*,*,#1679,.T.);
#1681=ORIENTED_EDGE('',*,*,#1639,.T.);
#1682=ORIENTED_EDGE('',*,*,#1666,.F.);
#1683=EDGE_LOOP('',(#1678,#1680,#1681,#1682));
#1684=FACE_OUTER_BOUND('',#1683,.F.);
#1686=CARTESIAN_POINT('',(-5.5E-1,-1.715E0,-7.E0));
#1687=DIRECTION('',(0.E0,0.E0,-1.E0));
#1688=DIRECTION('',(0.E0,-1.E0,0.E0));
#1689=AXIS2_PLACEMENT_3D('',#1686,#1687,#1688);
#1690=PLANE('',#1689);
#1691=ORIENTED_EDGE('',*,*,#1600,.F.);
#1692=ORIENTED_EDGE('',*,*,#1621,.T.);
#1693=ORIENTED_EDGE('',*,*,#1641,.T.);
#1694=ORIENTED_EDGE('',*,*,#1679,.F.);
#1695=EDGE_LOOP('',(#1691,#1692,#1693,#1694));
#1696=FACE_OUTER_BOUND('',#1695,.F.);
#1698=CARTESIAN_POINT('',(2.5E-1,-1.525E0,0.E0));
#1699=DIRECTION('',(-1.E0,0.E0,0.E0));
#1700=DIRECTION('',(0.E0,-1.E0,0.E0));
#1701=AXIS2_PLACEMENT_3D('',#1698,#1699,#1700);
#1702=PLANE('',#1701);
#1703=ORIENTED_EDGE('',*,*,#1362,.T.);
#1704=ORIENTED_EDGE('',*,*,#1471,.F.);
#1705=ORIENTED_EDGE('',*,*,#851,.T.);
#1707=ORIENTED_EDGE('',*,*,#1706,.T.);
#1708=EDGE_LOOP('',(#1703,#1704,#1705,#1707));
#1709=FACE_OUTER_BOUND('',#1708,.F.);
#1711=CARTESIAN_POINT('',(1.25E0,-1.525E0,0.E0));
#1712=DIRECTION('',(0.E0,1.E0,0.E0));
#1713=DIRECTION('',(-1.E0,0.E0,0.E0));
#1714=AXIS2_PLACEMENT_3D('',#1711,#1712,#1713);
#1715=PLANE('',#1714);
#1716=ORIENTED_EDGE('',*,*,#1341,.T.);
#1717=ORIENTED_EDGE('',*,*,#1364,.T.);
#1718=ORIENTED_EDGE('',*,*,#1706,.F.);
#1719=ORIENTED_EDGE('',*,*,#849,.F.);
#1720=EDGE_LOOP('',(#1716,#1717,#1718,#1719));
#1721=FACE_OUTER_BOUND('',#1720,.F.);
#1723=CARTESIAN_POINT('',(5.5E-1,0.E0,0.E0));
#1724=DIRECTION('',(-1.E0,0.E0,0.E0));
#1725=DIRECTION('',(0.E0,0.E0,1.E0));
#1726=AXIS2_PLACEMENT_3D('',#1723,#1724,#1725);
#1727=PLANE('',#1726);
#1728=ORIENTED_EDGE('',*,*,#1403,.F.);
#1729=ORIENTED_EDGE('',*,*,#1434,.F.);
#1730=ORIENTED_EDGE('',*,*,#1474,.T.);
#1731=ORIENTED_EDGE('',*,*,#1358,.T.);
#1733=ORIENTED_EDGE('',*,*,#1732,.F.);
#1735=ORIENTED_EDGE('',*,*,#1734,.F.);
#1737=ORIENTED_EDGE('',*,*,#1736,.F.);
#1739=ORIENTED_EDGE('',*,*,#1738,.F.);
#1740=EDGE_LOOP('',(#1728,#1729,#1730,#1731,#1733,#1735,#1737,#1739));
#1741=FACE_OUTER_BOUND('',#1740,.F.);
#1743=CARTESIAN_POINT('',(9.5E-1,-1.875E0,-1.E0));
#1744=DIRECTION('',(0.E0,1.E0,0.E0));
#1745=DIRECTION('',(0.E0,0.E0,-1.E0));
#1746=AXIS2_PLACEMENT_3D('',#1743,#1744,#1745);
#1747=PLANE('',#1746);
#1748=ORIENTED_EDGE('',*,*,#1356,.F.);
#1749=ORIENTED_EDGE('',*,*,#1385,.F.);
#1751=ORIENTED_EDGE('',*,*,#1750,.T.);
#1752=ORIENTED_EDGE('',*,*,#1732,.T.);
#1753=EDGE_LOOP('',(#1748,#1749,#1751,#1752));
#1754=FACE_OUTER_BOUND('',#1753,.F.);
#1756=CARTESIAN_POINT('',(9.5E-1,-2.275E0,-1.E0));
#1757=DIRECTION('',(0.E0,0.E0,1.E0));
#1758=DIRECTION('',(0.E0,1.E0,0.E0));
#1759=AXIS2_PLACEMENT_3D('',#1756,#1757,#1758);
#1760=PLANE('',#1759);
#1761=ORIENTED_EDGE('',*,*,#1383,.F.);
#1763=ORIENTED_EDGE('',*,*,#1762,.T.);
#1764=ORIENTED_EDGE('',*,*,#1734,.T.);
#1765=ORIENTED_EDGE('',*,*,#1750,.F.);
#1766=EDGE_LOOP('',(#1761,#1763,#1764,#1765));
#1767=FACE_OUTER_BOUND('',#1766,.F.);
#1769=CARTESIAN_POINT('',(9.5E-1,-2.275E0,-5.E0));
#1770=DIRECTION('',(0.E0,-1.E0,0.E0));
#1771=DIRECTION('',(0.E0,0.E0,1.E0));
#1772=AXIS2_PLACEMENT_3D('',#1769,#1770,#1771);
#1773=PLANE('',#1772);
#1774=ORIENTED_EDGE('',*,*,#1381,.T.);
#1776=ORIENTED_EDGE('',*,*,#1775,.T.);
#1777=ORIENTED_EDGE('',*,*,#1736,.T.);
#1778=ORIENTED_EDGE('',*,*,#1762,.F.);
#1779=EDGE_LOOP('',(#1774,#1776,#1777,#1778));
#1780=FACE_OUTER_BOUND('',#1779,.F.);
#1782=CARTESIAN_POINT('',(9.5E-1,-1.715E0,-7.E0));
#1783=DIRECTION('',(0.E0,0.E0,-1.E0));
#1784=DIRECTION('',(0.E0,-1.E0,0.E0));
#1785=AXIS2_PLACEMENT_3D('',#1782,#1783,#1784);
#1786=PLANE('',#1785);
#1787=ORIENTED_EDGE('',*,*,#1379,.F.);
#1788=ORIENTED_EDGE('',*,*,#1405,.T.);
#1789=ORIENTED_EDGE('',*,*,#1738,.T.);
#1790=ORIENTED_EDGE('',*,*,#1775,.F.);
#1791=EDGE_LOOP('',(#1787,#1788,#1789,#1790));
#1792=FACE_OUTER_BOUND('',#1791,.F.);
#1794=CLOSED_SHELL('',(#887,#902,#919,#933,#951,#965,#979,#996,#1011,#1025,
#1041,#1056,#1071,#1086,#1125,#1139,#1156,#1168,#1185,#1197,#1212,#1226,#1240,
#1253,#1265,#1280,#1294,#1308,#1321,#1333,#1348,#1371,#1394,#1409,#1439,#1457,
#1478,#1493,#1506,#1519,#1531,#1545,#1559,#1572,#1591,#1612,#1626,#1646,#1659,
#1672,#1685,#1697,#1710,#1722,#1742,#1755,#1768,#1781,#1793));
#1795=MANIFOLD_SOLID_BREP('',#1794);
#1798=PLANE_ANGLE_MEASURE_WITH_UNIT(PLANE_ANGLE_MEASURE(1.745329251994E-2),
#1797);
#1799=(CONVERSION_BASED_UNIT('DEGREE',#1798)NAMED_UNIT(*)PLANE_ANGLE_UNIT());
#1801=UNCERTAINTY_MEASURE_WITH_UNIT(LENGTH_MEASURE(9.460065546454E-4),#1796,
'distance_accuracy_value',
'Maximum model space distance between geometric entities at asserted connectivities');
#1804=APPLICATION_CONTEXT('automotive_design');
#1805=APPLICATION_PROTOCOL_DEFINITION('international standard',
'automotive_design',2001,#1804);
#1806=PRODUCT_DEFINITION_CONTEXT('part definition',#1804,'design');
#1807=PRODUCT_CONTEXT('',#1804,'mechanical');
#1808=PRODUCT('C-5-1775444-2','C-5-1775444-2','NOT SPECIFIED',(#1807));
#1809=PRODUCT_DEFINITION_FORMATION('1','LAST_VERSION',#1808);
#1817=DERIVED_UNIT_ELEMENT(#1816,2.E0);
#1818=DERIVED_UNIT((#1817));
#1819=MEASURE_REPRESENTATION_ITEM('surface area measure',AREA_MEASURE(
2.036461897450E2),#1818);
#1824=DERIVED_UNIT_ELEMENT(#1823,3.E0);
#1825=DERIVED_UNIT((#1824));
#1826=MEASURE_REPRESENTATION_ITEM('volume measure',VOLUME_MEASURE(
6.073441666667E1),#1825);
#1830=CARTESIAN_POINT('centre point',(0.E0,-5.110081735644E-2,
-3.088337234654E0));
#1835=DERIVED_UNIT_ELEMENT(#1834,2.E0);
#1836=DERIVED_UNIT((#1835));
#1837=MEASURE_REPRESENTATION_ITEM('surface area measure',AREA_MEASURE(
2.036461897450E2),#1836);
#1842=DERIVED_UNIT_ELEMENT(#1841,3.E0);
#1843=DERIVED_UNIT((#1842));
#1844=MEASURE_REPRESENTATION_ITEM('volume measure',VOLUME_MEASURE(
6.073441666667E1),#1843);
#1848=CARTESIAN_POINT('centre point',(0.E0,-5.110081735644E-2,
-3.088337234654E0));
#1853=PRODUCT_RELATED_PRODUCT_CATEGORY('part','',(#1808));
#1=COLOUR_RGB('',8.784E-1,9.49E-1,1.E0);
#847=EDGE_CURVE('',#827,#787,#21,.T.);
#849=EDGE_CURVE('',#787,#789,#25,.T.);
#851=EDGE_CURVE('',#829,#789,#29,.T.);
#853=EDGE_CURVE('',#716,#829,#33,.T.);
#855=EDGE_CURVE('',#716,#717,#37,.T.);
#857=EDGE_CURVE('',#717,#719,#41,.T.);
#859=EDGE_CURVE('',#721,#719,#45,.T.);
#861=EDGE_CURVE('',#637,#721,#49,.T.);
#863=EDGE_CURVE('',#636,#637,#53,.T.);
#865=EDGE_CURVE('',#641,#636,#57,.T.);
#867=EDGE_CURVE('',#640,#641,#61,.T.);
#869=EDGE_CURVE('',#827,#640,#65,.T.);
#873=EDGE_CURVE('',#680,#681,#5,.T.);
#875=EDGE_CURVE('',#689,#680,#9,.T.);
#877=EDGE_CURVE('',#688,#689,#13,.T.);
#879=EDGE_CURVE('',#697,#688,#121,.T.);
#881=EDGE_CURVE('',#696,#697,#17,.T.);
#883=EDGE_CURVE('',#681,#696,#81,.T.);
#887=ADVANCED_FACE('',(#872,#886),#846,.T.);
#893=EDGE_CURVE('',#676,#677,#69,.T.);
#895=EDGE_CURVE('',#676,#680,#253,.T.);
#898=EDGE_CURVE('',#681,#677,#77,.T.);
#902=ADVANCED_FACE('',(#901),#892,.T.);
#909=EDGE_CURVE('',#677,#671,#73,.T.);
#911=EDGE_CURVE('',#664,#671,#273,.T.);
#913=EDGE_CURVE('',#664,#665,#197,.T.);
#915=EDGE_CURVE('',#676,#665,#161,.T.);
#919=ADVANCED_FACE('',(#918),#907,.T.);
#925=EDGE_CURVE('',#673,#681,#97,.T.);
#927=EDGE_CURVE('',#671,#673,#277,.T.);
#933=ADVANCED_FACE('',(#932),#924,.T.);
#940=EDGE_CURVE('',#692,#696,#101,.T.);
#942=EDGE_CURVE('',#657,#692,#85,.T.);
#944=EDGE_CURVE('',#656,#657,#89,.T.);
#946=EDGE_CURVE('',#673,#656,#93,.T.);
#951=ADVANCED_FACE('',(#950),#938,.F.);
#957=EDGE_CURVE('',#692,#693,#109,.T.);
#961=EDGE_CURVE('',#697,#693,#105,.T.);
#965=ADVANCED_FACE('',(#964),#956,.T.);
#972=EDGE_CURVE('',#653,#693,#117,.T.);
#974=EDGE_CURVE('',#653,#657,#113,.T.);
#979=ADVANCED_FACE('',(#978),#970,.F.);
#988=EDGE_CURVE('',#668,#688,#125,.T.);
#990=EDGE_CURVE('',#668,#652,#129,.T.);
#992=EDGE_CURVE('',#652,#653,#133,.T.);
#996=ADVANCED_FACE('',(#995),#984,.F.);
#1003=EDGE_CURVE('',#684,#688,#137,.T.);
#1005=EDGE_CURVE('',#684,#669,#149,.T.);
#1007=EDGE_CURVE('',#668,#669,#261,.T.);
#1011=ADVANCED_FACE('',(#1010),#1001,.T.);
#1017=EDGE_CURVE('',#684,#685,#145,.T.);
#1021=EDGE_CURVE('',#685,#689,#141,.T.);
#1025=ADVANCED_FACE('',(#1024),#1016,.T.);
#1032=EDGE_CURVE('',#685,#661,#169,.T.);
#1034=EDGE_CURVE('',#660,#661,#201,.T.);
#1036=EDGE_CURVE('',#660,#669,#265,.T.);
#1041=ADVANCED_FACE('',(#1040),#1030,.T.);
#1047=EDGE_CURVE('',#743,#703,#153,.T.);
#1049=EDGE_CURVE('',#743,#676,#157,.T.);
#1052=EDGE_CURVE('',#703,#665,#193,.T.);
#1056=ADVANCED_FACE('',(#1055),#1046,.F.);
#1062=EDGE_CURVE('',#745,#705,#165,.T.);
#1064=EDGE_CURVE('',#661,#705,#177,.T.);
#1067=EDGE_CURVE('',#685,#745,#173,.T.);
#1071=ADVANCED_FACE('',(#1070),#1061,.F.);
#1077=EDGE_CURVE('',#703,#700,#189,.T.);
#1079=EDGE_CURVE('',#707,#700,#257,.T.);
#1081=EDGE_CURVE('',#743,#707,#241,.T.);
#1086=ADVANCED_FACE('',(#1085),#1076,.F.);
#1093=EDGE_CURVE('',#701,#705,#181,.T.);
#1095=EDGE_CURVE('',#700,#701,#185,.T.);
#1100=EDGE_CURVE('',#660,#664,#269,.T.);
#1105=EDGE_CURVE('',#736,#737,#205,.T.);
#1107=EDGE_CURVE('',#736,#740,#209,.T.);
#1109=EDGE_CURVE('',#740,#741,#213,.T.);
#1111=EDGE_CURVE('',#741,#737,#217,.T.);
#1115=EDGE_CURVE('',#799,#803,#221,.T.);
#1117=EDGE_CURVE('',#803,#805,#225,.T.);
#1119=EDGE_CURVE('',#805,#801,#229,.T.);
#1121=EDGE_CURVE('',#801,#799,#233,.T.);
#1125=ADVANCED_FACE('',(#1104,#1114,#1124),#1091,.F.);
#1133=EDGE_CURVE('',#745,#709,#249,.T.);
#1135=EDGE_CURVE('',#709,#701,#237,.T.);
#1139=ADVANCED_FACE('',(#1138),#1130,.F.);
#1146=EDGE_CURVE('',#707,#709,#245,.T.);
#1156=ADVANCED_FACE('',(#1155),#1144,.T.);
#1168=ADVANCED_FACE('',(#1167),#1161,.F.);
#1180=EDGE_CURVE('',#652,#656,#281,.T.);
#1185=ADVANCED_FACE('',(#1184),#1173,.F.);
#1197=ADVANCED_FACE('',(#1196),#1190,.F.);
#1204=EDGE_CURVE('',#737,#728,#285,.T.);
#1206=EDGE_CURVE('',#728,#729,#301,.T.);
#1208=EDGE_CURVE('',#736,#729,#297,.T.);
#1212=ADVANCED_FACE('',(#1211),#1202,.T.);
#1219=EDGE_CURVE('',#741,#733,#289,.T.);
#1221=EDGE_CURVE('',#733,#728,#305,.T.);
#1226=ADVANCED_FACE('',(#1225),#1217,.T.);
#1233=EDGE_CURVE('',#740,#731,#293,.T.);
#1235=EDGE_CURVE('',#731,#733,#309,.T.);
#1240=ADVANCED_FACE('',(#1239),#1231,.T.);
#1248=EDGE_CURVE('',#729,#731,#313,.T.);
#1253=ADVANCED_FACE('',(#1252),#1245,.T.);
#1265=ADVANCED_FACE('',(#1264),#1258,.T.);
#1271=EDGE_CURVE('',#799,#792,#317,.T.);
#1273=EDGE_CURVE('',#792,#793,#333,.T.);
#1275=EDGE_CURVE('',#803,#793,#329,.T.);
#1280=ADVANCED_FACE('',(#1279),#1270,.T.);
#1288=EDGE_CURVE('',#801,#797,#321,.T.);
#1290=EDGE_CURVE('',#797,#792,#337,.T.);
#1294=ADVANCED_FACE('',(#1293),#1285,.T.);
#1302=EDGE_CURVE('',#805,#795,#325,.T.);
#1304=EDGE_CURVE('',#795,#797,#341,.T.);
#1308=ADVANCED_FACE('',(#1307),#1299,.T.);
#1315=EDGE_CURVE('',#793,#795,#345,.T.);
#1321=ADVANCED_FACE('',(#1320),#1313,.T.);
#1333=ADVANCED_FACE('',(#1332),#1326,.T.);
#1339=EDGE_CURVE('',#783,#780,#369,.T.);
#1341=EDGE_CURVE('',#787,#780,#593,.T.);
#1344=EDGE_CURVE('',#827,#783,#485,.T.);
#1348=ADVANCED_FACE('',(#1347),#1338,.F.);
#1354=EDGE_CURVE('',#836,#837,#349,.T.);
#1356=EDGE_CURVE('',#837,#841,#353,.T.);
#1358=EDGE_CURVE('',#840,#841,#357,.T.);
#1360=EDGE_CURVE('',#785,#840,#469,.T.);
#1362=EDGE_CURVE('',#781,#785,#361,.T.);
#1364=EDGE_CURVE('',#780,#781,#365,.T.);
#1367=EDGE_CURVE('',#836,#783,#481,.T.);
#1371=ADVANCED_FACE('',(#1370),#1353,.T.);
#1377=EDGE_CURVE('',#823,#808,#373,.T.);
#1379=EDGE_CURVE('',#808,#809,#377,.T.);
#1381=EDGE_CURVE('',#812,#809,#621,.T.);
#1383=EDGE_CURVE('',#812,#813,#381,.T.);
#1385=EDGE_CURVE('',#813,#837,#385,.T.);
#1388=EDGE_CURVE('',#831,#836,#477,.T.);
#1390=EDGE_CURVE('',#831,#823,#389,.T.);
#1394=ADVANCED_FACE('',(#1393),#1376,.F.);
#1401=EDGE_CURVE('',#823,#825,#433,.T.);
#1403=EDGE_CURVE('',#825,#816,#597,.T.);
#1405=EDGE_CURVE('',#808,#816,#633,.T.);
#1409=ADVANCED_FACE('',(#1408),#1399,.T.);
#1416=EDGE_CURVE('',#831,#648,#393,.T.);
#1418=EDGE_CURVE('',#648,#649,#397,.T.);
#1420=EDGE_CURVE('',#649,#644,#401,.T.);
#1422=EDGE_CURVE('',#644,#645,#405,.T.);
#1424=EDGE_CURVE('',#645,#768,#409,.T.);
#1426=EDGE_CURVE('',#768,#769,#413,.T.);
#1428=EDGE_CURVE('',#765,#769,#417,.T.);
#1430=EDGE_CURVE('',#764,#765,#421,.T.);
#1432=EDGE_CURVE('',#764,#833,#425,.T.);
#1434=EDGE_CURVE('',#833,#825,#429,.T.);
#1439=ADVANCED_FACE('',(#1438),#1414,.F.);
#1446=EDGE_CURVE('',#637,#645,#437,.T.);
#1449=EDGE_CURVE('',#721,#725,#441,.T.);
#1451=EDGE_CURVE('',#725,#776,#445,.T.);
#1453=EDGE_CURVE('',#768,#776,#449,.T.);
#1457=ADVANCED_FACE('',(#1456),#1444,.T.);
#1464=EDGE_CURVE('',#764,#772,#453,.T.);
#1466=EDGE_CURVE('',#772,#723,#457,.T.);
#1468=EDGE_CURVE('',#716,#723,#461,.T.);
#1471=EDGE_CURVE('',#829,#785,#465,.T.);
#1474=EDGE_CURVE('',#833,#840,#473,.T.);
#1478=ADVANCED_FACE('',(#1477),#1462,.T.);
#1489=EDGE_CURVE('',#640,#648,#497,.T.);
#1493=ADVANCED_FACE('',(#1492),#1483,.T.);
#1502=EDGE_CURVE('',#636,#644,#489,.T.);
#1506=ADVANCED_FACE('',(#1505),#1498,.T.);
#1515=EDGE_CURVE('',#641,#649,#493,.T.);
#1519=ADVANCED_FACE('',(#1518),#1511,.T.);
#1531=ADVANCED_FACE('',(#1530),#1524,.T.);
#1538=EDGE_CURVE('',#719,#713,#501,.T.);
#1540=EDGE_CURVE('',#713,#725,#521,.T.);
#1545=ADVANCED_FACE('',(#1544),#1536,.F.);
#1552=EDGE_CURVE('',#717,#712,#505,.T.);
#1554=EDGE_CURVE('',#712,#713,#525,.T.);
#1559=ADVANCED_FACE('',(#1558),#1550,.F.);
#1567=EDGE_CURVE('',#723,#712,#529,.T.);
#1572=ADVANCED_FACE('',(#1571),#1564,.F.);
#1578=EDGE_CURVE('',#772,#773,#509,.T.);
#1580=EDGE_CURVE('',#773,#777,#513,.T.);
#1582=EDGE_CURVE('',#776,#777,#517,.T.);
#1591=ADVANCED_FACE('',(#1590),#1577,.T.);
#1598=EDGE_CURVE('',#765,#748,#533,.T.);
#1600=EDGE_CURVE('',#748,#749,#537,.T.);
#1602=EDGE_CURVE('',#752,#749,#573,.T.);
#1604=EDGE_CURVE('',#752,#753,#541,.T.);
#1606=EDGE_CURVE('',#753,#773,#545,.T.);
#1612=ADVANCED_FACE('',(#1611),#1596,.F.);
#1619=EDGE_CURVE('',#769,#756,#561,.T.);
#1621=EDGE_CURVE('',#748,#756,#585,.T.);
#1626=ADVANCED_FACE('',(#1625),#1617,.T.);
#1635=EDGE_CURVE('',#761,#777,#549,.T.);
#1637=EDGE_CURVE('',#760,#761,#553,.T.);
#1639=EDGE_CURVE('',#757,#760,#581,.T.);
#1641=EDGE_CURVE('',#756,#757,#557,.T.);
#1646=ADVANCED_FACE('',(#1645),#1631,.T.);
#1654=EDGE_CURVE('',#753,#761,#565,.T.);
#1659=ADVANCED_FACE('',(#1658),#1651,.T.);
#1666=EDGE_CURVE('',#752,#760,#569,.T.);
#1672=ADVANCED_FACE('',(#1671),#1664,.T.);
#1679=EDGE_CURVE('',#749,#757,#577,.T.);
#1685=ADVANCED_FACE('',(#1684),#1677,.T.);
#1697=ADVANCED_FACE('',(#1696),#1690,.T.);
#1706=EDGE_CURVE('',#789,#781,#589,.T.);
#1710=ADVANCED_FACE('',(#1709),#1702,.F.);
#1722=ADVANCED_FACE('',(#1721),#1715,.F.);
#1732=EDGE_CURVE('',#821,#841,#601,.T.);
#1734=EDGE_CURVE('',#820,#821,#605,.T.);
#1736=EDGE_CURVE('',#817,#820,#629,.T.);
#1738=EDGE_CURVE('',#816,#817,#609,.T.);
#1742=ADVANCED_FACE('',(#1741),#1727,.T.);
#1750=EDGE_CURVE('',#813,#821,#613,.T.);
#1755=ADVANCED_FACE('',(#1754),#1747,.T.);
#1762=EDGE_CURVE('',#812,#820,#617,.T.);
#1768=ADVANCED_FACE('',(#1767),#1760,.T.);
#1775=EDGE_CURVE('',#809,#817,#625,.T.);
#1781=ADVANCED_FACE('',(#1780),#1773,.T.);
#1793=ADVANCED_FACE('',(#1792),#1786,.T.);
#1796=(LENGTH_UNIT()NAMED_UNIT(*)SI_UNIT(.MILLI.,.METRE.));
#1797=(NAMED_UNIT(*)PLANE_ANGLE_UNIT()SI_UNIT($,.RADIAN.));
#1800=(NAMED_UNIT(*)SI_UNIT($,.STERADIAN.)SOLID_ANGLE_UNIT());
#1802=(GEOMETRIC_REPRESENTATION_CONTEXT(3)GLOBAL_UNCERTAINTY_ASSIGNED_CONTEXT((
#1801))GLOBAL_UNIT_ASSIGNED_CONTEXT((#1796,#1799,#1800))REPRESENTATION_CONTEXT(
'ID1','3'));
#1803=ADVANCED_BREP_SHAPE_REPRESENTATION('',(#1795),#1802);
#1810=PRODUCT_DEFINITION('part definition','',#1809,#1806);
#1811=PRODUCT_DEFINITION_SHAPE('','SHAPE FOR C-5-1775444-2.',#1810);
#1812=SHAPE_ASPECT('','solid data associated with C-5-1775444-2',#1811,.F.);
#1813=PROPERTY_DEFINITION('',
'shape for solid data with which properties are associated',#1812);
#1814=SHAPE_REPRESENTATION('',(#1795),#1802);
#1815=SHAPE_DEFINITION_REPRESENTATION(#1813,#1814);
#1816=(LENGTH_UNIT()NAMED_UNIT(*)SI_UNIT(.MILLI.,.METRE.));
#1820=PROPERTY_DEFINITION('geometric validation property',
'area of C-5-1775444-2',#1812);
#1821=REPRESENTATION('surface area',(#1819),#1802);
#1822=PROPERTY_DEFINITION_REPRESENTATION(#1820,#1821);
#1823=(LENGTH_UNIT()NAMED_UNIT(*)SI_UNIT(.MILLI.,.METRE.));
#1827=PROPERTY_DEFINITION('geometric validation property',
'volume of C-5-1775444-2',#1812);
#1828=REPRESENTATION('volume',(#1826),#1802);
#1829=PROPERTY_DEFINITION_REPRESENTATION(#1827,#1828);
#1831=PROPERTY_DEFINITION('geometric validation property',
'centroid of C-5-1775444-2',#1812);
#1832=REPRESENTATION('centroid',(#1830),#1802);
#1833=PROPERTY_DEFINITION_REPRESENTATION(#1831,#1832);
#1834=(LENGTH_UNIT()NAMED_UNIT(*)SI_UNIT(.MILLI.,.METRE.));
#1838=PROPERTY_DEFINITION('geometric validation property',
'area of C-5-1775444-2',#1811);
#1839=REPRESENTATION('surface area',(#1837),#1802);
#1840=PROPERTY_DEFINITION_REPRESENTATION(#1838,#1839);
#1841=(LENGTH_UNIT()NAMED_UNIT(*)SI_UNIT(.MILLI.,.METRE.));
#1845=PROPERTY_DEFINITION('geometric validation property',
'volume of C-5-1775444-2',#1811);
#1846=REPRESENTATION('volume',(#1844),#1802);
#1847=PROPERTY_DEFINITION_REPRESENTATION(#1845,#1846);
#1849=PROPERTY_DEFINITION('geometric validation property',
'centroid of C-5-1775444-2',#1811);
#1850=REPRESENTATION('centroid',(#1848),#1802);
#1851=PROPERTY_DEFINITION_REPRESENTATION(#1849,#1850);
#1852=SHAPE_DEFINITION_REPRESENTATION(#1811,#1803);
ENDSEC;
END-ISO-10303-21;
