ISO-10303-21;
HEADER;
FILE_DESCRIPTION((''),'2;1');
FILE_NAME('C-5-1775444-3','2019-01-15T00:10:01',('workeradm'),(
'TE Connectivity Ltd.'),'CREO PARAMETRIC BY PTC INC, 2018190',
'CREO PARAMETRIC BY PTC INC, 2018190','');
FILE_SCHEMA(('AUTOMOTIVE_DESIGN { 1 0 10303 214 1 1 1 1 }'));
ENDSEC;
DATA;
#2=DIRECTION('',(0.E0,-1.E0,0.E0));
#3=VECTOR('',#2,1.8E0);
#4=CARTESIAN_POINT('',(2.7E0,1.925E0,0.E0));
#5=LINE('',#4,#3);
#6=DIRECTION('',(1.E0,0.E0,0.E0));
#7=VECTOR('',#6,5.4E0);
#8=CARTESIAN_POINT('',(-2.7E0,1.925E0,0.E0));
#9=LINE('',#8,#7);
#10=DIRECTION('',(0.E0,1.E0,0.E0));
#11=VECTOR('',#10,1.8E0);
#12=CARTESIAN_POINT('',(-2.7E0,1.25E-1,0.E0));
#13=LINE('',#12,#11);
#14=DIRECTION('',(-1.E0,0.E0,0.E0));
#15=VECTOR('',#14,5.4E0);
#16=CARTESIAN_POINT('',(2.7E0,-1.425E0,0.E0));
#17=LINE('',#16,#15);
#18=DIRECTION('',(0.E0,1.E0,0.E0));
#19=VECTOR('',#18,7.E-1);
#20=CARTESIAN_POINT('',(2.E0,-2.225E0,0.E0));
#21=LINE('',#20,#19);
#22=DIRECTION('',(-1.E0,0.E0,0.E0));
#23=VECTOR('',#22,1.E0);
#24=CARTESIAN_POINT('',(2.E0,-1.525E0,0.E0));
#25=LINE('',#24,#23);
#26=DIRECTION('',(0.E0,1.E0,0.E0));
#27=VECTOR('',#26,7.E-1);
#28=CARTESIAN_POINT('',(1.E0,-2.225E0,0.E0));
#29=LINE('',#28,#27);
#30=DIRECTION('',(1.E0,0.E0,0.E0));
#31=VECTOR('',#30,5.E-1);
#32=CARTESIAN_POINT('',(5.E-1,-2.225E0,0.E0));
#33=LINE('',#32,#31);
#34=DIRECTION('',(0.E0,1.E0,0.E0));
#35=VECTOR('',#34,7.E-1);
#36=CARTESIAN_POINT('',(5.E-1,-2.225E0,0.E0));
#37=LINE('',#36,#35);
#38=DIRECTION('',(-1.E0,0.E0,0.E0));
#39=VECTOR('',#38,1.E0);
#40=CARTESIAN_POINT('',(5.E-1,-1.525E0,0.E0));
#41=LINE('',#40,#39);
#42=DIRECTION('',(0.E0,1.E0,0.E0));
#43=VECTOR('',#42,7.E-1);
#44=CARTESIAN_POINT('',(-5.E-1,-2.225E0,0.E0));
#45=LINE('',#44,#43);
#46=DIRECTION('',(1.E0,0.E0,0.E0));
#47=VECTOR('',#46,5.E-1);
#48=CARTESIAN_POINT('',(-1.E0,-2.225E0,0.E0));
#49=LINE('',#48,#47);
#50=DIRECTION('',(0.E0,1.E0,0.E0));
#51=VECTOR('',#50,7.E-1);
#52=CARTESIAN_POINT('',(-1.E0,-2.225E0,0.E0));
#53=LINE('',#52,#51);
#54=DIRECTION('',(-1.E0,0.E0,0.E0));
#55=VECTOR('',#54,1.E0);
#56=CARTESIAN_POINT('',(-1.E0,-1.525E0,0.E0));
#57=LINE('',#56,#55);
#58=DIRECTION('',(0.E0,1.E0,0.E0));
#59=VECTOR('',#58,7.E-1);
#60=CARTESIAN_POINT('',(-2.E0,-2.225E0,0.E0));
#61=LINE('',#60,#59);
#62=DIRECTION('',(1.E0,0.E0,0.E0));
#63=VECTOR('',#62,1.E0);
#64=CARTESIAN_POINT('',(-3.E0,-2.225E0,0.E0));
#65=LINE('',#64,#63);
#66=DIRECTION('',(0.E0,-1.E0,0.E0));
#67=VECTOR('',#66,4.45E0);
#68=CARTESIAN_POINT('',(-3.E0,2.225E0,0.E0));
#69=LINE('',#68,#67);
#70=DIRECTION('',(-1.E0,0.E0,0.E0));
#71=VECTOR('',#70,6.E0);
#72=CARTESIAN_POINT('',(3.E0,2.225E0,0.E0));
#73=LINE('',#72,#71);
#74=DIRECTION('',(0.E0,1.E0,0.E0));
#75=VECTOR('',#74,4.45E0);
#76=CARTESIAN_POINT('',(3.E0,-2.225E0,0.E0));
#77=LINE('',#76,#75);
#78=DIRECTION('',(1.E0,0.E0,0.E0));
#79=VECTOR('',#78,1.E0);
#80=CARTESIAN_POINT('',(2.E0,-2.225E0,0.E0));
#81=LINE('',#80,#79);
#82=DIRECTION('',(0.E0,-1.E0,0.E0));
#83=VECTOR('',#82,1.4E0);
#84=CARTESIAN_POINT('',(2.5E0,1.725E0,-2.E-1));
#85=LINE('',#84,#83);
#86=DIRECTION('',(0.E0,0.E0,-1.E0));
#87=VECTOR('',#86,3.15E0);
#88=CARTESIAN_POINT('',(2.5E0,3.25E-1,-2.E-1));
#89=LINE('',#88,#87);
#90=DIRECTION('',(-5.773502691896E-1,5.773502691896E-1,-5.773502691896E-1));
#91=VECTOR('',#90,3.464101615138E-1);
#92=CARTESIAN_POINT('',(2.7E0,1.25E-1,0.E0));
#93=LINE('',#92,#91);
#94=DIRECTION('',(0.E0,-1.E0,0.E0));
#95=VECTOR('',#94,1.55E0);
#96=CARTESIAN_POINT('',(2.7E0,1.25E-1,0.E0));
#97=LINE('',#96,#95);
#98=DIRECTION('',(0.E0,0.E0,1.E0));
#99=VECTOR('',#98,3.55E0);
#100=CARTESIAN_POINT('',(2.7E0,-1.225E0,-3.75E0));
#101=LINE('',#100,#99);
#102=DIRECTION('',(0.E0,-1.E0,0.E0));
#103=VECTOR('',#102,1.15E0);
#104=CARTESIAN_POINT('',(2.7E0,-7.5E-2,-3.75E0));
#105=LINE('',#104,#103);
#106=DIRECTION('',(0.E0,-7.071067811865E-1,-7.071067811865E-1));
#107=VECTOR('',#106,2.828427124746E-1);
#108=CARTESIAN_POINT('',(2.7E0,1.25E-1,-3.55E0));
#109=LINE('',#108,#107);
#110=DIRECTION('',(0.E0,0.E0,1.E0));
#111=VECTOR('',#110,3.55E0);
#112=CARTESIAN_POINT('',(2.7E0,1.25E-1,-3.55E0));
#113=LINE('',#112,#111);
#114=DIRECTION('',(0.E0,-7.071067811865E-1,7.071067811865E-1));
#115=VECTOR('',#114,2.828427124746E-1);
#116=CARTESIAN_POINT('',(2.7E0,-1.225E0,-2.E-1));
#117=LINE('',#116,#115);
#118=DIRECTION('',(0.E0,7.071067811865E-1,-7.071067811865E-1));
#119=VECTOR('',#118,2.828427124746E-1);
#120=CARTESIAN_POINT('',(-2.7E0,-1.425E0,0.E0));
#121=LINE('',#120,#119);
#122=DIRECTION('',(-1.E0,0.E0,0.E0));
#123=VECTOR('',#122,5.4E0);
#124=CARTESIAN_POINT('',(2.7E0,-1.225E0,-2.E-1));
#125=LINE('',#124,#123);
#126=DIRECTION('',(1.E0,0.E0,0.E0));
#127=VECTOR('',#126,5.4E0);
#128=CARTESIAN_POINT('',(-2.7E0,-1.225E0,-3.75E0));
#129=LINE('',#128,#127);
#130=DIRECTION('',(0.E0,0.E0,1.E0));
#131=VECTOR('',#130,3.55E0);
#132=CARTESIAN_POINT('',(-2.7E0,-1.225E0,-3.75E0));
#133=LINE('',#132,#131);
#134=DIRECTION('',(0.E0,1.E0,0.E0));
#135=VECTOR('',#134,1.55E0);
#136=CARTESIAN_POINT('',(-2.7E0,-1.425E0,0.E0));
#137=LINE('',#136,#135);
#138=DIRECTION('',(0.E0,0.E0,1.E0));
#139=VECTOR('',#138,3.55E0);
#140=CARTESIAN_POINT('',(-2.7E0,1.25E-1,-3.55E0));
#141=LINE('',#140,#139);
#142=DIRECTION('',(0.E0,-7.071067811865E-1,-7.071067811865E-1));
#143=VECTOR('',#142,2.828427124746E-1);
#144=CARTESIAN_POINT('',(-2.7E0,1.25E-1,-3.55E0));
#145=LINE('',#144,#143);
#146=DIRECTION('',(0.E0,-1.E0,0.E0));
#147=VECTOR('',#146,1.15E0);
#148=CARTESIAN_POINT('',(-2.7E0,-7.5E-2,-3.75E0));
#149=LINE('',#148,#147);
#150=DIRECTION('',(-5.773502691896E-1,-5.773502691896E-1,5.773502691896E-1));
#151=VECTOR('',#150,3.464101615138E-1);
#152=CARTESIAN_POINT('',(-2.5E0,3.25E-1,-2.E-1));
#153=LINE('',#152,#151);
#154=DIRECTION('',(-5.773502691896E-1,5.773502691896E-1,5.773502691896E-1));
#155=VECTOR('',#154,3.464101615138E-1);
#156=CARTESIAN_POINT('',(-2.5E0,1.725E0,-2.E-1));
#157=LINE('',#156,#155);
#158=DIRECTION('',(0.E0,1.E0,0.E0));
#159=VECTOR('',#158,1.4E0);
#160=CARTESIAN_POINT('',(-2.5E0,3.25E-1,-2.E-1));
#161=LINE('',#160,#159);
#162=DIRECTION('',(0.E0,0.E0,-1.E0));
#163=VECTOR('',#162,3.15E0);
#164=CARTESIAN_POINT('',(-2.5E0,3.25E-1,-2.E-1));
#165=LINE('',#164,#163);
#166=DIRECTION('',(0.E0,0.E0,-1.E0));
#167=VECTOR('',#166,3.05E0);
#168=CARTESIAN_POINT('',(4.E-1,1.725E0,-2.E-1));
#169=LINE('',#168,#167);
#170=DIRECTION('',(1.E0,0.E0,0.E0));
#171=VECTOR('',#170,2.1E0);
#172=CARTESIAN_POINT('',(4.E-1,1.725E0,-2.E-1));
#173=LINE('',#172,#171);
#174=DIRECTION('',(0.E0,0.E0,-1.E0));
#175=VECTOR('',#174,3.05E0);
#176=CARTESIAN_POINT('',(2.5E0,1.725E0,-2.E-1));
#177=LINE('',#176,#175);
#178=DIRECTION('',(0.E0,0.E0,-1.E0));
#179=VECTOR('',#178,3.05E0);
#180=CARTESIAN_POINT('',(-4.E-1,1.725E0,-2.E-1));
#181=LINE('',#180,#179);
#182=DIRECTION('',(0.E0,0.E0,-1.E0));
#183=VECTOR('',#182,3.05E0);
#184=CARTESIAN_POINT('',(-2.5E0,1.725E0,-2.E-1));
#185=LINE('',#184,#183);
#186=DIRECTION('',(1.E0,0.E0,0.E0));
#187=VECTOR('',#186,2.1E0);
#188=CARTESIAN_POINT('',(-2.5E0,1.725E0,-2.E-1));
#189=LINE('',#188,#187);
#190=DIRECTION('',(1.E0,0.E0,0.E0));
#191=VECTOR('',#190,2.1E0);
#192=CARTESIAN_POINT('',(-2.5E0,1.725E0,-3.25E0));
#193=LINE('',#192,#191);
#194=DIRECTION('',(0.E0,-1.E0,0.E0));
#195=VECTOR('',#194,1.E-1);
#196=CARTESIAN_POINT('',(-4.E-1,1.825E0,-3.25E0));
#197=LINE('',#196,#195);
#198=DIRECTION('',(-1.E0,0.E0,0.E0));
#199=VECTOR('',#198,8.E-1);
#200=CARTESIAN_POINT('',(4.E-1,1.825E0,-3.25E0));
#201=LINE('',#200,#199);
#202=DIRECTION('',(0.E0,1.E0,0.E0));
#203=VECTOR('',#202,1.E-1);
#204=CARTESIAN_POINT('',(4.E-1,1.725E0,-3.25E0));
#205=LINE('',#204,#203);
#206=DIRECTION('',(1.E0,0.E0,0.E0));
#207=VECTOR('',#206,2.1E0);
#208=CARTESIAN_POINT('',(4.E-1,1.725E0,-3.25E0));
#209=LINE('',#208,#207);
#210=DIRECTION('',(0.E0,1.E0,0.E0));
#211=VECTOR('',#210,1.3E0);
#212=CARTESIAN_POINT('',(2.5E0,4.25E-1,-3.25E0));
#213=LINE('',#212,#211);
#214=DIRECTION('',(0.E0,1.E0,0.E0));
#215=VECTOR('',#214,1.3E0);
#216=CARTESIAN_POINT('',(-2.5E0,4.25E-1,-3.25E0));
#217=LINE('',#216,#215);
#218=DIRECTION('',(0.E0,1.E0,0.E0));
#219=VECTOR('',#218,4.E-1);
#220=CARTESIAN_POINT('',(-1.7E0,5.25E-1,-3.25E0));
#221=LINE('',#220,#219);
#222=DIRECTION('',(1.E0,0.E0,0.E0));
#223=VECTOR('',#222,4.E-1);
#224=CARTESIAN_POINT('',(-1.7E0,5.25E-1,-3.25E0));
#225=LINE('',#224,#223);
#226=DIRECTION('',(0.E0,1.E0,0.E0));
#227=VECTOR('',#226,4.E-1);
#228=CARTESIAN_POINT('',(-1.3E0,5.25E-1,-3.25E0));
#229=LINE('',#228,#227);
#230=DIRECTION('',(-1.E0,0.E0,0.E0));
#231=VECTOR('',#230,4.E-1);
#232=CARTESIAN_POINT('',(-1.3E0,9.25E-1,-3.25E0));
#233=LINE('',#232,#231);
#234=DIRECTION('',(0.E0,-1.E0,0.E0));
#235=VECTOR('',#234,4.E-1);
#236=CARTESIAN_POINT('',(-2.E-1,9.25E-1,-3.25E0));
#237=LINE('',#236,#235);
#238=DIRECTION('',(1.E0,0.E0,0.E0));
#239=VECTOR('',#238,4.E-1);
#240=CARTESIAN_POINT('',(-2.E-1,5.25E-1,-3.25E0));
#241=LINE('',#240,#239);
#242=DIRECTION('',(0.E0,1.E0,0.E0));
#243=VECTOR('',#242,4.E-1);
#244=CARTESIAN_POINT('',(2.E-1,5.25E-1,-3.25E0));
#245=LINE('',#244,#243);
#246=DIRECTION('',(-1.E0,0.E0,0.E0));
#247=VECTOR('',#246,4.E-1);
#248=CARTESIAN_POINT('',(2.E-1,9.25E-1,-3.25E0));
#249=LINE('',#248,#247);
#250=DIRECTION('',(0.E0,-1.E0,0.E0));
#251=VECTOR('',#250,4.E-1);
#252=CARTESIAN_POINT('',(1.3E0,9.25E-1,-3.25E0));
#253=LINE('',#252,#251);
#254=DIRECTION('',(1.E0,0.E0,0.E0));
#255=VECTOR('',#254,4.E-1);
#256=CARTESIAN_POINT('',(1.3E0,5.25E-1,-3.25E0));
#257=LINE('',#256,#255);
#258=DIRECTION('',(0.E0,1.E0,0.E0));
#259=VECTOR('',#258,4.E-1);
#260=CARTESIAN_POINT('',(1.7E0,5.25E-1,-3.25E0));
#261=LINE('',#260,#259);
#262=DIRECTION('',(-1.E0,0.E0,0.E0));
#263=VECTOR('',#262,4.E-1);
#264=CARTESIAN_POINT('',(1.7E0,9.25E-1,-3.25E0));
#265=LINE('',#264,#263);
#266=DIRECTION('',(0.E0,0.E0,-1.E0));
#267=VECTOR('',#266,3.15E0);
#268=CARTESIAN_POINT('',(-4.E-1,1.825E0,-1.E-1));
#269=LINE('',#268,#267);
#270=DIRECTION('',(0.E0,7.071067811865E-1,7.071067811865E-1));
#271=VECTOR('',#270,1.414213562373E-1);
#272=CARTESIAN_POINT('',(4.E-1,1.725E0,-2.E-1));
#273=LINE('',#272,#271);
#274=DIRECTION('',(-1.E0,0.E0,0.E0));
#275=VECTOR('',#274,8.E-1);
#276=CARTESIAN_POINT('',(4.E-1,1.825E0,-1.E-1));
#277=LINE('',#276,#275);
#278=DIRECTION('',(0.E0,7.071067811865E-1,7.071067811865E-1));
#279=VECTOR('',#278,1.414213562373E-1);
#280=CARTESIAN_POINT('',(-4.E-1,1.725E0,-2.E-1));
#281=LINE('',#280,#279);
#282=DIRECTION('',(5.773502691896E-1,5.773502691896E-1,5.773502691896E-1));
#283=VECTOR('',#282,3.464101615138E-1);
#284=CARTESIAN_POINT('',(2.5E0,1.725E0,-2.E-1));
#285=LINE('',#284,#283);
#286=DIRECTION('',(0.E0,0.E0,-1.E0));
#287=VECTOR('',#286,3.15E0);
#288=CARTESIAN_POINT('',(4.E-1,1.825E0,-1.E-1));
#289=LINE('',#288,#287);
#290=DIRECTION('',(5.773502691896E-1,5.773502691896E-1,5.773502691896E-1));
#291=VECTOR('',#290,3.464101615138E-1);
#292=CARTESIAN_POINT('',(-2.7E0,1.25E-1,-3.55E0));
#293=LINE('',#292,#291);
#294=DIRECTION('',(0.E0,-7.071067811865E-1,-7.071067811865E-1));
#295=VECTOR('',#294,1.414213562373E-1);
#296=CARTESIAN_POINT('',(-2.5E0,4.25E-1,-3.25E0));
#297=LINE('',#296,#295);
#298=DIRECTION('',(1.E0,0.E0,0.E0));
#299=VECTOR('',#298,5.E0);
#300=CARTESIAN_POINT('',(-2.5E0,4.25E-1,-3.25E0));
#301=LINE('',#300,#299);
#302=DIRECTION('',(0.E0,-7.071067811865E-1,-7.071067811865E-1));
#303=VECTOR('',#302,1.414213562373E-1);
#304=CARTESIAN_POINT('',(2.5E0,4.25E-1,-3.25E0));
#305=LINE('',#304,#303);
#306=DIRECTION('',(5.773502691896E-1,-5.773502691896E-1,-5.773502691896E-1));
#307=VECTOR('',#306,3.464101615138E-1);
#308=CARTESIAN_POINT('',(2.5E0,3.25E-1,-3.35E0));
#309=LINE('',#308,#307);
#310=DIRECTION('',(1.E0,0.E0,0.E0));
#311=VECTOR('',#310,5.4E0);
#312=CARTESIAN_POINT('',(-2.7E0,-7.5E-2,-3.75E0));
#313=LINE('',#312,#311);
#314=DIRECTION('',(0.E0,0.E0,1.E0));
#315=VECTOR('',#314,2.7E0);
#316=CARTESIAN_POINT('',(-1.7E0,9.25E-1,-3.25E0));
#317=LINE('',#316,#315);
#318=DIRECTION('',(0.E0,0.E0,1.E0));
#319=VECTOR('',#318,2.7E0);
#320=CARTESIAN_POINT('',(-1.3E0,9.25E-1,-3.25E0));
#321=LINE('',#320,#319);
#322=DIRECTION('',(0.E0,0.E0,1.E0));
#323=VECTOR('',#322,2.7E0);
#324=CARTESIAN_POINT('',(-1.3E0,5.25E-1,-3.25E0));
#325=LINE('',#324,#323);
#326=DIRECTION('',(0.E0,0.E0,1.E0));
#327=VECTOR('',#326,2.7E0);
#328=CARTESIAN_POINT('',(-1.7E0,5.25E-1,-3.25E0));
#329=LINE('',#328,#327);
#330=DIRECTION('',(0.E0,-1.E0,0.E0));
#331=VECTOR('',#330,4.E-1);
#332=CARTESIAN_POINT('',(-1.7E0,9.25E-1,-5.5E-1));
#333=LINE('',#332,#331);
#334=DIRECTION('',(-1.E0,0.E0,0.E0));
#335=VECTOR('',#334,4.E-1);
#336=CARTESIAN_POINT('',(-1.3E0,9.25E-1,-5.5E-1));
#337=LINE('',#336,#335);
#338=DIRECTION('',(0.E0,1.E0,0.E0));
#339=VECTOR('',#338,4.E-1);
#340=CARTESIAN_POINT('',(-1.3E0,5.25E-1,-5.5E-1));
#341=LINE('',#340,#339);
#342=DIRECTION('',(1.E0,0.E0,0.E0));
#343=VECTOR('',#342,4.E-1);
#344=CARTESIAN_POINT('',(-1.7E0,5.25E-1,-5.5E-1));
#345=LINE('',#344,#343);
#346=DIRECTION('',(0.E0,0.E0,1.E0));
#347=VECTOR('',#346,2.7E0);
#348=CARTESIAN_POINT('',(-2.E-1,9.25E-1,-3.25E0));
#349=LINE('',#348,#347);
#350=DIRECTION('',(0.E0,0.E0,1.E0));
#351=VECTOR('',#350,2.7E0);
#352=CARTESIAN_POINT('',(2.E-1,9.25E-1,-3.25E0));
#353=LINE('',#352,#351);
#354=DIRECTION('',(0.E0,0.E0,1.E0));
#355=VECTOR('',#354,2.7E0);
#356=CARTESIAN_POINT('',(2.E-1,5.25E-1,-3.25E0));
#357=LINE('',#356,#355);
#358=DIRECTION('',(0.E0,0.E0,1.E0));
#359=VECTOR('',#358,2.7E0);
#360=CARTESIAN_POINT('',(-2.E-1,5.25E-1,-3.25E0));
#361=LINE('',#360,#359);
#362=DIRECTION('',(0.E0,-1.E0,0.E0));
#363=VECTOR('',#362,4.E-1);
#364=CARTESIAN_POINT('',(-2.E-1,9.25E-1,-5.5E-1));
#365=LINE('',#364,#363);
#366=DIRECTION('',(-1.E0,0.E0,0.E0));
#367=VECTOR('',#366,4.E-1);
#368=CARTESIAN_POINT('',(2.E-1,9.25E-1,-5.5E-1));
#369=LINE('',#368,#367);
#370=DIRECTION('',(0.E0,1.E0,0.E0));
#371=VECTOR('',#370,4.E-1);
#372=CARTESIAN_POINT('',(2.E-1,5.25E-1,-5.5E-1));
#373=LINE('',#372,#371);
#374=DIRECTION('',(1.E0,0.E0,0.E0));
#375=VECTOR('',#374,4.E-1);
#376=CARTESIAN_POINT('',(-2.E-1,5.25E-1,-5.5E-1));
#377=LINE('',#376,#375);
#378=DIRECTION('',(0.E0,0.E0,1.E0));
#379=VECTOR('',#378,2.7E0);
#380=CARTESIAN_POINT('',(1.3E0,9.25E-1,-3.25E0));
#381=LINE('',#380,#379);
#382=DIRECTION('',(0.E0,0.E0,1.E0));
#383=VECTOR('',#382,2.7E0);
#384=CARTESIAN_POINT('',(1.7E0,9.25E-1,-3.25E0));
#385=LINE('',#384,#383);
#386=DIRECTION('',(0.E0,0.E0,1.E0));
#387=VECTOR('',#386,2.7E0);
#388=CARTESIAN_POINT('',(1.7E0,5.25E-1,-3.25E0));
#389=LINE('',#388,#387);
#390=DIRECTION('',(0.E0,0.E0,1.E0));
#391=VECTOR('',#390,2.7E0);
#392=CARTESIAN_POINT('',(1.3E0,5.25E-1,-3.25E0));
#393=LINE('',#392,#391);
#394=DIRECTION('',(0.E0,-1.E0,0.E0));
#395=VECTOR('',#394,4.E-1);
#396=CARTESIAN_POINT('',(1.3E0,9.25E-1,-5.5E-1));
#397=LINE('',#396,#395);
#398=DIRECTION('',(-1.E0,0.E0,0.E0));
#399=VECTOR('',#398,4.E-1);
#400=CARTESIAN_POINT('',(1.7E0,9.25E-1,-5.5E-1));
#401=LINE('',#400,#399);
#402=DIRECTION('',(0.E0,1.E0,0.E0));
#403=VECTOR('',#402,4.E-1);
#404=CARTESIAN_POINT('',(1.7E0,5.25E-1,-5.5E-1));
#405=LINE('',#404,#403);
#406=DIRECTION('',(1.E0,0.E0,0.E0));
#407=VECTOR('',#406,4.E-1);
#408=CARTESIAN_POINT('',(1.3E0,5.25E-1,-5.5E-1));
#409=LINE('',#408,#407);
#410=DIRECTION('',(0.E0,1.E0,0.E0));
#411=VECTOR('',#410,3.5E-1);
#412=CARTESIAN_POINT('',(1.7E0,-2.225E0,-2.15E0));
#413=LINE('',#412,#411);
#414=DIRECTION('',(-1.E0,0.E0,0.E0));
#415=VECTOR('',#414,4.E-1);
#416=CARTESIAN_POINT('',(1.7E0,-1.875E0,-2.15E0));
#417=LINE('',#416,#415);
#418=DIRECTION('',(0.E0,1.E0,0.E0));
#419=VECTOR('',#418,3.5E-1);
#420=CARTESIAN_POINT('',(1.3E0,-2.225E0,-2.15E0));
#421=LINE('',#420,#419);
#422=DIRECTION('',(0.E0,-1.E0,0.E0));
#423=VECTOR('',#422,7.E-1);
#424=CARTESIAN_POINT('',(1.E0,-1.525E0,-2.15E0));
#425=LINE('',#424,#423);
#426=DIRECTION('',(-1.E0,0.E0,0.E0));
#427=VECTOR('',#426,1.E0);
#428=CARTESIAN_POINT('',(2.E0,-1.525E0,-2.15E0));
#429=LINE('',#428,#427);
#430=DIRECTION('',(0.E0,1.E0,0.E0));
#431=VECTOR('',#430,7.E-1);
#432=CARTESIAN_POINT('',(2.E0,-2.225E0,-2.15E0));
#433=LINE('',#432,#431);
#434=DIRECTION('',(0.E0,0.E0,-1.E0));
#435=VECTOR('',#434,2.E0);
#436=CARTESIAN_POINT('',(1.7E0,-1.715E0,-5.E0));
#437=LINE('',#436,#435);
#438=DIRECTION('',(0.E0,-1.E0,0.E0));
#439=VECTOR('',#438,5.6E-1);
#440=CARTESIAN_POINT('',(1.7E0,-1.715E0,-7.E0));
#441=LINE('',#440,#439);
#442=DIRECTION('',(0.E0,1.E0,0.E0));
#443=VECTOR('',#442,4.E-1);
#444=CARTESIAN_POINT('',(1.7E0,-2.275E0,-1.E0));
#445=LINE('',#444,#443);
#446=DIRECTION('',(0.E0,0.E0,-1.E0));
#447=VECTOR('',#446,1.15E0);
#448=CARTESIAN_POINT('',(1.7E0,-1.875E0,-1.E0));
#449=LINE('',#448,#447);
#450=DIRECTION('',(0.E0,1.E0,0.E0));
#451=VECTOR('',#450,5.1E-1);
#452=CARTESIAN_POINT('',(1.7E0,-2.225E0,-5.E0));
#453=LINE('',#452,#451);
#454=DIRECTION('',(1.E0,0.E0,0.E0));
#455=VECTOR('',#454,1.3E0);
#456=CARTESIAN_POINT('',(1.7E0,-2.225E0,-5.E0));
#457=LINE('',#456,#455);
#458=DIRECTION('',(0.E0,1.E0,0.E0));
#459=VECTOR('',#458,4.45E0);
#460=CARTESIAN_POINT('',(3.E0,-2.225E0,-5.E0));
#461=LINE('',#460,#459);
#462=DIRECTION('',(-1.E0,0.E0,0.E0));
#463=VECTOR('',#462,6.E0);
#464=CARTESIAN_POINT('',(3.E0,2.225E0,-5.E0));
#465=LINE('',#464,#463);
#466=DIRECTION('',(0.E0,-1.E0,0.E0));
#467=VECTOR('',#466,4.45E0);
#468=CARTESIAN_POINT('',(-3.E0,2.225E0,-5.E0));
#469=LINE('',#468,#467);
#470=DIRECTION('',(1.E0,0.E0,0.E0));
#471=VECTOR('',#470,1.3E0);
#472=CARTESIAN_POINT('',(-3.E0,-2.225E0,-5.E0));
#473=LINE('',#472,#471);
#474=DIRECTION('',(0.E0,1.E0,0.E0));
#475=VECTOR('',#474,5.1E-1);
#476=CARTESIAN_POINT('',(-1.7E0,-2.225E0,-5.E0));
#477=LINE('',#476,#475);
#478=DIRECTION('',(-1.E0,0.E0,0.E0));
#479=VECTOR('',#478,4.E-1);
#480=CARTESIAN_POINT('',(-1.3E0,-1.715E0,-5.E0));
#481=LINE('',#480,#479);
#482=DIRECTION('',(0.E0,1.E0,0.E0));
#483=VECTOR('',#482,5.1E-1);
#484=CARTESIAN_POINT('',(-1.3E0,-2.225E0,-5.E0));
#485=LINE('',#484,#483);
#486=DIRECTION('',(1.E0,0.E0,0.E0));
#487=VECTOR('',#486,1.1E0);
#488=CARTESIAN_POINT('',(-1.3E0,-2.225E0,-5.E0));
#489=LINE('',#488,#487);
#490=DIRECTION('',(0.E0,1.E0,0.E0));
#491=VECTOR('',#490,5.1E-1);
#492=CARTESIAN_POINT('',(-2.E-1,-2.225E0,-5.E0));
#493=LINE('',#492,#491);
#494=DIRECTION('',(-1.E0,0.E0,0.E0));
#495=VECTOR('',#494,4.E-1);
#496=CARTESIAN_POINT('',(2.E-1,-1.715E0,-5.E0));
#497=LINE('',#496,#495);
#498=DIRECTION('',(0.E0,1.E0,0.E0));
#499=VECTOR('',#498,5.1E-1);
#500=CARTESIAN_POINT('',(2.E-1,-2.225E0,-5.E0));
#501=LINE('',#500,#499);
#502=DIRECTION('',(1.E0,0.E0,0.E0));
#503=VECTOR('',#502,1.1E0);
#504=CARTESIAN_POINT('',(2.E-1,-2.225E0,-5.E0));
#505=LINE('',#504,#503);
#506=DIRECTION('',(0.E0,1.E0,0.E0));
#507=VECTOR('',#506,5.1E-1);
#508=CARTESIAN_POINT('',(1.3E0,-2.225E0,-5.E0));
#509=LINE('',#508,#507);
#510=DIRECTION('',(-1.E0,0.E0,0.E0));
#511=VECTOR('',#510,4.E-1);
#512=CARTESIAN_POINT('',(1.7E0,-1.715E0,-5.E0));
#513=LINE('',#512,#511);
#514=DIRECTION('',(0.E0,0.E0,-1.E0));
#515=VECTOR('',#514,5.E0);
#516=CARTESIAN_POINT('',(-3.E0,-2.225E0,0.E0));
#517=LINE('',#516,#515);
#518=DIRECTION('',(0.E0,0.E0,-1.E0));
#519=VECTOR('',#518,2.15E0);
#520=CARTESIAN_POINT('',(-2.E0,-2.225E0,0.E0));
#521=LINE('',#520,#519);
#522=DIRECTION('',(1.E0,0.E0,0.E0));
#523=VECTOR('',#522,3.E-1);
#524=CARTESIAN_POINT('',(-2.E0,-2.225E0,-2.15E0));
#525=LINE('',#524,#523);
#526=DIRECTION('',(0.E0,0.E0,1.E0));
#527=VECTOR('',#526,2.85E0);
#528=CARTESIAN_POINT('',(-1.7E0,-2.225E0,-5.E0));
#529=LINE('',#528,#527);
#530=DIRECTION('',(0.E0,0.E0,1.E0));
#531=VECTOR('',#530,2.85E0);
#532=CARTESIAN_POINT('',(-1.3E0,-2.225E0,-5.E0));
#533=LINE('',#532,#531);
#534=DIRECTION('',(1.E0,0.E0,0.E0));
#535=VECTOR('',#534,3.E-1);
#536=CARTESIAN_POINT('',(-1.3E0,-2.225E0,-2.15E0));
#537=LINE('',#536,#535);
#538=DIRECTION('',(0.E0,0.E0,-1.E0));
#539=VECTOR('',#538,2.15E0);
#540=CARTESIAN_POINT('',(-1.E0,-2.225E0,0.E0));
#541=LINE('',#540,#539);
#542=DIRECTION('',(0.E0,0.E0,-1.E0));
#543=VECTOR('',#542,2.15E0);
#544=CARTESIAN_POINT('',(-5.E-1,-2.225E0,0.E0));
#545=LINE('',#544,#543);
#546=DIRECTION('',(1.E0,0.E0,0.E0));
#547=VECTOR('',#546,3.E-1);
#548=CARTESIAN_POINT('',(-5.E-1,-2.225E0,-2.15E0));
#549=LINE('',#548,#547);
#550=DIRECTION('',(0.E0,0.E0,1.E0));
#551=VECTOR('',#550,2.85E0);
#552=CARTESIAN_POINT('',(-2.E-1,-2.225E0,-5.E0));
#553=LINE('',#552,#551);
#554=DIRECTION('',(0.E0,0.E0,1.E0));
#555=VECTOR('',#554,2.85E0);
#556=CARTESIAN_POINT('',(2.E-1,-2.225E0,-5.E0));
#557=LINE('',#556,#555);
#558=DIRECTION('',(1.E0,0.E0,0.E0));
#559=VECTOR('',#558,3.E-1);
#560=CARTESIAN_POINT('',(2.E-1,-2.225E0,-2.15E0));
#561=LINE('',#560,#559);
#562=DIRECTION('',(0.E0,0.E0,-1.E0));
#563=VECTOR('',#562,2.15E0);
#564=CARTESIAN_POINT('',(5.E-1,-2.225E0,0.E0));
#565=LINE('',#564,#563);
#566=DIRECTION('',(0.E0,0.E0,-1.E0));
#567=VECTOR('',#566,2.15E0);
#568=CARTESIAN_POINT('',(1.E0,-2.225E0,0.E0));
#569=LINE('',#568,#567);
#570=DIRECTION('',(1.E0,0.E0,0.E0));
#571=VECTOR('',#570,3.E-1);
#572=CARTESIAN_POINT('',(1.E0,-2.225E0,-2.15E0));
#573=LINE('',#572,#571);
#574=DIRECTION('',(0.E0,0.E0,1.E0));
#575=VECTOR('',#574,2.85E0);
#576=CARTESIAN_POINT('',(1.3E0,-2.225E0,-5.E0));
#577=LINE('',#576,#575);
#578=DIRECTION('',(0.E0,0.E0,1.E0));
#579=VECTOR('',#578,2.85E0);
#580=CARTESIAN_POINT('',(1.7E0,-2.225E0,-5.E0));
#581=LINE('',#580,#579);
#582=DIRECTION('',(1.E0,0.E0,0.E0));
#583=VECTOR('',#582,3.E-1);
#584=CARTESIAN_POINT('',(1.7E0,-2.225E0,-2.15E0));
#585=LINE('',#584,#583);
#586=DIRECTION('',(0.E0,0.E0,-1.E0));
#587=VECTOR('',#586,2.15E0);
#588=CARTESIAN_POINT('',(2.E0,-2.225E0,0.E0));
#589=LINE('',#588,#587);
#590=DIRECTION('',(0.E0,0.E0,-1.E0));
#591=VECTOR('',#590,5.E0);
#592=CARTESIAN_POINT('',(-3.E0,2.225E0,0.E0));
#593=LINE('',#592,#591);
#594=DIRECTION('',(0.E0,0.E0,-1.E0));
#595=VECTOR('',#594,5.E0);
#596=CARTESIAN_POINT('',(3.E0,2.225E0,0.E0));
#597=LINE('',#596,#595);
#598=DIRECTION('',(0.E0,0.E0,-1.E0));
#599=VECTOR('',#598,5.E0);
#600=CARTESIAN_POINT('',(3.E0,-2.225E0,0.E0));
#601=LINE('',#600,#599);
#602=DIRECTION('',(0.E0,0.E0,-1.E0));
#603=VECTOR('',#602,2.15E0);
#604=CARTESIAN_POINT('',(-2.E0,-1.525E0,0.E0));
#605=LINE('',#604,#603);
#606=DIRECTION('',(0.E0,0.E0,-1.E0));
#607=VECTOR('',#606,2.15E0);
#608=CARTESIAN_POINT('',(-1.E0,-1.525E0,0.E0));
#609=LINE('',#608,#607);
#610=DIRECTION('',(0.E0,1.E0,0.E0));
#611=VECTOR('',#610,3.5E-1);
#612=CARTESIAN_POINT('',(-1.3E0,-2.225E0,-2.15E0));
#613=LINE('',#612,#611);
#614=DIRECTION('',(-1.E0,0.E0,0.E0));
#615=VECTOR('',#614,4.E-1);
#616=CARTESIAN_POINT('',(-1.3E0,-1.875E0,-2.15E0));
#617=LINE('',#616,#615);
#618=DIRECTION('',(0.E0,1.E0,0.E0));
#619=VECTOR('',#618,3.5E-1);
#620=CARTESIAN_POINT('',(-1.7E0,-2.225E0,-2.15E0));
#621=LINE('',#620,#619);
#622=DIRECTION('',(0.E0,-1.E0,0.E0));
#623=VECTOR('',#622,7.E-1);
#624=CARTESIAN_POINT('',(-2.E0,-1.525E0,-2.15E0));
#625=LINE('',#624,#623);
#626=DIRECTION('',(-1.E0,0.E0,0.E0));
#627=VECTOR('',#626,1.E0);
#628=CARTESIAN_POINT('',(-1.E0,-1.525E0,-2.15E0));
#629=LINE('',#628,#627);
#630=DIRECTION('',(0.E0,1.E0,0.E0));
#631=VECTOR('',#630,7.E-1);
#632=CARTESIAN_POINT('',(-1.E0,-2.225E0,-2.15E0));
#633=LINE('',#632,#631);
#634=DIRECTION('',(0.E0,0.E0,-1.E0));
#635=VECTOR('',#634,2.E0);
#636=CARTESIAN_POINT('',(-1.3E0,-1.715E0,-5.E0));
#637=LINE('',#636,#635);
#638=DIRECTION('',(0.E0,-1.E0,0.E0));
#639=VECTOR('',#638,5.6E-1);
#640=CARTESIAN_POINT('',(-1.3E0,-1.715E0,-7.E0));
#641=LINE('',#640,#639);
#642=DIRECTION('',(0.E0,1.E0,0.E0));
#643=VECTOR('',#642,4.E-1);
#644=CARTESIAN_POINT('',(-1.3E0,-2.275E0,-1.E0));
#645=LINE('',#644,#643);
#646=DIRECTION('',(0.E0,0.E0,-1.E0));
#647=VECTOR('',#646,1.15E0);
#648=CARTESIAN_POINT('',(-1.3E0,-1.875E0,-1.E0));
#649=LINE('',#648,#647);
#650=DIRECTION('',(0.E0,0.E0,-1.E0));
#651=VECTOR('',#650,1.15E0);
#652=CARTESIAN_POINT('',(-1.7E0,-1.875E0,-1.E0));
#653=LINE('',#652,#651);
#654=DIRECTION('',(0.E0,1.E0,0.E0));
#655=VECTOR('',#654,4.E-1);
#656=CARTESIAN_POINT('',(-1.7E0,-2.275E0,-1.E0));
#657=LINE('',#656,#655);
#658=DIRECTION('',(0.E0,-1.E0,0.E0));
#659=VECTOR('',#658,5.6E-1);
#660=CARTESIAN_POINT('',(-1.7E0,-1.715E0,-7.E0));
#661=LINE('',#660,#659);
#662=DIRECTION('',(0.E0,0.E0,-1.E0));
#663=VECTOR('',#662,2.E0);
#664=CARTESIAN_POINT('',(-1.7E0,-1.715E0,-5.E0));
#665=LINE('',#664,#663);
#666=DIRECTION('',(-1.E0,0.E0,0.E0));
#667=VECTOR('',#666,4.E-1);
#668=CARTESIAN_POINT('',(-1.3E0,-1.875E0,-1.E0));
#669=LINE('',#668,#667);
#670=DIRECTION('',(-1.E0,0.E0,0.E0));
#671=VECTOR('',#670,4.E-1);
#672=CARTESIAN_POINT('',(-1.3E0,-2.275E0,-1.E0));
#673=LINE('',#672,#671);
#674=DIRECTION('',(0.E0,0.E0,-1.E0));
#675=VECTOR('',#674,6.E0);
#676=CARTESIAN_POINT('',(-1.3E0,-2.275E0,-1.E0));
#677=LINE('',#676,#675);
#678=DIRECTION('',(-1.E0,0.E0,0.E0));
#679=VECTOR('',#678,4.E-1);
#680=CARTESIAN_POINT('',(-1.3E0,-2.275E0,-7.E0));
#681=LINE('',#680,#679);
#682=DIRECTION('',(0.E0,0.E0,1.E0));
#683=VECTOR('',#682,6.E0);
#684=CARTESIAN_POINT('',(-1.7E0,-2.275E0,-7.E0));
#685=LINE('',#684,#683);
#686=DIRECTION('',(-1.E0,0.E0,0.E0));
#687=VECTOR('',#686,4.E-1);
#688=CARTESIAN_POINT('',(-1.3E0,-1.715E0,-7.E0));
#689=LINE('',#688,#687);
#690=DIRECTION('',(0.E0,0.E0,-1.E0));
#691=VECTOR('',#690,2.15E0);
#692=CARTESIAN_POINT('',(-5.E-1,-1.525E0,0.E0));
#693=LINE('',#692,#691);
#694=DIRECTION('',(0.E0,1.E0,0.E0));
#695=VECTOR('',#694,3.5E-1);
#696=CARTESIAN_POINT('',(2.E-1,-2.225E0,-2.15E0));
#697=LINE('',#696,#695);
#698=DIRECTION('',(-1.E0,0.E0,0.E0));
#699=VECTOR('',#698,4.E-1);
#700=CARTESIAN_POINT('',(2.E-1,-1.875E0,-2.15E0));
#701=LINE('',#700,#699);
#702=DIRECTION('',(0.E0,1.E0,0.E0));
#703=VECTOR('',#702,3.5E-1);
#704=CARTESIAN_POINT('',(-2.E-1,-2.225E0,-2.15E0));
#705=LINE('',#704,#703);
#706=DIRECTION('',(0.E0,-1.E0,0.E0));
#707=VECTOR('',#706,7.E-1);
#708=CARTESIAN_POINT('',(-5.E-1,-1.525E0,-2.15E0));
#709=LINE('',#708,#707);
#710=DIRECTION('',(-1.E0,0.E0,0.E0));
#711=VECTOR('',#710,1.E0);
#712=CARTESIAN_POINT('',(5.E-1,-1.525E0,-2.15E0));
#713=LINE('',#712,#711);
#714=DIRECTION('',(0.E0,1.E0,0.E0));
#715=VECTOR('',#714,7.E-1);
#716=CARTESIAN_POINT('',(5.E-1,-2.225E0,-2.15E0));
#717=LINE('',#716,#715);
#718=DIRECTION('',(0.E0,0.E0,-1.E0));
#719=VECTOR('',#718,2.E0);
#720=CARTESIAN_POINT('',(2.E-1,-1.715E0,-5.E0));
#721=LINE('',#720,#719);
#722=DIRECTION('',(0.E0,-1.E0,0.E0));
#723=VECTOR('',#722,5.6E-1);
#724=CARTESIAN_POINT('',(2.E-1,-1.715E0,-7.E0));
#725=LINE('',#724,#723);
#726=DIRECTION('',(0.E0,1.E0,0.E0));
#727=VECTOR('',#726,4.E-1);
#728=CARTESIAN_POINT('',(2.E-1,-2.275E0,-1.E0));
#729=LINE('',#728,#727);
#730=DIRECTION('',(0.E0,0.E0,-1.E0));
#731=VECTOR('',#730,1.15E0);
#732=CARTESIAN_POINT('',(2.E-1,-1.875E0,-1.E0));
#733=LINE('',#732,#731);
#734=DIRECTION('',(0.E0,0.E0,-1.E0));
#735=VECTOR('',#734,2.E0);
#736=CARTESIAN_POINT('',(-2.E-1,-1.715E0,-5.E0));
#737=LINE('',#736,#735);
#738=DIRECTION('',(0.E0,0.E0,-1.E0));
#739=VECTOR('',#738,1.15E0);
#740=CARTESIAN_POINT('',(-2.E-1,-1.875E0,-1.E0));
#741=LINE('',#740,#739);
#742=DIRECTION('',(0.E0,1.E0,0.E0));
#743=VECTOR('',#742,4.E-1);
#744=CARTESIAN_POINT('',(-2.E-1,-2.275E0,-1.E0));
#745=LINE('',#744,#743);
#746=DIRECTION('',(0.E0,-1.E0,0.E0));
#747=VECTOR('',#746,5.6E-1);
#748=CARTESIAN_POINT('',(-2.E-1,-1.715E0,-7.E0));
#749=LINE('',#748,#747);
#750=DIRECTION('',(-1.E0,0.E0,0.E0));
#751=VECTOR('',#750,4.E-1);
#752=CARTESIAN_POINT('',(2.E-1,-1.875E0,-1.E0));
#753=LINE('',#752,#751);
#754=DIRECTION('',(-1.E0,0.E0,0.E0));
#755=VECTOR('',#754,4.E-1);
#756=CARTESIAN_POINT('',(2.E-1,-2.275E0,-1.E0));
#757=LINE('',#756,#755);
#758=DIRECTION('',(0.E0,0.E0,-1.E0));
#759=VECTOR('',#758,6.E0);
#760=CARTESIAN_POINT('',(2.E-1,-2.275E0,-1.E0));
#761=LINE('',#760,#759);
#762=DIRECTION('',(-1.E0,0.E0,0.E0));
#763=VECTOR('',#762,4.E-1);
#764=CARTESIAN_POINT('',(2.E-1,-2.275E0,-7.E0));
#765=LINE('',#764,#763);
#766=DIRECTION('',(0.E0,0.E0,1.E0));
#767=VECTOR('',#766,6.E0);
#768=CARTESIAN_POINT('',(-2.E-1,-2.275E0,-7.E0));
#769=LINE('',#768,#767);
#770=DIRECTION('',(-1.E0,0.E0,0.E0));
#771=VECTOR('',#770,4.E-1);
#772=CARTESIAN_POINT('',(2.E-1,-1.715E0,-7.E0));
#773=LINE('',#772,#771);
#774=DIRECTION('',(0.E0,0.E0,-1.E0));
#775=VECTOR('',#774,2.15E0);
#776=CARTESIAN_POINT('',(5.E-1,-1.525E0,0.E0));
#777=LINE('',#776,#775);
#778=DIRECTION('',(0.E0,0.E0,-1.E0));
#779=VECTOR('',#778,2.15E0);
#780=CARTESIAN_POINT('',(1.E0,-1.525E0,0.E0));
#781=LINE('',#780,#779);
#782=DIRECTION('',(0.E0,0.E0,-1.E0));
#783=VECTOR('',#782,2.15E0);
#784=CARTESIAN_POINT('',(2.E0,-1.525E0,0.E0));
#785=LINE('',#784,#783);
#786=DIRECTION('',(0.E0,0.E0,-1.E0));
#787=VECTOR('',#786,2.E0);
#788=CARTESIAN_POINT('',(1.3E0,-1.715E0,-5.E0));
#789=LINE('',#788,#787);
#790=DIRECTION('',(0.E0,0.E0,-1.E0));
#791=VECTOR('',#790,1.15E0);
#792=CARTESIAN_POINT('',(1.3E0,-1.875E0,-1.E0));
#793=LINE('',#792,#791);
#794=DIRECTION('',(0.E0,1.E0,0.E0));
#795=VECTOR('',#794,4.E-1);
#796=CARTESIAN_POINT('',(1.3E0,-2.275E0,-1.E0));
#797=LINE('',#796,#795);
#798=DIRECTION('',(0.E0,-1.E0,0.E0));
#799=VECTOR('',#798,5.6E-1);
#800=CARTESIAN_POINT('',(1.3E0,-1.715E0,-7.E0));
#801=LINE('',#800,#799);
#802=DIRECTION('',(-1.E0,0.E0,0.E0));
#803=VECTOR('',#802,4.E-1);
#804=CARTESIAN_POINT('',(1.7E0,-1.875E0,-1.E0));
#805=LINE('',#804,#803);
#806=DIRECTION('',(-1.E0,0.E0,0.E0));
#807=VECTOR('',#806,4.E-1);
#808=CARTESIAN_POINT('',(1.7E0,-2.275E0,-1.E0));
#809=LINE('',#808,#807);
#810=DIRECTION('',(0.E0,0.E0,-1.E0));
#811=VECTOR('',#810,6.E0);
#812=CARTESIAN_POINT('',(1.7E0,-2.275E0,-1.E0));
#813=LINE('',#812,#811);
#814=DIRECTION('',(-1.E0,0.E0,0.E0));
#815=VECTOR('',#814,4.E-1);
#816=CARTESIAN_POINT('',(1.7E0,-2.275E0,-7.E0));
#817=LINE('',#816,#815);
#818=DIRECTION('',(0.E0,0.E0,1.E0));
#819=VECTOR('',#818,6.E0);
#820=CARTESIAN_POINT('',(1.3E0,-2.275E0,-7.E0));
#821=LINE('',#820,#819);
#822=DIRECTION('',(-1.E0,0.E0,0.E0));
#823=VECTOR('',#822,4.E-1);
#824=CARTESIAN_POINT('',(1.7E0,-1.715E0,-7.E0));
#825=LINE('',#824,#823);
#826=CARTESIAN_POINT('',(-3.E0,2.225E0,0.E0));
#827=CARTESIAN_POINT('',(-3.E0,-2.225E0,0.E0));
#828=VERTEX_POINT('',#826);
#829=VERTEX_POINT('',#827);
#830=CARTESIAN_POINT('',(3.E0,-2.225E0,0.E0));
#831=CARTESIAN_POINT('',(3.E0,2.225E0,0.E0));
#832=VERTEX_POINT('',#830);
#833=VERTEX_POINT('',#831);
#834=CARTESIAN_POINT('',(-3.E0,2.225E0,-5.E0));
#835=CARTESIAN_POINT('',(-3.E0,-2.225E0,-5.E0));
#836=VERTEX_POINT('',#834);
#837=VERTEX_POINT('',#835);
#838=CARTESIAN_POINT('',(3.E0,-2.225E0,-5.E0));
#839=CARTESIAN_POINT('',(3.E0,2.225E0,-5.E0));
#840=VERTEX_POINT('',#838);
#841=VERTEX_POINT('',#839);
#842=CARTESIAN_POINT('',(-2.7E0,-7.5E-2,-3.75E0));
#843=CARTESIAN_POINT('',(-2.7E0,-1.225E0,-3.75E0));
#844=VERTEX_POINT('',#842);
#845=VERTEX_POINT('',#843);
#846=CARTESIAN_POINT('',(2.7E0,-7.5E-2,-3.75E0));
#847=CARTESIAN_POINT('',(2.7E0,-1.225E0,-3.75E0));
#848=VERTEX_POINT('',#846);
#849=VERTEX_POINT('',#847);
#850=CARTESIAN_POINT('',(-2.5E0,4.25E-1,-3.25E0));
#851=CARTESIAN_POINT('',(-2.5E0,1.725E0,-3.25E0));
#852=VERTEX_POINT('',#850);
#853=VERTEX_POINT('',#851);
#854=CARTESIAN_POINT('',(2.5E0,4.25E-1,-3.25E0));
#855=CARTESIAN_POINT('',(2.5E0,1.725E0,-3.25E0));
#856=VERTEX_POINT('',#854);
#857=VERTEX_POINT('',#855);
#858=CARTESIAN_POINT('',(-2.7E0,1.25E-1,-3.55E0));
#859=CARTESIAN_POINT('',(-2.5E0,3.25E-1,-3.35E0));
#860=VERTEX_POINT('',#858);
#861=VERTEX_POINT('',#859);
#862=CARTESIAN_POINT('',(2.5E0,3.25E-1,-3.35E0));
#863=VERTEX_POINT('',#862);
#864=CARTESIAN_POINT('',(2.7E0,1.25E-1,-3.55E0));
#865=VERTEX_POINT('',#864);
#866=CARTESIAN_POINT('',(2.5E0,1.725E0,-2.E-1));
#867=CARTESIAN_POINT('',(2.5E0,3.25E-1,-2.E-1));
#868=VERTEX_POINT('',#866);
#869=VERTEX_POINT('',#867);
#870=CARTESIAN_POINT('',(2.7E0,1.925E0,0.E0));
#871=CARTESIAN_POINT('',(2.7E0,1.25E-1,0.E0));
#872=VERTEX_POINT('',#870);
#873=VERTEX_POINT('',#871);
#874=CARTESIAN_POINT('',(-2.5E0,3.25E-1,-2.E-1));
#875=CARTESIAN_POINT('',(-2.5E0,1.725E0,-2.E-1));
#876=VERTEX_POINT('',#874);
#877=VERTEX_POINT('',#875);
#878=CARTESIAN_POINT('',(-2.7E0,1.25E-1,0.E0));
#879=CARTESIAN_POINT('',(-2.7E0,1.925E0,0.E0));
#880=VERTEX_POINT('',#878);
#881=VERTEX_POINT('',#879);
#882=CARTESIAN_POINT('',(2.7E0,-1.225E0,-2.E-1));
#883=CARTESIAN_POINT('',(-2.7E0,-1.225E0,-2.E-1));
#884=VERTEX_POINT('',#882);
#885=VERTEX_POINT('',#883);
#886=CARTESIAN_POINT('',(2.7E0,-1.425E0,0.E0));
#887=CARTESIAN_POINT('',(-2.7E0,-1.425E0,0.E0));
#888=VERTEX_POINT('',#886);
#889=VERTEX_POINT('',#887);
#890=CARTESIAN_POINT('',(4.E-1,1.825E0,-3.25E0));
#891=CARTESIAN_POINT('',(-4.E-1,1.825E0,-3.25E0));
#892=VERTEX_POINT('',#890);
#893=VERTEX_POINT('',#891);
#894=CARTESIAN_POINT('',(4.E-1,1.725E0,-3.25E0));
#895=VERTEX_POINT('',#894);
#896=CARTESIAN_POINT('',(-4.E-1,1.725E0,-3.25E0));
#897=VERTEX_POINT('',#896);
#898=CARTESIAN_POINT('',(4.E-1,1.825E0,-1.E-1));
#899=VERTEX_POINT('',#898);
#900=CARTESIAN_POINT('',(-4.E-1,1.825E0,-1.E-1));
#901=VERTEX_POINT('',#900);
#902=CARTESIAN_POINT('',(-1.E0,-1.525E0,-2.15E0));
#903=CARTESIAN_POINT('',(-2.E0,-1.525E0,-2.15E0));
#904=VERTEX_POINT('',#902);
#905=VERTEX_POINT('',#903);
#906=CARTESIAN_POINT('',(-1.E0,-2.225E0,0.E0));
#907=CARTESIAN_POINT('',(-1.E0,-1.525E0,0.E0));
#908=VERTEX_POINT('',#906);
#909=VERTEX_POINT('',#907);
#910=CARTESIAN_POINT('',(-2.E0,-1.525E0,0.E0));
#911=VERTEX_POINT('',#910);
#912=CARTESIAN_POINT('',(-2.E0,-2.225E0,0.E0));
#913=VERTEX_POINT('',#912);
#914=CARTESIAN_POINT('',(-1.E0,-2.225E0,-2.15E0));
#915=VERTEX_POINT('',#914);
#916=CARTESIAN_POINT('',(-2.E0,-2.225E0,-2.15E0));
#917=VERTEX_POINT('',#916);
#918=CARTESIAN_POINT('',(-1.7E0,9.25E-1,-5.5E-1));
#919=CARTESIAN_POINT('',(-1.7E0,5.25E-1,-5.5E-1));
#920=VERTEX_POINT('',#918);
#921=VERTEX_POINT('',#919);
#922=CARTESIAN_POINT('',(-1.3E0,5.25E-1,-5.5E-1));
#923=VERTEX_POINT('',#922);
#924=CARTESIAN_POINT('',(-1.3E0,9.25E-1,-5.5E-1));
#925=VERTEX_POINT('',#924);
#926=CARTESIAN_POINT('',(-1.7E0,5.25E-1,-3.25E0));
#927=CARTESIAN_POINT('',(-1.7E0,9.25E-1,-3.25E0));
#928=VERTEX_POINT('',#926);
#929=VERTEX_POINT('',#927);
#930=CARTESIAN_POINT('',(-1.3E0,5.25E-1,-3.25E0));
#931=CARTESIAN_POINT('',(-1.3E0,9.25E-1,-3.25E0));
#932=VERTEX_POINT('',#930);
#933=VERTEX_POINT('',#931);
#934=CARTESIAN_POINT('',(4.E-1,1.725E0,-2.E-1));
#935=VERTEX_POINT('',#934);
#936=CARTESIAN_POINT('',(-4.E-1,1.725E0,-2.E-1));
#937=VERTEX_POINT('',#936);
#938=CARTESIAN_POINT('',(-1.3E0,-1.715E0,-7.E0));
#939=CARTESIAN_POINT('',(-1.3E0,-2.275E0,-7.E0));
#940=VERTEX_POINT('',#938);
#941=VERTEX_POINT('',#939);
#942=CARTESIAN_POINT('',(-1.3E0,-2.275E0,-1.E0));
#943=CARTESIAN_POINT('',(-1.3E0,-1.875E0,-1.E0));
#944=VERTEX_POINT('',#942);
#945=VERTEX_POINT('',#943);
#946=CARTESIAN_POINT('',(-1.7E0,-1.715E0,-7.E0));
#947=CARTESIAN_POINT('',(-1.7E0,-2.275E0,-7.E0));
#948=VERTEX_POINT('',#946);
#949=VERTEX_POINT('',#947);
#950=CARTESIAN_POINT('',(-1.7E0,-2.275E0,-1.E0));
#951=CARTESIAN_POINT('',(-1.7E0,-1.875E0,-1.E0));
#952=VERTEX_POINT('',#950);
#953=VERTEX_POINT('',#951);
#954=CARTESIAN_POINT('',(-1.3E0,-2.225E0,-5.E0));
#955=CARTESIAN_POINT('',(-1.3E0,-1.715E0,-5.E0));
#956=VERTEX_POINT('',#954);
#957=VERTEX_POINT('',#955);
#958=CARTESIAN_POINT('',(-1.7E0,-2.225E0,-5.E0));
#959=CARTESIAN_POINT('',(-1.7E0,-1.715E0,-5.E0));
#960=VERTEX_POINT('',#958);
#961=VERTEX_POINT('',#959);
#962=CARTESIAN_POINT('',(-1.3E0,-2.225E0,-2.15E0));
#963=CARTESIAN_POINT('',(-1.3E0,-1.875E0,-2.15E0));
#964=VERTEX_POINT('',#962);
#965=VERTEX_POINT('',#963);
#966=CARTESIAN_POINT('',(-1.7E0,-2.225E0,-2.15E0));
#967=CARTESIAN_POINT('',(-1.7E0,-1.875E0,-2.15E0));
#968=VERTEX_POINT('',#966);
#969=VERTEX_POINT('',#967);
#970=CARTESIAN_POINT('',(5.E-1,-1.525E0,-2.15E0));
#971=CARTESIAN_POINT('',(-5.E-1,-1.525E0,-2.15E0));
#972=VERTEX_POINT('',#970);
#973=VERTEX_POINT('',#971);
#974=CARTESIAN_POINT('',(5.E-1,-2.225E0,-2.15E0));
#975=VERTEX_POINT('',#974);
#976=CARTESIAN_POINT('',(-5.E-1,-2.225E0,-2.15E0));
#977=VERTEX_POINT('',#976);
#978=CARTESIAN_POINT('',(5.E-1,-1.525E0,0.E0));
#979=VERTEX_POINT('',#978);
#980=CARTESIAN_POINT('',(-5.E-1,-1.525E0,0.E0));
#981=VERTEX_POINT('',#980);
#982=CARTESIAN_POINT('',(-2.E-1,9.25E-1,-5.5E-1));
#983=CARTESIAN_POINT('',(-2.E-1,5.25E-1,-5.5E-1));
#984=VERTEX_POINT('',#982);
#985=VERTEX_POINT('',#983);
#986=CARTESIAN_POINT('',(2.E-1,5.25E-1,-5.5E-1));
#987=VERTEX_POINT('',#986);
#988=CARTESIAN_POINT('',(2.E-1,9.25E-1,-5.5E-1));
#989=VERTEX_POINT('',#988);
#990=CARTESIAN_POINT('',(-2.E-1,9.25E-1,-3.25E0));
#991=VERTEX_POINT('',#990);
#992=CARTESIAN_POINT('',(2.E-1,9.25E-1,-3.25E0));
#993=VERTEX_POINT('',#992);
#994=CARTESIAN_POINT('',(-2.E-1,5.25E-1,-3.25E0));
#995=VERTEX_POINT('',#994);
#996=CARTESIAN_POINT('',(2.E-1,5.25E-1,-3.25E0));
#997=VERTEX_POINT('',#996);
#998=CARTESIAN_POINT('',(2.E-1,-1.715E0,-7.E0));
#999=CARTESIAN_POINT('',(2.E-1,-2.275E0,-7.E0));
#1000=VERTEX_POINT('',#998);
#1001=VERTEX_POINT('',#999);
#1002=CARTESIAN_POINT('',(2.E-1,-2.275E0,-1.E0));
#1003=CARTESIAN_POINT('',(2.E-1,-1.875E0,-1.E0));
#1004=VERTEX_POINT('',#1002);
#1005=VERTEX_POINT('',#1003);
#1006=CARTESIAN_POINT('',(-2.E-1,-1.715E0,-7.E0));
#1007=CARTESIAN_POINT('',(-2.E-1,-2.275E0,-7.E0));
#1008=VERTEX_POINT('',#1006);
#1009=VERTEX_POINT('',#1007);
#1010=CARTESIAN_POINT('',(-2.E-1,-2.275E0,-1.E0));
#1011=CARTESIAN_POINT('',(-2.E-1,-1.875E0,-1.E0));
#1012=VERTEX_POINT('',#1010);
#1013=VERTEX_POINT('',#1011);
#1014=CARTESIAN_POINT('',(2.E-1,-1.715E0,-5.E0));
#1015=VERTEX_POINT('',#1014);
#1016=CARTESIAN_POINT('',(-2.E-1,-1.715E0,-5.E0));
#1017=VERTEX_POINT('',#1016);
#1018=CARTESIAN_POINT('',(2.E0,-1.525E0,-2.15E0));
#1019=CARTESIAN_POINT('',(1.E0,-1.525E0,-2.15E0));
#1020=VERTEX_POINT('',#1018);
#1021=VERTEX_POINT('',#1019);
#1022=CARTESIAN_POINT('',(2.E0,-2.225E0,-2.15E0));
#1023=VERTEX_POINT('',#1022);
#1024=CARTESIAN_POINT('',(1.E0,-2.225E0,-2.15E0));
#1025=VERTEX_POINT('',#1024);
#1026=CARTESIAN_POINT('',(2.E0,-1.525E0,0.E0));
#1027=VERTEX_POINT('',#1026);
#1028=CARTESIAN_POINT('',(1.E0,-1.525E0,0.E0));
#1029=VERTEX_POINT('',#1028);
#1030=CARTESIAN_POINT('',(1.3E0,9.25E-1,-5.5E-1));
#1031=CARTESIAN_POINT('',(1.3E0,5.25E-1,-5.5E-1));
#1032=VERTEX_POINT('',#1030);
#1033=VERTEX_POINT('',#1031);
#1034=CARTESIAN_POINT('',(1.7E0,5.25E-1,-5.5E-1));
#1035=VERTEX_POINT('',#1034);
#1036=CARTESIAN_POINT('',(1.7E0,9.25E-1,-5.5E-1));
#1037=VERTEX_POINT('',#1036);
#1038=CARTESIAN_POINT('',(1.3E0,9.25E-1,-3.25E0));
#1039=VERTEX_POINT('',#1038);
#1040=CARTESIAN_POINT('',(1.7E0,9.25E-1,-3.25E0));
#1041=VERTEX_POINT('',#1040);
#1042=CARTESIAN_POINT('',(1.3E0,5.25E-1,-3.25E0));
#1043=VERTEX_POINT('',#1042);
#1044=CARTESIAN_POINT('',(1.7E0,5.25E-1,-3.25E0));
#1045=VERTEX_POINT('',#1044);
#1046=CARTESIAN_POINT('',(1.7E0,-1.715E0,-7.E0));
#1047=CARTESIAN_POINT('',(1.7E0,-2.275E0,-7.E0));
#1048=VERTEX_POINT('',#1046);
#1049=VERTEX_POINT('',#1047);
#1050=CARTESIAN_POINT('',(1.7E0,-2.275E0,-1.E0));
#1051=CARTESIAN_POINT('',(1.7E0,-1.875E0,-1.E0));
#1052=VERTEX_POINT('',#1050);
#1053=VERTEX_POINT('',#1051);
#1054=CARTESIAN_POINT('',(1.3E0,-1.715E0,-7.E0));
#1055=CARTESIAN_POINT('',(1.3E0,-2.275E0,-7.E0));
#1056=VERTEX_POINT('',#1054);
#1057=VERTEX_POINT('',#1055);
#1058=CARTESIAN_POINT('',(1.3E0,-2.275E0,-1.E0));
#1059=CARTESIAN_POINT('',(1.3E0,-1.875E0,-1.E0));
#1060=VERTEX_POINT('',#1058);
#1061=VERTEX_POINT('',#1059);
#1062=CARTESIAN_POINT('',(1.7E0,-1.715E0,-5.E0));
#1063=VERTEX_POINT('',#1062);
#1064=CARTESIAN_POINT('',(1.3E0,-1.715E0,-5.E0));
#1065=VERTEX_POINT('',#1064);
#1066=CARTESIAN_POINT('',(5.E-1,-2.225E0,0.E0));
#1067=VERTEX_POINT('',#1066);
#1068=CARTESIAN_POINT('',(-5.E-1,-2.225E0,0.E0));
#1069=VERTEX_POINT('',#1068);
#1070=CARTESIAN_POINT('',(2.E-1,-2.225E0,-5.E0));
#1071=VERTEX_POINT('',#1070);
#1072=CARTESIAN_POINT('',(-2.E-1,-2.225E0,-5.E0));
#1073=VERTEX_POINT('',#1072);
#1074=CARTESIAN_POINT('',(2.E-1,-2.225E0,-2.15E0));
#1075=CARTESIAN_POINT('',(2.E-1,-1.875E0,-2.15E0));
#1076=VERTEX_POINT('',#1074);
#1077=VERTEX_POINT('',#1075);
#1078=CARTESIAN_POINT('',(-2.E-1,-2.225E0,-2.15E0));
#1079=CARTESIAN_POINT('',(-2.E-1,-1.875E0,-2.15E0));
#1080=VERTEX_POINT('',#1078);
#1081=VERTEX_POINT('',#1079);
#1082=CARTESIAN_POINT('',(2.E0,-2.225E0,0.E0));
#1083=VERTEX_POINT('',#1082);
#1084=CARTESIAN_POINT('',(1.E0,-2.225E0,0.E0));
#1085=VERTEX_POINT('',#1084);
#1086=CARTESIAN_POINT('',(1.7E0,-2.225E0,-5.E0));
#1087=VERTEX_POINT('',#1086);
#1088=CARTESIAN_POINT('',(1.3E0,-2.225E0,-5.E0));
#1089=VERTEX_POINT('',#1088);
#1090=CARTESIAN_POINT('',(1.7E0,-2.225E0,-2.15E0));
#1091=CARTESIAN_POINT('',(1.7E0,-1.875E0,-2.15E0));
#1092=VERTEX_POINT('',#1090);
#1093=VERTEX_POINT('',#1091);
#1094=CARTESIAN_POINT('',(1.3E0,-2.225E0,-2.15E0));
#1095=CARTESIAN_POINT('',(1.3E0,-1.875E0,-2.15E0));
#1096=VERTEX_POINT('',#1094);
#1097=VERTEX_POINT('',#1095);
#1098=CARTESIAN_POINT('',(0.E0,0.E0,0.E0));
#1099=DIRECTION('',(0.E0,0.E0,1.E0));
#1100=DIRECTION('',(1.E0,0.E0,0.E0));
#1101=AXIS2_PLACEMENT_3D('',#1098,#1099,#1100);
#1102=PLANE('',#1101);
#1104=ORIENTED_EDGE('',*,*,#1103,.T.);
#1106=ORIENTED_EDGE('',*,*,#1105,.T.);
#1108=ORIENTED_EDGE('',*,*,#1107,.F.);
#1110=ORIENTED_EDGE('',*,*,#1109,.F.);
#1112=ORIENTED_EDGE('',*,*,#1111,.T.);
#1114=ORIENTED_EDGE('',*,*,#1113,.T.);
#1116=ORIENTED_EDGE('',*,*,#1115,.F.);
#1118=ORIENTED_EDGE('',*,*,#1117,.F.);
#1120=ORIENTED_EDGE('',*,*,#1119,.T.);
#1122=ORIENTED_EDGE('',*,*,#1121,.T.);
#1124=ORIENTED_EDGE('',*,*,#1123,.F.);
#1126=ORIENTED_EDGE('',*,*,#1125,.F.);
#1128=ORIENTED_EDGE('',*,*,#1127,.F.);
#1130=ORIENTED_EDGE('',*,*,#1129,.F.);
#1132=ORIENTED_EDGE('',*,*,#1131,.F.);
#1134=ORIENTED_EDGE('',*,*,#1133,.F.);
#1135=EDGE_LOOP('',(#1104,#1106,#1108,#1110,#1112,#1114,#1116,#1118,#1120,#1122,
#1124,#1126,#1128,#1130,#1132,#1134));
#1136=FACE_OUTER_BOUND('',#1135,.F.);
#1138=ORIENTED_EDGE('',*,*,#1137,.F.);
#1140=ORIENTED_EDGE('',*,*,#1139,.F.);
#1142=ORIENTED_EDGE('',*,*,#1141,.F.);
#1144=ORIENTED_EDGE('',*,*,#1143,.F.);
#1146=ORIENTED_EDGE('',*,*,#1145,.F.);
#1148=ORIENTED_EDGE('',*,*,#1147,.F.);
#1149=EDGE_LOOP('',(#1138,#1140,#1142,#1144,#1146,#1148));
#1150=FACE_BOUND('',#1149,.F.);
#1152=CARTESIAN_POINT('',(2.6E0,1.025E0,-1.E-1));
#1153=DIRECTION('',(-7.071067811865E-1,0.E0,7.071067811865E-1));
#1154=DIRECTION('',(-7.071067811865E-1,0.E0,-7.071067811865E-1));
#1155=AXIS2_PLACEMENT_3D('',#1152,#1153,#1154);
#1156=PLANE('',#1155);
#1158=ORIENTED_EDGE('',*,*,#1157,.F.);
#1160=ORIENTED_EDGE('',*,*,#1159,.T.);
#1161=ORIENTED_EDGE('',*,*,#1137,.T.);
#1163=ORIENTED_EDGE('',*,*,#1162,.T.);
#1164=EDGE_LOOP('',(#1158,#1160,#1161,#1163));
#1165=FACE_OUTER_BOUND('',#1164,.F.);
#1167=CARTESIAN_POINT('',(2.5E0,1.725E0,0.E0));
#1168=DIRECTION('',(-1.E0,0.E0,0.E0));
#1169=DIRECTION('',(0.E0,-1.E0,0.E0));
#1170=AXIS2_PLACEMENT_3D('',#1167,#1168,#1169);
#1171=PLANE('',#1170);
#1172=ORIENTED_EDGE('',*,*,#1157,.T.);
#1174=ORIENTED_EDGE('',*,*,#1173,.T.);
#1176=ORIENTED_EDGE('',*,*,#1175,.F.);
#1178=ORIENTED_EDGE('',*,*,#1177,.T.);
#1180=ORIENTED_EDGE('',*,*,#1179,.F.);
#1181=EDGE_LOOP('',(#1172,#1174,#1176,#1178,#1180));
#1182=FACE_OUTER_BOUND('',#1181,.F.);
#1184=CARTESIAN_POINT('',(2.5E0,3.25E-1,0.E0));
#1185=DIRECTION('',(-7.071067811865E-1,-7.071067811865E-1,0.E0));
#1186=DIRECTION('',(7.071067811865E-1,-7.071067811865E-1,0.E0));
#1187=AXIS2_PLACEMENT_3D('',#1184,#1185,#1186);
#1188=PLANE('',#1187);
#1190=ORIENTED_EDGE('',*,*,#1189,.F.);
#1192=ORIENTED_EDGE('',*,*,#1191,.F.);
#1193=ORIENTED_EDGE('',*,*,#1173,.F.);
#1194=ORIENTED_EDGE('',*,*,#1162,.F.);
#1195=EDGE_LOOP('',(#1190,#1192,#1193,#1194));
#1196=FACE_OUTER_BOUND('',#1195,.F.);
#1198=CARTESIAN_POINT('',(2.7E0,-2.225E0,0.E0));
#1199=DIRECTION('',(1.E0,0.E0,0.E0));
#1200=DIRECTION('',(0.E0,1.E0,0.E0));
#1201=AXIS2_PLACEMENT_3D('',#1198,#1199,#1200);
#1202=PLANE('',#1201);
#1203=ORIENTED_EDGE('',*,*,#1147,.T.);
#1205=ORIENTED_EDGE('',*,*,#1204,.F.);
#1207=ORIENTED_EDGE('',*,*,#1206,.F.);
#1209=ORIENTED_EDGE('',*,*,#1208,.F.);
#1211=ORIENTED_EDGE('',*,*,#1210,.F.);
#1212=ORIENTED_EDGE('',*,*,#1189,.T.);
#1213=EDGE_LOOP('',(#1203,#1205,#1207,#1209,#1211,#1212));
#1214=FACE_OUTER_BOUND('',#1213,.F.);
#1216=CARTESIAN_POINT('',(0.E0,-1.325E0,-1.E-1));
#1217=DIRECTION('',(0.E0,7.071067811865E-1,7.071067811865E-1));
#1218=DIRECTION('',(0.E0,7.071067811865E-1,-7.071067811865E-1));
#1219=AXIS2_PLACEMENT_3D('',#1216,#1217,#1218);
#1220=PLANE('',#1219);
#1222=ORIENTED_EDGE('',*,*,#1221,.F.);
#1223=ORIENTED_EDGE('',*,*,#1204,.T.);
#1224=ORIENTED_EDGE('',*,*,#1145,.T.);
#1226=ORIENTED_EDGE('',*,*,#1225,.T.);
#1227=EDGE_LOOP('',(#1222,#1223,#1224,#1226));
#1228=FACE_OUTER_BOUND('',#1227,.F.);
#1230=CARTESIAN_POINT('',(-2.7E0,-1.225E0,-3.75E0));
#1231=DIRECTION('',(0.E0,-1.E0,0.E0));
#1232=DIRECTION('',(0.E0,0.E0,1.E0));
#1233=AXIS2_PLACEMENT_3D('',#1230,#1231,#1232);
#1234=PLANE('',#1233);
#1235=ORIENTED_EDGE('',*,*,#1221,.T.);
#1237=ORIENTED_EDGE('',*,*,#1236,.F.);
#1239=ORIENTED_EDGE('',*,*,#1238,.T.);
#1240=ORIENTED_EDGE('',*,*,#1206,.T.);
#1241=EDGE_LOOP('',(#1235,#1237,#1239,#1240));
#1242=FACE_OUTER_BOUND('',#1241,.F.);
#1244=CARTESIAN_POINT('',(-2.7E0,0.E0,0.E0));
#1245=DIRECTION('',(-1.E0,0.E0,0.E0));
#1246=DIRECTION('',(0.E0,0.E0,1.E0));
#1247=AXIS2_PLACEMENT_3D('',#1244,#1245,#1246);
#1248=PLANE('',#1247);
#1249=ORIENTED_EDGE('',*,*,#1236,.T.);
#1250=ORIENTED_EDGE('',*,*,#1225,.F.);
#1251=ORIENTED_EDGE('',*,*,#1143,.T.);
#1253=ORIENTED_EDGE('',*,*,#1252,.F.);
#1255=ORIENTED_EDGE('',*,*,#1254,.T.);
#1257=ORIENTED_EDGE('',*,*,#1256,.T.);
#1258=EDGE_LOOP('',(#1249,#1250,#1251,#1253,#1255,#1257));
#1259=FACE_OUTER_BOUND('',#1258,.F.);
#1261=CARTESIAN_POINT('',(-2.7E0,1.25E-1,0.E0));
#1262=DIRECTION('',(7.071067811865E-1,-7.071067811865E-1,0.E0));
#1263=DIRECTION('',(7.071067811865E-1,7.071067811865E-1,0.E0));
#1264=AXIS2_PLACEMENT_3D('',#1261,#1262,#1263);
#1265=PLANE('',#1264);
#1266=ORIENTED_EDGE('',*,*,#1252,.T.);
#1268=ORIENTED_EDGE('',*,*,#1267,.F.);
#1270=ORIENTED_EDGE('',*,*,#1269,.T.);
#1272=ORIENTED_EDGE('',*,*,#1271,.F.);
#1273=EDGE_LOOP('',(#1266,#1268,#1270,#1272));
#1274=FACE_OUTER_BOUND('',#1273,.F.);
#1276=CARTESIAN_POINT('',(-2.6E0,1.025E0,-1.E-1));
#1277=DIRECTION('',(7.071067811865E-1,0.E0,7.071067811865E-1));
#1278=DIRECTION('',(7.071067811865E-1,0.E0,-7.071067811865E-1));
#1279=AXIS2_PLACEMENT_3D('',#1276,#1277,#1278);
#1280=PLANE('',#1279);
#1282=ORIENTED_EDGE('',*,*,#1281,.F.);
#1283=ORIENTED_EDGE('',*,*,#1267,.T.);
#1284=ORIENTED_EDGE('',*,*,#1141,.T.);
#1286=ORIENTED_EDGE('',*,*,#1285,.F.);
#1287=EDGE_LOOP('',(#1282,#1283,#1284,#1286));
#1288=FACE_OUTER_BOUND('',#1287,.F.);
#1290=CARTESIAN_POINT('',(-2.5E0,3.25E-1,0.E0));
#1291=DIRECTION('',(1.E0,0.E0,0.E0));
#1292=DIRECTION('',(0.E0,1.E0,0.E0));
#1293=AXIS2_PLACEMENT_3D('',#1290,#1291,#1292);
#1294=PLANE('',#1293);
#1295=ORIENTED_EDGE('',*,*,#1281,.T.);
#1297=ORIENTED_EDGE('',*,*,#1296,.T.);
#1299=ORIENTED_EDGE('',*,*,#1298,.F.);
#1301=ORIENTED_EDGE('',*,*,#1300,.T.);
#1302=ORIENTED_EDGE('',*,*,#1269,.F.);
#1303=EDGE_LOOP('',(#1295,#1297,#1299,#1301,#1302));
#1304=FACE_OUTER_BOUND('',#1303,.F.);
#1306=CARTESIAN_POINT('',(-2.7E0,1.725E0,0.E0));
#1307=DIRECTION('',(0.E0,1.E0,0.E0));
#1308=DIRECTION('',(0.E0,0.E0,-1.E0));
#1309=AXIS2_PLACEMENT_3D('',#1306,#1307,#1308);
#1310=PLANE('',#1309);
#1312=ORIENTED_EDGE('',*,*,#1311,.F.);
#1314=ORIENTED_EDGE('',*,*,#1313,.T.);
#1315=ORIENTED_EDGE('',*,*,#1179,.T.);
#1317=ORIENTED_EDGE('',*,*,#1316,.F.);
#1318=EDGE_LOOP('',(#1312,#1314,#1315,#1317));
#1319=FACE_OUTER_BOUND('',#1318,.F.);
#1321=CARTESIAN_POINT('',(-2.7E0,1.725E0,0.E0));
#1322=DIRECTION('',(0.E0,1.E0,0.E0));
#1323=DIRECTION('',(0.E0,0.E0,-1.E0));
#1324=AXIS2_PLACEMENT_3D('',#1321,#1322,#1323);
#1325=PLANE('',#1324);
#1327=ORIENTED_EDGE('',*,*,#1326,.T.);
#1329=ORIENTED_EDGE('',*,*,#1328,.F.);
#1330=ORIENTED_EDGE('',*,*,#1296,.F.);
#1332=ORIENTED_EDGE('',*,*,#1331,.T.);
#1333=EDGE_LOOP('',(#1327,#1329,#1330,#1332));
#1334=FACE_OUTER_BOUND('',#1333,.F.);
#1336=CARTESIAN_POINT('',(4.E-1,1.725E0,0.E0));
#1337=DIRECTION('',(1.E0,0.E0,0.E0));
#1338=DIRECTION('',(0.E0,1.E0,0.E0));
#1339=AXIS2_PLACEMENT_3D('',#1336,#1337,#1338);
#1340=PLANE('',#1339);
#1342=ORIENTED_EDGE('',*,*,#1341,.T.);
#1344=ORIENTED_EDGE('',*,*,#1343,.F.);
#1346=ORIENTED_EDGE('',*,*,#1345,.F.);
#1347=ORIENTED_EDGE('',*,*,#1311,.T.);
#1348=EDGE_LOOP('',(#1342,#1344,#1346,#1347));
#1349=FACE_OUTER_BOUND('',#1348,.F.);
#1351=CARTESIAN_POINT('',(-2.7E0,1.725E0,-3.25E0));
#1352=DIRECTION('',(0.E0,0.E0,-1.E0));
#1353=DIRECTION('',(0.E0,-1.E0,0.E0));
#1354=AXIS2_PLACEMENT_3D('',#1351,#1352,#1353);
#1355=PLANE('',#1354);
#1356=ORIENTED_EDGE('',*,*,#1328,.T.);
#1358=ORIENTED_EDGE('',*,*,#1357,.F.);
#1360=ORIENTED_EDGE('',*,*,#1359,.F.);
#1361=ORIENTED_EDGE('',*,*,#1341,.F.);
#1362=ORIENTED_EDGE('',*,*,#1316,.T.);
#1363=ORIENTED_EDGE('',*,*,#1177,.F.);
#1365=ORIENTED_EDGE('',*,*,#1364,.F.);
#1366=ORIENTED_EDGE('',*,*,#1298,.T.);
#1367=EDGE_LOOP('',(#1356,#1358,#1360,#1361,#1362,#1363,#1365,#1366));
#1368=FACE_OUTER_BOUND('',#1367,.F.);
#1370=ORIENTED_EDGE('',*,*,#1369,.F.);
#1372=ORIENTED_EDGE('',*,*,#1371,.T.);
#1374=ORIENTED_EDGE('',*,*,#1373,.T.);
#1376=ORIENTED_EDGE('',*,*,#1375,.T.);
#1377=EDGE_LOOP('',(#1370,#1372,#1374,#1376));
#1378=FACE_BOUND('',#1377,.F.);
#1380=ORIENTED_EDGE('',*,*,#1379,.T.);
#1382=ORIENTED_EDGE('',*,*,#1381,.T.);
#1384=ORIENTED_EDGE('',*,*,#1383,.T.);
#1386=ORIENTED_EDGE('',*,*,#1385,.T.);
#1387=EDGE_LOOP('',(#1380,#1382,#1384,#1386));
#1388=FACE_BOUND('',#1387,.F.);
#1390=ORIENTED_EDGE('',*,*,#1389,.T.);
#1392=ORIENTED_EDGE('',*,*,#1391,.T.);
#1394=ORIENTED_EDGE('',*,*,#1393,.T.);
#1396=ORIENTED_EDGE('',*,*,#1395,.T.);
#1397=EDGE_LOOP('',(#1390,#1392,#1394,#1396));
#1398=FACE_BOUND('',#1397,.F.);
#1400=CARTESIAN_POINT('',(-4.E-1,1.825E0,0.E0));
#1401=DIRECTION('',(-1.E0,0.E0,0.E0));
#1402=DIRECTION('',(0.E0,-1.E0,0.E0));
#1403=AXIS2_PLACEMENT_3D('',#1400,#1401,#1402);
#1404=PLANE('',#1403);
#1405=ORIENTED_EDGE('',*,*,#1357,.T.);
#1406=ORIENTED_EDGE('',*,*,#1326,.F.);
#1408=ORIENTED_EDGE('',*,*,#1407,.T.);
#1410=ORIENTED_EDGE('',*,*,#1409,.T.);
#1411=EDGE_LOOP('',(#1405,#1406,#1408,#1410));
#1412=FACE_OUTER_BOUND('',#1411,.F.);
#1414=CARTESIAN_POINT('',(0.E0,1.825E0,-1.E-1));
#1415=DIRECTION('',(0.E0,-7.071067811865E-1,7.071067811865E-1));
#1416=DIRECTION('',(0.E0,-7.071067811865E-1,-7.071067811865E-1));
#1417=AXIS2_PLACEMENT_3D('',#1414,#1415,#1416);
#1418=PLANE('',#1417);
#1419=ORIENTED_EDGE('',*,*,#1345,.T.);
#1421=ORIENTED_EDGE('',*,*,#1420,.T.);
#1422=ORIENTED_EDGE('',*,*,#1407,.F.);
#1423=ORIENTED_EDGE('',*,*,#1331,.F.);
#1424=ORIENTED_EDGE('',*,*,#1285,.T.);
#1425=ORIENTED_EDGE('',*,*,#1139,.T.);
#1426=ORIENTED_EDGE('',*,*,#1159,.F.);
#1427=ORIENTED_EDGE('',*,*,#1313,.F.);
#1428=EDGE_LOOP('',(#1419,#1421,#1422,#1423,#1424,#1425,#1426,#1427));
#1429=FACE_OUTER_BOUND('',#1428,.F.);
#1431=CARTESIAN_POINT('',(4.E-1,1.825E0,0.E0));
#1432=DIRECTION('',(0.E0,1.E0,0.E0));
#1433=DIRECTION('',(-1.E0,0.E0,0.E0));
#1434=AXIS2_PLACEMENT_3D('',#1431,#1432,#1433);
#1435=PLANE('',#1434);
#1436=ORIENTED_EDGE('',*,*,#1343,.T.);
#1437=ORIENTED_EDGE('',*,*,#1359,.T.);
#1438=ORIENTED_EDGE('',*,*,#1409,.F.);
#1439=ORIENTED_EDGE('',*,*,#1420,.F.);
#1440=EDGE_LOOP('',(#1436,#1437,#1438,#1439));
#1441=FACE_OUTER_BOUND('',#1440,.F.);
#1443=CARTESIAN_POINT('',(-2.7E0,4.25E-1,-3.25E0));
#1444=DIRECTION('',(0.E0,7.071067811865E-1,-7.071067811865E-1));
#1445=DIRECTION('',(0.E0,-7.071067811865E-1,-7.071067811865E-1));
#1446=AXIS2_PLACEMENT_3D('',#1443,#1444,#1445);
#1447=PLANE('',#1446);
#1448=ORIENTED_EDGE('',*,*,#1271,.T.);
#1449=ORIENTED_EDGE('',*,*,#1300,.F.);
#1450=ORIENTED_EDGE('',*,*,#1364,.T.);
#1451=ORIENTED_EDGE('',*,*,#1175,.T.);
#1452=ORIENTED_EDGE('',*,*,#1191,.T.);
#1453=ORIENTED_EDGE('',*,*,#1210,.T.);
#1455=ORIENTED_EDGE('',*,*,#1454,.F.);
#1456=ORIENTED_EDGE('',*,*,#1254,.F.);
#1457=EDGE_LOOP('',(#1448,#1449,#1450,#1451,#1452,#1453,#1455,#1456));
#1458=FACE_OUTER_BOUND('',#1457,.F.);
#1460=CARTESIAN_POINT('',(-2.7E0,-7.5E-2,-3.75E0));
#1461=DIRECTION('',(0.E0,0.E0,-1.E0));
#1462=DIRECTION('',(0.E0,-1.E0,0.E0));
#1463=AXIS2_PLACEMENT_3D('',#1460,#1461,#1462);
#1464=PLANE('',#1463);
#1465=ORIENTED_EDGE('',*,*,#1256,.F.);
#1466=ORIENTED_EDGE('',*,*,#1454,.T.);
#1467=ORIENTED_EDGE('',*,*,#1208,.T.);
#1468=ORIENTED_EDGE('',*,*,#1238,.F.);
#1469=EDGE_LOOP('',(#1465,#1466,#1467,#1468));
#1470=FACE_OUTER_BOUND('',#1469,.F.);
#1472=CARTESIAN_POINT('',(-1.7E0,9.25E-1,-3.25E0));
#1473=DIRECTION('',(-1.E0,0.E0,0.E0));
#1474=DIRECTION('',(0.E0,-1.E0,0.E0));
#1475=AXIS2_PLACEMENT_3D('',#1472,#1473,#1474);
#1476=PLANE('',#1475);
#1477=ORIENTED_EDGE('',*,*,#1369,.T.);
#1479=ORIENTED_EDGE('',*,*,#1478,.T.);
#1481=ORIENTED_EDGE('',*,*,#1480,.T.);
#1483=ORIENTED_EDGE('',*,*,#1482,.F.);
#1484=EDGE_LOOP('',(#1477,#1479,#1481,#1483));
#1485=FACE_OUTER_BOUND('',#1484,.F.);
#1487=CARTESIAN_POINT('',(-1.3E0,9.25E-1,-3.25E0));
#1488=DIRECTION('',(0.E0,1.E0,0.E0));
#1489=DIRECTION('',(-1.E0,0.E0,0.E0));
#1490=AXIS2_PLACEMENT_3D('',#1487,#1488,#1489);
#1491=PLANE('',#1490);
#1492=ORIENTED_EDGE('',*,*,#1375,.F.);
#1494=ORIENTED_EDGE('',*,*,#1493,.T.);
#1496=ORIENTED_EDGE('',*,*,#1495,.T.);
#1497=ORIENTED_EDGE('',*,*,#1478,.F.);
#1498=EDGE_LOOP('',(#1492,#1494,#1496,#1497));
#1499=FACE_OUTER_BOUND('',#1498,.F.);
#1501=CARTESIAN_POINT('',(-1.3E0,5.25E-1,-3.25E0));
#1502=DIRECTION('',(1.E0,0.E0,0.E0));
#1503=DIRECTION('',(0.E0,1.E0,0.E0));
#1504=AXIS2_PLACEMENT_3D('',#1501,#1502,#1503);
#1505=PLANE('',#1504);
#1506=ORIENTED_EDGE('',*,*,#1373,.F.);
#1508=ORIENTED_EDGE('',*,*,#1507,.T.);
#1510=ORIENTED_EDGE('',*,*,#1509,.T.);
#1511=ORIENTED_EDGE('',*,*,#1493,.F.);
#1512=EDGE_LOOP('',(#1506,#1508,#1510,#1511));
#1513=FACE_OUTER_BOUND('',#1512,.F.);
#1515=CARTESIAN_POINT('',(-1.7E0,5.25E-1,-3.25E0));
#1516=DIRECTION('',(0.E0,-1.E0,0.E0));
#1517=DIRECTION('',(1.E0,0.E0,0.E0));
#1518=AXIS2_PLACEMENT_3D('',#1515,#1516,#1517);
#1519=PLANE('',#1518);
#1520=ORIENTED_EDGE('',*,*,#1371,.F.);
#1521=ORIENTED_EDGE('',*,*,#1482,.T.);
#1523=ORIENTED_EDGE('',*,*,#1522,.T.);
#1524=ORIENTED_EDGE('',*,*,#1507,.F.);
#1525=EDGE_LOOP('',(#1520,#1521,#1523,#1524));
#1526=FACE_OUTER_BOUND('',#1525,.F.);
#1528=CARTESIAN_POINT('',(-2.7E0,0.E0,-5.5E-1));
#1529=DIRECTION('',(0.E0,0.E0,1.E0));
#1530=DIRECTION('',(1.E0,0.E0,0.E0));
#1531=AXIS2_PLACEMENT_3D('',#1528,#1529,#1530);
#1532=PLANE('',#1531);
#1533=ORIENTED_EDGE('',*,*,#1480,.F.);
#1534=ORIENTED_EDGE('',*,*,#1495,.F.);
#1535=ORIENTED_EDGE('',*,*,#1509,.F.);
#1536=ORIENTED_EDGE('',*,*,#1522,.F.);
#1537=EDGE_LOOP('',(#1533,#1534,#1535,#1536));
#1538=FACE_OUTER_BOUND('',#1537,.F.);
#1540=CARTESIAN_POINT('',(-2.E-1,9.25E-1,-3.25E0));
#1541=DIRECTION('',(-1.E0,0.E0,0.E0));
#1542=DIRECTION('',(0.E0,-1.E0,0.E0));
#1543=AXIS2_PLACEMENT_3D('',#1540,#1541,#1542);
#1544=PLANE('',#1543);
#1546=ORIENTED_EDGE('',*,*,#1545,.T.);
#1548=ORIENTED_EDGE('',*,*,#1547,.T.);
#1550=ORIENTED_EDGE('',*,*,#1549,.F.);
#1551=ORIENTED_EDGE('',*,*,#1379,.F.);
#1552=EDGE_LOOP('',(#1546,#1548,#1550,#1551));
#1553=FACE_OUTER_BOUND('',#1552,.F.);
#1555=CARTESIAN_POINT('',(2.E-1,9.25E-1,-3.25E0));
#1556=DIRECTION('',(0.E0,1.E0,0.E0));
#1557=DIRECTION('',(-1.E0,0.E0,0.E0));
#1558=AXIS2_PLACEMENT_3D('',#1555,#1556,#1557);
#1559=PLANE('',#1558);
#1560=ORIENTED_EDGE('',*,*,#1545,.F.);
#1561=ORIENTED_EDGE('',*,*,#1385,.F.);
#1563=ORIENTED_EDGE('',*,*,#1562,.T.);
#1565=ORIENTED_EDGE('',*,*,#1564,.T.);
#1566=EDGE_LOOP('',(#1560,#1561,#1563,#1565));
#1567=FACE_OUTER_BOUND('',#1566,.F.);
#1569=CARTESIAN_POINT('',(2.E-1,5.25E-1,-3.25E0));
#1570=DIRECTION('',(1.E0,0.E0,0.E0));
#1571=DIRECTION('',(0.E0,1.E0,0.E0));
#1572=AXIS2_PLACEMENT_3D('',#1569,#1570,#1571);
#1573=PLANE('',#1572);
#1574=ORIENTED_EDGE('',*,*,#1562,.F.);
#1575=ORIENTED_EDGE('',*,*,#1383,.F.);
#1577=ORIENTED_EDGE('',*,*,#1576,.T.);
#1579=ORIENTED_EDGE('',*,*,#1578,.T.);
#1580=EDGE_LOOP('',(#1574,#1575,#1577,#1579));
#1581=FACE_OUTER_BOUND('',#1580,.F.);
#1583=CARTESIAN_POINT('',(-2.E-1,5.25E-1,-3.25E0));
#1584=DIRECTION('',(0.E0,-1.E0,0.E0));
#1585=DIRECTION('',(1.E0,0.E0,0.E0));
#1586=AXIS2_PLACEMENT_3D('',#1583,#1584,#1585);
#1587=PLANE('',#1586);
#1588=ORIENTED_EDGE('',*,*,#1549,.T.);
#1590=ORIENTED_EDGE('',*,*,#1589,.T.);
#1591=ORIENTED_EDGE('',*,*,#1576,.F.);
#1592=ORIENTED_EDGE('',*,*,#1381,.F.);
#1593=EDGE_LOOP('',(#1588,#1590,#1591,#1592));
#1594=FACE_OUTER_BOUND('',#1593,.F.);
#1596=CARTESIAN_POINT('',(-1.2E0,0.E0,-5.5E-1));
#1597=DIRECTION('',(0.E0,0.E0,1.E0));
#1598=DIRECTION('',(1.E0,0.E0,0.E0));
#1599=AXIS2_PLACEMENT_3D('',#1596,#1597,#1598);
#1600=PLANE('',#1599);
#1601=ORIENTED_EDGE('',*,*,#1547,.F.);
#1602=ORIENTED_EDGE('',*,*,#1564,.F.);
#1603=ORIENTED_EDGE('',*,*,#1578,.F.);
#1604=ORIENTED_EDGE('',*,*,#1589,.F.);
#1605=EDGE_LOOP('',(#1601,#1602,#1603,#1604));
#1606=FACE_OUTER_BOUND('',#1605,.F.);
#1608=CARTESIAN_POINT('',(1.3E0,9.25E-1,-3.25E0));
#1609=DIRECTION('',(-1.E0,0.E0,0.E0));
#1610=DIRECTION('',(0.E0,-1.E0,0.E0));
#1611=AXIS2_PLACEMENT_3D('',#1608,#1609,#1610);
#1612=PLANE('',#1611);
#1614=ORIENTED_EDGE('',*,*,#1613,.T.);
#1616=ORIENTED_EDGE('',*,*,#1615,.T.);
#1618=ORIENTED_EDGE('',*,*,#1617,.F.);
#1619=ORIENTED_EDGE('',*,*,#1389,.F.);
#1620=EDGE_LOOP('',(#1614,#1616,#1618,#1619));
#1621=FACE_OUTER_BOUND('',#1620,.F.);
#1623=CARTESIAN_POINT('',(1.7E0,9.25E-1,-3.25E0));
#1624=DIRECTION('',(0.E0,1.E0,0.E0));
#1625=DIRECTION('',(-1.E0,0.E0,0.E0));
#1626=AXIS2_PLACEMENT_3D('',#1623,#1624,#1625);
#1627=PLANE('',#1626);
#1628=ORIENTED_EDGE('',*,*,#1613,.F.);
#1629=ORIENTED_EDGE('',*,*,#1395,.F.);
#1631=ORIENTED_EDGE('',*,*,#1630,.T.);
#1633=ORIENTED_EDGE('',*,*,#1632,.T.);
#1634=EDGE_LOOP('',(#1628,#1629,#1631,#1633));
#1635=FACE_OUTER_BOUND('',#1634,.F.);
#1637=CARTESIAN_POINT('',(1.7E0,5.25E-1,-3.25E0));
#1638=DIRECTION('',(1.E0,0.E0,0.E0));
#1639=DIRECTION('',(0.E0,1.E0,0.E0));
#1640=AXIS2_PLACEMENT_3D('',#1637,#1638,#1639);
#1641=PLANE('',#1640);
#1642=ORIENTED_EDGE('',*,*,#1630,.F.);
#1643=ORIENTED_EDGE('',*,*,#1393,.F.);
#1645=ORIENTED_EDGE('',*,*,#1644,.T.);
#1647=ORIENTED_EDGE('',*,*,#1646,.T.);
#1648=EDGE_LOOP('',(#1642,#1643,#1645,#1647));
#1649=FACE_OUTER_BOUND('',#1648,.F.);
#1651=CARTESIAN_POINT('',(1.3E0,5.25E-1,-3.25E0));
#1652=DIRECTION('',(0.E0,-1.E0,0.E0));
#1653=DIRECTION('',(1.E0,0.E0,0.E0));
#1654=AXIS2_PLACEMENT_3D('',#1651,#1652,#1653);
#1655=PLANE('',#1654);
#1656=ORIENTED_EDGE('',*,*,#1617,.T.);
#1658=ORIENTED_EDGE('',*,*,#1657,.T.);
#1659=ORIENTED_EDGE('',*,*,#1644,.F.);
#1660=ORIENTED_EDGE('',*,*,#1391,.F.);
#1661=EDGE_LOOP('',(#1656,#1658,#1659,#1660));
#1662=FACE_OUTER_BOUND('',#1661,.F.);
#1664=CARTESIAN_POINT('',(3.E-1,0.E0,-5.5E-1));
#1665=DIRECTION('',(0.E0,0.E0,1.E0));
#1666=DIRECTION('',(1.E0,0.E0,0.E0));
#1667=AXIS2_PLACEMENT_3D('',#1664,#1665,#1666);
#1668=PLANE('',#1667);
#1669=ORIENTED_EDGE('',*,*,#1615,.F.);
#1670=ORIENTED_EDGE('',*,*,#1632,.F.);
#1671=ORIENTED_EDGE('',*,*,#1646,.F.);
#1672=ORIENTED_EDGE('',*,*,#1657,.F.);
#1673=EDGE_LOOP('',(#1669,#1670,#1671,#1672));
#1674=FACE_OUTER_BOUND('',#1673,.F.);
#1676=CARTESIAN_POINT('',(2.E0,-2.225E0,0.E0));
#1677=DIRECTION('',(1.E0,0.E0,0.E0));
#1678=DIRECTION('',(0.E0,1.E0,0.E0));
#1679=AXIS2_PLACEMENT_3D('',#1676,#1677,#1678);
#1680=PLANE('',#1679);
#1682=ORIENTED_EDGE('',*,*,#1681,.T.);
#1684=ORIENTED_EDGE('',*,*,#1683,.F.);
#1685=ORIENTED_EDGE('',*,*,#1103,.F.);
#1687=ORIENTED_EDGE('',*,*,#1686,.T.);
#1688=EDGE_LOOP('',(#1682,#1684,#1685,#1687));
#1689=FACE_OUTER_BOUND('',#1688,.F.);
#1691=CARTESIAN_POINT('',(3.E0,0.E0,-2.15E0));
#1692=DIRECTION('',(0.E0,0.E0,1.E0));
#1693=DIRECTION('',(1.E0,0.E0,0.E0));
#1694=AXIS2_PLACEMENT_3D('',#1691,#1692,#1693);
#1695=PLANE('',#1694);
#1697=ORIENTED_EDGE('',*,*,#1696,.T.);
#1699=ORIENTED_EDGE('',*,*,#1698,.T.);
#1701=ORIENTED_EDGE('',*,*,#1700,.F.);
#1703=ORIENTED_EDGE('',*,*,#1702,.F.);
#1705=ORIENTED_EDGE('',*,*,#1704,.F.);
#1707=ORIENTED_EDGE('',*,*,#1706,.F.);
#1708=ORIENTED_EDGE('',*,*,#1681,.F.);
#1710=ORIENTED_EDGE('',*,*,#1709,.F.);
#1711=EDGE_LOOP('',(#1697,#1699,#1701,#1703,#1705,#1707,#1708,#1710));
#1712=FACE_OUTER_BOUND('',#1711,.F.);
#1714=CARTESIAN_POINT('',(1.7E0,0.E0,0.E0));
#1715=DIRECTION('',(-1.E0,0.E0,0.E0));
#1716=DIRECTION('',(0.E0,0.E0,1.E0));
#1717=AXIS2_PLACEMENT_3D('',#1714,#1715,#1716);
#1718=PLANE('',#1717);
#1720=ORIENTED_EDGE('',*,*,#1719,.T.);
#1722=ORIENTED_EDGE('',*,*,#1721,.T.);
#1724=ORIENTED_EDGE('',*,*,#1723,.F.);
#1726=ORIENTED_EDGE('',*,*,#1725,.T.);
#1728=ORIENTED_EDGE('',*,*,#1727,.T.);
#1729=ORIENTED_EDGE('',*,*,#1696,.F.);
#1731=ORIENTED_EDGE('',*,*,#1730,.F.);
#1733=ORIENTED_EDGE('',*,*,#1732,.T.);
#1734=EDGE_LOOP('',(#1720,#1722,#1724,#1726,#1728,#1729,#1731,#1733));
#1735=FACE_OUTER_BOUND('',#1734,.F.);
#1737=CARTESIAN_POINT('',(1.7E0,-1.715E0,-5.E0));
#1738=DIRECTION('',(0.E0,1.E0,0.E0));
#1739=DIRECTION('',(0.E0,0.E0,-1.E0));
#1740=AXIS2_PLACEMENT_3D('',#1737,#1738,#1739);
#1741=PLANE('',#1740);
#1742=ORIENTED_EDGE('',*,*,#1719,.F.);
#1744=ORIENTED_EDGE('',*,*,#1743,.T.);
#1746=ORIENTED_EDGE('',*,*,#1745,.T.);
#1748=ORIENTED_EDGE('',*,*,#1747,.F.);
#1749=EDGE_LOOP('',(#1742,#1744,#1746,#1748));
#1750=FACE_OUTER_BOUND('',#1749,.F.);
#1752=CARTESIAN_POINT('',(0.E0,0.E0,-5.E0));
#1753=DIRECTION('',(0.E0,0.E0,1.E0));
#1754=DIRECTION('',(1.E0,0.E0,0.E0));
#1755=AXIS2_PLACEMENT_3D('',#1752,#1753,#1754);
#1756=PLANE('',#1755);
#1757=ORIENTED_EDGE('',*,*,#1732,.F.);
#1759=ORIENTED_EDGE('',*,*,#1758,.T.);
#1761=ORIENTED_EDGE('',*,*,#1760,.T.);
#1763=ORIENTED_EDGE('',*,*,#1762,.T.);
#1765=ORIENTED_EDGE('',*,*,#1764,.T.);
#1767=ORIENTED_EDGE('',*,*,#1766,.T.);
#1769=ORIENTED_EDGE('',*,*,#1768,.T.);
#1771=ORIENTED_EDGE('',*,*,#1770,.F.);
#1773=ORIENTED_EDGE('',*,*,#1772,.F.);
#1775=ORIENTED_EDGE('',*,*,#1774,.T.);
#1777=ORIENTED_EDGE('',*,*,#1776,.T.);
#1779=ORIENTED_EDGE('',*,*,#1778,.F.);
#1781=ORIENTED_EDGE('',*,*,#1780,.F.);
#1783=ORIENTED_EDGE('',*,*,#1782,.T.);
#1785=ORIENTED_EDGE('',*,*,#1784,.T.);
#1786=ORIENTED_EDGE('',*,*,#1743,.F.);
#1787=EDGE_LOOP('',(#1757,#1759,#1761,#1763,#1765,#1767,#1769,#1771,#1773,#1775,
#1777,#1779,#1781,#1783,#1785,#1786));
#1788=FACE_OUTER_BOUND('',#1787,.F.);
#1790=CARTESIAN_POINT('',(-3.E0,-2.225E0,0.E0));
#1791=DIRECTION('',(0.E0,-1.E0,0.E0));
#1792=DIRECTION('',(1.E0,0.E0,0.E0));
#1793=AXIS2_PLACEMENT_3D('',#1790,#1791,#1792);
#1794=PLANE('',#1793);
#1795=ORIENTED_EDGE('',*,*,#1766,.F.);
#1797=ORIENTED_EDGE('',*,*,#1796,.F.);
#1798=ORIENTED_EDGE('',*,*,#1125,.T.);
#1800=ORIENTED_EDGE('',*,*,#1799,.T.);
#1802=ORIENTED_EDGE('',*,*,#1801,.T.);
#1804=ORIENTED_EDGE('',*,*,#1803,.F.);
#1805=EDGE_LOOP('',(#1795,#1797,#1798,#1800,#1802,#1804));
#1806=FACE_OUTER_BOUND('',#1805,.F.);
#1808=CARTESIAN_POINT('',(-3.E0,-2.225E0,0.E0));
#1809=DIRECTION('',(0.E0,-1.E0,0.E0));
#1810=DIRECTION('',(1.E0,0.E0,0.E0));
#1811=AXIS2_PLACEMENT_3D('',#1808,#1809,#1810);
#1812=PLANE('',#1811);
#1813=ORIENTED_EDGE('',*,*,#1774,.F.);
#1815=ORIENTED_EDGE('',*,*,#1814,.T.);
#1817=ORIENTED_EDGE('',*,*,#1816,.T.);
#1819=ORIENTED_EDGE('',*,*,#1818,.F.);
#1820=ORIENTED_EDGE('',*,*,#1117,.T.);
#1822=ORIENTED_EDGE('',*,*,#1821,.T.);
#1824=ORIENTED_EDGE('',*,*,#1823,.T.);
#1826=ORIENTED_EDGE('',*,*,#1825,.F.);
#1827=EDGE_LOOP('',(#1813,#1815,#1817,#1819,#1820,#1822,#1824,#1826));
#1828=FACE_OUTER_BOUND('',#1827,.F.);
#1830=CARTESIAN_POINT('',(-3.E0,-2.225E0,0.E0));
#1831=DIRECTION('',(0.E0,-1.E0,0.E0));
#1832=DIRECTION('',(1.E0,0.E0,0.E0));
#1833=AXIS2_PLACEMENT_3D('',#1830,#1831,#1832);
#1834=PLANE('',#1833);
#1835=ORIENTED_EDGE('',*,*,#1782,.F.);
#1837=ORIENTED_EDGE('',*,*,#1836,.T.);
#1839=ORIENTED_EDGE('',*,*,#1838,.T.);
#1841=ORIENTED_EDGE('',*,*,#1840,.F.);
#1842=ORIENTED_EDGE('',*,*,#1109,.T.);
#1844=ORIENTED_EDGE('',*,*,#1843,.T.);
#1845=ORIENTED_EDGE('',*,*,#1702,.T.);
#1847=ORIENTED_EDGE('',*,*,#1846,.F.);
#1848=EDGE_LOOP('',(#1835,#1837,#1839,#1841,#1842,#1844,#1845,#1847));
#1849=FACE_OUTER_BOUND('',#1848,.F.);
#1851=CARTESIAN_POINT('',(-3.E0,-2.225E0,0.E0));
#1852=DIRECTION('',(0.E0,-1.E0,0.E0));
#1853=DIRECTION('',(1.E0,0.E0,0.E0));
#1854=AXIS2_PLACEMENT_3D('',#1851,#1852,#1853);
#1855=PLANE('',#1854);
#1856=ORIENTED_EDGE('',*,*,#1758,.F.);
#1857=ORIENTED_EDGE('',*,*,#1730,.T.);
#1858=ORIENTED_EDGE('',*,*,#1709,.T.);
#1859=ORIENTED_EDGE('',*,*,#1686,.F.);
#1860=ORIENTED_EDGE('',*,*,#1133,.T.);
#1862=ORIENTED_EDGE('',*,*,#1861,.T.);
#1863=EDGE_LOOP('',(#1856,#1857,#1858,#1859,#1860,#1862));
#1864=FACE_OUTER_BOUND('',#1863,.F.);
#1866=CARTESIAN_POINT('',(-3.E0,2.225E0,0.E0));
#1867=DIRECTION('',(-1.E0,0.E0,0.E0));
#1868=DIRECTION('',(0.E0,-1.E0,0.E0));
#1869=AXIS2_PLACEMENT_3D('',#1866,#1867,#1868);
#1870=PLANE('',#1869);
#1871=ORIENTED_EDGE('',*,*,#1127,.T.);
#1872=ORIENTED_EDGE('',*,*,#1796,.T.);
#1873=ORIENTED_EDGE('',*,*,#1764,.F.);
#1875=ORIENTED_EDGE('',*,*,#1874,.F.);
#1876=EDGE_LOOP('',(#1871,#1872,#1873,#1875));
#1877=FACE_OUTER_BOUND('',#1876,.F.);
#1879=CARTESIAN_POINT('',(3.E0,2.225E0,0.E0));
#1880=DIRECTION('',(0.E0,1.E0,0.E0));
#1881=DIRECTION('',(-1.E0,0.E0,0.E0));
#1882=AXIS2_PLACEMENT_3D('',#1879,#1880,#1881);
#1883=PLANE('',#1882);
#1884=ORIENTED_EDGE('',*,*,#1129,.T.);
#1885=ORIENTED_EDGE('',*,*,#1874,.T.);
#1886=ORIENTED_EDGE('',*,*,#1762,.F.);
#1888=ORIENTED_EDGE('',*,*,#1887,.F.);
#1889=EDGE_LOOP('',(#1884,#1885,#1886,#1888));
#1890=FACE_OUTER_BOUND('',#1889,.F.);
#1892=CARTESIAN_POINT('',(3.E0,-2.225E0,0.E0));
#1893=DIRECTION('',(1.E0,0.E0,0.E0));
#1894=DIRECTION('',(0.E0,1.E0,0.E0));
#1895=AXIS2_PLACEMENT_3D('',#1892,#1893,#1894);
#1896=PLANE('',#1895);
#1897=ORIENTED_EDGE('',*,*,#1131,.T.);
#1898=ORIENTED_EDGE('',*,*,#1887,.T.);
#1899=ORIENTED_EDGE('',*,*,#1760,.F.);
#1900=ORIENTED_EDGE('',*,*,#1861,.F.);
#1901=EDGE_LOOP('',(#1897,#1898,#1899,#1900));
#1902=FACE_OUTER_BOUND('',#1901,.F.);
#1904=CARTESIAN_POINT('',(-2.E0,-1.525E0,0.E0));
#1905=DIRECTION('',(-1.E0,0.E0,0.E0));
#1906=DIRECTION('',(0.E0,-1.E0,0.E0));
#1907=AXIS2_PLACEMENT_3D('',#1904,#1905,#1906);
#1908=PLANE('',#1907);
#1909=ORIENTED_EDGE('',*,*,#1123,.T.);
#1911=ORIENTED_EDGE('',*,*,#1910,.T.);
#1913=ORIENTED_EDGE('',*,*,#1912,.T.);
#1914=ORIENTED_EDGE('',*,*,#1799,.F.);
#1915=EDGE_LOOP('',(#1909,#1911,#1913,#1914));
#1916=FACE_OUTER_BOUND('',#1915,.F.);
#1918=CARTESIAN_POINT('',(-1.E0,-1.525E0,0.E0));
#1919=DIRECTION('',(0.E0,1.E0,0.E0));
#1920=DIRECTION('',(-1.E0,0.E0,0.E0));
#1921=AXIS2_PLACEMENT_3D('',#1918,#1919,#1920);
#1922=PLANE('',#1921);
#1923=ORIENTED_EDGE('',*,*,#1121,.F.);
#1925=ORIENTED_EDGE('',*,*,#1924,.T.);
#1927=ORIENTED_EDGE('',*,*,#1926,.T.);
#1928=ORIENTED_EDGE('',*,*,#1910,.F.);
#1929=EDGE_LOOP('',(#1923,#1925,#1927,#1928));
#1930=FACE_OUTER_BOUND('',#1929,.F.);
#1932=CARTESIAN_POINT('',(-1.E0,-2.225E0,0.E0));
#1933=DIRECTION('',(1.E0,0.E0,0.E0));
#1934=DIRECTION('',(0.E0,1.E0,0.E0));
#1935=AXIS2_PLACEMENT_3D('',#1932,#1933,#1934);
#1936=PLANE('',#1935);
#1937=ORIENTED_EDGE('',*,*,#1119,.F.);
#1938=ORIENTED_EDGE('',*,*,#1818,.T.);
#1940=ORIENTED_EDGE('',*,*,#1939,.T.);
#1941=ORIENTED_EDGE('',*,*,#1924,.F.);
#1942=EDGE_LOOP('',(#1937,#1938,#1940,#1941));
#1943=FACE_OUTER_BOUND('',#1942,.F.);
#1945=CARTESIAN_POINT('',(0.E0,0.E0,-2.15E0));
#1946=DIRECTION('',(0.E0,0.E0,1.E0));
#1947=DIRECTION('',(1.E0,0.E0,0.E0));
#1948=AXIS2_PLACEMENT_3D('',#1945,#1946,#1947);
#1949=PLANE('',#1948);
#1951=ORIENTED_EDGE('',*,*,#1950,.T.);
#1953=ORIENTED_EDGE('',*,*,#1952,.T.);
#1955=ORIENTED_EDGE('',*,*,#1954,.F.);
#1956=ORIENTED_EDGE('',*,*,#1801,.F.);
#1957=ORIENTED_EDGE('',*,*,#1912,.F.);
#1958=ORIENTED_EDGE('',*,*,#1926,.F.);
#1959=ORIENTED_EDGE('',*,*,#1939,.F.);
#1960=ORIENTED_EDGE('',*,*,#1816,.F.);
#1961=EDGE_LOOP('',(#1951,#1953,#1955,#1956,#1957,#1958,#1959,#1960));
#1962=FACE_OUTER_BOUND('',#1961,.F.);
#1964=CARTESIAN_POINT('',(-1.3E0,0.E0,0.E0));
#1965=DIRECTION('',(-1.E0,0.E0,0.E0));
#1966=DIRECTION('',(0.E0,0.E0,1.E0));
#1967=AXIS2_PLACEMENT_3D('',#1964,#1965,#1966);
#1968=PLANE('',#1967);
#1969=ORIENTED_EDGE('',*,*,#1772,.T.);
#1971=ORIENTED_EDGE('',*,*,#1970,.T.);
#1973=ORIENTED_EDGE('',*,*,#1972,.T.);
#1975=ORIENTED_EDGE('',*,*,#1974,.F.);
#1977=ORIENTED_EDGE('',*,*,#1976,.T.);
#1979=ORIENTED_EDGE('',*,*,#1978,.T.);
#1980=ORIENTED_EDGE('',*,*,#1950,.F.);
#1981=ORIENTED_EDGE('',*,*,#1814,.F.);
#1982=EDGE_LOOP('',(#1969,#1971,#1973,#1975,#1977,#1979,#1980,#1981));
#1983=FACE_OUTER_BOUND('',#1982,.F.);
#1985=CARTESIAN_POINT('',(-1.3E0,-1.715E0,-5.E0));
#1986=DIRECTION('',(0.E0,1.E0,0.E0));
#1987=DIRECTION('',(0.E0,0.E0,-1.E0));
#1988=AXIS2_PLACEMENT_3D('',#1985,#1986,#1987);
#1989=PLANE('',#1988);
#1990=ORIENTED_EDGE('',*,*,#1770,.T.);
#1992=ORIENTED_EDGE('',*,*,#1991,.T.);
#1994=ORIENTED_EDGE('',*,*,#1993,.F.);
#1995=ORIENTED_EDGE('',*,*,#1970,.F.);
#1996=EDGE_LOOP('',(#1990,#1992,#1994,#1995));
#1997=FACE_OUTER_BOUND('',#1996,.F.);
#1999=CARTESIAN_POINT('',(-1.7E0,0.E0,0.E0));
#2000=DIRECTION('',(-1.E0,0.E0,0.E0));
#2001=DIRECTION('',(0.E0,0.E0,1.E0));
#2002=AXIS2_PLACEMENT_3D('',#1999,#2000,#2001);
#2003=PLANE('',#2002);
#2004=ORIENTED_EDGE('',*,*,#1768,.F.);
#2005=ORIENTED_EDGE('',*,*,#1803,.T.);
#2006=ORIENTED_EDGE('',*,*,#1954,.T.);
#2008=ORIENTED_EDGE('',*,*,#2007,.F.);
#2010=ORIENTED_EDGE('',*,*,#2009,.F.);
#2012=ORIENTED_EDGE('',*,*,#2011,.F.);
#2014=ORIENTED_EDGE('',*,*,#2013,.F.);
#2015=ORIENTED_EDGE('',*,*,#1991,.F.);
#2016=EDGE_LOOP('',(#2004,#2005,#2006,#2008,#2010,#2012,#2014,#2015));
#2017=FACE_OUTER_BOUND('',#2016,.F.);
#2019=CARTESIAN_POINT('',(-1.3E0,-1.875E0,-1.E0));
#2020=DIRECTION('',(0.E0,1.E0,0.E0));
#2021=DIRECTION('',(0.E0,0.E0,-1.E0));
#2022=AXIS2_PLACEMENT_3D('',#2019,#2020,#2021);
#2023=PLANE('',#2022);
#2024=ORIENTED_EDGE('',*,*,#1952,.F.);
#2025=ORIENTED_EDGE('',*,*,#1978,.F.);
#2027=ORIENTED_EDGE('',*,*,#2026,.T.);
#2028=ORIENTED_EDGE('',*,*,#2007,.T.);
#2029=EDGE_LOOP('',(#2024,#2025,#2027,#2028));
#2030=FACE_OUTER_BOUND('',#2029,.F.);
#2032=CARTESIAN_POINT('',(-1.3E0,-2.275E0,-1.E0));
#2033=DIRECTION('',(0.E0,0.E0,1.E0));
#2034=DIRECTION('',(0.E0,1.E0,0.E0));
#2035=AXIS2_PLACEMENT_3D('',#2032,#2033,#2034);
#2036=PLANE('',#2035);
#2037=ORIENTED_EDGE('',*,*,#1976,.F.);
#2039=ORIENTED_EDGE('',*,*,#2038,.T.);
#2040=ORIENTED_EDGE('',*,*,#2009,.T.);
#2041=ORIENTED_EDGE('',*,*,#2026,.F.);
#2042=EDGE_LOOP('',(#2037,#2039,#2040,#2041));
#2043=FACE_OUTER_BOUND('',#2042,.F.);
#2045=CARTESIAN_POINT('',(-1.3E0,-2.275E0,-5.E0));
#2046=DIRECTION('',(0.E0,-1.E0,0.E0));
#2047=DIRECTION('',(0.E0,0.E0,1.E0));
#2048=AXIS2_PLACEMENT_3D('',#2045,#2046,#2047);
#2049=PLANE('',#2048);
#2050=ORIENTED_EDGE('',*,*,#1974,.T.);
#2052=ORIENTED_EDGE('',*,*,#2051,.T.);
#2053=ORIENTED_EDGE('',*,*,#2011,.T.);
#2054=ORIENTED_EDGE('',*,*,#2038,.F.);
#2055=EDGE_LOOP('',(#2050,#2052,#2053,#2054));
#2056=FACE_OUTER_BOUND('',#2055,.F.);
#2058=CARTESIAN_POINT('',(-1.3E0,-1.715E0,-7.E0));
#2059=DIRECTION('',(0.E0,0.E0,-1.E0));
#2060=DIRECTION('',(0.E0,-1.E0,0.E0));
#2061=AXIS2_PLACEMENT_3D('',#2058,#2059,#2060);
#2062=PLANE('',#2061);
#2063=ORIENTED_EDGE('',*,*,#1972,.F.);
#2064=ORIENTED_EDGE('',*,*,#1993,.T.);
#2065=ORIENTED_EDGE('',*,*,#2013,.T.);
#2066=ORIENTED_EDGE('',*,*,#2051,.F.);
#2067=EDGE_LOOP('',(#2063,#2064,#2065,#2066));
#2068=FACE_OUTER_BOUND('',#2067,.F.);
#2070=CARTESIAN_POINT('',(-5.E-1,-1.525E0,0.E0));
#2071=DIRECTION('',(-1.E0,0.E0,0.E0));
#2072=DIRECTION('',(0.E0,-1.E0,0.E0));
#2073=AXIS2_PLACEMENT_3D('',#2070,#2071,#2072);
#2074=PLANE('',#2073);
#2076=ORIENTED_EDGE('',*,*,#2075,.T.);
#2077=ORIENTED_EDGE('',*,*,#1821,.F.);
#2078=ORIENTED_EDGE('',*,*,#1115,.T.);
#2080=ORIENTED_EDGE('',*,*,#2079,.T.);
#2081=EDGE_LOOP('',(#2076,#2077,#2078,#2080));
#2082=FACE_OUTER_BOUND('',#2081,.F.);
#2084=CARTESIAN_POINT('',(1.5E0,0.E0,-2.15E0));
#2085=DIRECTION('',(0.E0,0.E0,1.E0));
#2086=DIRECTION('',(1.E0,0.E0,0.E0));
#2087=AXIS2_PLACEMENT_3D('',#2084,#2085,#2086);
#2088=PLANE('',#2087);
#2090=ORIENTED_EDGE('',*,*,#2089,.T.);
#2092=ORIENTED_EDGE('',*,*,#2091,.T.);
#2094=ORIENTED_EDGE('',*,*,#2093,.F.);
#2095=ORIENTED_EDGE('',*,*,#1823,.F.);
#2096=ORIENTED_EDGE('',*,*,#2075,.F.);
#2098=ORIENTED_EDGE('',*,*,#2097,.F.);
#2100=ORIENTED_EDGE('',*,*,#2099,.F.);
#2101=ORIENTED_EDGE('',*,*,#1838,.F.);
#2102=EDGE_LOOP('',(#2090,#2092,#2094,#2095,#2096,#2098,#2100,#2101));
#2103=FACE_OUTER_BOUND('',#2102,.F.);
#2105=CARTESIAN_POINT('',(2.E-1,0.E0,0.E0));
#2106=DIRECTION('',(-1.E0,0.E0,0.E0));
#2107=DIRECTION('',(0.E0,0.E0,1.E0));
#2108=AXIS2_PLACEMENT_3D('',#2105,#2106,#2107);
#2109=PLANE('',#2108);
#2111=ORIENTED_EDGE('',*,*,#2110,.T.);
#2113=ORIENTED_EDGE('',*,*,#2112,.T.);
#2115=ORIENTED_EDGE('',*,*,#2114,.F.);
#2117=ORIENTED_EDGE('',*,*,#2116,.T.);
#2119=ORIENTED_EDGE('',*,*,#2118,.T.);
#2120=ORIENTED_EDGE('',*,*,#2089,.F.);
#2121=ORIENTED_EDGE('',*,*,#1836,.F.);
#2122=ORIENTED_EDGE('',*,*,#1780,.T.);
#2123=EDGE_LOOP('',(#2111,#2113,#2115,#2117,#2119,#2120,#2121,#2122));
#2124=FACE_OUTER_BOUND('',#2123,.F.);
#2126=CARTESIAN_POINT('',(2.E-1,-1.715E0,-5.E0));
#2127=DIRECTION('',(0.E0,1.E0,0.E0));
#2128=DIRECTION('',(0.E0,0.E0,-1.E0));
#2129=AXIS2_PLACEMENT_3D('',#2126,#2127,#2128);
#2130=PLANE('',#2129);
#2131=ORIENTED_EDGE('',*,*,#2110,.F.);
#2132=ORIENTED_EDGE('',*,*,#1778,.T.);
#2134=ORIENTED_EDGE('',*,*,#2133,.T.);
#2136=ORIENTED_EDGE('',*,*,#2135,.F.);
#2137=EDGE_LOOP('',(#2131,#2132,#2134,#2136));
#2138=FACE_OUTER_BOUND('',#2137,.F.);
#2140=CARTESIAN_POINT('',(-2.E-1,0.E0,0.E0));
#2141=DIRECTION('',(-1.E0,0.E0,0.E0));
#2142=DIRECTION('',(0.E0,0.E0,1.E0));
#2143=AXIS2_PLACEMENT_3D('',#2140,#2141,#2142);
#2144=PLANE('',#2143);
#2145=ORIENTED_EDGE('',*,*,#2133,.F.);
#2146=ORIENTED_EDGE('',*,*,#1776,.F.);
#2147=ORIENTED_EDGE('',*,*,#1825,.T.);
#2148=ORIENTED_EDGE('',*,*,#2093,.T.);
#2150=ORIENTED_EDGE('',*,*,#2149,.F.);
#2152=ORIENTED_EDGE('',*,*,#2151,.F.);
#2154=ORIENTED_EDGE('',*,*,#2153,.F.);
#2156=ORIENTED_EDGE('',*,*,#2155,.F.);
#2157=EDGE_LOOP('',(#2145,#2146,#2147,#2148,#2150,#2152,#2154,#2156));
#2158=FACE_OUTER_BOUND('',#2157,.F.);
#2160=CARTESIAN_POINT('',(2.E-1,-1.875E0,-1.E0));
#2161=DIRECTION('',(0.E0,1.E0,0.E0));
#2162=DIRECTION('',(0.E0,0.E0,-1.E0));
#2163=AXIS2_PLACEMENT_3D('',#2160,#2161,#2162);
#2164=PLANE('',#2163);
#2165=ORIENTED_EDGE('',*,*,#2091,.F.);
#2166=ORIENTED_EDGE('',*,*,#2118,.F.);
#2168=ORIENTED_EDGE('',*,*,#2167,.T.);
#2169=ORIENTED_EDGE('',*,*,#2149,.T.);
#2170=EDGE_LOOP('',(#2165,#2166,#2168,#2169));
#2171=FACE_OUTER_BOUND('',#2170,.F.);
#2173=CARTESIAN_POINT('',(2.E-1,-2.275E0,-1.E0));
#2174=DIRECTION('',(0.E0,0.E0,1.E0));
#2175=DIRECTION('',(0.E0,1.E0,0.E0));
#2176=AXIS2_PLACEMENT_3D('',#2173,#2174,#2175);
#2177=PLANE('',#2176);
#2178=ORIENTED_EDGE('',*,*,#2116,.F.);
#2180=ORIENTED_EDGE('',*,*,#2179,.T.);
#2181=ORIENTED_EDGE('',*,*,#2151,.T.);
#2182=ORIENTED_EDGE('',*,*,#2167,.F.);
#2183=EDGE_LOOP('',(#2178,#2180,#2181,#2182));
#2184=FACE_OUTER_BOUND('',#2183,.F.);
#2186=CARTESIAN_POINT('',(2.E-1,-2.275E0,-5.E0));
#2187=DIRECTION('',(0.E0,-1.E0,0.E0));
#2188=DIRECTION('',(0.E0,0.E0,1.E0));
#2189=AXIS2_PLACEMENT_3D('',#2186,#2187,#2188);
#2190=PLANE('',#2189);
#2191=ORIENTED_EDGE('',*,*,#2114,.T.);
#2193=ORIENTED_EDGE('',*,*,#2192,.T.);
#2194=ORIENTED_EDGE('',*,*,#2153,.T.);
#2195=ORIENTED_EDGE('',*,*,#2179,.F.);
#2196=EDGE_LOOP('',(#2191,#2193,#2194,#2195));
#2197=FACE_OUTER_BOUND('',#2196,.F.);
#2199=CARTESIAN_POINT('',(2.E-1,-1.715E0,-7.E0));
#2200=DIRECTION('',(0.E0,0.E0,-1.E0));
#2201=DIRECTION('',(0.E0,-1.E0,0.E0));
#2202=AXIS2_PLACEMENT_3D('',#2199,#2200,#2201);
#2203=PLANE('',#2202);
#2204=ORIENTED_EDGE('',*,*,#2112,.F.);
#2205=ORIENTED_EDGE('',*,*,#2135,.T.);
#2206=ORIENTED_EDGE('',*,*,#2155,.T.);
#2207=ORIENTED_EDGE('',*,*,#2192,.F.);
#2208=EDGE_LOOP('',(#2204,#2205,#2206,#2207));
#2209=FACE_OUTER_BOUND('',#2208,.F.);
#2211=CARTESIAN_POINT('',(5.E-1,-1.525E0,0.E0));
#2212=DIRECTION('',(0.E0,1.E0,0.E0));
#2213=DIRECTION('',(-1.E0,0.E0,0.E0));
#2214=AXIS2_PLACEMENT_3D('',#2211,#2212,#2213);
#2215=PLANE('',#2214);
#2217=ORIENTED_EDGE('',*,*,#2216,.T.);
#2218=ORIENTED_EDGE('',*,*,#2097,.T.);
#2219=ORIENTED_EDGE('',*,*,#2079,.F.);
#2220=ORIENTED_EDGE('',*,*,#1113,.F.);
#2221=EDGE_LOOP('',(#2217,#2218,#2219,#2220));
#2222=FACE_OUTER_BOUND('',#2221,.F.);
#2224=CARTESIAN_POINT('',(5.E-1,-2.225E0,0.E0));
#2225=DIRECTION('',(1.E0,0.E0,0.E0));
#2226=DIRECTION('',(0.E0,1.E0,0.E0));
#2227=AXIS2_PLACEMENT_3D('',#2224,#2225,#2226);
#2228=PLANE('',#2227);
#2229=ORIENTED_EDGE('',*,*,#2099,.T.);
#2230=ORIENTED_EDGE('',*,*,#2216,.F.);
#2231=ORIENTED_EDGE('',*,*,#1111,.F.);
#2232=ORIENTED_EDGE('',*,*,#1840,.T.);
#2233=EDGE_LOOP('',(#2229,#2230,#2231,#2232));
#2234=FACE_OUTER_BOUND('',#2233,.F.);
#2236=CARTESIAN_POINT('',(1.E0,-1.525E0,0.E0));
#2237=DIRECTION('',(-1.E0,0.E0,0.E0));
#2238=DIRECTION('',(0.E0,-1.E0,0.E0));
#2239=AXIS2_PLACEMENT_3D('',#2236,#2237,#2238);
#2240=PLANE('',#2239);
#2241=ORIENTED_EDGE('',*,*,#1704,.T.);
#2242=ORIENTED_EDGE('',*,*,#1843,.F.);
#2243=ORIENTED_EDGE('',*,*,#1107,.T.);
#2245=ORIENTED_EDGE('',*,*,#2244,.T.);
#2246=EDGE_LOOP('',(#2241,#2242,#2243,#2245));
#2247=FACE_OUTER_BOUND('',#2246,.F.);
#2249=CARTESIAN_POINT('',(2.E0,-1.525E0,0.E0));
#2250=DIRECTION('',(0.E0,1.E0,0.E0));
#2251=DIRECTION('',(-1.E0,0.E0,0.E0));
#2252=AXIS2_PLACEMENT_3D('',#2249,#2250,#2251);
#2253=PLANE('',#2252);
#2254=ORIENTED_EDGE('',*,*,#1683,.T.);
#2255=ORIENTED_EDGE('',*,*,#1706,.T.);
#2256=ORIENTED_EDGE('',*,*,#2244,.F.);
#2257=ORIENTED_EDGE('',*,*,#1105,.F.);
#2258=EDGE_LOOP('',(#2254,#2255,#2256,#2257));
#2259=FACE_OUTER_BOUND('',#2258,.F.);
#2261=CARTESIAN_POINT('',(1.3E0,0.E0,0.E0));
#2262=DIRECTION('',(-1.E0,0.E0,0.E0));
#2263=DIRECTION('',(0.E0,0.E0,1.E0));
#2264=AXIS2_PLACEMENT_3D('',#2261,#2262,#2263);
#2265=PLANE('',#2264);
#2266=ORIENTED_EDGE('',*,*,#1745,.F.);
#2267=ORIENTED_EDGE('',*,*,#1784,.F.);
#2268=ORIENTED_EDGE('',*,*,#1846,.T.);
#2269=ORIENTED_EDGE('',*,*,#1700,.T.);
#2271=ORIENTED_EDGE('',*,*,#2270,.F.);
#2273=ORIENTED_EDGE('',*,*,#2272,.F.);
#2275=ORIENTED_EDGE('',*,*,#2274,.F.);
#2277=ORIENTED_EDGE('',*,*,#2276,.F.);
#2278=EDGE_LOOP('',(#2266,#2267,#2268,#2269,#2271,#2273,#2275,#2277));
#2279=FACE_OUTER_BOUND('',#2278,.F.);
#2281=CARTESIAN_POINT('',(1.7E0,-1.875E0,-1.E0));
#2282=DIRECTION('',(0.E0,1.E0,0.E0));
#2283=DIRECTION('',(0.E0,0.E0,-1.E0));
#2284=AXIS2_PLACEMENT_3D('',#2281,#2282,#2283);
#2285=PLANE('',#2284);
#2286=ORIENTED_EDGE('',*,*,#1698,.F.);
#2287=ORIENTED_EDGE('',*,*,#1727,.F.);
#2289=ORIENTED_EDGE('',*,*,#2288,.T.);
#2290=ORIENTED_EDGE('',*,*,#2270,.T.);
#2291=EDGE_LOOP('',(#2286,#2287,#2289,#2290));
#2292=FACE_OUTER_BOUND('',#2291,.F.);
#2294=CARTESIAN_POINT('',(1.7E0,-2.275E0,-1.E0));
#2295=DIRECTION('',(0.E0,0.E0,1.E0));
#2296=DIRECTION('',(0.E0,1.E0,0.E0));
#2297=AXIS2_PLACEMENT_3D('',#2294,#2295,#2296);
#2298=PLANE('',#2297);
#2299=ORIENTED_EDGE('',*,*,#1725,.F.);
#2301=ORIENTED_EDGE('',*,*,#2300,.T.);
#2302=ORIENTED_EDGE('',*,*,#2272,.T.);
#2303=ORIENTED_EDGE('',*,*,#2288,.F.);
#2304=EDGE_LOOP('',(#2299,#2301,#2302,#2303));
#2305=FACE_OUTER_BOUND('',#2304,.F.);
#2307=CARTESIAN_POINT('',(1.7E0,-2.275E0,-5.E0));
#2308=DIRECTION('',(0.E0,-1.E0,0.E0));
#2309=DIRECTION('',(0.E0,0.E0,1.E0));
#2310=AXIS2_PLACEMENT_3D('',#2307,#2308,#2309);
#2311=PLANE('',#2310);
#2312=ORIENTED_EDGE('',*,*,#1723,.T.);
#2314=ORIENTED_EDGE('',*,*,#2313,.T.);
#2315=ORIENTED_EDGE('',*,*,#2274,.T.);
#2316=ORIENTED_EDGE('',*,*,#2300,.F.);
#2317=EDGE_LOOP('',(#2312,#2314,#2315,#2316));
#2318=FACE_OUTER_BOUND('',#2317,.F.);
#2320=CARTESIAN_POINT('',(1.7E0,-1.715E0,-7.E0));
#2321=DIRECTION('',(0.E0,0.E0,-1.E0));
#2322=DIRECTION('',(0.E0,-1.E0,0.E0));
#2323=AXIS2_PLACEMENT_3D('',#2320,#2321,#2322);
#2324=PLANE('',#2323);
#2325=ORIENTED_EDGE('',*,*,#1721,.F.);
#2326=ORIENTED_EDGE('',*,*,#1747,.T.);
#2327=ORIENTED_EDGE('',*,*,#2276,.T.);
#2328=ORIENTED_EDGE('',*,*,#2313,.F.);
#2329=EDGE_LOOP('',(#2325,#2326,#2327,#2328));
#2330=FACE_OUTER_BOUND('',#2329,.F.);
#2332=CLOSED_SHELL('',(#1151,#1166,#1183,#1197,#1215,#1229,#1243,#1260,#1275,
#1289,#1305,#1320,#1335,#1350,#1399,#1413,#1430,#1442,#1459,#1471,#1486,#1500,
#1514,#1527,#1539,#1554,#1568,#1582,#1595,#1607,#1622,#1636,#1650,#1663,#1675,
#1690,#1713,#1736,#1751,#1789,#1807,#1829,#1850,#1865,#1878,#1891,#1903,#1917,
#1931,#1944,#1963,#1984,#1998,#2018,#2031,#2044,#2057,#2069,#2083,#2104,#2125,
#2139,#2159,#2172,#2185,#2198,#2210,#2223,#2235,#2248,#2260,#2280,#2293,#2306,
#2319,#2331));
#2333=MANIFOLD_SOLID_BREP('',#2332);
#2336=PLANE_ANGLE_MEASURE_WITH_UNIT(PLANE_ANGLE_MEASURE(1.745329251994E-2),
#2335);
#2337=(CONVERSION_BASED_UNIT('DEGREE',#2336)NAMED_UNIT(*)PLANE_ANGLE_UNIT());
#2339=UNCERTAINTY_MEASURE_WITH_UNIT(LENGTH_MEASURE(1.025873189865E-3),#2334,
'distance_accuracy_value',
'Maximum model space distance between geometric entities at asserted connectivities');
#2342=APPLICATION_CONTEXT('automotive_design');
#2343=APPLICATION_PROTOCOL_DEFINITION('international standard',
'automotive_design',2001,#2342);
#2344=PRODUCT_DEFINITION_CONTEXT('part definition',#2342,'design');
#2345=PRODUCT_CONTEXT('',#2342,'mechanical');
#2346=PRODUCT('C-5-1775444-3','C-5-1775444-3','NOT SPECIFIED',(#2345));
#2347=PRODUCT_DEFINITION_FORMATION('1','LAST_VERSION',#2346);
#2355=DERIVED_UNIT_ELEMENT(#2354,2.E0);
#2356=DERIVED_UNIT((#2355));
#2357=MEASURE_REPRESENTATION_ITEM('surface area measure',AREA_MEASURE(
2.557903780542E2),#2356);
#2362=DERIVED_UNIT_ELEMENT(#2361,3.E0);
#2363=DERIVED_UNIT((#2362));
#2364=MEASURE_REPRESENTATION_ITEM('volume measure',VOLUME_MEASURE(
7.823416666667E1),#2363);
#2368=CARTESIAN_POINT('centre point',(0.E0,-5.674232272771E-2,
-3.148975245257E0));
#2373=DERIVED_UNIT_ELEMENT(#2372,2.E0);
#2374=DERIVED_UNIT((#2373));
#2375=MEASURE_REPRESENTATION_ITEM('surface area measure',AREA_MEASURE(
2.557903780542E2),#2374);
#2380=DERIVED_UNIT_ELEMENT(#2379,3.E0);
#2381=DERIVED_UNIT((#2380));
#2382=MEASURE_REPRESENTATION_ITEM('volume measure',VOLUME_MEASURE(
7.823416666667E1),#2381);
#2386=CARTESIAN_POINT('centre point',(0.E0,-5.674232272771E-2,
-3.148975245257E0));
#2391=PRODUCT_RELATED_PRODUCT_CATEGORY('part','',(#2346));
#1=COLOUR_RGB('',8.784E-1,9.49E-1,1.E0);
#1103=EDGE_CURVE('',#1083,#1027,#21,.T.);
#1105=EDGE_CURVE('',#1027,#1029,#25,.T.);
#1107=EDGE_CURVE('',#1085,#1029,#29,.T.);
#1109=EDGE_CURVE('',#1067,#1085,#33,.T.);
#1111=EDGE_CURVE('',#1067,#979,#37,.T.);
#1113=EDGE_CURVE('',#979,#981,#41,.T.);
#1115=EDGE_CURVE('',#1069,#981,#45,.T.);
#1117=EDGE_CURVE('',#908,#1069,#49,.T.);
#1119=EDGE_CURVE('',#908,#909,#53,.T.);
#1121=EDGE_CURVE('',#909,#911,#57,.T.);
#1123=EDGE_CURVE('',#913,#911,#61,.T.);
#1125=EDGE_CURVE('',#829,#913,#65,.T.);
#1127=EDGE_CURVE('',#828,#829,#69,.T.);
#1129=EDGE_CURVE('',#833,#828,#73,.T.);
#1131=EDGE_CURVE('',#832,#833,#77,.T.);
#1133=EDGE_CURVE('',#1083,#832,#81,.T.);
#1137=EDGE_CURVE('',#872,#873,#5,.T.);
#1139=EDGE_CURVE('',#881,#872,#9,.T.);
#1141=EDGE_CURVE('',#880,#881,#13,.T.);
#1143=EDGE_CURVE('',#889,#880,#137,.T.);
#1145=EDGE_CURVE('',#888,#889,#17,.T.);
#1147=EDGE_CURVE('',#873,#888,#97,.T.);
#1151=ADVANCED_FACE('',(#1136,#1150),#1102,.T.);
#1157=EDGE_CURVE('',#868,#869,#85,.T.);
#1159=EDGE_CURVE('',#868,#872,#285,.T.);
#1162=EDGE_CURVE('',#873,#869,#93,.T.);
#1166=ADVANCED_FACE('',(#1165),#1156,.T.);
#1173=EDGE_CURVE('',#869,#863,#89,.T.);
#1175=EDGE_CURVE('',#856,#863,#305,.T.);
#1177=EDGE_CURVE('',#856,#857,#213,.T.);
#1179=EDGE_CURVE('',#868,#857,#177,.T.);
#1183=ADVANCED_FACE('',(#1182),#1171,.T.);
#1189=EDGE_CURVE('',#865,#873,#113,.T.);
#1191=EDGE_CURVE('',#863,#865,#309,.T.);
#1197=ADVANCED_FACE('',(#1196),#1188,.T.);
#1204=EDGE_CURVE('',#884,#888,#117,.T.);
#1206=EDGE_CURVE('',#849,#884,#101,.T.);
#1208=EDGE_CURVE('',#848,#849,#105,.T.);
#1210=EDGE_CURVE('',#865,#848,#109,.T.);
#1215=ADVANCED_FACE('',(#1214),#1202,.F.);
#1221=EDGE_CURVE('',#884,#885,#125,.T.);
#1225=EDGE_CURVE('',#889,#885,#121,.T.);
#1229=ADVANCED_FACE('',(#1228),#1220,.T.);
#1236=EDGE_CURVE('',#845,#885,#133,.T.);
#1238=EDGE_CURVE('',#845,#849,#129,.T.);
#1243=ADVANCED_FACE('',(#1242),#1234,.F.);
#1252=EDGE_CURVE('',#860,#880,#141,.T.);
#1254=EDGE_CURVE('',#860,#844,#145,.T.);
#1256=EDGE_CURVE('',#844,#845,#149,.T.);
#1260=ADVANCED_FACE('',(#1259),#1248,.F.);
#1267=EDGE_CURVE('',#876,#880,#153,.T.);
#1269=EDGE_CURVE('',#876,#861,#165,.T.);
#1271=EDGE_CURVE('',#860,#861,#293,.T.);
#1275=ADVANCED_FACE('',(#1274),#1265,.T.);
#1281=EDGE_CURVE('',#876,#877,#161,.T.);
#1285=EDGE_CURVE('',#877,#881,#157,.T.);
#1289=ADVANCED_FACE('',(#1288),#1280,.T.);
#1296=EDGE_CURVE('',#877,#853,#185,.T.);
#1298=EDGE_CURVE('',#852,#853,#217,.T.);
#1300=EDGE_CURVE('',#852,#861,#297,.T.);
#1305=ADVANCED_FACE('',(#1304),#1294,.T.);
#1311=EDGE_CURVE('',#935,#895,#169,.T.);
#1313=EDGE_CURVE('',#935,#868,#173,.T.);
#1316=EDGE_CURVE('',#895,#857,#209,.T.);
#1320=ADVANCED_FACE('',(#1319),#1310,.F.);
#1326=EDGE_CURVE('',#937,#897,#181,.T.);
#1328=EDGE_CURVE('',#853,#897,#193,.T.);
#1331=EDGE_CURVE('',#877,#937,#189,.T.);
#1335=ADVANCED_FACE('',(#1334),#1325,.F.);
#1341=EDGE_CURVE('',#895,#892,#205,.T.);
#1343=EDGE_CURVE('',#899,#892,#289,.T.);
#1345=EDGE_CURVE('',#935,#899,#273,.T.);
#1350=ADVANCED_FACE('',(#1349),#1340,.F.);
#1357=EDGE_CURVE('',#893,#897,#197,.T.);
#1359=EDGE_CURVE('',#892,#893,#201,.T.);
#1364=EDGE_CURVE('',#852,#856,#301,.T.);
#1369=EDGE_CURVE('',#928,#929,#221,.T.);
#1371=EDGE_CURVE('',#928,#932,#225,.T.);
#1373=EDGE_CURVE('',#932,#933,#229,.T.);
#1375=EDGE_CURVE('',#933,#929,#233,.T.);
#1379=EDGE_CURVE('',#991,#995,#237,.T.);
#1381=EDGE_CURVE('',#995,#997,#241,.T.);
#1383=EDGE_CURVE('',#997,#993,#245,.T.);
#1385=EDGE_CURVE('',#993,#991,#249,.T.);
#1389=EDGE_CURVE('',#1039,#1043,#253,.T.);
#1391=EDGE_CURVE('',#1043,#1045,#257,.T.);
#1393=EDGE_CURVE('',#1045,#1041,#261,.T.);
#1395=EDGE_CURVE('',#1041,#1039,#265,.T.);
#1399=ADVANCED_FACE('',(#1368,#1378,#1388,#1398),#1355,.F.);
#1407=EDGE_CURVE('',#937,#901,#281,.T.);
#1409=EDGE_CURVE('',#901,#893,#269,.T.);
#1413=ADVANCED_FACE('',(#1412),#1404,.F.);
#1420=EDGE_CURVE('',#899,#901,#277,.T.);
#1430=ADVANCED_FACE('',(#1429),#1418,.T.);
#1442=ADVANCED_FACE('',(#1441),#1435,.F.);
#1454=EDGE_CURVE('',#844,#848,#313,.T.);
#1459=ADVANCED_FACE('',(#1458),#1447,.F.);
#1471=ADVANCED_FACE('',(#1470),#1464,.F.);
#1478=EDGE_CURVE('',#929,#920,#317,.T.);
#1480=EDGE_CURVE('',#920,#921,#333,.T.);
#1482=EDGE_CURVE('',#928,#921,#329,.T.);
#1486=ADVANCED_FACE('',(#1485),#1476,.T.);
#1493=EDGE_CURVE('',#933,#925,#321,.T.);
#1495=EDGE_CURVE('',#925,#920,#337,.T.);
#1500=ADVANCED_FACE('',(#1499),#1491,.T.);
#1507=EDGE_CURVE('',#932,#923,#325,.T.);
#1509=EDGE_CURVE('',#923,#925,#341,.T.);
#1514=ADVANCED_FACE('',(#1513),#1505,.T.);
#1522=EDGE_CURVE('',#921,#923,#345,.T.);
#1527=ADVANCED_FACE('',(#1526),#1519,.T.);
#1539=ADVANCED_FACE('',(#1538),#1532,.T.);
#1545=EDGE_CURVE('',#991,#984,#349,.T.);
#1547=EDGE_CURVE('',#984,#985,#365,.T.);
#1549=EDGE_CURVE('',#995,#985,#361,.T.);
#1554=ADVANCED_FACE('',(#1553),#1544,.T.);
#1562=EDGE_CURVE('',#993,#989,#353,.T.);
#1564=EDGE_CURVE('',#989,#984,#369,.T.);
#1568=ADVANCED_FACE('',(#1567),#1559,.T.);
#1576=EDGE_CURVE('',#997,#987,#357,.T.);
#1578=EDGE_CURVE('',#987,#989,#373,.T.);
#1582=ADVANCED_FACE('',(#1581),#1573,.T.);
#1589=EDGE_CURVE('',#985,#987,#377,.T.);
#1595=ADVANCED_FACE('',(#1594),#1587,.T.);
#1607=ADVANCED_FACE('',(#1606),#1600,.T.);
#1613=EDGE_CURVE('',#1039,#1032,#381,.T.);
#1615=EDGE_CURVE('',#1032,#1033,#397,.T.);
#1617=EDGE_CURVE('',#1043,#1033,#393,.T.);
#1622=ADVANCED_FACE('',(#1621),#1612,.T.);
#1630=EDGE_CURVE('',#1041,#1037,#385,.T.);
#1632=EDGE_CURVE('',#1037,#1032,#401,.T.);
#1636=ADVANCED_FACE('',(#1635),#1627,.T.);
#1644=EDGE_CURVE('',#1045,#1035,#389,.T.);
#1646=EDGE_CURVE('',#1035,#1037,#405,.T.);
#1650=ADVANCED_FACE('',(#1649),#1641,.T.);
#1657=EDGE_CURVE('',#1033,#1035,#409,.T.);
#1663=ADVANCED_FACE('',(#1662),#1655,.T.);
#1675=ADVANCED_FACE('',(#1674),#1668,.T.);
#1681=EDGE_CURVE('',#1023,#1020,#433,.T.);
#1683=EDGE_CURVE('',#1027,#1020,#785,.T.);
#1686=EDGE_CURVE('',#1083,#1023,#589,.T.);
#1690=ADVANCED_FACE('',(#1689),#1680,.F.);
#1696=EDGE_CURVE('',#1092,#1093,#413,.T.);
#1698=EDGE_CURVE('',#1093,#1097,#417,.T.);
#1700=EDGE_CURVE('',#1096,#1097,#421,.T.);
#1702=EDGE_CURVE('',#1025,#1096,#573,.T.);
#1704=EDGE_CURVE('',#1021,#1025,#425,.T.);
#1706=EDGE_CURVE('',#1020,#1021,#429,.T.);
#1709=EDGE_CURVE('',#1092,#1023,#585,.T.);
#1713=ADVANCED_FACE('',(#1712),#1695,.T.);
#1719=EDGE_CURVE('',#1063,#1048,#437,.T.);
#1721=EDGE_CURVE('',#1048,#1049,#441,.T.);
#1723=EDGE_CURVE('',#1052,#1049,#813,.T.);
#1725=EDGE_CURVE('',#1052,#1053,#445,.T.);
#1727=EDGE_CURVE('',#1053,#1093,#449,.T.);
#1730=EDGE_CURVE('',#1087,#1092,#581,.T.);
#1732=EDGE_CURVE('',#1087,#1063,#453,.T.);
#1736=ADVANCED_FACE('',(#1735),#1718,.F.);
#1743=EDGE_CURVE('',#1063,#1065,#513,.T.);
#1745=EDGE_CURVE('',#1065,#1056,#789,.T.);
#1747=EDGE_CURVE('',#1048,#1056,#825,.T.);
#1751=ADVANCED_FACE('',(#1750),#1741,.T.);
#1758=EDGE_CURVE('',#1087,#840,#457,.T.);
#1760=EDGE_CURVE('',#840,#841,#461,.T.);
#1762=EDGE_CURVE('',#841,#836,#465,.T.);
#1764=EDGE_CURVE('',#836,#837,#469,.T.);
#1766=EDGE_CURVE('',#837,#960,#473,.T.);
#1768=EDGE_CURVE('',#960,#961,#477,.T.);
#1770=EDGE_CURVE('',#957,#961,#481,.T.);
#1772=EDGE_CURVE('',#956,#957,#485,.T.);
#1774=EDGE_CURVE('',#956,#1073,#489,.T.);
#1776=EDGE_CURVE('',#1073,#1017,#493,.T.);
#1778=EDGE_CURVE('',#1015,#1017,#497,.T.);
#1780=EDGE_CURVE('',#1071,#1015,#501,.T.);
#1782=EDGE_CURVE('',#1071,#1089,#505,.T.);
#1784=EDGE_CURVE('',#1089,#1065,#509,.T.);
#1789=ADVANCED_FACE('',(#1788),#1756,.F.);
#1796=EDGE_CURVE('',#829,#837,#517,.T.);
#1799=EDGE_CURVE('',#913,#917,#521,.T.);
#1801=EDGE_CURVE('',#917,#968,#525,.T.);
#1803=EDGE_CURVE('',#960,#968,#529,.T.);
#1807=ADVANCED_FACE('',(#1806),#1794,.T.);
#1814=EDGE_CURVE('',#956,#964,#533,.T.);
#1816=EDGE_CURVE('',#964,#915,#537,.T.);
#1818=EDGE_CURVE('',#908,#915,#541,.T.);
#1821=EDGE_CURVE('',#1069,#977,#545,.T.);
#1823=EDGE_CURVE('',#977,#1080,#549,.T.);
#1825=EDGE_CURVE('',#1073,#1080,#553,.T.);
#1829=ADVANCED_FACE('',(#1828),#1812,.T.);
#1836=EDGE_CURVE('',#1071,#1076,#557,.T.);
#1838=EDGE_CURVE('',#1076,#975,#561,.T.);
#1840=EDGE_CURVE('',#1067,#975,#565,.T.);
#1843=EDGE_CURVE('',#1085,#1025,#569,.T.);
#1846=EDGE_CURVE('',#1089,#1096,#577,.T.);
#1850=ADVANCED_FACE('',(#1849),#1834,.T.);
#1861=EDGE_CURVE('',#832,#840,#601,.T.);
#1865=ADVANCED_FACE('',(#1864),#1855,.T.);
#1874=EDGE_CURVE('',#828,#836,#593,.T.);
#1878=ADVANCED_FACE('',(#1877),#1870,.T.);
#1887=EDGE_CURVE('',#833,#841,#597,.T.);
#1891=ADVANCED_FACE('',(#1890),#1883,.T.);
#1903=ADVANCED_FACE('',(#1902),#1896,.T.);
#1910=EDGE_CURVE('',#911,#905,#605,.T.);
#1912=EDGE_CURVE('',#905,#917,#625,.T.);
#1917=ADVANCED_FACE('',(#1916),#1908,.F.);
#1924=EDGE_CURVE('',#909,#904,#609,.T.);
#1926=EDGE_CURVE('',#904,#905,#629,.T.);
#1931=ADVANCED_FACE('',(#1930),#1922,.F.);
#1939=EDGE_CURVE('',#915,#904,#633,.T.);
#1944=ADVANCED_FACE('',(#1943),#1936,.F.);
#1950=EDGE_CURVE('',#964,#965,#613,.T.);
#1952=EDGE_CURVE('',#965,#969,#617,.T.);
#1954=EDGE_CURVE('',#968,#969,#621,.T.);
#1963=ADVANCED_FACE('',(#1962),#1949,.T.);
#1970=EDGE_CURVE('',#957,#940,#637,.T.);
#1972=EDGE_CURVE('',#940,#941,#641,.T.);
#1974=EDGE_CURVE('',#944,#941,#677,.T.);
#1976=EDGE_CURVE('',#944,#945,#645,.T.);
#1978=EDGE_CURVE('',#945,#965,#649,.T.);
#1984=ADVANCED_FACE('',(#1983),#1968,.F.);
#1991=EDGE_CURVE('',#961,#948,#665,.T.);
#1993=EDGE_CURVE('',#940,#948,#689,.T.);
#1998=ADVANCED_FACE('',(#1997),#1989,.T.);
#2007=EDGE_CURVE('',#953,#969,#653,.T.);
#2009=EDGE_CURVE('',#952,#953,#657,.T.);
#2011=EDGE_CURVE('',#949,#952,#685,.T.);
#2013=EDGE_CURVE('',#948,#949,#661,.T.);
#2018=ADVANCED_FACE('',(#2017),#2003,.T.);
#2026=EDGE_CURVE('',#945,#953,#669,.T.);
#2031=ADVANCED_FACE('',(#2030),#2023,.T.);
#2038=EDGE_CURVE('',#944,#952,#673,.T.);
#2044=ADVANCED_FACE('',(#2043),#2036,.T.);
#2051=EDGE_CURVE('',#941,#949,#681,.T.);
#2057=ADVANCED_FACE('',(#2056),#2049,.T.);
#2069=ADVANCED_FACE('',(#2068),#2062,.T.);
#2075=EDGE_CURVE('',#973,#977,#709,.T.);
#2079=EDGE_CURVE('',#981,#973,#693,.T.);
#2083=ADVANCED_FACE('',(#2082),#2074,.F.);
#2089=EDGE_CURVE('',#1076,#1077,#697,.T.);
#2091=EDGE_CURVE('',#1077,#1081,#701,.T.);
#2093=EDGE_CURVE('',#1080,#1081,#705,.T.);
#2097=EDGE_CURVE('',#972,#973,#713,.T.);
#2099=EDGE_CURVE('',#975,#972,#717,.T.);
#2104=ADVANCED_FACE('',(#2103),#2088,.T.);
#2110=EDGE_CURVE('',#1015,#1000,#721,.T.);
#2112=EDGE_CURVE('',#1000,#1001,#725,.T.);
#2114=EDGE_CURVE('',#1004,#1001,#761,.T.);
#2116=EDGE_CURVE('',#1004,#1005,#729,.T.);
#2118=EDGE_CURVE('',#1005,#1077,#733,.T.);
#2125=ADVANCED_FACE('',(#2124),#2109,.F.);
#2133=EDGE_CURVE('',#1017,#1008,#737,.T.);
#2135=EDGE_CURVE('',#1000,#1008,#773,.T.);
#2139=ADVANCED_FACE('',(#2138),#2130,.T.);
#2149=EDGE_CURVE('',#1013,#1081,#741,.T.);
#2151=EDGE_CURVE('',#1012,#1013,#745,.T.);
#2153=EDGE_CURVE('',#1009,#1012,#769,.T.);
#2155=EDGE_CURVE('',#1008,#1009,#749,.T.);
#2159=ADVANCED_FACE('',(#2158),#2144,.T.);
#2167=EDGE_CURVE('',#1005,#1013,#753,.T.);
#2172=ADVANCED_FACE('',(#2171),#2164,.T.);
#2179=EDGE_CURVE('',#1004,#1012,#757,.T.);
#2185=ADVANCED_FACE('',(#2184),#2177,.T.);
#2192=EDGE_CURVE('',#1001,#1009,#765,.T.);
#2198=ADVANCED_FACE('',(#2197),#2190,.T.);
#2210=ADVANCED_FACE('',(#2209),#2203,.T.);
#2216=EDGE_CURVE('',#979,#972,#777,.T.);
#2223=ADVANCED_FACE('',(#2222),#2215,.F.);
#2235=ADVANCED_FACE('',(#2234),#2228,.F.);
#2244=EDGE_CURVE('',#1029,#1021,#781,.T.);
#2248=ADVANCED_FACE('',(#2247),#2240,.F.);
#2260=ADVANCED_FACE('',(#2259),#2253,.F.);
#2270=EDGE_CURVE('',#1061,#1097,#793,.T.);
#2272=EDGE_CURVE('',#1060,#1061,#797,.T.);
#2274=EDGE_CURVE('',#1057,#1060,#821,.T.);
#2276=EDGE_CURVE('',#1056,#1057,#801,.T.);
#2280=ADVANCED_FACE('',(#2279),#2265,.T.);
#2288=EDGE_CURVE('',#1053,#1061,#805,.T.);
#2293=ADVANCED_FACE('',(#2292),#2285,.T.);
#2300=EDGE_CURVE('',#1052,#1060,#809,.T.);
#2306=ADVANCED_FACE('',(#2305),#2298,.T.);
#2313=EDGE_CURVE('',#1049,#1057,#817,.T.);
#2319=ADVANCED_FACE('',(#2318),#2311,.T.);
#2331=ADVANCED_FACE('',(#2330),#2324,.T.);
#2334=(LENGTH_UNIT()NAMED_UNIT(*)SI_UNIT(.MILLI.,.METRE.));
#2335=(NAMED_UNIT(*)PLANE_ANGLE_UNIT()SI_UNIT($,.RADIAN.));
#2338=(NAMED_UNIT(*)SI_UNIT($,.STERADIAN.)SOLID_ANGLE_UNIT());
#2340=(GEOMETRIC_REPRESENTATION_CONTEXT(3)GLOBAL_UNCERTAINTY_ASSIGNED_CONTEXT((
#2339))GLOBAL_UNIT_ASSIGNED_CONTEXT((#2334,#2337,#2338))REPRESENTATION_CONTEXT(
'ID1','3'));
#2341=ADVANCED_BREP_SHAPE_REPRESENTATION('',(#2333),#2340);
#2348=PRODUCT_DEFINITION('part definition','',#2347,#2344);
#2349=PRODUCT_DEFINITION_SHAPE('','SHAPE FOR C-5-1775444-3.',#2348);
#2350=SHAPE_ASPECT('','solid data associated with C-5-1775444-3',#2349,.F.);
#2351=PROPERTY_DEFINITION('',
'shape for solid data with which properties are associated',#2350);
#2352=SHAPE_REPRESENTATION('',(#2333),#2340);
#2353=SHAPE_DEFINITION_REPRESENTATION(#2351,#2352);
#2354=(LENGTH_UNIT()NAMED_UNIT(*)SI_UNIT(.MILLI.,.METRE.));
#2358=PROPERTY_DEFINITION('geometric validation property',
'area of C-5-1775444-3',#2350);
#2359=REPRESENTATION('surface area',(#2357),#2340);
#2360=PROPERTY_DEFINITION_REPRESENTATION(#2358,#2359);
#2361=(LENGTH_UNIT()NAMED_UNIT(*)SI_UNIT(.MILLI.,.METRE.));
#2365=PROPERTY_DEFINITION('geometric validation property',
'volume of C-5-1775444-3',#2350);
#2366=REPRESENTATION('volume',(#2364),#2340);
#2367=PROPERTY_DEFINITION_REPRESENTATION(#2365,#2366);
#2369=PROPERTY_DEFINITION('geometric validation property',
'centroid of C-5-1775444-3',#2350);
#2370=REPRESENTATION('centroid',(#2368),#2340);
#2371=PROPERTY_DEFINITION_REPRESENTATION(#2369,#2370);
#2372=(LENGTH_UNIT()NAMED_UNIT(*)SI_UNIT(.MILLI.,.METRE.));
#2376=PROPERTY_DEFINITION('geometric validation property',
'area of C-5-1775444-3',#2349);
#2377=REPRESENTATION('surface area',(#2375),#2340);
#2378=PROPERTY_DEFINITION_REPRESENTATION(#2376,#2377);
#2379=(LENGTH_UNIT()NAMED_UNIT(*)SI_UNIT(.MILLI.,.METRE.));
#2383=PROPERTY_DEFINITION('geometric validation property',
'volume of C-5-1775444-3',#2349);
#2384=REPRESENTATION('volume',(#2382),#2340);
#2385=PROPERTY_DEFINITION_REPRESENTATION(#2383,#2384);
#2387=PROPERTY_DEFINITION('geometric validation property',
'centroid of C-5-1775444-3',#2349);
#2388=REPRESENTATION('centroid',(#2386),#2340);
#2389=PROPERTY_DEFINITION_REPRESENTATION(#2387,#2388);
#2390=SHAPE_DEFINITION_REPRESENTATION(#2349,#2341);
ENDSEC;
END-ISO-10303-21;
