ISO-10303-21;
HEADER;
FILE_DESCRIPTION(('STEP AP214'),'1');
FILE_NAME('DSBGA30_YBG_TEX','2026-03-28T09:12:18',(''),(''),'','','');
FILE_SCHEMA(('AUTOMOTIVE_DESIGN'));
ENDSEC;
DATA;
#1=SHAPE_DEFINITION_REPRESENTATION(#2,#3);
#2=PRODUCT_DEFINITION_SHAPE('',$,#4);
#3=SHAPE_REPRESENTATION('',(#188,#197,#206,#215,#224,#233,#242,#251,#260,#269,#278,#287,#296,#305,#314,#323,#332,#341,#350,#359,#368,#377,#386,#395,#404,#413,#422,#431,#440,#449,#459,#515,#19),#11);
#4=PRODUCT_DEFINITION('design','example product_definition',#6,#5);
#5=PRODUCT_DEFINITION_CONTEXT('3D Mechanical Parts',#10,'design');
#6=PRODUCT_DEFINITION_FORMATION('1.0','first version',#8);
#7=APPLICATION_PROTOCOL_DEFINITION('international standard','automotive_design',2003,#10);
#8=PRODUCT('product','part','',(#9));
#9=PRODUCT_CONTEXT('3D Mechanical Parts',#10,'mechanical');
#10=APPLICATION_CONTEXT('Core Data for Automotive Mechanical Design Process');
#11=(GEOMETRIC_REPRESENTATION_CONTEXT(3) GLOBAL_UNCERTAINTY_ASSIGNED_CONTEXT((#12)) GLOBAL_UNIT_ASSIGNED_CONTEXT((#13,#14,#18)) REPRESENTATION_CONTEXT('ID1','3D'));
#12=UNCERTAINTY_MEASURE_WITH_UNIT(LENGTH_MEASURE(1.E-005),#13,'DISTANCE_ACCURACY_VALUE','Maximum model space distance between geometric entities at asserted connectivities');
#13=(LENGTH_UNIT() NAMED_UNIT(*) SI_UNIT(.MILLI.,.METRE.));
#14=(CONVERSION_BASED_UNIT('degree',#16) NAMED_UNIT(#15) PLANE_ANGLE_UNIT());
#15=DIMENSIONAL_EXPONENTS(0.,0.,0.,0.,0.,0.,0.);
#16=MEASURE_WITH_UNIT(PLANE_ANGLE_MEASURE(0.01745329252),#17);
#17=(NAMED_UNIT(*) PLANE_ANGLE_UNIT() SI_UNIT($,.RADIAN.));
#18=(NAMED_UNIT(*) SI_UNIT($,.STERADIAN.) SOLID_ANGLE_UNIT());
#19=AXIS2_PLACEMENT_3D('',#20,#21,#22);
#20=CARTESIAN_POINT('',(0.0,0.0,0.0));
#21=DIRECTION('',(0.0,0.0,1.0));
#22=DIRECTION('',(1.0,0.0,0.0));
#25=MECHANICAL_DESIGN_GEOMETRIC_PRESENTATION_REPRESENTATION($,(#190,#199,#208,#217,#226,#235,#244,#253,#262,#271,#280,#289,#298,#307,#316,#325,#334,#343,#352,#361,#370,#379,#388,#397,#406,#415,#424,#433,#442,#451,#511,#512,#513,#517,#566,#615,#664,#713,#762),#11);
#26=PRODUCT_CATEGORY_RELATIONSHIP('','',#27,#28);
#27=PRODUCT_CATEGORY('part','');
#28=PRODUCT_RELATED_PRODUCT_CATEGORY('','',(#8));
#34=PRESENTATION_STYLE_ASSIGNMENT((#35,#40));
#35=SURFACE_STYLE_USAGE(.BOTH.,#36);
#36=SURFACE_SIDE_STYLE('',(#37));
#37=SURFACE_STYLE_FILL_AREA(#38);
#38=FILL_AREA_STYLE('',(#39));
#39=FILL_AREA_STYLE_COLOUR('',#41);
#40=CURVE_STYLE('',#42,POSITIVE_LENGTH_MEASURE(0.1),#41);
#41=COLOUR_RGB('Aluminum',0.725,0.725,0.725);
#42=DRAUGHTING_PRE_DEFINED_CURVE_FONT('continuous');
#43=PRESENTATION_STYLE_ASSIGNMENT((#44,#49));
#44=SURFACE_STYLE_USAGE(.BOTH.,#45);
#45=SURFACE_SIDE_STYLE('',(#46));
#46=SURFACE_STYLE_FILL_AREA(#47);
#47=FILL_AREA_STYLE('',(#48));
#48=FILL_AREA_STYLE_COLOUR('',#50);
#49=CURVE_STYLE('',#51,POSITIVE_LENGTH_MEASURE(0.1),#50);
#50=COLOUR_RGB('Black',0.196,0.196,0.196);
#51=DRAUGHTING_PRE_DEFINED_CURVE_FONT('continuous');
#52=PRESENTATION_STYLE_ASSIGNMENT((#53,#58));
#53=SURFACE_STYLE_USAGE(.BOTH.,#54);
#54=SURFACE_SIDE_STYLE('',(#55));
#55=SURFACE_STYLE_FILL_AREA(#56);
#56=FILL_AREA_STYLE('',(#57));
#57=FILL_AREA_STYLE_COLOUR('',#59);
#58=CURVE_STYLE('',#60,POSITIVE_LENGTH_MEASURE(0.1),#59);
#59=COLOUR_RGB('Pin1',0.588,0.588,0.588);
#60=DRAUGHTING_PRE_DEFINED_CURVE_FONT('continuous');
#61=PRESENTATION_STYLE_ASSIGNMENT((#62,#67));
#62=SURFACE_STYLE_USAGE(.BOTH.,#63);
#63=SURFACE_SIDE_STYLE('',(#64));
#64=SURFACE_STYLE_FILL_AREA(#65);
#65=FILL_AREA_STYLE('',(#66));
#66=FILL_AREA_STYLE_COLOUR('',#68);
#67=CURVE_STYLE('',#69,POSITIVE_LENGTH_MEASURE(0.1),#68);
#68=COLOUR_RGB('HeatTab',0.588,0.588,0.588);
#69=DRAUGHTING_PRE_DEFINED_CURVE_FONT('continuous');
#70=PRESENTATION_STYLE_ASSIGNMENT((#71,#76));
#71=SURFACE_STYLE_USAGE(.BOTH.,#72);
#72=SURFACE_SIDE_STYLE('',(#73));
#73=SURFACE_STYLE_FILL_AREA(#74);
#74=FILL_AREA_STYLE('',(#75));
#75=FILL_AREA_STYLE_COLOUR('',#77);
#76=CURVE_STYLE('',#78,POSITIVE_LENGTH_MEASURE(0.1),#77);
#77=COLOUR_RGB('Gold',0.843,0.686,0.0);
#78=DRAUGHTING_PRE_DEFINED_CURVE_FONT('continuous');
#79=PRESENTATION_STYLE_ASSIGNMENT((#80,#85));
#80=SURFACE_STYLE_USAGE(.BOTH.,#81);
#81=SURFACE_SIDE_STYLE('',(#82));
#82=SURFACE_STYLE_FILL_AREA(#83);
#83=FILL_AREA_STYLE('',(#84));
#84=FILL_AREA_STYLE_COLOUR('',#86);
#85=CURVE_STYLE('',#87,POSITIVE_LENGTH_MEASURE(0.1),#86);
#86=COLOUR_RGB('Brown',0.459,0.345,0.176);
#87=DRAUGHTING_PRE_DEFINED_CURVE_FONT('continuous');
#88=PRESENTATION_STYLE_ASSIGNMENT((#89,#94));
#89=SURFACE_STYLE_USAGE(.BOTH.,#90);
#90=SURFACE_SIDE_STYLE('',(#91));
#91=SURFACE_STYLE_FILL_AREA(#92);
#92=FILL_AREA_STYLE('',(#93));
#93=FILL_AREA_STYLE_COLOUR('',#95);
#94=CURVE_STYLE('',#96,POSITIVE_LENGTH_MEASURE(0.1),#95);
#95=COLOUR_RGB('Tan',0.784,0.686,0.51);
#96=DRAUGHTING_PRE_DEFINED_CURVE_FONT('continuous');
#97=PRESENTATION_STYLE_ASSIGNMENT((#98,#103));
#98=SURFACE_STYLE_USAGE(.BOTH.,#99);
#99=SURFACE_SIDE_STYLE('',(#100));
#100=SURFACE_STYLE_FILL_AREA(#101);
#101=FILL_AREA_STYLE('',(#102));
#102=FILL_AREA_STYLE_COLOUR('',#104);
#103=CURVE_STYLE('',#105,POSITIVE_LENGTH_MEASURE(0.1),#104);
#104=COLOUR_RGB('Gray',0.431,0.431,0.431);
#105=DRAUGHTING_PRE_DEFINED_CURVE_FONT('continuous');
#106=PRESENTATION_STYLE_ASSIGNMENT((#107,#112));
#107=SURFACE_STYLE_USAGE(.BOTH.,#108);
#108=SURFACE_SIDE_STYLE('',(#109));
#109=SURFACE_STYLE_FILL_AREA(#110);
#110=FILL_AREA_STYLE('',(#111));
#111=FILL_AREA_STYLE_COLOUR('',#113);
#112=CURVE_STYLE('',#114,POSITIVE_LENGTH_MEASURE(0.1),#113);
#113=COLOUR_RGB('Red',0.6,0.0,0.0);
#114=DRAUGHTING_PRE_DEFINED_CURVE_FONT('continuous');
#115=PRESENTATION_STYLE_ASSIGNMENT((#116,#121));
#116=SURFACE_STYLE_USAGE(.BOTH.,#117);
#117=SURFACE_SIDE_STYLE('',(#118));
#118=SURFACE_STYLE_FILL_AREA(#119);
#119=FILL_AREA_STYLE('',(#120));
#120=FILL_AREA_STYLE_COLOUR('',#122);
#121=CURVE_STYLE('',#123,POSITIVE_LENGTH_MEASURE(0.1),#122);
#122=COLOUR_RGB('Blue',0.157,0.157,0.588);
#123=DRAUGHTING_PRE_DEFINED_CURVE_FONT('continuous');
#124=PRESENTATION_STYLE_ASSIGNMENT((#125,#130));
#125=SURFACE_STYLE_USAGE(.BOTH.,#126);
#126=SURFACE_SIDE_STYLE('',(#127));
#127=SURFACE_STYLE_FILL_AREA(#128);
#128=FILL_AREA_STYLE('',(#129));
#129=FILL_AREA_STYLE_COLOUR('',#131);
#130=CURVE_STYLE('',#132,POSITIVE_LENGTH_MEASURE(0.1),#131);
#131=COLOUR_RGB('Maroon',0.294,0.0,0.0);
#132=DRAUGHTING_PRE_DEFINED_CURVE_FONT('continuous');
#133=PRESENTATION_STYLE_ASSIGNMENT((#134,#139));
#134=SURFACE_STYLE_USAGE(.BOTH.,#135);
#135=SURFACE_SIDE_STYLE('',(#136));
#136=SURFACE_STYLE_FILL_AREA(#137);
#137=FILL_AREA_STYLE('',(#138));
#138=FILL_AREA_STYLE_COLOUR('',#140);
#139=CURVE_STYLE('',#141,POSITIVE_LENGTH_MEASURE(0.1),#140);
#140=COLOUR_RGB('Green',0.0,0.294,0.0);
#141=DRAUGHTING_PRE_DEFINED_CURVE_FONT('continuous');
#142=PRESENTATION_STYLE_ASSIGNMENT((#143,#148));
#143=SURFACE_STYLE_USAGE(.BOTH.,#144);
#144=SURFACE_SIDE_STYLE('',(#145));
#145=SURFACE_STYLE_FILL_AREA(#146);
#146=FILL_AREA_STYLE('',(#147));
#147=FILL_AREA_STYLE_COLOUR('',#149);
#148=CURVE_STYLE('',#150,POSITIVE_LENGTH_MEASURE(0.1),#149);
#149=COLOUR_RGB('Pin1Wrap',0.98,0.706,0.176);
#150=DRAUGHTING_PRE_DEFINED_CURVE_FONT('continuous');
#151=PRESENTATION_STYLE_ASSIGNMENT((#152,#157));
#152=SURFACE_STYLE_USAGE(.BOTH.,#153);
#153=SURFACE_SIDE_STYLE('',(#154));
#154=SURFACE_STYLE_FILL_AREA(#155);
#155=FILL_AREA_STYLE('',(#156));
#156=FILL_AREA_STYLE_COLOUR('',#158);
#157=CURVE_STYLE('',#159,POSITIVE_LENGTH_MEASURE(0.1),#158);
#158=COLOUR_RGB('Pin1Rad',0.588,0.588,0.588);
#159=DRAUGHTING_PRE_DEFINED_CURVE_FONT('continuous');
#160=PRESENTATION_STYLE_ASSIGNMENT((#161,#166));
#161=SURFACE_STYLE_USAGE(.BOTH.,#162);
#162=SURFACE_SIDE_STYLE('',(#163));
#163=SURFACE_STYLE_FILL_AREA(#164);
#164=FILL_AREA_STYLE('',(#165));
#165=FILL_AREA_STYLE_COLOUR('',#167);
#166=CURVE_STYLE('',#168,POSITIVE_LENGTH_MEASURE(0.1),#167);
#167=COLOUR_RGB('Pin1Axial',0.98,0.706,0.176);
#168=DRAUGHTING_PRE_DEFINED_CURVE_FONT('continuous');
#169=PRESENTATION_STYLE_ASSIGNMENT((#170,#175));
#170=SURFACE_STYLE_USAGE(.BOTH.,#171);
#171=SURFACE_SIDE_STYLE('',(#172));
#172=SURFACE_STYLE_FILL_AREA(#173);
#173=FILL_AREA_STYLE('',(#174));
#174=FILL_AREA_STYLE_COLOUR('',#176);
#175=CURVE_STYLE('',#177,POSITIVE_LENGTH_MEASURE(0.1),#176);
#176=COLOUR_RGB('Pin1Tant',0.459,0.345,0.176);
#177=DRAUGHTING_PRE_DEFINED_CURVE_FONT('continuous');
#178=PRESENTATION_STYLE_ASSIGNMENT((#179,#184));
#179=SURFACE_STYLE_USAGE(.BOTH.,#180);
#180=SURFACE_SIDE_STYLE('',(#181));
#181=SURFACE_STYLE_FILL_AREA(#182);
#182=FILL_AREA_STYLE('',(#183));
#183=FILL_AREA_STYLE_COLOUR('',#185);
#184=CURVE_STYLE('',#186,POSITIVE_LENGTH_MEASURE(0.1),#185);
#185=COLOUR_RGB('Shroud',0.235,0.235,0.235);
#186=DRAUGHTING_PRE_DEFINED_CURVE_FONT('continuous');
#188=MANIFOLD_SOLID_BREP($,#189);
#189=CLOSED_SHELL('',(#191));
#190=STYLED_ITEM('color',(#34),#191);
#191=ADVANCED_FACE('',(),#192,.T.);
#192=SPHERICAL_SURFACE('',#193,0.127);
#193=AXIS2_PLACEMENT_3D('',#194,#195,#196);
#194=CARTESIAN_POINT('',(-0.8,1.0,0.127));
#195=DIRECTION('',(0.,0.,-1.));
#196=DIRECTION('',(-1.,0.,0.));
#197=MANIFOLD_SOLID_BREP($,#198);
#198=CLOSED_SHELL('',(#200));
#199=STYLED_ITEM('color',(#34),#200);
#200=ADVANCED_FACE('',(),#201,.T.);
#201=SPHERICAL_SURFACE('',#202,0.127);
#202=AXIS2_PLACEMENT_3D('',#203,#204,#205);
#203=CARTESIAN_POINT('',(-0.4,1.0,0.127));
#204=DIRECTION('',(0.,0.,-1.));
#205=DIRECTION('',(-1.,0.,0.));
#206=MANIFOLD_SOLID_BREP($,#207);
#207=CLOSED_SHELL('',(#209));
#208=STYLED_ITEM('color',(#34),#209);
#209=ADVANCED_FACE('',(),#210,.T.);
#210=SPHERICAL_SURFACE('',#211,0.127);
#211=AXIS2_PLACEMENT_3D('',#212,#213,#214);
#212=CARTESIAN_POINT('',(0.0,1.0,0.127));
#213=DIRECTION('',(0.,0.,-1.));
#214=DIRECTION('',(-1.,0.,0.));
#215=MANIFOLD_SOLID_BREP($,#216);
#216=CLOSED_SHELL('',(#218));
#217=STYLED_ITEM('color',(#34),#218);
#218=ADVANCED_FACE('',(),#219,.T.);
#219=SPHERICAL_SURFACE('',#220,0.127);
#220=AXIS2_PLACEMENT_3D('',#221,#222,#223);
#221=CARTESIAN_POINT('',(0.4,1.0,0.127));
#222=DIRECTION('',(0.,0.,-1.));
#223=DIRECTION('',(-1.,0.,0.));
#224=MANIFOLD_SOLID_BREP($,#225);
#225=CLOSED_SHELL('',(#227));
#226=STYLED_ITEM('color',(#34),#227);
#227=ADVANCED_FACE('',(),#228,.T.);
#228=SPHERICAL_SURFACE('',#229,0.127);
#229=AXIS2_PLACEMENT_3D('',#230,#231,#232);
#230=CARTESIAN_POINT('',(0.8,1.0,0.127));
#231=DIRECTION('',(0.,0.,-1.));
#232=DIRECTION('',(-1.,0.,0.));
#233=MANIFOLD_SOLID_BREP($,#234);
#234=CLOSED_SHELL('',(#236));
#235=STYLED_ITEM('color',(#34),#236);
#236=ADVANCED_FACE('',(),#237,.T.);
#237=SPHERICAL_SURFACE('',#238,0.127);
#238=AXIS2_PLACEMENT_3D('',#239,#240,#241);
#239=CARTESIAN_POINT('',(-0.8,0.6,0.127));
#240=DIRECTION('',(0.,0.,-1.));
#241=DIRECTION('',(-1.,0.,0.));
#242=MANIFOLD_SOLID_BREP($,#243);
#243=CLOSED_SHELL('',(#245));
#244=STYLED_ITEM('color',(#34),#245);
#245=ADVANCED_FACE('',(),#246,.T.);
#246=SPHERICAL_SURFACE('',#247,0.127);
#247=AXIS2_PLACEMENT_3D('',#248,#249,#250);
#248=CARTESIAN_POINT('',(-0.4,0.6,0.127));
#249=DIRECTION('',(0.,0.,-1.));
#250=DIRECTION('',(-1.,0.,0.));
#251=MANIFOLD_SOLID_BREP($,#252);
#252=CLOSED_SHELL('',(#254));
#253=STYLED_ITEM('color',(#34),#254);
#254=ADVANCED_FACE('',(),#255,.T.);
#255=SPHERICAL_SURFACE('',#256,0.127);
#256=AXIS2_PLACEMENT_3D('',#257,#258,#259);
#257=CARTESIAN_POINT('',(0.0,0.6,0.127));
#258=DIRECTION('',(0.,0.,-1.));
#259=DIRECTION('',(-1.,0.,0.));
#260=MANIFOLD_SOLID_BREP($,#261);
#261=CLOSED_SHELL('',(#263));
#262=STYLED_ITEM('color',(#34),#263);
#263=ADVANCED_FACE('',(),#264,.T.);
#264=SPHERICAL_SURFACE('',#265,0.127);
#265=AXIS2_PLACEMENT_3D('',#266,#267,#268);
#266=CARTESIAN_POINT('',(0.4,0.6,0.127));
#267=DIRECTION('',(0.,0.,-1.));
#268=DIRECTION('',(-1.,0.,0.));
#269=MANIFOLD_SOLID_BREP($,#270);
#270=CLOSED_SHELL('',(#272));
#271=STYLED_ITEM('color',(#34),#272);
#272=ADVANCED_FACE('',(),#273,.T.);
#273=SPHERICAL_SURFACE('',#274,0.127);
#274=AXIS2_PLACEMENT_3D('',#275,#276,#277);
#275=CARTESIAN_POINT('',(0.8,0.6,0.127));
#276=DIRECTION('',(0.,0.,-1.));
#277=DIRECTION('',(-1.,0.,0.));
#278=MANIFOLD_SOLID_BREP($,#279);
#279=CLOSED_SHELL('',(#281));
#280=STYLED_ITEM('color',(#34),#281);
#281=ADVANCED_FACE('',(),#282,.T.);
#282=SPHERICAL_SURFACE('',#283,0.127);
#283=AXIS2_PLACEMENT_3D('',#284,#285,#286);
#284=CARTESIAN_POINT('',(-0.8,0.2,0.127));
#285=DIRECTION('',(0.,0.,-1.));
#286=DIRECTION('',(-1.,0.,0.));
#287=MANIFOLD_SOLID_BREP($,#288);
#288=CLOSED_SHELL('',(#290));
#289=STYLED_ITEM('color',(#34),#290);
#290=ADVANCED_FACE('',(),#291,.T.);
#291=SPHERICAL_SURFACE('',#292,0.127);
#292=AXIS2_PLACEMENT_3D('',#293,#294,#295);
#293=CARTESIAN_POINT('',(-0.4,0.2,0.127));
#294=DIRECTION('',(0.,0.,-1.));
#295=DIRECTION('',(-1.,0.,0.));
#296=MANIFOLD_SOLID_BREP($,#297);
#297=CLOSED_SHELL('',(#299));
#298=STYLED_ITEM('color',(#34),#299);
#299=ADVANCED_FACE('',(),#300,.T.);
#300=SPHERICAL_SURFACE('',#301,0.127);
#301=AXIS2_PLACEMENT_3D('',#302,#303,#304);
#302=CARTESIAN_POINT('',(0.0,0.2,0.127));
#303=DIRECTION('',(0.,0.,-1.));
#304=DIRECTION('',(-1.,0.,0.));
#305=MANIFOLD_SOLID_BREP($,#306);
#306=CLOSED_SHELL('',(#308));
#307=STYLED_ITEM('color',(#34),#308);
#308=ADVANCED_FACE('',(),#309,.T.);
#309=SPHERICAL_SURFACE('',#310,0.127);
#310=AXIS2_PLACEMENT_3D('',#311,#312,#313);
#311=CARTESIAN_POINT('',(0.4,0.2,0.127));
#312=DIRECTION('',(0.,0.,-1.));
#313=DIRECTION('',(-1.,0.,0.));
#314=MANIFOLD_SOLID_BREP($,#315);
#315=CLOSED_SHELL('',(#317));
#316=STYLED_ITEM('color',(#34),#317);
#317=ADVANCED_FACE('',(),#318,.T.);
#318=SPHERICAL_SURFACE('',#319,0.127);
#319=AXIS2_PLACEMENT_3D('',#320,#321,#322);
#320=CARTESIAN_POINT('',(0.8,0.2,0.127));
#321=DIRECTION('',(0.,0.,-1.));
#322=DIRECTION('',(-1.,0.,0.));
#323=MANIFOLD_SOLID_BREP($,#324);
#324=CLOSED_SHELL('',(#326));
#325=STYLED_ITEM('color',(#34),#326);
#326=ADVANCED_FACE('',(),#327,.T.);
#327=SPHERICAL_SURFACE('',#328,0.127);
#328=AXIS2_PLACEMENT_3D('',#329,#330,#331);
#329=CARTESIAN_POINT('',(-0.8,-0.2,0.127));
#330=DIRECTION('',(0.,0.,-1.));
#331=DIRECTION('',(-1.,0.,0.));
#332=MANIFOLD_SOLID_BREP($,#333);
#333=CLOSED_SHELL('',(#335));
#334=STYLED_ITEM('color',(#34),#335);
#335=ADVANCED_FACE('',(),#336,.T.);
#336=SPHERICAL_SURFACE('',#337,0.127);
#337=AXIS2_PLACEMENT_3D('',#338,#339,#340);
#338=CARTESIAN_POINT('',(-0.4,-0.2,0.127));
#339=DIRECTION('',(0.,0.,-1.));
#340=DIRECTION('',(-1.,0.,0.));
#341=MANIFOLD_SOLID_BREP($,#342);
#342=CLOSED_SHELL('',(#344));
#343=STYLED_ITEM('color',(#34),#344);
#344=ADVANCED_FACE('',(),#345,.T.);
#345=SPHERICAL_SURFACE('',#346,0.127);
#346=AXIS2_PLACEMENT_3D('',#347,#348,#349);
#347=CARTESIAN_POINT('',(0.0,-0.2,0.127));
#348=DIRECTION('',(0.,0.,-1.));
#349=DIRECTION('',(-1.,0.,0.));
#350=MANIFOLD_SOLID_BREP($,#351);
#351=CLOSED_SHELL('',(#353));
#352=STYLED_ITEM('color',(#34),#353);
#353=ADVANCED_FACE('',(),#354,.T.);
#354=SPHERICAL_SURFACE('',#355,0.127);
#355=AXIS2_PLACEMENT_3D('',#356,#357,#358);
#356=CARTESIAN_POINT('',(0.4,-0.2,0.127));
#357=DIRECTION('',(0.,0.,-1.));
#358=DIRECTION('',(-1.,0.,0.));
#359=MANIFOLD_SOLID_BREP($,#360);
#360=CLOSED_SHELL('',(#362));
#361=STYLED_ITEM('color',(#34),#362);
#362=ADVANCED_FACE('',(),#363,.T.);
#363=SPHERICAL_SURFACE('',#364,0.127);
#364=AXIS2_PLACEMENT_3D('',#365,#366,#367);
#365=CARTESIAN_POINT('',(0.8,-0.2,0.127));
#366=DIRECTION('',(0.,0.,-1.));
#367=DIRECTION('',(-1.,0.,0.));
#368=MANIFOLD_SOLID_BREP($,#369);
#369=CLOSED_SHELL('',(#371));
#370=STYLED_ITEM('color',(#34),#371);
#371=ADVANCED_FACE('',(),#372,.T.);
#372=SPHERICAL_SURFACE('',#373,0.127);
#373=AXIS2_PLACEMENT_3D('',#374,#375,#376);
#374=CARTESIAN_POINT('',(-0.8,-0.6,0.127));
#375=DIRECTION('',(0.,0.,-1.));
#376=DIRECTION('',(-1.,0.,0.));
#377=MANIFOLD_SOLID_BREP($,#378);
#378=CLOSED_SHELL('',(#380));
#379=STYLED_ITEM('color',(#34),#380);
#380=ADVANCED_FACE('',(),#381,.T.);
#381=SPHERICAL_SURFACE('',#382,0.127);
#382=AXIS2_PLACEMENT_3D('',#383,#384,#385);
#383=CARTESIAN_POINT('',(-0.4,-0.6,0.127));
#384=DIRECTION('',(0.,0.,-1.));
#385=DIRECTION('',(-1.,0.,0.));
#386=MANIFOLD_SOLID_BREP($,#387);
#387=CLOSED_SHELL('',(#389));
#388=STYLED_ITEM('color',(#34),#389);
#389=ADVANCED_FACE('',(),#390,.T.);
#390=SPHERICAL_SURFACE('',#391,0.127);
#391=AXIS2_PLACEMENT_3D('',#392,#393,#394);
#392=CARTESIAN_POINT('',(0.0,-0.6,0.127));
#393=DIRECTION('',(0.,0.,-1.));
#394=DIRECTION('',(-1.,0.,0.));
#395=MANIFOLD_SOLID_BREP($,#396);
#396=CLOSED_SHELL('',(#398));
#397=STYLED_ITEM('color',(#34),#398);
#398=ADVANCED_FACE('',(),#399,.T.);
#399=SPHERICAL_SURFACE('',#400,0.127);
#400=AXIS2_PLACEMENT_3D('',#401,#402,#403);
#401=CARTESIAN_POINT('',(0.4,-0.6,0.127));
#402=DIRECTION('',(0.,0.,-1.));
#403=DIRECTION('',(-1.,0.,0.));
#404=MANIFOLD_SOLID_BREP($,#405);
#405=CLOSED_SHELL('',(#407));
#406=STYLED_ITEM('color',(#34),#407);
#407=ADVANCED_FACE('',(),#408,.T.);
#408=SPHERICAL_SURFACE('',#409,0.127);
#409=AXIS2_PLACEMENT_3D('',#410,#411,#412);
#410=CARTESIAN_POINT('',(0.8,-0.6,0.127));
#411=DIRECTION('',(0.,0.,-1.));
#412=DIRECTION('',(-1.,0.,0.));
#413=MANIFOLD_SOLID_BREP($,#414);
#414=CLOSED_SHELL('',(#416));
#415=STYLED_ITEM('color',(#34),#416);
#416=ADVANCED_FACE('',(),#417,.T.);
#417=SPHERICAL_SURFACE('',#418,0.127);
#418=AXIS2_PLACEMENT_3D('',#419,#420,#421);
#419=CARTESIAN_POINT('',(-0.8,-1.0,0.127));
#420=DIRECTION('',(0.,0.,-1.));
#421=DIRECTION('',(-1.,0.,0.));
#422=MANIFOLD_SOLID_BREP($,#423);
#423=CLOSED_SHELL('',(#425));
#424=STYLED_ITEM('color',(#34),#425);
#425=ADVANCED_FACE('',(),#426,.T.);
#426=SPHERICAL_SURFACE('',#427,0.127);
#427=AXIS2_PLACEMENT_3D('',#428,#429,#430);
#428=CARTESIAN_POINT('',(-0.4,-1.0,0.127));
#429=DIRECTION('',(0.,0.,-1.));
#430=DIRECTION('',(-1.,0.,0.));
#431=MANIFOLD_SOLID_BREP($,#432);
#432=CLOSED_SHELL('',(#434));
#433=STYLED_ITEM('color',(#34),#434);
#434=ADVANCED_FACE('',(),#435,.T.);
#435=SPHERICAL_SURFACE('',#436,0.127);
#436=AXIS2_PLACEMENT_3D('',#437,#438,#439);
#437=CARTESIAN_POINT('',(0.0,-1.0,0.127));
#438=DIRECTION('',(0.,0.,-1.));
#439=DIRECTION('',(-1.,0.,0.));
#440=MANIFOLD_SOLID_BREP($,#441);
#441=CLOSED_SHELL('',(#443));
#442=STYLED_ITEM('color',(#34),#443);
#443=ADVANCED_FACE('',(),#444,.T.);
#444=SPHERICAL_SURFACE('',#445,0.127);
#445=AXIS2_PLACEMENT_3D('',#446,#447,#448);
#446=CARTESIAN_POINT('',(0.4,-1.0,0.127));
#447=DIRECTION('',(0.,0.,-1.));
#448=DIRECTION('',(-1.,0.,0.));
#449=MANIFOLD_SOLID_BREP($,#450);
#450=CLOSED_SHELL('',(#452));
#451=STYLED_ITEM('color',(#34),#452);
#452=ADVANCED_FACE('',(),#453,.T.);
#453=SPHERICAL_SURFACE('',#454,0.127);
#454=AXIS2_PLACEMENT_3D('',#455,#456,#457);
#455=CARTESIAN_POINT('',(0.8,-1.0,0.127));
#456=DIRECTION('',(0.,0.,-1.));
#457=DIRECTION('',(-1.,0.,0.));
#459=MANIFOLD_SOLID_BREP($,#460);
#460=CLOSED_SHELL('',(#461,#462,#463));
#461=ADVANCED_FACE($,(#467,#466),#484,.T.);
#462=ADVANCED_FACE($,(#468),#464,.F.);
#463=ADVANCED_FACE($,(#469),#465,.T.);
#464=PLANE($,#489);
#465=PLANE($,#490);
#466=FACE_BOUND($,#471,.T.);
#467=FACE_OUTER_BOUND($,#470,.T.);
#468=FACE_OUTER_BOUND($,#472,.T.);
#469=FACE_OUTER_BOUND($,#473,.T.);
#470=EDGE_LOOP($,(#480));
#471=EDGE_LOOP($,(#481));
#472=EDGE_LOOP($,(#482));
#473=EDGE_LOOP($,(#483));
#474=CIRCLE($,#487,0.050165);
#475=CIRCLE($,#488,0.050165);
#476=VERTEX_POINT('',#505);
#477=VERTEX_POINT('',#507);
#478=EDGE_CURVE($,#476,#476,#474,.T.);
#479=EDGE_CURVE($,#477,#477,#475,.T.);
#480=ORIENTED_EDGE($,*,*,#478,.F.);
#481=ORIENTED_EDGE($,*,*,#479,.F.);
#482=ORIENTED_EDGE($,*,*,#479,.T.);
#483=ORIENTED_EDGE($,*,*,#478,.T.);
#484=CYLINDRICAL_SURFACE($,#486,0.050165);
#485=AXIS2_PLACEMENT_3D('placement',#503,#491,#492);
#486=AXIS2_PLACEMENT_3D($,#504,#493,#494);
#487=AXIS2_PLACEMENT_3D($,#506,#495,#496);
#488=AXIS2_PLACEMENT_3D($,#508,#497,#498);
#489=AXIS2_PLACEMENT_3D($,#509,#499,#500);
#490=AXIS2_PLACEMENT_3D($,#510,#501,#502);
#491=DIRECTION('axis',(0.,1.,0.));
#492=DIRECTION('refdir',(1.,0.,0.));
#493=DIRECTION('',(0.,0.,1.));
#494=DIRECTION('',(1.,0.,0.));
#495=DIRECTION('',(0.,0.,1.));
#496=DIRECTION('',(1.,0.,0.));
#497=DIRECTION('',(0.,0.,-1.));
#498=DIRECTION('',(1.,0.,0.));
#499=DIRECTION('',(0.,0.,1.));
#500=DIRECTION('',(0.,1.,0.));
#501=DIRECTION('',(0.,0.,1.));
#502=DIRECTION('',(0.,1.,0.));
#503=CARTESIAN_POINT('',(0.,0.,0.));
#504=CARTESIAN_POINT('',(-0.803,0.942,0.508));
#505=CARTESIAN_POINT('',(-0.853,0.942,0.511));
#506=CARTESIAN_POINT('',(-0.803,0.942,0.511));
#507=CARTESIAN_POINT('',(-0.853,0.942,0.508));
#508=CARTESIAN_POINT('',(-0.803,0.942,0.508));
#509=CARTESIAN_POINT('',(-0.803,0.942,0.508));
#510=CARTESIAN_POINT('',(-0.803,0.942,0.511));
#511=STYLED_ITEM('color',(#52),#461);
#512=STYLED_ITEM('color',(#52),#462);
#513=STYLED_ITEM('color',(#52),#463);
#515=MANIFOLD_SOLID_BREP($,#516);
#516=CLOSED_SHELL('',(#518,#567,#616,#665,#714,#763));
#517=STYLED_ITEM('',(#43),#518);
#518=ADVANCED_FACE('',(#524),#519,.T.);
#519=PLANE('',#520);
#520=AXIS2_PLACEMENT_3D('',#521,#522,#523);
#521=CARTESIAN_POINT('',(-1.003,-1.143,0.253));
#522=DIRECTION('',(0.0,-1.0,0.0));
#523=DIRECTION('',(0.,0.,1.));
#524=FACE_OUTER_BOUND('',#525,.T.);
#525=EDGE_LOOP('',(#526,#536,#546,#556));
#529=CARTESIAN_POINT('',(1.003,-1.143,0.253));
#528=VERTEX_POINT('',#529);
#531=CARTESIAN_POINT('',(-1.003,-1.143,0.253));
#530=VERTEX_POINT('',#531);
#527=EDGE_CURVE('',#528,#530,#532,.T.);
#532=LINE('',#529,#534);
#534=VECTOR('',#535,2.0066);
#535=DIRECTION('',(-1.0,0.0,0.0));
#526=ORIENTED_EDGE('',*,*,#527,.F.);
#539=CARTESIAN_POINT('',(1.003,-1.143,0.508));
#538=VERTEX_POINT('',#539);
#537=EDGE_CURVE('',#538,#528,#542,.T.);
#542=LINE('',#539,#544);
#544=VECTOR('',#545,0.2550000000066);
#545=DIRECTION('',(0.0,0.0,-1.0));
#536=ORIENTED_EDGE('',*,*,#537,.F.);
#549=CARTESIAN_POINT('',(-1.003,-1.143,0.508));
#548=VERTEX_POINT('',#549);
#547=EDGE_CURVE('',#548,#538,#552,.T.);
#552=LINE('',#549,#554);
#554=VECTOR('',#555,2.0066);
#555=DIRECTION('',(1.0,0.0,0.0));
#546=ORIENTED_EDGE('',*,*,#547,.F.);
#557=EDGE_CURVE('',#530,#548,#562,.T.);
#562=LINE('',#531,#564);
#564=VECTOR('',#565,0.2550000000066);
#565=DIRECTION('',(0.0,0.0,1.0));
#556=ORIENTED_EDGE('',*,*,#557,.F.);
#566=STYLED_ITEM('',(#43),#567);
#567=ADVANCED_FACE('',(#573),#568,.T.);
#568=PLANE('',#569);
#569=AXIS2_PLACEMENT_3D('',#570,#571,#572);
#570=CARTESIAN_POINT('',(1.003,-1.143,0.253));
#571=DIRECTION('',(1.0,0.0,0.0));
#572=DIRECTION('',(0.,0.,1.));
#573=FACE_OUTER_BOUND('',#574,.T.);
#574=EDGE_LOOP('',(#575,#585,#595,#605));
#578=CARTESIAN_POINT('',(1.003,1.143,0.253));
#577=VERTEX_POINT('',#578);
#576=EDGE_CURVE('',#577,#528,#581,.T.);
#581=LINE('',#578,#583);
#583=VECTOR('',#584,2.286);
#584=DIRECTION('',(0.0,-1.0,0.0));
#575=ORIENTED_EDGE('',*,*,#576,.F.);
#588=CARTESIAN_POINT('',(1.003,1.143,0.508));
#587=VERTEX_POINT('',#588);
#586=EDGE_CURVE('',#587,#577,#591,.T.);
#591=LINE('',#588,#593);
#593=VECTOR('',#594,0.2550000000066);
#594=DIRECTION('',(0.0,0.0,-1.0));
#585=ORIENTED_EDGE('',*,*,#586,.F.);
#596=EDGE_CURVE('',#538,#587,#601,.T.);
#601=LINE('',#539,#603);
#603=VECTOR('',#604,2.286);
#604=DIRECTION('',(0.0,1.0,0.0));
#595=ORIENTED_EDGE('',*,*,#596,.F.);
#605=ORIENTED_EDGE('',*,*,#537,.T.);
#615=STYLED_ITEM('',(#43),#616);
#616=ADVANCED_FACE('',(#622),#617,.T.);
#617=PLANE('',#618);
#618=AXIS2_PLACEMENT_3D('',#619,#620,#621);
#619=CARTESIAN_POINT('',(1.003,1.143,0.253));
#620=DIRECTION('',(0.0,1.0,0.0));
#621=DIRECTION('',(0.,0.,1.));
#622=FACE_OUTER_BOUND('',#623,.T.);
#623=EDGE_LOOP('',(#624,#634,#644,#654));
#627=CARTESIAN_POINT('',(-1.003,1.143,0.253));
#626=VERTEX_POINT('',#627);
#625=EDGE_CURVE('',#626,#577,#630,.T.);
#630=LINE('',#627,#632);
#632=VECTOR('',#633,2.0066);
#633=DIRECTION('',(1.0,0.0,0.0));
#624=ORIENTED_EDGE('',*,*,#625,.F.);
#637=CARTESIAN_POINT('',(-1.003,1.143,0.508));
#636=VERTEX_POINT('',#637);
#635=EDGE_CURVE('',#636,#626,#640,.T.);
#640=LINE('',#637,#642);
#642=VECTOR('',#643,0.2550000000066);
#643=DIRECTION('',(0.0,0.0,-1.0));
#634=ORIENTED_EDGE('',*,*,#635,.F.);
#645=EDGE_CURVE('',#587,#636,#650,.T.);
#650=LINE('',#588,#652);
#652=VECTOR('',#653,2.0066);
#653=DIRECTION('',(-1.0,0.0,0.0));
#644=ORIENTED_EDGE('',*,*,#645,.F.);
#654=ORIENTED_EDGE('',*,*,#586,.T.);
#664=STYLED_ITEM('',(#43),#665);
#665=ADVANCED_FACE('',(#671),#666,.T.);
#666=PLANE('',#667);
#667=AXIS2_PLACEMENT_3D('',#668,#669,#670);
#668=CARTESIAN_POINT('',(-1.003,1.143,0.253));
#669=DIRECTION('',(-1.0,0.0,0.0));
#670=DIRECTION('',(0.,0.,1.));
#671=FACE_OUTER_BOUND('',#672,.T.);
#672=EDGE_LOOP('',(#673,#683,#693,#703));
#674=EDGE_CURVE('',#530,#626,#679,.T.);
#679=LINE('',#531,#681);
#681=VECTOR('',#682,2.286);
#682=DIRECTION('',(0.0,1.0,0.0));
#673=ORIENTED_EDGE('',*,*,#674,.F.);
#683=ORIENTED_EDGE('',*,*,#557,.T.);
#694=EDGE_CURVE('',#636,#548,#699,.T.);
#699=LINE('',#637,#701);
#701=VECTOR('',#702,2.286);
#702=DIRECTION('',(0.0,-1.0,0.0));
#693=ORIENTED_EDGE('',*,*,#694,.F.);
#703=ORIENTED_EDGE('',*,*,#635,.T.);
#713=STYLED_ITEM('',(#43),#714);
#714=ADVANCED_FACE('',(#720),#715,.T.);
#715=PLANE('',#716);
#716=AXIS2_PLACEMENT_3D('',#717,#718,#719);
#717=CARTESIAN_POINT('',(-1.003,1.143,0.253));
#718=DIRECTION('',(0.0,0.0,-1.0));
#719=DIRECTION('',(0.,1.,0.));
#720=FACE_OUTER_BOUND('',#721,.T.);
#721=EDGE_LOOP('',(#722,#732,#742,#752));
#722=ORIENTED_EDGE('',*,*,#625,.T.);
#732=ORIENTED_EDGE('',*,*,#576,.T.);
#742=ORIENTED_EDGE('',*,*,#527,.T.);
#752=ORIENTED_EDGE('',*,*,#674,.T.);
#762=STYLED_ITEM('',(#43),#763);
#763=ADVANCED_FACE('',(#769),#764,.T.);
#764=PLANE('',#765);
#765=AXIS2_PLACEMENT_3D('',#766,#767,#768);
#766=CARTESIAN_POINT('',(-1.003,-1.143,0.508));
#767=DIRECTION('',(0.0,0.0,1.0));
#768=DIRECTION('',(0.,1.,0.));
#769=FACE_OUTER_BOUND('',#770,.T.);
#770=EDGE_LOOP('',(#771,#781,#791,#801));
#771=ORIENTED_EDGE('',*,*,#547,.T.);
#781=ORIENTED_EDGE('',*,*,#596,.T.);
#791=ORIENTED_EDGE('',*,*,#645,.T.);
#801=ORIENTED_EDGE('',*,*,#694,.T.);
ENDSEC;
END-ISO-10303-21;
