ISO-10303-21;
HEADER;
/* Generated by software containing ST-Developer
 * from STEP Tools, Inc. (www.steptools.com) 
 */
/* OPTION: strings as raw bytes, not using required /X/ escapes */

FILE_DESCRIPTION(
/* description */ ('Unknown'),
/* implementation_level */ '2;1');

FILE_NAME(
/* name */ 'AEF08124R7M400R',
/* time_stamp */ '2023-07-20T08:33:50+02:00',
/* author */ ('Unknown'),
/* organization */ ('Unknown'),
/* preprocessor_version */ 'ST-DEVELOPER v18.102',
/* originating_system */ 'Solid Edge',
/* authorisation */ 'Unknown');

FILE_SCHEMA (('AUTOMOTIVE_DESIGN {1 0 10303 214 3 1 1}'));
ENDSEC;

DATA;
#10=PROPERTY_DEFINITION_REPRESENTATION(#14,#12);
#11=PROPERTY_DEFINITION_REPRESENTATION(#15,#13);
#12=REPRESENTATION('',(#16),#1811);
#13=REPRESENTATION('',(#17),#1811);
#14=PROPERTY_DEFINITION('pmi validation property','',#1816);
#15=PROPERTY_DEFINITION('pmi validation property','',#1816);
#16=VALUE_REPRESENTATION_ITEM('number of annotations',COUNT_MEASURE(0.));
#17=VALUE_REPRESENTATION_ITEM('number of views',COUNT_MEASURE(0.));
#18=SHAPE_REPRESENTATION_RELATIONSHIP('','',#1241,#19);
#19=ADVANCED_BREP_SHAPE_REPRESENTATION('',(#1239),#1811);
#20=CONICAL_SURFACE('',#1291,3.67903585223032,0.80851796842935);
#21=CYLINDRICAL_SURFACE('',#1247,4.000000001);
#22=CYLINDRICAL_SURFACE('',#1273,3.84873305143136);
#23=CYLINDRICAL_SURFACE('',#1279,4.000000001);
#24=CYLINDRICAL_SURFACE('',#1285,3.04958607261004);
#25=B_SPLINE_CURVE_WITH_KNOTS('',3,(#1556,#1557,#1558,#1559,#1560),
 .UNSPECIFIED.,.F.,.F.,(4,1,4),(1.97055192400768E-7,0.00121295221921962,
0.00242570738324684),.UNSPECIFIED.);
#26=B_SPLINE_CURVE_WITH_KNOTS('',3,(#1561,#1562,#1563,#1564,#1565),
 .UNSPECIFIED.,.F.,.F.,(4,1,4),(0.00617381312082131,0.0073385016546245,
0.00850319018842769),.UNSPECIFIED.);
#27=B_SPLINE_CURVE_WITH_KNOTS('',3,(#1576,#1577,#1578,#1579,#1580),
 .UNSPECIFIED.,.F.,.F.,(4,1,4),(0.00182587132724093,0.00263848273607799,
0.00345109414491506),.UNSPECIFIED.);
#28=B_SPLINE_CURVE_WITH_KNOTS('',3,(#1581,#1582,#1583,#1584,#1585),
 .UNSPECIFIED.,.F.,.F.,(4,1,4),(1.97041816141523E-7,0.000808822074737609,
0.00161744710765908),.UNSPECIFIED.);
#29=TOROIDAL_SURFACE('',#1245,2.61208011557243,1.38791988542757);
#30=TOROIDAL_SURFACE('',#1249,3.05150949347027,0.948490507529727);
#31=TOROIDAL_SURFACE('',#1277,2.61208011557243,1.38791988542757);
#32=TOROIDAL_SURFACE('',#1281,3.05150949347027,0.948490507529727);
#33=TOROIDAL_SURFACE('',#1289,3.52922905766832,0.216931748722047);
#34=TOROIDAL_SURFACE('',#1293,3.65947642150824,0.189256629923114);
#35=LINE('',#1551,#132);
#36=LINE('',#1567,#133);
#37=LINE('',#1571,#134);
#38=LINE('',#1587,#135);
#39=LINE('',#1590,#136);
#40=LINE('',#1592,#137);
#41=LINE('',#1594,#138);
#42=LINE('',#1596,#139);
#43=LINE('',#1598,#140);
#44=LINE('',#1600,#141);
#45=LINE('',#1602,#142);
#46=LINE('',#1604,#143);
#47=LINE('',#1607,#144);
#48=LINE('',#1609,#145);
#49=LINE('',#1611,#146);
#50=LINE('',#1615,#147);
#51=LINE('',#1617,#148);
#52=LINE('',#1620,#149);
#53=LINE('',#1622,#150);
#54=LINE('',#1624,#151);
#55=LINE('',#1626,#152);
#56=LINE('',#1628,#153);
#57=LINE('',#1630,#154);
#58=LINE('',#1632,#155);
#59=LINE('',#1634,#156);
#60=LINE('',#1637,#157);
#61=LINE('',#1639,#158);
#62=LINE('',#1641,#159);
#63=LINE('',#1645,#160);
#64=LINE('',#1647,#161);
#65=LINE('',#1649,#162);
#66=LINE('',#1651,#163);
#67=LINE('',#1653,#164);
#68=LINE('',#1655,#165);
#69=LINE('',#1657,#166);
#70=LINE('',#1659,#167);
#71=LINE('',#1661,#168);
#72=LINE('',#1663,#169);
#73=LINE('',#1665,#170);
#74=LINE('',#1667,#171);
#75=LINE('',#1669,#172);
#76=LINE('',#1671,#173);
#77=LINE('',#1672,#174);
#78=LINE('',#1673,#175);
#79=LINE('',#1675,#176);
#80=LINE('',#1677,#177);
#81=LINE('',#1679,#178);
#82=LINE('',#1681,#179);
#83=LINE('',#1682,#180);
#84=LINE('',#1684,#181);
#85=LINE('',#1686,#182);
#86=LINE('',#1688,#183);
#87=LINE('',#1690,#184);
#88=LINE('',#1691,#185);
#89=LINE('',#1692,#186);
#90=LINE('',#1694,#187);
#91=LINE('',#1696,#188);
#92=LINE('',#1697,#189);
#93=LINE('',#1698,#190);
#94=LINE('',#1700,#191);
#95=LINE('',#1701,#192);
#96=LINE('',#1703,#193);
#97=LINE('',#1705,#194);
#98=LINE('',#1708,#195);
#99=LINE('',#1709,#196);
#100=LINE('',#1711,#197);
#101=LINE('',#1715,#198);
#102=LINE('',#1717,#199);
#103=LINE('',#1719,#200);
#104=LINE('',#1720,#201);
#105=LINE('',#1722,#202);
#106=LINE('',#1724,#203);
#107=LINE('',#1726,#204);
#108=LINE('',#1730,#205);
#109=LINE('',#1760,#206);
#110=LINE('',#1765,#207);
#111=LINE('',#1768,#208);
#112=LINE('',#1770,#209);
#113=LINE('',#1771,#210);
#114=LINE('',#1773,#211);
#115=LINE('',#1776,#212);
#116=LINE('',#1777,#213);
#117=LINE('',#1779,#214);
#118=LINE('',#1781,#215);
#119=LINE('',#1782,#216);
#120=LINE('',#1784,#217);
#121=LINE('',#1788,#218);
#122=LINE('',#1790,#219);
#123=LINE('',#1792,#220);
#124=LINE('',#1794,#221);
#125=LINE('',#1797,#222);
#126=LINE('',#1798,#223);
#127=LINE('',#1800,#224);
#128=LINE('',#1802,#225);
#129=LINE('',#1804,#226);
#130=LINE('',#1806,#227);
#131=LINE('',#1808,#228);
#132=VECTOR('',#1317,1000.);
#133=VECTOR('',#1324,1000.);
#134=VECTOR('',#1327,1000.);
#135=VECTOR('',#1334,1000.);
#136=VECTOR('',#1335,1000.);
#137=VECTOR('',#1336,1000.);
#138=VECTOR('',#1337,1000.);
#139=VECTOR('',#1338,1000.);
#140=VECTOR('',#1339,1000.);
#141=VECTOR('',#1340,1000.);
#142=VECTOR('',#1341,1000.);
#143=VECTOR('',#1344,1000.);
#144=VECTOR('',#1345,1000.);
#145=VECTOR('',#1346,1000.);
#146=VECTOR('',#1347,1000.);
#147=VECTOR('',#1350,1000.);
#148=VECTOR('',#1353,1000.);
#149=VECTOR('',#1354,1000.);
#150=VECTOR('',#1355,1000.);
#151=VECTOR('',#1356,1000.);
#152=VECTOR('',#1357,1000.);
#153=VECTOR('',#1358,1000.);
#154=VECTOR('',#1359,1000.);
#155=VECTOR('',#1360,1000.);
#156=VECTOR('',#1363,1000.);
#157=VECTOR('',#1364,1000.);
#158=VECTOR('',#1365,1000.);
#159=VECTOR('',#1366,1000.);
#160=VECTOR('',#1369,1000.);
#161=VECTOR('',#1370,1000.);
#162=VECTOR('',#1371,1000.);
#163=VECTOR('',#1374,1000.);
#164=VECTOR('',#1375,1000.);
#165=VECTOR('',#1376,1000.);
#166=VECTOR('',#1379,1000.);
#167=VECTOR('',#1380,1000.);
#168=VECTOR('',#1383,1000.);
#169=VECTOR('',#1384,1000.);
#170=VECTOR('',#1385,1000.);
#171=VECTOR('',#1388,1000.);
#172=VECTOR('',#1389,1000.);
#173=VECTOR('',#1390,1000.);
#174=VECTOR('',#1391,1000.);
#175=VECTOR('',#1392,1000.);
#176=VECTOR('',#1393,1000.);
#177=VECTOR('',#1396,1000.);
#178=VECTOR('',#1397,1000.);
#179=VECTOR('',#1398,1000.);
#180=VECTOR('',#1399,1000.);
#181=VECTOR('',#1400,1000.);
#182=VECTOR('',#1401,1000.);
#183=VECTOR('',#1404,1000.);
#184=VECTOR('',#1405,1000.);
#185=VECTOR('',#1406,1000.);
#186=VECTOR('',#1407,1000.);
#187=VECTOR('',#1408,1000.);
#188=VECTOR('',#1411,1000.);
#189=VECTOR('',#1412,1000.);
#190=VECTOR('',#1413,1000.);
#191=VECTOR('',#1414,1000.);
#192=VECTOR('',#1415,1000.);
#193=VECTOR('',#1416,1000.);
#194=VECTOR('',#1419,1000.);
#195=VECTOR('',#1420,1000.);
#196=VECTOR('',#1421,1000.);
#197=VECTOR('',#1424,1000.);
#198=VECTOR('',#1427,1000.);
#199=VECTOR('',#1430,1000.);
#200=VECTOR('',#1433,1000.);
#201=VECTOR('',#1434,1000.);
#202=VECTOR('',#1435,1000.);
#203=VECTOR('',#1438,1000.);
#204=VECTOR('',#1441,1000.);
#205=VECTOR('',#1446,1000.);
#206=VECTOR('',#1493,1000.);
#207=VECTOR('',#1502,1000.);
#208=VECTOR('',#1503,1000.);
#209=VECTOR('',#1504,1000.);
#210=VECTOR('',#1505,1000.);
#211=VECTOR('',#1508,1000.);
#212=VECTOR('',#1509,1000.);
#213=VECTOR('',#1510,1000.);
#214=VECTOR('',#1511,1000.);
#215=VECTOR('',#1514,1000.);
#216=VECTOR('',#1515,1000.);
#217=VECTOR('',#1518,1000.);
#218=VECTOR('',#1525,1000.);
#219=VECTOR('',#1526,1000.);
#220=VECTOR('',#1527,1000.);
#221=VECTOR('',#1530,1000.);
#222=VECTOR('',#1531,1000.);
#223=VECTOR('',#1532,1000.);
#224=VECTOR('',#1535,1000.);
#225=VECTOR('',#1536,1000.);
#226=VECTOR('',#1539,1000.);
#227=VECTOR('',#1540,1000.);
#228=VECTOR('',#1543,1000.);
#229=ORIENTED_EDGE('',*,*,#467,.T.);
#230=ORIENTED_EDGE('',*,*,#468,.T.);
#231=ORIENTED_EDGE('',*,*,#469,.T.);
#232=ORIENTED_EDGE('',*,*,#470,.T.);
#233=ORIENTED_EDGE('',*,*,#467,.F.);
#234=ORIENTED_EDGE('',*,*,#471,.T.);
#235=ORIENTED_EDGE('',*,*,#469,.F.);
#236=ORIENTED_EDGE('',*,*,#472,.T.);
#237=ORIENTED_EDGE('',*,*,#473,.T.);
#238=ORIENTED_EDGE('',*,*,#474,.T.);
#239=ORIENTED_EDGE('',*,*,#475,.T.);
#240=ORIENTED_EDGE('',*,*,#476,.T.);
#241=ORIENTED_EDGE('',*,*,#473,.F.);
#242=ORIENTED_EDGE('',*,*,#477,.T.);
#243=ORIENTED_EDGE('',*,*,#478,.F.);
#244=ORIENTED_EDGE('',*,*,#479,.F.);
#245=ORIENTED_EDGE('',*,*,#480,.F.);
#246=ORIENTED_EDGE('',*,*,#481,.F.);
#247=ORIENTED_EDGE('',*,*,#482,.F.);
#248=ORIENTED_EDGE('',*,*,#483,.F.);
#249=ORIENTED_EDGE('',*,*,#484,.T.);
#250=ORIENTED_EDGE('',*,*,#485,.T.);
#251=ORIENTED_EDGE('',*,*,#486,.F.);
#252=ORIENTED_EDGE('',*,*,#487,.F.);
#253=ORIENTED_EDGE('',*,*,#488,.F.);
#254=ORIENTED_EDGE('',*,*,#489,.F.);
#255=ORIENTED_EDGE('',*,*,#490,.T.);
#256=ORIENTED_EDGE('',*,*,#491,.F.);
#257=ORIENTED_EDGE('',*,*,#492,.F.);
#258=ORIENTED_EDGE('',*,*,#493,.T.);
#259=ORIENTED_EDGE('',*,*,#494,.F.);
#260=ORIENTED_EDGE('',*,*,#495,.F.);
#261=ORIENTED_EDGE('',*,*,#496,.F.);
#262=ORIENTED_EDGE('',*,*,#497,.F.);
#263=ORIENTED_EDGE('',*,*,#498,.F.);
#264=ORIENTED_EDGE('',*,*,#499,.F.);
#265=ORIENTED_EDGE('',*,*,#500,.T.);
#266=ORIENTED_EDGE('',*,*,#501,.T.);
#267=ORIENTED_EDGE('',*,*,#502,.T.);
#268=ORIENTED_EDGE('',*,*,#503,.T.);
#269=ORIENTED_EDGE('',*,*,#504,.T.);
#270=ORIENTED_EDGE('',*,*,#505,.T.);
#271=ORIENTED_EDGE('',*,*,#506,.T.);
#272=ORIENTED_EDGE('',*,*,#507,.T.);
#273=ORIENTED_EDGE('',*,*,#508,.F.);
#274=ORIENTED_EDGE('',*,*,#498,.T.);
#275=ORIENTED_EDGE('',*,*,#509,.T.);
#276=ORIENTED_EDGE('',*,*,#510,.F.);
#277=ORIENTED_EDGE('',*,*,#509,.F.);
#278=ORIENTED_EDGE('',*,*,#497,.T.);
#279=ORIENTED_EDGE('',*,*,#511,.T.);
#280=ORIENTED_EDGE('',*,*,#512,.F.);
#281=ORIENTED_EDGE('',*,*,#513,.F.);
#282=ORIENTED_EDGE('',*,*,#482,.T.);
#283=ORIENTED_EDGE('',*,*,#514,.T.);
#284=ORIENTED_EDGE('',*,*,#515,.T.);
#285=ORIENTED_EDGE('',*,*,#516,.F.);
#286=ORIENTED_EDGE('',*,*,#500,.F.);
#287=ORIENTED_EDGE('',*,*,#517,.T.);
#288=ORIENTED_EDGE('',*,*,#518,.F.);
#289=ORIENTED_EDGE('',*,*,#511,.F.);
#290=ORIENTED_EDGE('',*,*,#496,.T.);
#291=ORIENTED_EDGE('',*,*,#519,.T.);
#292=ORIENTED_EDGE('',*,*,#492,.T.);
#293=ORIENTED_EDGE('',*,*,#520,.T.);
#294=ORIENTED_EDGE('',*,*,#521,.F.);
#295=ORIENTED_EDGE('',*,*,#502,.F.);
#296=ORIENTED_EDGE('',*,*,#522,.T.);
#297=ORIENTED_EDGE('',*,*,#523,.F.);
#298=ORIENTED_EDGE('',*,*,#524,.F.);
#299=ORIENTED_EDGE('',*,*,#486,.T.);
#300=ORIENTED_EDGE('',*,*,#525,.F.);
#301=ORIENTED_EDGE('',*,*,#526,.F.);
#302=ORIENTED_EDGE('',*,*,#527,.F.);
#303=ORIENTED_EDGE('',*,*,#487,.T.);
#304=ORIENTED_EDGE('',*,*,#524,.T.);
#305=ORIENTED_EDGE('',*,*,#528,.F.);
#306=ORIENTED_EDGE('',*,*,#529,.F.);
#307=ORIENTED_EDGE('',*,*,#479,.T.);
#308=ORIENTED_EDGE('',*,*,#530,.T.);
#309=ORIENTED_EDGE('',*,*,#483,.T.);
#310=ORIENTED_EDGE('',*,*,#513,.T.);
#311=ORIENTED_EDGE('',*,*,#531,.F.);
#312=ORIENTED_EDGE('',*,*,#532,.F.);
#313=ORIENTED_EDGE('',*,*,#533,.F.);
#314=ORIENTED_EDGE('',*,*,#521,.T.);
#315=ORIENTED_EDGE('',*,*,#534,.T.);
#316=ORIENTED_EDGE('',*,*,#510,.T.);
#317=ORIENTED_EDGE('',*,*,#512,.T.);
#318=ORIENTED_EDGE('',*,*,#518,.T.);
#319=ORIENTED_EDGE('',*,*,#535,.F.);
#320=ORIENTED_EDGE('',*,*,#536,.T.);
#321=ORIENTED_EDGE('',*,*,#531,.T.);
#322=ORIENTED_EDGE('',*,*,#515,.F.);
#323=ORIENTED_EDGE('',*,*,#537,.F.);
#324=ORIENTED_EDGE('',*,*,#538,.F.);
#325=ORIENTED_EDGE('',*,*,#528,.T.);
#326=ORIENTED_EDGE('',*,*,#523,.T.);
#327=ORIENTED_EDGE('',*,*,#539,.F.);
#328=ORIENTED_EDGE('',*,*,#540,.T.);
#329=ORIENTED_EDGE('',*,*,#489,.T.);
#330=ORIENTED_EDGE('',*,*,#541,.T.);
#331=ORIENTED_EDGE('',*,*,#542,.T.);
#332=ORIENTED_EDGE('',*,*,#543,.T.);
#333=ORIENTED_EDGE('',*,*,#544,.F.);
#334=ORIENTED_EDGE('',*,*,#526,.T.);
#335=ORIENTED_EDGE('',*,*,#544,.T.);
#336=ORIENTED_EDGE('',*,*,#545,.T.);
#337=ORIENTED_EDGE('',*,*,#503,.F.);
#338=ORIENTED_EDGE('',*,*,#527,.T.);
#339=ORIENTED_EDGE('',*,*,#546,.F.);
#340=ORIENTED_EDGE('',*,*,#506,.F.);
#341=ORIENTED_EDGE('',*,*,#547,.F.);
#342=ORIENTED_EDGE('',*,*,#548,.F.);
#343=ORIENTED_EDGE('',*,*,#541,.F.);
#344=ORIENTED_EDGE('',*,*,#488,.T.);
#345=ORIENTED_EDGE('',*,*,#532,.T.);
#346=ORIENTED_EDGE('',*,*,#536,.F.);
#347=ORIENTED_EDGE('',*,*,#491,.T.);
#348=ORIENTED_EDGE('',*,*,#549,.T.);
#349=ORIENTED_EDGE('',*,*,#542,.F.);
#350=ORIENTED_EDGE('',*,*,#525,.T.);
#351=ORIENTED_EDGE('',*,*,#550,.F.);
#352=ORIENTED_EDGE('',*,*,#551,.T.);
#353=ORIENTED_EDGE('',*,*,#539,.T.);
#354=ORIENTED_EDGE('',*,*,#548,.T.);
#355=ORIENTED_EDGE('',*,*,#505,.F.);
#356=ORIENTED_EDGE('',*,*,#552,.T.);
#357=ORIENTED_EDGE('',*,*,#550,.T.);
#358=ORIENTED_EDGE('',*,*,#547,.T.);
#359=ORIENTED_EDGE('',*,*,#552,.F.);
#360=ORIENTED_EDGE('',*,*,#504,.F.);
#361=ORIENTED_EDGE('',*,*,#545,.F.);
#362=ORIENTED_EDGE('',*,*,#543,.F.);
#363=ORIENTED_EDGE('',*,*,#549,.F.);
#364=ORIENTED_EDGE('',*,*,#490,.F.);
#365=ORIENTED_EDGE('',*,*,#540,.F.);
#366=ORIENTED_EDGE('',*,*,#551,.F.);
#367=ORIENTED_EDGE('',*,*,#553,.F.);
#368=ORIENTED_EDGE('',*,*,#468,.F.);
#369=ORIENTED_EDGE('',*,*,#554,.T.);
#370=ORIENTED_EDGE('',*,*,#470,.F.);
#371=ORIENTED_EDGE('',*,*,#555,.T.);
#372=ORIENTED_EDGE('',*,*,#471,.F.);
#373=ORIENTED_EDGE('',*,*,#554,.F.);
#374=ORIENTED_EDGE('',*,*,#472,.F.);
#375=ORIENTED_EDGE('',*,*,#555,.F.);
#376=ORIENTED_EDGE('',*,*,#474,.F.);
#377=ORIENTED_EDGE('',*,*,#556,.T.);
#378=ORIENTED_EDGE('',*,*,#476,.F.);
#379=ORIENTED_EDGE('',*,*,#557,.T.);
#380=ORIENTED_EDGE('',*,*,#477,.F.);
#381=ORIENTED_EDGE('',*,*,#556,.F.);
#382=ORIENTED_EDGE('',*,*,#558,.T.);
#383=ORIENTED_EDGE('',*,*,#557,.F.);
#384=ORIENTED_EDGE('',*,*,#475,.F.);
#385=ORIENTED_EDGE('',*,*,#559,.T.);
#386=ORIENTED_EDGE('',*,*,#558,.F.);
#387=ORIENTED_EDGE('',*,*,#560,.T.);
#388=ORIENTED_EDGE('',*,*,#559,.F.);
#389=ORIENTED_EDGE('',*,*,#561,.T.);
#390=ORIENTED_EDGE('',*,*,#560,.F.);
#391=ORIENTED_EDGE('',*,*,#562,.T.);
#392=ORIENTED_EDGE('',*,*,#561,.F.);
#393=ORIENTED_EDGE('',*,*,#553,.T.);
#394=ORIENTED_EDGE('',*,*,#562,.F.);
#395=ORIENTED_EDGE('',*,*,#520,.F.);
#396=ORIENTED_EDGE('',*,*,#499,.T.);
#397=ORIENTED_EDGE('',*,*,#508,.T.);
#398=ORIENTED_EDGE('',*,*,#534,.F.);
#399=ORIENTED_EDGE('',*,*,#514,.F.);
#400=ORIENTED_EDGE('',*,*,#481,.T.);
#401=ORIENTED_EDGE('',*,*,#563,.T.);
#402=ORIENTED_EDGE('',*,*,#537,.T.);
#403=ORIENTED_EDGE('',*,*,#563,.F.);
#404=ORIENTED_EDGE('',*,*,#480,.T.);
#405=ORIENTED_EDGE('',*,*,#529,.T.);
#406=ORIENTED_EDGE('',*,*,#538,.T.);
#407=ORIENTED_EDGE('',*,*,#546,.T.);
#408=ORIENTED_EDGE('',*,*,#535,.T.);
#409=ORIENTED_EDGE('',*,*,#517,.F.);
#410=ORIENTED_EDGE('',*,*,#507,.F.);
#411=ORIENTED_EDGE('',*,*,#516,.T.);
#412=ORIENTED_EDGE('',*,*,#533,.T.);
#413=ORIENTED_EDGE('',*,*,#522,.F.);
#414=ORIENTED_EDGE('',*,*,#501,.F.);
#415=ORIENTED_EDGE('',*,*,#564,.T.);
#416=ORIENTED_EDGE('',*,*,#565,.T.);
#417=ORIENTED_EDGE('',*,*,#566,.T.);
#418=ORIENTED_EDGE('',*,*,#495,.T.);
#419=ORIENTED_EDGE('',*,*,#567,.T.);
#420=ORIENTED_EDGE('',*,*,#568,.F.);
#421=ORIENTED_EDGE('',*,*,#569,.F.);
#422=ORIENTED_EDGE('',*,*,#493,.F.);
#423=ORIENTED_EDGE('',*,*,#570,.F.);
#424=ORIENTED_EDGE('',*,*,#571,.F.);
#425=ORIENTED_EDGE('',*,*,#568,.T.);
#426=ORIENTED_EDGE('',*,*,#572,.F.);
#427=ORIENTED_EDGE('',*,*,#564,.F.);
#428=ORIENTED_EDGE('',*,*,#573,.T.);
#429=ORIENTED_EDGE('',*,*,#571,.T.);
#430=ORIENTED_EDGE('',*,*,#574,.F.);
#431=ORIENTED_EDGE('',*,*,#565,.F.);
#432=ORIENTED_EDGE('',*,*,#572,.T.);
#433=ORIENTED_EDGE('',*,*,#519,.F.);
#434=ORIENTED_EDGE('',*,*,#566,.F.);
#435=ORIENTED_EDGE('',*,*,#574,.T.);
#436=ORIENTED_EDGE('',*,*,#570,.T.);
#437=ORIENTED_EDGE('',*,*,#569,.T.);
#438=ORIENTED_EDGE('',*,*,#573,.F.);
#439=ORIENTED_EDGE('',*,*,#567,.F.);
#440=ORIENTED_EDGE('',*,*,#494,.T.);
#441=ORIENTED_EDGE('',*,*,#530,.F.);
#442=ORIENTED_EDGE('',*,*,#575,.F.);
#443=ORIENTED_EDGE('',*,*,#576,.F.);
#444=ORIENTED_EDGE('',*,*,#577,.T.);
#445=ORIENTED_EDGE('',*,*,#578,.F.);
#446=ORIENTED_EDGE('',*,*,#579,.F.);
#447=ORIENTED_EDGE('',*,*,#484,.F.);
#448=ORIENTED_EDGE('',*,*,#577,.F.);
#449=ORIENTED_EDGE('',*,*,#580,.F.);
#450=ORIENTED_EDGE('',*,*,#581,.F.);
#451=ORIENTED_EDGE('',*,*,#582,.F.);
#452=ORIENTED_EDGE('',*,*,#580,.T.);
#453=ORIENTED_EDGE('',*,*,#576,.T.);
#454=ORIENTED_EDGE('',*,*,#583,.F.);
#455=ORIENTED_EDGE('',*,*,#485,.F.);
#456=ORIENTED_EDGE('',*,*,#579,.T.);
#457=ORIENTED_EDGE('',*,*,#584,.T.);
#458=ORIENTED_EDGE('',*,*,#585,.F.);
#459=ORIENTED_EDGE('',*,*,#584,.F.);
#460=ORIENTED_EDGE('',*,*,#578,.T.);
#461=ORIENTED_EDGE('',*,*,#582,.T.);
#462=ORIENTED_EDGE('',*,*,#585,.T.);
#463=ORIENTED_EDGE('',*,*,#581,.T.);
#464=ORIENTED_EDGE('',*,*,#575,.T.);
#465=ORIENTED_EDGE('',*,*,#478,.T.);
#466=ORIENTED_EDGE('',*,*,#583,.T.);
#467=EDGE_CURVE('',#586,#587,#664,.T.);
#468=EDGE_CURVE('',#587,#586,#35,.T.);
#469=EDGE_CURVE('',#588,#589,#665,.T.);
#470=EDGE_CURVE('',#589,#587,#25,.T.);
#471=EDGE_CURVE('',#586,#588,#26,.T.);
#472=EDGE_CURVE('',#588,#590,#36,.F.);
#473=EDGE_CURVE('',#590,#591,#666,.T.);
#474=EDGE_CURVE('',#591,#589,#37,.T.);
#475=EDGE_CURVE('',#592,#593,#667,.T.);
#476=EDGE_CURVE('',#593,#591,#27,.T.);
#477=EDGE_CURVE('',#590,#592,#28,.T.);
#478=EDGE_CURVE('',#594,#595,#38,.T.);
#479=EDGE_CURVE('',#596,#594,#39,.T.);
#480=EDGE_CURVE('',#597,#596,#40,.T.);
#481=EDGE_CURVE('',#598,#597,#41,.T.);
#482=EDGE_CURVE('',#599,#598,#42,.T.);
#483=EDGE_CURVE('',#600,#599,#43,.T.);
#484=EDGE_CURVE('',#600,#601,#44,.T.);
#485=EDGE_CURVE('',#601,#595,#45,.T.);
#486=EDGE_CURVE('',#602,#603,#46,.T.);
#487=EDGE_CURVE('',#604,#602,#47,.T.);
#488=EDGE_CURVE('',#605,#604,#48,.T.);
#489=EDGE_CURVE('',#606,#605,#49,.T.);
#490=EDGE_CURVE('',#606,#607,#668,.T.);
#491=EDGE_CURVE('',#603,#607,#50,.T.);
#492=EDGE_CURVE('',#608,#609,#51,.T.);
#493=EDGE_CURVE('',#608,#610,#52,.T.);
#494=EDGE_CURVE('',#611,#610,#53,.T.);
#495=EDGE_CURVE('',#612,#611,#54,.T.);
#496=EDGE_CURVE('',#613,#612,#55,.T.);
#497=EDGE_CURVE('',#614,#613,#56,.T.);
#498=EDGE_CURVE('',#615,#614,#57,.T.);
#499=EDGE_CURVE('',#609,#615,#58,.T.);
#500=EDGE_CURVE('',#616,#617,#59,.T.);
#501=EDGE_CURVE('',#617,#618,#60,.T.);
#502=EDGE_CURVE('',#618,#619,#61,.T.);
#503=EDGE_CURVE('',#619,#620,#62,.T.);
#504=EDGE_CURVE('',#620,#621,#669,.T.);
#505=EDGE_CURVE('',#621,#622,#63,.T.);
#506=EDGE_CURVE('',#622,#623,#64,.T.);
#507=EDGE_CURVE('',#623,#616,#65,.T.);
#508=EDGE_CURVE('',#615,#624,#66,.T.);
#509=EDGE_CURVE('',#614,#625,#67,.T.);
#510=EDGE_CURVE('',#624,#625,#68,.T.);
#511=EDGE_CURVE('',#613,#626,#69,.T.);
#512=EDGE_CURVE('',#625,#626,#70,.T.);
#513=EDGE_CURVE('',#599,#627,#71,.T.);
#514=EDGE_CURVE('',#598,#628,#72,.T.);
#515=EDGE_CURVE('',#628,#627,#73,.T.);
#516=EDGE_CURVE('',#617,#629,#74,.T.);
#517=EDGE_CURVE('',#616,#630,#75,.T.);
#518=EDGE_CURVE('',#626,#630,#76,.T.);
#519=EDGE_CURVE('',#612,#608,#77,.T.);
#520=EDGE_CURVE('',#609,#631,#78,.T.);
#521=EDGE_CURVE('',#629,#631,#79,.T.);
#522=EDGE_CURVE('',#618,#632,#80,.T.);
#523=EDGE_CURVE('',#633,#632,#81,.T.);
#524=EDGE_CURVE('',#602,#633,#82,.T.);
#525=EDGE_CURVE('',#634,#603,#83,.T.);
#526=EDGE_CURVE('',#635,#634,#84,.T.);
#527=EDGE_CURVE('',#619,#635,#85,.T.);
#528=EDGE_CURVE('',#636,#633,#86,.T.);
#529=EDGE_CURVE('',#596,#636,#87,.T.);
#530=EDGE_CURVE('',#594,#600,#88,.T.);
#531=EDGE_CURVE('',#637,#627,#89,.T.);
#532=EDGE_CURVE('',#604,#637,#90,.T.);
#533=EDGE_CURVE('',#629,#632,#91,.T.);
#534=EDGE_CURVE('',#631,#624,#92,.T.);
#535=EDGE_CURVE('',#638,#630,#93,.T.);
#536=EDGE_CURVE('',#638,#637,#94,.T.);
#537=EDGE_CURVE('',#639,#628,#95,.T.);
#538=EDGE_CURVE('',#636,#639,#96,.T.);
#539=EDGE_CURVE('',#640,#641,#97,.T.);
#540=EDGE_CURVE('',#640,#606,#98,.T.);
#541=EDGE_CURVE('',#605,#641,#99,.T.);
#542=EDGE_CURVE('',#634,#642,#100,.T.);
#543=EDGE_CURVE('',#642,#643,#670,.T.);
#544=EDGE_CURVE('',#635,#643,#101,.T.);
#545=EDGE_CURVE('',#643,#620,#102,.T.);
#546=EDGE_CURVE('',#623,#638,#103,.T.);
#547=EDGE_CURVE('',#644,#622,#104,.T.);
#548=EDGE_CURVE('',#641,#644,#105,.T.);
#549=EDGE_CURVE('',#607,#642,#106,.F.);
#550=EDGE_CURVE('',#645,#644,#107,.T.);
#551=EDGE_CURVE('',#645,#640,#671,.T.);
#552=EDGE_CURVE('',#621,#645,#108,.F.);
#553=EDGE_CURVE('',#646,#646,#672,.T.);
#554=EDGE_CURVE('',#587,#586,#673,.T.);
#555=EDGE_CURVE('',#589,#588,#674,.T.);
#556=EDGE_CURVE('',#591,#590,#675,.T.);
#557=EDGE_CURVE('',#593,#592,#676,.T.);
#558=EDGE_CURVE('',#647,#647,#677,.T.);
#559=EDGE_CURVE('',#648,#648,#678,.T.);
#560=EDGE_CURVE('',#649,#649,#679,.T.);
#561=EDGE_CURVE('',#650,#650,#680,.T.);
#562=EDGE_CURVE('',#651,#651,#681,.T.);
#563=EDGE_CURVE('',#597,#639,#109,.T.);
#564=EDGE_CURVE('',#652,#653,#110,.T.);
#565=EDGE_CURVE('',#653,#654,#111,.T.);
#566=EDGE_CURVE('',#654,#612,#112,.T.);
#567=EDGE_CURVE('',#611,#652,#113,.T.);
#568=EDGE_CURVE('',#655,#656,#114,.T.);
#569=EDGE_CURVE('',#610,#655,#115,.T.);
#570=EDGE_CURVE('',#657,#608,#116,.T.);
#571=EDGE_CURVE('',#656,#657,#117,.T.);
#572=EDGE_CURVE('',#653,#656,#118,.T.);
#573=EDGE_CURVE('',#652,#655,#119,.T.);
#574=EDGE_CURVE('',#654,#657,#120,.T.);
#575=EDGE_CURVE('',#658,#594,#121,.T.);
#576=EDGE_CURVE('',#659,#658,#122,.T.);
#577=EDGE_CURVE('',#659,#600,#123,.T.);
#578=EDGE_CURVE('',#660,#661,#124,.T.);
#579=EDGE_CURVE('',#601,#660,#125,.T.);
#580=EDGE_CURVE('',#661,#659,#126,.T.);
#581=EDGE_CURVE('',#662,#658,#127,.T.);
#582=EDGE_CURVE('',#661,#662,#128,.T.);
#583=EDGE_CURVE('',#595,#663,#129,.T.);
#584=EDGE_CURVE('',#660,#663,#130,.T.);
#585=EDGE_CURVE('',#663,#662,#131,.T.);
#586=VERTEX_POINT('',#1549);
#587=VERTEX_POINT('',#1550);
#588=VERTEX_POINT('',#1554);
#589=VERTEX_POINT('',#1555);
#590=VERTEX_POINT('',#1568);
#591=VERTEX_POINT('',#1570);
#592=VERTEX_POINT('',#1574);
#593=VERTEX_POINT('',#1575);
#594=VERTEX_POINT('',#1588);
#595=VERTEX_POINT('',#1589);
#596=VERTEX_POINT('',#1591);
#597=VERTEX_POINT('',#1593);
#598=VERTEX_POINT('',#1595);
#599=VERTEX_POINT('',#1597);
#600=VERTEX_POINT('',#1599);
#601=VERTEX_POINT('',#1601);
#602=VERTEX_POINT('',#1605);
#603=VERTEX_POINT('',#1606);
#604=VERTEX_POINT('',#1608);
#605=VERTEX_POINT('',#1610);
#606=VERTEX_POINT('',#1612);
#607=VERTEX_POINT('',#1614);
#608=VERTEX_POINT('',#1618);
#609=VERTEX_POINT('',#1619);
#610=VERTEX_POINT('',#1621);
#611=VERTEX_POINT('',#1623);
#612=VERTEX_POINT('',#1625);
#613=VERTEX_POINT('',#1627);
#614=VERTEX_POINT('',#1629);
#615=VERTEX_POINT('',#1631);
#616=VERTEX_POINT('',#1635);
#617=VERTEX_POINT('',#1636);
#618=VERTEX_POINT('',#1638);
#619=VERTEX_POINT('',#1640);
#620=VERTEX_POINT('',#1642);
#621=VERTEX_POINT('',#1644);
#622=VERTEX_POINT('',#1646);
#623=VERTEX_POINT('',#1648);
#624=VERTEX_POINT('',#1652);
#625=VERTEX_POINT('',#1654);
#626=VERTEX_POINT('',#1658);
#627=VERTEX_POINT('',#1662);
#628=VERTEX_POINT('',#1664);
#629=VERTEX_POINT('',#1668);
#630=VERTEX_POINT('',#1670);
#631=VERTEX_POINT('',#1674);
#632=VERTEX_POINT('',#1678);
#633=VERTEX_POINT('',#1680);
#634=VERTEX_POINT('',#1683);
#635=VERTEX_POINT('',#1685);
#636=VERTEX_POINT('',#1689);
#637=VERTEX_POINT('',#1693);
#638=VERTEX_POINT('',#1699);
#639=VERTEX_POINT('',#1702);
#640=VERTEX_POINT('',#1706);
#641=VERTEX_POINT('',#1707);
#642=VERTEX_POINT('',#1712);
#643=VERTEX_POINT('',#1714);
#644=VERTEX_POINT('',#1721);
#645=VERTEX_POINT('',#1727);
#646=VERTEX_POINT('',#1733);
#647=VERTEX_POINT('',#1744);
#648=VERTEX_POINT('',#1747);
#649=VERTEX_POINT('',#1750);
#650=VERTEX_POINT('',#1753);
#651=VERTEX_POINT('',#1756);
#652=VERTEX_POINT('',#1766);
#653=VERTEX_POINT('',#1767);
#654=VERTEX_POINT('',#1769);
#655=VERTEX_POINT('',#1774);
#656=VERTEX_POINT('',#1775);
#657=VERTEX_POINT('',#1778);
#658=VERTEX_POINT('',#1789);
#659=VERTEX_POINT('',#1791);
#660=VERTEX_POINT('',#1795);
#661=VERTEX_POINT('',#1796);
#662=VERTEX_POINT('',#1801);
#663=VERTEX_POINT('',#1805);
#664=CIRCLE('',#1244,2.61208011557243);
#665=CIRCLE('',#1246,4.000000001);
#666=CIRCLE('',#1248,4.000000001);
#667=CIRCLE('',#1250,3.05150949347027);
#668=CIRCLE('',#1253,3.84873305143136);
#669=CIRCLE('',#1256,3.84873305143136);
#670=CIRCLE('',#1266,3.84873305143136);
#671=CIRCLE('',#1271,3.84873305143136);
#672=CIRCLE('',#1274,3.84873305143136);
#673=CIRCLE('',#1276,2.61208011557243);
#674=CIRCLE('',#1278,4.000000001);
#675=CIRCLE('',#1280,4.000000001);
#676=CIRCLE('',#1282,3.05150949347027);
#677=CIRCLE('',#1284,3.04958607261004);
#678=CIRCLE('',#1286,3.04958607261004);
#679=CIRCLE('',#1288,3.52922905766832);
#680=CIRCLE('',#1290,3.67903585223032);
#681=CIRCLE('',#1292,3.79017157906546);
#682=EDGE_LOOP('',(#229,#230));
#683=EDGE_LOOP('',(#231,#232,#233,#234));
#684=EDGE_LOOP('',(#235,#236,#237,#238));
#685=EDGE_LOOP('',(#239,#240,#241,#242));
#686=EDGE_LOOP('',(#243,#244,#245,#246,#247,#248,#249,#250));
#687=EDGE_LOOP('',(#251,#252,#253,#254,#255,#256));
#688=EDGE_LOOP('',(#257,#258,#259,#260,#261,#262,#263,#264));
#689=EDGE_LOOP('',(#265,#266,#267,#268,#269,#270,#271,#272));
#690=EDGE_LOOP('',(#273,#274,#275,#276));
#691=EDGE_LOOP('',(#277,#278,#279,#280));
#692=EDGE_LOOP('',(#281,#282,#283,#284));
#693=EDGE_LOOP('',(#285,#286,#287,#288,#289,#290,#291,#292,#293,#294));
#694=EDGE_LOOP('',(#295,#296,#297,#298,#299,#300,#301,#302));
#695=EDGE_LOOP('',(#303,#304,#305,#306,#307,#308,#309,#310,#311,#312));
#696=EDGE_LOOP('',(#313,#314,#315,#316,#317,#318,#319,#320,#321,#322,#323,
#324,#325,#326));
#697=EDGE_LOOP('',(#327,#328,#329,#330));
#698=EDGE_LOOP('',(#331,#332,#333,#334));
#699=EDGE_LOOP('',(#335,#336,#337,#338));
#700=EDGE_LOOP('',(#339,#340,#341,#342,#343,#344,#345,#346));
#701=EDGE_LOOP('',(#347,#348,#349,#350));
#702=EDGE_LOOP('',(#351,#352,#353,#354));
#703=EDGE_LOOP('',(#355,#356,#357,#358));
#704=EDGE_LOOP('',(#359,#360,#361,#362,#363,#364,#365,#366));
#705=EDGE_LOOP('',(#367));
#706=EDGE_LOOP('',(#368,#369));
#707=EDGE_LOOP('',(#370,#371,#372,#373));
#708=EDGE_LOOP('',(#374,#375,#376,#377));
#709=EDGE_LOOP('',(#378,#379,#380,#381));
#710=EDGE_LOOP('',(#382));
#711=EDGE_LOOP('',(#383,#384));
#712=EDGE_LOOP('',(#385));
#713=EDGE_LOOP('',(#386));
#714=EDGE_LOOP('',(#387));
#715=EDGE_LOOP('',(#388));
#716=EDGE_LOOP('',(#389));
#717=EDGE_LOOP('',(#390));
#718=EDGE_LOOP('',(#391));
#719=EDGE_LOOP('',(#392));
#720=EDGE_LOOP('',(#393));
#721=EDGE_LOOP('',(#394));
#722=EDGE_LOOP('',(#395,#396,#397,#398));
#723=EDGE_LOOP('',(#399,#400,#401,#402));
#724=EDGE_LOOP('',(#403,#404,#405,#406));
#725=EDGE_LOOP('',(#407,#408,#409,#410));
#726=EDGE_LOOP('',(#411,#412,#413,#414));
#727=EDGE_LOOP('',(#415,#416,#417,#418,#419));
#728=EDGE_LOOP('',(#420,#421,#422,#423,#424));
#729=EDGE_LOOP('',(#425,#426,#427,#428));
#730=EDGE_LOOP('',(#429,#430,#431,#432));
#731=EDGE_LOOP('',(#433,#434,#435,#436));
#732=EDGE_LOOP('',(#437,#438,#439,#440));
#733=EDGE_LOOP('',(#441,#442,#443,#444));
#734=EDGE_LOOP('',(#445,#446,#447,#448,#449));
#735=EDGE_LOOP('',(#450,#451,#452,#453));
#736=EDGE_LOOP('',(#454,#455,#456,#457));
#737=EDGE_LOOP('',(#458,#459,#460,#461));
#738=EDGE_LOOP('',(#462,#463,#464,#465,#466));
#739=FACE_BOUND('',#682,.T.);
#740=FACE_BOUND('',#683,.T.);
#741=FACE_BOUND('',#684,.T.);
#742=FACE_BOUND('',#685,.T.);
#743=FACE_BOUND('',#686,.T.);
#744=FACE_BOUND('',#687,.T.);
#745=FACE_BOUND('',#688,.T.);
#746=FACE_BOUND('',#689,.T.);
#747=FACE_BOUND('',#690,.T.);
#748=FACE_BOUND('',#691,.T.);
#749=FACE_BOUND('',#692,.T.);
#750=FACE_BOUND('',#693,.T.);
#751=FACE_BOUND('',#694,.T.);
#752=FACE_BOUND('',#695,.T.);
#753=FACE_BOUND('',#696,.T.);
#754=FACE_BOUND('',#697,.T.);
#755=FACE_BOUND('',#698,.T.);
#756=FACE_BOUND('',#699,.T.);
#757=FACE_BOUND('',#700,.T.);
#758=FACE_BOUND('',#701,.T.);
#759=FACE_BOUND('',#702,.T.);
#760=FACE_BOUND('',#703,.T.);
#761=FACE_BOUND('',#704,.T.);
#762=FACE_BOUND('',#705,.T.);
#763=FACE_BOUND('',#706,.T.);
#764=FACE_BOUND('',#707,.T.);
#765=FACE_BOUND('',#708,.T.);
#766=FACE_BOUND('',#709,.T.);
#767=FACE_BOUND('',#710,.T.);
#768=FACE_BOUND('',#711,.T.);
#769=FACE_BOUND('',#712,.T.);
#770=FACE_BOUND('',#713,.T.);
#771=FACE_BOUND('',#714,.T.);
#772=FACE_BOUND('',#715,.T.);
#773=FACE_BOUND('',#716,.T.);
#774=FACE_BOUND('',#717,.T.);
#775=FACE_BOUND('',#718,.T.);
#776=FACE_BOUND('',#719,.T.);
#777=FACE_BOUND('',#720,.T.);
#778=FACE_BOUND('',#721,.T.);
#779=FACE_BOUND('',#722,.T.);
#780=FACE_BOUND('',#723,.T.);
#781=FACE_BOUND('',#724,.T.);
#782=FACE_BOUND('',#725,.T.);
#783=FACE_BOUND('',#726,.T.);
#784=FACE_BOUND('',#727,.T.);
#785=FACE_BOUND('',#728,.T.);
#786=FACE_BOUND('',#729,.T.);
#787=FACE_BOUND('',#730,.T.);
#788=FACE_BOUND('',#731,.T.);
#789=FACE_BOUND('',#732,.T.);
#790=FACE_BOUND('',#733,.T.);
#791=FACE_BOUND('',#734,.T.);
#792=FACE_BOUND('',#735,.T.);
#793=FACE_BOUND('',#736,.T.);
#794=FACE_BOUND('',#737,.T.);
#795=FACE_BOUND('',#738,.T.);
#796=PLANE('',#1243);
#797=PLANE('',#1251);
#798=PLANE('',#1252);
#799=PLANE('',#1254);
#800=PLANE('',#1255);
#801=PLANE('',#1257);
#802=PLANE('',#1258);
#803=PLANE('',#1259);
#804=PLANE('',#1260);
#805=PLANE('',#1261);
#806=PLANE('',#1262);
#807=PLANE('',#1263);
#808=PLANE('',#1264);
#809=PLANE('',#1265);
#810=PLANE('',#1267);
#811=PLANE('',#1268);
#812=PLANE('',#1269);
#813=PLANE('',#1270);
#814=PLANE('',#1272);
#815=PLANE('',#1275);
#816=PLANE('',#1283);
#817=PLANE('',#1287);
#818=PLANE('',#1294);
#819=PLANE('',#1295);
#820=PLANE('',#1296);
#821=PLANE('',#1297);
#822=PLANE('',#1298);
#823=PLANE('',#1299);
#824=PLANE('',#1300);
#825=PLANE('',#1301);
#826=PLANE('',#1302);
#827=PLANE('',#1303);
#828=PLANE('',#1304);
#829=PLANE('',#1305);
#830=PLANE('',#1306);
#831=PLANE('',#1307);
#832=PLANE('',#1308);
#833=PLANE('',#1309);
#834=PLANE('',#1310);
#835=STYLED_ITEM('',(#885),#1188);
#836=STYLED_ITEM('',(#886),#1189);
#837=STYLED_ITEM('',(#887),#1190);
#838=STYLED_ITEM('',(#888),#1191);
#839=STYLED_ITEM('',(#889),#1192);
#840=STYLED_ITEM('',(#890),#1193);
#841=STYLED_ITEM('',(#891),#1194);
#842=STYLED_ITEM('',(#892),#1195);
#843=STYLED_ITEM('',(#893),#1196);
#844=STYLED_ITEM('',(#894),#1197);
#845=STYLED_ITEM('',(#895),#1198);
#846=STYLED_ITEM('',(#896),#1199);
#847=STYLED_ITEM('',(#897),#1200);
#848=STYLED_ITEM('',(#898),#1201);
#849=STYLED_ITEM('',(#899),#1202);
#850=STYLED_ITEM('',(#900),#1203);
#851=STYLED_ITEM('',(#901),#1204);
#852=STYLED_ITEM('',(#902),#1205);
#853=STYLED_ITEM('',(#903),#1206);
#854=STYLED_ITEM('',(#904),#1207);
#855=STYLED_ITEM('',(#905),#1208);
#856=STYLED_ITEM('',(#906),#1209);
#857=STYLED_ITEM('',(#907),#1210);
#858=STYLED_ITEM('',(#908),#1211);
#859=STYLED_ITEM('',(#909),#1212);
#860=STYLED_ITEM('',(#910),#1213);
#861=STYLED_ITEM('',(#911),#1214);
#862=STYLED_ITEM('',(#912),#1215);
#863=STYLED_ITEM('',(#913),#1216);
#864=STYLED_ITEM('',(#914),#1217);
#865=STYLED_ITEM('',(#915),#1218);
#866=STYLED_ITEM('',(#916),#1219);
#867=STYLED_ITEM('',(#917),#1220);
#868=STYLED_ITEM('',(#918),#1221);
#869=STYLED_ITEM('',(#919),#1222);
#870=STYLED_ITEM('',(#920),#1223);
#871=STYLED_ITEM('',(#921),#1224);
#872=STYLED_ITEM('',(#922),#1225);
#873=STYLED_ITEM('',(#923),#1226);
#874=STYLED_ITEM('',(#924),#1227);
#875=STYLED_ITEM('',(#925),#1228);
#876=STYLED_ITEM('',(#926),#1229);
#877=STYLED_ITEM('',(#927),#1230);
#878=STYLED_ITEM('',(#928),#1231);
#879=STYLED_ITEM('',(#929),#1232);
#880=STYLED_ITEM('',(#930),#1233);
#881=STYLED_ITEM('',(#931),#1234);
#882=STYLED_ITEM('',(#932),#1235);
#883=STYLED_ITEM('',(#933),#1236);
#884=STYLED_ITEM('',(#934),#1237);
#885=PRESENTATION_STYLE_ASSIGNMENT((#935));
#886=PRESENTATION_STYLE_ASSIGNMENT((#936));
#887=PRESENTATION_STYLE_ASSIGNMENT((#937));
#888=PRESENTATION_STYLE_ASSIGNMENT((#938));
#889=PRESENTATION_STYLE_ASSIGNMENT((#939));
#890=PRESENTATION_STYLE_ASSIGNMENT((#940));
#891=PRESENTATION_STYLE_ASSIGNMENT((#941));
#892=PRESENTATION_STYLE_ASSIGNMENT((#942));
#893=PRESENTATION_STYLE_ASSIGNMENT((#943));
#894=PRESENTATION_STYLE_ASSIGNMENT((#944));
#895=PRESENTATION_STYLE_ASSIGNMENT((#945));
#896=PRESENTATION_STYLE_ASSIGNMENT((#946));
#897=PRESENTATION_STYLE_ASSIGNMENT((#947));
#898=PRESENTATION_STYLE_ASSIGNMENT((#948));
#899=PRESENTATION_STYLE_ASSIGNMENT((#949));
#900=PRESENTATION_STYLE_ASSIGNMENT((#950));
#901=PRESENTATION_STYLE_ASSIGNMENT((#951));
#902=PRESENTATION_STYLE_ASSIGNMENT((#952));
#903=PRESENTATION_STYLE_ASSIGNMENT((#953));
#904=PRESENTATION_STYLE_ASSIGNMENT((#954));
#905=PRESENTATION_STYLE_ASSIGNMENT((#955));
#906=PRESENTATION_STYLE_ASSIGNMENT((#956));
#907=PRESENTATION_STYLE_ASSIGNMENT((#957));
#908=PRESENTATION_STYLE_ASSIGNMENT((#958));
#909=PRESENTATION_STYLE_ASSIGNMENT((#959));
#910=PRESENTATION_STYLE_ASSIGNMENT((#960));
#911=PRESENTATION_STYLE_ASSIGNMENT((#961));
#912=PRESENTATION_STYLE_ASSIGNMENT((#962));
#913=PRESENTATION_STYLE_ASSIGNMENT((#963));
#914=PRESENTATION_STYLE_ASSIGNMENT((#964));
#915=PRESENTATION_STYLE_ASSIGNMENT((#965));
#916=PRESENTATION_STYLE_ASSIGNMENT((#966));
#917=PRESENTATION_STYLE_ASSIGNMENT((#967));
#918=PRESENTATION_STYLE_ASSIGNMENT((#968));
#919=PRESENTATION_STYLE_ASSIGNMENT((#969));
#920=PRESENTATION_STYLE_ASSIGNMENT((#970));
#921=PRESENTATION_STYLE_ASSIGNMENT((#971));
#922=PRESENTATION_STYLE_ASSIGNMENT((#972));
#923=PRESENTATION_STYLE_ASSIGNMENT((#973));
#924=PRESENTATION_STYLE_ASSIGNMENT((#974));
#925=PRESENTATION_STYLE_ASSIGNMENT((#975));
#926=PRESENTATION_STYLE_ASSIGNMENT((#976));
#927=PRESENTATION_STYLE_ASSIGNMENT((#977));
#928=PRESENTATION_STYLE_ASSIGNMENT((#978));
#929=PRESENTATION_STYLE_ASSIGNMENT((#979));
#930=PRESENTATION_STYLE_ASSIGNMENT((#980));
#931=PRESENTATION_STYLE_ASSIGNMENT((#981));
#932=PRESENTATION_STYLE_ASSIGNMENT((#982));
#933=PRESENTATION_STYLE_ASSIGNMENT((#983));
#934=PRESENTATION_STYLE_ASSIGNMENT((#984));
#935=SURFACE_STYLE_USAGE(.BOTH.,#985);
#936=SURFACE_STYLE_USAGE(.BOTH.,#986);
#937=SURFACE_STYLE_USAGE(.BOTH.,#987);
#938=SURFACE_STYLE_USAGE(.BOTH.,#988);
#939=SURFACE_STYLE_USAGE(.BOTH.,#989);
#940=SURFACE_STYLE_USAGE(.BOTH.,#990);
#941=SURFACE_STYLE_USAGE(.BOTH.,#991);
#942=SURFACE_STYLE_USAGE(.BOTH.,#992);
#943=SURFACE_STYLE_USAGE(.BOTH.,#993);
#944=SURFACE_STYLE_USAGE(.BOTH.,#994);
#945=SURFACE_STYLE_USAGE(.BOTH.,#995);
#946=SURFACE_STYLE_USAGE(.BOTH.,#996);
#947=SURFACE_STYLE_USAGE(.BOTH.,#997);
#948=SURFACE_STYLE_USAGE(.BOTH.,#998);
#949=SURFACE_STYLE_USAGE(.BOTH.,#999);
#950=SURFACE_STYLE_USAGE(.BOTH.,#1000);
#951=SURFACE_STYLE_USAGE(.BOTH.,#1001);
#952=SURFACE_STYLE_USAGE(.BOTH.,#1002);
#953=SURFACE_STYLE_USAGE(.BOTH.,#1003);
#954=SURFACE_STYLE_USAGE(.BOTH.,#1004);
#955=SURFACE_STYLE_USAGE(.BOTH.,#1005);
#956=SURFACE_STYLE_USAGE(.BOTH.,#1006);
#957=SURFACE_STYLE_USAGE(.BOTH.,#1007);
#958=SURFACE_STYLE_USAGE(.BOTH.,#1008);
#959=SURFACE_STYLE_USAGE(.BOTH.,#1009);
#960=SURFACE_STYLE_USAGE(.BOTH.,#1010);
#961=SURFACE_STYLE_USAGE(.BOTH.,#1011);
#962=SURFACE_STYLE_USAGE(.BOTH.,#1012);
#963=SURFACE_STYLE_USAGE(.BOTH.,#1013);
#964=SURFACE_STYLE_USAGE(.BOTH.,#1014);
#965=SURFACE_STYLE_USAGE(.BOTH.,#1015);
#966=SURFACE_STYLE_USAGE(.BOTH.,#1016);
#967=SURFACE_STYLE_USAGE(.BOTH.,#1017);
#968=SURFACE_STYLE_USAGE(.BOTH.,#1018);
#969=SURFACE_STYLE_USAGE(.BOTH.,#1019);
#970=SURFACE_STYLE_USAGE(.BOTH.,#1020);
#971=SURFACE_STYLE_USAGE(.BOTH.,#1021);
#972=SURFACE_STYLE_USAGE(.BOTH.,#1022);
#973=SURFACE_STYLE_USAGE(.BOTH.,#1023);
#974=SURFACE_STYLE_USAGE(.BOTH.,#1024);
#975=SURFACE_STYLE_USAGE(.BOTH.,#1025);
#976=SURFACE_STYLE_USAGE(.BOTH.,#1026);
#977=SURFACE_STYLE_USAGE(.BOTH.,#1027);
#978=SURFACE_STYLE_USAGE(.BOTH.,#1028);
#979=SURFACE_STYLE_USAGE(.BOTH.,#1029);
#980=SURFACE_STYLE_USAGE(.BOTH.,#1030);
#981=SURFACE_STYLE_USAGE(.BOTH.,#1031);
#982=SURFACE_STYLE_USAGE(.BOTH.,#1032);
#983=SURFACE_STYLE_USAGE(.BOTH.,#1033);
#984=SURFACE_STYLE_USAGE(.BOTH.,#1034);
#985=SURFACE_SIDE_STYLE('',(#1035));
#986=SURFACE_SIDE_STYLE('',(#1036));
#987=SURFACE_SIDE_STYLE('',(#1037));
#988=SURFACE_SIDE_STYLE('',(#1038));
#989=SURFACE_SIDE_STYLE('',(#1039));
#990=SURFACE_SIDE_STYLE('',(#1040));
#991=SURFACE_SIDE_STYLE('',(#1041));
#992=SURFACE_SIDE_STYLE('',(#1042));
#993=SURFACE_SIDE_STYLE('',(#1043));
#994=SURFACE_SIDE_STYLE('',(#1044));
#995=SURFACE_SIDE_STYLE('',(#1045));
#996=SURFACE_SIDE_STYLE('',(#1046));
#997=SURFACE_SIDE_STYLE('',(#1047));
#998=SURFACE_SIDE_STYLE('',(#1048));
#999=SURFACE_SIDE_STYLE('',(#1049));
#1000=SURFACE_SIDE_STYLE('',(#1050));
#1001=SURFACE_SIDE_STYLE('',(#1051));
#1002=SURFACE_SIDE_STYLE('',(#1052));
#1003=SURFACE_SIDE_STYLE('',(#1053));
#1004=SURFACE_SIDE_STYLE('',(#1054));
#1005=SURFACE_SIDE_STYLE('',(#1055));
#1006=SURFACE_SIDE_STYLE('',(#1056));
#1007=SURFACE_SIDE_STYLE('',(#1057));
#1008=SURFACE_SIDE_STYLE('',(#1058));
#1009=SURFACE_SIDE_STYLE('',(#1059));
#1010=SURFACE_SIDE_STYLE('',(#1060));
#1011=SURFACE_SIDE_STYLE('',(#1061));
#1012=SURFACE_SIDE_STYLE('',(#1062));
#1013=SURFACE_SIDE_STYLE('',(#1063));
#1014=SURFACE_SIDE_STYLE('',(#1064));
#1015=SURFACE_SIDE_STYLE('',(#1065));
#1016=SURFACE_SIDE_STYLE('',(#1066));
#1017=SURFACE_SIDE_STYLE('',(#1067));
#1018=SURFACE_SIDE_STYLE('',(#1068));
#1019=SURFACE_SIDE_STYLE('',(#1069));
#1020=SURFACE_SIDE_STYLE('',(#1070));
#1021=SURFACE_SIDE_STYLE('',(#1071));
#1022=SURFACE_SIDE_STYLE('',(#1072));
#1023=SURFACE_SIDE_STYLE('',(#1073));
#1024=SURFACE_SIDE_STYLE('',(#1074));
#1025=SURFACE_SIDE_STYLE('',(#1075));
#1026=SURFACE_SIDE_STYLE('',(#1076));
#1027=SURFACE_SIDE_STYLE('',(#1077));
#1028=SURFACE_SIDE_STYLE('',(#1078));
#1029=SURFACE_SIDE_STYLE('',(#1079));
#1030=SURFACE_SIDE_STYLE('',(#1080));
#1031=SURFACE_SIDE_STYLE('',(#1081));
#1032=SURFACE_SIDE_STYLE('',(#1082));
#1033=SURFACE_SIDE_STYLE('',(#1083));
#1034=SURFACE_SIDE_STYLE('',(#1084));
#1035=SURFACE_STYLE_FILL_AREA(#1085);
#1036=SURFACE_STYLE_FILL_AREA(#1086);
#1037=SURFACE_STYLE_FILL_AREA(#1087);
#1038=SURFACE_STYLE_FILL_AREA(#1088);
#1039=SURFACE_STYLE_FILL_AREA(#1089);
#1040=SURFACE_STYLE_FILL_AREA(#1090);
#1041=SURFACE_STYLE_FILL_AREA(#1091);
#1042=SURFACE_STYLE_FILL_AREA(#1092);
#1043=SURFACE_STYLE_FILL_AREA(#1093);
#1044=SURFACE_STYLE_FILL_AREA(#1094);
#1045=SURFACE_STYLE_FILL_AREA(#1095);
#1046=SURFACE_STYLE_FILL_AREA(#1096);
#1047=SURFACE_STYLE_FILL_AREA(#1097);
#1048=SURFACE_STYLE_FILL_AREA(#1098);
#1049=SURFACE_STYLE_FILL_AREA(#1099);
#1050=SURFACE_STYLE_FILL_AREA(#1100);
#1051=SURFACE_STYLE_FILL_AREA(#1101);
#1052=SURFACE_STYLE_FILL_AREA(#1102);
#1053=SURFACE_STYLE_FILL_AREA(#1103);
#1054=SURFACE_STYLE_FILL_AREA(#1104);
#1055=SURFACE_STYLE_FILL_AREA(#1105);
#1056=SURFACE_STYLE_FILL_AREA(#1106);
#1057=SURFACE_STYLE_FILL_AREA(#1107);
#1058=SURFACE_STYLE_FILL_AREA(#1108);
#1059=SURFACE_STYLE_FILL_AREA(#1109);
#1060=SURFACE_STYLE_FILL_AREA(#1110);
#1061=SURFACE_STYLE_FILL_AREA(#1111);
#1062=SURFACE_STYLE_FILL_AREA(#1112);
#1063=SURFACE_STYLE_FILL_AREA(#1113);
#1064=SURFACE_STYLE_FILL_AREA(#1114);
#1065=SURFACE_STYLE_FILL_AREA(#1115);
#1066=SURFACE_STYLE_FILL_AREA(#1116);
#1067=SURFACE_STYLE_FILL_AREA(#1117);
#1068=SURFACE_STYLE_FILL_AREA(#1118);
#1069=SURFACE_STYLE_FILL_AREA(#1119);
#1070=SURFACE_STYLE_FILL_AREA(#1120);
#1071=SURFACE_STYLE_FILL_AREA(#1121);
#1072=SURFACE_STYLE_FILL_AREA(#1122);
#1073=SURFACE_STYLE_FILL_AREA(#1123);
#1074=SURFACE_STYLE_FILL_AREA(#1124);
#1075=SURFACE_STYLE_FILL_AREA(#1125);
#1076=SURFACE_STYLE_FILL_AREA(#1126);
#1077=SURFACE_STYLE_FILL_AREA(#1127);
#1078=SURFACE_STYLE_FILL_AREA(#1128);
#1079=SURFACE_STYLE_FILL_AREA(#1129);
#1080=SURFACE_STYLE_FILL_AREA(#1130);
#1081=SURFACE_STYLE_FILL_AREA(#1131);
#1082=SURFACE_STYLE_FILL_AREA(#1132);
#1083=SURFACE_STYLE_FILL_AREA(#1133);
#1084=SURFACE_STYLE_FILL_AREA(#1134);
#1085=FILL_AREA_STYLE('',(#1135));
#1086=FILL_AREA_STYLE('',(#1136));
#1087=FILL_AREA_STYLE('',(#1137));
#1088=FILL_AREA_STYLE('',(#1138));
#1089=FILL_AREA_STYLE('',(#1139));
#1090=FILL_AREA_STYLE('',(#1140));
#1091=FILL_AREA_STYLE('',(#1141));
#1092=FILL_AREA_STYLE('',(#1142));
#1093=FILL_AREA_STYLE('',(#1143));
#1094=FILL_AREA_STYLE('',(#1144));
#1095=FILL_AREA_STYLE('',(#1145));
#1096=FILL_AREA_STYLE('',(#1146));
#1097=FILL_AREA_STYLE('',(#1147));
#1098=FILL_AREA_STYLE('',(#1148));
#1099=FILL_AREA_STYLE('',(#1149));
#1100=FILL_AREA_STYLE('',(#1150));
#1101=FILL_AREA_STYLE('',(#1151));
#1102=FILL_AREA_STYLE('',(#1152));
#1103=FILL_AREA_STYLE('',(#1153));
#1104=FILL_AREA_STYLE('',(#1154));
#1105=FILL_AREA_STYLE('',(#1155));
#1106=FILL_AREA_STYLE('',(#1156));
#1107=FILL_AREA_STYLE('',(#1157));
#1108=FILL_AREA_STYLE('',(#1158));
#1109=FILL_AREA_STYLE('',(#1159));
#1110=FILL_AREA_STYLE('',(#1160));
#1111=FILL_AREA_STYLE('',(#1161));
#1112=FILL_AREA_STYLE('',(#1162));
#1113=FILL_AREA_STYLE('',(#1163));
#1114=FILL_AREA_STYLE('',(#1164));
#1115=FILL_AREA_STYLE('',(#1165));
#1116=FILL_AREA_STYLE('',(#1166));
#1117=FILL_AREA_STYLE('',(#1167));
#1118=FILL_AREA_STYLE('',(#1168));
#1119=FILL_AREA_STYLE('',(#1169));
#1120=FILL_AREA_STYLE('',(#1170));
#1121=FILL_AREA_STYLE('',(#1171));
#1122=FILL_AREA_STYLE('',(#1172));
#1123=FILL_AREA_STYLE('',(#1173));
#1124=FILL_AREA_STYLE('',(#1174));
#1125=FILL_AREA_STYLE('',(#1175));
#1126=FILL_AREA_STYLE('',(#1176));
#1127=FILL_AREA_STYLE('',(#1177));
#1128=FILL_AREA_STYLE('',(#1178));
#1129=FILL_AREA_STYLE('',(#1179));
#1130=FILL_AREA_STYLE('',(#1180));
#1131=FILL_AREA_STYLE('',(#1181));
#1132=FILL_AREA_STYLE('',(#1182));
#1133=FILL_AREA_STYLE('',(#1183));
#1134=FILL_AREA_STYLE('',(#1184));
#1135=FILL_AREA_STYLE_COLOUR('',#1185);
#1136=FILL_AREA_STYLE_COLOUR('',#1185);
#1137=FILL_AREA_STYLE_COLOUR('',#1185);
#1138=FILL_AREA_STYLE_COLOUR('',#1185);
#1139=FILL_AREA_STYLE_COLOUR('',#1186);
#1140=FILL_AREA_STYLE_COLOUR('',#1186);
#1141=FILL_AREA_STYLE_COLOUR('',#1186);
#1142=FILL_AREA_STYLE_COLOUR('',#1186);
#1143=FILL_AREA_STYLE_COLOUR('',#1186);
#1144=FILL_AREA_STYLE_COLOUR('',#1186);
#1145=FILL_AREA_STYLE_COLOUR('',#1186);
#1146=FILL_AREA_STYLE_COLOUR('',#1186);
#1147=FILL_AREA_STYLE_COLOUR('',#1186);
#1148=FILL_AREA_STYLE_COLOUR('',#1186);
#1149=FILL_AREA_STYLE_COLOUR('',#1186);
#1150=FILL_AREA_STYLE_COLOUR('',#1186);
#1151=FILL_AREA_STYLE_COLOUR('',#1186);
#1152=FILL_AREA_STYLE_COLOUR('',#1186);
#1153=FILL_AREA_STYLE_COLOUR('',#1186);
#1154=FILL_AREA_STYLE_COLOUR('',#1186);
#1155=FILL_AREA_STYLE_COLOUR('',#1186);
#1156=FILL_AREA_STYLE_COLOUR('',#1186);
#1157=FILL_AREA_STYLE_COLOUR('',#1185);
#1158=FILL_AREA_STYLE_COLOUR('',#1186);
#1159=FILL_AREA_STYLE_COLOUR('',#1186);
#1160=FILL_AREA_STYLE_COLOUR('',#1186);
#1161=FILL_AREA_STYLE_COLOUR('',#1186);
#1162=FILL_AREA_STYLE_COLOUR('',#1186);
#1163=FILL_AREA_STYLE_COLOUR('',#1185);
#1164=FILL_AREA_STYLE_COLOUR('',#1185);
#1165=FILL_AREA_STYLE_COLOUR('',#1185);
#1166=FILL_AREA_STYLE_COLOUR('',#1185);
#1167=FILL_AREA_STYLE_COLOUR('',#1185);
#1168=FILL_AREA_STYLE_COLOUR('',#1186);
#1169=FILL_AREA_STYLE_COLOUR('',#1186);
#1170=FILL_AREA_STYLE_COLOUR('',#1186);
#1171=FILL_AREA_STYLE_COLOUR('',#1186);
#1172=FILL_AREA_STYLE_COLOUR('',#1186);
#1173=FILL_AREA_STYLE_COLOUR('',#1187);
#1174=FILL_AREA_STYLE_COLOUR('',#1187);
#1175=FILL_AREA_STYLE_COLOUR('',#1187);
#1176=FILL_AREA_STYLE_COLOUR('',#1187);
#1177=FILL_AREA_STYLE_COLOUR('',#1187);
#1178=FILL_AREA_STYLE_COLOUR('',#1187);
#1179=FILL_AREA_STYLE_COLOUR('',#1187);
#1180=FILL_AREA_STYLE_COLOUR('',#1187);
#1181=FILL_AREA_STYLE_COLOUR('',#1187);
#1182=FILL_AREA_STYLE_COLOUR('',#1187);
#1183=FILL_AREA_STYLE_COLOUR('',#1187);
#1184=FILL_AREA_STYLE_COLOUR('',#1187);
#1185=COLOUR_RGB('',0.5,0.5,0.5);
#1186=COLOUR_RGB('',0.200000002980232,0.200000002980232,0.200000002980232);
#1187=COLOUR_RGB('',0.699999988079071,0.699999988079071,0.699999988079071);
#1188=ADVANCED_FACE('',(#739),#796,.T.);
#1189=ADVANCED_FACE('',(#740),#29,.T.);
#1190=ADVANCED_FACE('',(#741),#21,.T.);
#1191=ADVANCED_FACE('',(#742),#30,.T.);
#1192=ADVANCED_FACE('',(#743),#797,.F.);
#1193=ADVANCED_FACE('',(#744),#798,.F.);
#1194=ADVANCED_FACE('',(#745),#799,.F.);
#1195=ADVANCED_FACE('',(#746),#800,.F.);
#1196=ADVANCED_FACE('',(#747),#801,.T.);
#1197=ADVANCED_FACE('',(#748),#802,.T.);
#1198=ADVANCED_FACE('',(#749),#803,.F.);
#1199=ADVANCED_FACE('',(#750),#804,.T.);
#1200=ADVANCED_FACE('',(#751),#805,.T.);
#1201=ADVANCED_FACE('',(#752),#806,.T.);
#1202=ADVANCED_FACE('',(#753),#807,.T.);
#1203=ADVANCED_FACE('',(#754),#808,.F.);
#1204=ADVANCED_FACE('',(#755),#809,.F.);
#1205=ADVANCED_FACE('',(#756),#810,.F.);
#1206=ADVANCED_FACE('',(#757),#811,.T.);
#1207=ADVANCED_FACE('',(#758),#812,.F.);
#1208=ADVANCED_FACE('',(#759),#813,.F.);
#1209=ADVANCED_FACE('',(#760),#814,.F.);
#1210=ADVANCED_FACE('',(#761,#762),#22,.T.);
#1211=ADVANCED_FACE('',(#763),#815,.T.);
#1212=ADVANCED_FACE('',(#764),#31,.T.);
#1213=ADVANCED_FACE('',(#765),#23,.T.);
#1214=ADVANCED_FACE('',(#766),#32,.T.);
#1215=ADVANCED_FACE('',(#767,#768),#816,.T.);
#1216=ADVANCED_FACE('',(#769,#770),#24,.T.);
#1217=ADVANCED_FACE('',(#771,#772),#817,.T.);
#1218=ADVANCED_FACE('',(#773,#774),#33,.T.);
#1219=ADVANCED_FACE('',(#775,#776),#20,.T.);
#1220=ADVANCED_FACE('',(#777,#778),#34,.T.);
#1221=ADVANCED_FACE('',(#779),#818,.T.);
#1222=ADVANCED_FACE('',(#780),#819,.F.);
#1223=ADVANCED_FACE('',(#781),#820,.F.);
#1224=ADVANCED_FACE('',(#782),#821,.F.);
#1225=ADVANCED_FACE('',(#783),#822,.F.);
#1226=ADVANCED_FACE('',(#784),#823,.T.);
#1227=ADVANCED_FACE('',(#785),#824,.F.);
#1228=ADVANCED_FACE('',(#786),#825,.F.);
#1229=ADVANCED_FACE('',(#787),#826,.F.);
#1230=ADVANCED_FACE('',(#788),#827,.F.);
#1231=ADVANCED_FACE('',(#789),#828,.F.);
#1232=ADVANCED_FACE('',(#790),#829,.T.);
#1233=ADVANCED_FACE('',(#791),#830,.F.);
#1234=ADVANCED_FACE('',(#792),#831,.T.);
#1235=ADVANCED_FACE('',(#793),#832,.T.);
#1236=ADVANCED_FACE('',(#794),#833,.T.);
#1237=ADVANCED_FACE('',(#795),#834,.T.);
#1238=CLOSED_SHELL('',(#1188,#1189,#1190,#1191,#1192,#1193,#1194,#1195,
#1196,#1197,#1198,#1199,#1200,#1201,#1202,#1203,#1204,#1205,#1206,#1207,
#1208,#1209,#1210,#1211,#1212,#1213,#1214,#1215,#1216,#1217,#1218,#1219,
#1220,#1221,#1222,#1223,#1224,#1225,#1226,#1227,#1228,#1229,#1230,#1231,
#1232,#1233,#1234,#1235,#1236,#1237));
#1239=MANIFOLD_SOLID_BREP('',#1238);
#1240=SHAPE_DEFINITION_REPRESENTATION(#1816,#1241);
#1241=SHAPE_REPRESENTATION('AEF08124R7M400R',(#1242),#1811);
#1242=AXIS2_PLACEMENT_3D('',#1546,#1311,#1312);
#1243=AXIS2_PLACEMENT_3D('',#1547,#1313,#1314);
#1244=AXIS2_PLACEMENT_3D('',#1548,#1315,#1316);
#1245=AXIS2_PLACEMENT_3D('',#1552,#1318,#1319);
#1246=AXIS2_PLACEMENT_3D('',#1553,#1320,#1321);
#1247=AXIS2_PLACEMENT_3D('',#1566,#1322,#1323);
#1248=AXIS2_PLACEMENT_3D('',#1569,#1325,#1326);
#1249=AXIS2_PLACEMENT_3D('',#1572,#1328,#1329);
#1250=AXIS2_PLACEMENT_3D('',#1573,#1330,#1331);
#1251=AXIS2_PLACEMENT_3D('',#1586,#1332,#1333);
#1252=AXIS2_PLACEMENT_3D('',#1603,#1342,#1343);
#1253=AXIS2_PLACEMENT_3D('',#1613,#1348,#1349);
#1254=AXIS2_PLACEMENT_3D('',#1616,#1351,#1352);
#1255=AXIS2_PLACEMENT_3D('',#1633,#1361,#1362);
#1256=AXIS2_PLACEMENT_3D('',#1643,#1367,#1368);
#1257=AXIS2_PLACEMENT_3D('',#1650,#1372,#1373);
#1258=AXIS2_PLACEMENT_3D('',#1656,#1377,#1378);
#1259=AXIS2_PLACEMENT_3D('',#1660,#1381,#1382);
#1260=AXIS2_PLACEMENT_3D('',#1666,#1386,#1387);
#1261=AXIS2_PLACEMENT_3D('',#1676,#1394,#1395);
#1262=AXIS2_PLACEMENT_3D('',#1687,#1402,#1403);
#1263=AXIS2_PLACEMENT_3D('',#1695,#1409,#1410);
#1264=AXIS2_PLACEMENT_3D('',#1704,#1417,#1418);
#1265=AXIS2_PLACEMENT_3D('',#1710,#1422,#1423);
#1266=AXIS2_PLACEMENT_3D('',#1713,#1425,#1426);
#1267=AXIS2_PLACEMENT_3D('',#1716,#1428,#1429);
#1268=AXIS2_PLACEMENT_3D('',#1718,#1431,#1432);
#1269=AXIS2_PLACEMENT_3D('',#1723,#1436,#1437);
#1270=AXIS2_PLACEMENT_3D('',#1725,#1439,#1440);
#1271=AXIS2_PLACEMENT_3D('',#1728,#1442,#1443);
#1272=AXIS2_PLACEMENT_3D('',#1729,#1444,#1445);
#1273=AXIS2_PLACEMENT_3D('',#1731,#1447,#1448);
#1274=AXIS2_PLACEMENT_3D('',#1732,#1449,#1450);
#1275=AXIS2_PLACEMENT_3D('',#1734,#1451,#1452);
#1276=AXIS2_PLACEMENT_3D('',#1735,#1453,#1454);
#1277=AXIS2_PLACEMENT_3D('',#1736,#1455,#1456);
#1278=AXIS2_PLACEMENT_3D('',#1737,#1457,#1458);
#1279=AXIS2_PLACEMENT_3D('',#1738,#1459,#1460);
#1280=AXIS2_PLACEMENT_3D('',#1739,#1461,#1462);
#1281=AXIS2_PLACEMENT_3D('',#1740,#1463,#1464);
#1282=AXIS2_PLACEMENT_3D('',#1741,#1465,#1466);
#1283=AXIS2_PLACEMENT_3D('',#1742,#1467,#1468);
#1284=AXIS2_PLACEMENT_3D('',#1743,#1469,#1470);
#1285=AXIS2_PLACEMENT_3D('',#1745,#1471,#1472);
#1286=AXIS2_PLACEMENT_3D('',#1746,#1473,#1474);
#1287=AXIS2_PLACEMENT_3D('',#1748,#1475,#1476);
#1288=AXIS2_PLACEMENT_3D('',#1749,#1477,#1478);
#1289=AXIS2_PLACEMENT_3D('',#1751,#1479,#1480);
#1290=AXIS2_PLACEMENT_3D('',#1752,#1481,#1482);
#1291=AXIS2_PLACEMENT_3D('',#1754,#1483,#1484);
#1292=AXIS2_PLACEMENT_3D('',#1755,#1485,#1486);
#1293=AXIS2_PLACEMENT_3D('',#1757,#1487,#1488);
#1294=AXIS2_PLACEMENT_3D('',#1758,#1489,#1490);
#1295=AXIS2_PLACEMENT_3D('',#1759,#1491,#1492);
#1296=AXIS2_PLACEMENT_3D('',#1761,#1494,#1495);
#1297=AXIS2_PLACEMENT_3D('',#1762,#1496,#1497);
#1298=AXIS2_PLACEMENT_3D('',#1763,#1498,#1499);
#1299=AXIS2_PLACEMENT_3D('',#1764,#1500,#1501);
#1300=AXIS2_PLACEMENT_3D('',#1772,#1506,#1507);
#1301=AXIS2_PLACEMENT_3D('',#1780,#1512,#1513);
#1302=AXIS2_PLACEMENT_3D('',#1783,#1516,#1517);
#1303=AXIS2_PLACEMENT_3D('',#1785,#1519,#1520);
#1304=AXIS2_PLACEMENT_3D('',#1786,#1521,#1522);
#1305=AXIS2_PLACEMENT_3D('',#1787,#1523,#1524);
#1306=AXIS2_PLACEMENT_3D('',#1793,#1528,#1529);
#1307=AXIS2_PLACEMENT_3D('',#1799,#1533,#1534);
#1308=AXIS2_PLACEMENT_3D('',#1803,#1537,#1538);
#1309=AXIS2_PLACEMENT_3D('',#1807,#1541,#1542);
#1310=AXIS2_PLACEMENT_3D('',#1809,#1544,#1545);
#1311=DIRECTION('',(0.,0.,1.));
#1312=DIRECTION('',(1.,0.,0.));
#1313=DIRECTION('',(0.,0.,1.));
#1314=DIRECTION('',(1.,0.,0.));
#1315=DIRECTION('',(0.,0.,1.));
#1316=DIRECTION('',(1.,0.,0.));
#1317=DIRECTION('',(0.,-1.,0.));
#1318=DIRECTION('',(0.,0.,1.));
#1319=DIRECTION('',(1.,0.,0.));
#1320=DIRECTION('',(0.,0.,1.));
#1321=DIRECTION('',(1.,0.,0.));
#1322=DIRECTION('',(0.,0.,1.));
#1323=DIRECTION('',(1.,0.,0.));
#1324=DIRECTION('',(0.,0.,1.));
#1325=DIRECTION('',(0.,0.,1.));
#1326=DIRECTION('',(1.,0.,0.));
#1327=DIRECTION('',(0.,0.,1.));
#1328=DIRECTION('',(0.,0.,1.));
#1329=DIRECTION('',(1.,0.,0.));
#1330=DIRECTION('',(0.,0.,1.));
#1331=DIRECTION('',(1.,0.,0.));
#1332=DIRECTION('',(0.,0.,1.));
#1333=DIRECTION('',(1.,0.,0.));
#1334=DIRECTION('',(1.,0.,9.20549014374485E-17));
#1335=DIRECTION('',(0.,-1.,0.));
#1336=DIRECTION('',(-1.,-1.02125759991901E-16,0.));
#1337=DIRECTION('',(1.3182457379894E-16,1.,0.));
#1338=DIRECTION('',(1.,-1.70209599986501E-16,0.));
#1339=DIRECTION('',(0.,-1.,0.));
#1340=DIRECTION('',(1.,0.,-8.13151629364128E-16));
#1341=DIRECTION('',(0.,1.,0.));
#1342=DIRECTION('',(0.,0.,-1.));
#1343=DIRECTION('',(-1.,0.,0.));
#1344=DIRECTION('',(1.,-9.63735264431559E-17,0.));
#1345=DIRECTION('',(0.,1.,0.));
#1346=DIRECTION('',(-1.,0.,0.));
#1347=DIRECTION('',(0.,-1.,0.));
#1348=DIRECTION('',(0.,0.,-1.));
#1349=DIRECTION('',(-1.,0.,0.));
#1350=DIRECTION('',(0.,-1.,0.));
#1351=DIRECTION('',(0.,0.,1.));
#1352=DIRECTION('',(1.,0.,0.));
#1353=DIRECTION('',(0.,1.,0.));
#1354=DIRECTION('',(-1.,0.,1.53424835729081E-17));
#1355=DIRECTION('',(0.,1.,0.));
#1356=DIRECTION('',(-1.,0.,1.53424835729081E-17));
#1357=DIRECTION('',(0.,1.,0.));
#1358=DIRECTION('',(1.,1.70209599986501E-16,0.));
#1359=DIRECTION('',(1.3182457379894E-16,-1.,0.));
#1360=DIRECTION('',(-1.,1.02125759991901E-16,0.));
#1361=DIRECTION('',(0.,0.,-1.));
#1362=DIRECTION('',(-1.,0.,0.));
#1363=DIRECTION('',(0.,1.,0.));
#1364=DIRECTION('',(-0.710837669877251,0.703356102613378,0.));
#1365=DIRECTION('',(-1.,9.6373526443156E-17,0.));
#1366=DIRECTION('',(0.,-1.,0.));
#1367=DIRECTION('',(0.,0.,-1.));
#1368=DIRECTION('',(-1.,0.,0.));
#1369=DIRECTION('',(0.,-1.,0.));
#1370=DIRECTION('',(1.,0.,0.));
#1371=DIRECTION('',(0.710837669877251,0.703356102613378,0.));
#1372=DIRECTION('',(1.,1.67275621154723E-16,0.));
#1373=DIRECTION('',(-1.67275621154723E-16,1.,0.));
#1374=DIRECTION('',(0.,0.,-1.));
#1375=DIRECTION('',(0.,0.,-1.));
#1376=DIRECTION('',(1.67275621154723E-16,-1.,0.));
#1377=DIRECTION('',(-1.56618889858912E-16,1.,0.));
#1378=DIRECTION('',(-1.,-1.56618889858912E-16,0.));
#1379=DIRECTION('',(0.,0.,-1.));
#1380=DIRECTION('',(1.,1.56618889858912E-16,0.));
#1381=DIRECTION('',(-1.59621630518673E-16,-1.,0.));
#1382=DIRECTION('',(1.,-1.59621630518673E-16,0.));
#1383=DIRECTION('',(0.,0.,-1.));
#1384=DIRECTION('',(0.,0.,-1.));
#1385=DIRECTION('',(-1.,1.59621630518673E-16,0.));
#1386=DIRECTION('',(1.,0.,0.));
#1387=DIRECTION('',(0.,0.,-1.));
#1388=DIRECTION('',(0.,0.,-1.));
#1389=DIRECTION('',(0.,0.,-1.));
#1390=DIRECTION('',(0.,-1.,0.));
#1391=DIRECTION('',(0.,1.,0.));
#1392=DIRECTION('',(0.,0.,-1.));
#1393=DIRECTION('',(0.,-1.,0.));
#1394=DIRECTION('',(9.6373526443156E-17,1.,0.));
#1395=DIRECTION('',(-1.,9.6373526443156E-17,0.));
#1396=DIRECTION('',(0.,0.,-1.));
#1397=DIRECTION('',(1.,-9.63735264431559E-17,0.));
#1398=DIRECTION('',(0.,0.,-1.));
#1399=DIRECTION('',(0.,0.,1.));
#1400=DIRECTION('',(-1.,9.6373526443156E-17,0.));
#1401=DIRECTION('',(0.,0.,-1.));
#1402=DIRECTION('',(-1.,0.,0.));
#1403=DIRECTION('',(0.,0.,1.));
#1404=DIRECTION('',(0.,1.,0.));
#1405=DIRECTION('',(0.,0.,-1.));
#1406=DIRECTION('',(0.,-1.,0.));
#1407=DIRECTION('',(0.,1.,0.));
#1408=DIRECTION('',(0.,0.,-1.));
#1409=DIRECTION('',(0.,0.,-1.));
#1410=DIRECTION('',(-1.,0.,0.));
#1411=DIRECTION('',(-0.710837669877251,0.703356102613378,0.));
#1412=DIRECTION('',(-1.,1.27997578480914E-16,0.));
#1413=DIRECTION('',(0.710837669877251,0.703356102613378,0.));
#1414=DIRECTION('',(-1.,0.,0.));
#1415=DIRECTION('',(3.54510473557836E-17,-1.,0.));
#1416=DIRECTION('',(1.,9.33707857833951E-17,0.));
#1417=DIRECTION('',(-1.,0.,0.));
#1418=DIRECTION('',(0.,0.,1.));
#1419=DIRECTION('',(0.,-1.,0.));
#1420=DIRECTION('',(0.,0.,1.));
#1421=DIRECTION('',(0.,0.,-1.));
#1422=DIRECTION('',(0.,0.,-1.));
#1423=DIRECTION('',(-1.,0.,0.));
#1424=DIRECTION('',(0.,-1.,0.));
#1425=DIRECTION('',(0.,0.,-1.));
#1426=DIRECTION('',(-1.,0.,0.));
#1427=DIRECTION('',(0.,-1.,0.));
#1428=DIRECTION('',(1.,0.,0.));
#1429=DIRECTION('',(0.,0.,-1.));
#1430=DIRECTION('',(0.,0.,1.));
#1431=DIRECTION('',(0.,-1.,0.));
#1432=DIRECTION('',(0.,0.,-1.));
#1433=DIRECTION('',(0.,0.,-1.));
#1434=DIRECTION('',(0.,0.,1.));
#1435=DIRECTION('',(1.,0.,0.));
#1436=DIRECTION('',(-1.,0.,0.));
#1437=DIRECTION('',(0.,0.,1.));
#1438=DIRECTION('',(0.,0.,1.));
#1439=DIRECTION('',(0.,0.,-1.));
#1440=DIRECTION('',(-1.,0.,0.));
#1441=DIRECTION('',(0.,-1.,0.));
#1442=DIRECTION('',(0.,0.,-1.));
#1443=DIRECTION('',(-1.,0.,0.));
#1444=DIRECTION('',(1.,0.,0.));
#1445=DIRECTION('',(0.,0.,-1.));
#1446=DIRECTION('',(0.,0.,1.));
#1447=DIRECTION('',(0.,0.,1.));
#1448=DIRECTION('',(1.,0.,0.));
#1449=DIRECTION('',(0.,0.,1.));
#1450=DIRECTION('',(1.,0.,0.));
#1451=DIRECTION('',(0.,0.,1.));
#1452=DIRECTION('',(1.,0.,0.));
#1453=DIRECTION('',(0.,0.,1.));
#1454=DIRECTION('',(1.,0.,0.));
#1455=DIRECTION('',(0.,0.,1.));
#1456=DIRECTION('',(1.,0.,0.));
#1457=DIRECTION('',(0.,0.,1.));
#1458=DIRECTION('',(1.,0.,0.));
#1459=DIRECTION('',(0.,0.,1.));
#1460=DIRECTION('',(1.,0.,0.));
#1461=DIRECTION('',(0.,0.,1.));
#1462=DIRECTION('',(1.,0.,0.));
#1463=DIRECTION('',(0.,0.,1.));
#1464=DIRECTION('',(1.,0.,0.));
#1465=DIRECTION('',(0.,0.,1.));
#1466=DIRECTION('',(1.,0.,0.));
#1467=DIRECTION('',(0.,0.,-1.));
#1468=DIRECTION('',(-1.,0.,0.));
#1469=DIRECTION('',(0.,0.,1.));
#1470=DIRECTION('',(1.,0.,0.));
#1471=DIRECTION('',(0.,0.,1.));
#1472=DIRECTION('',(1.,0.,0.));
#1473=DIRECTION('',(0.,0.,1.));
#1474=DIRECTION('',(1.,0.,0.));
#1475=DIRECTION('',(0.,0.,1.));
#1476=DIRECTION('',(1.,0.,0.));
#1477=DIRECTION('',(0.,0.,1.));
#1478=DIRECTION('',(1.,0.,0.));
#1479=DIRECTION('',(0.,0.,1.));
#1480=DIRECTION('',(1.,0.,0.));
#1481=DIRECTION('',(0.,0.,1.));
#1482=DIRECTION('',(1.,0.,0.));
#1483=DIRECTION('',(0.,0.,-1.));
#1484=DIRECTION('',(-1.,0.,0.));
#1485=DIRECTION('',(0.,0.,1.));
#1486=DIRECTION('',(1.,0.,0.));
#1487=DIRECTION('',(0.,0.,1.));
#1488=DIRECTION('',(1.,0.,0.));
#1489=DIRECTION('',(-1.27997578480914E-16,-1.,0.));
#1490=DIRECTION('',(1.,-1.27997578480914E-16,0.));
#1491=DIRECTION('',(1.,3.54510473557836E-17,0.));
#1492=DIRECTION('',(-3.54510473557836E-17,1.,0.));
#1493=DIRECTION('',(0.,0.,-1.));
#1494=DIRECTION('',(-9.3370785783395E-17,1.,0.));
#1495=DIRECTION('',(-1.,-9.33707857833951E-17,0.));
#1496=DIRECTION('',(-0.703356102613378,0.710837669877251,0.));
#1497=DIRECTION('',(-0.710837669877251,-0.703356102613378,0.));
#1498=DIRECTION('',(-0.703356102613378,-0.710837669877251,0.));
#1499=DIRECTION('',(0.710837669877251,-0.703356102613378,0.));
#1500=DIRECTION('',(0.,-1.,0.));
#1501=DIRECTION('',(0.,0.,-1.));
#1502=DIRECTION('',(0.998585325320619,0.,-0.0531728131126554));
#1503=DIRECTION('',(0.,0.,1.));
#1504=DIRECTION('',(-1.,0.,1.53424835729081E-17));
#1505=DIRECTION('',(3.49091216348945E-16,0.,-1.));
#1506=DIRECTION('',(0.,-1.,0.));
#1507=DIRECTION('',(0.,0.,-1.));
#1508=DIRECTION('',(0.998585325320619,0.,-0.0531728131126554));
#1509=DIRECTION('',(3.49091216348945E-16,0.,-1.));
#1510=DIRECTION('',(-1.,0.,1.53424835729081E-17));
#1511=DIRECTION('',(0.,0.,1.));
#1512=DIRECTION('',(0.0531728131126554,0.,0.998585325320619));
#1513=DIRECTION('',(0.998585325320619,0.,-0.0531728131126554));
#1514=DIRECTION('',(0.,1.,0.));
#1515=DIRECTION('',(0.,1.,0.));
#1516=DIRECTION('',(-1.,0.,0.));
#1517=DIRECTION('',(0.,0.,1.));
#1518=DIRECTION('',(0.,1.,0.));
#1519=DIRECTION('',(-1.53424835729081E-17,0.,-1.));
#1520=DIRECTION('',(-1.,0.,1.53424835729081E-17));
#1521=DIRECTION('',(1.,0.,3.49091216348945E-16));
#1522=DIRECTION('',(3.49091216348945E-16,0.,-1.));
#1523=DIRECTION('',(-9.20549014374485E-17,0.,1.));
#1524=DIRECTION('',(1.,0.,9.20549014374485E-17));
#1525=DIRECTION('',(1.,0.,9.20549014374485E-17));
#1526=DIRECTION('',(0.,1.,0.));
#1527=DIRECTION('',(1.,0.,-8.13151629364128E-16));
#1528=DIRECTION('',(0.,1.,0.));
#1529=DIRECTION('',(0.,0.,1.));
#1530=DIRECTION('',(-0.998585325320619,0.,-0.0531728131126554));
#1531=DIRECTION('',(-3.49091216348945E-16,0.,-1.));
#1532=DIRECTION('',(0.,0.,1.));
#1533=DIRECTION('',(-1.,0.,0.));
#1534=DIRECTION('',(0.,0.,1.));
#1535=DIRECTION('',(0.,0.,1.));
#1536=DIRECTION('',(0.,1.,0.));
#1537=DIRECTION('',(1.,0.,-3.49091216348945E-16));
#1538=DIRECTION('',(-3.49091216348945E-16,0.,-1.));
#1539=DIRECTION('',(-3.49091216348945E-16,0.,-1.));
#1540=DIRECTION('',(0.,1.,0.));
#1541=DIRECTION('',(0.0531728131126554,0.,-0.998585325320619));
#1542=DIRECTION('',(-0.998585325320619,0.,-0.0531728131126554));
#1543=DIRECTION('',(-0.998585325320619,0.,-0.0531728131126554));
#1544=DIRECTION('',(0.,1.,0.));
#1545=DIRECTION('',(0.,0.,1.));
#1546=CARTESIAN_POINT('',(0.,0.,0.));
#1547=CARTESIAN_POINT('',(0.,0.,12.2));
#1548=CARTESIAN_POINT('',(0.,0.,12.2));
#1549=CARTESIAN_POINT('',(-1.81294420111061,-1.8804775600438,12.2));
#1550=CARTESIAN_POINT('',(-1.81294420111061,1.8804775600438,12.2));
#1551=CARTESIAN_POINT('',(-1.81294420111061,0.,12.2));
#1552=CARTESIAN_POINT('',(0.,0.,10.8120801145724));
#1553=CARTESIAN_POINT('',(0.,0.,10.8120801145724));
#1554=CARTESIAN_POINT('',(-1.81294420111061,-3.56556213403432,10.8120801145724));
#1555=CARTESIAN_POINT('',(-1.81294420111061,3.56556213403432,10.8120801145724));
#1556=CARTESIAN_POINT('',(-1.81294420111061,3.56556213403432,10.8120801145724));
#1557=CARTESIAN_POINT('',(-1.81294420111061,3.56556213403432,11.2223672520051));
#1558=CARTESIAN_POINT('',(-1.81294420111061,3.12423476418958,12.000476296212));
#1559=CARTESIAN_POINT('',(-1.81294420111061,2.28707897338838,12.2));
#1560=CARTESIAN_POINT('',(-1.81294420111061,1.8804775600438,12.2));
#1561=CARTESIAN_POINT('',(-1.81294420111061,-1.8804775600438,12.2));
#1562=CARTESIAN_POINT('',(-1.81294420111061,-2.28194580346607,12.2));
#1563=CARTESIAN_POINT('',(-1.81294420111061,-3.1264008466431,12.0000941662997));
#1564=CARTESIAN_POINT('',(-1.81294420111061,-3.56556213403432,11.2237336178993));
#1565=CARTESIAN_POINT('',(-1.81294420111061,-3.56556213403432,10.8120801145724));
#1566=CARTESIAN_POINT('',(0.,0.,-0.912594403461129));
#1567=CARTESIAN_POINT('',(-1.81294420111061,-3.56556213403432,-0.912594403461129));
#1568=CARTESIAN_POINT('',(-1.81294420111061,-3.56556213403432,3.31930429355315));
#1569=CARTESIAN_POINT('',(0.,0.,3.31930429355315));
#1570=CARTESIAN_POINT('',(-1.81294420111061,3.56556213403432,3.31930429355315));
#1571=CARTESIAN_POINT('',(-1.81294420111061,3.56556213403432,-0.912594403461129));
#1572=CARTESIAN_POINT('',(0.,0.,3.31930429355315));
#1573=CARTESIAN_POINT('',(0.,0.,2.37081378602342));
#1574=CARTESIAN_POINT('',(-1.81294420111061,-2.45457603516343,2.37081378602342));
#1575=CARTESIAN_POINT('',(-1.81294420111061,2.45457603516343,2.37081378602342));
#1576=CARTESIAN_POINT('',(-1.81294420111061,2.45457603516343,2.37081378602342));
#1577=CARTESIAN_POINT('',(-1.81294420111061,2.72293550192137,2.37081378602342));
#1578=CARTESIAN_POINT('',(-1.81294420111061,3.28071954170033,2.52578127984555));
#1579=CARTESIAN_POINT('',(-1.81294420111061,3.56556213403432,3.04466409527761));
#1580=CARTESIAN_POINT('',(-1.81294420111061,3.56556213403432,3.31930429355315));
#1581=CARTESIAN_POINT('',(-1.81294420111061,-3.56556213403432,3.31930429355315));
#1582=CARTESIAN_POINT('',(-1.81294420111061,-3.56556213403432,3.04572161769553));
#1583=CARTESIAN_POINT('',(-1.81294420111061,-3.28081046880238,2.52668420316505));
#1584=CARTESIAN_POINT('',(-1.81294420111061,-2.72637428822344,2.37081378602342));
#1585=CARTESIAN_POINT('',(-1.81294420111061,-2.45457603516343,2.37081378602342));
#1586=CARTESIAN_POINT('',(0.,0.,0.0916286966851101));
#1587=CARTESIAN_POINT('',(-1.6,0.45,0.0916286966851101));
#1588=CARTESIAN_POINT('',(-4.25,0.45,0.0916286966851098));
#1589=CARTESIAN_POINT('',(-1.6,0.45,0.0916286966851101));
#1590=CARTESIAN_POINT('',(-4.25,0.,0.0916286966851101));
#1591=CARTESIAN_POINT('',(-4.25,0.822458318081985,0.0916286966851101));
#1592=CARTESIAN_POINT('',(-4.25649308944905,0.822458318081985,0.0916286966851101));
#1593=CARTESIAN_POINT('',(-1.07158996832225,0.822458318081986,0.0916286966851101));
#1594=CARTESIAN_POINT('',(-1.07158996832225,0.822458318081986,0.0916286966851101));
#1595=CARTESIAN_POINT('',(-1.07158996832225,-0.822458318081986,0.0916286966851101));
#1596=CARTESIAN_POINT('',(-1.07158996832225,-0.822458318081986,0.0916286966851101));
#1597=CARTESIAN_POINT('',(-4.25,-0.822458318081985,0.0916286966851101));
#1598=CARTESIAN_POINT('',(-4.25,0.,0.0916286966851101));
#1599=CARTESIAN_POINT('',(-4.25,-0.45,0.0916286966851098));
#1600=CARTESIAN_POINT('',(-4.5,-0.45,0.09162869668511));
#1601=CARTESIAN_POINT('',(-1.6,-0.45,0.0916286966851101));
#1602=CARTESIAN_POINT('',(-1.6,-0.45,0.0916286966851101));
#1603=CARTESIAN_POINT('',(0.,0.,1.51506716083327));
#1604=CARTESIAN_POINT('',(-4.5,4.15,1.51506716083327));
#1605=CARTESIAN_POINT('',(-4.25,4.15,1.51506716083327));
#1606=CARTESIAN_POINT('',(-1.03300178237858,4.15,1.51506716083327));
#1607=CARTESIAN_POINT('',(-4.25,-4.15,1.51506716083327));
#1608=CARTESIAN_POINT('',(-4.25,-4.15,1.51506716083327));
#1609=CARTESIAN_POINT('',(4.5,-4.15,1.51506716083327));
#1610=CARTESIAN_POINT('',(-1.03300178237858,-4.15,1.51506716083327));
#1611=CARTESIAN_POINT('',(-1.03300178237858,6.92672321377123,1.51506716083327));
#1612=CARTESIAN_POINT('',(-1.03300178237858,-3.70751310433056,1.51506716083327));
#1613=CARTESIAN_POINT('',(0.,0.,1.51506716083327));
#1614=CARTESIAN_POINT('',(-1.03300178237858,3.70751310433056,1.51506716083327));
#1615=CARTESIAN_POINT('',(-1.03300178237858,6.92672321377123,1.51506716083327));
#1616=CARTESIAN_POINT('',(0.,0.,0.0916286966851101));
#1617=CARTESIAN_POINT('',(4.25,0.,0.0916286966851101));
#1618=CARTESIAN_POINT('',(4.25,0.45,0.0916286966851101));
#1619=CARTESIAN_POINT('',(4.25,0.822458318081985,0.0916286966851101));
#1620=CARTESIAN_POINT('',(4.25,0.45,0.09162869668511));
#1621=CARTESIAN_POINT('',(1.6,0.45,0.0916286966851101));
#1622=CARTESIAN_POINT('',(1.6,-0.45,0.0916286966851101));
#1623=CARTESIAN_POINT('',(1.6,-0.45,0.0916286966851101));
#1624=CARTESIAN_POINT('',(4.25,-0.45,0.09162869668511));
#1625=CARTESIAN_POINT('',(4.25,-0.45,0.0916286966851101));
#1626=CARTESIAN_POINT('',(4.25,0.,0.0916286966851101));
#1627=CARTESIAN_POINT('',(4.25,-0.822458318081985,0.0916286966851101));
#1628=CARTESIAN_POINT('',(1.07158996832225,-0.822458318081986,0.0916286966851101));
#1629=CARTESIAN_POINT('',(1.07158996832225,-0.822458318081986,0.0916286966851101));
#1630=CARTESIAN_POINT('',(1.07158996832225,0.822458318081986,0.0916286966851101));
#1631=CARTESIAN_POINT('',(1.07158996832225,0.822458318081986,0.0916286966851101));
#1632=CARTESIAN_POINT('',(4.25649308944905,0.822458318081985,0.0916286966851101));
#1633=CARTESIAN_POINT('',(1.07859291020994,6.92672321377123,0.896777070065619));
#1634=CARTESIAN_POINT('',(4.25,4.15,0.896777070065619));
#1635=CARTESIAN_POINT('',(4.25,-2.21172643398635,0.896777070065619));
#1636=CARTESIAN_POINT('',(4.25,2.21172643398635,0.896777070065619));
#1637=CARTESIAN_POINT('',(0.29015266814897,6.12989636827765,0.896777070065619));
#1638=CARTESIAN_POINT('',(2.29110910514533,4.15,0.896777070065619));
#1639=CARTESIAN_POINT('',(-4.5,4.15,0.896777070065619));
#1640=CARTESIAN_POINT('',(1.07859291020994,4.15,0.896777070065619));
#1641=CARTESIAN_POINT('',(1.07859291020994,6.92672321377123,0.896777070065619));
#1642=CARTESIAN_POINT('',(1.07859291020994,3.69450719788512,0.896777070065619));
#1643=CARTESIAN_POINT('',(0.,0.,0.896777070065619));
#1644=CARTESIAN_POINT('',(1.07859291020994,-3.69450719788512,0.896777070065619));
#1645=CARTESIAN_POINT('',(1.07859291020994,6.92672321377123,0.896777070065619));
#1646=CARTESIAN_POINT('',(1.07859291020994,-4.15,0.896777070065619));
#1647=CARTESIAN_POINT('',(1.07859291020994,-4.15,0.896777070065619));
#1648=CARTESIAN_POINT('',(2.29110910514533,-4.15,0.896777070065619));
#1649=CARTESIAN_POINT('',(7.21648816656288,0.723539441333218,0.896777070065619));
#1650=CARTESIAN_POINT('',(1.07158996832225,0.822458318081986,0.234635684302082));
#1651=CARTESIAN_POINT('',(1.07158996832225,0.822458318081986,0.234635684302082));
#1652=CARTESIAN_POINT('',(1.07158996832225,0.822458318081986,0.));
#1653=CARTESIAN_POINT('',(1.07158996832225,-0.822458318081986,0.234635684302082));
#1654=CARTESIAN_POINT('',(1.07158996832225,-0.822458318081986,0.));
#1655=CARTESIAN_POINT('',(1.07158996832225,0.822458318081986,0.));
#1656=CARTESIAN_POINT('',(1.07158996832225,-0.822458318081986,0.234635684302082));
#1657=CARTESIAN_POINT('',(4.25,-0.822458318081985,0.234635684302082));
#1658=CARTESIAN_POINT('',(4.25,-0.822458318081985,0.));
#1659=CARTESIAN_POINT('',(1.07158996832225,-0.822458318081986,0.));
#1660=CARTESIAN_POINT('',(-1.07158996832225,-0.822458318081986,0.234635684302082));
#1661=CARTESIAN_POINT('',(-4.25,-0.822458318081985,0.234635684302082));
#1662=CARTESIAN_POINT('',(-4.25,-0.822458318081985,0.));
#1663=CARTESIAN_POINT('',(-1.07158996832225,-0.822458318081986,0.234635684302082));
#1664=CARTESIAN_POINT('',(-1.07158996832225,-0.822458318081986,0.));
#1665=CARTESIAN_POINT('',(-1.07158996832225,-0.822458318081986,0.));
#1666=CARTESIAN_POINT('',(4.25,4.15,0.652449350235127));
#1667=CARTESIAN_POINT('',(4.25,2.21172643398635,0.652449350235127));
#1668=CARTESIAN_POINT('',(4.25,2.21172643398635,0.));
#1669=CARTESIAN_POINT('',(4.25,-2.21172643398635,1.887824708818));
#1670=CARTESIAN_POINT('',(4.25,-2.21172643398635,0.));
#1671=CARTESIAN_POINT('',(4.25,4.15,0.));
#1672=CARTESIAN_POINT('',(4.25,0.,0.0916286966851101));
#1673=CARTESIAN_POINT('',(4.25,0.822458318081985,0.234635684302082));
#1674=CARTESIAN_POINT('',(4.25,0.822458318081985,0.));
#1675=CARTESIAN_POINT('',(4.25,4.15,0.));
#1676=CARTESIAN_POINT('',(-4.5,4.15,0.652449350235127));
#1677=CARTESIAN_POINT('',(2.29110910514533,4.15,1.887824708818));
#1678=CARTESIAN_POINT('',(2.29110910514533,4.15,0.));
#1679=CARTESIAN_POINT('',(-4.5,4.15,0.));
#1680=CARTESIAN_POINT('',(-4.25,4.15,0.));
#1681=CARTESIAN_POINT('',(-4.25,4.15,0.652449350235127));
#1682=CARTESIAN_POINT('',(-1.03300178237858,4.15,0.652449350235127));
#1683=CARTESIAN_POINT('',(-1.03300178237858,4.15,0.655901143231456));
#1684=CARTESIAN_POINT('',(-4.5,4.15,0.655901143231456));
#1685=CARTESIAN_POINT('',(1.07859291020994,4.15,0.655901143231456));
#1686=CARTESIAN_POINT('',(1.07859291020994,4.15,0.652449350235127));
#1687=CARTESIAN_POINT('',(-4.25,-4.15,0.652449350235127));
#1688=CARTESIAN_POINT('',(-4.25,-4.15,0.));
#1689=CARTESIAN_POINT('',(-4.25,0.822458318081985,0.));
#1690=CARTESIAN_POINT('',(-4.25,0.822458318081985,0.234635684302082));
#1691=CARTESIAN_POINT('',(-4.25,0.,0.0916286966851101));
#1692=CARTESIAN_POINT('',(-4.25,-4.15,0.));
#1693=CARTESIAN_POINT('',(-4.25,-4.15,0.));
#1694=CARTESIAN_POINT('',(-4.25,-4.15,0.652449350235127));
#1695=CARTESIAN_POINT('',(0.,0.,0.));
#1696=CARTESIAN_POINT('',(2.38235748624914,4.05971200820852,0.));
#1697=CARTESIAN_POINT('',(4.5,0.822458318081985,0.));
#1698=CARTESIAN_POINT('',(2.38235748624914,-4.05971200820852,0.));
#1699=CARTESIAN_POINT('',(2.29110910514533,-4.15,0.));
#1700=CARTESIAN_POINT('',(4.5,-4.15,0.));
#1701=CARTESIAN_POINT('',(-1.07158996832225,0.822458318081986,0.));
#1702=CARTESIAN_POINT('',(-1.07158996832225,0.822458318081986,0.));
#1703=CARTESIAN_POINT('',(-4.5,0.822458318081985,0.));
#1704=CARTESIAN_POINT('',(-1.03300178237858,6.92672321377123,1.51506716083327));
#1705=CARTESIAN_POINT('',(-1.03300178237858,6.92672321377123,0.655901143231456));
#1706=CARTESIAN_POINT('',(-1.03300178237858,-3.70751310433056,0.655901143231456));
#1707=CARTESIAN_POINT('',(-1.03300178237858,-4.15,0.655901143231456));
#1708=CARTESIAN_POINT('',(-1.03300178237858,-3.70751310433056,-0.912594403461129));
#1709=CARTESIAN_POINT('',(-1.03300178237858,-4.15,1.51506716083327));
#1710=CARTESIAN_POINT('',(-1.03300178237858,6.92672321377123,0.655901143231456));
#1711=CARTESIAN_POINT('',(-1.03300178237858,6.92672321377123,0.655901143231456));
#1712=CARTESIAN_POINT('',(-1.03300178237858,3.70751310433056,0.655901143231456));
#1713=CARTESIAN_POINT('',(0.,0.,0.655901143231456));
#1714=CARTESIAN_POINT('',(1.07859291020994,3.69450719788512,0.655901143231456));
#1715=CARTESIAN_POINT('',(1.07859291020994,6.92672321377123,0.655901143231456));
#1716=CARTESIAN_POINT('',(1.07859291020994,6.92672321377123,0.655901143231456));
#1717=CARTESIAN_POINT('',(1.07859291020994,3.69450719788512,-0.912594403461129));
#1718=CARTESIAN_POINT('',(4.5,-4.15,0.652449350235127));
#1719=CARTESIAN_POINT('',(2.29110910514533,-4.15,0.652449350235127));
#1720=CARTESIAN_POINT('',(1.07859291020994,-4.15,0.655901143231456));
#1721=CARTESIAN_POINT('',(1.07859291020994,-4.15,0.655901143231456));
#1722=CARTESIAN_POINT('',(-1.03300178237858,-4.15,0.655901143231456));
#1723=CARTESIAN_POINT('',(-1.03300178237858,6.92672321377123,1.51506716083327));
#1724=CARTESIAN_POINT('',(-1.03300178237858,3.70751310433056,-0.912594403461129));
#1725=CARTESIAN_POINT('',(-1.03300178237858,6.92672321377123,0.655901143231456));
#1726=CARTESIAN_POINT('',(1.07859291020994,6.92672321377123,0.655901143231456));
#1727=CARTESIAN_POINT('',(1.07859291020994,-3.69450719788512,0.655901143231456));
#1728=CARTESIAN_POINT('',(0.,0.,0.655901143231456));
#1729=CARTESIAN_POINT('',(1.07859291020994,6.92672321377123,0.655901143231456));
#1730=CARTESIAN_POINT('',(1.07859291020994,-3.69450719788512,-0.912594403461129));
#1731=CARTESIAN_POINT('',(0.,0.,-0.912594403461129));
#1732=CARTESIAN_POINT('',(0.,0.,1.58001918131199));
#1733=CARTESIAN_POINT('',(3.84873305143136,0.,1.58001918131199));
#1734=CARTESIAN_POINT('',(0.,0.,12.2));
#1735=CARTESIAN_POINT('',(0.,0.,12.2));
#1736=CARTESIAN_POINT('',(0.,0.,10.8120801145724));
#1737=CARTESIAN_POINT('',(0.,0.,10.8120801145724));
#1738=CARTESIAN_POINT('',(0.,0.,-0.912594403461129));
#1739=CARTESIAN_POINT('',(0.,0.,3.31930429355315));
#1740=CARTESIAN_POINT('',(0.,0.,3.31930429355315));
#1741=CARTESIAN_POINT('',(0.,0.,2.37081378602342));
#1742=CARTESIAN_POINT('',(3.05150949347027,0.,2.37081378602342));
#1743=CARTESIAN_POINT('',(0.,0.,2.37081378602342));
#1744=CARTESIAN_POINT('',(3.04958607261004,0.,2.37081378602342));
#1745=CARTESIAN_POINT('',(0.,0.,-0.912594403461129));
#1746=CARTESIAN_POINT('',(0.,0.,1.88304660271663));
#1747=CARTESIAN_POINT('',(3.04958607261004,0.,1.88304660271663));
#1748=CARTESIAN_POINT('',(3.04958607261004,0.,1.88304660271663));
#1749=CARTESIAN_POINT('',(0.,0.,1.88304660271663));
#1750=CARTESIAN_POINT('',(3.52922905766832,0.,1.88304660271663));
#1751=CARTESIAN_POINT('',(0.,0.,1.66611485399459));
#1752=CARTESIAN_POINT('',(0.,0.,1.82301389129776));
#1753=CARTESIAN_POINT('',(3.67903585223032,0.,1.82301389129776));
#1754=CARTESIAN_POINT('',(0.,0.,1.82301389129776));
#1755=CARTESIAN_POINT('',(0.,0.,1.71690178707675));
#1756=CARTESIAN_POINT('',(3.79017157906546,0.,1.71690178707675));
#1757=CARTESIAN_POINT('',(0.,0.,1.58001918131199));
#1758=CARTESIAN_POINT('',(4.5,0.822458318081985,0.234635684302082));
#1759=CARTESIAN_POINT('',(-1.07158996832225,0.822458318081986,0.234635684302082));
#1760=CARTESIAN_POINT('',(-1.07158996832225,0.822458318081986,0.234635684302082));
#1761=CARTESIAN_POINT('',(-4.5,0.822458318081985,0.234635684302082));
#1762=CARTESIAN_POINT('',(2.38235748624914,-4.05971200820852,1.887824708818));
#1763=CARTESIAN_POINT('',(2.38235748624914,4.05971200820852,1.887824708818));
#1764=CARTESIAN_POINT('',(0.,-0.45,0.));
#1765=CARTESIAN_POINT('',(1.6,-0.45,-0.529528251246663));
#1766=CARTESIAN_POINT('',(1.6,-0.45,-0.529528251246663));
#1767=CARTESIAN_POINT('',(4.5,-0.45,-0.683947862787811));
#1768=CARTESIAN_POINT('',(4.5,-0.45,-0.683947862787811));
#1769=CARTESIAN_POINT('',(4.5,-0.45,0.0916286966851101));
#1770=CARTESIAN_POINT('',(4.25,-0.45,0.09162869668511));
#1771=CARTESIAN_POINT('',(1.6,-0.45,0.0916286966851101));
#1772=CARTESIAN_POINT('',(0.,0.45,0.));
#1773=CARTESIAN_POINT('',(1.6,0.45,-0.529528251246663));
#1774=CARTESIAN_POINT('',(1.6,0.45,-0.529528251246663));
#1775=CARTESIAN_POINT('',(4.5,0.45,-0.683947862787811));
#1776=CARTESIAN_POINT('',(1.6,0.45,0.0916286966851101));
#1777=CARTESIAN_POINT('',(4.25,0.45,0.09162869668511));
#1778=CARTESIAN_POINT('',(4.5,0.45,0.0916286966851101));
#1779=CARTESIAN_POINT('',(4.5,0.45,-0.683947862787811));
#1780=CARTESIAN_POINT('',(1.6,-0.45,-0.529528251246663));
#1781=CARTESIAN_POINT('',(4.5,-0.45,-0.683947862787811));
#1782=CARTESIAN_POINT('',(1.6,-0.45,-0.529528251246663));
#1783=CARTESIAN_POINT('',(4.5,-0.45,-0.683947862787811));
#1784=CARTESIAN_POINT('',(4.5,-0.45,0.0916286966851101));
#1785=CARTESIAN_POINT('',(4.25,-0.45,0.09162869668511));
#1786=CARTESIAN_POINT('',(1.6,-0.45,0.0916286966851101));
#1787=CARTESIAN_POINT('',(-1.6,-0.45,0.0916286966851101));
#1788=CARTESIAN_POINT('',(-1.6,0.45,0.0916286966851101));
#1789=CARTESIAN_POINT('',(-4.5,0.45,0.0916286966851101));
#1790=CARTESIAN_POINT('',(-4.5,-0.45,0.0916286966851101));
#1791=CARTESIAN_POINT('',(-4.5,-0.45,0.0916286966851101));
#1792=CARTESIAN_POINT('',(-4.5,-0.45,0.09162869668511));
#1793=CARTESIAN_POINT('',(0.,-0.45,0.));
#1794=CARTESIAN_POINT('',(-1.6,-0.45,-0.529528251246663));
#1795=CARTESIAN_POINT('',(-1.6,-0.45,-0.529528251246663));
#1796=CARTESIAN_POINT('',(-4.5,-0.45,-0.683947862787811));
#1797=CARTESIAN_POINT('',(-1.6,-0.45,0.0916286966851101));
#1798=CARTESIAN_POINT('',(-4.5,-0.45,-0.683947862787811));
#1799=CARTESIAN_POINT('',(-4.5,-0.45,-0.683947862787811));
#1800=CARTESIAN_POINT('',(-4.5,0.45,-0.683947862787811));
#1801=CARTESIAN_POINT('',(-4.5,0.45,-0.683947862787811));
#1802=CARTESIAN_POINT('',(-4.5,-0.45,-0.683947862787811));
#1803=CARTESIAN_POINT('',(-1.6,-0.45,0.0916286966851101));
#1804=CARTESIAN_POINT('',(-1.6,0.45,0.0916286966851101));
#1805=CARTESIAN_POINT('',(-1.6,0.45,-0.529528251246663));
#1806=CARTESIAN_POINT('',(-1.6,-0.45,-0.529528251246663));
#1807=CARTESIAN_POINT('',(-1.6,-0.45,-0.529528251246663));
#1808=CARTESIAN_POINT('',(-1.6,0.45,-0.529528251246663));
#1809=CARTESIAN_POINT('',(0.,0.45,0.));
#1810=MECHANICAL_DESIGN_GEOMETRIC_PRESENTATION_REPRESENTATION('',(#835,
#836,#837,#838,#839,#840,#841,#842,#843,#844,#845,#846,#847,#848,#849,#850,
#851,#852,#853,#854,#855,#856,#857,#858,#859,#860,#861,#862,#863,#864,#865,
#866,#867,#868,#869,#870,#871,#872,#873,#874,#875,#876,#877,#878,#879,#880,
#881,#882,#883,#884),#1811);
#1811=(
GEOMETRIC_REPRESENTATION_CONTEXT(3)
GLOBAL_UNCERTAINTY_ASSIGNED_CONTEXT((#1812))
GLOBAL_UNIT_ASSIGNED_CONTEXT((#1815,#1814,#1813))
REPRESENTATION_CONTEXT('AEF08124R7M400R','TOP_LEVEL_ASSEMBLY_PART')
);
#1812=UNCERTAINTY_MEASURE_WITH_UNIT(LENGTH_MEASURE(0.005),#1815,
'DISTANCE_ACCURACY_VALUE','Maximum Tolerance applied to model');
#1813=(
NAMED_UNIT(*)
SI_UNIT($,.STERADIAN.)
SOLID_ANGLE_UNIT()
);
#1814=(
NAMED_UNIT(*)
PLANE_ANGLE_UNIT()
SI_UNIT($,.RADIAN.)
);
#1815=(
LENGTH_UNIT()
NAMED_UNIT(*)
SI_UNIT(.MILLI.,.METRE.)
);
#1816=PRODUCT_DEFINITION_SHAPE('','',#1817);
#1817=PRODUCT_DEFINITION('','',#1819,#1818);
#1818=PRODUCT_DEFINITION_CONTEXT('',#1825,'design');
#1819=PRODUCT_DEFINITION_FORMATION_WITH_SPECIFIED_SOURCE('','',#1821,
 .NOT_KNOWN.);
#1820=PRODUCT_RELATED_PRODUCT_CATEGORY('','',(#1821));
#1821=PRODUCT('AEF08124R7M400R','AEF08124R7M400R','AEF08124R7M400R',(#1823));
#1822=PRODUCT_CATEGORY('','');
#1823=PRODUCT_CONTEXT('',#1825,'mechanical');
#1824=APPLICATION_PROTOCOL_DEFINITION('international standard',
'automotive_design',2010,#1825);
#1825=APPLICATION_CONTEXT(
'core data for automotive mechanical design processes');
ENDSEC;
END-ISO-10303-21;
