ISO-10303-21;
HEADER;
FILE_DESCRIPTION (( '3D model for products with SOD993 package' ),
    '1' );
FILE_NAME ('SOD993.STEP',
    '2020-10-14T07:37:19',
    ( 'Packaging R&D' ),
    ( 'Nexperia' ),
    'SwSTEP 2.0',
    'SolidWorks 2019',
    '' );
FILE_SCHEMA (( 'AUTOMOTIVE_DESIGN' ));
ENDSEC;

DATA;
#1 = LINE ( 'NONE', #311, #141 ) ;
#2 = VECTOR ( 'NONE', #265, 1000.000000000000000 ) ;
#3 = ORIENTED_EDGE ( 'NONE', *, *, #322, .T. ) ;
#4 = EDGE_CURVE ( 'NONE', #139, #88, #369, .T. ) ;
#5 = VECTOR ( 'NONE', #43, 1000.000000000000000 ) ;
#6 = ORIENTED_EDGE ( 'NONE', *, *, #64, .F. ) ;
#7 = VERTEX_POINT ( 'NONE', #367 ) ;
#8 = PRESENTATION_LAYER_ASSIGNMENT (  '', '', ( #254 ) ) ;
#9 = ORIENTED_EDGE ( 'NONE', *, *, #64, .T. ) ;
#10 = DIRECTION ( 'NONE',  ( 1.000000000000000000, 0.0000000000000000000, -0.0000000000000000000 ) ) ;
#11 = EDGE_CURVE ( 'NONE', #436, #673, #543, .T. ) ;
#12 = ORIENTED_EDGE ( 'NONE', *, *, #155, .T. ) ;
#13 = ORIENTED_EDGE ( 'NONE', *, *, #164, .T. ) ;
#14 = FILL_AREA_STYLE ('',( #558 ) ) ;
#15 = VECTOR ( 'NONE', #736, 1000.000000000000000 ) ;
#16 = COLOUR_RGB ( '',1.000000000000000000, 0.8078431372549019773, 0.4980392156862745168 ) ;
#17 = LINE ( 'NONE', #22, #2 ) ;
#18 = PRESENTATION_LAYER_ASSIGNMENT (  '', '', ( #200 ) ) ;
#19 = PRESENTATION_STYLE_ASSIGNMENT (( #149 ) ) ;
#20 = VECTOR ( 'NONE', #31, 1000.000000000000000 ) ;
#21 = SURFACE_STYLE_USAGE ( .BOTH. , #640 ) ;
#22 = CARTESIAN_POINT ( 'NONE',  ( 0.2999999999999999889, 0.2699999999999999623, -0.5500000000000000444 ) ) ;
#23 = DIRECTION ( 'NONE',  ( 0.0000000000000000000, 0.0000000000000000000, 1.000000000000000000 ) ) ;
#24 = DIRECTION ( 'NONE',  ( -1.000000000000000000, 0.0000000000000000000, 0.0000000000000000000 ) ) ;
#25 = CARTESIAN_POINT ( 'NONE',  ( 0.6999999999999999556, 0.2699999999999999623, -0.5500000000000000444 ) ) ;
#26 = PRODUCT_DEFINITION_SHAPE ( 'NONE', 'NONE',  #32 ) ;
#27 = CARTESIAN_POINT ( 'NONE',  ( 0.3000000000000000444, 0.2399999999999999911, -0.05000000000000003747 ) ) ;
#28 = FILL_AREA_STYLE ('',( #94 ) ) ;
#29 = EDGE_CURVE ( 'NONE', #556, #248, #575, .T. ) ;
#30 = VECTOR ( 'NONE', #611, 1000.000000000000000 ) ;
#31 = DIRECTION ( 'NONE',  ( -0.0000000000000000000, -1.000000000000000000, -0.0000000000000000000 ) ) ;
#32 = PRODUCT_DEFINITION ( 'UNKNOWN', '', #607, #757 ) ;
#33 = LINE ( 'NONE', #218, #449 ) ;
#34 = PLANE ( 'NONE',  #241 ) ;
#35 = AXIS2_PLACEMENT_3D ( 'NONE', #355, #104, #215 ) ;
#36 = LINE ( 'NONE', #507, #658 ) ;
#37 = LINE ( 'NONE', #629, #352 ) ;
#38 = SURFACE_SIDE_STYLE ('',( #500 ) ) ;
#39 =( GEOMETRIC_REPRESENTATION_CONTEXT ( 3 ) GLOBAL_UNCERTAINTY_ASSIGNED_CONTEXT ( ( #343 ) ) GLOBAL_UNIT_ASSIGNED_CONTEXT ( ( #112, #427, #126 ) ) REPRESENTATION_CONTEXT ( 'NONE', 'WORKASPACE' ) );
#40 = ORIENTED_EDGE ( 'NONE', *, *, #454, .T. ) ;
#41 = SURFACE_STYLE_USAGE ( .BOTH. , #231 ) ;
#42 = CARTESIAN_POINT ( 'NONE',  ( 0.9499999999999999556, 0.2699999999999999623, -0.5500000000000000444 ) ) ;
#43 = DIRECTION ( 'NONE',  ( -0.0000000000000000000, -1.000000000000000000, -0.0000000000000000000 ) ) ;
#44 = PLANE ( 'NONE',  #209 ) ;
#45 = ORIENTED_EDGE ( 'NONE', *, *, #402, .F. ) ;
#46 = UNCERTAINTY_MEASURE_WITH_UNIT (LENGTH_MEASURE( 1.000000000000000082E-05 ), #579, 'distance_accuracy_value', 'NONE');
#47 = EDGE_CURVE ( 'NONE', #461, #308, #608, .T. ) ;
#48 = CARTESIAN_POINT ( 'NONE',  ( 0.0000000000000000000, 0.0000000000000000000, 0.0000000000000000000 ) ) ;
#49 = CARTESIAN_POINT ( 'NONE',  ( 0.05000000000000002359, 0.2699999999999999623, -0.05000000000000000278 ) ) ;
#50 = EDGE_LOOP ( 'NONE', ( #45, #636, #749, #201 ) ) ;
#51 = STYLED_ITEM ( 'NONE', ( #650 ), #279 ) ;
#52 = EDGE_CURVE ( 'NONE', #321, #552, #1, .T. ) ;
#53 = DIRECTION ( 'NONE',  ( -0.0000000000000000000, -1.000000000000000000, -0.0000000000000000000 ) ) ;
#54 = CARTESIAN_POINT ( 'NONE',  ( 0.9499999999999999556, 0.2699999999999999623, -0.5500000000000000444 ) ) ;
#55 = ORIENTED_EDGE ( 'NONE', *, *, #106, .T. ) ;
#56 = VECTOR ( 'NONE', #423, 1000.000000000000000 ) ;
#57 = FACE_OUTER_BOUND ( 'NONE', #59, .T. ) ;
#58 = PLANE ( 'NONE',  #701 ) ;
#59 = EDGE_LOOP ( 'NONE', ( #364, #430, #119, #756 ) ) ;
#60 = PRESENTATION_STYLE_ASSIGNMENT (( #532 ) ) ;
#61 = DIRECTION ( 'NONE',  ( 0.0000000000000000000, 0.0000000000000000000, -1.000000000000000000 ) ) ;
#62 =( NAMED_UNIT ( * ) SI_UNIT ( $, .STERADIAN. ) SOLID_ANGLE_UNIT ( ) );
#63 = CARTESIAN_POINT ( 'NONE',  ( 0.04999999999999996114, 0.2399999999999999911, -0.5500000000000000444 ) ) ;
#64 = EDGE_CURVE ( 'NONE', #552, #357, #250, .T. ) ;
#65 = COLOUR_RGB ( '',1.000000000000000000, 0.8078431372549019773, 0.4980392156862745168 ) ;
#66 = VECTOR ( 'NONE', #584, 1000.000000000000000 ) ;
#67 = CARTESIAN_POINT ( 'NONE',  ( 0.1644783021242412213, 0.0000000000000000000, 0.0000000000000000000 ) ) ;
#68 =( NAMED_UNIT ( * ) PLANE_ANGLE_UNIT ( ) SI_UNIT ( $, .RADIAN. ) );
#69 = CARTESIAN_POINT ( 'NONE',  ( 0.0000000000000000000, 0.0000000000000000000, 0.0000000000000000000 ) ) ;
#70 = ORIENTED_EDGE ( 'NONE', *, *, #653, .F. ) ;
#71 = APPLICATION_CONTEXT ( 'automotive_design' ) ;
#72 = MECHANICAL_DESIGN_GEOMETRIC_PRESENTATION_REPRESENTATION (  '', ( #716 ), #542 ) ;
#73 = FILL_AREA_STYLE_COLOUR ( '', #131 ) ;
#74 = ORIENTED_EDGE ( 'NONE', *, *, #544, .F. ) ;
#75 = EDGE_CURVE ( 'NONE', #308, #556, #192, .T. ) ;
#76 = ORIENTED_EDGE ( 'NONE', *, *, #232, .F. ) ;
#77 = DIRECTION ( 'NONE',  ( 1.000000000000000000, 0.0000000000000000000, 0.0000000000000000000 ) ) ;
#78 = CARTESIAN_POINT ( 'NONE',  ( 0.1344783021242411947, 0.0000000000000000000, -0.5999999999999999778 ) ) ;
#79 = VECTOR ( 'NONE', #486, 1000.000000000000000 ) ;
#80 = ORIENTED_EDGE ( 'NONE', *, *, #620, .T. ) ;
#81 = VECTOR ( 'NONE', #572, 1000.000000000000000 ) ;
#82 =( LENGTH_UNIT ( ) NAMED_UNIT ( * ) SI_UNIT ( .MILLI., .METRE. ) );
#83 = PRESENTATION_LAYER_ASSIGNMENT (  '', '', ( #739 ) ) ;
#84 = EDGE_LOOP ( 'NONE', ( #707, #55, #12, #360 ) ) ;
#85 = ORIENTED_EDGE ( 'NONE', *, *, #358, .F. ) ;
#86 = COLOUR_RGB ( '',1.000000000000000000, 0.8078431372549019773, 0.4980392156862745168 ) ;
#87 = ADVANCED_FACE ( 'NONE', ( #128 ), #34, .T. ) ;
#88 = VERTEX_POINT ( 'NONE', #392 ) ;
#89 = CARTESIAN_POINT ( 'NONE',  ( 0.0000000000000000000, 0.0000000000000000000, 0.0000000000000000000 ) ) ;
#90 = EDGE_CURVE ( 'NONE', #88, #581, #260, .T. ) ;
#91 = DIRECTION ( 'NONE',  ( 0.0000000000000000000, 0.0000000000000000000, 1.000000000000000000 ) ) ;
#92 =( GEOMETRIC_REPRESENTATION_CONTEXT ( 3 ) GLOBAL_UNCERTAINTY_ASSIGNED_CONTEXT ( ( #524 ) ) GLOBAL_UNIT_ASSIGNED_CONTEXT ( ( #320, #450, #569 ) ) REPRESENTATION_CONTEXT ( 'NONE', 'WORKASPACE' ) );
#93 = CARTESIAN_POINT ( 'NONE',  ( 0.0000000000000000000, 0.0000000000000000000, -0.5999999999999999778 ) ) ;
#94 = FILL_AREA_STYLE_COLOUR ( '', #286 ) ;
#95 = AXIS2_PLACEMENT_3D ( 'NONE', #165, #515, #469 ) ;
#96 = DIRECTION ( 'NONE',  ( 0.0000000000000000000, -0.0000000000000000000, -1.000000000000000000 ) ) ;
#97 = FILL_AREA_STYLE_COLOUR ( '', #144 ) ;
#98 =( NAMED_UNIT ( * ) PLANE_ANGLE_UNIT ( ) SI_UNIT ( $, .RADIAN. ) );
#99 = EDGE_CURVE ( 'NONE', #123, #353, #17, .T. ) ;
#100 = DIRECTION ( 'NONE',  ( -0.0000000000000000000, -0.0000000000000000000, -1.000000000000000000 ) ) ;
#101 = CARTESIAN_POINT ( 'NONE',  ( 0.04999999999999996114, 0.2399999999999999911, -0.5500000000000000444 ) ) ;
#102 = CARTESIAN_POINT ( 'NONE',  ( 0.1044783021242411819, 0.0000000000000000000, -0.5999999999999999778 ) ) ;
#103 = CYLINDRICAL_SURFACE ( 'NONE', #555, 0.03000000000000002318 ) ;
#104 = DIRECTION ( 'NONE',  ( 0.0000000000000000000, 0.0000000000000000000, -1.000000000000000000 ) ) ;
#105 = ORIENTED_EDGE ( 'NONE', *, *, #301, .T. ) ;
#106 = EDGE_CURVE ( 'NONE', #371, #599, #448, .T. ) ;
#107 = CARTESIAN_POINT ( 'NONE',  ( 0.9500000000000000666, 0.2699999999999999623, -0.05000000000000007216 ) ) ;
#108 = DIRECTION ( 'NONE',  ( 1.000000000000000000, -0.0000000000000000000, 0.0000000000000000000 ) ) ;
#109 = EDGE_LOOP ( 'NONE', ( #319, #476, #432, #675 ) ) ;
#110 = MECHANICAL_DESIGN_GEOMETRIC_PRESENTATION_REPRESENTATION (  '', ( #564 ), #626 ) ;
#111 = CARTESIAN_POINT ( 'NONE',  ( 0.9500000000000000666, 0.2399999999999999911, -0.05000000000000007216 ) ) ;
#112 =( LENGTH_UNIT ( ) NAMED_UNIT ( * ) SI_UNIT ( .MILLI., .METRE. ) );
#113 = CARTESIAN_POINT ( 'NONE',  ( 0.7000000000000000666, 0.2699999999999999623, -0.05000000000000002359 ) ) ;
#114 = ORIENTED_EDGE ( 'NONE', *, *, #422, .F. ) ;
#115 = UNCERTAINTY_MEASURE_WITH_UNIT (LENGTH_MEASURE( 1.000000000000000082E-05 ), #257, 'distance_accuracy_value', 'NONE');
#116 = FACE_OUTER_BOUND ( 'NONE', #609, .T. ) ;
#117 = DIRECTION ( 'NONE',  ( 0.0000000000000000000, 0.0000000000000000000, 1.000000000000000000 ) ) ;
#118 = CARTESIAN_POINT ( 'NONE',  ( 0.7000000000000000666, 0.2699999999999999623, -0.05000000000000002359 ) ) ;
#119 = ORIENTED_EDGE ( 'NONE', *, *, #416, .T. ) ;
#120 = AXIS2_PLACEMENT_3D ( 'NONE', #600, #720, #477 ) ;
#121 = FILL_AREA_STYLE_COLOUR ( '', #135 ) ;
#122 = LINE ( 'NONE', #118, #742 ) ;
#123 = VERTEX_POINT ( 'NONE', #568 ) ;
#124 = VECTOR ( 'NONE', #344, 1000.000000000000000 ) ;
#125 = DIRECTION ( 'NONE',  ( 0.0000000000000000000, 0.0000000000000000000, -1.000000000000000000 ) ) ;
#126 =( NAMED_UNIT ( * ) SI_UNIT ( $, .STERADIAN. ) SOLID_ANGLE_UNIT ( ) );
#127 = DIRECTION ( 'NONE',  ( 0.0000000000000000000, -0.0000000000000000000, -1.000000000000000000 ) ) ;
#128 = FACE_OUTER_BOUND ( 'NONE', #679, .T. ) ;
#129 = DIRECTION ( 'NONE',  ( -0.0000000000000000000, -1.000000000000000000, -0.0000000000000000000 ) ) ;
#130 = ORIENTED_EDGE ( 'NONE', *, *, #489, .T. ) ;
#131 = COLOUR_RGB ( '',1.000000000000000000, 0.8078431372549019773, 0.4980392156862745168 ) ;
#132 = CARTESIAN_POINT ( 'NONE',  ( 1.000000000000000000, 0.0000000000000000000, 0.0000000000000000000 ) ) ;
#133 = ADVANCED_FACE ( 'NONE', ( #686 ), #737, .F. ) ;
#134 = EDGE_LOOP ( 'NONE', ( #589, #136, #239, #492 ) ) ;
#135 = COLOUR_RGB ( '',0.7921568627450980005, 0.8196078431372548767, 0.9333333333333333481 ) ;
#136 = ORIENTED_EDGE ( 'NONE', *, *, #316, .F. ) ;
#137 = APPLICATION_PROTOCOL_DEFINITION ( 'draft international standard', 'automotive_design', 1998, #71 ) ;
#138 = VERTEX_POINT ( 'NONE', #27 ) ;
#139 = VERTEX_POINT ( 'NONE', #460 ) ;
#140 = SURFACE_SIDE_STYLE ('',( #610 ) ) ;
#141 = VECTOR ( 'NONE', #665, 1000.000000000000000 ) ;
#142 = ORIENTED_EDGE ( 'NONE', *, *, #301, .F. ) ;
#143 = EDGE_CURVE ( 'NONE', #283, #599, #443, .T. ) ;
#144 = COLOUR_RGB ( '',1.000000000000000000, 0.8078431372549019773, 0.4980392156862745168 ) ;
#145 =( GEOMETRIC_REPRESENTATION_CONTEXT ( 3 ) GLOBAL_UNCERTAINTY_ASSIGNED_CONTEXT ( ( #504 ) ) GLOBAL_UNIT_ASSIGNED_CONTEXT ( ( #388, #150, #382 ) ) REPRESENTATION_CONTEXT ( 'NONE', 'WORKASPACE' ) );
#146 = ORIENTED_EDGE ( 'NONE', *, *, #99, .T. ) ;
#147 = AXIS2_PLACEMENT_3D ( 'NONE', #718, #663, #474 ) ;
#148 = VERTEX_POINT ( 'NONE', #682 ) ;
#149 = SURFACE_STYLE_USAGE ( .BOTH. , #266 ) ;
#150 =( NAMED_UNIT ( * ) PLANE_ANGLE_UNIT ( ) SI_UNIT ( $, .RADIAN. ) );
#151 = PLANE ( 'NONE',  #621 ) ;
#152 = DIRECTION ( 'NONE',  ( 0.0000000000000000000, -1.000000000000000000, 0.0000000000000000000 ) ) ;
#153 = MECHANICAL_DESIGN_GEOMETRIC_PRESENTATION_REPRESENTATION (  '', ( #465 ), #510 ) ;
#154 = DIRECTION ( 'NONE',  ( -1.000000000000000000, 0.0000000000000000000, 1.355252715606880543E-16 ) ) ;
#155 = EDGE_CURVE ( 'NONE', #599, #550, #326, .T. ) ;
#156 = VECTOR ( 'NONE', #184, 1000.000000000000000 ) ;
#157 = CARTESIAN_POINT ( 'NONE',  ( 0.1344783021242411947, 0.0000000000000000000, 0.0000000000000000000 ) ) ;
#158 = LINE ( 'NONE', #387, #66 ) ;
#159 =( NAMED_UNIT ( * ) SI_UNIT ( $, .STERADIAN. ) SOLID_ANGLE_UNIT ( ) );
#160 = CARTESIAN_POINT ( 'NONE',  ( 0.2044783021242412013, 0.0000000000000000000, 0.0000000000000000000 ) ) ;
#161 =( NAMED_UNIT ( * ) PLANE_ANGLE_UNIT ( ) SI_UNIT ( $, .RADIAN. ) );
#162 = DIRECTION ( 'NONE',  ( -1.084202172485504434E-16, -0.0000000000000000000, -1.000000000000000000 ) ) ;
#163 = DIRECTION ( 'NONE',  ( -0.0000000000000000000, -0.0000000000000000000, 1.000000000000000000 ) ) ;
#164 = EDGE_CURVE ( 'NONE', #139, #283, #509, .T. ) ;
#165 = CARTESIAN_POINT ( 'NONE',  ( 0.0000000000000000000, 0.2399999999999999911, 0.0000000000000000000 ) ) ;
#166 = DIRECTION ( 'NONE',  ( -1.219727444046192488E-16, 0.0000000000000000000, -1.000000000000000000 ) ) ;
#167 = LINE ( 'NONE', #281, #637 ) ;
#168 = PRESENTATION_LAYER_ASSIGNMENT (  '', '', ( #497 ) ) ;
#169 = VECTOR ( 'NONE', #588, 1000.000000000000000 ) ;
#170 = ORIENTED_EDGE ( 'NONE', *, *, #29, .T. ) ;
#171 = CARTESIAN_POINT ( 'NONE',  ( 0.6999999999999999556, 0.2699999999999999623, -0.5500000000000000444 ) ) ;
#172 = PLANE ( 'NONE',  #440 ) ;
#173 = DIRECTION ( 'NONE',  ( 1.000000000000000000, 0.0000000000000000000, -2.168404344971008868E-16 ) ) ;
#174 = VECTOR ( 'NONE', #502, 1000.000000000000000 ) ;
#175 = ORIENTED_EDGE ( 'NONE', *, *, #705, .T. ) ;
#176 = CARTESIAN_POINT ( 'NONE',  ( 0.2644783021242412269, 0.0000000000000000000, -0.5999999999999999778 ) ) ;
#177 = FACE_OUTER_BOUND ( 'NONE', #84, .T. ) ;
#178 = ORIENTED_EDGE ( 'NONE', *, *, #316, .T. ) ;
#179 = CARTESIAN_POINT ( 'NONE',  ( 0.0000000000000000000, 0.0000000000000000000, 0.0000000000000000000 ) ) ;
#180 = ORIENTED_EDGE ( 'NONE', *, *, #164, .F. ) ;
#181 = ADVANCED_FACE ( 'NONE', ( #426 ), #44, .F. ) ;
#182 = VECTOR ( 'NONE', #483, 1000.000000000000000 ) ;
#183 = CARTESIAN_POINT ( 'NONE',  ( 1.000000000000000000, 0.2399999999999999911, 0.0000000000000000000 ) ) ;
#184 = DIRECTION ( 'NONE',  ( 1.000000000000000000, 0.0000000000000000000, -1.897353801849632760E-16 ) ) ;
#185 = DIRECTION ( 'NONE',  ( -1.000000000000000000, 0.0000000000000000000, 0.0000000000000000000 ) ) ;
#186 = DIRECTION ( 'NONE',  ( -0.0000000000000000000, -0.0000000000000000000, -1.000000000000000000 ) ) ;
#187 = FACE_OUTER_BOUND ( 'NONE', #256, .T. ) ;
#188 = FILL_AREA_STYLE_COLOUR ( '', #595 ) ;
#189 = DIRECTION ( 'NONE',  ( -0.0000000000000000000, -0.0000000000000000000, -1.000000000000000000 ) ) ;
#190 = DIRECTION ( 'NONE',  ( -0.0000000000000000000, -1.000000000000000000, -0.0000000000000000000 ) ) ;
#191 = EDGE_CURVE ( 'NONE', #138, #353, #242, .T. ) ;
#192 = LINE ( 'NONE', #428, #548 ) ;
#193 = ORIENTED_EDGE ( 'NONE', *, *, #715, .T. ) ;
#194 = ORIENTED_EDGE ( 'NONE', *, *, #290, .T. ) ;
#195 = ORIENTED_EDGE ( 'NONE', *, *, #232, .T. ) ;
#196 = ORIENTED_EDGE ( 'NONE', *, *, #379, .F. ) ;
#197 = EDGE_LOOP ( 'NONE', ( #441, #170, #405, #278 ) ) ;
#198 = EDGE_LOOP ( 'NONE', ( #252, #730, #6, #297 ) ) ;
#199 = MECHANICAL_DESIGN_GEOMETRIC_PRESENTATION_REPRESENTATION (  '', ( #394 ), #287 ) ;
#200 = STYLED_ITEM ( 'NONE', ( #731 ), #520 ) ;
#201 = ORIENTED_EDGE ( 'NONE', *, *, #495, .F. ) ;
#202 = AXIS2_PLACEMENT_3D ( 'NONE', #42, #698, #390 ) ;
#203 = DIRECTION ( 'NONE',  ( 0.0000000000000000000, -0.0000000000000000000, 1.000000000000000000 ) ) ;
#204 = LINE ( 'NONE', #48, #356 ) ;
#205 = ADVANCED_FACE ( 'NONE', ( #187 ), #249, .F. ) ;
#206 = CARTESIAN_POINT ( 'NONE',  ( 0.04999999999999996114, 0.2699999999999999623, -0.5500000000000000444 ) ) ;
#207 = PLANE ( 'NONE',  #398 ) ;
#208 = DIRECTION ( 'NONE',  ( 0.0000000000000000000, 0.0000000000000000000, 1.000000000000000000 ) ) ;
#209 = AXIS2_PLACEMENT_3D ( 'NONE', #487, #108, #125 ) ;
#210 = CARTESIAN_POINT ( 'NONE',  ( 0.9499999999999999556, 0.2399999999999999911, -0.5500000000000000444 ) ) ;
#211 = PRESENTATION_STYLE_ASSIGNMENT (( #741 ) ) ;
#212 = SURFACE_STYLE_USAGE ( .BOTH. , #743 ) ;
#213 = VECTOR ( 'NONE', #338, 1000.000000000000000 ) ;
#214 = LINE ( 'NONE', #457, #56 ) ;
#215 = DIRECTION ( 'NONE',  ( -1.000000000000000000, 0.0000000000000000000, 0.0000000000000000000 ) ) ;
#216 = EDGE_CURVE ( 'NONE', #415, #729, #767, .T. ) ;
#217 = FACE_OUTER_BOUND ( 'NONE', #619, .T. ) ;
#218 = CARTESIAN_POINT ( 'NONE',  ( 0.04999999999999996114, 0.2399999999999999911, -0.5500000000000000444 ) ) ;
#219 = DIRECTION ( 'NONE',  ( -1.355252715606880543E-16, 0.0000000000000000000, -1.000000000000000000 ) ) ;
#220 = ORIENTED_EDGE ( 'NONE', *, *, #322, .F. ) ;
#221 = CARTESIAN_POINT ( 'NONE',  ( 0.6999999999999999556, 0.2399999999999999911, -0.5500000000000000444 ) ) ;
#222 = MECHANICAL_DESIGN_GEOMETRIC_PRESENTATION_REPRESENTATION (  '', ( #497 ), #92 ) ;
#223 = PRESENTATION_LAYER_ASSIGNMENT (  '', '', ( #465 ) ) ;
#224 = VERTEX_POINT ( 'NONE', #183 ) ;
#225 = UNCERTAINTY_MEASURE_WITH_UNIT (LENGTH_MEASURE( 1.000000000000000082E-05 ), #417, 'distance_accuracy_value', 'NONE');
#226 = LINE ( 'NONE', #284, #493 ) ;
#227 = CARTESIAN_POINT ( 'NONE',  ( 0.04999999999999996114, 0.2699999999999999623, -0.5500000000000000444 ) ) ;
#228 = FACE_OUTER_BOUND ( 'NONE', #768, .T. ) ;
#229 = PRESENTATION_LAYER_ASSIGNMENT (  '', '', ( #564 ) ) ;
#230 = ORIENTED_EDGE ( 'NONE', *, *, #90, .F. ) ;
#231 = SURFACE_SIDE_STYLE ('',( #583 ) ) ;
#232 = EDGE_CURVE ( 'NONE', #148, #283, #361, .T. ) ;
#233 = LINE ( 'NONE', #712, #582 ) ;
#234 = DIRECTION ( 'NONE',  ( 1.000000000000000000, 0.0000000000000000000, 0.0000000000000000000 ) ) ;
#235 = VERTEX_POINT ( 'NONE', #67 ) ;
#236 = EDGE_CURVE ( 'NONE', #708, #321, #307, .T. ) ;
#237 = DIRECTION ( 'NONE',  ( 1.000000000000000000, 0.0000000000000000000, -1.355252715606880543E-16 ) ) ;
#238 = DIRECTION ( 'NONE',  ( -1.000000000000000000, 0.0000000000000000000, 1.897353801849632760E-16 ) ) ;
#239 = ORIENTED_EDGE ( 'NONE', *, *, #617, .F. ) ;
#240 = COLOUR_RGB ( '',1.000000000000000000, 0.8078431372549019773, 0.4980392156862745168 ) ;
#241 = AXIS2_PLACEMENT_3D ( 'NONE', #334, #273, #203 ) ;
#242 = LINE ( 'NONE', #282, #383 ) ;
#243 = PLANE ( 'NONE',  #485 ) ;
#244 = CARTESIAN_POINT ( 'NONE',  ( 0.2344783021242412002, 0.0000000000000000000, 0.0000000000000000000 ) ) ;
#245 = CARTESIAN_POINT ( 'NONE',  ( 0.0000000000000000000, 0.2399999999999999911, -0.5999999999999999778 ) ) ;
#246 = ADVANCED_FACE ( 'NONE', ( #247, #341, #540 ), #585, .F. ) ;
#247 = FACE_BOUND ( 'NONE', #109, .T. ) ;
#248 = VERTEX_POINT ( 'NONE', #420 ) ;
#249 = PLANE ( 'NONE',  #120 ) ;
#250 = LINE ( 'NONE', #722, #414 ) ;
#251 = ORIENTED_EDGE ( 'NONE', *, *, #191, .T. ) ;
#252 = ORIENTED_EDGE ( 'NONE', *, *, #653, .T. ) ;
#253 = VECTOR ( 'NONE', #713, 1000.000000000000000 ) ;
#254 = STYLED_ITEM ( 'NONE', ( #303 ), #764 ) ;
#255 = ORIENTED_EDGE ( 'NONE', *, *, #29, .F. ) ;
#256 = EDGE_LOOP ( 'NONE', ( #251, #425, #700, #672 ) ) ;
#257 =( LENGTH_UNIT ( ) NAMED_UNIT ( * ) SI_UNIT ( .MILLI., .METRE. ) );
#258 = ORIENTED_EDGE ( 'NONE', *, *, #620, .F. ) ;
#259 = STYLED_ITEM ( 'NONE', ( #60 ), #205 ) ;
#260 = LINE ( 'NONE', #692, #410 ) ;
#261 = ADVANCED_FACE ( 'NONE', ( #177 ), #596, .F. ) ;
#262 = MECHANICAL_DESIGN_GEOMETRIC_PRESENTATION_REPRESENTATION (  '', ( #419 ), #456 ) ;
#263 = DIRECTION ( 'NONE',  ( 1.000000000000000000, 0.0000000000000000000, -0.0000000000000000000 ) ) ;
#264 = CARTESIAN_POINT ( 'NONE',  ( 0.6999999999999999556, 0.2399999999999999911, -0.5500000000000000444 ) ) ;
#265 = DIRECTION ( 'NONE',  ( -0.0000000000000000000, -1.000000000000000000, -0.0000000000000000000 ) ) ;
#266 = SURFACE_SIDE_STYLE ('',( #505 ) ) ;
#267 = LINE ( 'NONE', #340, #169 ) ;
#268 = DIRECTION ( 'NONE',  ( 0.0000000000000000000, 0.0000000000000000000, 1.000000000000000000 ) ) ;
#269 = CLOSED_SHELL ( 'NONE', ( #735, #271, #246, #181, #565, #349, #681, #661, #631, #133, #205, #506, #764, #370, #279, #603, #520, #87, #652, #261 ) ) ;
#270 = SURFACE_STYLE_FILL_AREA ( #28 ) ;
#271 = ADVANCED_FACE ( 'NONE', ( #408 ), #58, .T. ) ;
#272 = DIRECTION ( 'NONE',  ( -1.000000000000000000, -0.0000000000000000000, -0.0000000000000000000 ) ) ;
#273 = DIRECTION ( 'NONE',  ( -0.0000000000000000000, 1.000000000000000000, 0.0000000000000000000 ) ) ;
#274 = PRODUCT ( 'SOD993', 'SOD993', '', ( #317 ) ) ;
#275 = FACE_OUTER_BOUND ( 'NONE', #437, .T. ) ;
#276 = DIRECTION ( 'NONE',  ( -1.000000000000000000, -0.0000000000000000000, -0.0000000000000000000 ) ) ;
#277 = SURFACE_STYLE_USAGE ( .BOTH. , #38 ) ;
#278 = ORIENTED_EDGE ( 'NONE', *, *, #348, .F. ) ;
#279 = ADVANCED_FACE ( 'NONE', ( #228 ), #292, .F. ) ;
#280 = PRESENTATION_STYLE_ASSIGNMENT (( #41 ) ) ;
#281 = CARTESIAN_POINT ( 'NONE',  ( 0.0000000000000000000, 0.2399999999999999911, -0.5999999999999999778 ) ) ;
#282 = CARTESIAN_POINT ( 'NONE',  ( 0.2999999999999999889, 0.2399999999999999911, -0.5500000000000000444 ) ) ;
#283 = VERTEX_POINT ( 'NONE', #763 ) ;
#284 = CARTESIAN_POINT ( 'NONE',  ( 0.6999999999999999556, 0.2699999999999999623, -0.5500000000000000444 ) ) ;
#285 = PLANE ( 'NONE',  #688 ) ;
#286 = COLOUR_RGB ( '',1.000000000000000000, 0.8078431372549019773, 0.4980392156862745168 ) ;
#287 =( GEOMETRIC_REPRESENTATION_CONTEXT ( 3 ) GLOBAL_UNCERTAINTY_ASSIGNED_CONTEXT ( ( #46 ) ) GLOBAL_UNIT_ASSIGNED_CONTEXT ( ( #579, #751, #467 ) ) REPRESENTATION_CONTEXT ( 'NONE', 'WORKASPACE' ) );
#288 = ORIENTED_EDGE ( 'NONE', *, *, #463, .F. ) ;
#289 = UNCERTAINTY_MEASURE_WITH_UNIT (LENGTH_MEASURE( 1.000000000000000082E-05 ), #82, 'distance_accuracy_value', 'NONE');
#290 = EDGE_CURVE ( 'NONE', #357, #399, #122, .T. ) ;
#291 = PLANE ( 'NONE',  #95 ) ;
#292 = PLANE ( 'NONE',  #709 ) ;
#293 = VECTOR ( 'NONE', #628, 1000.000000000000000 ) ;
#294 = EDGE_LOOP ( 'NONE', ( #337, #557, #728, #586 ) ) ;
#295 = DIRECTION ( 'NONE',  ( -1.000000000000000000, 0.0000000000000000000, 0.0000000000000000000 ) ) ;
#296 =( LENGTH_UNIT ( ) NAMED_UNIT ( * ) SI_UNIT ( .MILLI., .METRE. ) );
#297 = ORIENTED_EDGE ( 'NONE', *, *, #554, .T. ) ;
#298 = CARTESIAN_POINT ( 'NONE',  ( 0.0000000000000000000, 0.2399999999999999911, 0.0000000000000000000 ) ) ;
#299 = FILL_AREA_STYLE ('',( #188 ) ) ;
#300 = FILL_AREA_STYLE ('',( #656 ) ) ;
#301 = EDGE_CURVE ( 'NONE', #581, #224, #363, .T. ) ;
#302 = SURFACE_STYLE_FILL_AREA ( #719 ) ;
#303 = PRESENTATION_STYLE_ASSIGNMENT (( #470 ) ) ;
#304 = DIRECTION ( 'NONE',  ( -1.000000000000000000, -0.0000000000000000000, -0.0000000000000000000 ) ) ;
#305 =( GEOMETRIC_REPRESENTATION_CONTEXT ( 3 ) GLOBAL_UNCERTAINTY_ASSIGNED_CONTEXT ( ( #406 ) ) GLOBAL_UNIT_ASSIGNED_CONTEXT ( ( #362, #68, #770 ) ) REPRESENTATION_CONTEXT ( 'NONE', 'WORKASPACE' ) );
#306 = AXIS2_PLACEMENT_3D ( 'NONE', #549, #772, #77 ) ;
#307 = LINE ( 'NONE', #659, #622 ) ;
#308 = VERTEX_POINT ( 'NONE', #480 ) ;
#309 = ORIENTED_EDGE ( 'NONE', *, *, #47, .T. ) ;
#310 = SURFACE_STYLE_USAGE ( .BOTH. , #140 ) ;
#311 = CARTESIAN_POINT ( 'NONE',  ( 0.6999999999999999556, 0.2699999999999999623, -0.5500000000000000444 ) ) ;
#312 = ORIENTED_EDGE ( 'NONE', *, *, #143, .F. ) ;
#313 =( GEOMETRIC_REPRESENTATION_CONTEXT ( 3 ) GLOBAL_UNCERTAINTY_ASSIGNED_CONTEXT ( ( #590 ) ) GLOBAL_UNIT_ASSIGNED_CONTEXT ( ( #296, #413, #62 ) ) REPRESENTATION_CONTEXT ( 'NONE', 'WORKASPACE' ) );
#314 = ORIENTED_EDGE ( 'NONE', *, *, #216, .F. ) ;
#315 = MECHANICAL_DESIGN_GEOMETRIC_PRESENTATION_REPRESENTATION (  '', ( #739 ), #145 ) ;
#316 = EDGE_CURVE ( 'NONE', #415, #673, #351, .T. ) ;
#317 = PRODUCT_CONTEXT ( 'NONE', #328, 'mechanical' ) ;
#318 = MECHANICAL_DESIGN_GEOMETRIC_PRESENTATION_REPRESENTATION (  '', ( #254 ), #39 ) ;
#319 = ORIENTED_EDGE ( 'NONE', *, *, #11, .F. ) ;
#320 =( LENGTH_UNIT ( ) NAMED_UNIT ( * ) SI_UNIT ( .MILLI., .METRE. ) );
#321 = VERTEX_POINT ( 'NONE', #54 ) ;
#322 = EDGE_CURVE ( 'NONE', #550, #148, #475, .T. ) ;
#323 = PRESENTATION_LAYER_ASSIGNMENT (  '', '', ( #259 ) ) ;
#324 = CARTESIAN_POINT ( 'NONE',  ( 0.6999999999999999556, 0.2699999999999999623, -0.5500000000000000444 ) ) ;
#325 = LINE ( 'NONE', #264, #174 ) ;
#326 = LINE ( 'NONE', #563, #638 ) ;
#327 = VECTOR ( 'NONE', #117, 1000.000000000000000 ) ;
#328 = APPLICATION_CONTEXT ( 'automotive_design' ) ;
#329 = FILL_AREA_STYLE ('',( #97 ) ) ;
#330 = FILL_AREA_STYLE ('',( #580 ) ) ;
#331 = FACE_OUTER_BOUND ( 'NONE', #481, .T. ) ;
#332 = LINE ( 'NONE', #570, #20 ) ;
#333 = LINE ( 'NONE', #571, #5 ) ;
#334 = CARTESIAN_POINT ( 'NONE',  ( 0.0000000000000000000, 0.2699999999999999623, 0.0000000000000000000 ) ) ;
#335 =( NAMED_UNIT ( * ) PLANE_ANGLE_UNIT ( ) SI_UNIT ( $, .RADIAN. ) );
#336 = DIRECTION ( 'NONE',  ( 1.000000000000000000, 0.0000000000000000000, -1.219727444046192488E-16 ) ) ;
#337 = ORIENTED_EDGE ( 'NONE', *, *, #358, .T. ) ;
#338 = DIRECTION ( 'NONE',  ( -0.0000000000000000000, -1.000000000000000000, -0.0000000000000000000 ) ) ;
#339 = PRESENTATION_STYLE_ASSIGNMENT (( #21 ) ) ;
#340 = CARTESIAN_POINT ( 'NONE',  ( 0.0000000000000000000, 0.2399999999999999911, 0.0000000000000000000 ) ) ;
#341 = FACE_OUTER_BOUND ( 'NONE', #765, .T. ) ;
#342 = ORIENTED_EDGE ( 'NONE', *, *, #439, .F. ) ;
#343 = UNCERTAINTY_MEASURE_WITH_UNIT (LENGTH_MEASURE( 1.000000000000000082E-05 ), #112, 'distance_accuracy_value', 'NONE');
#344 = DIRECTION ( 'NONE',  ( -2.168404344971008868E-16, -0.0000000000000000000, -1.000000000000000000 ) ) ;
#345 = DIRECTION ( 'NONE',  ( 0.0000000000000000000, -0.0000000000000000000, -1.000000000000000000 ) ) ;
#346 = DIRECTION ( 'NONE',  ( -0.0000000000000000000, -0.0000000000000000000, -1.000000000000000000 ) ) ;
#347 = EDGE_LOOP ( 'NONE', ( #657, #312, #76, #220 ) ) ;
#348 = EDGE_CURVE ( 'NONE', #308, #235, #429, .T. ) ;
#349 = ADVANCED_FACE ( 'NONE', ( #745 ), #285, .F. ) ;
#350 = CARTESIAN_POINT ( 'NONE',  ( 0.7000000000000000666, 0.2699999999999999623, -0.05000000000000002359 ) ) ;
#351 = LINE ( 'NONE', #760, #667 ) ;
#352 = VECTOR ( 'NONE', #276, 1000.000000000000000 ) ;
#353 = VERTEX_POINT ( 'NONE', #696 ) ;
#354 = FILL_AREA_STYLE ('',( #121 ) ) ;
#355 = CARTESIAN_POINT ( 'NONE',  ( 0.1344783021242411947, 0.0000000000000000000, 0.0000000000000000000 ) ) ;
#356 = VECTOR ( 'NONE', #591, 1000.000000000000000 ) ;
#357 = VERTEX_POINT ( 'NONE', #113 ) ;
#358 = EDGE_CURVE ( 'NONE', #380, #734, #685, .T. ) ;
#359 = DIRECTION ( 'NONE',  ( 0.0000000000000000000, -1.000000000000000000, 0.0000000000000000000 ) ) ;
#360 = ORIENTED_EDGE ( 'NONE', *, *, #715, .F. ) ;
#361 = LINE ( 'NONE', #132, #753 ) ;
#362 =( LENGTH_UNIT ( ) NAMED_UNIT ( * ) SI_UNIT ( .MILLI., .METRE. ) );
#363 = LINE ( 'NONE', #602, #412 ) ;
#364 = ORIENTED_EDGE ( 'NONE', *, *, #617, .T. ) ;
#365 = MECHANICAL_DESIGN_GEOMETRIC_PRESENTATION_REPRESENTATION (  '', ( #51 ), #313 ) ;
#366 = DIRECTION ( 'NONE',  ( 0.0000000000000000000, 0.0000000000000000000, -1.000000000000000000 ) ) ;
#367 = CARTESIAN_POINT ( 'NONE',  ( 0.0000000000000000000, 0.0000000000000000000, -0.5999999999999999778 ) ) ;
#368 = ORIENTED_EDGE ( 'NONE', *, *, #463, .T. ) ;
#369 = LINE ( 'NONE', #245, #372 ) ;
#370 = ADVANCED_FACE ( 'NONE', ( #391 ), #567, .F. ) ;
#371 = VERTEX_POINT ( 'NONE', #699 ) ;
#372 = VECTOR ( 'NONE', #304, 1000.000000000000000 ) ;
#373 = AXIS2_PLACEMENT_3D ( 'NONE', #447, #219, #154 ) ;
#374 = EDGE_LOOP ( 'NONE', ( #651, #196, #230, #368 ) ) ;
#375 = CIRCLE ( 'NONE', #726, 0.02999999999999999889 ) ;
#376 = AXIS2_PLACEMENT_3D ( 'NONE', #747, #208, #451 ) ;
#377 = ORIENTED_EDGE ( 'NONE', *, *, #52, .T. ) ;
#378 =( NAMED_UNIT ( * ) SI_UNIT ( $, .STERADIAN. ) SOLID_ANGLE_UNIT ( ) );
#379 = EDGE_CURVE ( 'NONE', #581, #461, #267, .T. ) ;
#380 = VERTEX_POINT ( 'NONE', #210 ) ;
#381 = CARTESIAN_POINT ( 'NONE',  ( 0.0000000000000000000, 0.0000000000000000000, -0.5999999999999999778 ) ) ;
#382 =( NAMED_UNIT ( * ) SI_UNIT ( $, .STERADIAN. ) SOLID_ANGLE_UNIT ( ) );
#383 = VECTOR ( 'NONE', #605, 1000.000000000000000 ) ;
#384 = LINE ( 'NONE', #381, #687 ) ;
#385 = FACE_OUTER_BOUND ( 'NONE', #347, .T. ) ;
#386 = DIRECTION ( 'NONE',  ( 1.219727444046192488E-16, 0.0000000000000000000, 1.000000000000000000 ) ) ;
#387 = CARTESIAN_POINT ( 'NONE',  ( 0.04999999999999996114, 0.2699999999999999623, -0.5500000000000000444 ) ) ;
#388 =( LENGTH_UNIT ( ) NAMED_UNIT ( * ) SI_UNIT ( .MILLI., .METRE. ) );
#389 = FILL_AREA_STYLE ('',( #499 ) ) ;
#390 = DIRECTION ( 'NONE',  ( 2.168404344971008868E-16, 0.0000000000000000000, 1.000000000000000000 ) ) ;
#391 = FACE_OUTER_BOUND ( 'NONE', #198, .T. ) ;
#392 = CARTESIAN_POINT ( 'NONE',  ( 0.0000000000000000000, 0.2399999999999999911, -0.5999999999999999778 ) ) ;
#393 = ORIENTED_EDGE ( 'NONE', *, *, #594, .F. ) ;
#394 = STYLED_ITEM ( 'NONE', ( #748 ), #370 ) ;
#395 = SURFACE_STYLE_FILL_AREA ( #403 ) ;
#396 = DIRECTION ( 'NONE',  ( -1.000000000000000000, 0.0000000000000000000, 0.0000000000000000000 ) ) ;
#397 = DIRECTION ( 'NONE',  ( 0.0000000000000000000, 0.0000000000000000000, -1.000000000000000000 ) ) ;
#398 = AXIS2_PLACEMENT_3D ( 'NONE', #324, #23, #263 ) ;
#399 = VERTEX_POINT ( 'NONE', #646 ) ;
#400 =( LENGTH_UNIT ( ) NAMED_UNIT ( * ) SI_UNIT ( .MILLI., .METRE. ) );
#401 =( GEOMETRIC_REPRESENTATION_CONTEXT ( 3 ) GLOBAL_UNCERTAINTY_ASSIGNED_CONTEXT ( ( #462 ) ) GLOBAL_UNIT_ASSIGNED_CONTEXT ( ( #695, #161, #466 ) ) REPRESENTATION_CONTEXT ( 'NONE', 'WORKASPACE' ) );
#402 = EDGE_CURVE ( 'NONE', #496, #371, #452, .T. ) ;
#403 = FILL_AREA_STYLE ('',( #445 ) ) ;
#404 = DIRECTION ( 'NONE',  ( -2.168404344971008868E-16, 0.0000000000000000000, -1.000000000000000000 ) ) ;
#405 = ORIENTED_EDGE ( 'NONE', *, *, #727, .T. ) ;
#406 = UNCERTAINTY_MEASURE_WITH_UNIT (LENGTH_MEASURE( 1.000000000000000082E-05 ), #362, 'distance_accuracy_value', 'NONE');
#407 = APPLICATION_PROTOCOL_DEFINITION ( 'draft international standard', 'automotive_design', 1998, #328 ) ;
#408 = FACE_OUTER_BOUND ( 'NONE', #597, .T. ) ;
#409 = ORIENTED_EDGE ( 'NONE', *, *, #348, .T. ) ;
#410 = VECTOR ( 'NONE', #163, 1000.000000000000000 ) ;
#411 = FACE_OUTER_BOUND ( 'NONE', #50, .T. ) ;
#412 = VECTOR ( 'NONE', #234, 1000.000000000000000 ) ;
#413 =( NAMED_UNIT ( * ) PLANE_ANGLE_UNIT ( ) SI_UNIT ( $, .RADIAN. ) );
#414 = VECTOR ( 'NONE', #490, 1000.000000000000000 ) ;
#415 = VERTEX_POINT ( 'NONE', #49 ) ;
#416 = EDGE_CURVE ( 'NONE', #729, #123, #691, .T. ) ;
#417 =( LENGTH_UNIT ( ) NAMED_UNIT ( * ) SI_UNIT ( .MILLI., .METRE. ) );
#418 = SURFACE_STYLE_FILL_AREA ( #299 ) ;
#419 = STYLED_ITEM ( 'NONE', ( #19 ), #525 ) ;
#420 = CARTESIAN_POINT ( 'NONE',  ( 0.1644783021242412213, 0.0000000000000000000, -0.5999999999999999778 ) ) ;
#421 = FILL_AREA_STYLE ('',( #73 ) ) ;
#422 = EDGE_CURVE ( 'NONE', #761, #436, #158, .T. ) ;
#423 = DIRECTION ( 'NONE',  ( -1.000000000000000000, -0.0000000000000000000, -0.0000000000000000000 ) ) ;
#424 = CARTESIAN_POINT ( 'NONE',  ( 0.7000000000000000666, 0.2699999999999999623, -0.05000000000000002359 ) ) ;
#425 = ORIENTED_EDGE ( 'NONE', *, *, #99, .F. ) ;
#426 = FACE_OUTER_BOUND ( 'NONE', #374, .T. ) ;
#427 =( NAMED_UNIT ( * ) PLANE_ANGLE_UNIT ( ) SI_UNIT ( $, .RADIAN. ) );
#428 = CARTESIAN_POINT ( 'NONE',  ( 0.1044783021242411819, 0.0000000000000000000, 0.0000000000000000000 ) ) ;
#429 = CIRCLE ( 'NONE', #35, 0.03000000000000002318 ) ;
#430 = ORIENTED_EDGE ( 'NONE', *, *, #216, .T. ) ;
#431 = EDGE_CURVE ( 'NONE', #123, #761, #37, .T. ) ;
#432 = ORIENTED_EDGE ( 'NONE', *, *, #191, .F. ) ;
#433 = PRESENTATION_LAYER_ASSIGNMENT (  '', '', ( #419 ) ) ;
#434 = ORIENTED_EDGE ( 'NONE', *, *, #482, .F. ) ;
#435 = ORIENTED_EDGE ( 'NONE', *, *, #47, .F. ) ;
#436 = VERTEX_POINT ( 'NONE', #101 ) ;
#437 = EDGE_LOOP ( 'NONE', ( #676, #647, #531, #255, #175, #288, #523, #13 ) ) ;
#438 = ORIENTED_EDGE ( 'NONE', *, *, #379, .T. ) ;
#439 = EDGE_CURVE ( 'NONE', #729, #138, #333, .T. ) ;
#440 = AXIS2_PLACEMENT_3D ( 'NONE', #645, #336, #166 ) ;
#441 = ORIENTED_EDGE ( 'NONE', *, *, #75, .T. ) ;
#442 = CARTESIAN_POINT ( 'NONE',  ( 0.04999999999999996114, 0.2699999999999999623, -0.5500000000000000444 ) ) ;
#443 = LINE ( 'NONE', #93, #81 ) ;
#444 = LINE ( 'NONE', #680, #15 ) ;
#445 = FILL_AREA_STYLE_COLOUR ( '', #678 ) ;
#446 = CARTESIAN_POINT ( 'NONE',  ( 1.000000000000000000, 0.2399999999999999911, 0.0000000000000000000 ) ) ;
#447 = CARTESIAN_POINT ( 'NONE',  ( 0.05000000000000002359, 0.2699999999999999623, -0.05000000000000000278 ) ) ;
#448 = CIRCLE ( 'NONE', #551, 0.02999999999999999889 ) ;
#449 = VECTOR ( 'NONE', #272, 1000.000000000000000 ) ;
#450 =( NAMED_UNIT ( * ) PLANE_ANGLE_UNIT ( ) SI_UNIT ( $, .RADIAN. ) );
#451 = DIRECTION ( 'NONE',  ( 1.000000000000000000, 0.0000000000000000000, -0.0000000000000000000 ) ) ;
#452 = LINE ( 'NONE', #522, #723 ) ;
#453 = CARTESIAN_POINT ( 'NONE',  ( 1.000000000000000000, 0.2399999999999999911, -0.5999999999999999778 ) ) ;
#454 = EDGE_CURVE ( 'NONE', #353, #436, #33, .T. ) ;
#455 = UNCERTAINTY_MEASURE_WITH_UNIT (LENGTH_MEASURE( 1.000000000000000082E-05 ), #503, 'distance_accuracy_value', 'NONE');
#456 =( GEOMETRIC_REPRESENTATION_CONTEXT ( 3 ) GLOBAL_UNCERTAINTY_ASSIGNED_CONTEXT ( ( #643 ) ) GLOBAL_UNIT_ASSIGNED_CONTEXT ( ( #400, #335, #644 ) ) REPRESENTATION_CONTEXT ( 'NONE', 'WORKASPACE' ) );
#457 = CARTESIAN_POINT ( 'NONE',  ( 0.0000000000000000000, 0.0000000000000000000, -0.5999999999999999778 ) ) ;
#458 = CARTESIAN_POINT ( 'NONE',  ( 0.0000000000000000000, 0.0000000000000000000, 0.0000000000000000000 ) ) ;
#459 = SURFACE_STYLE_USAGE ( .BOTH. , #512 ) ;
#460 = CARTESIAN_POINT ( 'NONE',  ( 1.000000000000000000, 0.2399999999999999911, -0.5999999999999999778 ) ) ;
#461 = VERTEX_POINT ( 'NONE', #458 ) ;
#462 = UNCERTAINTY_MEASURE_WITH_UNIT (LENGTH_MEASURE( 1.000000000000000082E-05 ), #695, 'distance_accuracy_value', 'NONE');
#463 = EDGE_CURVE ( 'NONE', #88, #7, #167, .T. ) ;
#464 = FILL_AREA_STYLE_COLOUR ( '', #86 ) ;
#465 = STYLED_ITEM ( 'NONE', ( #518 ), #133 ) ;
#466 =( NAMED_UNIT ( * ) SI_UNIT ( $, .STERADIAN. ) SOLID_ANGLE_UNIT ( ) );
#467 =( NAMED_UNIT ( * ) SI_UNIT ( $, .STERADIAN. ) SOLID_ANGLE_UNIT ( ) );
#468 = ORIENTED_EDGE ( 'NONE', *, *, #754, .T. ) ;
#469 = DIRECTION ( 'NONE',  ( -1.000000000000000000, 0.0000000000000000000, -0.0000000000000000000 ) ) ;
#470 = SURFACE_STYLE_USAGE ( .BOTH. , #537 ) ;
#471 = SURFACE_SIDE_STYLE ('',( #706 ) ) ;
#472 = ORIENTED_EDGE ( 'NONE', *, *, #674, .T. ) ;
#473 =( NAMED_UNIT ( * ) PLANE_ANGLE_UNIT ( ) SI_UNIT ( $, .RADIAN. ) );
#474 = DIRECTION ( 'NONE',  ( 0.0000000000000000000, -0.0000000000000000000, 1.000000000000000000 ) ) ;
#475 = LINE ( 'NONE', #179, #253 ) ;
#476 = ORIENTED_EDGE ( 'NONE', *, *, #454, .F. ) ;
#477 = DIRECTION ( 'NONE',  ( 1.084202172485504434E-16, 0.0000000000000000000, 1.000000000000000000 ) ) ;
#478 = CARTESIAN_POINT ( 'NONE',  ( 0.3000000000000000444, 0.2699999999999999623, -0.05000000000000003747 ) ) ;
#479 = VECTOR ( 'NONE', #508, 1000.000000000000000 ) ;
#480 = CARTESIAN_POINT ( 'NONE',  ( 0.1044783021242411819, 0.0000000000000000000, 0.0000000000000000000 ) ) ;
#481 = EDGE_LOOP ( 'NONE', ( #40, #114, #494, #146 ) ) ;
#482 = EDGE_CURVE ( 'NONE', #224, #139, #444, .T. ) ;
#483 = DIRECTION ( 'NONE',  ( 1.000000000000000000, 0.0000000000000000000, -1.355252715606880543E-16 ) ) ;
#484 = DIRECTION ( 'NONE',  ( 0.0000000000000000000, -1.000000000000000000, 0.0000000000000000000 ) ) ;
#485 = AXIS2_PLACEMENT_3D ( 'NONE', #755, #484, #345 ) ;
#486 = DIRECTION ( 'NONE',  ( 1.000000000000000000, 0.0000000000000000000, 0.0000000000000000000 ) ) ;
#487 = CARTESIAN_POINT ( 'NONE',  ( 0.0000000000000000000, 0.2399999999999999911, 0.0000000000000000000 ) ) ;
#488 = CARTESIAN_POINT ( 'NONE',  ( 0.0000000000000000000, 0.0000000000000000000, 0.0000000000000000000 ) ) ;
#489 = EDGE_CURVE ( 'NONE', #235, #496, #511, .T. ) ;
#490 = DIRECTION ( 'NONE',  ( 2.168404344971008868E-16, 0.0000000000000000000, 1.000000000000000000 ) ) ;
#491 = VECTOR ( 'NONE', #162, 1000.000000000000000 ) ;
#492 = ORIENTED_EDGE ( 'NONE', *, *, #422, .T. ) ;
#493 = VECTOR ( 'NONE', #53, 1000.000000000000000 ) ;
#494 = ORIENTED_EDGE ( 'NONE', *, *, #431, .F. ) ;
#495 = EDGE_CURVE ( 'NONE', #371, #248, #384, .T. ) ;
#496 = VERTEX_POINT ( 'NONE', #160 ) ;
#497 = STYLED_ITEM ( 'NONE', ( #683 ), #506 ) ;
#498 = EDGE_LOOP ( 'NONE', ( #612, #342, #314, #178 ) ) ;
#499 = FILL_AREA_STYLE_COLOUR ( '', #65 ) ;
#500 = SURFACE_STYLE_FILL_AREA ( #330 ) ;
#501 = STYLED_ITEM ( 'NONE', ( #339 ), #631 ) ;
#502 = DIRECTION ( 'NONE',  ( 2.168404344971008868E-16, 0.0000000000000000000, 1.000000000000000000 ) ) ;
#503 =( LENGTH_UNIT ( ) NAMED_UNIT ( * ) SI_UNIT ( .MILLI., .METRE. ) );
#504 = UNCERTAINTY_MEASURE_WITH_UNIT (LENGTH_MEASURE( 1.000000000000000082E-05 ), #388, 'distance_accuracy_value', 'NONE');
#505 = SURFACE_STYLE_FILL_AREA ( #14 ) ;
#506 = ADVANCED_FACE ( 'NONE', ( #331 ), #151, .F. ) ;
#507 = CARTESIAN_POINT ( 'NONE',  ( 0.7000000000000000666, 0.2399999999999999911, -0.05000000000000002359 ) ) ;
#508 = DIRECTION ( 'NONE',  ( -1.000000000000000000, -0.0000000000000000000, -0.0000000000000000000 ) ) ;
#509 = LINE ( 'NONE', #453, #560 ) ;
#510 =( GEOMETRIC_REPRESENTATION_CONTEXT ( 3 ) GLOBAL_UNCERTAINTY_ASSIGNED_CONTEXT ( ( #455 ) ) GLOBAL_UNIT_ASSIGNED_CONTEXT ( ( #503, #98, #159 ) ) REPRESENTATION_CONTEXT ( 'NONE', 'WORKASPACE' ) );
#511 = LINE ( 'NONE', #89, #559 ) ;
#512 = SURFACE_SIDE_STYLE ('',( #517 ) ) ;
#513 = DIRECTION ( 'NONE',  ( -1.000000000000000000, 0.0000000000000000000, 0.0000000000000000000 ) ) ;
#514 = MECHANICAL_DESIGN_GEOMETRIC_PRESENTATION_REPRESENTATION (  '', ( #501 ), #401 ) ;
#515 = DIRECTION ( 'NONE',  ( 0.0000000000000000000, 0.0000000000000000000, -1.000000000000000000 ) ) ;
#516 = PLANE ( 'NONE',  #376 ) ;
#517 = SURFACE_STYLE_FILL_AREA ( #329 ) ;
#518 = PRESENTATION_STYLE_ASSIGNMENT (( #277 ) ) ;
#519 = ORIENTED_EDGE ( 'NONE', *, *, #90, .T. ) ;
#520 = ADVANCED_FACE ( 'NONE', ( #623 ), #207, .F. ) ;
#521 = PLANE ( 'NONE',  #202 ) ;
#522 = CARTESIAN_POINT ( 'NONE',  ( 0.2044783021242412013, 0.0000000000000000000, 0.0000000000000000000 ) ) ;
#523 = ORIENTED_EDGE ( 'NONE', *, *, #4, .F. ) ;
#524 = UNCERTAINTY_MEASURE_WITH_UNIT (LENGTH_MEASURE( 1.000000000000000082E-05 ), #320, 'distance_accuracy_value', 'NONE');
#525 = MANIFOLD_SOLID_BREP ( 'Cut-Extrude1', #269 ) ;
#526 = CARTESIAN_POINT ( 'NONE',  ( 0.2344783021242412002, 0.0000000000000000000, 0.0000000000000000000 ) ) ;
#527 = DIRECTION ( 'NONE',  ( 0.0000000000000000000, 0.0000000000000000000, 1.000000000000000000 ) ) ;
#528 = ORIENTED_EDGE ( 'NONE', *, *, #577, .F. ) ;
#529 = FILL_AREA_STYLE ('',( #464 ) ) ;
#530 = CARTESIAN_POINT ( 'NONE',  ( 0.9500000000000000666, 0.2699999999999999623, -0.05000000000000007216 ) ) ;
#531 = ORIENTED_EDGE ( 'NONE', *, *, #495, .T. ) ;
#532 = SURFACE_STYLE_USAGE ( .BOTH. , #717 ) ;
#533 = CARTESIAN_POINT ( 'NONE',  ( 0.6999999999999999556, 0.2399999999999999911, -0.5500000000000000444 ) ) ;
#534 = ORIENTED_EDGE ( 'NONE', *, *, #754, .F. ) ;
#535 = PRODUCT_RELATED_PRODUCT_CATEGORY ( 'part', '', ( #274 ) ) ;
#536 = DIRECTION ( 'NONE',  ( 0.0000000000000000000, -1.000000000000000000, 0.0000000000000000000 ) ) ;
#537 = SURFACE_SIDE_STYLE ('',( #418 ) ) ;
#538 = SURFACE_STYLE_USAGE ( .BOTH. , #471 ) ;
#539 = SURFACE_SIDE_STYLE ('',( #302 ) ) ;
#540 = FACE_BOUND ( 'NONE', #668, .T. ) ;
#541 = LINE ( 'NONE', #350, #156 ) ;
#542 =( GEOMETRIC_REPRESENTATION_CONTEXT ( 3 ) GLOBAL_UNCERTAINTY_ASSIGNED_CONTEXT ( ( #703 ) ) GLOBAL_UNIT_ASSIGNED_CONTEXT ( ( #750, #473, #684 ) ) REPRESENTATION_CONTEXT ( 'NONE', 'WORKASPACE' ) );
#543 = LINE ( 'NONE', #63, #30 ) ;
#544 = EDGE_CURVE ( 'NONE', #7, #461, #204, .T. ) ;
#545 = PRESENTATION_STYLE_ASSIGNMENT (( #310 ) ) ;
#546 = ORIENTED_EDGE ( 'NONE', *, *, #236, .F. ) ;
#547 = ORIENTED_EDGE ( 'NONE', *, *, #236, .T. ) ;
#548 = VECTOR ( 'NONE', #186, 1000.000000000000000 ) ;
#549 = CARTESIAN_POINT ( 'NONE',  ( 0.0000000000000000000, 0.0000000000000000000, 0.0000000000000000000 ) ) ;
#550 = VERTEX_POINT ( 'NONE', #697 ) ;
#551 = AXIS2_PLACEMENT_3D ( 'NONE', #635, #397, #513 ) ;
#552 = VERTEX_POINT ( 'NONE', #171 ) ;
#553 = SHAPE_DEFINITION_REPRESENTATION ( #26, #613 ) ;
#554 = EDGE_CURVE ( 'NONE', #552, #734, #226, .T. ) ;
#555 = AXIS2_PLACEMENT_3D ( 'NONE', #157, #100, #24 ) ;
#556 = VERTEX_POINT ( 'NONE', #102 ) ;
#557 = ORIENTED_EDGE ( 'NONE', *, *, #554, .F. ) ;
#558 = FILL_AREA_STYLE_COLOUR ( '', #671 ) ;
#559 = VECTOR ( 'NONE', #689, 1000.000000000000000 ) ;
#560 = VECTOR ( 'NONE', #630, 1000.000000000000000 ) ;
#561 = DIRECTION ( 'NONE',  ( -1.000000000000000000, -0.0000000000000000000, -0.0000000000000000000 ) ) ;
#562 = FACE_OUTER_BOUND ( 'NONE', #134, .T. ) ;
#563 = CARTESIAN_POINT ( 'NONE',  ( 0.2644783021242412269, 0.0000000000000000000, 0.0000000000000000000 ) ) ;
#564 = STYLED_ITEM ( 'NONE', ( #545 ), #613 ) ;
#565 = ADVANCED_FACE ( 'NONE', ( #116 ), #291, .F. ) ;
#566 = PLANE ( 'NONE',  #758 ) ;
#567 = PLANE ( 'NONE',  #732 ) ;
#568 = CARTESIAN_POINT ( 'NONE',  ( 0.2999999999999999889, 0.2699999999999999623, -0.5500000000000000444 ) ) ;
#569 =( NAMED_UNIT ( * ) SI_UNIT ( $, .STERADIAN. ) SOLID_ANGLE_UNIT ( ) );
#570 = CARTESIAN_POINT ( 'NONE',  ( 0.9499999999999999556, 0.2699999999999999623, -0.5500000000000000444 ) ) ;
#571 = CARTESIAN_POINT ( 'NONE',  ( 0.3000000000000000444, 0.2699999999999999623, -0.05000000000000003747 ) ) ;
#572 = DIRECTION ( 'NONE',  ( -1.000000000000000000, -0.0000000000000000000, -0.0000000000000000000 ) ) ;
#573 = COLOUR_RGB ( '',1.000000000000000000, 0.8078431372549019773, 0.4980392156862745168 ) ;
#574 = PRESENTATION_LAYER_ASSIGNMENT (  '', '', ( #394 ) ) ;
#575 = CIRCLE ( 'NONE', #710, 0.03000000000000002318 ) ;
#576 = CARTESIAN_POINT ( 'NONE',  ( 0.9499999999999999556, 0.2399999999999999911, -0.5500000000000000444 ) ) ;
#577 = EDGE_CURVE ( 'NONE', #224, #148, #704, .T. ) ;
#578 = FACE_OUTER_BOUND ( 'NONE', #197, .T. ) ;
#579 =( LENGTH_UNIT ( ) NAMED_UNIT ( * ) SI_UNIT ( .MILLI., .METRE. ) );
#580 = FILL_AREA_STYLE_COLOUR ( '', #240 ) ;
#581 = VERTEX_POINT ( 'NONE', #746 ) ;
#582 = VECTOR ( 'NONE', #237, 1000.000000000000000 ) ;
#583 = SURFACE_STYLE_FILL_AREA ( #529 ) ;
#584 = DIRECTION ( 'NONE',  ( -0.0000000000000000000, -1.000000000000000000, -0.0000000000000000000 ) ) ;
#585 = PLANE ( 'NONE',  #654 ) ;
#586 = ORIENTED_EDGE ( 'NONE', *, *, #694, .T. ) ;
#587 = LINE ( 'NONE', #576, #124 ) ;
#588 = DIRECTION ( 'NONE',  ( -0.0000000000000000000, -1.000000000000000000, -0.0000000000000000000 ) ) ;
#589 = ORIENTED_EDGE ( 'NONE', *, *, #11, .T. ) ;
#590 = UNCERTAINTY_MEASURE_WITH_UNIT (LENGTH_MEASURE( 1.000000000000000082E-05 ), #296, 'distance_accuracy_value', 'NONE');
#591 = DIRECTION ( 'NONE',  ( -0.0000000000000000000, -0.0000000000000000000, 1.000000000000000000 ) ) ;
#592 = DIRECTION ( 'NONE',  ( -0.0000000000000000000, -1.000000000000000000, -0.0000000000000000000 ) ) ;
#593 = VERTEX_POINT ( 'NONE', #111 ) ;
#594 = EDGE_CURVE ( 'NONE', #593, #380, #587, .T. ) ;
#595 = COLOUR_RGB ( '',1.000000000000000000, 0.8078431372549019773, 0.4980392156862745168 ) ;
#596 = CYLINDRICAL_SURFACE ( 'NONE', #614, 0.02999999999999999889 ) ;
#597 = EDGE_LOOP ( 'NONE', ( #615, #435, #74, #604 ) ) ;
#598 = PLANE ( 'NONE',  #147 ) ;
#599 = VERTEX_POINT ( 'NONE', #176 ) ;
#600 = CARTESIAN_POINT ( 'NONE',  ( 0.2999999999999999889, 0.2699999999999999623, -0.5500000000000000444 ) ) ;
#601 = MECHANICAL_DESIGN_GEOMETRIC_PRESENTATION_REPRESENTATION (  '', ( #259 ), #766 ) ;
#602 = CARTESIAN_POINT ( 'NONE',  ( 0.0000000000000000000, 0.2399999999999999911, 0.0000000000000000000 ) ) ;
#603 = ADVANCED_FACE ( 'NONE', ( #217 ), #521, .F. ) ;
#604 = ORIENTED_EDGE ( 'NONE', *, *, #705, .F. ) ;
#605 = DIRECTION ( 'NONE',  ( -1.084202172485504434E-16, -0.0000000000000000000, -1.000000000000000000 ) ) ;
#606 =( NAMED_UNIT ( * ) PLANE_ANGLE_UNIT ( ) SI_UNIT ( $, .RADIAN. ) );
#607 = PRODUCT_DEFINITION_FORMATION_WITH_SPECIFIED_SOURCE ( 'ANY', '', #274, .NOT_KNOWN. ) ;
#608 = LINE ( 'NONE', #488, #79 ) ;
#609 = EDGE_LOOP ( 'NONE', ( #130, #193, #3, #528, #142, #438, #309, #409 ) ) ;
#610 = SURFACE_STYLE_FILL_AREA ( #354 ) ;
#611 = DIRECTION ( 'NONE',  ( 1.219727444046192488E-16, 0.0000000000000000000, 1.000000000000000000 ) ) ;
#612 = ORIENTED_EDGE ( 'NONE', *, *, #721, .T. ) ;
#613 = ADVANCED_BREP_SHAPE_REPRESENTATION ( 'SOD993', ( #525, #306 ), #305 ) ;
#614 = AXIS2_PLACEMENT_3D ( 'NONE', #244, #189, #185 ) ;
#615 = ORIENTED_EDGE ( 'NONE', *, *, #75, .F. ) ;
#616 = ORIENTED_EDGE ( 'NONE', *, *, #4, .T. ) ;
#617 = EDGE_CURVE ( 'NONE', #761, #415, #690, .T. ) ;
#618 = PRESENTATION_LAYER_ASSIGNMENT (  '', '', ( #501 ) ) ;
#619 = EDGE_LOOP ( 'NONE', ( #669, #642, #546, #80 ) ) ;
#620 = EDGE_CURVE ( 'NONE', #708, #593, #633, .T. ) ;
#621 = AXIS2_PLACEMENT_3D ( 'NONE', #442, #91, #10 ) ;
#622 = VECTOR ( 'NONE', #641, 1000.000000000000000 ) ;
#623 = FACE_OUTER_BOUND ( 'NONE', #294, .T. ) ;
#624 = CARTESIAN_POINT ( 'NONE',  ( 0.05000000000000002359, 0.2399999999999999911, -0.05000000000000000278 ) ) ;
#625 = VECTOR ( 'NONE', #386, 1000.000000000000000 ) ;
#626 =( GEOMETRIC_REPRESENTATION_CONTEXT ( 3 ) GLOBAL_UNCERTAINTY_ASSIGNED_CONTEXT ( ( #289 ) ) GLOBAL_UNIT_ASSIGNED_CONTEXT ( ( #82, #606, #670 ) ) REPRESENTATION_CONTEXT ( 'NONE', 'WORKASPACE' ) );
#627 = SURFACE_STYLE_FILL_AREA ( #389 ) ;
#628 = DIRECTION ( 'NONE',  ( -0.0000000000000000000, -1.000000000000000000, -0.0000000000000000000 ) ) ;
#629 = CARTESIAN_POINT ( 'NONE',  ( 0.04999999999999996114, 0.2699999999999999623, -0.5500000000000000444 ) ) ;
#630 = DIRECTION ( 'NONE',  ( -0.0000000000000000000, -1.000000000000000000, -0.0000000000000000000 ) ) ;
#631 = ADVANCED_FACE ( 'NONE', ( #562 ), #172, .F. ) ;
#632 = SURFACE_STYLE_USAGE ( .BOTH. , #738 ) ;
#633 = LINE ( 'NONE', #107, #293 ) ;
#634 = CARTESIAN_POINT ( 'NONE',  ( 0.2999999999999999889, 0.2699999999999999623, -0.5500000000000000444 ) ) ;
#635 = CARTESIAN_POINT ( 'NONE',  ( 0.2344783021242412002, 0.0000000000000000000, -0.5999999999999999778 ) ) ;
#636 = ORIENTED_EDGE ( 'NONE', *, *, #489, .F. ) ;
#637 = VECTOR ( 'NONE', #190, 1000.000000000000000 ) ;
#638 = VECTOR ( 'NONE', #268, 1000.000000000000000 ) ;
#639 = MECHANICAL_DESIGN_GEOMETRIC_PRESENTATION_REPRESENTATION (  '', ( #200 ), #733 ) ;
#640 = SURFACE_SIDE_STYLE ('',( #395 ) ) ;
#641 = DIRECTION ( 'NONE',  ( -2.168404344971008868E-16, -0.0000000000000000000, -1.000000000000000000 ) ) ;
#642 = ORIENTED_EDGE ( 'NONE', *, *, #694, .F. ) ;
#643 = UNCERTAINTY_MEASURE_WITH_UNIT (LENGTH_MEASURE( 1.000000000000000082E-05 ), #400, 'distance_accuracy_value', 'NONE');
#644 =( NAMED_UNIT ( * ) SI_UNIT ( $, .STERADIAN. ) SOLID_ANGLE_UNIT ( ) );
#645 = CARTESIAN_POINT ( 'NONE',  ( 0.04999999999999996114, 0.2699999999999999623, -0.5500000000000000444 ) ) ;
#646 = CARTESIAN_POINT ( 'NONE',  ( 0.7000000000000000666, 0.2399999999999999911, -0.05000000000000002359 ) ) ;
#647 = ORIENTED_EDGE ( 'NONE', *, *, #106, .F. ) ;
#648 = CARTESIAN_POINT ( 'NONE',  ( 1.000000000000000000, 0.2399999999999999911, 0.0000000000000000000 ) ) ;
#649 = LINE ( 'NONE', #759, #327 ) ;
#650 = PRESENTATION_STYLE_ASSIGNMENT (( #538 ) ) ;
#651 = ORIENTED_EDGE ( 'NONE', *, *, #544, .T. ) ;
#652 = ADVANCED_FACE ( 'NONE', ( #578 ), #103, .F. ) ;
#653 = EDGE_CURVE ( 'NONE', #734, #399, #325, .T. ) ;
#654 = AXIS2_PLACEMENT_3D ( 'NONE', #298, #536, #769 ) ;
#655 = PRESENTATION_LAYER_ASSIGNMENT (  '', '', ( #51 ) ) ;
#656 = FILL_AREA_STYLE_COLOUR ( '', #16 ) ;
#657 = ORIENTED_EDGE ( 'NONE', *, *, #155, .F. ) ;
#658 = VECTOR ( 'NONE', #740, 1000.000000000000000 ) ;
#659 = CARTESIAN_POINT ( 'NONE',  ( 0.9499999999999999556, 0.2699999999999999623, -0.5500000000000000444 ) ) ;
#660 = FILL_AREA_STYLE_COLOUR ( '', #573 ) ;
#661 = ADVANCED_FACE ( 'NONE', ( #385 ), #566, .T. ) ;
#662 = SURFACE_STYLE_FILL_AREA ( #421 ) ;
#663 = DIRECTION ( 'NONE',  ( -0.0000000000000000000, 1.000000000000000000, 0.0000000000000000000 ) ) ;
#664 = DIRECTION ( 'NONE',  ( -1.897353801849632760E-16, 0.0000000000000000000, -1.000000000000000000 ) ) ;
#665 = DIRECTION ( 'NONE',  ( -1.000000000000000000, -0.0000000000000000000, -0.0000000000000000000 ) ) ;
#666 =( NAMED_UNIT ( * ) SI_UNIT ( $, .STERADIAN. ) SOLID_ANGLE_UNIT ( ) );
#667 = VECTOR ( 'NONE', #592, 1000.000000000000000 ) ;
#668 = EDGE_LOOP ( 'NONE', ( #70, #85, #393, #714 ) ) ;
#669 = ORIENTED_EDGE ( 'NONE', *, *, #594, .T. ) ;
#670 =( NAMED_UNIT ( * ) SI_UNIT ( $, .STERADIAN. ) SOLID_ANGLE_UNIT ( ) );
#671 = COLOUR_RGB ( '',0.3882352941176470673, 0.4000000000000000222, 0.8588235294117646523 ) ;
#672 = ORIENTED_EDGE ( 'NONE', *, *, #439, .T. ) ;
#673 = VERTEX_POINT ( 'NONE', #624 ) ;
#674 = EDGE_CURVE ( 'NONE', #399, #593, #36, .T. ) ;
#675 = ORIENTED_EDGE ( 'NONE', *, *, #721, .F. ) ;
#676 = ORIENTED_EDGE ( 'NONE', *, *, #143, .T. ) ;
#677 =( NAMED_UNIT ( * ) PLANE_ANGLE_UNIT ( ) SI_UNIT ( $, .RADIAN. ) );
#678 = COLOUR_RGB ( '',1.000000000000000000, 0.8078431372549019773, 0.4980392156862745168 ) ;
#679 = EDGE_LOOP ( 'NONE', ( #9, #468, #547, #377 ) ) ;
#680 = CARTESIAN_POINT ( 'NONE',  ( 1.000000000000000000, 0.2399999999999999911, 0.0000000000000000000 ) ) ;
#681 = ADVANCED_FACE ( 'NONE', ( #275 ), #516, .F. ) ;
#682 = CARTESIAN_POINT ( 'NONE',  ( 1.000000000000000000, 0.0000000000000000000, 0.0000000000000000000 ) ) ;
#683 = PRESENTATION_STYLE_ASSIGNMENT (( #632 ) ) ;
#684 =( NAMED_UNIT ( * ) SI_UNIT ( $, .STERADIAN. ) SOLID_ANGLE_UNIT ( ) );
#685 = LINE ( 'NONE', #221, #479 ) ;
#686 = FACE_OUTER_BOUND ( 'NONE', #498, .T. ) ;
#687 = VECTOR ( 'NONE', #561, 1000.000000000000000 ) ;
#688 = AXIS2_PLACEMENT_3D ( 'NONE', #446, #396, #527 ) ;
#689 = DIRECTION ( 'NONE',  ( 1.000000000000000000, 0.0000000000000000000, 0.0000000000000000000 ) ) ;
#690 = LINE ( 'NONE', #206, #625 ) ;
#691 = LINE ( 'NONE', #634, #491 ) ;
#692 = CARTESIAN_POINT ( 'NONE',  ( 0.0000000000000000000, 0.2399999999999999911, 0.0000000000000000000 ) ) ;
#693 = PRESENTATION_LAYER_ASSIGNMENT (  '', '', ( #716 ) ) ;
#694 = EDGE_CURVE ( 'NONE', #321, #380, #332, .T. ) ;
#695 =( LENGTH_UNIT ( ) NAMED_UNIT ( * ) SI_UNIT ( .MILLI., .METRE. ) );
#696 = CARTESIAN_POINT ( 'NONE',  ( 0.2999999999999999889, 0.2399999999999999911, -0.5500000000000000444 ) ) ;
#697 = CARTESIAN_POINT ( 'NONE',  ( 0.2644783021242412269, 0.0000000000000000000, 0.0000000000000000000 ) ) ;
#698 = DIRECTION ( 'NONE',  ( -1.000000000000000000, 0.0000000000000000000, 2.168404344971008868E-16 ) ) ;
#699 = CARTESIAN_POINT ( 'NONE',  ( 0.2044783021242412013, 0.0000000000000000000, -0.5999999999999999778 ) ) ;
#700 = ORIENTED_EDGE ( 'NONE', *, *, #416, .F. ) ;
#701 = AXIS2_PLACEMENT_3D ( 'NONE', #69, #359, #127 ) ;
#702 = EDGE_LOOP ( 'NONE', ( #195, #180, #434, #725 ) ) ;
#703 = UNCERTAINTY_MEASURE_WITH_UNIT (LENGTH_MEASURE( 1.000000000000000082E-05 ), #750, 'distance_accuracy_value', 'NONE');
#704 = LINE ( 'NONE', #648, #213 ) ;
#705 = EDGE_CURVE ( 'NONE', #556, #7, #214, .T. ) ;
#706 = SURFACE_STYLE_FILL_AREA ( #300 ) ;
#707 = ORIENTED_EDGE ( 'NONE', *, *, #402, .T. ) ;
#708 = VERTEX_POINT ( 'NONE', #530 ) ;
#709 = AXIS2_PLACEMENT_3D ( 'NONE', #424, #664, #238 ) ;
#710 = AXIS2_PLACEMENT_3D ( 'NONE', #78, #771, #724 ) ;
#711 = CARTESIAN_POINT ( 'NONE',  ( 0.05000000000000002359, 0.2699999999999999623, -0.05000000000000000278 ) ) ;
#712 = CARTESIAN_POINT ( 'NONE',  ( 0.05000000000000002359, 0.2399999999999999911, -0.05000000000000000278 ) ) ;
#713 = DIRECTION ( 'NONE',  ( 1.000000000000000000, 0.0000000000000000000, 0.0000000000000000000 ) ) ;
#714 = ORIENTED_EDGE ( 'NONE', *, *, #674, .F. ) ;
#715 = EDGE_CURVE ( 'NONE', #496, #550, #375, .T. ) ;
#716 = STYLED_ITEM ( 'NONE', ( #280 ), #603 ) ;
#717 = SURFACE_SIDE_STYLE ('',( #662 ) ) ;
#718 = CARTESIAN_POINT ( 'NONE',  ( 0.0000000000000000000, 0.2699999999999999623, 0.0000000000000000000 ) ) ;
#719 = FILL_AREA_STYLE ('',( #660 ) ) ;
#720 = DIRECTION ( 'NONE',  ( -1.000000000000000000, 0.0000000000000000000, 1.084202172485504434E-16 ) ) ;
#721 = EDGE_CURVE ( 'NONE', #673, #138, #233, .T. ) ;
#722 = CARTESIAN_POINT ( 'NONE',  ( 0.6999999999999999556, 0.2699999999999999623, -0.5500000000000000444 ) ) ;
#723 = VECTOR ( 'NONE', #346, 1000.000000000000000 ) ;
#724 = DIRECTION ( 'NONE',  ( -1.000000000000000000, 0.0000000000000000000, 0.0000000000000000000 ) ) ;
#725 = ORIENTED_EDGE ( 'NONE', *, *, #577, .T. ) ;
#726 = AXIS2_PLACEMENT_3D ( 'NONE', #526, #61, #295 ) ;
#727 = EDGE_CURVE ( 'NONE', #248, #235, #649, .T. ) ;
#728 = ORIENTED_EDGE ( 'NONE', *, *, #52, .F. ) ;
#729 = VERTEX_POINT ( 'NONE', #478 ) ;
#730 = ORIENTED_EDGE ( 'NONE', *, *, #290, .F. ) ;
#731 = PRESENTATION_STYLE_ASSIGNMENT (( #212 ) ) ;
#732 = AXIS2_PLACEMENT_3D ( 'NONE', #25, #173, #404 ) ;
#733 =( GEOMETRIC_REPRESENTATION_CONTEXT ( 3 ) GLOBAL_UNCERTAINTY_ASSIGNED_CONTEXT ( ( #115 ) ) GLOBAL_UNIT_ASSIGNED_CONTEXT ( ( #257, #677, #378 ) ) REPRESENTATION_CONTEXT ( 'NONE', 'WORKASPACE' ) );
#734 = VERTEX_POINT ( 'NONE', #533 ) ;
#735 = ADVANCED_FACE ( 'NONE', ( #411 ), #243, .T. ) ;
#736 = DIRECTION ( 'NONE',  ( 0.0000000000000000000, 0.0000000000000000000, -1.000000000000000000 ) ) ;
#737 = PLANE ( 'NONE',  #373 ) ;
#738 = SURFACE_SIDE_STYLE ('',( #627 ) ) ;
#739 = STYLED_ITEM ( 'NONE', ( #211 ), #87 ) ;
#740 = DIRECTION ( 'NONE',  ( 1.000000000000000000, 0.0000000000000000000, -1.897353801849632760E-16 ) ) ;
#741 = SURFACE_STYLE_USAGE ( .BOTH. , #539 ) ;
#742 = VECTOR ( 'NONE', #129, 1000.000000000000000 ) ;
#743 = SURFACE_SIDE_STYLE ('',( #270 ) ) ;
#744 = CARTESIAN_POINT ( 'NONE',  ( 0.0000000000000000000, 0.0000000000000000000, 0.0000000000000000000 ) ) ;
#745 = FACE_OUTER_BOUND ( 'NONE', #702, .T. ) ;
#746 = CARTESIAN_POINT ( 'NONE',  ( 0.0000000000000000000, 0.2399999999999999911, 0.0000000000000000000 ) ) ;
#747 = CARTESIAN_POINT ( 'NONE',  ( 0.0000000000000000000, 0.2399999999999999911, -0.5999999999999999778 ) ) ;
#748 = PRESENTATION_STYLE_ASSIGNMENT (( #459 ) ) ;
#749 = ORIENTED_EDGE ( 'NONE', *, *, #727, .F. ) ;
#750 =( LENGTH_UNIT ( ) NAMED_UNIT ( * ) SI_UNIT ( .MILLI., .METRE. ) );
#751 =( NAMED_UNIT ( * ) PLANE_ANGLE_UNIT ( ) SI_UNIT ( $, .RADIAN. ) );
#752 = ORIENTED_EDGE ( 'NONE', *, *, #482, .T. ) ;
#753 = VECTOR ( 'NONE', #366, 1000.000000000000000 ) ;
#754 = EDGE_CURVE ( 'NONE', #357, #708, #541, .T. ) ;
#755 = CARTESIAN_POINT ( 'NONE',  ( 0.0000000000000000000, 0.0000000000000000000, 0.0000000000000000000 ) ) ;
#756 = ORIENTED_EDGE ( 'NONE', *, *, #431, .T. ) ;
#757 = PRODUCT_DEFINITION_CONTEXT ( 'detailed design', #71, 'design' ) ;
#758 = AXIS2_PLACEMENT_3D ( 'NONE', #744, #152, #96 ) ;
#759 = CARTESIAN_POINT ( 'NONE',  ( 0.1644783021242412213, 0.0000000000000000000, 0.0000000000000000000 ) ) ;
#760 = CARTESIAN_POINT ( 'NONE',  ( 0.05000000000000002359, 0.2699999999999999623, -0.05000000000000000278 ) ) ;
#761 = VERTEX_POINT ( 'NONE', #227 ) ;
#762 =( NAMED_UNIT ( * ) PLANE_ANGLE_UNIT ( ) SI_UNIT ( $, .RADIAN. ) );
#763 = CARTESIAN_POINT ( 'NONE',  ( 1.000000000000000000, 0.0000000000000000000, -0.5999999999999999778 ) ) ;
#764 = ADVANCED_FACE ( 'NONE', ( #57 ), #598, .T. ) ;
#765 = EDGE_LOOP ( 'NONE', ( #519, #105, #752, #616 ) ) ;
#766 =( GEOMETRIC_REPRESENTATION_CONTEXT ( 3 ) GLOBAL_UNCERTAINTY_ASSIGNED_CONTEXT ( ( #225 ) ) GLOBAL_UNIT_ASSIGNED_CONTEXT ( ( #417, #762, #666 ) ) REPRESENTATION_CONTEXT ( 'NONE', 'WORKASPACE' ) );
#767 = LINE ( 'NONE', #711, #182 ) ;
#768 = EDGE_LOOP ( 'NONE', ( #472, #258, #534, #194 ) ) ;
#769 = DIRECTION ( 'NONE',  ( 0.0000000000000000000, -0.0000000000000000000, -1.000000000000000000 ) ) ;
#770 =( NAMED_UNIT ( * ) SI_UNIT ( $, .STERADIAN. ) SOLID_ANGLE_UNIT ( ) );
#771 = DIRECTION ( 'NONE',  ( 0.0000000000000000000, 0.0000000000000000000, -1.000000000000000000 ) ) ;
#772 = DIRECTION ( 'NONE',  ( 0.0000000000000000000, 0.0000000000000000000, 1.000000000000000000 ) ) ;
ENDSEC;
END-ISO-10303-21;
