ISO-10303-21;
HEADER;
/* Generated by software containing ST-Developer
 * from STEP Tools, Inc. (www.steptools.com) 
 */
/* OPTION: strings as raw bytes, not using required /X/ escapes */

FILE_DESCRIPTION(
/* description */ ('Unknown'),
/* implementation_level */ '2;1');

FILE_NAME(
/* name */ 'SP0201B-ULC-01UTG',
/* time_stamp */ '2023-03-06T10:47:29+02:00',
/* author */ ('Unknown'),
/* organization */ ('Unknown'),
/* preprocessor_version */ 'ST-DEVELOPER v18.102',
/* originating_system */ 'Solid Edge',
/* authorisation */ 'Unknown');

FILE_SCHEMA (('AUTOMOTIVE_DESIGN {1 0 10303 214 3 1 1}'));
ENDSEC;

DATA;
#10=PROPERTY_DEFINITION_REPRESENTATION(#14,#12);
#11=PROPERTY_DEFINITION_REPRESENTATION(#15,#13);
#12=REPRESENTATION('',(#16),#2285);
#13=REPRESENTATION('',(#17),#2285);
#14=PROPERTY_DEFINITION('pmi validation property','',#2290);
#15=PROPERTY_DEFINITION('pmi validation property','',#2290);
#16=VALUE_REPRESENTATION_ITEM('number of annotations',COUNT_MEASURE(0.));
#17=VALUE_REPRESENTATION_ITEM('number of views',COUNT_MEASURE(0.));
#18=SHAPE_REPRESENTATION_RELATIONSHIP('','',#1579,#19);
#19=ADVANCED_BREP_SHAPE_REPRESENTATION('',(#1577),#2285);
#20=SPHERICAL_SURFACE('',#1631,0.01);
#21=SPHERICAL_SURFACE('',#1634,0.01);
#22=SPHERICAL_SURFACE('',#1651,0.01);
#23=SPHERICAL_SURFACE('',#1653,0.01);
#24=SPHERICAL_SURFACE('',#1655,0.01);
#25=SPHERICAL_SURFACE('',#1657,0.01);
#26=SPHERICAL_SURFACE('',#1667,0.01);
#27=SPHERICAL_SURFACE('',#1669,0.01);
#28=CIRCLE('',#1629,0.01);
#29=CIRCLE('',#1630,0.01);
#30=CIRCLE('',#1632,0.01);
#31=CIRCLE('',#1633,0.01);
#32=CIRCLE('',#1635,0.01);
#33=CIRCLE('',#1636,0.01);
#34=CIRCLE('',#1638,0.01);
#35=CIRCLE('',#1640,0.01);
#36=CIRCLE('',#1642,0.01);
#37=CIRCLE('',#1643,0.01);
#38=CIRCLE('',#1645,0.01);
#39=CIRCLE('',#1647,0.01);
#40=CIRCLE('',#1649,0.01);
#41=CIRCLE('',#1650,0.01);
#42=CIRCLE('',#1652,0.01);
#43=CIRCLE('',#1654,0.01);
#44=CIRCLE('',#1656,0.01);
#45=CIRCLE('',#1658,0.01);
#46=CIRCLE('',#1660,0.01);
#47=CIRCLE('',#1662,0.01);
#48=CIRCLE('',#1664,0.01);
#49=CIRCLE('',#1666,0.01);
#50=CIRCLE('',#1668,0.01);
#51=CIRCLE('',#1670,0.01);
#52=CYLINDRICAL_SURFACE('',#1628,0.01);
#53=CYLINDRICAL_SURFACE('',#1637,0.01);
#54=CYLINDRICAL_SURFACE('',#1639,0.01);
#55=CYLINDRICAL_SURFACE('',#1641,0.01);
#56=CYLINDRICAL_SURFACE('',#1644,0.01);
#57=CYLINDRICAL_SURFACE('',#1646,0.01);
#58=CYLINDRICAL_SURFACE('',#1648,0.01);
#59=CYLINDRICAL_SURFACE('',#1659,0.01);
#60=CYLINDRICAL_SURFACE('',#1661,0.01);
#61=CYLINDRICAL_SURFACE('',#1663,0.01);
#62=CYLINDRICAL_SURFACE('',#1665,0.01);
#63=CYLINDRICAL_SURFACE('',#1671,0.01);
#64=ORIENTED_EDGE('',*,*,#358,.T.);
#65=ORIENTED_EDGE('',*,*,#359,.T.);
#66=ORIENTED_EDGE('',*,*,#360,.T.);
#67=ORIENTED_EDGE('',*,*,#361,.T.);
#68=ORIENTED_EDGE('',*,*,#362,.T.);
#69=ORIENTED_EDGE('',*,*,#363,.T.);
#70=ORIENTED_EDGE('',*,*,#364,.T.);
#71=ORIENTED_EDGE('',*,*,#365,.T.);
#72=ORIENTED_EDGE('',*,*,#366,.T.);
#73=ORIENTED_EDGE('',*,*,#367,.T.);
#74=ORIENTED_EDGE('',*,*,#368,.T.);
#75=ORIENTED_EDGE('',*,*,#369,.T.);
#76=ORIENTED_EDGE('',*,*,#370,.F.);
#77=ORIENTED_EDGE('',*,*,#371,.F.);
#78=ORIENTED_EDGE('',*,*,#372,.F.);
#79=ORIENTED_EDGE('',*,*,#373,.F.);
#80=ORIENTED_EDGE('',*,*,#374,.F.);
#81=ORIENTED_EDGE('',*,*,#375,.F.);
#82=ORIENTED_EDGE('',*,*,#376,.F.);
#83=ORIENTED_EDGE('',*,*,#377,.F.);
#84=ORIENTED_EDGE('',*,*,#378,.F.);
#85=ORIENTED_EDGE('',*,*,#379,.F.);
#86=ORIENTED_EDGE('',*,*,#380,.F.);
#87=ORIENTED_EDGE('',*,*,#381,.F.);
#88=ORIENTED_EDGE('',*,*,#382,.T.);
#89=ORIENTED_EDGE('',*,*,#383,.F.);
#90=ORIENTED_EDGE('',*,*,#359,.F.);
#91=ORIENTED_EDGE('',*,*,#384,.T.);
#92=ORIENTED_EDGE('',*,*,#385,.T.);
#93=ORIENTED_EDGE('',*,*,#386,.F.);
#94=ORIENTED_EDGE('',*,*,#360,.F.);
#95=ORIENTED_EDGE('',*,*,#383,.T.);
#96=ORIENTED_EDGE('',*,*,#387,.T.);
#97=ORIENTED_EDGE('',*,*,#388,.F.);
#98=ORIENTED_EDGE('',*,*,#361,.F.);
#99=ORIENTED_EDGE('',*,*,#386,.T.);
#100=ORIENTED_EDGE('',*,*,#389,.T.);
#101=ORIENTED_EDGE('',*,*,#384,.F.);
#102=ORIENTED_EDGE('',*,*,#358,.F.);
#103=ORIENTED_EDGE('',*,*,#388,.T.);
#104=ORIENTED_EDGE('',*,*,#390,.T.);
#105=ORIENTED_EDGE('',*,*,#391,.T.);
#106=ORIENTED_EDGE('',*,*,#392,.T.);
#107=ORIENTED_EDGE('',*,*,#393,.T.);
#108=ORIENTED_EDGE('',*,*,#394,.T.);
#109=ORIENTED_EDGE('',*,*,#395,.T.);
#110=ORIENTED_EDGE('',*,*,#396,.F.);
#111=ORIENTED_EDGE('',*,*,#363,.F.);
#112=ORIENTED_EDGE('',*,*,#397,.T.);
#113=ORIENTED_EDGE('',*,*,#398,.T.);
#114=ORIENTED_EDGE('',*,*,#399,.F.);
#115=ORIENTED_EDGE('',*,*,#364,.F.);
#116=ORIENTED_EDGE('',*,*,#396,.T.);
#117=ORIENTED_EDGE('',*,*,#400,.T.);
#118=ORIENTED_EDGE('',*,*,#401,.F.);
#119=ORIENTED_EDGE('',*,*,#365,.F.);
#120=ORIENTED_EDGE('',*,*,#399,.T.);
#121=ORIENTED_EDGE('',*,*,#402,.T.);
#122=ORIENTED_EDGE('',*,*,#397,.F.);
#123=ORIENTED_EDGE('',*,*,#362,.F.);
#124=ORIENTED_EDGE('',*,*,#401,.T.);
#125=ORIENTED_EDGE('',*,*,#403,.T.);
#126=ORIENTED_EDGE('',*,*,#404,.F.);
#127=ORIENTED_EDGE('',*,*,#367,.F.);
#128=ORIENTED_EDGE('',*,*,#405,.T.);
#129=ORIENTED_EDGE('',*,*,#406,.T.);
#130=ORIENTED_EDGE('',*,*,#407,.F.);
#131=ORIENTED_EDGE('',*,*,#368,.F.);
#132=ORIENTED_EDGE('',*,*,#404,.T.);
#133=ORIENTED_EDGE('',*,*,#408,.T.);
#134=ORIENTED_EDGE('',*,*,#409,.F.);
#135=ORIENTED_EDGE('',*,*,#369,.F.);
#136=ORIENTED_EDGE('',*,*,#407,.T.);
#137=ORIENTED_EDGE('',*,*,#410,.T.);
#138=ORIENTED_EDGE('',*,*,#405,.F.);
#139=ORIENTED_EDGE('',*,*,#366,.F.);
#140=ORIENTED_EDGE('',*,*,#409,.T.);
#141=ORIENTED_EDGE('',*,*,#411,.F.);
#142=ORIENTED_EDGE('',*,*,#412,.F.);
#143=ORIENTED_EDGE('',*,*,#372,.T.);
#144=ORIENTED_EDGE('',*,*,#413,.T.);
#145=ORIENTED_EDGE('',*,*,#414,.F.);
#146=ORIENTED_EDGE('',*,*,#415,.F.);
#147=ORIENTED_EDGE('',*,*,#373,.T.);
#148=ORIENTED_EDGE('',*,*,#412,.T.);
#149=ORIENTED_EDGE('',*,*,#416,.F.);
#150=ORIENTED_EDGE('',*,*,#417,.F.);
#151=ORIENTED_EDGE('',*,*,#370,.T.);
#152=ORIENTED_EDGE('',*,*,#415,.T.);
#153=ORIENTED_EDGE('',*,*,#418,.F.);
#154=ORIENTED_EDGE('',*,*,#413,.F.);
#155=ORIENTED_EDGE('',*,*,#371,.T.);
#156=ORIENTED_EDGE('',*,*,#417,.T.);
#157=ORIENTED_EDGE('',*,*,#419,.F.);
#158=ORIENTED_EDGE('',*,*,#420,.F.);
#159=ORIENTED_EDGE('',*,*,#376,.T.);
#160=ORIENTED_EDGE('',*,*,#421,.T.);
#161=ORIENTED_EDGE('',*,*,#422,.F.);
#162=ORIENTED_EDGE('',*,*,#423,.F.);
#163=ORIENTED_EDGE('',*,*,#377,.T.);
#164=ORIENTED_EDGE('',*,*,#420,.T.);
#165=ORIENTED_EDGE('',*,*,#424,.F.);
#166=ORIENTED_EDGE('',*,*,#425,.F.);
#167=ORIENTED_EDGE('',*,*,#374,.T.);
#168=ORIENTED_EDGE('',*,*,#423,.T.);
#169=ORIENTED_EDGE('',*,*,#426,.F.);
#170=ORIENTED_EDGE('',*,*,#421,.F.);
#171=ORIENTED_EDGE('',*,*,#375,.T.);
#172=ORIENTED_EDGE('',*,*,#425,.T.);
#173=ORIENTED_EDGE('',*,*,#380,.T.);
#174=ORIENTED_EDGE('',*,*,#427,.F.);
#175=ORIENTED_EDGE('',*,*,#428,.F.);
#176=ORIENTED_EDGE('',*,*,#429,.T.);
#177=ORIENTED_EDGE('',*,*,#381,.T.);
#178=ORIENTED_EDGE('',*,*,#429,.F.);
#179=ORIENTED_EDGE('',*,*,#430,.F.);
#180=ORIENTED_EDGE('',*,*,#431,.T.);
#181=ORIENTED_EDGE('',*,*,#378,.T.);
#182=ORIENTED_EDGE('',*,*,#431,.F.);
#183=ORIENTED_EDGE('',*,*,#432,.F.);
#184=ORIENTED_EDGE('',*,*,#433,.T.);
#185=ORIENTED_EDGE('',*,*,#379,.T.);
#186=ORIENTED_EDGE('',*,*,#433,.F.);
#187=ORIENTED_EDGE('',*,*,#434,.F.);
#188=ORIENTED_EDGE('',*,*,#427,.T.);
#189=ORIENTED_EDGE('',*,*,#435,.T.);
#190=ORIENTED_EDGE('',*,*,#436,.T.);
#191=ORIENTED_EDGE('',*,*,#437,.T.);
#192=ORIENTED_EDGE('',*,*,#438,.T.);
#193=ORIENTED_EDGE('',*,*,#389,.F.);
#194=ORIENTED_EDGE('',*,*,#387,.F.);
#195=ORIENTED_EDGE('',*,*,#385,.F.);
#196=ORIENTED_EDGE('',*,*,#382,.F.);
#197=ORIENTED_EDGE('',*,*,#392,.F.);
#198=ORIENTED_EDGE('',*,*,#439,.F.);
#199=ORIENTED_EDGE('',*,*,#440,.T.);
#200=ORIENTED_EDGE('',*,*,#441,.T.);
#201=ORIENTED_EDGE('',*,*,#393,.F.);
#202=ORIENTED_EDGE('',*,*,#441,.F.);
#203=ORIENTED_EDGE('',*,*,#442,.T.);
#204=ORIENTED_EDGE('',*,*,#443,.T.);
#205=ORIENTED_EDGE('',*,*,#394,.F.);
#206=ORIENTED_EDGE('',*,*,#443,.F.);
#207=ORIENTED_EDGE('',*,*,#444,.T.);
#208=ORIENTED_EDGE('',*,*,#445,.T.);
#209=ORIENTED_EDGE('',*,*,#390,.F.);
#210=ORIENTED_EDGE('',*,*,#445,.F.);
#211=ORIENTED_EDGE('',*,*,#446,.T.);
#212=ORIENTED_EDGE('',*,*,#447,.T.);
#213=ORIENTED_EDGE('',*,*,#391,.F.);
#214=ORIENTED_EDGE('',*,*,#447,.F.);
#215=ORIENTED_EDGE('',*,*,#448,.T.);
#216=ORIENTED_EDGE('',*,*,#439,.T.);
#217=ORIENTED_EDGE('',*,*,#449,.T.);
#218=ORIENTED_EDGE('',*,*,#450,.T.);
#219=ORIENTED_EDGE('',*,*,#451,.T.);
#220=ORIENTED_EDGE('',*,*,#452,.T.);
#221=ORIENTED_EDGE('',*,*,#410,.F.);
#222=ORIENTED_EDGE('',*,*,#408,.F.);
#223=ORIENTED_EDGE('',*,*,#406,.F.);
#224=ORIENTED_EDGE('',*,*,#403,.F.);
#225=ORIENTED_EDGE('',*,*,#402,.F.);
#226=ORIENTED_EDGE('',*,*,#400,.F.);
#227=ORIENTED_EDGE('',*,*,#398,.F.);
#228=ORIENTED_EDGE('',*,*,#395,.F.);
#229=ORIENTED_EDGE('',*,*,#453,.T.);
#230=ORIENTED_EDGE('',*,*,#454,.T.);
#231=ORIENTED_EDGE('',*,*,#455,.T.);
#232=ORIENTED_EDGE('',*,*,#456,.T.);
#233=ORIENTED_EDGE('',*,*,#457,.T.);
#234=ORIENTED_EDGE('',*,*,#458,.T.);
#235=ORIENTED_EDGE('',*,*,#459,.T.);
#236=ORIENTED_EDGE('',*,*,#460,.T.);
#237=ORIENTED_EDGE('',*,*,#426,.T.);
#238=ORIENTED_EDGE('',*,*,#424,.T.);
#239=ORIENTED_EDGE('',*,*,#422,.T.);
#240=ORIENTED_EDGE('',*,*,#419,.T.);
#241=ORIENTED_EDGE('',*,*,#418,.T.);
#242=ORIENTED_EDGE('',*,*,#416,.T.);
#243=ORIENTED_EDGE('',*,*,#414,.T.);
#244=ORIENTED_EDGE('',*,*,#411,.T.);
#245=ORIENTED_EDGE('',*,*,#461,.T.);
#246=ORIENTED_EDGE('',*,*,#462,.T.);
#247=ORIENTED_EDGE('',*,*,#463,.T.);
#248=ORIENTED_EDGE('',*,*,#464,.T.);
#249=ORIENTED_EDGE('',*,*,#448,.F.);
#250=ORIENTED_EDGE('',*,*,#446,.F.);
#251=ORIENTED_EDGE('',*,*,#444,.F.);
#252=ORIENTED_EDGE('',*,*,#442,.F.);
#253=ORIENTED_EDGE('',*,*,#440,.F.);
#254=ORIENTED_EDGE('',*,*,#434,.T.);
#255=ORIENTED_EDGE('',*,*,#432,.T.);
#256=ORIENTED_EDGE('',*,*,#430,.T.);
#257=ORIENTED_EDGE('',*,*,#428,.T.);
#258=ORIENTED_EDGE('',*,*,#465,.T.);
#259=ORIENTED_EDGE('',*,*,#466,.T.);
#260=ORIENTED_EDGE('',*,*,#467,.T.);
#261=ORIENTED_EDGE('',*,*,#468,.T.);
#262=ORIENTED_EDGE('',*,*,#469,.T.);
#263=ORIENTED_EDGE('',*,*,#470,.T.);
#264=ORIENTED_EDGE('',*,*,#471,.T.);
#265=ORIENTED_EDGE('',*,*,#472,.T.);
#266=ORIENTED_EDGE('',*,*,#470,.F.);
#267=ORIENTED_EDGE('',*,*,#473,.F.);
#268=ORIENTED_EDGE('',*,*,#474,.T.);
#269=ORIENTED_EDGE('',*,*,#475,.T.);
#270=ORIENTED_EDGE('',*,*,#471,.F.);
#271=ORIENTED_EDGE('',*,*,#475,.F.);
#272=ORIENTED_EDGE('',*,*,#476,.T.);
#273=ORIENTED_EDGE('',*,*,#477,.T.);
#274=ORIENTED_EDGE('',*,*,#472,.F.);
#275=ORIENTED_EDGE('',*,*,#477,.F.);
#276=ORIENTED_EDGE('',*,*,#478,.T.);
#277=ORIENTED_EDGE('',*,*,#479,.T.);
#278=ORIENTED_EDGE('',*,*,#469,.F.);
#279=ORIENTED_EDGE('',*,*,#479,.F.);
#280=ORIENTED_EDGE('',*,*,#480,.T.);
#281=ORIENTED_EDGE('',*,*,#473,.T.);
#282=ORIENTED_EDGE('',*,*,#474,.F.);
#283=ORIENTED_EDGE('',*,*,#480,.F.);
#284=ORIENTED_EDGE('',*,*,#478,.F.);
#285=ORIENTED_EDGE('',*,*,#476,.F.);
#286=ORIENTED_EDGE('',*,*,#481,.F.);
#287=ORIENTED_EDGE('',*,*,#460,.F.);
#288=ORIENTED_EDGE('',*,*,#482,.F.);
#289=ORIENTED_EDGE('',*,*,#438,.F.);
#290=ORIENTED_EDGE('',*,*,#483,.F.);
#291=ORIENTED_EDGE('',*,*,#481,.T.);
#292=ORIENTED_EDGE('',*,*,#484,.F.);
#293=ORIENTED_EDGE('',*,*,#485,.F.);
#294=ORIENTED_EDGE('',*,*,#482,.T.);
#295=ORIENTED_EDGE('',*,*,#486,.F.);
#296=ORIENTED_EDGE('',*,*,#484,.T.);
#297=ORIENTED_EDGE('',*,*,#437,.F.);
#298=ORIENTED_EDGE('',*,*,#487,.F.);
#299=ORIENTED_EDGE('',*,*,#456,.F.);
#300=ORIENTED_EDGE('',*,*,#483,.T.);
#301=ORIENTED_EDGE('',*,*,#455,.F.);
#302=ORIENTED_EDGE('',*,*,#488,.F.);
#303=ORIENTED_EDGE('',*,*,#457,.F.);
#304=ORIENTED_EDGE('',*,*,#489,.F.);
#305=ORIENTED_EDGE('',*,*,#458,.F.);
#306=ORIENTED_EDGE('',*,*,#490,.F.);
#307=ORIENTED_EDGE('',*,*,#468,.F.);
#308=ORIENTED_EDGE('',*,*,#486,.T.);
#309=ORIENTED_EDGE('',*,*,#459,.F.);
#310=ORIENTED_EDGE('',*,*,#491,.F.);
#311=ORIENTED_EDGE('',*,*,#461,.F.);
#312=ORIENTED_EDGE('',*,*,#485,.T.);
#313=ORIENTED_EDGE('',*,*,#464,.F.);
#314=ORIENTED_EDGE('',*,*,#492,.F.);
#315=ORIENTED_EDGE('',*,*,#435,.F.);
#316=ORIENTED_EDGE('',*,*,#493,.F.);
#317=ORIENTED_EDGE('',*,*,#436,.F.);
#318=ORIENTED_EDGE('',*,*,#494,.F.);
#319=ORIENTED_EDGE('',*,*,#452,.F.);
#320=ORIENTED_EDGE('',*,*,#487,.T.);
#321=ORIENTED_EDGE('',*,*,#493,.T.);
#322=ORIENTED_EDGE('',*,*,#495,.F.);
#323=ORIENTED_EDGE('',*,*,#490,.T.);
#324=ORIENTED_EDGE('',*,*,#488,.T.);
#325=ORIENTED_EDGE('',*,*,#496,.F.);
#326=ORIENTED_EDGE('',*,*,#491,.T.);
#327=ORIENTED_EDGE('',*,*,#489,.T.);
#328=ORIENTED_EDGE('',*,*,#497,.F.);
#329=ORIENTED_EDGE('',*,*,#494,.T.);
#330=ORIENTED_EDGE('',*,*,#492,.T.);
#331=ORIENTED_EDGE('',*,*,#498,.F.);
#332=ORIENTED_EDGE('',*,*,#495,.T.);
#333=ORIENTED_EDGE('',*,*,#451,.F.);
#334=ORIENTED_EDGE('',*,*,#499,.F.);
#335=ORIENTED_EDGE('',*,*,#453,.F.);
#336=ORIENTED_EDGE('',*,*,#496,.T.);
#337=ORIENTED_EDGE('',*,*,#454,.F.);
#338=ORIENTED_EDGE('',*,*,#500,.F.);
#339=ORIENTED_EDGE('',*,*,#465,.F.);
#340=ORIENTED_EDGE('',*,*,#497,.T.);
#341=ORIENTED_EDGE('',*,*,#467,.F.);
#342=ORIENTED_EDGE('',*,*,#501,.F.);
#343=ORIENTED_EDGE('',*,*,#462,.F.);
#344=ORIENTED_EDGE('',*,*,#498,.T.);
#345=ORIENTED_EDGE('',*,*,#463,.F.);
#346=ORIENTED_EDGE('',*,*,#502,.F.);
#347=ORIENTED_EDGE('',*,*,#449,.F.);
#348=ORIENTED_EDGE('',*,*,#500,.T.);
#349=ORIENTED_EDGE('',*,*,#499,.T.);
#350=ORIENTED_EDGE('',*,*,#503,.F.);
#351=ORIENTED_EDGE('',*,*,#502,.T.);
#352=ORIENTED_EDGE('',*,*,#501,.T.);
#353=ORIENTED_EDGE('',*,*,#504,.F.);
#354=ORIENTED_EDGE('',*,*,#503,.T.);
#355=ORIENTED_EDGE('',*,*,#450,.F.);
#356=ORIENTED_EDGE('',*,*,#504,.T.);
#357=ORIENTED_EDGE('',*,*,#466,.F.);
#358=EDGE_CURVE('',#505,#506,#595,.T.);
#359=EDGE_CURVE('',#506,#507,#596,.T.);
#360=EDGE_CURVE('',#507,#508,#597,.T.);
#361=EDGE_CURVE('',#508,#505,#598,.T.);
#362=EDGE_CURVE('',#509,#510,#599,.T.);
#363=EDGE_CURVE('',#510,#511,#600,.T.);
#364=EDGE_CURVE('',#511,#512,#601,.T.);
#365=EDGE_CURVE('',#512,#509,#602,.T.);
#366=EDGE_CURVE('',#513,#514,#603,.T.);
#367=EDGE_CURVE('',#514,#515,#604,.T.);
#368=EDGE_CURVE('',#515,#516,#605,.T.);
#369=EDGE_CURVE('',#516,#513,#606,.T.);
#370=EDGE_CURVE('',#517,#518,#607,.T.);
#371=EDGE_CURVE('',#519,#517,#608,.T.);
#372=EDGE_CURVE('',#520,#519,#609,.T.);
#373=EDGE_CURVE('',#518,#520,#610,.T.);
#374=EDGE_CURVE('',#521,#522,#611,.T.);
#375=EDGE_CURVE('',#523,#521,#612,.T.);
#376=EDGE_CURVE('',#524,#523,#613,.T.);
#377=EDGE_CURVE('',#522,#524,#614,.T.);
#378=EDGE_CURVE('',#525,#526,#615,.T.);
#379=EDGE_CURVE('',#527,#525,#616,.T.);
#380=EDGE_CURVE('',#528,#527,#617,.T.);
#381=EDGE_CURVE('',#526,#528,#618,.T.);
#382=EDGE_CURVE('',#529,#530,#619,.T.);
#383=EDGE_CURVE('',#507,#530,#620,.T.);
#384=EDGE_CURVE('',#506,#529,#621,.T.);
#385=EDGE_CURVE('',#530,#531,#622,.T.);
#386=EDGE_CURVE('',#508,#531,#623,.T.);
#387=EDGE_CURVE('',#531,#532,#624,.T.);
#388=EDGE_CURVE('',#505,#532,#625,.T.);
#389=EDGE_CURVE('',#532,#529,#626,.T.);
#390=EDGE_CURVE('',#533,#534,#627,.T.);
#391=EDGE_CURVE('',#534,#535,#628,.T.);
#392=EDGE_CURVE('',#535,#536,#629,.T.);
#393=EDGE_CURVE('',#536,#537,#630,.T.);
#394=EDGE_CURVE('',#537,#533,#631,.T.);
#395=EDGE_CURVE('',#538,#539,#632,.T.);
#396=EDGE_CURVE('',#511,#539,#633,.T.);
#397=EDGE_CURVE('',#510,#538,#634,.T.);
#398=EDGE_CURVE('',#539,#540,#635,.T.);
#399=EDGE_CURVE('',#512,#540,#636,.T.);
#400=EDGE_CURVE('',#540,#541,#637,.T.);
#401=EDGE_CURVE('',#509,#541,#638,.T.);
#402=EDGE_CURVE('',#541,#538,#639,.T.);
#403=EDGE_CURVE('',#542,#543,#640,.T.);
#404=EDGE_CURVE('',#515,#543,#641,.T.);
#405=EDGE_CURVE('',#514,#542,#642,.T.);
#406=EDGE_CURVE('',#543,#544,#643,.T.);
#407=EDGE_CURVE('',#516,#544,#644,.T.);
#408=EDGE_CURVE('',#544,#545,#645,.T.);
#409=EDGE_CURVE('',#513,#545,#646,.T.);
#410=EDGE_CURVE('',#545,#542,#647,.T.);
#411=EDGE_CURVE('',#546,#547,#648,.T.);
#412=EDGE_CURVE('',#520,#546,#649,.T.);
#413=EDGE_CURVE('',#519,#547,#650,.T.);
#414=EDGE_CURVE('',#548,#546,#651,.T.);
#415=EDGE_CURVE('',#518,#548,#652,.T.);
#416=EDGE_CURVE('',#549,#548,#653,.T.);
#417=EDGE_CURVE('',#517,#549,#654,.T.);
#418=EDGE_CURVE('',#547,#549,#655,.T.);
#419=EDGE_CURVE('',#550,#551,#656,.T.);
#420=EDGE_CURVE('',#524,#550,#657,.T.);
#421=EDGE_CURVE('',#523,#551,#658,.T.);
#422=EDGE_CURVE('',#552,#550,#659,.T.);
#423=EDGE_CURVE('',#522,#552,#660,.T.);
#424=EDGE_CURVE('',#553,#552,#661,.T.);
#425=EDGE_CURVE('',#521,#553,#662,.T.);
#426=EDGE_CURVE('',#551,#553,#663,.T.);
#427=EDGE_CURVE('',#554,#527,#664,.T.);
#428=EDGE_CURVE('',#555,#554,#665,.T.);
#429=EDGE_CURVE('',#555,#528,#666,.T.);
#430=EDGE_CURVE('',#556,#555,#667,.T.);
#431=EDGE_CURVE('',#556,#526,#668,.T.);
#432=EDGE_CURVE('',#557,#556,#669,.T.);
#433=EDGE_CURVE('',#557,#525,#670,.T.);
#434=EDGE_CURVE('',#554,#557,#671,.T.);
#435=EDGE_CURVE('',#558,#559,#672,.F.);
#436=EDGE_CURVE('',#559,#560,#673,.F.);
#437=EDGE_CURVE('',#560,#561,#674,.T.);
#438=EDGE_CURVE('',#561,#558,#675,.T.);
#439=EDGE_CURVE('',#562,#535,#676,.T.);
#440=EDGE_CURVE('',#562,#563,#677,.T.);
#441=EDGE_CURVE('',#563,#536,#678,.T.);
#442=EDGE_CURVE('',#563,#564,#679,.T.);
#443=EDGE_CURVE('',#564,#537,#680,.T.);
#444=EDGE_CURVE('',#564,#565,#681,.T.);
#445=EDGE_CURVE('',#565,#533,#682,.T.);
#446=EDGE_CURVE('',#565,#566,#683,.T.);
#447=EDGE_CURVE('',#566,#534,#684,.T.);
#448=EDGE_CURVE('',#566,#562,#685,.T.);
#449=EDGE_CURVE('',#567,#568,#686,.F.);
#450=EDGE_CURVE('',#568,#569,#687,.F.);
#451=EDGE_CURVE('',#569,#570,#688,.T.);
#452=EDGE_CURVE('',#570,#567,#689,.T.);
#453=EDGE_CURVE('',#571,#572,#690,.F.);
#454=EDGE_CURVE('',#572,#573,#691,.F.);
#455=EDGE_CURVE('',#573,#574,#692,.F.);
#456=EDGE_CURVE('',#574,#571,#693,.F.);
#457=EDGE_CURVE('',#575,#576,#694,.T.);
#458=EDGE_CURVE('',#576,#577,#695,.T.);
#459=EDGE_CURVE('',#577,#578,#696,.F.);
#460=EDGE_CURVE('',#578,#575,#697,.F.);
#461=EDGE_CURVE('',#579,#580,#698,.T.);
#462=EDGE_CURVE('',#580,#581,#699,.T.);
#463=EDGE_CURVE('',#581,#582,#700,.T.);
#464=EDGE_CURVE('',#582,#579,#701,.T.);
#465=EDGE_CURVE('',#583,#584,#702,.T.);
#466=EDGE_CURVE('',#584,#585,#703,.T.);
#467=EDGE_CURVE('',#585,#586,#704,.F.);
#468=EDGE_CURVE('',#586,#583,#705,.F.);
#469=EDGE_CURVE('',#587,#588,#706,.T.);
#470=EDGE_CURVE('',#588,#589,#707,.T.);
#471=EDGE_CURVE('',#589,#590,#708,.T.);
#472=EDGE_CURVE('',#590,#587,#709,.T.);
#473=EDGE_CURVE('',#591,#588,#710,.T.);
#474=EDGE_CURVE('',#591,#592,#711,.T.);
#475=EDGE_CURVE('',#592,#589,#712,.T.);
#476=EDGE_CURVE('',#592,#593,#713,.T.);
#477=EDGE_CURVE('',#593,#590,#714,.T.);
#478=EDGE_CURVE('',#593,#594,#715,.T.);
#479=EDGE_CURVE('',#594,#587,#716,.T.);
#480=EDGE_CURVE('',#594,#591,#717,.T.);
#481=EDGE_CURVE('',#575,#561,#28,.T.);
#482=EDGE_CURVE('',#558,#578,#29,.T.);
#483=EDGE_CURVE('',#575,#574,#30,.F.);
#484=EDGE_CURVE('',#574,#561,#31,.F.);
#485=EDGE_CURVE('',#558,#579,#32,.F.);
#486=EDGE_CURVE('',#579,#578,#33,.F.);
#487=EDGE_CURVE('',#571,#560,#34,.T.);
#488=EDGE_CURVE('',#576,#573,#35,.T.);
#489=EDGE_CURVE('',#577,#586,#36,.T.);
#490=EDGE_CURVE('',#583,#576,#37,.T.);
#491=EDGE_CURVE('',#580,#577,#38,.T.);
#492=EDGE_CURVE('',#559,#582,#39,.T.);
#493=EDGE_CURVE('',#560,#570,#40,.T.);
#494=EDGE_CURVE('',#567,#559,#41,.T.);
#495=EDGE_CURVE('',#571,#570,#42,.F.);
#496=EDGE_CURVE('',#583,#573,#43,.F.);
#497=EDGE_CURVE('',#580,#586,#44,.F.);
#498=EDGE_CURVE('',#567,#582,#45,.F.);
#499=EDGE_CURVE('',#572,#569,#46,.T.);
#500=EDGE_CURVE('',#584,#572,#47,.T.);
#501=EDGE_CURVE('',#581,#585,#48,.T.);
#502=EDGE_CURVE('',#568,#581,#49,.T.);
#503=EDGE_CURVE('',#584,#569,#50,.F.);
#504=EDGE_CURVE('',#568,#585,#51,.F.);
#505=VERTEX_POINT('',#1982);
#506=VERTEX_POINT('',#1983);
#507=VERTEX_POINT('',#1985);
#508=VERTEX_POINT('',#1987);
#509=VERTEX_POINT('',#1991);
#510=VERTEX_POINT('',#1992);
#511=VERTEX_POINT('',#1994);
#512=VERTEX_POINT('',#1996);
#513=VERTEX_POINT('',#2000);
#514=VERTEX_POINT('',#2001);
#515=VERTEX_POINT('',#2003);
#516=VERTEX_POINT('',#2005);
#517=VERTEX_POINT('',#2009);
#518=VERTEX_POINT('',#2010);
#519=VERTEX_POINT('',#2012);
#520=VERTEX_POINT('',#2014);
#521=VERTEX_POINT('',#2018);
#522=VERTEX_POINT('',#2019);
#523=VERTEX_POINT('',#2021);
#524=VERTEX_POINT('',#2023);
#525=VERTEX_POINT('',#2027);
#526=VERTEX_POINT('',#2028);
#527=VERTEX_POINT('',#2030);
#528=VERTEX_POINT('',#2032);
#529=VERTEX_POINT('',#2036);
#530=VERTEX_POINT('',#2037);
#531=VERTEX_POINT('',#2042);
#532=VERTEX_POINT('',#2046);
#533=VERTEX_POINT('',#2052);
#534=VERTEX_POINT('',#2053);
#535=VERTEX_POINT('',#2055);
#536=VERTEX_POINT('',#2057);
#537=VERTEX_POINT('',#2059);
#538=VERTEX_POINT('',#2063);
#539=VERTEX_POINT('',#2064);
#540=VERTEX_POINT('',#2069);
#541=VERTEX_POINT('',#2073);
#542=VERTEX_POINT('',#2079);
#543=VERTEX_POINT('',#2080);
#544=VERTEX_POINT('',#2085);
#545=VERTEX_POINT('',#2089);
#546=VERTEX_POINT('',#2095);
#547=VERTEX_POINT('',#2096);
#548=VERTEX_POINT('',#2101);
#549=VERTEX_POINT('',#2105);
#550=VERTEX_POINT('',#2111);
#551=VERTEX_POINT('',#2112);
#552=VERTEX_POINT('',#2117);
#553=VERTEX_POINT('',#2121);
#554=VERTEX_POINT('',#2127);
#555=VERTEX_POINT('',#2129);
#556=VERTEX_POINT('',#2133);
#557=VERTEX_POINT('',#2137);
#558=VERTEX_POINT('',#2143);
#559=VERTEX_POINT('',#2144);
#560=VERTEX_POINT('',#2146);
#561=VERTEX_POINT('',#2148);
#562=VERTEX_POINT('',#2152);
#563=VERTEX_POINT('',#2154);
#564=VERTEX_POINT('',#2158);
#565=VERTEX_POINT('',#2162);
#566=VERTEX_POINT('',#2166);
#567=VERTEX_POINT('',#2172);
#568=VERTEX_POINT('',#2173);
#569=VERTEX_POINT('',#2175);
#570=VERTEX_POINT('',#2177);
#571=VERTEX_POINT('',#2181);
#572=VERTEX_POINT('',#2182);
#573=VERTEX_POINT('',#2184);
#574=VERTEX_POINT('',#2186);
#575=VERTEX_POINT('',#2190);
#576=VERTEX_POINT('',#2191);
#577=VERTEX_POINT('',#2193);
#578=VERTEX_POINT('',#2195);
#579=VERTEX_POINT('',#2199);
#580=VERTEX_POINT('',#2200);
#581=VERTEX_POINT('',#2202);
#582=VERTEX_POINT('',#2204);
#583=VERTEX_POINT('',#2208);
#584=VERTEX_POINT('',#2209);
#585=VERTEX_POINT('',#2211);
#586=VERTEX_POINT('',#2213);
#587=VERTEX_POINT('',#2216);
#588=VERTEX_POINT('',#2217);
#589=VERTEX_POINT('',#2219);
#590=VERTEX_POINT('',#2221);
#591=VERTEX_POINT('',#2225);
#592=VERTEX_POINT('',#2227);
#593=VERTEX_POINT('',#2231);
#594=VERTEX_POINT('',#2235);
#595=LINE('',#1981,#718);
#596=LINE('',#1984,#719);
#597=LINE('',#1986,#720);
#598=LINE('',#1988,#721);
#599=LINE('',#1990,#722);
#600=LINE('',#1993,#723);
#601=LINE('',#1995,#724);
#602=LINE('',#1997,#725);
#603=LINE('',#1999,#726);
#604=LINE('',#2002,#727);
#605=LINE('',#2004,#728);
#606=LINE('',#2006,#729);
#607=LINE('',#2008,#730);
#608=LINE('',#2011,#731);
#609=LINE('',#2013,#732);
#610=LINE('',#2015,#733);
#611=LINE('',#2017,#734);
#612=LINE('',#2020,#735);
#613=LINE('',#2022,#736);
#614=LINE('',#2024,#737);
#615=LINE('',#2026,#738);
#616=LINE('',#2029,#739);
#617=LINE('',#2031,#740);
#618=LINE('',#2033,#741);
#619=LINE('',#2035,#742);
#620=LINE('',#2038,#743);
#621=LINE('',#2039,#744);
#622=LINE('',#2041,#745);
#623=LINE('',#2043,#746);
#624=LINE('',#2045,#747);
#625=LINE('',#2047,#748);
#626=LINE('',#2049,#749);
#627=LINE('',#2051,#750);
#628=LINE('',#2054,#751);
#629=LINE('',#2056,#752);
#630=LINE('',#2058,#753);
#631=LINE('',#2060,#754);
#632=LINE('',#2062,#755);
#633=LINE('',#2065,#756);
#634=LINE('',#2066,#757);
#635=LINE('',#2068,#758);
#636=LINE('',#2070,#759);
#637=LINE('',#2072,#760);
#638=LINE('',#2074,#761);
#639=LINE('',#2076,#762);
#640=LINE('',#2078,#763);
#641=LINE('',#2081,#764);
#642=LINE('',#2082,#765);
#643=LINE('',#2084,#766);
#644=LINE('',#2086,#767);
#645=LINE('',#2088,#768);
#646=LINE('',#2090,#769);
#647=LINE('',#2092,#770);
#648=LINE('',#2094,#771);
#649=LINE('',#2097,#772);
#650=LINE('',#2098,#773);
#651=LINE('',#2100,#774);
#652=LINE('',#2102,#775);
#653=LINE('',#2104,#776);
#654=LINE('',#2106,#777);
#655=LINE('',#2108,#778);
#656=LINE('',#2110,#779);
#657=LINE('',#2113,#780);
#658=LINE('',#2114,#781);
#659=LINE('',#2116,#782);
#660=LINE('',#2118,#783);
#661=LINE('',#2120,#784);
#662=LINE('',#2122,#785);
#663=LINE('',#2124,#786);
#664=LINE('',#2126,#787);
#665=LINE('',#2128,#788);
#666=LINE('',#2130,#789);
#667=LINE('',#2132,#790);
#668=LINE('',#2134,#791);
#669=LINE('',#2136,#792);
#670=LINE('',#2138,#793);
#671=LINE('',#2140,#794);
#672=LINE('',#2142,#795);
#673=LINE('',#2145,#796);
#674=LINE('',#2147,#797);
#675=LINE('',#2149,#798);
#676=LINE('',#2151,#799);
#677=LINE('',#2153,#800);
#678=LINE('',#2155,#801);
#679=LINE('',#2157,#802);
#680=LINE('',#2159,#803);
#681=LINE('',#2161,#804);
#682=LINE('',#2163,#805);
#683=LINE('',#2165,#806);
#684=LINE('',#2167,#807);
#685=LINE('',#2169,#808);
#686=LINE('',#2171,#809);
#687=LINE('',#2174,#810);
#688=LINE('',#2176,#811);
#689=LINE('',#2178,#812);
#690=LINE('',#2180,#813);
#691=LINE('',#2183,#814);
#692=LINE('',#2185,#815);
#693=LINE('',#2187,#816);
#694=LINE('',#2189,#817);
#695=LINE('',#2192,#818);
#696=LINE('',#2194,#819);
#697=LINE('',#2196,#820);
#698=LINE('',#2198,#821);
#699=LINE('',#2201,#822);
#700=LINE('',#2203,#823);
#701=LINE('',#2205,#824);
#702=LINE('',#2207,#825);
#703=LINE('',#2210,#826);
#704=LINE('',#2212,#827);
#705=LINE('',#2214,#828);
#706=LINE('',#2215,#829);
#707=LINE('',#2218,#830);
#708=LINE('',#2220,#831);
#709=LINE('',#2222,#832);
#710=LINE('',#2224,#833);
#711=LINE('',#2226,#834);
#712=LINE('',#2228,#835);
#713=LINE('',#2230,#836);
#714=LINE('',#2232,#837);
#715=LINE('',#2234,#838);
#716=LINE('',#2236,#839);
#717=LINE('',#2238,#840);
#718=VECTOR('',#1676,1000.);
#719=VECTOR('',#1677,1000.);
#720=VECTOR('',#1678,1000.);
#721=VECTOR('',#1679,1000.);
#722=VECTOR('',#1682,1000.);
#723=VECTOR('',#1683,1000.);
#724=VECTOR('',#1684,1000.);
#725=VECTOR('',#1685,1000.);
#726=VECTOR('',#1688,1000.);
#727=VECTOR('',#1689,1000.);
#728=VECTOR('',#1690,1000.);
#729=VECTOR('',#1691,1000.);
#730=VECTOR('',#1694,1000.);
#731=VECTOR('',#1695,1000.);
#732=VECTOR('',#1696,1000.);
#733=VECTOR('',#1697,1000.);
#734=VECTOR('',#1700,1000.);
#735=VECTOR('',#1701,1000.);
#736=VECTOR('',#1702,1000.);
#737=VECTOR('',#1703,1000.);
#738=VECTOR('',#1706,1000.);
#739=VECTOR('',#1707,1000.);
#740=VECTOR('',#1708,1000.);
#741=VECTOR('',#1709,1000.);
#742=VECTOR('',#1712,1000.);
#743=VECTOR('',#1713,1000.);
#744=VECTOR('',#1714,1000.);
#745=VECTOR('',#1717,1000.);
#746=VECTOR('',#1718,1000.);
#747=VECTOR('',#1721,1000.);
#748=VECTOR('',#1722,1000.);
#749=VECTOR('',#1725,1000.);
#750=VECTOR('',#1728,1000.);
#751=VECTOR('',#1729,1000.);
#752=VECTOR('',#1730,1000.);
#753=VECTOR('',#1731,1000.);
#754=VECTOR('',#1732,1000.);
#755=VECTOR('',#1735,1000.);
#756=VECTOR('',#1736,1000.);
#757=VECTOR('',#1737,1000.);
#758=VECTOR('',#1740,1000.);
#759=VECTOR('',#1741,1000.);
#760=VECTOR('',#1744,1000.);
#761=VECTOR('',#1745,1000.);
#762=VECTOR('',#1748,1000.);
#763=VECTOR('',#1751,1000.);
#764=VECTOR('',#1752,1000.);
#765=VECTOR('',#1753,1000.);
#766=VECTOR('',#1756,1000.);
#767=VECTOR('',#1757,1000.);
#768=VECTOR('',#1760,1000.);
#769=VECTOR('',#1761,1000.);
#770=VECTOR('',#1764,1000.);
#771=VECTOR('',#1767,1000.);
#772=VECTOR('',#1768,1000.);
#773=VECTOR('',#1769,1000.);
#774=VECTOR('',#1772,1000.);
#775=VECTOR('',#1773,1000.);
#776=VECTOR('',#1776,1000.);
#777=VECTOR('',#1777,1000.);
#778=VECTOR('',#1780,1000.);
#779=VECTOR('',#1783,1000.);
#780=VECTOR('',#1784,1000.);
#781=VECTOR('',#1785,1000.);
#782=VECTOR('',#1788,1000.);
#783=VECTOR('',#1789,1000.);
#784=VECTOR('',#1792,1000.);
#785=VECTOR('',#1793,1000.);
#786=VECTOR('',#1796,1000.);
#787=VECTOR('',#1799,1000.);
#788=VECTOR('',#1800,1000.);
#789=VECTOR('',#1801,1000.);
#790=VECTOR('',#1804,1000.);
#791=VECTOR('',#1805,1000.);
#792=VECTOR('',#1808,1000.);
#793=VECTOR('',#1809,1000.);
#794=VECTOR('',#1812,1000.);
#795=VECTOR('',#1815,1000.);
#796=VECTOR('',#1816,1000.);
#797=VECTOR('',#1817,1000.);
#798=VECTOR('',#1818,1000.);
#799=VECTOR('',#1821,1000.);
#800=VECTOR('',#1822,1000.);
#801=VECTOR('',#1823,1000.);
#802=VECTOR('',#1826,1000.);
#803=VECTOR('',#1827,1000.);
#804=VECTOR('',#1830,1000.);
#805=VECTOR('',#1831,1000.);
#806=VECTOR('',#1834,1000.);
#807=VECTOR('',#1835,1000.);
#808=VECTOR('',#1838,1000.);
#809=VECTOR('',#1841,1000.);
#810=VECTOR('',#1842,1000.);
#811=VECTOR('',#1843,1000.);
#812=VECTOR('',#1844,1000.);
#813=VECTOR('',#1847,1000.);
#814=VECTOR('',#1848,1000.);
#815=VECTOR('',#1849,1000.);
#816=VECTOR('',#1850,1000.);
#817=VECTOR('',#1853,1000.);
#818=VECTOR('',#1854,1000.);
#819=VECTOR('',#1855,1000.);
#820=VECTOR('',#1856,1000.);
#821=VECTOR('',#1859,1000.);
#822=VECTOR('',#1860,1000.);
#823=VECTOR('',#1861,1000.);
#824=VECTOR('',#1862,1000.);
#825=VECTOR('',#1865,1000.);
#826=VECTOR('',#1866,1000.);
#827=VECTOR('',#1867,1000.);
#828=VECTOR('',#1868,1000.);
#829=VECTOR('',#1869,1000.);
#830=VECTOR('',#1870,1000.);
#831=VECTOR('',#1871,1000.);
#832=VECTOR('',#1872,1000.);
#833=VECTOR('',#1875,1000.);
#834=VECTOR('',#1876,1000.);
#835=VECTOR('',#1877,1000.);
#836=VECTOR('',#1880,1000.);
#837=VECTOR('',#1881,1000.);
#838=VECTOR('',#1884,1000.);
#839=VECTOR('',#1885,1000.);
#840=VECTOR('',#1888,1000.);
#841=EDGE_LOOP('',(#64,#65,#66,#67));
#842=EDGE_LOOP('',(#68,#69,#70,#71));
#843=EDGE_LOOP('',(#72,#73,#74,#75));
#844=EDGE_LOOP('',(#76,#77,#78,#79));
#845=EDGE_LOOP('',(#80,#81,#82,#83));
#846=EDGE_LOOP('',(#84,#85,#86,#87));
#847=EDGE_LOOP('',(#88,#89,#90,#91));
#848=EDGE_LOOP('',(#92,#93,#94,#95));
#849=EDGE_LOOP('',(#96,#97,#98,#99));
#850=EDGE_LOOP('',(#100,#101,#102,#103));
#851=EDGE_LOOP('',(#104,#105,#106,#107,#108));
#852=EDGE_LOOP('',(#109,#110,#111,#112));
#853=EDGE_LOOP('',(#113,#114,#115,#116));
#854=EDGE_LOOP('',(#117,#118,#119,#120));
#855=EDGE_LOOP('',(#121,#122,#123,#124));
#856=EDGE_LOOP('',(#125,#126,#127,#128));
#857=EDGE_LOOP('',(#129,#130,#131,#132));
#858=EDGE_LOOP('',(#133,#134,#135,#136));
#859=EDGE_LOOP('',(#137,#138,#139,#140));
#860=EDGE_LOOP('',(#141,#142,#143,#144));
#861=EDGE_LOOP('',(#145,#146,#147,#148));
#862=EDGE_LOOP('',(#149,#150,#151,#152));
#863=EDGE_LOOP('',(#153,#154,#155,#156));
#864=EDGE_LOOP('',(#157,#158,#159,#160));
#865=EDGE_LOOP('',(#161,#162,#163,#164));
#866=EDGE_LOOP('',(#165,#166,#167,#168));
#867=EDGE_LOOP('',(#169,#170,#171,#172));
#868=EDGE_LOOP('',(#173,#174,#175,#176));
#869=EDGE_LOOP('',(#177,#178,#179,#180));
#870=EDGE_LOOP('',(#181,#182,#183,#184));
#871=EDGE_LOOP('',(#185,#186,#187,#188));
#872=EDGE_LOOP('',(#189,#190,#191,#192));
#873=EDGE_LOOP('',(#193,#194,#195,#196));
#874=EDGE_LOOP('',(#197,#198,#199,#200));
#875=EDGE_LOOP('',(#201,#202,#203,#204));
#876=EDGE_LOOP('',(#205,#206,#207,#208));
#877=EDGE_LOOP('',(#209,#210,#211,#212));
#878=EDGE_LOOP('',(#213,#214,#215,#216));
#879=EDGE_LOOP('',(#217,#218,#219,#220));
#880=EDGE_LOOP('',(#221,#222,#223,#224));
#881=EDGE_LOOP('',(#225,#226,#227,#228));
#882=EDGE_LOOP('',(#229,#230,#231,#232));
#883=EDGE_LOOP('',(#233,#234,#235,#236));
#884=EDGE_LOOP('',(#237,#238,#239,#240));
#885=EDGE_LOOP('',(#241,#242,#243,#244));
#886=EDGE_LOOP('',(#245,#246,#247,#248));
#887=EDGE_LOOP('',(#249,#250,#251,#252,#253));
#888=EDGE_LOOP('',(#254,#255,#256,#257));
#889=EDGE_LOOP('',(#258,#259,#260,#261));
#890=EDGE_LOOP('',(#262,#263,#264,#265));
#891=EDGE_LOOP('',(#266,#267,#268,#269));
#892=EDGE_LOOP('',(#270,#271,#272,#273));
#893=EDGE_LOOP('',(#274,#275,#276,#277));
#894=EDGE_LOOP('',(#278,#279,#280,#281));
#895=EDGE_LOOP('',(#282,#283,#284,#285));
#896=EDGE_LOOP('',(#286,#287,#288,#289));
#897=EDGE_LOOP('',(#290,#291,#292));
#898=EDGE_LOOP('',(#293,#294,#295));
#899=EDGE_LOOP('',(#296,#297,#298,#299));
#900=EDGE_LOOP('',(#300,#301,#302,#303));
#901=EDGE_LOOP('',(#304,#305,#306,#307));
#902=EDGE_LOOP('',(#308,#309,#310,#311));
#903=EDGE_LOOP('',(#312,#313,#314,#315));
#904=EDGE_LOOP('',(#316,#317,#318,#319));
#905=EDGE_LOOP('',(#320,#321,#322));
#906=EDGE_LOOP('',(#323,#324,#325));
#907=EDGE_LOOP('',(#326,#327,#328));
#908=EDGE_LOOP('',(#329,#330,#331));
#909=EDGE_LOOP('',(#332,#333,#334,#335));
#910=EDGE_LOOP('',(#336,#337,#338,#339));
#911=EDGE_LOOP('',(#340,#341,#342,#343));
#912=EDGE_LOOP('',(#344,#345,#346,#347));
#913=EDGE_LOOP('',(#348,#349,#350));
#914=EDGE_LOOP('',(#351,#352,#353));
#915=EDGE_LOOP('',(#354,#355,#356,#357));
#916=FACE_BOUND('',#841,.T.);
#917=FACE_BOUND('',#842,.T.);
#918=FACE_BOUND('',#843,.T.);
#919=FACE_BOUND('',#844,.T.);
#920=FACE_BOUND('',#845,.T.);
#921=FACE_BOUND('',#846,.T.);
#922=FACE_BOUND('',#847,.T.);
#923=FACE_BOUND('',#848,.T.);
#924=FACE_BOUND('',#849,.T.);
#925=FACE_BOUND('',#850,.T.);
#926=FACE_BOUND('',#851,.T.);
#927=FACE_BOUND('',#852,.T.);
#928=FACE_BOUND('',#853,.T.);
#929=FACE_BOUND('',#854,.T.);
#930=FACE_BOUND('',#855,.T.);
#931=FACE_BOUND('',#856,.T.);
#932=FACE_BOUND('',#857,.T.);
#933=FACE_BOUND('',#858,.T.);
#934=FACE_BOUND('',#859,.T.);
#935=FACE_BOUND('',#860,.T.);
#936=FACE_BOUND('',#861,.T.);
#937=FACE_BOUND('',#862,.T.);
#938=FACE_BOUND('',#863,.T.);
#939=FACE_BOUND('',#864,.T.);
#940=FACE_BOUND('',#865,.T.);
#941=FACE_BOUND('',#866,.T.);
#942=FACE_BOUND('',#867,.T.);
#943=FACE_BOUND('',#868,.T.);
#944=FACE_BOUND('',#869,.T.);
#945=FACE_BOUND('',#870,.T.);
#946=FACE_BOUND('',#871,.T.);
#947=FACE_BOUND('',#872,.T.);
#948=FACE_BOUND('',#873,.T.);
#949=FACE_BOUND('',#874,.T.);
#950=FACE_BOUND('',#875,.T.);
#951=FACE_BOUND('',#876,.T.);
#952=FACE_BOUND('',#877,.T.);
#953=FACE_BOUND('',#878,.T.);
#954=FACE_BOUND('',#879,.T.);
#955=FACE_BOUND('',#880,.T.);
#956=FACE_BOUND('',#881,.T.);
#957=FACE_BOUND('',#882,.T.);
#958=FACE_BOUND('',#883,.T.);
#959=FACE_BOUND('',#884,.T.);
#960=FACE_BOUND('',#885,.T.);
#961=FACE_BOUND('',#886,.T.);
#962=FACE_BOUND('',#887,.T.);
#963=FACE_BOUND('',#888,.T.);
#964=FACE_BOUND('',#889,.T.);
#965=FACE_BOUND('',#890,.T.);
#966=FACE_BOUND('',#891,.T.);
#967=FACE_BOUND('',#892,.T.);
#968=FACE_BOUND('',#893,.T.);
#969=FACE_BOUND('',#894,.T.);
#970=FACE_BOUND('',#895,.T.);
#971=FACE_BOUND('',#896,.T.);
#972=FACE_BOUND('',#897,.T.);
#973=FACE_BOUND('',#898,.T.);
#974=FACE_BOUND('',#899,.T.);
#975=FACE_BOUND('',#900,.T.);
#976=FACE_BOUND('',#901,.T.);
#977=FACE_BOUND('',#902,.T.);
#978=FACE_BOUND('',#903,.T.);
#979=FACE_BOUND('',#904,.T.);
#980=FACE_BOUND('',#905,.T.);
#981=FACE_BOUND('',#906,.T.);
#982=FACE_BOUND('',#907,.T.);
#983=FACE_BOUND('',#908,.T.);
#984=FACE_BOUND('',#909,.T.);
#985=FACE_BOUND('',#910,.T.);
#986=FACE_BOUND('',#911,.T.);
#987=FACE_BOUND('',#912,.T.);
#988=FACE_BOUND('',#913,.T.);
#989=FACE_BOUND('',#914,.T.);
#990=FACE_BOUND('',#915,.T.);
#991=PLANE('',#1581);
#992=PLANE('',#1582);
#993=PLANE('',#1583);
#994=PLANE('',#1584);
#995=PLANE('',#1585);
#996=PLANE('',#1586);
#997=PLANE('',#1587);
#998=PLANE('',#1588);
#999=PLANE('',#1589);
#1000=PLANE('',#1590);
#1001=PLANE('',#1591);
#1002=PLANE('',#1592);
#1003=PLANE('',#1593);
#1004=PLANE('',#1594);
#1005=PLANE('',#1595);
#1006=PLANE('',#1596);
#1007=PLANE('',#1597);
#1008=PLANE('',#1598);
#1009=PLANE('',#1599);
#1010=PLANE('',#1600);
#1011=PLANE('',#1601);
#1012=PLANE('',#1602);
#1013=PLANE('',#1603);
#1014=PLANE('',#1604);
#1015=PLANE('',#1605);
#1016=PLANE('',#1606);
#1017=PLANE('',#1607);
#1018=PLANE('',#1608);
#1019=PLANE('',#1609);
#1020=PLANE('',#1610);
#1021=PLANE('',#1611);
#1022=PLANE('',#1612);
#1023=PLANE('',#1613);
#1024=PLANE('',#1614);
#1025=PLANE('',#1615);
#1026=PLANE('',#1616);
#1027=PLANE('',#1617);
#1028=PLANE('',#1618);
#1029=PLANE('',#1619);
#1030=PLANE('',#1620);
#1031=PLANE('',#1621);
#1032=PLANE('',#1622);
#1033=PLANE('',#1623);
#1034=PLANE('',#1624);
#1035=PLANE('',#1625);
#1036=PLANE('',#1626);
#1037=PLANE('',#1627);
#1038=STYLED_ITEM('',(#1105),#1509);
#1039=STYLED_ITEM('',(#1106),#1510);
#1040=STYLED_ITEM('',(#1107),#1511);
#1041=STYLED_ITEM('',(#1108),#1512);
#1042=STYLED_ITEM('',(#1109),#1513);
#1043=STYLED_ITEM('',(#1110),#1514);
#1044=STYLED_ITEM('',(#1111),#1515);
#1045=STYLED_ITEM('',(#1112),#1516);
#1046=STYLED_ITEM('',(#1113),#1517);
#1047=STYLED_ITEM('',(#1114),#1518);
#1048=STYLED_ITEM('',(#1115),#1519);
#1049=STYLED_ITEM('',(#1116),#1520);
#1050=STYLED_ITEM('',(#1117),#1521);
#1051=STYLED_ITEM('',(#1118),#1522);
#1052=STYLED_ITEM('',(#1119),#1523);
#1053=STYLED_ITEM('',(#1120),#1524);
#1054=STYLED_ITEM('',(#1121),#1525);
#1055=STYLED_ITEM('',(#1122),#1526);
#1056=STYLED_ITEM('',(#1123),#1527);
#1057=STYLED_ITEM('',(#1124),#1528);
#1058=STYLED_ITEM('',(#1125),#1529);
#1059=STYLED_ITEM('',(#1126),#1530);
#1060=STYLED_ITEM('',(#1127),#1531);
#1061=STYLED_ITEM('',(#1128),#1532);
#1062=STYLED_ITEM('',(#1129),#1533);
#1063=STYLED_ITEM('',(#1130),#1534);
#1064=STYLED_ITEM('',(#1131),#1535);
#1065=STYLED_ITEM('',(#1132),#1536);
#1066=STYLED_ITEM('',(#1133),#1537);
#1067=STYLED_ITEM('',(#1134),#1538);
#1068=STYLED_ITEM('',(#1135),#1539);
#1069=STYLED_ITEM('',(#1136),#1540);
#1070=STYLED_ITEM('',(#1137),#1541);
#1071=STYLED_ITEM('',(#1138),#1542);
#1072=STYLED_ITEM('',(#1139),#1543);
#1073=STYLED_ITEM('',(#1140),#1544);
#1074=STYLED_ITEM('',(#1141),#1545);
#1075=STYLED_ITEM('',(#1142),#1546);
#1076=STYLED_ITEM('',(#1143),#1547);
#1077=STYLED_ITEM('',(#1144),#1548);
#1078=STYLED_ITEM('',(#1145),#1549);
#1079=STYLED_ITEM('',(#1146),#1550);
#1080=STYLED_ITEM('',(#1147),#1551);
#1081=STYLED_ITEM('',(#1148),#1552);
#1082=STYLED_ITEM('',(#1149),#1553);
#1083=STYLED_ITEM('',(#1150),#1554);
#1084=STYLED_ITEM('',(#1151),#1555);
#1085=STYLED_ITEM('',(#1152),#1556);
#1086=STYLED_ITEM('',(#1153),#1557);
#1087=STYLED_ITEM('',(#1154),#1558);
#1088=STYLED_ITEM('',(#1155),#1559);
#1089=STYLED_ITEM('',(#1156),#1560);
#1090=STYLED_ITEM('',(#1157),#1561);
#1091=STYLED_ITEM('',(#1158),#1562);
#1092=STYLED_ITEM('',(#1159),#1563);
#1093=STYLED_ITEM('',(#1160),#1564);
#1094=STYLED_ITEM('',(#1161),#1565);
#1095=STYLED_ITEM('',(#1162),#1566);
#1096=STYLED_ITEM('',(#1163),#1567);
#1097=STYLED_ITEM('',(#1164),#1568);
#1098=STYLED_ITEM('',(#1165),#1569);
#1099=STYLED_ITEM('',(#1166),#1570);
#1100=STYLED_ITEM('',(#1167),#1571);
#1101=STYLED_ITEM('',(#1168),#1572);
#1102=STYLED_ITEM('',(#1169),#1573);
#1103=STYLED_ITEM('',(#1170),#1574);
#1104=STYLED_ITEM('',(#1171),#1575);
#1105=PRESENTATION_STYLE_ASSIGNMENT((#1172));
#1106=PRESENTATION_STYLE_ASSIGNMENT((#1173));
#1107=PRESENTATION_STYLE_ASSIGNMENT((#1174));
#1108=PRESENTATION_STYLE_ASSIGNMENT((#1175));
#1109=PRESENTATION_STYLE_ASSIGNMENT((#1176));
#1110=PRESENTATION_STYLE_ASSIGNMENT((#1177));
#1111=PRESENTATION_STYLE_ASSIGNMENT((#1178));
#1112=PRESENTATION_STYLE_ASSIGNMENT((#1179));
#1113=PRESENTATION_STYLE_ASSIGNMENT((#1180));
#1114=PRESENTATION_STYLE_ASSIGNMENT((#1181));
#1115=PRESENTATION_STYLE_ASSIGNMENT((#1182));
#1116=PRESENTATION_STYLE_ASSIGNMENT((#1183));
#1117=PRESENTATION_STYLE_ASSIGNMENT((#1184));
#1118=PRESENTATION_STYLE_ASSIGNMENT((#1185));
#1119=PRESENTATION_STYLE_ASSIGNMENT((#1186));
#1120=PRESENTATION_STYLE_ASSIGNMENT((#1187));
#1121=PRESENTATION_STYLE_ASSIGNMENT((#1188));
#1122=PRESENTATION_STYLE_ASSIGNMENT((#1189));
#1123=PRESENTATION_STYLE_ASSIGNMENT((#1190));
#1124=PRESENTATION_STYLE_ASSIGNMENT((#1191));
#1125=PRESENTATION_STYLE_ASSIGNMENT((#1192));
#1126=PRESENTATION_STYLE_ASSIGNMENT((#1193));
#1127=PRESENTATION_STYLE_ASSIGNMENT((#1194));
#1128=PRESENTATION_STYLE_ASSIGNMENT((#1195));
#1129=PRESENTATION_STYLE_ASSIGNMENT((#1196));
#1130=PRESENTATION_STYLE_ASSIGNMENT((#1197));
#1131=PRESENTATION_STYLE_ASSIGNMENT((#1198));
#1132=PRESENTATION_STYLE_ASSIGNMENT((#1199));
#1133=PRESENTATION_STYLE_ASSIGNMENT((#1200));
#1134=PRESENTATION_STYLE_ASSIGNMENT((#1201));
#1135=PRESENTATION_STYLE_ASSIGNMENT((#1202));
#1136=PRESENTATION_STYLE_ASSIGNMENT((#1203));
#1137=PRESENTATION_STYLE_ASSIGNMENT((#1204));
#1138=PRESENTATION_STYLE_ASSIGNMENT((#1205));
#1139=PRESENTATION_STYLE_ASSIGNMENT((#1206));
#1140=PRESENTATION_STYLE_ASSIGNMENT((#1207));
#1141=PRESENTATION_STYLE_ASSIGNMENT((#1208));
#1142=PRESENTATION_STYLE_ASSIGNMENT((#1209));
#1143=PRESENTATION_STYLE_ASSIGNMENT((#1210));
#1144=PRESENTATION_STYLE_ASSIGNMENT((#1211));
#1145=PRESENTATION_STYLE_ASSIGNMENT((#1212));
#1146=PRESENTATION_STYLE_ASSIGNMENT((#1213));
#1147=PRESENTATION_STYLE_ASSIGNMENT((#1214));
#1148=PRESENTATION_STYLE_ASSIGNMENT((#1215));
#1149=PRESENTATION_STYLE_ASSIGNMENT((#1216));
#1150=PRESENTATION_STYLE_ASSIGNMENT((#1217));
#1151=PRESENTATION_STYLE_ASSIGNMENT((#1218));
#1152=PRESENTATION_STYLE_ASSIGNMENT((#1219));
#1153=PRESENTATION_STYLE_ASSIGNMENT((#1220));
#1154=PRESENTATION_STYLE_ASSIGNMENT((#1221));
#1155=PRESENTATION_STYLE_ASSIGNMENT((#1222));
#1156=PRESENTATION_STYLE_ASSIGNMENT((#1223));
#1157=PRESENTATION_STYLE_ASSIGNMENT((#1224));
#1158=PRESENTATION_STYLE_ASSIGNMENT((#1225));
#1159=PRESENTATION_STYLE_ASSIGNMENT((#1226));
#1160=PRESENTATION_STYLE_ASSIGNMENT((#1227));
#1161=PRESENTATION_STYLE_ASSIGNMENT((#1228));
#1162=PRESENTATION_STYLE_ASSIGNMENT((#1229));
#1163=PRESENTATION_STYLE_ASSIGNMENT((#1230));
#1164=PRESENTATION_STYLE_ASSIGNMENT((#1231));
#1165=PRESENTATION_STYLE_ASSIGNMENT((#1232));
#1166=PRESENTATION_STYLE_ASSIGNMENT((#1233));
#1167=PRESENTATION_STYLE_ASSIGNMENT((#1234));
#1168=PRESENTATION_STYLE_ASSIGNMENT((#1235));
#1169=PRESENTATION_STYLE_ASSIGNMENT((#1236));
#1170=PRESENTATION_STYLE_ASSIGNMENT((#1237));
#1171=PRESENTATION_STYLE_ASSIGNMENT((#1238));
#1172=SURFACE_STYLE_USAGE(.BOTH.,#1239);
#1173=SURFACE_STYLE_USAGE(.BOTH.,#1240);
#1174=SURFACE_STYLE_USAGE(.BOTH.,#1241);
#1175=SURFACE_STYLE_USAGE(.BOTH.,#1242);
#1176=SURFACE_STYLE_USAGE(.BOTH.,#1243);
#1177=SURFACE_STYLE_USAGE(.BOTH.,#1244);
#1178=SURFACE_STYLE_USAGE(.BOTH.,#1245);
#1179=SURFACE_STYLE_USAGE(.BOTH.,#1246);
#1180=SURFACE_STYLE_USAGE(.BOTH.,#1247);
#1181=SURFACE_STYLE_USAGE(.BOTH.,#1248);
#1182=SURFACE_STYLE_USAGE(.BOTH.,#1249);
#1183=SURFACE_STYLE_USAGE(.BOTH.,#1250);
#1184=SURFACE_STYLE_USAGE(.BOTH.,#1251);
#1185=SURFACE_STYLE_USAGE(.BOTH.,#1252);
#1186=SURFACE_STYLE_USAGE(.BOTH.,#1253);
#1187=SURFACE_STYLE_USAGE(.BOTH.,#1254);
#1188=SURFACE_STYLE_USAGE(.BOTH.,#1255);
#1189=SURFACE_STYLE_USAGE(.BOTH.,#1256);
#1190=SURFACE_STYLE_USAGE(.BOTH.,#1257);
#1191=SURFACE_STYLE_USAGE(.BOTH.,#1258);
#1192=SURFACE_STYLE_USAGE(.BOTH.,#1259);
#1193=SURFACE_STYLE_USAGE(.BOTH.,#1260);
#1194=SURFACE_STYLE_USAGE(.BOTH.,#1261);
#1195=SURFACE_STYLE_USAGE(.BOTH.,#1262);
#1196=SURFACE_STYLE_USAGE(.BOTH.,#1263);
#1197=SURFACE_STYLE_USAGE(.BOTH.,#1264);
#1198=SURFACE_STYLE_USAGE(.BOTH.,#1265);
#1199=SURFACE_STYLE_USAGE(.BOTH.,#1266);
#1200=SURFACE_STYLE_USAGE(.BOTH.,#1267);
#1201=SURFACE_STYLE_USAGE(.BOTH.,#1268);
#1202=SURFACE_STYLE_USAGE(.BOTH.,#1269);
#1203=SURFACE_STYLE_USAGE(.BOTH.,#1270);
#1204=SURFACE_STYLE_USAGE(.BOTH.,#1271);
#1205=SURFACE_STYLE_USAGE(.BOTH.,#1272);
#1206=SURFACE_STYLE_USAGE(.BOTH.,#1273);
#1207=SURFACE_STYLE_USAGE(.BOTH.,#1274);
#1208=SURFACE_STYLE_USAGE(.BOTH.,#1275);
#1209=SURFACE_STYLE_USAGE(.BOTH.,#1276);
#1210=SURFACE_STYLE_USAGE(.BOTH.,#1277);
#1211=SURFACE_STYLE_USAGE(.BOTH.,#1278);
#1212=SURFACE_STYLE_USAGE(.BOTH.,#1279);
#1213=SURFACE_STYLE_USAGE(.BOTH.,#1280);
#1214=SURFACE_STYLE_USAGE(.BOTH.,#1281);
#1215=SURFACE_STYLE_USAGE(.BOTH.,#1282);
#1216=SURFACE_STYLE_USAGE(.BOTH.,#1283);
#1217=SURFACE_STYLE_USAGE(.BOTH.,#1284);
#1218=SURFACE_STYLE_USAGE(.BOTH.,#1285);
#1219=SURFACE_STYLE_USAGE(.BOTH.,#1286);
#1220=SURFACE_STYLE_USAGE(.BOTH.,#1287);
#1221=SURFACE_STYLE_USAGE(.BOTH.,#1288);
#1222=SURFACE_STYLE_USAGE(.BOTH.,#1289);
#1223=SURFACE_STYLE_USAGE(.BOTH.,#1290);
#1224=SURFACE_STYLE_USAGE(.BOTH.,#1291);
#1225=SURFACE_STYLE_USAGE(.BOTH.,#1292);
#1226=SURFACE_STYLE_USAGE(.BOTH.,#1293);
#1227=SURFACE_STYLE_USAGE(.BOTH.,#1294);
#1228=SURFACE_STYLE_USAGE(.BOTH.,#1295);
#1229=SURFACE_STYLE_USAGE(.BOTH.,#1296);
#1230=SURFACE_STYLE_USAGE(.BOTH.,#1297);
#1231=SURFACE_STYLE_USAGE(.BOTH.,#1298);
#1232=SURFACE_STYLE_USAGE(.BOTH.,#1299);
#1233=SURFACE_STYLE_USAGE(.BOTH.,#1300);
#1234=SURFACE_STYLE_USAGE(.BOTH.,#1301);
#1235=SURFACE_STYLE_USAGE(.BOTH.,#1302);
#1236=SURFACE_STYLE_USAGE(.BOTH.,#1303);
#1237=SURFACE_STYLE_USAGE(.BOTH.,#1304);
#1238=SURFACE_STYLE_USAGE(.BOTH.,#1305);
#1239=SURFACE_SIDE_STYLE('',(#1306));
#1240=SURFACE_SIDE_STYLE('',(#1307));
#1241=SURFACE_SIDE_STYLE('',(#1308));
#1242=SURFACE_SIDE_STYLE('',(#1309));
#1243=SURFACE_SIDE_STYLE('',(#1310));
#1244=SURFACE_SIDE_STYLE('',(#1311));
#1245=SURFACE_SIDE_STYLE('',(#1312));
#1246=SURFACE_SIDE_STYLE('',(#1313));
#1247=SURFACE_SIDE_STYLE('',(#1314));
#1248=SURFACE_SIDE_STYLE('',(#1315));
#1249=SURFACE_SIDE_STYLE('',(#1316));
#1250=SURFACE_SIDE_STYLE('',(#1317));
#1251=SURFACE_SIDE_STYLE('',(#1318));
#1252=SURFACE_SIDE_STYLE('',(#1319));
#1253=SURFACE_SIDE_STYLE('',(#1320));
#1254=SURFACE_SIDE_STYLE('',(#1321));
#1255=SURFACE_SIDE_STYLE('',(#1322));
#1256=SURFACE_SIDE_STYLE('',(#1323));
#1257=SURFACE_SIDE_STYLE('',(#1324));
#1258=SURFACE_SIDE_STYLE('',(#1325));
#1259=SURFACE_SIDE_STYLE('',(#1326));
#1260=SURFACE_SIDE_STYLE('',(#1327));
#1261=SURFACE_SIDE_STYLE('',(#1328));
#1262=SURFACE_SIDE_STYLE('',(#1329));
#1263=SURFACE_SIDE_STYLE('',(#1330));
#1264=SURFACE_SIDE_STYLE('',(#1331));
#1265=SURFACE_SIDE_STYLE('',(#1332));
#1266=SURFACE_SIDE_STYLE('',(#1333));
#1267=SURFACE_SIDE_STYLE('',(#1334));
#1268=SURFACE_SIDE_STYLE('',(#1335));
#1269=SURFACE_SIDE_STYLE('',(#1336));
#1270=SURFACE_SIDE_STYLE('',(#1337));
#1271=SURFACE_SIDE_STYLE('',(#1338));
#1272=SURFACE_SIDE_STYLE('',(#1339));
#1273=SURFACE_SIDE_STYLE('',(#1340));
#1274=SURFACE_SIDE_STYLE('',(#1341));
#1275=SURFACE_SIDE_STYLE('',(#1342));
#1276=SURFACE_SIDE_STYLE('',(#1343));
#1277=SURFACE_SIDE_STYLE('',(#1344));
#1278=SURFACE_SIDE_STYLE('',(#1345));
#1279=SURFACE_SIDE_STYLE('',(#1346));
#1280=SURFACE_SIDE_STYLE('',(#1347));
#1281=SURFACE_SIDE_STYLE('',(#1348));
#1282=SURFACE_SIDE_STYLE('',(#1349));
#1283=SURFACE_SIDE_STYLE('',(#1350));
#1284=SURFACE_SIDE_STYLE('',(#1351));
#1285=SURFACE_SIDE_STYLE('',(#1352));
#1286=SURFACE_SIDE_STYLE('',(#1353));
#1287=SURFACE_SIDE_STYLE('',(#1354));
#1288=SURFACE_SIDE_STYLE('',(#1355));
#1289=SURFACE_SIDE_STYLE('',(#1356));
#1290=SURFACE_SIDE_STYLE('',(#1357));
#1291=SURFACE_SIDE_STYLE('',(#1358));
#1292=SURFACE_SIDE_STYLE('',(#1359));
#1293=SURFACE_SIDE_STYLE('',(#1360));
#1294=SURFACE_SIDE_STYLE('',(#1361));
#1295=SURFACE_SIDE_STYLE('',(#1362));
#1296=SURFACE_SIDE_STYLE('',(#1363));
#1297=SURFACE_SIDE_STYLE('',(#1364));
#1298=SURFACE_SIDE_STYLE('',(#1365));
#1299=SURFACE_SIDE_STYLE('',(#1366));
#1300=SURFACE_SIDE_STYLE('',(#1367));
#1301=SURFACE_SIDE_STYLE('',(#1368));
#1302=SURFACE_SIDE_STYLE('',(#1369));
#1303=SURFACE_SIDE_STYLE('',(#1370));
#1304=SURFACE_SIDE_STYLE('',(#1371));
#1305=SURFACE_SIDE_STYLE('',(#1372));
#1306=SURFACE_STYLE_FILL_AREA(#1373);
#1307=SURFACE_STYLE_FILL_AREA(#1374);
#1308=SURFACE_STYLE_FILL_AREA(#1375);
#1309=SURFACE_STYLE_FILL_AREA(#1376);
#1310=SURFACE_STYLE_FILL_AREA(#1377);
#1311=SURFACE_STYLE_FILL_AREA(#1378);
#1312=SURFACE_STYLE_FILL_AREA(#1379);
#1313=SURFACE_STYLE_FILL_AREA(#1380);
#1314=SURFACE_STYLE_FILL_AREA(#1381);
#1315=SURFACE_STYLE_FILL_AREA(#1382);
#1316=SURFACE_STYLE_FILL_AREA(#1383);
#1317=SURFACE_STYLE_FILL_AREA(#1384);
#1318=SURFACE_STYLE_FILL_AREA(#1385);
#1319=SURFACE_STYLE_FILL_AREA(#1386);
#1320=SURFACE_STYLE_FILL_AREA(#1387);
#1321=SURFACE_STYLE_FILL_AREA(#1388);
#1322=SURFACE_STYLE_FILL_AREA(#1389);
#1323=SURFACE_STYLE_FILL_AREA(#1390);
#1324=SURFACE_STYLE_FILL_AREA(#1391);
#1325=SURFACE_STYLE_FILL_AREA(#1392);
#1326=SURFACE_STYLE_FILL_AREA(#1393);
#1327=SURFACE_STYLE_FILL_AREA(#1394);
#1328=SURFACE_STYLE_FILL_AREA(#1395);
#1329=SURFACE_STYLE_FILL_AREA(#1396);
#1330=SURFACE_STYLE_FILL_AREA(#1397);
#1331=SURFACE_STYLE_FILL_AREA(#1398);
#1332=SURFACE_STYLE_FILL_AREA(#1399);
#1333=SURFACE_STYLE_FILL_AREA(#1400);
#1334=SURFACE_STYLE_FILL_AREA(#1401);
#1335=SURFACE_STYLE_FILL_AREA(#1402);
#1336=SURFACE_STYLE_FILL_AREA(#1403);
#1337=SURFACE_STYLE_FILL_AREA(#1404);
#1338=SURFACE_STYLE_FILL_AREA(#1405);
#1339=SURFACE_STYLE_FILL_AREA(#1406);
#1340=SURFACE_STYLE_FILL_AREA(#1407);
#1341=SURFACE_STYLE_FILL_AREA(#1408);
#1342=SURFACE_STYLE_FILL_AREA(#1409);
#1343=SURFACE_STYLE_FILL_AREA(#1410);
#1344=SURFACE_STYLE_FILL_AREA(#1411);
#1345=SURFACE_STYLE_FILL_AREA(#1412);
#1346=SURFACE_STYLE_FILL_AREA(#1413);
#1347=SURFACE_STYLE_FILL_AREA(#1414);
#1348=SURFACE_STYLE_FILL_AREA(#1415);
#1349=SURFACE_STYLE_FILL_AREA(#1416);
#1350=SURFACE_STYLE_FILL_AREA(#1417);
#1351=SURFACE_STYLE_FILL_AREA(#1418);
#1352=SURFACE_STYLE_FILL_AREA(#1419);
#1353=SURFACE_STYLE_FILL_AREA(#1420);
#1354=SURFACE_STYLE_FILL_AREA(#1421);
#1355=SURFACE_STYLE_FILL_AREA(#1422);
#1356=SURFACE_STYLE_FILL_AREA(#1423);
#1357=SURFACE_STYLE_FILL_AREA(#1424);
#1358=SURFACE_STYLE_FILL_AREA(#1425);
#1359=SURFACE_STYLE_FILL_AREA(#1426);
#1360=SURFACE_STYLE_FILL_AREA(#1427);
#1361=SURFACE_STYLE_FILL_AREA(#1428);
#1362=SURFACE_STYLE_FILL_AREA(#1429);
#1363=SURFACE_STYLE_FILL_AREA(#1430);
#1364=SURFACE_STYLE_FILL_AREA(#1431);
#1365=SURFACE_STYLE_FILL_AREA(#1432);
#1366=SURFACE_STYLE_FILL_AREA(#1433);
#1367=SURFACE_STYLE_FILL_AREA(#1434);
#1368=SURFACE_STYLE_FILL_AREA(#1435);
#1369=SURFACE_STYLE_FILL_AREA(#1436);
#1370=SURFACE_STYLE_FILL_AREA(#1437);
#1371=SURFACE_STYLE_FILL_AREA(#1438);
#1372=SURFACE_STYLE_FILL_AREA(#1439);
#1373=FILL_AREA_STYLE('',(#1440));
#1374=FILL_AREA_STYLE('',(#1441));
#1375=FILL_AREA_STYLE('',(#1442));
#1376=FILL_AREA_STYLE('',(#1443));
#1377=FILL_AREA_STYLE('',(#1444));
#1378=FILL_AREA_STYLE('',(#1445));
#1379=FILL_AREA_STYLE('',(#1446));
#1380=FILL_AREA_STYLE('',(#1447));
#1381=FILL_AREA_STYLE('',(#1448));
#1382=FILL_AREA_STYLE('',(#1449));
#1383=FILL_AREA_STYLE('',(#1450));
#1384=FILL_AREA_STYLE('',(#1451));
#1385=FILL_AREA_STYLE('',(#1452));
#1386=FILL_AREA_STYLE('',(#1453));
#1387=FILL_AREA_STYLE('',(#1454));
#1388=FILL_AREA_STYLE('',(#1455));
#1389=FILL_AREA_STYLE('',(#1456));
#1390=FILL_AREA_STYLE('',(#1457));
#1391=FILL_AREA_STYLE('',(#1458));
#1392=FILL_AREA_STYLE('',(#1459));
#1393=FILL_AREA_STYLE('',(#1460));
#1394=FILL_AREA_STYLE('',(#1461));
#1395=FILL_AREA_STYLE('',(#1462));
#1396=FILL_AREA_STYLE('',(#1463));
#1397=FILL_AREA_STYLE('',(#1464));
#1398=FILL_AREA_STYLE('',(#1465));
#1399=FILL_AREA_STYLE('',(#1466));
#1400=FILL_AREA_STYLE('',(#1467));
#1401=FILL_AREA_STYLE('',(#1468));
#1402=FILL_AREA_STYLE('',(#1469));
#1403=FILL_AREA_STYLE('',(#1470));
#1404=FILL_AREA_STYLE('',(#1471));
#1405=FILL_AREA_STYLE('',(#1472));
#1406=FILL_AREA_STYLE('',(#1473));
#1407=FILL_AREA_STYLE('',(#1474));
#1408=FILL_AREA_STYLE('',(#1475));
#1409=FILL_AREA_STYLE('',(#1476));
#1410=FILL_AREA_STYLE('',(#1477));
#1411=FILL_AREA_STYLE('',(#1478));
#1412=FILL_AREA_STYLE('',(#1479));
#1413=FILL_AREA_STYLE('',(#1480));
#1414=FILL_AREA_STYLE('',(#1481));
#1415=FILL_AREA_STYLE('',(#1482));
#1416=FILL_AREA_STYLE('',(#1483));
#1417=FILL_AREA_STYLE('',(#1484));
#1418=FILL_AREA_STYLE('',(#1485));
#1419=FILL_AREA_STYLE('',(#1486));
#1420=FILL_AREA_STYLE('',(#1487));
#1421=FILL_AREA_STYLE('',(#1488));
#1422=FILL_AREA_STYLE('',(#1489));
#1423=FILL_AREA_STYLE('',(#1490));
#1424=FILL_AREA_STYLE('',(#1491));
#1425=FILL_AREA_STYLE('',(#1492));
#1426=FILL_AREA_STYLE('',(#1493));
#1427=FILL_AREA_STYLE('',(#1494));
#1428=FILL_AREA_STYLE('',(#1495));
#1429=FILL_AREA_STYLE('',(#1496));
#1430=FILL_AREA_STYLE('',(#1497));
#1431=FILL_AREA_STYLE('',(#1498));
#1432=FILL_AREA_STYLE('',(#1499));
#1433=FILL_AREA_STYLE('',(#1500));
#1434=FILL_AREA_STYLE('',(#1501));
#1435=FILL_AREA_STYLE('',(#1502));
#1436=FILL_AREA_STYLE('',(#1503));
#1437=FILL_AREA_STYLE('',(#1504));
#1438=FILL_AREA_STYLE('',(#1505));
#1439=FILL_AREA_STYLE('',(#1506));
#1440=FILL_AREA_STYLE_COLOUR('',#1507);
#1441=FILL_AREA_STYLE_COLOUR('',#1507);
#1442=FILL_AREA_STYLE_COLOUR('',#1507);
#1443=FILL_AREA_STYLE_COLOUR('',#1507);
#1444=FILL_AREA_STYLE_COLOUR('',#1507);
#1445=FILL_AREA_STYLE_COLOUR('',#1507);
#1446=FILL_AREA_STYLE_COLOUR('',#1507);
#1447=FILL_AREA_STYLE_COLOUR('',#1507);
#1448=FILL_AREA_STYLE_COLOUR('',#1507);
#1449=FILL_AREA_STYLE_COLOUR('',#1507);
#1450=FILL_AREA_STYLE_COLOUR('',#1507);
#1451=FILL_AREA_STYLE_COLOUR('',#1507);
#1452=FILL_AREA_STYLE_COLOUR('',#1507);
#1453=FILL_AREA_STYLE_COLOUR('',#1507);
#1454=FILL_AREA_STYLE_COLOUR('',#1507);
#1455=FILL_AREA_STYLE_COLOUR('',#1507);
#1456=FILL_AREA_STYLE_COLOUR('',#1507);
#1457=FILL_AREA_STYLE_COLOUR('',#1507);
#1458=FILL_AREA_STYLE_COLOUR('',#1507);
#1459=FILL_AREA_STYLE_COLOUR('',#1507);
#1460=FILL_AREA_STYLE_COLOUR('',#1507);
#1461=FILL_AREA_STYLE_COLOUR('',#1507);
#1462=FILL_AREA_STYLE_COLOUR('',#1507);
#1463=FILL_AREA_STYLE_COLOUR('',#1507);
#1464=FILL_AREA_STYLE_COLOUR('',#1507);
#1465=FILL_AREA_STYLE_COLOUR('',#1507);
#1466=FILL_AREA_STYLE_COLOUR('',#1507);
#1467=FILL_AREA_STYLE_COLOUR('',#1507);
#1468=FILL_AREA_STYLE_COLOUR('',#1507);
#1469=FILL_AREA_STYLE_COLOUR('',#1507);
#1470=FILL_AREA_STYLE_COLOUR('',#1507);
#1471=FILL_AREA_STYLE_COLOUR('',#1508);
#1472=FILL_AREA_STYLE_COLOUR('',#1507);
#1473=FILL_AREA_STYLE_COLOUR('',#1507);
#1474=FILL_AREA_STYLE_COLOUR('',#1507);
#1475=FILL_AREA_STYLE_COLOUR('',#1507);
#1476=FILL_AREA_STYLE_COLOUR('',#1507);
#1477=FILL_AREA_STYLE_COLOUR('',#1508);
#1478=FILL_AREA_STYLE_COLOUR('',#1508);
#1479=FILL_AREA_STYLE_COLOUR('',#1508);
#1480=FILL_AREA_STYLE_COLOUR('',#1508);
#1481=FILL_AREA_STYLE_COLOUR('',#1508);
#1482=FILL_AREA_STYLE_COLOUR('',#1507);
#1483=FILL_AREA_STYLE_COLOUR('',#1507);
#1484=FILL_AREA_STYLE_COLOUR('',#1507);
#1485=FILL_AREA_STYLE_COLOUR('',#1507);
#1486=FILL_AREA_STYLE_COLOUR('',#1507);
#1487=FILL_AREA_STYLE_COLOUR('',#1508);
#1488=FILL_AREA_STYLE_COLOUR('',#1508);
#1489=FILL_AREA_STYLE_COLOUR('',#1508);
#1490=FILL_AREA_STYLE_COLOUR('',#1508);
#1491=FILL_AREA_STYLE_COLOUR('',#1508);
#1492=FILL_AREA_STYLE_COLOUR('',#1508);
#1493=FILL_AREA_STYLE_COLOUR('',#1508);
#1494=FILL_AREA_STYLE_COLOUR('',#1508);
#1495=FILL_AREA_STYLE_COLOUR('',#1508);
#1496=FILL_AREA_STYLE_COLOUR('',#1508);
#1497=FILL_AREA_STYLE_COLOUR('',#1508);
#1498=FILL_AREA_STYLE_COLOUR('',#1508);
#1499=FILL_AREA_STYLE_COLOUR('',#1508);
#1500=FILL_AREA_STYLE_COLOUR('',#1508);
#1501=FILL_AREA_STYLE_COLOUR('',#1508);
#1502=FILL_AREA_STYLE_COLOUR('',#1508);
#1503=FILL_AREA_STYLE_COLOUR('',#1508);
#1504=FILL_AREA_STYLE_COLOUR('',#1508);
#1505=FILL_AREA_STYLE_COLOUR('',#1508);
#1506=FILL_AREA_STYLE_COLOUR('',#1508);
#1507=COLOUR_RGB('',0.800000011920929,0.666434764862061,0.319999992847443);
#1508=COLOUR_RGB('',0.200000002980232,0.200000002980232,0.200000002980232);
#1509=ADVANCED_FACE('',(#916),#991,.T.);
#1510=ADVANCED_FACE('',(#917),#992,.F.);
#1511=ADVANCED_FACE('',(#918),#993,.F.);
#1512=ADVANCED_FACE('',(#919),#994,.F.);
#1513=ADVANCED_FACE('',(#920),#995,.F.);
#1514=ADVANCED_FACE('',(#921),#996,.T.);
#1515=ADVANCED_FACE('',(#922),#997,.F.);
#1516=ADVANCED_FACE('',(#923),#998,.F.);
#1517=ADVANCED_FACE('',(#924),#999,.F.);
#1518=ADVANCED_FACE('',(#925),#1000,.F.);
#1519=ADVANCED_FACE('',(#926),#1001,.T.);
#1520=ADVANCED_FACE('',(#927),#1002,.T.);
#1521=ADVANCED_FACE('',(#928),#1003,.T.);
#1522=ADVANCED_FACE('',(#929),#1004,.T.);
#1523=ADVANCED_FACE('',(#930),#1005,.T.);
#1524=ADVANCED_FACE('',(#931),#1006,.T.);
#1525=ADVANCED_FACE('',(#932),#1007,.T.);
#1526=ADVANCED_FACE('',(#933),#1008,.T.);
#1527=ADVANCED_FACE('',(#934),#1009,.T.);
#1528=ADVANCED_FACE('',(#935),#1010,.T.);
#1529=ADVANCED_FACE('',(#936),#1011,.T.);
#1530=ADVANCED_FACE('',(#937),#1012,.T.);
#1531=ADVANCED_FACE('',(#938),#1013,.T.);
#1532=ADVANCED_FACE('',(#939),#1014,.T.);
#1533=ADVANCED_FACE('',(#940),#1015,.T.);
#1534=ADVANCED_FACE('',(#941),#1016,.T.);
#1535=ADVANCED_FACE('',(#942),#1017,.T.);
#1536=ADVANCED_FACE('',(#943),#1018,.F.);
#1537=ADVANCED_FACE('',(#944),#1019,.F.);
#1538=ADVANCED_FACE('',(#945),#1020,.F.);
#1539=ADVANCED_FACE('',(#946),#1021,.F.);
#1540=ADVANCED_FACE('',(#947,#948),#1022,.T.);
#1541=ADVANCED_FACE('',(#949),#1023,.T.);
#1542=ADVANCED_FACE('',(#950),#1024,.T.);
#1543=ADVANCED_FACE('',(#951),#1025,.T.);
#1544=ADVANCED_FACE('',(#952),#1026,.T.);
#1545=ADVANCED_FACE('',(#953),#1027,.T.);
#1546=ADVANCED_FACE('',(#954,#955,#956),#1028,.T.);
#1547=ADVANCED_FACE('',(#957),#1029,.F.);
#1548=ADVANCED_FACE('',(#958,#959,#960),#1030,.T.);
#1549=ADVANCED_FACE('',(#961,#962,#963),#1031,.T.);
#1550=ADVANCED_FACE('',(#964,#965),#1032,.T.);
#1551=ADVANCED_FACE('',(#966),#1033,.F.);
#1552=ADVANCED_FACE('',(#967),#1034,.F.);
#1553=ADVANCED_FACE('',(#968),#1035,.F.);
#1554=ADVANCED_FACE('',(#969),#1036,.F.);
#1555=ADVANCED_FACE('',(#970),#1037,.T.);
#1556=ADVANCED_FACE('',(#971),#52,.T.);
#1557=ADVANCED_FACE('',(#972),#20,.T.);
#1558=ADVANCED_FACE('',(#973),#21,.T.);
#1559=ADVANCED_FACE('',(#974),#53,.T.);
#1560=ADVANCED_FACE('',(#975),#54,.T.);
#1561=ADVANCED_FACE('',(#976),#55,.T.);
#1562=ADVANCED_FACE('',(#977),#56,.T.);
#1563=ADVANCED_FACE('',(#978),#57,.T.);
#1564=ADVANCED_FACE('',(#979),#58,.T.);
#1565=ADVANCED_FACE('',(#980),#22,.T.);
#1566=ADVANCED_FACE('',(#981),#23,.T.);
#1567=ADVANCED_FACE('',(#982),#24,.T.);
#1568=ADVANCED_FACE('',(#983),#25,.T.);
#1569=ADVANCED_FACE('',(#984),#59,.T.);
#1570=ADVANCED_FACE('',(#985),#60,.T.);
#1571=ADVANCED_FACE('',(#986),#61,.T.);
#1572=ADVANCED_FACE('',(#987),#62,.T.);
#1573=ADVANCED_FACE('',(#988),#26,.T.);
#1574=ADVANCED_FACE('',(#989),#27,.T.);
#1575=ADVANCED_FACE('',(#990),#63,.T.);
#1576=CLOSED_SHELL('',(#1509,#1510,#1511,#1512,#1513,#1514,#1515,#1516,
#1517,#1518,#1519,#1520,#1521,#1522,#1523,#1524,#1525,#1526,#1527,#1528,
#1529,#1530,#1531,#1532,#1533,#1534,#1535,#1536,#1537,#1538,#1539,#1540,
#1541,#1542,#1543,#1544,#1545,#1546,#1547,#1548,#1549,#1550,#1551,#1552,
#1553,#1554,#1555,#1556,#1557,#1558,#1559,#1560,#1561,#1562,#1563,#1564,
#1565,#1566,#1567,#1568,#1569,#1570,#1571,#1572,#1573,#1574,#1575));
#1577=MANIFOLD_SOLID_BREP('',#1576);
#1578=SHAPE_DEFINITION_REPRESENTATION(#2290,#1579);
#1579=SHAPE_REPRESENTATION('SP0201B-ULC-01UTG',(#1580),#2285);
#1580=AXIS2_PLACEMENT_3D('',#1979,#1672,#1673);
#1581=AXIS2_PLACEMENT_3D('',#1980,#1674,#1675);
#1582=AXIS2_PLACEMENT_3D('',#1989,#1680,#1681);
#1583=AXIS2_PLACEMENT_3D('',#1998,#1686,#1687);
#1584=AXIS2_PLACEMENT_3D('',#2007,#1692,#1693);
#1585=AXIS2_PLACEMENT_3D('',#2016,#1698,#1699);
#1586=AXIS2_PLACEMENT_3D('',#2025,#1704,#1705);
#1587=AXIS2_PLACEMENT_3D('',#2034,#1710,#1711);
#1588=AXIS2_PLACEMENT_3D('',#2040,#1715,#1716);
#1589=AXIS2_PLACEMENT_3D('',#2044,#1719,#1720);
#1590=AXIS2_PLACEMENT_3D('',#2048,#1723,#1724);
#1591=AXIS2_PLACEMENT_3D('',#2050,#1726,#1727);
#1592=AXIS2_PLACEMENT_3D('',#2061,#1733,#1734);
#1593=AXIS2_PLACEMENT_3D('',#2067,#1738,#1739);
#1594=AXIS2_PLACEMENT_3D('',#2071,#1742,#1743);
#1595=AXIS2_PLACEMENT_3D('',#2075,#1746,#1747);
#1596=AXIS2_PLACEMENT_3D('',#2077,#1749,#1750);
#1597=AXIS2_PLACEMENT_3D('',#2083,#1754,#1755);
#1598=AXIS2_PLACEMENT_3D('',#2087,#1758,#1759);
#1599=AXIS2_PLACEMENT_3D('',#2091,#1762,#1763);
#1600=AXIS2_PLACEMENT_3D('',#2093,#1765,#1766);
#1601=AXIS2_PLACEMENT_3D('',#2099,#1770,#1771);
#1602=AXIS2_PLACEMENT_3D('',#2103,#1774,#1775);
#1603=AXIS2_PLACEMENT_3D('',#2107,#1778,#1779);
#1604=AXIS2_PLACEMENT_3D('',#2109,#1781,#1782);
#1605=AXIS2_PLACEMENT_3D('',#2115,#1786,#1787);
#1606=AXIS2_PLACEMENT_3D('',#2119,#1790,#1791);
#1607=AXIS2_PLACEMENT_3D('',#2123,#1794,#1795);
#1608=AXIS2_PLACEMENT_3D('',#2125,#1797,#1798);
#1609=AXIS2_PLACEMENT_3D('',#2131,#1802,#1803);
#1610=AXIS2_PLACEMENT_3D('',#2135,#1806,#1807);
#1611=AXIS2_PLACEMENT_3D('',#2139,#1810,#1811);
#1612=AXIS2_PLACEMENT_3D('',#2141,#1813,#1814);
#1613=AXIS2_PLACEMENT_3D('',#2150,#1819,#1820);
#1614=AXIS2_PLACEMENT_3D('',#2156,#1824,#1825);
#1615=AXIS2_PLACEMENT_3D('',#2160,#1828,#1829);
#1616=AXIS2_PLACEMENT_3D('',#2164,#1832,#1833);
#1617=AXIS2_PLACEMENT_3D('',#2168,#1836,#1837);
#1618=AXIS2_PLACEMENT_3D('',#2170,#1839,#1840);
#1619=AXIS2_PLACEMENT_3D('',#2179,#1845,#1846);
#1620=AXIS2_PLACEMENT_3D('',#2188,#1851,#1852);
#1621=AXIS2_PLACEMENT_3D('',#2197,#1857,#1858);
#1622=AXIS2_PLACEMENT_3D('',#2206,#1863,#1864);
#1623=AXIS2_PLACEMENT_3D('',#2223,#1873,#1874);
#1624=AXIS2_PLACEMENT_3D('',#2229,#1878,#1879);
#1625=AXIS2_PLACEMENT_3D('',#2233,#1882,#1883);
#1626=AXIS2_PLACEMENT_3D('',#2237,#1886,#1887);
#1627=AXIS2_PLACEMENT_3D('',#2239,#1889,#1890);
#1628=AXIS2_PLACEMENT_3D('',#2240,#1891,#1892);
#1629=AXIS2_PLACEMENT_3D('',#2241,#1893,#1894);
#1630=AXIS2_PLACEMENT_3D('',#2242,#1895,#1896);
#1631=AXIS2_PLACEMENT_3D('',#2243,#1897,#1898);
#1632=AXIS2_PLACEMENT_3D('',#2244,#1899,#1900);
#1633=AXIS2_PLACEMENT_3D('',#2245,#1901,#1902);
#1634=AXIS2_PLACEMENT_3D('',#2246,#1903,#1904);
#1635=AXIS2_PLACEMENT_3D('',#2247,#1905,#1906);
#1636=AXIS2_PLACEMENT_3D('',#2248,#1907,#1908);
#1637=AXIS2_PLACEMENT_3D('',#2249,#1909,#1910);
#1638=AXIS2_PLACEMENT_3D('',#2250,#1911,#1912);
#1639=AXIS2_PLACEMENT_3D('',#2251,#1913,#1914);
#1640=AXIS2_PLACEMENT_3D('',#2252,#1915,#1916);
#1641=AXIS2_PLACEMENT_3D('',#2253,#1917,#1918);
#1642=AXIS2_PLACEMENT_3D('',#2254,#1919,#1920);
#1643=AXIS2_PLACEMENT_3D('',#2255,#1921,#1922);
#1644=AXIS2_PLACEMENT_3D('',#2256,#1923,#1924);
#1645=AXIS2_PLACEMENT_3D('',#2257,#1925,#1926);
#1646=AXIS2_PLACEMENT_3D('',#2258,#1927,#1928);
#1647=AXIS2_PLACEMENT_3D('',#2259,#1929,#1930);
#1648=AXIS2_PLACEMENT_3D('',#2260,#1931,#1932);
#1649=AXIS2_PLACEMENT_3D('',#2261,#1933,#1934);
#1650=AXIS2_PLACEMENT_3D('',#2262,#1935,#1936);
#1651=AXIS2_PLACEMENT_3D('',#2263,#1937,#1938);
#1652=AXIS2_PLACEMENT_3D('',#2264,#1939,#1940);
#1653=AXIS2_PLACEMENT_3D('',#2265,#1941,#1942);
#1654=AXIS2_PLACEMENT_3D('',#2266,#1943,#1944);
#1655=AXIS2_PLACEMENT_3D('',#2267,#1945,#1946);
#1656=AXIS2_PLACEMENT_3D('',#2268,#1947,#1948);
#1657=AXIS2_PLACEMENT_3D('',#2269,#1949,#1950);
#1658=AXIS2_PLACEMENT_3D('',#2270,#1951,#1952);
#1659=AXIS2_PLACEMENT_3D('',#2271,#1953,#1954);
#1660=AXIS2_PLACEMENT_3D('',#2272,#1955,#1956);
#1661=AXIS2_PLACEMENT_3D('',#2273,#1957,#1958);
#1662=AXIS2_PLACEMENT_3D('',#2274,#1959,#1960);
#1663=AXIS2_PLACEMENT_3D('',#2275,#1961,#1962);
#1664=AXIS2_PLACEMENT_3D('',#2276,#1963,#1964);
#1665=AXIS2_PLACEMENT_3D('',#2277,#1965,#1966);
#1666=AXIS2_PLACEMENT_3D('',#2278,#1967,#1968);
#1667=AXIS2_PLACEMENT_3D('',#2279,#1969,#1970);
#1668=AXIS2_PLACEMENT_3D('',#2280,#1971,#1972);
#1669=AXIS2_PLACEMENT_3D('',#2281,#1973,#1974);
#1670=AXIS2_PLACEMENT_3D('',#2282,#1975,#1976);
#1671=AXIS2_PLACEMENT_3D('',#2283,#1977,#1978);
#1672=DIRECTION('',(0.,0.,1.));
#1673=DIRECTION('',(1.,0.,0.));
#1674=DIRECTION('',(-1.,0.,0.));
#1675=DIRECTION('',(0.,0.,1.));
#1676=DIRECTION('',(0.,1.,1.10221996070179E-16));
#1677=DIRECTION('',(0.,1.89887404063023E-16,-1.));
#1678=DIRECTION('',(0.,-1.,-1.10221996070179E-16));
#1679=DIRECTION('',(0.,0.,1.));
#1680=DIRECTION('',(0.,1.,0.));
#1681=DIRECTION('',(0.,0.,-1.));
#1682=DIRECTION('',(0.,0.,-1.));
#1683=DIRECTION('',(1.,0.,0.));
#1684=DIRECTION('',(0.,0.,1.));
#1685=DIRECTION('',(-1.,0.,0.));
#1686=DIRECTION('',(0.,1.,0.));
#1687=DIRECTION('',(0.,0.,-1.));
#1688=DIRECTION('',(1.,0.,1.05161484609732E-16));
#1689=DIRECTION('',(0.,0.,1.));
#1690=DIRECTION('',(-1.,0.,0.));
#1691=DIRECTION('',(0.,0.,-1.));
#1692=DIRECTION('',(0.,-1.,0.));
#1693=DIRECTION('',(0.,0.,-1.));
#1694=DIRECTION('',(1.,0.,1.05161484609732E-16));
#1695=DIRECTION('',(0.,0.,-1.));
#1696=DIRECTION('',(-1.,0.,0.));
#1697=DIRECTION('',(0.,0.,1.));
#1698=DIRECTION('',(0.,-1.,0.));
#1699=DIRECTION('',(0.,0.,-1.));
#1700=DIRECTION('',(0.,0.,-1.));
#1701=DIRECTION('',(-1.,0.,0.));
#1702=DIRECTION('',(0.,0.,1.));
#1703=DIRECTION('',(1.,0.,0.));
#1704=DIRECTION('',(0.,0.,-1.));
#1705=DIRECTION('',(-1.,0.,0.));
#1706=DIRECTION('',(2.71050543121376E-16,-1.,0.));
#1707=DIRECTION('',(-1.,0.,0.));
#1708=DIRECTION('',(2.71050543121376E-16,1.,0.));
#1709=DIRECTION('',(1.,0.,0.));
#1710=DIRECTION('',(0.,-1.,-1.89887404063023E-16));
#1711=DIRECTION('',(0.,1.89887404063023E-16,-1.));
#1712=DIRECTION('',(0.,1.89887404063023E-16,-1.));
#1713=DIRECTION('',(1.,0.,0.));
#1714=DIRECTION('',(1.,0.,0.));
#1715=DIRECTION('',(0.,-1.10221996070179E-16,1.));
#1716=DIRECTION('',(0.,-1.,-1.10221996070179E-16));
#1717=DIRECTION('',(0.,-1.,-1.10221996070179E-16));
#1718=DIRECTION('',(1.,0.,0.));
#1719=DIRECTION('',(0.,1.,0.));
#1720=DIRECTION('',(0.,0.,1.));
#1721=DIRECTION('',(0.,0.,1.));
#1722=DIRECTION('',(1.,0.,0.));
#1723=DIRECTION('',(0.,1.10221996070179E-16,-1.));
#1724=DIRECTION('',(0.,1.,1.10221996070179E-16));
#1725=DIRECTION('',(0.,1.,1.10221996070179E-16));
#1726=DIRECTION('',(0.,0.,-1.));
#1727=DIRECTION('',(-1.,0.,0.));
#1728=DIRECTION('',(0.,1.,0.));
#1729=DIRECTION('',(1.,-2.25875452601147E-16,0.));
#1730=DIRECTION('',(0.,-1.,0.));
#1731=DIRECTION('',(-0.71719344288521,-0.69687413891065,0.));
#1732=DIRECTION('',(-1.,-1.62613345372094E-16,0.));
#1733=DIRECTION('',(0.,0.,-1.));
#1734=DIRECTION('',(-1.,0.,0.));
#1735=DIRECTION('',(1.,0.,0.));
#1736=DIRECTION('',(0.,1.,0.));
#1737=DIRECTION('',(0.,1.,0.));
#1738=DIRECTION('',(1.,0.,0.));
#1739=DIRECTION('',(0.,0.,-1.));
#1740=DIRECTION('',(0.,0.,1.));
#1741=DIRECTION('',(0.,1.,0.));
#1742=DIRECTION('',(0.,0.,1.));
#1743=DIRECTION('',(1.,0.,0.));
#1744=DIRECTION('',(-1.,0.,0.));
#1745=DIRECTION('',(0.,1.,0.));
#1746=DIRECTION('',(-1.,0.,0.));
#1747=DIRECTION('',(0.,0.,1.));
#1748=DIRECTION('',(0.,0.,-1.));
#1749=DIRECTION('',(1.,0.,0.));
#1750=DIRECTION('',(0.,0.,-1.));
#1751=DIRECTION('',(0.,0.,1.));
#1752=DIRECTION('',(0.,1.,0.));
#1753=DIRECTION('',(0.,1.,0.));
#1754=DIRECTION('',(0.,0.,1.));
#1755=DIRECTION('',(1.,0.,0.));
#1756=DIRECTION('',(-1.,0.,0.));
#1757=DIRECTION('',(0.,1.,0.));
#1758=DIRECTION('',(-1.,0.,0.));
#1759=DIRECTION('',(0.,0.,1.));
#1760=DIRECTION('',(0.,0.,-1.));
#1761=DIRECTION('',(0.,1.,0.));
#1762=DIRECTION('',(1.05161484609732E-16,0.,-1.));
#1763=DIRECTION('',(-1.,0.,-1.05161484609732E-16));
#1764=DIRECTION('',(1.,0.,1.05161484609732E-16));
#1765=DIRECTION('',(0.,0.,1.));
#1766=DIRECTION('',(1.,0.,0.));
#1767=DIRECTION('',(-1.,0.,0.));
#1768=DIRECTION('',(0.,-1.,0.));
#1769=DIRECTION('',(0.,-1.,0.));
#1770=DIRECTION('',(1.,0.,0.));
#1771=DIRECTION('',(0.,0.,-1.));
#1772=DIRECTION('',(0.,0.,1.));
#1773=DIRECTION('',(0.,-1.,0.));
#1774=DIRECTION('',(1.05161484609732E-16,0.,-1.));
#1775=DIRECTION('',(-1.,0.,-1.05161484609732E-16));
#1776=DIRECTION('',(1.,0.,1.05161484609732E-16));
#1777=DIRECTION('',(0.,-1.,0.));
#1778=DIRECTION('',(-1.,0.,0.));
#1779=DIRECTION('',(0.,0.,1.));
#1780=DIRECTION('',(0.,0.,-1.));
#1781=DIRECTION('',(1.,0.,0.));
#1782=DIRECTION('',(0.,0.,-1.));
#1783=DIRECTION('',(0.,0.,1.));
#1784=DIRECTION('',(0.,-1.,0.));
#1785=DIRECTION('',(0.,-1.,0.));
#1786=DIRECTION('',(0.,0.,-1.));
#1787=DIRECTION('',(-1.,0.,0.));
#1788=DIRECTION('',(1.,0.,0.));
#1789=DIRECTION('',(0.,-1.,0.));
#1790=DIRECTION('',(-1.,0.,0.));
#1791=DIRECTION('',(0.,0.,1.));
#1792=DIRECTION('',(0.,0.,-1.));
#1793=DIRECTION('',(0.,-1.,0.));
#1794=DIRECTION('',(0.,0.,1.));
#1795=DIRECTION('',(1.,0.,0.));
#1796=DIRECTION('',(-1.,0.,0.));
#1797=DIRECTION('',(-1.,2.71050543121376E-16,0.));
#1798=DIRECTION('',(-2.71050543121376E-16,-1.,0.));
#1799=DIRECTION('',(0.,0.,-1.));
#1800=DIRECTION('',(2.71050543121376E-16,1.,0.));
#1801=DIRECTION('',(0.,0.,-1.));
#1802=DIRECTION('',(0.,1.,0.));
#1803=DIRECTION('',(0.,0.,1.));
#1804=DIRECTION('',(1.,0.,0.));
#1805=DIRECTION('',(0.,0.,-1.));
#1806=DIRECTION('',(1.,2.71050543121376E-16,0.));
#1807=DIRECTION('',(-2.71050543121376E-16,1.,0.));
#1808=DIRECTION('',(2.71050543121376E-16,-1.,0.));
#1809=DIRECTION('',(0.,0.,-1.));
#1810=DIRECTION('',(0.,-1.,0.));
#1811=DIRECTION('',(0.,0.,-1.));
#1812=DIRECTION('',(-1.,0.,0.));
#1813=DIRECTION('',(-1.,0.,0.));
#1814=DIRECTION('',(0.,0.,1.));
#1815=DIRECTION('',(0.,1.,0.));
#1816=DIRECTION('',(0.,0.,-1.));
#1817=DIRECTION('',(0.,1.,0.));
#1818=DIRECTION('',(0.,0.,-1.));
#1819=DIRECTION('',(1.,0.,0.));
#1820=DIRECTION('',(0.,0.,-1.));
#1821=DIRECTION('',(0.,0.,-1.));
#1822=DIRECTION('',(0.,-1.,0.));
#1823=DIRECTION('',(0.,0.,-1.));
#1824=DIRECTION('',(0.69687413891065,-0.71719344288521,0.));
#1825=DIRECTION('',(0.71719344288521,0.69687413891065,0.));
#1826=DIRECTION('',(-0.71719344288521,-0.69687413891065,0.));
#1827=DIRECTION('',(0.,0.,-1.));
#1828=DIRECTION('',(1.62613345372094E-16,-1.,0.));
#1829=DIRECTION('',(1.,1.62613345372094E-16,0.));
#1830=DIRECTION('',(-1.,-1.62613345372094E-16,0.));
#1831=DIRECTION('',(0.,0.,-1.));
#1832=DIRECTION('',(-1.,0.,0.));
#1833=DIRECTION('',(0.,0.,1.));
#1834=DIRECTION('',(0.,1.,0.));
#1835=DIRECTION('',(0.,0.,-1.));
#1836=DIRECTION('',(2.25875452601147E-16,1.,0.));
#1837=DIRECTION('',(-1.,2.25875452601147E-16,0.));
#1838=DIRECTION('',(1.,-2.25875452601147E-16,0.));
#1839=DIRECTION('',(0.,-1.,0.));
#1840=DIRECTION('',(0.,0.,-1.));
#1841=DIRECTION('',(-1.,0.,0.));
#1842=DIRECTION('',(0.,0.,-1.));
#1843=DIRECTION('',(-1.,0.,0.));
#1844=DIRECTION('',(0.,0.,-1.));
#1845=DIRECTION('',(0.,0.,-1.));
#1846=DIRECTION('',(-1.,0.,0.));
#1847=DIRECTION('',(-1.,0.,0.));
#1848=DIRECTION('',(0.,-1.,0.));
#1849=DIRECTION('',(1.,0.,0.));
#1850=DIRECTION('',(0.,1.,0.));
#1851=DIRECTION('',(0.,1.,0.));
#1852=DIRECTION('',(0.,0.,1.));
#1853=DIRECTION('',(1.,0.,0.));
#1854=DIRECTION('',(0.,0.,-1.));
#1855=DIRECTION('',(1.,0.,0.));
#1856=DIRECTION('',(0.,0.,-1.));
#1857=DIRECTION('',(0.,0.,-1.));
#1858=DIRECTION('',(-1.,0.,0.));
#1859=DIRECTION('',(1.,0.,0.));
#1860=DIRECTION('',(0.,-1.,0.));
#1861=DIRECTION('',(-1.,0.,0.));
#1862=DIRECTION('',(0.,1.,0.));
#1863=DIRECTION('',(1.,0.,0.));
#1864=DIRECTION('',(0.,0.,-1.));
#1865=DIRECTION('',(0.,-1.,0.));
#1866=DIRECTION('',(0.,0.,-1.));
#1867=DIRECTION('',(0.,-1.,0.));
#1868=DIRECTION('',(0.,0.,-1.));
#1869=DIRECTION('',(0.,0.,1.));
#1870=DIRECTION('',(0.,1.,1.10221996070179E-16));
#1871=DIRECTION('',(0.,1.89887404063023E-16,-1.));
#1872=DIRECTION('',(0.,-1.,-1.10221996070179E-16));
#1873=DIRECTION('',(0.,1.10221996070179E-16,-1.));
#1874=DIRECTION('',(0.,1.,1.10221996070179E-16));
#1875=DIRECTION('',(-1.,0.,0.));
#1876=DIRECTION('',(0.,1.,1.10221996070179E-16));
#1877=DIRECTION('',(-1.,0.,0.));
#1878=DIRECTION('',(0.,-1.,-1.89887404063023E-16));
#1879=DIRECTION('',(0.,1.89887404063023E-16,-1.));
#1880=DIRECTION('',(0.,1.89887404063023E-16,-1.));
#1881=DIRECTION('',(-1.,0.,0.));
#1882=DIRECTION('',(0.,-1.10221996070179E-16,1.));
#1883=DIRECTION('',(0.,-1.,-1.10221996070179E-16));
#1884=DIRECTION('',(0.,-1.,-1.10221996070179E-16));
#1885=DIRECTION('',(-1.,0.,0.));
#1886=DIRECTION('',(0.,1.,0.));
#1887=DIRECTION('',(0.,0.,1.));
#1888=DIRECTION('',(0.,0.,1.));
#1889=DIRECTION('',(1.,0.,0.));
#1890=DIRECTION('',(0.,0.,1.));
#1891=DIRECTION('',(0.,0.,-1.));
#1892=DIRECTION('',(-1.,0.,0.));
#1893=DIRECTION('',(0.,0.,1.));
#1894=DIRECTION('',(1.,0.,0.));
#1895=DIRECTION('',(0.,0.,-1.));
#1896=DIRECTION('',(-1.,0.,0.));
#1897=DIRECTION('',(-1.,-2.71050543121375E-15,0.));
#1898=DIRECTION('',(2.71050543121375E-15,-1.,0.));
#1899=DIRECTION('',(-1.,0.,0.));
#1900=DIRECTION('',(0.,0.,1.));
#1901=DIRECTION('',(0.,1.,-2.71050543121375E-15));
#1902=DIRECTION('',(0.,2.71050543121375E-15,1.));
#1903=DIRECTION('',(0.,1.,0.));
#1904=DIRECTION('',(0.,0.,1.));
#1905=DIRECTION('',(-2.71050543121375E-15,1.,0.));
#1906=DIRECTION('',(-1.,-2.71050543121375E-15,0.));
#1907=DIRECTION('',(-1.,0.,0.));
#1908=DIRECTION('',(0.,0.,1.));
#1909=DIRECTION('',(0.,-1.,0.));
#1910=DIRECTION('',(0.,0.,-1.));
#1911=DIRECTION('',(0.,-1.,0.));
#1912=DIRECTION('',(0.,0.,-1.));
#1913=DIRECTION('',(-1.,0.,0.));
#1914=DIRECTION('',(0.,0.,1.));
#1915=DIRECTION('',(1.,0.,0.));
#1916=DIRECTION('',(0.,0.,-1.));
#1917=DIRECTION('',(0.,0.,-1.));
#1918=DIRECTION('',(-1.,0.,0.));
#1919=DIRECTION('',(0.,0.,-1.));
#1920=DIRECTION('',(-1.,0.,0.));
#1921=DIRECTION('',(0.,0.,1.));
#1922=DIRECTION('',(1.,0.,0.));
#1923=DIRECTION('',(1.,0.,0.));
#1924=DIRECTION('',(0.,0.,-1.));
#1925=DIRECTION('',(1.,0.,0.));
#1926=DIRECTION('',(0.,0.,-1.));
#1927=DIRECTION('',(0.,1.,0.));
#1928=DIRECTION('',(0.,0.,1.));
#1929=DIRECTION('',(0.,-1.,0.));
#1930=DIRECTION('',(0.,0.,-1.));
#1931=DIRECTION('',(0.,0.,-1.));
#1932=DIRECTION('',(-1.,0.,0.));
#1933=DIRECTION('',(0.,0.,1.));
#1934=DIRECTION('',(1.,0.,0.));
#1935=DIRECTION('',(0.,0.,-1.));
#1936=DIRECTION('',(-1.,0.,0.));
#1937=DIRECTION('',(-1.,0.,0.));
#1938=DIRECTION('',(0.,0.,1.));
#1939=DIRECTION('',(-1.,0.,0.));
#1940=DIRECTION('',(0.,0.,1.));
#1941=DIRECTION('',(0.,1.,0.));
#1942=DIRECTION('',(0.,0.,1.));
#1943=DIRECTION('',(0.,1.,0.));
#1944=DIRECTION('',(0.,0.,1.));
#1945=DIRECTION('',(0.,1.,0.));
#1946=DIRECTION('',(0.,0.,1.));
#1947=DIRECTION('',(0.,1.,0.));
#1948=DIRECTION('',(0.,0.,1.));
#1949=DIRECTION('',(-1.,0.,0.));
#1950=DIRECTION('',(0.,0.,1.));
#1951=DIRECTION('',(-1.,0.,0.));
#1952=DIRECTION('',(0.,0.,1.));
#1953=DIRECTION('',(1.,0.,0.));
#1954=DIRECTION('',(0.,0.,-1.));
#1955=DIRECTION('',(1.,0.,0.));
#1956=DIRECTION('',(0.,0.,-1.));
#1957=DIRECTION('',(0.,1.,0.));
#1958=DIRECTION('',(0.,0.,1.));
#1959=DIRECTION('',(0.,-1.,-2.71050543121375E-15));
#1960=DIRECTION('',(0.,2.71050543121375E-15,-1.));
#1961=DIRECTION('',(0.,-1.,0.));
#1962=DIRECTION('',(0.,0.,-1.));
#1963=DIRECTION('',(2.71050543121375E-15,-1.,0.));
#1964=DIRECTION('',(1.,2.71050543121375E-15,0.));
#1965=DIRECTION('',(-1.,0.,0.));
#1966=DIRECTION('',(0.,0.,1.));
#1967=DIRECTION('',(1.,0.,0.));
#1968=DIRECTION('',(0.,0.,-1.));
#1969=DIRECTION('',(0.,0.,1.));
#1970=DIRECTION('',(1.,0.,0.));
#1971=DIRECTION('',(0.,0.,1.));
#1972=DIRECTION('',(1.,0.,0.));
#1973=DIRECTION('',(0.,0.,-1.));
#1974=DIRECTION('',(-1.,0.,0.));
#1975=DIRECTION('',(0.,0.,-1.));
#1976=DIRECTION('',(-1.,0.,0.));
#1977=DIRECTION('',(0.,0.,-1.));
#1978=DIRECTION('',(-1.,0.,0.));
#1979=CARTESIAN_POINT('',(0.,0.,0.));
#1980=CARTESIAN_POINT('',(-0.301928723528362,0.,0.));
#1981=CARTESIAN_POINT('',(-0.301928723528362,-0.067257806410491,0.1));
#1982=CARTESIAN_POINT('',(-0.301928723528362,-0.067257806410491,0.1));
#1983=CARTESIAN_POINT('',(-0.301928723528362,0.0556988414389986,0.1));
#1984=CARTESIAN_POINT('',(-0.301928723528362,0.0556988414389986,0.1));
#1985=CARTESIAN_POINT('',(-0.301928723528362,0.0556988414389986,0.064314307147064));
#1986=CARTESIAN_POINT('',(-0.301928723528362,0.0556988414389986,0.064314307147064));
#1987=CARTESIAN_POINT('',(-0.301928723528362,-0.067257806410491,0.064314307147064));
#1988=CARTESIAN_POINT('',(-0.301928723528362,-0.067257806410491,0.064314307147064));
#1989=CARTESIAN_POINT('',(0.,-0.15165558869365,0.));
#1990=CARTESIAN_POINT('',(-0.216369928154764,-0.15165558869365,0.1));
#1991=CARTESIAN_POINT('',(-0.216369928154764,-0.15165558869365,0.1));
#1992=CARTESIAN_POINT('',(-0.216369928154764,-0.15165558869365,0.064314307147064));
#1993=CARTESIAN_POINT('',(-0.216369928154764,-0.15165558869365,0.064314307147064));
#1994=CARTESIAN_POINT('',(-0.0897298875550468,-0.15165558869365,0.064314307147064));
#1995=CARTESIAN_POINT('',(-0.0897298875550468,-0.15165558869365,0.064314307147064));
#1996=CARTESIAN_POINT('',(-0.0897298875550468,-0.15165558869365,0.1));
#1997=CARTESIAN_POINT('',(-0.0897298875550468,-0.15165558869365,0.1));
#1998=CARTESIAN_POINT('',(0.,-0.15165558869365,0.));
#1999=CARTESIAN_POINT('',(0.0817873907437175,-0.15165558869365,0.0654990199282851));
#2000=CARTESIAN_POINT('',(0.0817873907437175,-0.15165558869365,0.0654990199282851));
#2001=CARTESIAN_POINT('',(0.210660877138133,-0.15165558869365,0.0654990199282851));
#2002=CARTESIAN_POINT('',(0.210660877138133,-0.15165558869365,0.0654990199282851));
#2003=CARTESIAN_POINT('',(0.210660877138133,-0.15165558869365,0.1));
#2004=CARTESIAN_POINT('',(0.210660877138133,-0.15165558869365,0.1));
#2005=CARTESIAN_POINT('',(0.0817873907437175,-0.15165558869365,0.1));
#2006=CARTESIAN_POINT('',(0.0817873907437175,-0.15165558869365,0.1));
#2007=CARTESIAN_POINT('',(0.,0.15165558869365,0.));
#2008=CARTESIAN_POINT('',(0.0817873907437175,0.15165558869365,0.0654990199282851));
#2009=CARTESIAN_POINT('',(0.0817873907437175,0.15165558869365,0.0654990199282851));
#2010=CARTESIAN_POINT('',(0.210660877138133,0.15165558869365,0.0654990199282851));
#2011=CARTESIAN_POINT('',(0.0817873907437175,0.15165558869365,0.1));
#2012=CARTESIAN_POINT('',(0.0817873907437175,0.15165558869365,0.1));
#2013=CARTESIAN_POINT('',(0.210660877138133,0.15165558869365,0.1));
#2014=CARTESIAN_POINT('',(0.210660877138133,0.15165558869365,0.1));
#2015=CARTESIAN_POINT('',(0.210660877138133,0.15165558869365,0.0654990199282851));
#2016=CARTESIAN_POINT('',(0.,0.15165558869365,0.));
#2017=CARTESIAN_POINT('',(-0.216369928154764,0.15165558869365,0.1));
#2018=CARTESIAN_POINT('',(-0.216369928154764,0.15165558869365,0.1));
#2019=CARTESIAN_POINT('',(-0.216369928154764,0.15165558869365,0.064314307147064));
#2020=CARTESIAN_POINT('',(-0.0897298875550468,0.15165558869365,0.1));
#2021=CARTESIAN_POINT('',(-0.0897298875550468,0.15165558869365,0.1));
#2022=CARTESIAN_POINT('',(-0.0897298875550468,0.15165558869365,0.064314307147064));
#2023=CARTESIAN_POINT('',(-0.0897298875550468,0.15165558869365,0.064314307147064));
#2024=CARTESIAN_POINT('',(-0.216369928154764,0.15165558869365,0.064314307147064));
#2025=CARTESIAN_POINT('',(0.,0.,0.));
#2026=CARTESIAN_POINT('',(0.125,0.100427725364673,0.));
#2027=CARTESIAN_POINT('',(0.125,0.100427725364673,0.));
#2028=CARTESIAN_POINT('',(0.125,-0.0995722746353266,0.));
#2029=CARTESIAN_POINT('',(0.245,0.100427725364673,0.));
#2030=CARTESIAN_POINT('',(0.245,0.100427725364673,0.));
#2031=CARTESIAN_POINT('',(0.245,-0.0995722746353266,0.));
#2032=CARTESIAN_POINT('',(0.245,-0.0995722746353266,0.));
#2033=CARTESIAN_POINT('',(0.125,-0.0995722746353266,0.));
#2034=CARTESIAN_POINT('',(-0.301928723528362,0.0556988414389986,0.1));
#2035=CARTESIAN_POINT('',(-0.3,0.0556988414389986,0.1));
#2036=CARTESIAN_POINT('',(-0.3,0.0556988414389986,0.1));
#2037=CARTESIAN_POINT('',(-0.3,0.0556988414389986,0.064314307147064));
#2038=CARTESIAN_POINT('',(-0.301928723528362,0.0556988414389986,0.064314307147064));
#2039=CARTESIAN_POINT('',(-0.301928723528362,0.0556988414389986,0.1));
#2040=CARTESIAN_POINT('',(-0.301928723528362,0.0556988414389986,0.064314307147064));
#2041=CARTESIAN_POINT('',(-0.3,0.0556988414389986,0.064314307147064));
#2042=CARTESIAN_POINT('',(-0.3,-0.067257806410491,0.064314307147064));
#2043=CARTESIAN_POINT('',(-0.301928723528362,-0.067257806410491,0.064314307147064));
#2044=CARTESIAN_POINT('',(-0.301928723528362,-0.067257806410491,0.064314307147064));
#2045=CARTESIAN_POINT('',(-0.3,-0.067257806410491,0.064314307147064));
#2046=CARTESIAN_POINT('',(-0.3,-0.067257806410491,0.1));
#2047=CARTESIAN_POINT('',(-0.301928723528362,-0.067257806410491,0.1));
#2048=CARTESIAN_POINT('',(-0.301928723528362,-0.067257806410491,0.1));
#2049=CARTESIAN_POINT('',(-0.3,-0.067257806410491,0.1));
#2050=CARTESIAN_POINT('',(0.,0.,0.));
#2051=CARTESIAN_POINT('',(-0.245,-0.1,0.));
#2052=CARTESIAN_POINT('',(-0.245,-0.1,0.));
#2053=CARTESIAN_POINT('',(-0.245,0.1,0.));
#2054=CARTESIAN_POINT('',(-0.185,0.1,0.));
#2055=CARTESIAN_POINT('',(-0.125,0.1,0.));
#2056=CARTESIAN_POINT('',(-0.125,0.1,0.));
#2057=CARTESIAN_POINT('',(-0.125,-0.0643806173930669,0.));
#2058=CARTESIAN_POINT('',(-0.161657964787221,-0.1,0.));
#2059=CARTESIAN_POINT('',(-0.161657964787221,-0.1,0.));
#2060=CARTESIAN_POINT('',(-0.161657964787221,-0.1,0.));
#2061=CARTESIAN_POINT('',(-0.216369928154764,-0.15165558869365,0.064314307147064));
#2062=CARTESIAN_POINT('',(0.3,-0.15,0.064314307147064));
#2063=CARTESIAN_POINT('',(-0.216369928154764,-0.15,0.064314307147064));
#2064=CARTESIAN_POINT('',(-0.0897298875550467,-0.15,0.064314307147064));
#2065=CARTESIAN_POINT('',(-0.0897298875550468,-0.15165558869365,0.064314307147064));
#2066=CARTESIAN_POINT('',(-0.216369928154764,-0.15165558869365,0.064314307147064));
#2067=CARTESIAN_POINT('',(-0.0897298875550468,-0.15165558869365,0.064314307147064));
#2068=CARTESIAN_POINT('',(-0.0897298875550468,-0.15,0.27));
#2069=CARTESIAN_POINT('',(-0.0897298875550468,-0.15,0.1));
#2070=CARTESIAN_POINT('',(-0.0897298875550468,-0.15165558869365,0.1));
#2071=CARTESIAN_POINT('',(-0.0897298875550468,-0.15165558869365,0.1));
#2072=CARTESIAN_POINT('',(0.3,-0.15,0.1));
#2073=CARTESIAN_POINT('',(-0.216369928154764,-0.15,0.1));
#2074=CARTESIAN_POINT('',(-0.216369928154764,-0.15165558869365,0.1));
#2075=CARTESIAN_POINT('',(-0.216369928154764,-0.15165558869365,0.1));
#2076=CARTESIAN_POINT('',(-0.216369928154765,-0.15,0.27));
#2077=CARTESIAN_POINT('',(0.210660877138133,-0.15165558869365,0.0654990199282851));
#2078=CARTESIAN_POINT('',(0.210660877138133,-0.15,0.27));
#2079=CARTESIAN_POINT('',(0.210660877138133,-0.15,0.0654990199282851));
#2080=CARTESIAN_POINT('',(0.210660877138133,-0.15,0.1));
#2081=CARTESIAN_POINT('',(0.210660877138133,-0.15165558869365,0.1));
#2082=CARTESIAN_POINT('',(0.210660877138133,-0.15165558869365,0.0654990199282851));
#2083=CARTESIAN_POINT('',(0.210660877138133,-0.15165558869365,0.1));
#2084=CARTESIAN_POINT('',(0.3,-0.15,0.1));
#2085=CARTESIAN_POINT('',(0.0817873907437175,-0.15,0.1));
#2086=CARTESIAN_POINT('',(0.0817873907437175,-0.15165558869365,0.1));
#2087=CARTESIAN_POINT('',(0.0817873907437175,-0.15165558869365,0.1));
#2088=CARTESIAN_POINT('',(0.0817873907437175,-0.15,0.27));
#2089=CARTESIAN_POINT('',(0.0817873907437175,-0.15,0.0654990199282851));
#2090=CARTESIAN_POINT('',(0.0817873907437175,-0.15165558869365,0.0654990199282851));
#2091=CARTESIAN_POINT('',(0.0817873907437175,-0.15165558869365,0.0654990199282851));
#2092=CARTESIAN_POINT('',(0.3,-0.15,0.0654990199282851));
#2093=CARTESIAN_POINT('',(0.210660877138133,0.15165558869365,0.1));
#2094=CARTESIAN_POINT('',(0.210660877138133,0.15,0.1));
#2095=CARTESIAN_POINT('',(0.210660877138133,0.15,0.1));
#2096=CARTESIAN_POINT('',(0.0817873907437175,0.15,0.1));
#2097=CARTESIAN_POINT('',(0.210660877138133,0.15165558869365,0.1));
#2098=CARTESIAN_POINT('',(0.0817873907437175,0.15165558869365,0.1));
#2099=CARTESIAN_POINT('',(0.210660877138133,0.15165558869365,0.0654990199282851));
#2100=CARTESIAN_POINT('',(0.210660877138133,0.15,0.0654990199282851));
#2101=CARTESIAN_POINT('',(0.210660877138133,0.15,0.0654990199282851));
#2102=CARTESIAN_POINT('',(0.210660877138133,0.15165558869365,0.0654990199282851));
#2103=CARTESIAN_POINT('',(0.0817873907437175,0.15165558869365,0.0654990199282851));
#2104=CARTESIAN_POINT('',(0.0817873907437175,0.15,0.0654990199282851));
#2105=CARTESIAN_POINT('',(0.0817873907437175,0.15,0.0654990199282851));
#2106=CARTESIAN_POINT('',(0.0817873907437175,0.15165558869365,0.0654990199282851));
#2107=CARTESIAN_POINT('',(0.0817873907437175,0.15165558869365,0.1));
#2108=CARTESIAN_POINT('',(0.0817873907437175,0.15,0.1));
#2109=CARTESIAN_POINT('',(-0.0897298875550468,0.15165558869365,0.064314307147064));
#2110=CARTESIAN_POINT('',(-0.0897298875550468,0.15,0.064314307147064));
#2111=CARTESIAN_POINT('',(-0.0897298875550468,0.15,0.064314307147064));
#2112=CARTESIAN_POINT('',(-0.0897298875550468,0.15,0.1));
#2113=CARTESIAN_POINT('',(-0.0897298875550468,0.15165558869365,0.064314307147064));
#2114=CARTESIAN_POINT('',(-0.0897298875550468,0.15165558869365,0.1));
#2115=CARTESIAN_POINT('',(-0.216369928154764,0.15165558869365,0.064314307147064));
#2116=CARTESIAN_POINT('',(-0.216369928154764,0.15,0.064314307147064));
#2117=CARTESIAN_POINT('',(-0.216369928154764,0.15,0.064314307147064));
#2118=CARTESIAN_POINT('',(-0.216369928154764,0.15165558869365,0.064314307147064));
#2119=CARTESIAN_POINT('',(-0.216369928154764,0.15165558869365,0.1));
#2120=CARTESIAN_POINT('',(-0.216369928154764,0.15,0.1));
#2121=CARTESIAN_POINT('',(-0.216369928154764,0.15,0.1));
#2122=CARTESIAN_POINT('',(-0.216369928154764,0.15165558869365,0.1));
#2123=CARTESIAN_POINT('',(-0.0897298875550468,0.15165558869365,0.1));
#2124=CARTESIAN_POINT('',(-0.0897298875550468,0.15,0.1));
#2125=CARTESIAN_POINT('',(0.245,-0.0995722746353266,0.0146203300791745));
#2126=CARTESIAN_POINT('',(0.245,0.100427725364673,0.0146203300791745));
#2127=CARTESIAN_POINT('',(0.245,0.100427725364673,0.0146203300791745));
#2128=CARTESIAN_POINT('',(0.245,-0.0995722746353266,0.0146203300791745));
#2129=CARTESIAN_POINT('',(0.245,-0.0995722746353266,0.0146203300791745));
#2130=CARTESIAN_POINT('',(0.245,-0.0995722746353266,0.0146203300791745));
#2131=CARTESIAN_POINT('',(0.125,-0.0995722746353266,0.0146203300791745));
#2132=CARTESIAN_POINT('',(0.125,-0.0995722746353266,0.0146203300791745));
#2133=CARTESIAN_POINT('',(0.125,-0.0995722746353266,0.0146203300791745));
#2134=CARTESIAN_POINT('',(0.125,-0.0995722746353266,0.0146203300791745));
#2135=CARTESIAN_POINT('',(0.125,0.100427725364673,0.0146203300791745));
#2136=CARTESIAN_POINT('',(0.125,0.100427725364673,0.0146203300791745));
#2137=CARTESIAN_POINT('',(0.125,0.100427725364673,0.0146203300791745));
#2138=CARTESIAN_POINT('',(0.125,0.100427725364673,0.0146203300791745));
#2139=CARTESIAN_POINT('',(0.245,0.100427725364673,0.0146203300791745));
#2140=CARTESIAN_POINT('',(0.185,0.100427725364673,0.0146203300791745));
#2141=CARTESIAN_POINT('',(-0.3,-0.15,0.27));
#2142=CARTESIAN_POINT('',(-0.3,-0.15,0.0246203300791745));
#2143=CARTESIAN_POINT('',(-0.3,0.14,0.0246203300791745));
#2144=CARTESIAN_POINT('',(-0.3,-0.14,0.0246203300791745));
#2145=CARTESIAN_POINT('',(-0.3,-0.14,0.27));
#2146=CARTESIAN_POINT('',(-0.3,-0.14,0.26));
#2147=CARTESIAN_POINT('',(-0.3,0.15,0.26));
#2148=CARTESIAN_POINT('',(-0.3,0.14,0.26));
#2149=CARTESIAN_POINT('',(-0.3,0.14,0.27));
#2150=CARTESIAN_POINT('',(-0.125,0.1,0.0146203300791745));
#2151=CARTESIAN_POINT('',(-0.125,0.1,0.0146203300791745));
#2152=CARTESIAN_POINT('',(-0.125,0.1,0.0146203300791745));
#2153=CARTESIAN_POINT('',(-0.125,0.1,0.0146203300791745));
#2154=CARTESIAN_POINT('',(-0.125,-0.0643806173930669,0.0146203300791745));
#2155=CARTESIAN_POINT('',(-0.125,-0.0643806173930669,0.0146203300791745));
#2156=CARTESIAN_POINT('',(-0.161657964787221,-0.1,0.0146203300791745));
#2157=CARTESIAN_POINT('',(-0.161657964787221,-0.1,0.0146203300791745));
#2158=CARTESIAN_POINT('',(-0.161657964787221,-0.1,0.0146203300791745));
#2159=CARTESIAN_POINT('',(-0.161657964787221,-0.1,0.0146203300791745));
#2160=CARTESIAN_POINT('',(-0.161657964787221,-0.1,0.0146203300791745));
#2161=CARTESIAN_POINT('',(-0.161657964787221,-0.1,0.0146203300791745));
#2162=CARTESIAN_POINT('',(-0.245,-0.1,0.0146203300791745));
#2163=CARTESIAN_POINT('',(-0.245,-0.1,0.0146203300791745));
#2164=CARTESIAN_POINT('',(-0.245,-0.1,0.0146203300791745));
#2165=CARTESIAN_POINT('',(-0.245,-0.1,0.0146203300791745));
#2166=CARTESIAN_POINT('',(-0.245,0.1,0.0146203300791745));
#2167=CARTESIAN_POINT('',(-0.245,0.1,0.0146203300791745));
#2168=CARTESIAN_POINT('',(-0.185,0.1,0.0146203300791745));
#2169=CARTESIAN_POINT('',(-0.245,0.1,0.0146203300791745));
#2170=CARTESIAN_POINT('',(0.3,-0.15,0.27));
#2171=CARTESIAN_POINT('',(0.3,-0.15,0.0246203300791745));
#2172=CARTESIAN_POINT('',(-0.29,-0.15,0.0246203300791745));
#2173=CARTESIAN_POINT('',(0.29,-0.15,0.0246203300791745));
#2174=CARTESIAN_POINT('',(0.29,-0.15,0.27));
#2175=CARTESIAN_POINT('',(0.29,-0.15,0.26));
#2176=CARTESIAN_POINT('',(-0.3,-0.15,0.26));
#2177=CARTESIAN_POINT('',(-0.29,-0.15,0.26));
#2178=CARTESIAN_POINT('',(-0.29,-0.15,0.27));
#2179=CARTESIAN_POINT('',(0.,0.,0.27));
#2180=CARTESIAN_POINT('',(0.3,-0.14,0.27));
#2181=CARTESIAN_POINT('',(-0.29,-0.14,0.27));
#2182=CARTESIAN_POINT('',(0.29,-0.14,0.27));
#2183=CARTESIAN_POINT('',(0.29,0.15,0.27));
#2184=CARTESIAN_POINT('',(0.29,0.14,0.27));
#2185=CARTESIAN_POINT('',(-0.3,0.14,0.27));
#2186=CARTESIAN_POINT('',(-0.29,0.14,0.27));
#2187=CARTESIAN_POINT('',(-0.29,-0.15,0.27));
#2188=CARTESIAN_POINT('',(-0.3,0.15,0.27));
#2189=CARTESIAN_POINT('',(0.3,0.15,0.26));
#2190=CARTESIAN_POINT('',(-0.29,0.15,0.26));
#2191=CARTESIAN_POINT('',(0.29,0.15,0.26));
#2192=CARTESIAN_POINT('',(0.29,0.15,0.27));
#2193=CARTESIAN_POINT('',(0.29,0.15,0.0246203300791745));
#2194=CARTESIAN_POINT('',(-0.3,0.15,0.0246203300791745));
#2195=CARTESIAN_POINT('',(-0.29,0.15,0.0246203300791745));
#2196=CARTESIAN_POINT('',(-0.29,0.15,0.27));
#2197=CARTESIAN_POINT('',(0.,0.,0.0146203300791745));
#2198=CARTESIAN_POINT('',(0.,0.14,0.0146203300791745));
#2199=CARTESIAN_POINT('',(-0.29,0.14,0.0146203300791745));
#2200=CARTESIAN_POINT('',(0.29,0.14,0.0146203300791745));
#2201=CARTESIAN_POINT('',(0.29,0.,0.0146203300791745));
#2202=CARTESIAN_POINT('',(0.29,-0.14,0.0146203300791745));
#2203=CARTESIAN_POINT('',(0.,-0.14,0.0146203300791745));
#2204=CARTESIAN_POINT('',(-0.29,-0.14,0.0146203300791745));
#2205=CARTESIAN_POINT('',(-0.29,0.,0.0146203300791745));
#2206=CARTESIAN_POINT('',(0.3,0.15,0.27));
#2207=CARTESIAN_POINT('',(0.3,-0.15,0.26));
#2208=CARTESIAN_POINT('',(0.3,0.14,0.26));
#2209=CARTESIAN_POINT('',(0.3,-0.14,0.26));
#2210=CARTESIAN_POINT('',(0.3,-0.14,0.27));
#2211=CARTESIAN_POINT('',(0.3,-0.14,0.0246203300791745));
#2212=CARTESIAN_POINT('',(0.3,0.15,0.0246203300791745));
#2213=CARTESIAN_POINT('',(0.3,0.14,0.0246203300791745));
#2214=CARTESIAN_POINT('',(0.3,0.14,0.27));
#2215=CARTESIAN_POINT('',(0.3,-0.067257806410491,0.27));
#2216=CARTESIAN_POINT('',(0.3,-0.067257806410491,0.064314307147064));
#2217=CARTESIAN_POINT('',(0.3,-0.067257806410491,0.1));
#2218=CARTESIAN_POINT('',(0.3,0.15,0.1));
#2219=CARTESIAN_POINT('',(0.3,0.0556988414389986,0.1));
#2220=CARTESIAN_POINT('',(0.3,0.0556988414389986,0.27));
#2221=CARTESIAN_POINT('',(0.3,0.0556988414389986,0.064314307147064));
#2222=CARTESIAN_POINT('',(0.3,0.15,0.064314307147064));
#2223=CARTESIAN_POINT('',(0.301928723528362,-0.067257806410491,0.1));
#2224=CARTESIAN_POINT('',(0.301928723528362,-0.067257806410491,0.1));
#2225=CARTESIAN_POINT('',(0.301928723528362,-0.067257806410491,0.1));
#2226=CARTESIAN_POINT('',(0.301928723528362,-0.067257806410491,0.1));
#2227=CARTESIAN_POINT('',(0.301928723528362,0.0556988414389986,0.1));
#2228=CARTESIAN_POINT('',(0.301928723528362,0.0556988414389986,0.1));
#2229=CARTESIAN_POINT('',(0.301928723528362,0.0556988414389986,0.1));
#2230=CARTESIAN_POINT('',(0.301928723528362,0.0556988414389986,0.1));
#2231=CARTESIAN_POINT('',(0.301928723528362,0.0556988414389986,0.064314307147064));
#2232=CARTESIAN_POINT('',(0.301928723528362,0.0556988414389986,0.064314307147064));
#2233=CARTESIAN_POINT('',(0.301928723528362,0.0556988414389986,0.064314307147064));
#2234=CARTESIAN_POINT('',(0.301928723528362,0.0556988414389986,0.064314307147064));
#2235=CARTESIAN_POINT('',(0.301928723528362,-0.067257806410491,0.064314307147064));
#2236=CARTESIAN_POINT('',(0.301928723528362,-0.067257806410491,0.064314307147064));
#2237=CARTESIAN_POINT('',(0.301928723528362,-0.067257806410491,0.064314307147064));
#2238=CARTESIAN_POINT('',(0.301928723528362,-0.067257806410491,0.064314307147064));
#2239=CARTESIAN_POINT('',(0.301928723528362,0.,0.));
#2240=CARTESIAN_POINT('',(-0.29,0.14,0.27));
#2241=CARTESIAN_POINT('',(-0.29,0.14,0.26));
#2242=CARTESIAN_POINT('',(-0.29,0.14,0.0246203300791745));
#2243=CARTESIAN_POINT('',(-0.29,0.14,0.26));
#2244=CARTESIAN_POINT('',(-0.29,0.14,0.26));
#2245=CARTESIAN_POINT('',(-0.29,0.14,0.26));
#2246=CARTESIAN_POINT('',(-0.29,0.14,0.0246203300791745));
#2247=CARTESIAN_POINT('',(-0.29,0.14,0.0246203300791745));
#2248=CARTESIAN_POINT('',(-0.29,0.14,0.0246203300791745));
#2249=CARTESIAN_POINT('',(-0.29,-0.15,0.26));
#2250=CARTESIAN_POINT('',(-0.29,-0.14,0.26));
#2251=CARTESIAN_POINT('',(-0.3,0.14,0.26));
#2252=CARTESIAN_POINT('',(0.29,0.14,0.26));
#2253=CARTESIAN_POINT('',(0.29,0.14,0.27));
#2254=CARTESIAN_POINT('',(0.29,0.14,0.0246203300791745));
#2255=CARTESIAN_POINT('',(0.29,0.14,0.26));
#2256=CARTESIAN_POINT('',(0.,0.14,0.0246203300791745));
#2257=CARTESIAN_POINT('',(0.29,0.14,0.0246203300791745));
#2258=CARTESIAN_POINT('',(-0.29,0.,0.0246203300791745));
#2259=CARTESIAN_POINT('',(-0.29,-0.14,0.0246203300791745));
#2260=CARTESIAN_POINT('',(-0.29,-0.14,0.27));
#2261=CARTESIAN_POINT('',(-0.29,-0.14,0.26));
#2262=CARTESIAN_POINT('',(-0.29,-0.14,0.0246203300791745));
#2263=CARTESIAN_POINT('',(-0.29,-0.14,0.26));
#2264=CARTESIAN_POINT('',(-0.29,-0.14,0.26));
#2265=CARTESIAN_POINT('',(0.29,0.14,0.26));
#2266=CARTESIAN_POINT('',(0.29,0.14,0.26));
#2267=CARTESIAN_POINT('',(0.29,0.14,0.0246203300791745));
#2268=CARTESIAN_POINT('',(0.29,0.14,0.0246203300791745));
#2269=CARTESIAN_POINT('',(-0.29,-0.14,0.0246203300791745));
#2270=CARTESIAN_POINT('',(-0.29,-0.14,0.0246203300791745));
#2271=CARTESIAN_POINT('',(0.3,-0.14,0.26));
#2272=CARTESIAN_POINT('',(0.29,-0.14,0.26));
#2273=CARTESIAN_POINT('',(0.29,0.15,0.26));
#2274=CARTESIAN_POINT('',(0.29,-0.14,0.26));
#2275=CARTESIAN_POINT('',(0.29,0.,0.0246203300791745));
#2276=CARTESIAN_POINT('',(0.29,-0.14,0.0246203300791745));
#2277=CARTESIAN_POINT('',(0.,-0.14,0.0246203300791745));
#2278=CARTESIAN_POINT('',(0.29,-0.14,0.0246203300791745));
#2279=CARTESIAN_POINT('',(0.29,-0.14,0.26));
#2280=CARTESIAN_POINT('',(0.29,-0.14,0.26));
#2281=CARTESIAN_POINT('',(0.29,-0.14,0.0246203300791745));
#2282=CARTESIAN_POINT('',(0.29,-0.14,0.0246203300791745));
#2283=CARTESIAN_POINT('',(0.29,-0.14,0.27));
#2284=MECHANICAL_DESIGN_GEOMETRIC_PRESENTATION_REPRESENTATION('',(#1038,
#1039,#1040,#1041,#1042,#1043,#1044,#1045,#1046,#1047,#1048,#1049,#1050,
#1051,#1052,#1053,#1054,#1055,#1056,#1057,#1058,#1059,#1060,#1061,#1062,
#1063,#1064,#1065,#1066,#1067,#1068,#1069,#1070,#1071,#1072,#1073,#1074,
#1075,#1076,#1077,#1078,#1079,#1080,#1081,#1082,#1083,#1084,#1085,#1086,
#1087,#1088,#1089,#1090,#1091,#1092,#1093,#1094,#1095,#1096,#1097,#1098,
#1099,#1100,#1101,#1102,#1103,#1104),#2285);
#2285=(
GEOMETRIC_REPRESENTATION_CONTEXT(3)
GLOBAL_UNCERTAINTY_ASSIGNED_CONTEXT((#2286))
GLOBAL_UNIT_ASSIGNED_CONTEXT((#2289,#2288,#2287))
REPRESENTATION_CONTEXT('SP0201B-ULC-01UTG','TOP_LEVEL_ASSEMBLY_PART')
);
#2286=UNCERTAINTY_MEASURE_WITH_UNIT(LENGTH_MEASURE(0.005),#2289,
'DISTANCE_ACCURACY_VALUE','Maximum Tolerance applied to model');
#2287=(
NAMED_UNIT(*)
SI_UNIT($,.STERADIAN.)
SOLID_ANGLE_UNIT()
);
#2288=(
NAMED_UNIT(*)
PLANE_ANGLE_UNIT()
SI_UNIT($,.RADIAN.)
);
#2289=(
LENGTH_UNIT()
NAMED_UNIT(*)
SI_UNIT(.MILLI.,.METRE.)
);
#2290=PRODUCT_DEFINITION_SHAPE('','',#2291);
#2291=PRODUCT_DEFINITION('','',#2293,#2292);
#2292=PRODUCT_DEFINITION_CONTEXT('',#2299,'design');
#2293=PRODUCT_DEFINITION_FORMATION_WITH_SPECIFIED_SOURCE('','',#2295,
 .NOT_KNOWN.);
#2294=PRODUCT_RELATED_PRODUCT_CATEGORY('','',(#2295));
#2295=PRODUCT('SP0201B-ULC-01UTG','SP0201B-ULC-01UTG',
'SP0201B-ULC-01UTG',(#2297));
#2296=PRODUCT_CATEGORY('','');
#2297=PRODUCT_CONTEXT('',#2299,'mechanical');
#2298=APPLICATION_PROTOCOL_DEFINITION('international standard',
'automotive_design',2010,#2299);
#2299=APPLICATION_CONTEXT(
'core data for automotive mechanical design processes');
ENDSEC;
END-ISO-10303-21;
