ISO-10303-21;
HEADER;
FILE_DESCRIPTION (( 'STEP AP214' ),
    '1' );
FILE_NAME ('TL1017AAAF260QG.STEP',
    '2023-12-05T05:20:56',
    ( '' ),
    ( '' ),
    'SwSTEP 2.0',
    'SolidWorks 2022',
    '' );
FILE_SCHEMA (( 'AUTOMOTIVE_DESIGN' ));
ENDSEC;

DATA;
#1 = ORIENTED_EDGE ( 'NONE', *, *, #69, .T. ) ;
#2 = VECTOR ( 'NONE', #208, 1000.000000000000000 ) ;
#3 =( NAMED_UNIT ( * ) PLANE_ANGLE_UNIT ( ) SI_UNIT ( $, .RADIAN. ) );
#4 = DIRECTION ( 'NONE',  ( -1.000000000000000000, 0.000000000000000000, -0.000000000000000000 ) ) ;
#5 = PRESENTATION_LAYER_ASSIGNMENT (  '', '', ( #373 ) ) ;
#6 =( LENGTH_UNIT ( ) NAMED_UNIT ( * ) SI_UNIT ( .MILLI., .METRE. ) );
#7 = CARTESIAN_POINT ( 'NONE',  ( 1.499999999999999778, 1.219999999999999973, -1.249999999999999778 ) ) ;
#8 = CIRCLE ( 'NONE', #608, 0.7500000000000001110 ) ;
#9 = CARTESIAN_POINT ( 'NONE',  ( -1.500000000000000000, 0.1000000000000000056, 0.6999999999999998446 ) ) ;
#10 = COLOUR_RGB ( '',0.7921568627450980005, 0.8196078431372548767, 0.9333333333333333481 ) ;
#11 = CLOSED_SHELL ( 'NONE', ( #566, #318, #125, #627, #558, #236, #502, #460, #512, #529, #452 ) ) ;
#12 = DIRECTION ( 'NONE',  ( 0.000000000000000000, 1.000000000000000000, 0.000000000000000000 ) ) ;
#13 = CARTESIAN_POINT ( 'NONE',  ( 1.500000000000000444, 0.1000000000000000056, -0.6999999999999999556 ) ) ;
#14 = CARTESIAN_POINT ( 'NONE',  ( 2.000000000000000000, 0.000000000000000000, -0.6999999999999999556 ) ) ;
#15 = VERTEX_POINT ( 'NONE', #200 ) ;
#16 =( NAMED_UNIT ( * ) SI_UNIT ( $, .STERADIAN. ) SOLID_ANGLE_UNIT ( ) );
#17 = DIRECTION ( 'NONE',  ( -0.000000000000000000, -1.000000000000000000, -0.000000000000000000 ) ) ;
#18 = ORIENTED_EDGE ( 'NONE', *, *, #388, .T. ) ;
#19 = DIRECTION ( 'NONE',  ( -1.000000000000000000, 0.000000000000000000, -0.000000000000000000 ) ) ;
#20 = EDGE_CURVE ( 'NONE', #716, #324, #581, .T. ) ;
#21 = FILL_AREA_STYLE_COLOUR ( '', #10 ) ;
#22 = ORIENTED_EDGE ( 'NONE', *, *, #35, .T. ) ;
#23 = CARTESIAN_POINT ( 'NONE',  ( 1.499999999999999778, 0.000000000000000000, -1.249999999999999778 ) ) ;
#24 = EDGE_CURVE ( 'NONE', #414, #159, #651, .T. ) ;
#25 = EDGE_LOOP ( 'NONE', ( #228, #409, #81, #389 ) ) ;
#26 = CARTESIAN_POINT ( 'NONE',  ( 0.000000000000000000, 1.399999999999999911, 0.000000000000000000 ) ) ;
#27 = CARTESIAN_POINT ( 'NONE',  ( -1.500000000000000000, 0.000000000000000000, 0.6999999999999998446 ) ) ;
#28 = AXIS2_PLACEMENT_3D ( 'NONE', #213, #221, #732 ) ;
#29 = PLANE ( 'NONE',  #280 ) ;
#30 = ORIENTED_EDGE ( 'NONE', *, *, #384, .F. ) ;
#31 = DIRECTION ( 'NONE',  ( 0.000000000000000000, 0.000000000000000000, 1.000000000000000000 ) ) ;
#32 = LINE ( 'NONE', #276, #413 ) ;
#33 = DIRECTION ( 'NONE',  ( 0.000000000000000000, -0.000000000000000000, 1.000000000000000000 ) ) ;
#34 = AXIS2_PLACEMENT_3D ( 'NONE', #477, #417, #242 ) ;
#35 = EDGE_CURVE ( 'NONE', #287, #476, #473, .T. ) ;
#36 = LINE ( 'NONE', #266, #641 ) ;
#37 = DIRECTION ( 'NONE',  ( -0.000000000000000000, -0.000000000000000000, 1.000000000000000000 ) ) ;
#38 = DIRECTION ( 'NONE',  ( -0.000000000000000000, -0.000000000000000000, 1.000000000000000000 ) ) ;
#39 = AXIS2_PLACEMENT_3D ( 'NONE', #222, #12, #217 ) ;
#40 = VECTOR ( 'NONE', #524, 1000.000000000000000 ) ;
#41 = VECTOR ( 'NONE', #587, 1000.000000000000000 ) ;
#42 = CARTESIAN_POINT ( 'NONE',  ( 2.000000000000000000, 0.000000000000000000, 0.6999999999999999556 ) ) ;
#43 = SURFACE_STYLE_FILL_AREA ( #663 ) ;
#44 = ORIENTED_EDGE ( 'NONE', *, *, #739, .F. ) ;
#45 = CARTESIAN_POINT ( 'NONE',  ( -1.500000000000000000, 0.000000000000000000, -0.6999999999999998446 ) ) ;
#46 = LINE ( 'NONE', #168, #570 ) ;
#47 = DIRECTION ( 'NONE',  ( 0.000000000000000000, -0.000000000000000000, 1.000000000000000000 ) ) ;
#48 = CARTESIAN_POINT ( 'NONE',  ( 1.500000000000000444, 0.000000000000000000, 0.6999999999999999556 ) ) ;
#49 = EDGE_LOOP ( 'NONE', ( #133, #203, #22, #712 ) ) ;
#50 = DIRECTION ( 'NONE',  ( 0.000000000000000000, 0.000000000000000000, -1.000000000000000000 ) ) ;
#51 = EDGE_CURVE ( 'NONE', #329, #659, #79, .T. ) ;
#52 = ORIENTED_EDGE ( 'NONE', *, *, #337, .F. ) ;
#53 = UNCERTAINTY_MEASURE_WITH_UNIT (LENGTH_MEASURE( 1.000000000000000082E-05 ), #593, 'distance_accuracy_value', 'NONE');
#54 = DIRECTION ( 'NONE',  ( -0.000000000000000000, -1.000000000000000000, -0.000000000000000000 ) ) ;
#55 = ORIENTED_EDGE ( 'NONE', *, *, #394, .F. ) ;
#56 = PRESENTATION_STYLE_ASSIGNMENT (( #727 ) ) ;
#57 = FACE_OUTER_BOUND ( 'NONE', #705, .T. ) ;
#58 =( LENGTH_UNIT ( ) NAMED_UNIT ( * ) SI_UNIT ( .MILLI., .METRE. ) );
#59 = EDGE_CURVE ( 'NONE', #451, #414, #665, .T. ) ;
#60 = ORIENTED_EDGE ( 'NONE', *, *, #262, .T. ) ;
#61 = AXIS2_PLACEMENT_3D ( 'NONE', #327, #714, #497 ) ;
#62 = DIRECTION ( 'NONE',  ( -1.734723475976807094E-16, 0.000000000000000000, -1.000000000000000000 ) ) ;
#63 = CARTESIAN_POINT ( 'NONE',  ( -1.500000000000000000, 0.1000000000000000056, 0.6999999999999998446 ) ) ;
#64 = VECTOR ( 'NONE', #232, 1000.000000000000000 ) ;
#65 = DIRECTION ( 'NONE',  ( 0.000000000000000000, 0.000000000000000000, 1.000000000000000000 ) ) ;
#66 = STYLED_ITEM ( 'NONE', ( #56 ), #529 ) ;
#67 = DIRECTION ( 'NONE',  ( 0.000000000000000000, -1.000000000000000000, 0.000000000000000000 ) ) ;
#68 = CARTESIAN_POINT ( 'NONE',  ( -2.000000000000000000, 0.1000000000000000056, 0.6999999999999999556 ) ) ;
#69 = EDGE_CURVE ( 'NONE', #76, #245, #661, .T. ) ;
#70 = DIRECTION ( 'NONE',  ( -0.000000000000000000, -1.000000000000000000, -0.000000000000000000 ) ) ;
#71 = DIRECTION ( 'NONE',  ( 1.000000000000000000, 0.000000000000000000, 0.000000000000000000 ) ) ;
#72 = CIRCLE ( 'NONE', #113, 0.6500000000000001332 ) ;
#73 = CARTESIAN_POINT ( 'NONE',  ( -1.499999999999999778, 0.000000000000000000, 1.250000000000000222 ) ) ;
#74 = ORIENTED_EDGE ( 'NONE', *, *, #367, .T. ) ;
#75 = CARTESIAN_POINT ( 'NONE',  ( 2.000000000000000000, 0.1000000000000000056, 0.6999999999999999556 ) ) ;
#76 = VERTEX_POINT ( 'NONE', #315 ) ;
#77 = ORIENTED_EDGE ( 'NONE', *, *, #243, .F. ) ;
#78 = STYLED_ITEM ( 'NONE', ( #454 ), #697 ) ;
#79 = LINE ( 'NONE', #7, #135 ) ;
#80 = FILL_AREA_STYLE_COLOUR ( '', #711 ) ;
#81 = ORIENTED_EDGE ( 'NONE', *, *, #632, .T. ) ;
#82 =( NAMED_UNIT ( * ) SI_UNIT ( $, .STERADIAN. ) SOLID_ANGLE_UNIT ( ) );
#83 = EDGE_CURVE ( 'NONE', #245, #451, #371, .T. ) ;
#84 = MECHANICAL_DESIGN_GEOMETRIC_PRESENTATION_REPRESENTATION (  '', ( #309 ), #380 ) ;
#85 = LINE ( 'NONE', #536, #556 ) ;
#86 = EDGE_LOOP ( 'NONE', ( #209, #379, #191, #305 ) ) ;
#87 = DIRECTION ( 'NONE',  ( 0.000000000000000000, 1.000000000000000000, 0.000000000000000000 ) ) ;
#88 =( NAMED_UNIT ( * ) SI_UNIT ( $, .STERADIAN. ) SOLID_ANGLE_UNIT ( ) );
#89 = CARTESIAN_POINT ( 'NONE',  ( 9.184850993605150903E-17, 1.219999999999999973, 0.7500000000000001110 ) ) ;
#90 = MECHANICAL_DESIGN_GEOMETRIC_PRESENTATION_REPRESENTATION (  '', ( #600 ), #387 ) ;
#91 = CARTESIAN_POINT ( 'NONE',  ( 0.000000000000000000, 0.1000000000000000056, 0.000000000000000000 ) ) ;
#92 = DIRECTION ( 'NONE',  ( -0.000000000000000000, -0.000000000000000000, 1.000000000000000000 ) ) ;
#93 = CARTESIAN_POINT ( 'NONE',  ( 0.000000000000000000, 1.500000000000000000, 0.6500000000000001332 ) ) ;
#94 = EDGE_CURVE ( 'NONE', #116, #436, #32, .T. ) ;
#95 =( GEOMETRIC_REPRESENTATION_CONTEXT ( 3 ) GLOBAL_UNCERTAINTY_ASSIGNED_CONTEXT ( ( #53 ) ) GLOBAL_UNIT_ASSIGNED_CONTEXT ( ( #593, #598, #88 ) ) REPRESENTATION_CONTEXT ( 'NONE', 'WORKASPACE' ) );
#96 = ORIENTED_EDGE ( 'NONE', *, *, #636, .T. ) ;
#97 = FACE_BOUND ( 'NONE', #274, .T. ) ;
#98 = FILL_AREA_STYLE_COLOUR ( '', #254 ) ;
#99 = CLOSED_SHELL ( 'NONE', ( #270, #115, #330, #568, #717, #152 ) ) ;
#100 = SURFACE_STYLE_FILL_AREA ( #376 ) ;
#101 = DIRECTION ( 'NONE',  ( 1.000000000000000000, 0.000000000000000000, 0.000000000000000000 ) ) ;
#102 = ORIENTED_EDGE ( 'NONE', *, *, #251, .F. ) ;
#103 = PLANE ( 'NONE',  #158 ) ;
#104 = EDGE_CURVE ( 'NONE', #590, #620, #647, .T. ) ;
#105 = SURFACE_STYLE_USAGE ( .BOTH. , #614 ) ;
#106 = CARTESIAN_POINT ( 'NONE',  ( 0.000000000000000000, 1.399999999999999911, 0.000000000000000000 ) ) ;
#107 = ORIENTED_EDGE ( 'NONE', *, *, #296, .F. ) ;
#108 = DIRECTION ( 'NONE',  ( 1.000000000000000000, 0.000000000000000000, 0.000000000000000000 ) ) ;
#109 = VECTOR ( 'NONE', #293, 1000.000000000000000 ) ;
#110 = ORIENTED_EDGE ( 'NONE', *, *, #739, .T. ) ;
#111 = UNCERTAINTY_MEASURE_WITH_UNIT (LENGTH_MEASURE( 1.000000000000000082E-05 ), #420, 'distance_accuracy_value', 'NONE');
#112 =( NAMED_UNIT ( * ) PLANE_ANGLE_UNIT ( ) SI_UNIT ( $, .RADIAN. ) );
#113 = AXIS2_PLACEMENT_3D ( 'NONE', #234, #458, #65 ) ;
#114 = CARTESIAN_POINT ( 'NONE',  ( 0.000000000000000000, 1.399999999999999911, -0.7500000000000001110 ) ) ;
#115 = ADVANCED_FACE ( 'NONE', ( #429 ), #535, .T. ) ;
#116 = VERTEX_POINT ( 'NONE', #654 ) ;
#117 = FILL_AREA_STYLE ('',( #385 ) ) ;
#118 = DIRECTION ( 'NONE',  ( -1.000000000000000000, -0.000000000000000000, -0.000000000000000000 ) ) ;
#119 = ORIENTED_EDGE ( 'NONE', *, *, #362, .F. ) ;
#120 = CARTESIAN_POINT ( 'NONE',  ( -2.000000000000000000, 0.1000000000000000056, 0.6999999999999999556 ) ) ;
#121 = EDGE_CURVE ( 'NONE', #694, #15, #256, .T. ) ;
#122 = CARTESIAN_POINT ( 'NONE',  ( -1.499999999999999778, 1.219999999999999973, 1.250000000000000222 ) ) ;
#123 = APPLICATION_CONTEXT ( 'automotive_design' ) ;
#124 = COLOUR_RGB ( '',1.000000000000000000, 0.000000000000000000, 0.000000000000000000 ) ;
#125 = ADVANCED_FACE ( 'NONE', ( #723 ), #368, .F. ) ;
#126 = CARTESIAN_POINT ( 'NONE',  ( -2.000000000000000000, 0.1000000000000000056, 0.6999999999999999556 ) ) ;
#127 = EDGE_CURVE ( 'NONE', #186, #590, #544, .T. ) ;
#128 = DIRECTION ( 'NONE',  ( -0.000000000000000000, 0.000000000000000000, 1.000000000000000000 ) ) ;
#129 = EDGE_LOOP ( 'NONE', ( #96, #252, #102, #664 ) ) ;
#130 = AXIS2_PLACEMENT_3D ( 'NONE', #543, #320, #31 ) ;
#131 = FACE_OUTER_BOUND ( 'NONE', #357, .T. ) ;
#132 = FACE_OUTER_BOUND ( 'NONE', #731, .T. ) ;
#133 = ORIENTED_EDGE ( 'NONE', *, *, #24, .F. ) ;
#134 = VECTOR ( 'NONE', #297, 1000.000000000000000 ) ;
#135 = VECTOR ( 'NONE', #545, 1000.000000000000000 ) ;
#136 = EDGE_LOOP ( 'NONE', ( #291, #616 ) ) ;
#137 = UNCERTAINTY_MEASURE_WITH_UNIT (LENGTH_MEASURE( 1.000000000000000082E-05 ), #199, 'distance_accuracy_value', 'NONE');
#138 = DIRECTION ( 'NONE',  ( 0.000000000000000000, 1.000000000000000000, 0.000000000000000000 ) ) ;
#139 = ORIENTED_EDGE ( 'NONE', *, *, #523, .T. ) ;
#140 = CARTESIAN_POINT ( 'NONE',  ( 2.000000000000000000, 0.1000000000000000056, -0.6999999999999999556 ) ) ;
#141 = SURFACE_STYLE_USAGE ( .BOTH. , #382 ) ;
#142 = EDGE_LOOP ( 'NONE', ( #685, #698, #707, #119 ) ) ;
#143 = DIRECTION ( 'NONE',  ( -1.000000000000000000, 0.000000000000000000, 0.000000000000000000 ) ) ;
#144 = ORIENTED_EDGE ( 'NONE', *, *, #83, .T. ) ;
#145 = LINE ( 'NONE', #42, #680 ) ;
#146 = CARTESIAN_POINT ( 'NONE',  ( 1.500000000000000444, 0.000000000000000000, -0.6999999999999999556 ) ) ;
#147 = VERTEX_POINT ( 'NONE', #434 ) ;
#148 = DIRECTION ( 'NONE',  ( 0.000000000000000000, 0.000000000000000000, 1.000000000000000000 ) ) ;
#149 = FACE_OUTER_BOUND ( 'NONE', #49, .T. ) ;
#150 = DIRECTION ( 'NONE',  ( 0.000000000000000000, 0.000000000000000000, 1.000000000000000000 ) ) ;
#151 = DIRECTION ( 'NONE',  ( 1.000000000000000000, -0.000000000000000000, 1.224646799147353207E-16 ) ) ;
#152 = ADVANCED_FACE ( 'NONE', ( #204 ), #419, .F. ) ;
#153 = VECTOR ( 'NONE', #687, 1000.000000000000000 ) ;
#154 = EDGE_LOOP ( 'NONE', ( #259, #563, #249, #412 ) ) ;
#155 = FILL_AREA_STYLE ('',( #375 ) ) ;
#156 = CARTESIAN_POINT ( 'NONE',  ( 0.000000000000000000, 0.000000000000000000, 0.000000000000000000 ) ) ;
#157 = FACE_OUTER_BOUND ( 'NONE', #241, .T. ) ;
#158 = AXIS2_PLACEMENT_3D ( 'NONE', #683, #161, #510 ) ;
#159 = VERTEX_POINT ( 'NONE', #490 ) ;
#160 = UNCERTAINTY_MEASURE_WITH_UNIT (LENGTH_MEASURE( 1.000000000000000082E-05 ), #630, 'distance_accuracy_value', 'NONE');
#161 = DIRECTION ( 'NONE',  ( 0.000000000000000000, 1.000000000000000000, 0.000000000000000000 ) ) ;
#162 = MANIFOLD_SOLID_BREP ( 'Boss-Extrude3[1]', #99 ) ;
#163 = SURFACE_STYLE_USAGE ( .BOTH. , #511 ) ;
#164 = AXIS2_PLACEMENT_3D ( 'NONE', #408, #577, #644 ) ;
#165 = EDGE_LOOP ( 'NONE', ( #110, #504, #533, #560 ) ) ;
#166 = AXIS2_PLACEMENT_3D ( 'NONE', #250, #190, #634 ) ;
#167 = EDGE_CURVE ( 'NONE', #344, #15, #145, .T. ) ;
#168 = CARTESIAN_POINT ( 'NONE',  ( 1.500000000000000444, 0.1000000000000000056, 0.6999999999999999556 ) ) ;
#169 = CARTESIAN_POINT ( 'NONE',  ( -1.500000000000000000, 0.1000000000000000056, -0.6999999999999998446 ) ) ;
#170 =( NAMED_UNIT ( * ) PLANE_ANGLE_UNIT ( ) SI_UNIT ( $, .RADIAN. ) );
#171 = EDGE_LOOP ( 'NONE', ( #555, #679, #431, #216 ) ) ;
#172 = CIRCLE ( 'NONE', #39, 0.6500000000000001332 ) ;
#173 = VECTOR ( 'NONE', #240, 1000.000000000000000 ) ;
#174 =( NAMED_UNIT ( * ) PLANE_ANGLE_UNIT ( ) SI_UNIT ( $, .RADIAN. ) );
#175 = LINE ( 'NONE', #235, #365 ) ;
#176 = ORIENTED_EDGE ( 'NONE', *, *, #243, .T. ) ;
#177 = DIRECTION ( 'NONE',  ( 0.000000000000000000, 0.000000000000000000, -1.000000000000000000 ) ) ;
#178 = PRODUCT_RELATED_PRODUCT_CATEGORY ( 'part', '', ( #601 ) ) ;
#179 = CARTESIAN_POINT ( 'NONE',  ( -1.499999999999999778, 1.219999999999999973, 1.250000000000000222 ) ) ;
#180 = COLOUR_RGB ( '',0.7921568627450980005, 0.8196078431372548767, 0.9333333333333333481 ) ;
#181 = EDGE_CURVE ( 'NONE', #575, #694, #272, .T. ) ;
#182 = CARTESIAN_POINT ( 'NONE',  ( 0.000000000000000000, 1.219999999999999973, 0.000000000000000000 ) ) ;
#183 = DIRECTION ( 'NONE',  ( 0.000000000000000000, 0.000000000000000000, -1.000000000000000000 ) ) ;
#184 = COLOUR_RGB ( '',1.000000000000000000, 0.000000000000000000, 0.000000000000000000 ) ;
#185 = CARTESIAN_POINT ( 'NONE',  ( -1.500000000000000222, 0.000000000000000000, -1.249999999999999778 ) ) ;
#186 = VERTEX_POINT ( 'NONE', #114 ) ;
#187 =( NAMED_UNIT ( * ) PLANE_ANGLE_UNIT ( ) SI_UNIT ( $, .RADIAN. ) );
#188 = VECTOR ( 'NONE', #273, 1000.000000000000000 ) ;
#189 = EDGE_CURVE ( 'NONE', #476, #159, #626, .T. ) ;
#190 = DIRECTION ( 'NONE',  ( 0.000000000000000000, -1.000000000000000000, 0.000000000000000000 ) ) ;
#191 = ORIENTED_EDGE ( 'NONE', *, *, #592, .F. ) ;
#192 = MECHANICAL_DESIGN_GEOMETRIC_PRESENTATION_REPRESENTATION (  '', ( #373 ), #573 ) ;
#193 = ORIENTED_EDGE ( 'NONE', *, *, #121, .T. ) ;
#194 = SURFACE_STYLE_FILL_AREA ( #247 ) ;
#195 = VECTOR ( 'NONE', #289, 1000.000000000000000 ) ;
#196 = ORIENTED_EDGE ( 'NONE', *, *, #104, .F. ) ;
#197 = AXIS2_PLACEMENT_3D ( 'NONE', #668, #143, #150 ) ;
#198 = EDGE_LOOP ( 'NONE', ( #44, #427, #361, #30 ) ) ;
#199 =( LENGTH_UNIT ( ) NAMED_UNIT ( * ) SI_UNIT ( .MILLI., .METRE. ) );
#200 = CARTESIAN_POINT ( 'NONE',  ( 2.000000000000000000, 0.000000000000000000, 0.6999999999999999556 ) ) ;
#201 = EDGE_CURVE ( 'NONE', #629, #329, #347, .T. ) ;
#202 = DIRECTION ( 'NONE',  ( 0.000000000000000000, 0.000000000000000000, 1.000000000000000000 ) ) ;
#203 = ORIENTED_EDGE ( 'NONE', *, *, #467, .F. ) ;
#204 = FACE_OUTER_BOUND ( 'NONE', #25, .T. ) ;
#205 = DIRECTION ( 'NONE',  ( 0.000000000000000000, -1.000000000000000000, 0.000000000000000000 ) ) ;
#206 = COLOUR_RGB ( '',1.000000000000000000, 0.000000000000000000, 0.000000000000000000 ) ;
#207 = CARTESIAN_POINT ( 'NONE',  ( 0.000000000000000000, 1.219999999999999973, -0.7500000000000001110 ) ) ;
#208 = DIRECTION ( 'NONE',  ( 0.000000000000000000, 0.000000000000000000, -1.000000000000000000 ) ) ;
#209 = ORIENTED_EDGE ( 'NONE', *, *, #662, .F. ) ;
#210 = DIRECTION ( 'NONE',  ( 0.000000000000000000, 0.000000000000000000, 1.000000000000000000 ) ) ;
#211 = ORIENTED_EDGE ( 'NONE', *, *, #433, .F. ) ;
#212 = FACE_OUTER_BOUND ( 'NONE', #551, .T. ) ;
#213 = CARTESIAN_POINT ( 'NONE',  ( 0.000000000000000000, 1.500000000000000000, 0.000000000000000000 ) ) ;
#214 = MECHANICAL_DESIGN_GEOMETRIC_PRESENTATION_REPRESENTATION (  '', ( #78 ), #239 ) ;
#215 =( NAMED_UNIT ( * ) PLANE_ANGLE_UNIT ( ) SI_UNIT ( $, .RADIAN. ) );
#216 = ORIENTED_EDGE ( 'NONE', *, *, #301, .T. ) ;
#217 = DIRECTION ( 'NONE',  ( 0.000000000000000000, 0.000000000000000000, 1.000000000000000000 ) ) ;
#218 = SURFACE_STYLE_FILL_AREA ( #674 ) ;
#219 = ORIENTED_EDGE ( 'NONE', *, *, #464, .T. ) ;
#220 = UNCERTAINTY_MEASURE_WITH_UNIT (LENGTH_MEASURE( 1.000000000000000082E-05 ), #617, 'distance_accuracy_value', 'NONE');
#221 = DIRECTION ( 'NONE',  ( -0.000000000000000000, -1.000000000000000000, -0.000000000000000000 ) ) ;
#222 = CARTESIAN_POINT ( 'NONE',  ( 0.000000000000000000, 1.500000000000000000, 0.000000000000000000 ) ) ;
#223 = AXIS2_PLACEMENT_3D ( 'NONE', #403, #19, #246 ) ;
#224 = VERTEX_POINT ( 'NONE', #386 ) ;
#225 = PRESENTATION_LAYER_ASSIGNMENT (  '', '', ( #340 ) ) ;
#226 = FILL_AREA_STYLE ('',( #396 ) ) ;
#227 = DIRECTION ( 'NONE',  ( -1.734723475976807094E-16, -0.000000000000000000, -1.000000000000000000 ) ) ;
#228 = ORIENTED_EDGE ( 'NONE', *, *, #59, .T. ) ;
#229 = AXIS2_PLACEMENT_3D ( 'NONE', #618, #567, #4 ) ;
#230 = EDGE_CURVE ( 'NONE', #670, #620, #172, .T. ) ;
#231 =( GEOMETRIC_REPRESENTATION_CONTEXT ( 3 ) GLOBAL_UNCERTAINTY_ASSIGNED_CONTEXT ( ( #160 ) ) GLOBAL_UNIT_ASSIGNED_CONTEXT ( ( #630, #174, #397 ) ) REPRESENTATION_CONTEXT ( 'NONE', 'WORKASPACE' ) );
#232 = DIRECTION ( 'NONE',  ( -0.000000000000000000, -1.000000000000000000, -0.000000000000000000 ) ) ;
#233 = VECTOR ( 'NONE', #424, 1000.000000000000000 ) ;
#234 = CARTESIAN_POINT ( 'NONE',  ( 0.000000000000000000, 1.500000000000000000, 0.000000000000000000 ) ) ;
#235 = CARTESIAN_POINT ( 'NONE',  ( 1.499999999999999778, 0.000000000000000000, -1.249999999999999778 ) ) ;
#236 = ADVANCED_FACE ( 'NONE', ( #57 ), #738, .F. ) ;
#237 = APPLICATION_CONTEXT ( 'automotive_design' ) ;
#238 = LINE ( 'NONE', #122, #457 ) ;
#239 =( GEOMETRIC_REPRESENTATION_CONTEXT ( 3 ) GLOBAL_UNCERTAINTY_ASSIGNED_CONTEXT ( ( #306 ) ) GLOBAL_UNIT_ASSIGNED_CONTEXT ( ( #6, #689, #619 ) ) REPRESENTATION_CONTEXT ( 'NONE', 'WORKASPACE' ) );
#240 = DIRECTION ( 'NONE',  ( -0.000000000000000000, -1.000000000000000000, -0.000000000000000000 ) ) ;
#241 = EDGE_LOOP ( 'NONE', ( #383, #55, #354, #565 ) ) ;
#242 = DIRECTION ( 'NONE',  ( 1.000000000000000000, 0.000000000000000000, -2.168404344971008868E-16 ) ) ;
#243 = EDGE_CURVE ( 'NONE', #590, #638, #677, .T. ) ;
#244 = LINE ( 'NONE', #350, #173 ) ;
#245 = VERTEX_POINT ( 'NONE', #169 ) ;
#246 = DIRECTION ( 'NONE',  ( -0.000000000000000000, 0.000000000000000000, 1.000000000000000000 ) ) ;
#247 = FILL_AREA_STYLE ('',( #21 ) ) ;
#248 = DIRECTION ( 'NONE',  ( -1.000000000000000000, 0.000000000000000000, 2.168404344971008868E-16 ) ) ;
#249 = ORIENTED_EDGE ( 'NONE', *, *, #104, .T. ) ;
#250 = CARTESIAN_POINT ( 'NONE',  ( 0.000000000000000000, 0.000000000000000000, 0.000000000000000000 ) ) ;
#251 = EDGE_CURVE ( 'NONE', #395, #629, #416, .T. ) ;
#252 = ORIENTED_EDGE ( 'NONE', *, *, #367, .F. ) ;
#253 = PLANE ( 'NONE',  #34 ) ;
#254 = COLOUR_RGB ( '',1.000000000000000000, 0.000000000000000000, 0.000000000000000000 ) ;
#255 = PRESENTATION_STYLE_ASSIGNMENT (( #650 ) ) ;
#256 = LINE ( 'NONE', #267, #474 ) ;
#257 = EDGE_CURVE ( 'NONE', #590, #186, #8, .T. ) ;
#258 = DIRECTION ( 'NONE',  ( 1.000000000000000000, 0.000000000000000000, -0.000000000000000000 ) ) ;
#259 = ORIENTED_EDGE ( 'NONE', *, *, #702, .F. ) ;
#260 = DIRECTION ( 'NONE',  ( -1.000000000000000000, 0.000000000000000000, -0.000000000000000000 ) ) ;
#261 = AXIS2_PLACEMENT_3D ( 'NONE', #589, #710, #258 ) ;
#262 = EDGE_CURVE ( 'NONE', #15, #374, #343, .T. ) ;
#263 = CARTESIAN_POINT ( 'NONE',  ( 2.000000000000000000, 0.1000000000000000056, 0.6999999999999999556 ) ) ;
#264 = LINE ( 'NONE', #435, #2 ) ;
#265 = TOROIDAL_SURFACE ( 'NONE', #130, 0.6500000000000001332, 0.1000000000000000056 ) ;
#266 = CARTESIAN_POINT ( 'NONE',  ( -1.500000000000000000, 0.1000000000000000056, 0.6999999999999998446 ) ) ;
#267 = CARTESIAN_POINT ( 'NONE',  ( 2.000000000000000000, 0.1000000000000000056, 0.6999999999999999556 ) ) ;
#268 = CARTESIAN_POINT ( 'NONE',  ( 8.572527594031473190E-17, 1.500000000000000000, -0.6500000000000001332 ) ) ;
#269 = PRESENTATION_LAYER_ASSIGNMENT (  '', '', ( #684 ) ) ;
#270 = ADVANCED_FACE ( 'NONE', ( #733 ), #292, .T. ) ;
#271 = SURFACE_SIDE_STYLE ('',( #275 ) ) ;
#272 = LINE ( 'NONE', #263, #356 ) ;
#273 = DIRECTION ( 'NONE',  ( -0.000000000000000000, -1.000000000000000000, -0.000000000000000000 ) ) ;
#274 = EDGE_LOOP ( 'NONE', ( #211, #360 ) ) ;
#275 = SURFACE_STYLE_FILL_AREA ( #483 ) ;
#276 = CARTESIAN_POINT ( 'NONE',  ( 1.500000000000000444, 0.1000000000000000056, 0.6999999999999999556 ) ) ;
#277 = ORIENTED_EDGE ( 'NONE', *, *, #20, .T. ) ;
#278 = DIRECTION ( 'NONE',  ( 0.000000000000000000, -0.000000000000000000, 1.000000000000000000 ) ) ;
#279 = DIRECTION ( 'NONE',  ( 1.734723475976807094E-16, 0.000000000000000000, 1.000000000000000000 ) ) ;
#280 = AXIS2_PLACEMENT_3D ( 'NONE', #669, #311, #33 ) ;
#281 = ORIENTED_EDGE ( 'NONE', *, *, #702, .T. ) ;
#282 = CARTESIAN_POINT ( 'NONE',  ( 9.184850993605150903E-17, 1.500000000000000000, 0.7500000000000001110 ) ) ;
#283 = ORIENTED_EDGE ( 'NONE', *, *, #708, .T. ) ;
#284 = SURFACE_SIDE_STYLE ('',( #500 ) ) ;
#285 = SURFACE_STYLE_FILL_AREA ( #226 ) ;
#286 = CARTESIAN_POINT ( 'NONE',  ( 0.000000000000000000, 0.000000000000000000, 0.000000000000000000 ) ) ;
#287 = VERTEX_POINT ( 'NONE', #444 ) ;
#288 = FACE_OUTER_BOUND ( 'NONE', #407, .T. ) ;
#289 = DIRECTION ( 'NONE',  ( 1.000000000000000000, 0.000000000000000000, 0.000000000000000000 ) ) ;
#290 = SURFACE_STYLE_USAGE ( .BOTH. , #622 ) ;
#291 = ORIENTED_EDGE ( 'NONE', *, *, #296, .T. ) ;
#292 = PLANE ( 'NONE',  #425 ) ;
#293 = DIRECTION ( 'NONE',  ( -1.000000000000000000, -0.000000000000000000, -0.000000000000000000 ) ) ;
#294 =( NAMED_UNIT ( * ) SI_UNIT ( $, .STERADIAN. ) SOLID_ANGLE_UNIT ( ) );
#295 = LINE ( 'NONE', #691, #541 ) ;
#296 = EDGE_CURVE ( 'NONE', #620, #670, #72, .T. ) ;
#297 = DIRECTION ( 'NONE',  ( -1.000000000000000000, -0.000000000000000000, -0.000000000000000000 ) ) ;
#298 = AXIS2_PLACEMENT_3D ( 'NONE', #126, #353, #128 ) ;
#299 = ORIENTED_EDGE ( 'NONE', *, *, #251, .T. ) ;
#300 = ORIENTED_EDGE ( 'NONE', *, *, #127, .T. ) ;
#301 = EDGE_CURVE ( 'NONE', #76, #147, #562, .T. ) ;
#302 = ORIENTED_EDGE ( 'NONE', *, *, #523, .F. ) ;
#303 = LINE ( 'NONE', #472, #134 ) ;
#304 = EDGE_LOOP ( 'NONE', ( #77, #312, #666, #721 ) ) ;
#305 = ORIENTED_EDGE ( 'NONE', *, *, #35, .F. ) ;
#306 = UNCERTAINTY_MEASURE_WITH_UNIT (LENGTH_MEASURE( 1.000000000000000082E-05 ), #6, 'distance_accuracy_value', 'NONE');
#307 = DIRECTION ( 'NONE',  ( 0.000000000000000000, 0.000000000000000000, -1.000000000000000000 ) ) ;
#308 = CARTESIAN_POINT ( 'NONE',  ( -1.500000000000000000, 0.1000000000000000056, 0.6999999999999998446 ) ) ;
#309 = STYLED_ITEM ( 'NONE', ( #552 ), #512 ) ;
#310 = CARTESIAN_POINT ( 'NONE',  ( 0.000000000000000000, 0.000000000000000000, 0.000000000000000000 ) ) ;
#311 = DIRECTION ( 'NONE',  ( 0.000000000000000000, 1.000000000000000000, 0.000000000000000000 ) ) ;
#312 = ORIENTED_EDGE ( 'NONE', *, *, #257, .T. ) ;
#313 = CARTESIAN_POINT ( 'NONE',  ( 1.500000000000000444, 0.1000000000000000056, -0.6999999999999999556 ) ) ;
#314 = MECHANICAL_DESIGN_GEOMETRIC_PRESENTATION_REPRESENTATION (  '', ( #537 ), #482 ) ;
#315 = CARTESIAN_POINT ( 'NONE',  ( -2.000000000000000000, 0.1000000000000000056, -0.6999999999999999556 ) ) ;
#316 = CARTESIAN_POINT ( 'NONE',  ( -1.500000000000000222, 0.000000000000000000, -1.249999999999999778 ) ) ;
#317 = AXIS2_PLACEMENT_3D ( 'NONE', #91, #432, #607 ) ;
#318 = ADVANCED_FACE ( 'NONE', ( #673 ), #518, .T. ) ;
#319 = VERTEX_POINT ( 'NONE', #23 ) ;
#320 = DIRECTION ( 'NONE',  ( 0.000000000000000000, 1.000000000000000000, 0.000000000000000000 ) ) ;
#321 = DIRECTION ( 'NONE',  ( 1.000000000000000000, -0.000000000000000000, 2.168404344971008868E-16 ) ) ;
#322 = VECTOR ( 'NONE', #279, 1000.000000000000000 ) ;
#323 = PLANE ( 'NONE',  #261 ) ;
#324 = VERTEX_POINT ( 'NONE', #359 ) ;
#325 = CLOSED_SHELL ( 'NONE', ( #583, #596, #341, #440, #495, #423 ) ) ;
#326 = DIRECTION ( 'NONE',  ( 0.000000000000000000, 0.000000000000000000, -1.000000000000000000 ) ) ;
#327 = CARTESIAN_POINT ( 'NONE',  ( -1.500000000000000000, 0.1000000000000000056, -0.6999999999999998446 ) ) ;
#328 = CARTESIAN_POINT ( 'NONE',  ( 1.499999999999999778, 1.219999999999999973, -1.249999999999999778 ) ) ;
#329 = VERTEX_POINT ( 'NONE', #701 ) ;
#330 = ADVANCED_FACE ( 'NONE', ( #580 ), #475, .T. ) ;
#331 = PRESENTATION_STYLE_ASSIGNMENT (( #105 ) ) ;
#332 = CARTESIAN_POINT ( 'NONE',  ( 0.000000000000000000, 1.500000000000000000, 0.000000000000000000 ) ) ;
#333 = EDGE_LOOP ( 'NONE', ( #516, #624, #725, #675 ) ) ;
#334 = CARTESIAN_POINT ( 'NONE',  ( -1.500000000000000222, 1.219999999999999973, -1.249999999999999778 ) ) ;
#335 = DIRECTION ( 'NONE',  ( 0.000000000000000000, 0.000000000000000000, 1.000000000000000000 ) ) ;
#336 = AXIS2_PLACEMENT_3D ( 'NONE', #286, #338, #559 ) ;
#337 = EDGE_CURVE ( 'NONE', #436, #339, #401, .T. ) ;
#338 = DIRECTION ( 'NONE',  ( 0.000000000000000000, 0.000000000000000000, 1.000000000000000000 ) ) ;
#339 = VERTEX_POINT ( 'NONE', #469 ) ;
#340 = STYLED_ITEM ( 'NONE', ( #706 ), #400 ) ;
#341 = ADVANCED_FACE ( 'NONE', ( #132 ), #411, .T. ) ;
#342 =( NAMED_UNIT ( * ) SI_UNIT ( $, .STERADIAN. ) SOLID_ANGLE_UNIT ( ) );
#343 = LINE ( 'NONE', #506, #704 ) ;
#344 = VERTEX_POINT ( 'NONE', #14 ) ;
#345 = SURFACE_STYLE_USAGE ( .BOTH. , #557 ) ;
#346 = ORIENTED_EDGE ( 'NONE', *, *, #657, .T. ) ;
#347 = LINE ( 'NONE', #179, #195 ) ;
#348 = FACE_OUTER_BOUND ( 'NONE', #402, .T. ) ;
#349 =( GEOMETRIC_REPRESENTATION_CONTEXT ( 3 ) GLOBAL_UNCERTAINTY_ASSIGNED_CONTEXT ( ( #220 ) ) GLOBAL_UNIT_ASSIGNED_CONTEXT ( ( #617, #112, #437 ) ) REPRESENTATION_CONTEXT ( 'NONE', 'WORKASPACE' ) );
#350 = CARTESIAN_POINT ( 'NONE',  ( 1.499999999999999778, 1.219999999999999973, -1.249999999999999778 ) ) ;
#351 = TOROIDAL_SURFACE ( 'NONE', #449, 0.6500000000000001332, 0.1000000000000000056 ) ;
#352 = CIRCLE ( 'NONE', #542, 0.7500000000000001110 ) ;
#353 = DIRECTION ( 'NONE',  ( -1.000000000000000000, 0.000000000000000000, -0.000000000000000000 ) ) ;
#354 = ORIENTED_EDGE ( 'NONE', *, *, #734, .F. ) ;
#355 = PLANE ( 'NONE',  #164 ) ;
#356 = VECTOR ( 'NONE', #553, 1000.000000000000000 ) ;
#357 = EDGE_LOOP ( 'NONE', ( #498, #508, #18, #139 ) ) ;
#358 = EDGE_CURVE ( 'NONE', #659, #319, #244, .T. ) ;
#359 = CARTESIAN_POINT ( 'NONE',  ( 1.500000000000000222, 0.000000000000000000, 1.250000000000000222 ) ) ;
#360 = ORIENTED_EDGE ( 'NONE', *, *, #464, .F. ) ;
#361 = ORIENTED_EDGE ( 'NONE', *, *, #636, .F. ) ;
#362 = EDGE_CURVE ( 'NONE', #436, #575, #406, .T. ) ;
#363 = EDGE_LOOP ( 'NONE', ( #392, #52, #446, #513 ) ) ;
#364 = FACE_OUTER_BOUND ( 'NONE', #481, .T. ) ;
#365 = VECTOR ( 'NONE', #227, 1000.000000000000000 ) ;
#366 = FACE_OUTER_BOUND ( 'NONE', #363, .T. ) ;
#367 = EDGE_CURVE ( 'NONE', #629, #716, #238, .T. ) ;
#368 = PLANE ( 'NONE',  #578 ) ;
#369 = DIRECTION ( 'NONE',  ( 1.000000000000000000, -0.000000000000000000, 2.168404344971008868E-16 ) ) ;
#370 = PLANE ( 'NONE',  #450 ) ;
#371 = LINE ( 'NONE', #539, #233 ) ;
#372 = LINE ( 'NONE', #48, #505 ) ;
#373 = STYLED_ITEM ( 'NONE', ( #255 ), #452 ) ;
#374 = VERTEX_POINT ( 'NONE', #571 ) ;
#375 = FILL_AREA_STYLE_COLOUR ( '', #124 ) ;
#376 = FILL_AREA_STYLE ('',( #729 ) ) ;
#377 = STYLED_ITEM ( 'NONE', ( #485 ), #162 ) ;
#378 = DIRECTION ( 'NONE',  ( 1.224646799147353207E-16, 0.000000000000000000, -1.000000000000000000 ) ) ;
#379 = ORIENTED_EDGE ( 'NONE', *, *, #69, .F. ) ;
#380 =( GEOMETRIC_REPRESENTATION_CONTEXT ( 3 ) GLOBAL_UNCERTAINTY_ASSIGNED_CONTEXT ( ( #538 ) ) GLOBAL_UNIT_ASSIGNED_CONTEXT ( ( #609, #3, #342 ) ) REPRESENTATION_CONTEXT ( 'NONE', 'WORKASPACE' ) );
#381 = SURFACE_STYLE_FILL_AREA ( #155 ) ;
#382 = SURFACE_SIDE_STYLE ('',( #100 ) ) ;
#383 = ORIENTED_EDGE ( 'NONE', *, *, #384, .T. ) ;
#384 = EDGE_CURVE ( 'NONE', #319, #224, #465, .T. ) ;
#385 = FILL_AREA_STYLE_COLOUR ( '', #184 ) ;
#386 = CARTESIAN_POINT ( 'NONE',  ( -1.500000000000000222, 0.000000000000000000, -1.249999999999999778 ) ) ;
#387 =( GEOMETRIC_REPRESENTATION_CONTEXT ( 3 ) GLOBAL_UNCERTAINTY_ASSIGNED_CONTEXT ( ( #111 ) ) GLOBAL_UNIT_ASSIGNED_CONTEXT ( ( #420, #215, #656 ) ) REPRESENTATION_CONTEXT ( 'NONE', 'WORKASPACE' ) );
#388 = EDGE_CURVE ( 'NONE', #694, #116, #303, .T. ) ;
#389 = ORIENTED_EDGE ( 'NONE', *, *, #692, .T. ) ;
#390 = FACE_OUTER_BOUND ( 'NONE', #136, .T. ) ;
#391 = CARTESIAN_POINT ( 'NONE',  ( -1.500000000000000222, 1.219999999999999973, -1.249999999999999778 ) ) ;
#392 = ORIENTED_EDGE ( 'NONE', *, *, #657, .F. ) ;
#393 = VECTOR ( 'NONE', #688, 1000.000000000000000 ) ;
#394 = EDGE_CURVE ( 'NONE', #395, #224, #526, .T. ) ;
#395 = VERTEX_POINT ( 'NONE', #696 ) ;
#396 = FILL_AREA_STYLE_COLOUR ( '', #206 ) ;
#397 =( NAMED_UNIT ( * ) SI_UNIT ( $, .STERADIAN. ) SOLID_ANGLE_UNIT ( ) );
#398 =( GEOMETRIC_REPRESENTATION_CONTEXT ( 3 ) GLOBAL_UNCERTAINTY_ASSIGNED_CONTEXT ( ( #585 ) ) GLOBAL_UNIT_ASSIGNED_CONTEXT ( ( #58, #170, #507 ) ) REPRESENTATION_CONTEXT ( 'NONE', 'WORKASPACE' ) );
#399 = DIRECTION ( 'NONE',  ( 0.000000000000000000, 1.000000000000000000, 0.000000000000000000 ) ) ;
#400 = MANIFOLD_SOLID_BREP ( 'Boss-Extrude3[2]', #325 ) ;
#401 = LINE ( 'NONE', #635, #719 ) ;
#402 = EDGE_LOOP ( 'NONE', ( #283, #346, #648, #60 ) ) ;
#403 = CARTESIAN_POINT ( 'NONE',  ( 1.500000000000000444, 0.1000000000000000056, 0.6999999999999999556 ) ) ;
#404 = VECTOR ( 'NONE', #550, 1000.000000000000000 ) ;
#405 = AXIS2_PLACEMENT_3D ( 'NONE', #182, #399, #148 ) ;
#406 = LINE ( 'NONE', #13, #579 ) ;
#407 = EDGE_LOOP ( 'NONE', ( #527, #281, #107, #196 ) ) ;
#408 = CARTESIAN_POINT ( 'NONE',  ( 1.500000000000000444, 0.1000000000000000056, 0.6999999999999999556 ) ) ;
#409 = ORIENTED_EDGE ( 'NONE', *, *, #24, .T. ) ;
#410 = AXIS2_PLACEMENT_3D ( 'NONE', #549, #709, #210 ) ;
#411 = PLANE ( 'NONE',  #491 ) ;
#412 = ORIENTED_EDGE ( 'NONE', *, *, #230, .F. ) ;
#413 = VECTOR ( 'NONE', #307, 1000.000000000000000 ) ;
#414 = VERTEX_POINT ( 'NONE', #462 ) ;
#415 = CARTESIAN_POINT ( 'NONE',  ( 1.500000000000000444, 0.1000000000000000056, -0.6999999999999999556 ) ) ;
#416 = LINE ( 'NONE', #391, #322 ) ;
#417 = DIRECTION ( 'NONE',  ( 2.168404344971008868E-16, 0.000000000000000000, 1.000000000000000000 ) ) ;
#418 =( LENGTH_UNIT ( ) NAMED_UNIT ( * ) SI_UNIT ( .MILLI., .METRE. ) );
#419 = PLANE ( 'NONE',  #519 ) ;
#420 =( LENGTH_UNIT ( ) NAMED_UNIT ( * ) SI_UNIT ( .MILLI., .METRE. ) );
#421 = CIRCLE ( 'NONE', #463, 0.1000000000000000472 ) ;
#422 = UNCERTAINTY_MEASURE_WITH_UNIT (LENGTH_MEASURE( 1.000000000000000082E-05 ), #695, 'distance_accuracy_value', 'NONE');
#423 = ADVANCED_FACE ( 'NONE', ( #348 ), #690, .T. ) ;
#424 = DIRECTION ( 'NONE',  ( 0.000000000000000000, -1.000000000000000000, 0.000000000000000000 ) ) ;
#425 = AXIS2_PLACEMENT_3D ( 'NONE', #9, #108, #177 ) ;
#426 = SURFACE_SIDE_STYLE ('',( #43 ) ) ;
#427 = ORIENTED_EDGE ( 'NONE', *, *, #20, .F. ) ;
#428 = FACE_OUTER_BOUND ( 'NONE', #142, .T. ) ;
#429 = FACE_OUTER_BOUND ( 'NONE', #520, .T. ) ;
#430 = LINE ( 'NONE', #316, #404 ) ;
#431 = ORIENTED_EDGE ( 'NONE', *, *, #592, .T. ) ;
#432 = DIRECTION ( 'NONE',  ( 0.000000000000000000, -1.000000000000000000, 0.000000000000000000 ) ) ;
#433 = EDGE_CURVE ( 'NONE', #487, #638, #484, .T. ) ;
#434 = CARTESIAN_POINT ( 'NONE',  ( -2.000000000000000000, 0.000000000000000000, -0.6999999999999999556 ) ) ;
#435 = CARTESIAN_POINT ( 'NONE',  ( -2.000000000000000000, 0.000000000000000000, 0.6999999999999999556 ) ) ;
#436 = VERTEX_POINT ( 'NONE', #415 ) ;
#437 =( NAMED_UNIT ( * ) SI_UNIT ( $, .STERADIAN. ) SOLID_ANGLE_UNIT ( ) );
#438 = CARTESIAN_POINT ( 'NONE',  ( -1.500000000000000000, 0.1000000000000000056, -0.6999999999999998446 ) ) ;
#439 = DIRECTION ( 'NONE',  ( 0.000000000000000000, 0.000000000000000000, -1.000000000000000000 ) ) ;
#440 = ADVANCED_FACE ( 'NONE', ( #366 ), #370, .T. ) ;
#441 = ORIENTED_EDGE ( 'NONE', *, *, #734, .T. ) ;
#442 = AXIS2_PLACEMENT_3D ( 'NONE', #564, #443, #278 ) ;
#443 = DIRECTION ( 'NONE',  ( 0.000000000000000000, 1.000000000000000000, 0.000000000000000000 ) ) ;
#444 = CARTESIAN_POINT ( 'NONE',  ( -1.500000000000000000, 0.1000000000000000056, 0.6999999999999998446 ) ) ;
#445 = APPLICATION_PROTOCOL_DEFINITION ( 'draft international standard', 'automotive_design', 1998, #123 ) ;
#446 = ORIENTED_EDGE ( 'NONE', *, *, #362, .T. ) ;
#447 = DIRECTION ( 'NONE',  ( 0.000000000000000000, -1.000000000000000000, 0.000000000000000000 ) ) ;
#448 = DIRECTION ( 'NONE',  ( -0.000000000000000000, -1.000000000000000000, -0.000000000000000000 ) ) ;
#449 = AXIS2_PLACEMENT_3D ( 'NONE', #26, #528, #202 ) ;
#450 = AXIS2_PLACEMENT_3D ( 'NONE', #313, #326, #260 ) ;
#451 = VERTEX_POINT ( 'NONE', #45 ) ;
#452 = ADVANCED_FACE ( 'NONE', ( #713 ), #265, .T. ) ;
#453 = FILL_AREA_STYLE ('',( #98 ) ) ;
#454 = PRESENTATION_STYLE_ASSIGNMENT (( #290 ) ) ;
#455 = MECHANICAL_DESIGN_GEOMETRIC_PRESENTATION_REPRESENTATION (  '', ( #377 ), #95 ) ;
#456 = ORIENTED_EDGE ( 'NONE', *, *, #337, .T. ) ;
#457 = VECTOR ( 'NONE', #70, 1000.000000000000000 ) ;
#458 = DIRECTION ( 'NONE',  ( 0.000000000000000000, 1.000000000000000000, 0.000000000000000000 ) ) ;
#459 = LINE ( 'NONE', #554, #109 ) ;
#460 = ADVANCED_FACE ( 'NONE', ( #726 ), #597, .F. ) ;
#461 = APPLICATION_PROTOCOL_DEFINITION ( 'draft international standard', 'automotive_design', 1998, #237 ) ;
#462 = CARTESIAN_POINT ( 'NONE',  ( -1.500000000000000000, 0.000000000000000000, 0.6999999999999998446 ) ) ;
#463 = AXIS2_PLACEMENT_3D ( 'NONE', #720, #151, #378 ) ;
#464 = EDGE_CURVE ( 'NONE', #638, #487, #352, .T. ) ;
#465 = LINE ( 'NONE', #185, #40 ) ;
#466 = ORIENTED_EDGE ( 'NONE', *, *, #576, .F. ) ;
#467 = EDGE_CURVE ( 'NONE', #287, #414, #36, .T. ) ;
#468 = DIRECTION ( 'NONE',  ( -0.000000000000000000, -1.000000000000000000, -0.000000000000000000 ) ) ;
#469 = CARTESIAN_POINT ( 'NONE',  ( 1.500000000000000444, 0.000000000000000000, -0.6999999999999999556 ) ) ;
#470 = ORIENTED_EDGE ( 'NONE', *, *, #201, .F. ) ;
#471 = CARTESIAN_POINT ( 'NONE',  ( 9.184850993605150903E-17, 1.399999999999999911, 0.7500000000000001110 ) ) ;
#472 = CARTESIAN_POINT ( 'NONE',  ( 1.500000000000000444, 0.1000000000000000056, 0.6999999999999999556 ) ) ;
#473 = LINE ( 'NONE', #63, #41 ) ;
#474 = VECTOR ( 'NONE', #615, 1000.000000000000000 ) ;
#475 = PLANE ( 'NONE',  #298 ) ;
#476 = VERTEX_POINT ( 'NONE', #718 ) ;
#477 = CARTESIAN_POINT ( 'NONE',  ( -1.500000000000000000, 0.1000000000000000056, 0.6999999999999998446 ) ) ;
#478 = PRESENTATION_LAYER_ASSIGNMENT (  '', '', ( #66 ) ) ;
#479 = CARTESIAN_POINT ( 'NONE',  ( 1.499999999999999778, 1.219999999999999973, -1.249999999999999778 ) ) ;
#480 = PRESENTATION_STYLE_ASSIGNMENT (( #503 ) ) ;
#481 = EDGE_LOOP ( 'NONE', ( #548, #302, #540, #456 ) ) ;
#482 =( GEOMETRIC_REPRESENTATION_CONTEXT ( 3 ) GLOBAL_UNCERTAINTY_ASSIGNED_CONTEXT ( ( #422 ) ) GLOBAL_UNIT_ASSIGNED_CONTEXT ( ( #695, #187, #16 ) ) REPRESENTATION_CONTEXT ( 'NONE', 'WORKASPACE' ) );
#483 = FILL_AREA_STYLE ('',( #586 ) ) ;
#484 = CIRCLE ( 'NONE', #405, 0.7500000000000001110 ) ;
#485 = PRESENTATION_STYLE_ASSIGNMENT (( #141 ) ) ;
#486 = LINE ( 'NONE', #715, #633 ) ;
#487 = VERTEX_POINT ( 'NONE', #207 ) ;
#488 = DIRECTION ( 'NONE',  ( 0.000000000000000000, -1.000000000000000000, 0.000000000000000000 ) ) ;
#489 = PRESENTATION_LAYER_ASSIGNMENT (  '', '', ( #377 ) ) ;
#490 = CARTESIAN_POINT ( 'NONE',  ( -2.000000000000000000, 0.000000000000000000, 0.6999999999999999556 ) ) ;
#491 = AXIS2_PLACEMENT_3D ( 'NONE', #75, #522, #574 ) ;
#492 = CARTESIAN_POINT ( 'NONE',  ( 2.000000000000000000, 0.1000000000000000056, 0.6999999999999999556 ) ) ;
#493 = VECTOR ( 'NONE', #71, 1000.000000000000000 ) ;
#494 = ORIENTED_EDGE ( 'NONE', *, *, #201, .T. ) ;
#495 = ADVANCED_FACE ( 'NONE', ( #428 ), #602, .F. ) ;
#496 = CARTESIAN_POINT ( 'NONE',  ( 0.000000000000000000, 1.219999999999999973, 0.000000000000000000 ) ) ;
#497 = DIRECTION ( 'NONE',  ( -1.000000000000000000, 0.000000000000000000, -2.168404344971008868E-16 ) ) ;
#498 = ORIENTED_EDGE ( 'NONE', *, *, #262, .F. ) ;
#499 = DIRECTION ( 'NONE',  ( 0.000000000000000000, -0.000000000000000000, 1.000000000000000000 ) ) ;
#500 = SURFACE_STYLE_FILL_AREA ( #453 ) ;
#501 = DIRECTION ( 'NONE',  ( 1.734723475976807094E-16, 0.000000000000000000, 1.000000000000000000 ) ) ;
#502 = ADVANCED_FACE ( 'NONE', ( #97, #212 ), #103, .T. ) ;
#503 = SURFACE_STYLE_USAGE ( .BOTH. , #426 ) ;
#504 = ORIENTED_EDGE ( 'NONE', *, *, #358, .F. ) ;
#505 = VECTOR ( 'NONE', #439, 1000.000000000000000 ) ;
#506 = CARTESIAN_POINT ( 'NONE',  ( 1.500000000000000444, 0.000000000000000000, 0.6999999999999999556 ) ) ;
#507 =( NAMED_UNIT ( * ) SI_UNIT ( $, .STERADIAN. ) SOLID_ANGLE_UNIT ( ) );
#508 = ORIENTED_EDGE ( 'NONE', *, *, #121, .F. ) ;
#509 = AXIS2_PLACEMENT_3D ( 'NONE', #334, #517, #62 ) ;
#510 = DIRECTION ( 'NONE',  ( 0.000000000000000000, -0.000000000000000000, 1.000000000000000000 ) ) ;
#511 = SURFACE_SIDE_STYLE ('',( #285 ) ) ;
#512 = ADVANCED_FACE ( 'NONE', ( #737 ), #514, .T. ) ;
#513 = ORIENTED_EDGE ( 'NONE', *, *, #728, .T. ) ;
#514 = CYLINDRICAL_SURFACE ( 'NONE', #28, 0.7500000000000001110 ) ;
#515 = COLOUR_RGB ( '',1.000000000000000000, 0.000000000000000000, 0.000000000000000000 ) ;
#516 = ORIENTED_EDGE ( 'NONE', *, *, #59, .F. ) ;
#517 = DIRECTION ( 'NONE',  ( 1.000000000000000000, 0.000000000000000000, -1.734723475976807094E-16 ) ) ;
#518 = CYLINDRICAL_SURFACE ( 'NONE', #623, 0.7500000000000001110 ) ;
#519 = AXIS2_PLACEMENT_3D ( 'NONE', #156, #610, #47 ) ;
#520 = EDGE_LOOP ( 'NONE', ( #584, #735, #1, #144 ) ) ;
#521 = VECTOR ( 'NONE', #321, 1000.000000000000000 ) ;
#522 = DIRECTION ( 'NONE',  ( 1.000000000000000000, 0.000000000000000000, 0.000000000000000000 ) ) ;
#523 = EDGE_CURVE ( 'NONE', #116, #374, #46, .T. ) ;
#524 = DIRECTION ( 'NONE',  ( -1.000000000000000000, -0.000000000000000000, -0.000000000000000000 ) ) ;
#525 = MECHANICAL_DESIGN_GEOMETRIC_PRESENTATION_REPRESENTATION (  '', ( #684 ), #231 ) ;
#526 = LINE ( 'NONE', #693, #646 ) ;
#527 = ORIENTED_EDGE ( 'NONE', *, *, #127, .F. ) ;
#528 = DIRECTION ( 'NONE',  ( 0.000000000000000000, 1.000000000000000000, 0.000000000000000000 ) ) ;
#529 = ADVANCED_FACE ( 'NONE', ( #390 ), #625, .T. ) ;
#530 = CARTESIAN_POINT ( 'NONE',  ( -1.500000000000000000, 0.000000000000000000, 0.6999999999999998446 ) ) ;
#531 = ORIENTED_EDGE ( 'NONE', *, *, #728, .F. ) ;
#532 = SURFACE_SIDE_STYLE ('',( #194 ) ) ;
#533 = ORIENTED_EDGE ( 'NONE', *, *, #51, .F. ) ;
#534 = PRESENTATION_LAYER_ASSIGNMENT (  '', '', ( #78 ) ) ;
#535 = PLANE ( 'NONE',  #61 ) ;
#536 = CARTESIAN_POINT ( 'NONE',  ( -1.500000000000000000, 0.000000000000000000, -0.6999999999999998446 ) ) ;
#537 = STYLED_ITEM ( 'NONE', ( #331 ), #566 ) ;
#538 = UNCERTAINTY_MEASURE_WITH_UNIT (LENGTH_MEASURE( 1.000000000000000082E-05 ), #609, 'distance_accuracy_value', 'NONE');
#539 = CARTESIAN_POINT ( 'NONE',  ( -1.500000000000000000, 0.1000000000000000056, -0.6999999999999998446 ) ) ;
#540 = ORIENTED_EDGE ( 'NONE', *, *, #94, .T. ) ;
#541 = VECTOR ( 'NONE', #468, 1000.000000000000000 ) ;
#542 = AXIS2_PLACEMENT_3D ( 'NONE', #496, #138, #722 ) ;
#543 = CARTESIAN_POINT ( 'NONE',  ( 0.000000000000000000, 1.399999999999999911, 0.000000000000000000 ) ) ;
#544 = CIRCLE ( 'NONE', #410, 0.7500000000000001110 ) ;
#545 = DIRECTION ( 'NONE',  ( -1.734723475976807094E-16, -0.000000000000000000, -1.000000000000000000 ) ) ;
#546 = LINE ( 'NONE', #724, #188 ) ;
#547 = VECTOR ( 'NONE', #37, 1000.000000000000000 ) ;
#548 = ORIENTED_EDGE ( 'NONE', *, *, #708, .F. ) ;
#549 = CARTESIAN_POINT ( 'NONE',  ( 0.000000000000000000, 1.399999999999999911, 0.000000000000000000 ) ) ;
#550 = DIRECTION ( 'NONE',  ( 1.734723475976807094E-16, 0.000000000000000000, 1.000000000000000000 ) ) ;
#551 = EDGE_LOOP ( 'NONE', ( #703, #441, #299, #494 ) ) ;
#552 = PRESENTATION_STYLE_ASSIGNMENT (( #345 ) ) ;
#553 = DIRECTION ( 'NONE',  ( -0.000000000000000000, -0.000000000000000000, 1.000000000000000000 ) ) ;
#554 = CARTESIAN_POINT ( 'NONE',  ( -1.500000000000000222, 1.219999999999999973, -1.249999999999999778 ) ) ;
#555 = ORIENTED_EDGE ( 'NONE', *, *, #632, .F. ) ;
#556 = VECTOR ( 'NONE', #369, 1000.000000000000000 ) ;
#557 = SURFACE_SIDE_STYLE ('',( #561 ) ) ;
#558 = ADVANCED_FACE ( 'NONE', ( #672 ), #667, .F. ) ;
#559 = DIRECTION ( 'NONE',  ( 1.000000000000000000, 0.000000000000000000, 0.000000000000000000 ) ) ;
#560 = ORIENTED_EDGE ( 'NONE', *, *, #576, .T. ) ;
#561 = SURFACE_STYLE_FILL_AREA ( #117 ) ;
#562 = LINE ( 'NONE', #621, #393 ) ;
#563 = ORIENTED_EDGE ( 'NONE', *, *, #257, .F. ) ;
#564 = CARTESIAN_POINT ( 'NONE',  ( 0.000000000000000000, 1.500000000000000000, 0.000000000000000000 ) ) ;
#565 = ORIENTED_EDGE ( 'NONE', *, *, #358, .T. ) ;
#566 = ADVANCED_FACE ( 'NONE', ( #288 ), #351, .T. ) ;
#567 = DIRECTION ( 'NONE',  ( 0.000000000000000000, 0.000000000000000000, -1.000000000000000000 ) ) ;
#568 = ADVANCED_FACE ( 'NONE', ( #149 ), #253, .T. ) ;
#569 = SURFACE_STYLE_USAGE ( .BOTH. , #532 ) ;
#570 = VECTOR ( 'NONE', #447, 1000.000000000000000 ) ;
#571 = CARTESIAN_POINT ( 'NONE',  ( 1.500000000000000444, 0.000000000000000000, 0.6999999999999999556 ) ) ;
#572 = VECTOR ( 'NONE', #101, 1000.000000000000000 ) ;
#573 =( GEOMETRIC_REPRESENTATION_CONTEXT ( 3 ) GLOBAL_UNCERTAINTY_ASSIGNED_CONTEXT ( ( #653 ) ) GLOBAL_UNIT_ASSIGNED_CONTEXT ( ( #418, #591, #82 ) ) REPRESENTATION_CONTEXT ( 'NONE', 'WORKASPACE' ) );
#574 = DIRECTION ( 'NONE',  ( 0.000000000000000000, 0.000000000000000000, -1.000000000000000000 ) ) ;
#575 = VERTEX_POINT ( 'NONE', #140 ) ;
#576 = EDGE_CURVE ( 'NONE', #329, #324, #295, .T. ) ;
#577 = DIRECTION ( 'NONE',  ( -0.000000000000000000, 0.000000000000000000, 1.000000000000000000 ) ) ;
#578 = AXIS2_PLACEMENT_3D ( 'NONE', #479, #604, #501 ) ;
#579 = VECTOR ( 'NONE', #637, 1000.000000000000000 ) ;
#580 = FACE_OUTER_BOUND ( 'NONE', #171, .T. ) ;
#581 = LINE ( 'NONE', #73, #493 ) ;
#582 = EDGE_LOOP ( 'NONE', ( #300, #176, #219, #643 ) ) ;
#583 = ADVANCED_FACE ( 'NONE', ( #364 ), #640, .T. ) ;
#584 = ORIENTED_EDGE ( 'NONE', *, *, #692, .F. ) ;
#585 = UNCERTAINTY_MEASURE_WITH_UNIT (LENGTH_MEASURE( 1.000000000000000082E-05 ), #58, 'distance_accuracy_value', 'NONE');
#586 = FILL_AREA_STYLE_COLOUR ( '', #515 ) ;
#587 = DIRECTION ( 'NONE',  ( -1.000000000000000000, 0.000000000000000000, 2.168404344971008868E-16 ) ) ;
#588 = VECTOR ( 'NONE', #38, 1000.000000000000000 ) ;
#589 = CARTESIAN_POINT ( 'NONE',  ( -1.500000000000000222, 1.219999999999999973, -1.249999999999999778 ) ) ;
#590 = VERTEX_POINT ( 'NONE', #471 ) ;
#591 =( NAMED_UNIT ( * ) PLANE_ANGLE_UNIT ( ) SI_UNIT ( $, .RADIAN. ) );
#592 = EDGE_CURVE ( 'NONE', #476, #76, #699, .T. ) ;
#593 =( LENGTH_UNIT ( ) NAMED_UNIT ( * ) SI_UNIT ( .MILLI., .METRE. ) );
#594 = LINE ( 'NONE', #308, #588 ) ;
#595 = PRESENTATION_LAYER_ASSIGNMENT (  '', '', ( #309 ) ) ;
#596 = ADVANCED_FACE ( 'NONE', ( #131 ), #355, .T. ) ;
#597 = PLANE ( 'NONE',  #678 ) ;
#598 =( NAMED_UNIT ( * ) PLANE_ANGLE_UNIT ( ) SI_UNIT ( $, .RADIAN. ) );
#599 = LINE ( 'NONE', #146, #572 ) ;
#600 = STYLED_ITEM ( 'NONE', ( #480 ), #658 ) ;
#601 = PRODUCT ( 'TL1017AAAF260QG', 'TL1017AAAF260QG', '', ( #682 ) ) ;
#602 = PLANE ( 'NONE',  #317 ) ;
#603 = MECHANICAL_DESIGN_GEOMETRIC_PRESENTATION_REPRESENTATION (  '', ( #340 ), #700 ) ;
#604 = DIRECTION ( 'NONE',  ( -1.000000000000000000, 0.000000000000000000, 1.734723475976807094E-16 ) ) ;
#605 = FACE_OUTER_BOUND ( 'NONE', #86, .T. ) ;
#606 = ORIENTED_EDGE ( 'NONE', *, *, #167, .F. ) ;
#607 = DIRECTION ( 'NONE',  ( 0.000000000000000000, -0.000000000000000000, -1.000000000000000000 ) ) ;
#608 = AXIS2_PLACEMENT_3D ( 'NONE', #106, #54, #335 ) ;
#609 =( LENGTH_UNIT ( ) NAMED_UNIT ( * ) SI_UNIT ( .MILLI., .METRE. ) );
#610 = DIRECTION ( 'NONE',  ( 0.000000000000000000, 1.000000000000000000, 0.000000000000000000 ) ) ;
#611 = CARTESIAN_POINT ( 'NONE',  ( -1.499999999999999778, 0.000000000000000000, 1.250000000000000222 ) ) ;
#612 = VECTOR ( 'NONE', #248, 1000.000000000000000 ) ;
#613 = ORIENTED_EDGE ( 'NONE', *, *, #181, .T. ) ;
#614 = SURFACE_SIDE_STYLE ('',( #381 ) ) ;
#615 = DIRECTION ( 'NONE',  ( 0.000000000000000000, -1.000000000000000000, 0.000000000000000000 ) ) ;
#616 = ORIENTED_EDGE ( 'NONE', *, *, #230, .T. ) ;
#617 =( LENGTH_UNIT ( ) NAMED_UNIT ( * ) SI_UNIT ( .MILLI., .METRE. ) );
#618 = CARTESIAN_POINT ( 'NONE',  ( -1.499999999999999778, 1.219999999999999973, 1.250000000000000222 ) ) ;
#619 =( NAMED_UNIT ( * ) SI_UNIT ( $, .STERADIAN. ) SOLID_ANGLE_UNIT ( ) );
#620 = VERTEX_POINT ( 'NONE', #93 ) ;
#621 = CARTESIAN_POINT ( 'NONE',  ( -2.000000000000000000, 0.1000000000000000056, -0.6999999999999999556 ) ) ;
#622 = SURFACE_SIDE_STYLE ('',( #218 ) ) ;
#623 = AXIS2_PLACEMENT_3D ( 'NONE', #332, #448, #50 ) ;
#624 = ORIENTED_EDGE ( 'NONE', *, *, #83, .F. ) ;
#625 = PLANE ( 'NONE',  #442 ) ;
#626 = LINE ( 'NONE', #120, #153 ) ;
#627 = ADVANCED_FACE ( 'NONE', ( #157 ), #323, .F. ) ;
#628 = SHAPE_DEFINITION_REPRESENTATION ( #660, #697 ) ;
#629 = VERTEX_POINT ( 'NONE', #730 ) ;
#630 =( LENGTH_UNIT ( ) NAMED_UNIT ( * ) SI_UNIT ( .MILLI., .METRE. ) );
#631 = FILL_AREA_STYLE_COLOUR ( '', #180 ) ;
#632 = EDGE_CURVE ( 'NONE', #159, #147, #264, .T. ) ;
#633 = VECTOR ( 'NONE', #205, 1000.000000000000000 ) ;
#634 = DIRECTION ( 'NONE',  ( 0.000000000000000000, -0.000000000000000000, -1.000000000000000000 ) ) ;
#635 = CARTESIAN_POINT ( 'NONE',  ( 1.500000000000000444, 0.1000000000000000056, -0.6999999999999999556 ) ) ;
#636 = EDGE_CURVE ( 'NONE', #224, #716, #430, .T. ) ;
#637 = DIRECTION ( 'NONE',  ( 1.000000000000000000, 0.000000000000000000, 0.000000000000000000 ) ) ;
#638 = VERTEX_POINT ( 'NONE', #89 ) ;
#639 = VECTOR ( 'NONE', #183, 1000.000000000000000 ) ;
#640 = PLANE ( 'NONE',  #223 ) ;
#641 = VECTOR ( 'NONE', #488, 1000.000000000000000 ) ;
#642 =( NAMED_UNIT ( * ) PLANE_ANGLE_UNIT ( ) SI_UNIT ( $, .RADIAN. ) );
#643 = ORIENTED_EDGE ( 'NONE', *, *, #652, .F. ) ;
#644 = DIRECTION ( 'NONE',  ( 1.000000000000000000, 0.000000000000000000, 0.000000000000000000 ) ) ;
#645 = COLOUR_RGB ( '',0.7921568627450980005, 0.8196078431372548767, 0.9333333333333333481 ) ;
#646 = VECTOR ( 'NONE', #17, 1000.000000000000000 ) ;
#647 = CIRCLE ( 'NONE', #197, 0.1000000000000000472 ) ;
#648 = ORIENTED_EDGE ( 'NONE', *, *, #167, .T. ) ;
#649 = PRODUCT_DEFINITION ( 'UNKNOWN', '', #655, #686 ) ;
#650 = SURFACE_STYLE_USAGE ( .BOTH. , #271 ) ;
#651 = LINE ( 'NONE', #530, #612 ) ;
#652 = EDGE_CURVE ( 'NONE', #186, #487, #546, .T. ) ;
#653 = UNCERTAINTY_MEASURE_WITH_UNIT (LENGTH_MEASURE( 1.000000000000000082E-05 ), #418, 'distance_accuracy_value', 'NONE');
#654 = CARTESIAN_POINT ( 'NONE',  ( 1.500000000000000444, 0.1000000000000000056, 0.6999999999999999556 ) ) ;
#655 = PRODUCT_DEFINITION_FORMATION_WITH_SPECIFIED_SOURCE ( 'ANY', '', #601, .NOT_KNOWN. ) ;
#656 =( NAMED_UNIT ( * ) SI_UNIT ( $, .STERADIAN. ) SOLID_ANGLE_UNIT ( ) );
#657 = EDGE_CURVE ( 'NONE', #339, #344, #599, .T. ) ;
#658 = MANIFOLD_SOLID_BREP ( 'Fillet1', #11 ) ;
#659 = VERTEX_POINT ( 'NONE', #328 ) ;
#660 = PRODUCT_DEFINITION_SHAPE ( 'NONE', 'NONE',  #649 ) ;
#661 = LINE ( 'NONE', #438, #521 ) ;
#662 = EDGE_CURVE ( 'NONE', #245, #287, #594, .T. ) ;
#663 = FILL_AREA_STYLE ('',( #80 ) ) ;
#664 = ORIENTED_EDGE ( 'NONE', *, *, #394, .T. ) ;
#665 = LINE ( 'NONE', #27, #547 ) ;
#666 = ORIENTED_EDGE ( 'NONE', *, *, #652, .T. ) ;
#667 = PLANE ( 'NONE',  #509 ) ;
#668 = CARTESIAN_POINT ( 'NONE',  ( 0.000000000000000000, 1.399999999999999911, 0.6500000000000001332 ) ) ;
#669 = CARTESIAN_POINT ( 'NONE',  ( 0.000000000000000000, 0.1000000000000000056, 0.000000000000000000 ) ) ;
#670 = VERTEX_POINT ( 'NONE', #268 ) ;
#671 = MECHANICAL_DESIGN_GEOMETRIC_PRESENTATION_REPRESENTATION (  '', ( #66 ), #349 ) ;
#672 = FACE_OUTER_BOUND ( 'NONE', #129, .T. ) ;
#673 = FACE_OUTER_BOUND ( 'NONE', #582, .T. ) ;
#674 = FILL_AREA_STYLE ('',( #631 ) ) ;
#675 = ORIENTED_EDGE ( 'NONE', *, *, #467, .T. ) ;
#676 = PRESENTATION_LAYER_ASSIGNMENT (  '', '', ( #600 ) ) ;
#677 = LINE ( 'NONE', #282, #64 ) ;
#678 = AXIS2_PLACEMENT_3D ( 'NONE', #310, #87, #499 ) ;
#679 = ORIENTED_EDGE ( 'NONE', *, *, #189, .F. ) ;
#680 = VECTOR ( 'NONE', #92, 1000.000000000000000 ) ;
#681 = PRESENTATION_STYLE_ASSIGNMENT (( #163 ) ) ;
#682 = PRODUCT_CONTEXT ( 'NONE', #123, 'mechanical' ) ;
#683 = CARTESIAN_POINT ( 'NONE',  ( 0.000000000000000000, 1.219999999999999973, 0.000000000000000000 ) ) ;
#684 = STYLED_ITEM ( 'NONE', ( #681 ), #318 ) ;
#685 = ORIENTED_EDGE ( 'NONE', *, *, #94, .F. ) ;
#686 = PRODUCT_DEFINITION_CONTEXT ( 'detailed design', #237, 'design' ) ;
#687 = DIRECTION ( 'NONE',  ( 0.000000000000000000, -1.000000000000000000, 0.000000000000000000 ) ) ;
#688 = DIRECTION ( 'NONE',  ( 0.000000000000000000, -1.000000000000000000, 0.000000000000000000 ) ) ;
#689 =( NAMED_UNIT ( * ) PLANE_ANGLE_UNIT ( ) SI_UNIT ( $, .RADIAN. ) );
#690 = PLANE ( 'NONE',  #166 ) ;
#691 = CARTESIAN_POINT ( 'NONE',  ( 1.500000000000000222, 1.219999999999999973, 1.250000000000000222 ) ) ;
#692 = EDGE_CURVE ( 'NONE', #147, #451, #85, .T. ) ;
#693 = CARTESIAN_POINT ( 'NONE',  ( -1.500000000000000222, 1.219999999999999973, -1.249999999999999778 ) ) ;
#694 = VERTEX_POINT ( 'NONE', #492 ) ;
#695 =( LENGTH_UNIT ( ) NAMED_UNIT ( * ) SI_UNIT ( .MILLI., .METRE. ) );
#696 = CARTESIAN_POINT ( 'NONE',  ( -1.500000000000000222, 1.219999999999999973, -1.249999999999999778 ) ) ;
#697 = ADVANCED_BREP_SHAPE_REPRESENTATION ( 'TL1017AAAF260QG', ( #658, #162, #400, #336 ), #398 ) ;
#698 = ORIENTED_EDGE ( 'NONE', *, *, #388, .F. ) ;
#699 = LINE ( 'NONE', #68, #639 ) ;
#700 =( GEOMETRIC_REPRESENTATION_CONTEXT ( 3 ) GLOBAL_UNCERTAINTY_ASSIGNED_CONTEXT ( ( #137 ) ) GLOBAL_UNIT_ASSIGNED_CONTEXT ( ( #199, #642, #294 ) ) REPRESENTATION_CONTEXT ( 'NONE', 'WORKASPACE' ) );
#701 = CARTESIAN_POINT ( 'NONE',  ( 1.500000000000000222, 1.219999999999999973, 1.250000000000000222 ) ) ;
#702 = EDGE_CURVE ( 'NONE', #186, #670, #421, .T. ) ;
#703 = ORIENTED_EDGE ( 'NONE', *, *, #51, .T. ) ;
#704 = VECTOR ( 'NONE', #118, 1000.000000000000000 ) ;
#705 = EDGE_LOOP ( 'NONE', ( #277, #466, #470, #74 ) ) ;
#706 = PRESENTATION_STYLE_ASSIGNMENT (( #569 ) ) ;
#707 = ORIENTED_EDGE ( 'NONE', *, *, #181, .F. ) ;
#708 = EDGE_CURVE ( 'NONE', #374, #339, #372, .T. ) ;
#709 = DIRECTION ( 'NONE',  ( -0.000000000000000000, -1.000000000000000000, -0.000000000000000000 ) ) ;
#710 = DIRECTION ( 'NONE',  ( 0.000000000000000000, 0.000000000000000000, 1.000000000000000000 ) ) ;
#711 = COLOUR_RGB ( '',0.7921568627450980005, 0.8196078431372548767, 0.9333333333333333481 ) ;
#712 = ORIENTED_EDGE ( 'NONE', *, *, #189, .T. ) ;
#713 = FACE_OUTER_BOUND ( 'NONE', #154, .T. ) ;
#714 = DIRECTION ( 'NONE',  ( 2.168404344971008868E-16, 0.000000000000000000, -1.000000000000000000 ) ) ;
#715 = CARTESIAN_POINT ( 'NONE',  ( 2.000000000000000000, 0.1000000000000000056, -0.6999999999999999556 ) ) ;
#716 = VERTEX_POINT ( 'NONE', #611 ) ;
#717 = ADVANCED_FACE ( 'NONE', ( #605 ), #29, .T. ) ;
#718 = CARTESIAN_POINT ( 'NONE',  ( -2.000000000000000000, 0.1000000000000000056, 0.6999999999999999556 ) ) ;
#719 = VECTOR ( 'NONE', #67, 1000.000000000000000 ) ;
#720 = CARTESIAN_POINT ( 'NONE',  ( 7.960204194457796709E-17, 1.399999999999999911, -0.6500000000000001332 ) ) ;
#721 = ORIENTED_EDGE ( 'NONE', *, *, #433, .T. ) ;
#722 = DIRECTION ( 'NONE',  ( 0.000000000000000000, 0.000000000000000000, 1.000000000000000000 ) ) ;
#723 = FACE_OUTER_BOUND ( 'NONE', #165, .T. ) ;
#724 = CARTESIAN_POINT ( 'NONE',  ( 0.000000000000000000, 1.500000000000000000, -0.7500000000000001110 ) ) ;
#725 = ORIENTED_EDGE ( 'NONE', *, *, #662, .T. ) ;
#726 = FACE_OUTER_BOUND ( 'NONE', #198, .T. ) ;
#727 = SURFACE_STYLE_USAGE ( .BOTH. , #284 ) ;
#728 = EDGE_CURVE ( 'NONE', #575, #344, #486, .T. ) ;
#729 = FILL_AREA_STYLE_COLOUR ( '', #645 ) ;
#730 = CARTESIAN_POINT ( 'NONE',  ( -1.499999999999999778, 1.219999999999999973, 1.250000000000000222 ) ) ;
#731 = EDGE_LOOP ( 'NONE', ( #606, #531, #613, #193 ) ) ;
#732 = DIRECTION ( 'NONE',  ( 0.000000000000000000, 0.000000000000000000, -1.000000000000000000 ) ) ;
#733 = FACE_OUTER_BOUND ( 'NONE', #333, .T. ) ;
#734 = EDGE_CURVE ( 'NONE', #659, #395, #459, .T. ) ;
#735 = ORIENTED_EDGE ( 'NONE', *, *, #301, .F. ) ;
#736 = PRESENTATION_LAYER_ASSIGNMENT (  '', '', ( #537 ) ) ;
#737 = FACE_OUTER_BOUND ( 'NONE', #304, .T. ) ;
#738 = PLANE ( 'NONE',  #229 ) ;
#739 = EDGE_CURVE ( 'NONE', #324, #319, #175, .T. ) ;
ENDSEC;
END-ISO-10303-21;
