ISO-10303-21;
HEADER;
FILE_DESCRIPTION (( 'STEP AP214' ),
    '1' );
FILE_NAME ('TPS63805YFFR.STEP',
    '2019-01-29T20:28:08',
    ( '' ),
    ( '' ),
    'SwSTEP 2.0',
    'SolidWorks 2017',
    '' );
FILE_SCHEMA (( 'AUTOMOTIVE_DESIGN' ));
ENDSEC;

DATA;
#1 = SPHERICAL_SURFACE ( 'NONE', #20, 0.1499999999999999900 ) ;
#2 = DIRECTION ( 'NONE',  ( 1.000000000000000000, -2.661027428305382000E-032, 1.224646799147353200E-016 ) ) ;
#3 = EDGE_CURVE ( 'NONE', #204, #685, #977, .T. ) ;
#4 = ADVANCED_FACE ( 'NONE', ( #732 ), #859, .T. ) ;
#5 = VERTEX_POINT ( 'NONE', #479 ) ;
#6 = VERTEX_POINT ( 'NONE', #411 ) ;
#7 = PRESENTATION_LAYER_ASSIGNMENT (  '', '', ( #21 ) ) ;
#8 = SURFACE_SIDE_STYLE ('',( #39 ) ) ;
#9 = DIRECTION ( 'NONE',  ( 1.000000000000000000, 0.0000000000000000000, 0.0000000000000000000 ) ) ;
#10 = AXIS2_PLACEMENT_3D ( 'NONE', #561, #325, #793 ) ;
#11 = FACE_OUTER_BOUND ( 'NONE', #96, .T. ) ;
#12 = SURFACE_SIDE_STYLE ('',( #927 ) ) ;
#13 = ADVANCED_FACE ( 'NONE', ( #289 ), #1, .T. ) ;
#14 = EDGE_LOOP ( 'NONE', ( #216, #563 ) ) ;
#15 = DIRECTION ( 'NONE',  ( -1.000000000000000000, -0.0000000000000000000, 0.0000000000000000000 ) ) ;
#16 = EDGE_LOOP ( 'NONE', ( #827, #890 ) ) ;
#17 = ORIENTED_EDGE ( 'NONE', *, *, #564, .T. ) ;
#18 = ADVANCED_FACE ( 'NONE', ( #940 ), #354, .F. ) ;
#19 = CIRCLE ( 'NONE', #257, 0.1499999999999999700 ) ;
#20 = AXIS2_PLACEMENT_3D ( 'NONE', #426, #595, #823 ) ;
#21 = STYLED_ITEM ( 'NONE', ( #283 ), #711 ) ;
#22 = CARTESIAN_POINT ( 'NONE',  ( 0.4000000000000000800, -0.1500000000000000500, -0.7999999999999999300 ) ) ;
#23 = SURFACE_STYLE_FILL_AREA ( #488 ) ;
#24 = CARTESIAN_POINT ( 'NONE',  ( -0.3999999999999999100, -0.1500000000000000500, 0.4000000000000000800 ) ) ;
#25 = DIRECTION ( 'NONE',  ( 1.000000000000000000, 0.0000000000000000000, 0.0000000000000000000 ) ) ;
#26 = UNCERTAINTY_MEASURE_WITH_UNIT (LENGTH_MEASURE( 1.000000000000000100E-005 ), #54, 'distance_accuracy_value', 'NONE');
#27 = CARTESIAN_POINT ( 'NONE',  ( 0.6720000000000001500, 0.0000000000000000000, 1.127499999999999900 ) ) ;
#28 = ORIENTED_EDGE ( 'NONE', *, *, #760, .T. ) ;
#29 = ORIENTED_EDGE ( 'NONE', *, *, #3, .T. ) ;
#30 = DIRECTION ( 'NONE',  ( 1.224646799147353200E-016, 0.0000000000000000000, -1.000000000000000000 ) ) ;
#31 = AXIS2_PLACEMENT_3D ( 'NONE', #52, #267, #879 ) ;
#32 = DIRECTION ( 'NONE',  ( 0.0000000000000000000, 0.0000000000000000000, 1.000000000000000000 ) ) ;
#33 = SURFACE_STYLE_USAGE ( .BOTH. , #718 ) ;
#34 = CIRCLE ( 'NONE', #211, 0.1499999999999999900 ) ;
#35 =( LENGTH_UNIT ( ) NAMED_UNIT ( * ) SI_UNIT ( .MILLI., .METRE. ) );
#36 =( GEOMETRIC_REPRESENTATION_CONTEXT ( 3 ) GLOBAL_UNCERTAINTY_ASSIGNED_CONTEXT ( ( #305 ) ) GLOBAL_UNIT_ASSIGNED_CONTEXT ( ( #809, #124, #655 ) ) REPRESENTATION_CONTEXT ( 'NONE', 'WORKASPACE' ) );
#37 = DIRECTION ( 'NONE',  ( 0.0000000000000000000, -1.807003620809174600E-016, 1.000000000000000000 ) ) ;
#38 = CARTESIAN_POINT ( 'NONE',  ( 0.4000000000000000800, -0.3000000000000000400, -0.7999999999999999300 ) ) ;
#39 = SURFACE_STYLE_FILL_AREA ( #772 ) ;
#40 = ORIENTED_EDGE ( 'NONE', *, *, #667, .T. ) ;
#41 = ORIENTED_EDGE ( 'NONE', *, *, #550, .T. ) ;
#42 =( NAMED_UNIT ( * ) PLANE_ANGLE_UNIT ( ) SI_UNIT ( $, .RADIAN. ) );
#43 =( LENGTH_UNIT ( ) NAMED_UNIT ( * ) SI_UNIT ( .MILLI., .METRE. ) );
#44 =( LENGTH_UNIT ( ) NAMED_UNIT ( * ) SI_UNIT ( .MILLI., .METRE. ) );
#45 =( GEOMETRIC_REPRESENTATION_CONTEXT ( 3 ) GLOBAL_UNCERTAINTY_ASSIGNED_CONTEXT ( ( #504 ) ) GLOBAL_UNIT_ASSIGNED_CONTEXT ( ( #436, #651, #207 ) ) REPRESENTATION_CONTEXT ( 'NONE', 'WORKASPACE' ) );
#46 = UNCERTAINTY_MEASURE_WITH_UNIT (LENGTH_MEASURE( 1.000000000000000100E-005 ), #35, 'distance_accuracy_value', 'NONE');
#47 = CARTESIAN_POINT ( 'NONE',  ( 0.4000000000000000800, -0.1500000000000000500, 0.8000000000000000400 ) ) ;
#48 = DIRECTION ( 'NONE',  ( 1.000000000000000000, 0.0000000000000000000, 0.0000000000000000000 ) ) ;
#49 = COLOUR_RGB ( '',1.000000000000000000, 1.000000000000000000, 1.000000000000000000 ) ;
#50 = PRESENTATION_LAYER_ASSIGNMENT (  '', '', ( #784 ) ) ;
#51 = DIRECTION ( 'NONE',  ( 1.000000000000000000, 0.0000000000000000000, 0.0000000000000000000 ) ) ;
#52 = CARTESIAN_POINT ( 'NONE',  ( 5.421010862427522200E-017, -0.1500000000000000500, -0.7999999999999999300 ) ) ;
#53 = VERTEX_POINT ( 'NONE', #885 ) ;
#54 =( LENGTH_UNIT ( ) NAMED_UNIT ( * ) SI_UNIT ( .MILLI., .METRE. ) );
#55 = EDGE_LOOP ( 'NONE', ( #646, #183 ) ) ;
#56 = DIRECTION ( 'NONE',  ( 0.0000000000000000000, 0.0000000000000000000, -1.000000000000000000 ) ) ;
#57 =( GEOMETRIC_REPRESENTATION_CONTEXT ( 3 ) GLOBAL_UNCERTAINTY_ASSIGNED_CONTEXT ( ( #650 ) ) GLOBAL_UNIT_ASSIGNED_CONTEXT ( ( #43, #311, #845 ) ) REPRESENTATION_CONTEXT ( 'NONE', 'WORKASPACE' ) );
#58 = MECHANICAL_DESIGN_GEOMETRIC_PRESENTATION_REPRESENTATION (  '', ( #828 ), #226 ) ;
#59 = FACE_OUTER_BOUND ( 'NONE', #545, .T. ) ;
#60 = CARTESIAN_POINT ( 'NONE',  ( -0.3999999999999999700, -0.1500000000000000500, -0.7999999999999999300 ) ) ;
#61 = MANIFOLD_SOLID_BREP ( 'Sketch-Pattern1[4]', #735 ) ;
#62 =( NAMED_UNIT ( * ) SI_UNIT ( $, .STERADIAN. ) SOLID_ANGLE_UNIT ( ) );
#63 = VECTOR ( 'NONE', #403, 1000.000000000000000 ) ;
#64 = AXIS2_PLACEMENT_3D ( 'NONE', #22, #956, #32 ) ;
#65 = VERTEX_POINT ( 'NONE', #335 ) ;
#66 = DIRECTION ( 'NONE',  ( -1.000000000000000000, -0.0000000000000000000, 0.0000000000000000000 ) ) ;
#67 = ORIENTED_EDGE ( 'NONE', *, *, #516, .T. ) ;
#68 = FILL_AREA_STYLE_COLOUR ( '', #87 ) ;
#69 = STYLED_ITEM ( 'NONE', ( #72 ), #360 ) ;
#70 = DIRECTION ( 'NONE',  ( -1.000000000000000000, 0.0000000000000000000, 1.613396090008191100E-016 ) ) ;
#71 = DIRECTION ( 'NONE',  ( 0.0000000000000000000, 0.0000000000000000000, 1.000000000000000000 ) ) ;
#72 = PRESENTATION_STYLE_ASSIGNMENT (( #967 ) ) ;
#73 = CARTESIAN_POINT ( 'NONE',  ( 0.6720000000000001500, 0.3250000000000000100, -1.127499999999999700 ) ) ;
#74 = EDGE_CURVE ( 'NONE', #904, #590, #901, .T. ) ;
#75 =( GEOMETRIC_REPRESENTATION_CONTEXT ( 3 ) GLOBAL_UNCERTAINTY_ASSIGNED_CONTEXT ( ( #431 ) ) GLOBAL_UNIT_ASSIGNED_CONTEXT ( ( #480, #483, #486 ) ) REPRESENTATION_CONTEXT ( 'NONE', 'WORKASPACE' ) );
#76 = DIRECTION ( 'NONE',  ( 0.0000000000000000000, 0.0000000000000000000, 1.000000000000000000 ) ) ;
#77 = VERTEX_POINT ( 'NONE', #506 ) ;
#78 = DIRECTION ( 'NONE',  ( 1.000000000000000000, 0.0000000000000000000, 0.0000000000000000000 ) ) ;
#79 = VERTEX_POINT ( 'NONE', #146 ) ;
#80 = DIRECTION ( 'NONE',  ( 0.0000000000000000000, -1.807003620809174600E-016, 1.000000000000000000 ) ) ;
#81 = EDGE_CURVE ( 'NONE', #529, #142, #351, .T. ) ;
#82 = SURFACE_SIDE_STYLE ('',( #497 ) ) ;
#83 = SHAPE_DEFINITION_REPRESENTATION ( #736, #681 ) ;
#84 = PRESENTATION_LAYER_ASSIGNMENT (  '', '', ( #865 ) ) ;
#85 = SPHERICAL_SURFACE ( 'NONE', #544, 0.1499999999999999900 ) ;
#86 = SURFACE_STYLE_USAGE ( .BOTH. , #8 ) ;
#87 = COLOUR_RGB ( '',1.000000000000000000, 1.000000000000000000, 1.000000000000000000 ) ;
#88 = CARTESIAN_POINT ( 'NONE',  ( -0.3999999999999999700, -0.1500000000000000500, -0.7999999999999999300 ) ) ;
#89 = SPHERICAL_SURFACE ( 'NONE', #156, 0.1499999999999999900 ) ;
#90 = CARTESIAN_POINT ( 'NONE',  ( 5.421010862427522200E-017, -0.1500000000000000500, 1.084202172485504400E-016 ) ) ;
#91 = EDGE_CURVE ( 'NONE', #492, #647, #698, .T. ) ;
#92 = EDGE_LOOP ( 'NONE', ( #988, #243 ) ) ;
#93 = UNCERTAINTY_MEASURE_WITH_UNIT (LENGTH_MEASURE( 1.000000000000000100E-005 ), #662, 'distance_accuracy_value', 'NONE');
#94 = ORIENTED_EDGE ( 'NONE', *, *, #760, .F. ) ;
#95 = ADVANCED_FACE ( 'NONE', ( #838 ), #675, .F. ) ;
#96 = EDGE_LOOP ( 'NONE', ( #192, #720 ) ) ;
#97 = FILL_AREA_STYLE ('',( #780 ) ) ;
#98 = LINE ( 'NONE', #722, #764 ) ;
#99 = SPHERICAL_SURFACE ( 'NONE', #577, 0.1499999999999999900 ) ;
#100 = PRESENTATION_LAYER_ASSIGNMENT (  '', '', ( #280 ) ) ;
#101 = LINE ( 'NONE', #126, #788 ) ;
#102 = CARTESIAN_POINT ( 'NONE',  ( 5.421010862427522200E-017, -0.1500000000000000500, 0.8000000000000000400 ) ) ;
#103 = ADVANCED_FACE ( 'NONE', ( #489 ), #952, .T. ) ;
#104 = COLOUR_RGB ( '',1.000000000000000000, 1.000000000000000000, 1.000000000000000000 ) ;
#105 = CLOSED_SHELL ( 'NONE', ( #523, #103 ) ) ;
#106 = AXIS2_PLACEMENT_3D ( 'NONE', #122, #512, #584 ) ;
#107 = MANIFOLD_SOLID_BREP ( 'Sketch-Pattern1[12]', #875 ) ;
#108 = FILL_AREA_STYLE_COLOUR ( '', #666 ) ;
#109 =( NAMED_UNIT ( * ) SI_UNIT ( $, .STERADIAN. ) SOLID_ANGLE_UNIT ( ) );
#110 = SURFACE_STYLE_FILL_AREA ( #155 ) ;
#111 = AXIS2_PLACEMENT_3D ( 'NONE', #190, #233, #80 ) ;
#112 = MECHANICAL_DESIGN_GEOMETRIC_PRESENTATION_REPRESENTATION (  '', ( #21 ), #208 ) ;
#113 = DIRECTION ( 'NONE',  ( 1.000000000000000000, -0.0000000000000000000, 0.0000000000000000000 ) ) ;
#114 = PRESENTATION_STYLE_ASSIGNMENT (( #475 ) ) ;
#115 = FILL_AREA_STYLE_COLOUR ( '', #883 ) ;
#116 = ORIENTED_EDGE ( 'NONE', *, *, #773, .F. ) ;
#117 = EDGE_LOOP ( 'NONE', ( #989, #757 ) ) ;
#118 = CARTESIAN_POINT ( 'NONE',  ( 0.4000000000000000800, -0.1500000000000000500, -0.3999999999999998600 ) ) ;
#119 = ADVANCED_FACE ( 'NONE', ( #889 ), #658, .T. ) ;
#120 =( NAMED_UNIT ( * ) SI_UNIT ( $, .STERADIAN. ) SOLID_ANGLE_UNIT ( ) );
#121 = DIRECTION ( 'NONE',  ( 1.000000000000000000, -2.661027428305382000E-032, 1.224646799147353200E-016 ) ) ;
#122 = CARTESIAN_POINT ( 'NONE',  ( 0.4000000000000000800, -0.1500000000000000500, 0.4000000000000000800 ) ) ;
#123 = PRESENTATION_LAYER_ASSIGNMENT (  '', '', ( #69 ) ) ;
#124 =( NAMED_UNIT ( * ) PLANE_ANGLE_UNIT ( ) SI_UNIT ( $, .RADIAN. ) );
#125 = DIRECTION ( 'NONE',  ( 0.0000000000000000000, 0.0000000000000000000, 1.000000000000000000 ) ) ;
#126 = CARTESIAN_POINT ( 'NONE',  ( 0.6720000000000001500, 0.3250000000000000100, -1.127499999999999700 ) ) ;
#127 = DIRECTION ( 'NONE',  ( 0.0000000000000000000, 1.000000000000000000, 0.0000000000000000000 ) ) ;
#128 =( NAMED_UNIT ( * ) PLANE_ANGLE_UNIT ( ) SI_UNIT ( $, .RADIAN. ) );
#129 = VERTEX_POINT ( 'NONE', #603 ) ;
#130 = CLOSED_SHELL ( 'NONE', ( #238, #547 ) ) ;
#131 = EDGE_CURVE ( 'NONE', #434, #420, #696, .T. ) ;
#132 = DIRECTION ( 'NONE',  ( -1.000000000000000000, -0.0000000000000000000, 0.0000000000000000000 ) ) ;
#133 = STYLED_ITEM ( 'NONE', ( #304 ), #681 ) ;
#134 = FILL_AREA_STYLE_COLOUR ( '', #49 ) ;
#135 = CIRCLE ( 'NONE', #503, 0.1499999999999999700 ) ;
#136 = DIRECTION ( 'NONE',  ( 1.000000000000000000, 0.0000000000000000000, 0.0000000000000000000 ) ) ;
#137 = SPHERICAL_SURFACE ( 'NONE', #319, 0.1499999999999999900 ) ;
#138 = EDGE_CURVE ( 'NONE', #5, #129, #552, .T. ) ;
#139 = PRESENTATION_STYLE_ASSIGNMENT (( #723 ) ) ;
#140 = MECHANICAL_DESIGN_GEOMETRIC_PRESENTATION_REPRESENTATION (  '', ( #865 ), #232 ) ;
#141 = FILL_AREA_STYLE_COLOUR ( '', #415 ) ;
#142 = VERTEX_POINT ( 'NONE', #920 ) ;
#143 = ORIENTED_EDGE ( 'NONE', *, *, #240, .F. ) ;
#144 = DIRECTION ( 'NONE',  ( -1.000000000000000000, -0.0000000000000000000, 0.0000000000000000000 ) ) ;
#145 = EDGE_CURVE ( 'NONE', #205, #529, #241, .T. ) ;
#146 = CARTESIAN_POINT ( 'NONE',  ( 0.4000000000000000800, -5.421010862427522200E-017, -0.7999999999999999300 ) ) ;
#147 = DIRECTION ( 'NONE',  ( 0.0000000000000000000, 0.0000000000000000000, 1.000000000000000000 ) ) ;
#148 =( GEOMETRIC_REPRESENTATION_CONTEXT ( 3 ) GLOBAL_UNCERTAINTY_ASSIGNED_CONTEXT ( ( #321 ) ) GLOBAL_UNIT_ASSIGNED_CONTEXT ( ( #234, #615, #692 ) ) REPRESENTATION_CONTEXT ( 'NONE', 'WORKASPACE' ) );
#149 = CARTESIAN_POINT ( 'NONE',  ( -0.3999999999999999100, -0.3000000000000000400, 0.4000000000000000800 ) ) ;
#150 = CLOSED_SHELL ( 'NONE', ( #766, #396 ) ) ;
#151 = ORIENTED_EDGE ( 'NONE', *, *, #752, .F. ) ;
#152 = ADVANCED_FACE ( 'NONE', ( #986 ), #938, .T. ) ;
#153 = UNCERTAINTY_MEASURE_WITH_UNIT (LENGTH_MEASURE( 1.000000000000000100E-005 ), #849, 'distance_accuracy_value', 'NONE');
#154 = SURFACE_SIDE_STYLE ('',( #930 ) ) ;
#155 = FILL_AREA_STYLE ('',( #932 ) ) ;
#156 = AXIS2_PLACEMENT_3D ( 'NONE', #566, #337, #341 ) ;
#157 = FILL_AREA_STYLE_COLOUR ( '', #261 ) ;
#158 = CARTESIAN_POINT ( 'NONE',  ( 5.421010862427522200E-017, -0.3000000000000000400, -0.7999999999999999300 ) ) ;
#159 = ADVANCED_FACE ( 'NONE', ( #320 ), #473, .T. ) ;
#160 = SPHERICAL_SURFACE ( 'NONE', #171, 0.1499999999999999900 ) ;
#161 = CARTESIAN_POINT ( 'NONE',  ( 0.4000000000000000800, -5.421010862427522200E-017, 0.8000000000000000400 ) ) ;
#162 = EDGE_CURVE ( 'NONE', #53, #456, #501, .T. ) ;
#163 = VECTOR ( 'NONE', #524, 1000.000000000000000 ) ;
#164 = CARTESIAN_POINT ( 'NONE',  ( 5.421010862427522200E-017, -0.1500000000000000500, 1.084202172485504400E-016 ) ) ;
#165 = ORIENTED_EDGE ( 'NONE', *, *, #855, .T. ) ;
#166 = CARTESIAN_POINT ( 'NONE',  ( 0.6720000000000001500, 0.0000000000000000000, 1.127499999999999900 ) ) ;
#167 = ORIENTED_EDGE ( 'NONE', *, *, #308, .T. ) ;
#168 = MANIFOLD_SOLID_BREP ( 'Sketch-Pattern1[9]', #278 ) ;
#169 = CIRCLE ( 'NONE', #842, 0.1499999999999999700 ) ;
#170 = LINE ( 'NONE', #891, #751 ) ;
#171 = AXIS2_PLACEMENT_3D ( 'NONE', #568, #188, #971 ) ;
#172 = CLOSED_SHELL ( 'NONE', ( #454, #458 ) ) ;
#173 = ORIENTED_EDGE ( 'NONE', *, *, #648, .F. ) ;
#174 = DIRECTION ( 'NONE',  ( 1.224646799147353200E-016, 0.0000000000000000000, -1.000000000000000000 ) ) ;
#175 = CARTESIAN_POINT ( 'NONE',  ( -0.6720000000000000400, 0.3250000000000000100, 1.127500000000000200 ) ) ;
#176 = AXIS2_PLACEMENT_3D ( 'NONE', #24, #800, #864 ) ;
#177 = DIRECTION ( 'NONE',  ( 1.000000000000000000, -2.661027428305382000E-032, 1.224646799147353200E-016 ) ) ;
#178 = MECHANICAL_DESIGN_GEOMETRIC_PRESENTATION_REPRESENTATION (  '', ( #280 ), #148 ) ;
#179 = CARTESIAN_POINT ( 'NONE',  ( 0.6720000000000001500, 0.3250000000000000100, -1.127499999999999700 ) ) ;
#180 = MANIFOLD_SOLID_BREP ( 'Sketch-Pattern1[5]', #596 ) ;
#181 = CARTESIAN_POINT ( 'NONE',  ( 0.4000000000000000800, -0.1500000000000000500, 0.8000000000000000400 ) ) ;
#182 = CARTESIAN_POINT ( 'NONE',  ( 5.421010862427522200E-017, -0.3000000000000000400, -0.3999999999999998600 ) ) ;
#183 = ORIENTED_EDGE ( 'NONE', *, *, #702, .T. ) ;
#184 = STYLED_ITEM ( 'NONE', ( #444 ), #168 ) ;
#185 = ORIENTED_EDGE ( 'NONE', *, *, #717, .F. ) ;
#186 = PRESENTATION_LAYER_ASSIGNMENT (  '', '', ( #410 ) ) ;
#187 = CARTESIAN_POINT ( 'NONE',  ( -0.6720000000000000400, 0.3250000000000000100, 1.127500000000000200 ) ) ;
#188 = DIRECTION ( 'NONE',  ( 1.000000000000000000, 0.0000000000000000000, 0.0000000000000000000 ) ) ;
#189 = LINE ( 'NONE', #874, #63 ) ;
#190 = CARTESIAN_POINT ( 'NONE',  ( -0.3999999999999999700, -0.1500000000000000500, -0.7999999999999999300 ) ) ;
#191 = CARTESIAN_POINT ( 'NONE',  ( -0.3999999999999999700, -5.421010862427522200E-017, 1.501984751349604300E-016 ) ) ;
#192 = ORIENTED_EDGE ( 'NONE', *, *, #225, .F. ) ;
#193 = VERTEX_POINT ( 'NONE', #161 ) ;
#194 = DIRECTION ( 'NONE',  ( 1.000000000000000000, 0.0000000000000000000, 0.0000000000000000000 ) ) ;
#195 = EDGE_LOOP ( 'NONE', ( #491, #28 ) ) ;
#196 = AXIS2_PLACEMENT_3D ( 'NONE', #542, #78, #533 ) ;
#197 = DIRECTION ( 'NONE',  ( 0.0000000000000000000, -1.807003620809174600E-016, 1.000000000000000000 ) ) ;
#198 = DIRECTION ( 'NONE',  ( 0.0000000000000000000, -1.807003620809174600E-016, 1.000000000000000000 ) ) ;
#199 = SPHERICAL_SURFACE ( 'NONE', #761, 0.1499999999999999900 ) ;
#200 =( GEOMETRIC_REPRESENTATION_CONTEXT ( 3 ) GLOBAL_UNCERTAINTY_ASSIGNED_CONTEXT ( ( #816 ) ) GLOBAL_UNIT_ASSIGNED_CONTEXT ( ( #276, #42, #349 ) ) REPRESENTATION_CONTEXT ( 'NONE', 'WORKASPACE' ) );
#201 =( NAMED_UNIT ( * ) SI_UNIT ( $, .STERADIAN. ) SOLID_ANGLE_UNIT ( ) );
#202 = SPHERICAL_SURFACE ( 'NONE', #439, 0.1499999999999999900 ) ;
#203 = FILL_AREA_STYLE_COLOUR ( '', #626 ) ;
#204 = VERTEX_POINT ( 'NONE', #149 ) ;
#205 = VERTEX_POINT ( 'NONE', #768 ) ;
#206 = EDGE_CURVE ( 'NONE', #492, #205, #334, .T. ) ;
#207 =( NAMED_UNIT ( * ) SI_UNIT ( $, .STERADIAN. ) SOLID_ANGLE_UNIT ( ) );
#208 =( GEOMETRIC_REPRESENTATION_CONTEXT ( 3 ) GLOBAL_UNCERTAINTY_ASSIGNED_CONTEXT ( ( #153 ) ) GLOBAL_UNIT_ASSIGNED_CONTEXT ( ( #849, #317, #322 ) ) REPRESENTATION_CONTEXT ( 'NONE', 'WORKASPACE' ) );
#209 = CARTESIAN_POINT ( 'NONE',  ( -0.3999999999999999700, -5.421010862427522200E-017, -0.7999999999999999300 ) ) ;
#210 = CIRCLE ( 'NONE', #734, 0.1499999999999999700 ) ;
#211 = AXIS2_PLACEMENT_3D ( 'NONE', #836, #383, #922 ) ;
#212 = SURFACE_SIDE_STYLE ('',( #669 ) ) ;
#213 = VERTEX_POINT ( 'NONE', #306 ) ;
#214 = ORIENTED_EDGE ( 'NONE', *, *, #225, .T. ) ;
#215 = DIRECTION ( 'NONE',  ( 0.0000000000000000000, -1.807003620809174600E-016, 1.000000000000000000 ) ) ;
#216 = ORIENTED_EDGE ( 'NONE', *, *, #702, .F. ) ;
#217 =( GEOMETRIC_REPRESENTATION_CONTEXT ( 3 ) GLOBAL_UNCERTAINTY_ASSIGNED_CONTEXT ( ( #46 ) ) GLOBAL_UNIT_ASSIGNED_CONTEXT ( ( #35, #721, #109 ) ) REPRESENTATION_CONTEXT ( 'NONE', 'WORKASPACE' ) );
#218 = MANIFOLD_SOLID_BREP ( 'Sketch-Pattern1[8]', #968 ) ;
#219 =( LENGTH_UNIT ( ) NAMED_UNIT ( * ) SI_UNIT ( .MILLI., .METRE. ) );
#220 = DIRECTION ( 'NONE',  ( 1.000000000000000000, -2.661027428305382000E-032, 1.224646799147353200E-016 ) ) ;
#221 = FACE_OUTER_BOUND ( 'NONE', #805, .T. ) ;
#222 = ADVANCED_FACE ( 'NONE', ( #802 ), #644, .F. ) ;
#223 =( LENGTH_UNIT ( ) NAMED_UNIT ( * ) SI_UNIT ( .MILLI., .METRE. ) );
#224 =( NAMED_UNIT ( * ) SI_UNIT ( $, .STERADIAN. ) SOLID_ANGLE_UNIT ( ) );
#225 = EDGE_CURVE ( 'NONE', #673, #77, #551, .T. ) ;
#226 =( GEOMETRIC_REPRESENTATION_CONTEXT ( 3 ) GLOBAL_UNCERTAINTY_ASSIGNED_CONTEXT ( ( #854 ) ) GLOBAL_UNIT_ASSIGNED_CONTEXT ( ( #915, #599, #224 ) ) REPRESENTATION_CONTEXT ( 'NONE', 'WORKASPACE' ) );
#227 = ADVANCED_FACE ( 'NONE', ( #288 ), #309, .T. ) ;
#228 = ORIENTED_EDGE ( 'NONE', *, *, #81, .T. ) ;
#229 = EDGE_LOOP ( 'NONE', ( #477, #291 ) ) ;
#230 = DIRECTION ( 'NONE',  ( -1.000000000000000000, -0.0000000000000000000, 0.0000000000000000000 ) ) ;
#231 = DIRECTION ( 'NONE',  ( 1.000000000000000000, 0.0000000000000000000, 0.0000000000000000000 ) ) ;
#232 =( GEOMETRIC_REPRESENTATION_CONTEXT ( 3 ) GLOBAL_UNCERTAINTY_ASSIGNED_CONTEXT ( ( #93 ) ) GLOBAL_UNIT_ASSIGNED_CONTEXT ( ( #662, #282, #591 ) ) REPRESENTATION_CONTEXT ( 'NONE', 'WORKASPACE' ) );
#233 = DIRECTION ( 'NONE',  ( 1.000000000000000000, 0.0000000000000000000, 0.0000000000000000000 ) ) ;
#234 =( LENGTH_UNIT ( ) NAMED_UNIT ( * ) SI_UNIT ( .MILLI., .METRE. ) );
#235 = CIRCLE ( 'NONE', #433, 0.1499999999999999700 ) ;
#236 = COLOUR_RGB ( '',1.000000000000000000, 1.000000000000000000, 1.000000000000000000 ) ;
#237 = SURFACE_STYLE_FILL_AREA ( #963 ) ;
#238 = ADVANCED_FACE ( 'NONE', ( #608 ), #89, .T. ) ;
#239 = SURFACE_STYLE_USAGE ( .BOTH. , #474 ) ;
#240 = EDGE_CURVE ( 'NONE', #376, #647, #189, .T. ) ;
#241 = LINE ( 'NONE', #73, #455 ) ;
#242 = ORIENTED_EDGE ( 'NONE', *, *, #494, .F. ) ;
#243 = ORIENTED_EDGE ( 'NONE', *, *, #752, .T. ) ;
#244 = EDGE_LOOP ( 'NONE', ( #242, #67 ) ) ;
#245 = AXIS2_PLACEMENT_3D ( 'NONE', #758, #2, #297 ) ;
#246 = SPHERICAL_SURFACE ( 'NONE', #741, 0.1499999999999999900 ) ;
#247 = FACE_OUTER_BOUND ( 'NONE', #622, .T. ) ;
#248 = DIRECTION ( 'NONE',  ( 0.0000000000000000000, 0.0000000000000000000, 1.000000000000000000 ) ) ;
#249 = PRESENTATION_LAYER_ASSIGNMENT (  '', '', ( #994 ) ) ;
#250 = SURFACE_STYLE_FILL_AREA ( #521 ) ;
#251 = DIRECTION ( 'NONE',  ( 1.000000000000000000, 0.0000000000000000000, 0.0000000000000000000 ) ) ;
#252 = ORIENTED_EDGE ( 'NONE', *, *, #240, .T. ) ;
#253 = FACE_OUTER_BOUND ( 'NONE', #55, .T. ) ;
#254 = AXIS2_PLACEMENT_3D ( 'NONE', #929, #230, #532 ) ;
#255 = CARTESIAN_POINT ( 'NONE',  ( 1.151964808265848500E-016, -0.1500000000000000500, 0.4000000000000000800 ) ) ;
#256 = COLOUR_RGB ( '',1.000000000000000000, 1.000000000000000000, 1.000000000000000000 ) ;
#257 = AXIS2_PLACEMENT_3D ( 'NONE', #621, #15, #394 ) ;
#258 = DIRECTION ( 'NONE',  ( 0.0000000000000000000, 0.0000000000000000000, 1.000000000000000000 ) ) ;
#259 = PLANE ( 'NONE',  #705 ) ;
#260 = DIRECTION ( 'NONE',  ( -1.000000000000000000, -0.0000000000000000000, 0.0000000000000000000 ) ) ;
#261 = COLOUR_RGB ( '',1.000000000000000000, 1.000000000000000000, 1.000000000000000000 ) ;
#262 = UNCERTAINTY_MEASURE_WITH_UNIT (LENGTH_MEASURE( 1.000000000000000100E-005 ), #223, 'distance_accuracy_value', 'NONE');
#263 =( NAMED_UNIT ( * ) PLANE_ANGLE_UNIT ( ) SI_UNIT ( $, .RADIAN. ) );
#264 = EDGE_LOOP ( 'NONE', ( #338, #505, #625, #143 ) ) ;
#265 = AXIS2_PLACEMENT_3D ( 'NONE', #726, #406, #30 ) ;
#266 = CLOSED_SHELL ( 'NONE', ( #227, #923 ) ) ;
#267 = DIRECTION ( 'NONE',  ( 1.000000000000000000, -2.661027428305382000E-032, 1.224646799147353200E-016 ) ) ;
#268 = VERTEX_POINT ( 'NONE', #38 ) ;
#269 = SURFACE_SIDE_STYLE ('',( #430 ) ) ;
#270 = AXIS2_PLACEMENT_3D ( 'NONE', #287, #377, #745 ) ;
#271 = APPLICATION_CONTEXT ( 'automotive_design' ) ;
#272 = CIRCLE ( 'NONE', #508, 0.1499999999999999700 ) ;
#273 = VECTOR ( 'NONE', #951, 1000.000000000000000 ) ;
#274 = DIRECTION ( 'NONE',  ( 1.000000000000000000, -2.661027428305382000E-032, 1.224646799147353200E-016 ) ) ;
#275 = FILL_AREA_STYLE ('',( #203 ) ) ;
#276 =( LENGTH_UNIT ( ) NAMED_UNIT ( * ) SI_UNIT ( .MILLI., .METRE. ) );
#277 = EDGE_CURVE ( 'NONE', #902, #213, #442, .T. ) ;
#278 = CLOSED_SHELL ( 'NONE', ( #913, #535 ) ) ;
#279 = ORIENTED_EDGE ( 'NONE', *, *, #145, .T. ) ;
#280 = STYLED_ITEM ( 'NONE', ( #703 ), #694 ) ;
#281 = CARTESIAN_POINT ( 'NONE',  ( -0.3999999999999999700, -0.1500000000000000500, 1.084202172485504400E-016 ) ) ;
#282 =( NAMED_UNIT ( * ) PLANE_ANGLE_UNIT ( ) SI_UNIT ( $, .RADIAN. ) );
#283 = PRESENTATION_STYLE_ASSIGNMENT (( #239 ) ) ;
#284 = AXIS2_PLACEMENT_3D ( 'NONE', #312, #605, #71 ) ;
#285 = CARTESIAN_POINT ( 'NONE',  ( 0.0000000000000000000, 0.0000000000000000000, 0.0000000000000000000 ) ) ;
#286 = FACE_OUTER_BOUND ( 'NONE', #588, .T. ) ;
#287 = CARTESIAN_POINT ( 'NONE',  ( 0.4000000000000000800, -0.1500000000000000500, 1.084202172485504400E-016 ) ) ;
#288 = FACE_OUTER_BOUND ( 'NONE', #92, .T. ) ;
#289 = FACE_OUTER_BOUND ( 'NONE', #244, .T. ) ;
#290 = EDGE_LOOP ( 'NONE', ( #387, #862 ) ) ;
#291 = ORIENTED_EDGE ( 'NONE', *, *, #162, .T. ) ;
#292 = EDGE_LOOP ( 'NONE', ( #876, #40 ) ) ;
#293 = CARTESIAN_POINT ( 'NONE',  ( 0.6720000000000001500, 0.3250000000000000100, 1.127499999999999900 ) ) ;
#294 = DIRECTION ( 'NONE',  ( -0.0000000000000000000, -1.000000000000000000, -0.0000000000000000000 ) ) ;
#295 = DIRECTION ( 'NONE',  ( 1.000000000000000000, -2.661027428305382000E-032, 1.224646799147353200E-016 ) ) ;
#296 = AXIS2_PLACEMENT_3D ( 'NONE', #255, #633, #412 ) ;
#297 = DIRECTION ( 'NONE',  ( 1.224646799147353200E-016, 0.0000000000000000000, -1.000000000000000000 ) ) ;
#298 = ORIENTED_EDGE ( 'NONE', *, *, #91, .F. ) ;
#299 = VERTEX_POINT ( 'NONE', #946 ) ;
#300 = ADVANCED_FACE ( 'NONE', ( #405 ), #414, .F. ) ;
#301 = AXIS2_PLACEMENT_3D ( 'NONE', #819, #136, #897 ) ;
#302 = DIRECTION ( 'NONE',  ( 0.0000000000000000000, 0.0000000000000000000, -1.000000000000000000 ) ) ;
#303 = SURFACE_STYLE_USAGE ( .BOTH. , #525 ) ;
#304 = PRESENTATION_STYLE_ASSIGNMENT (( #973 ) ) ;
#305 = UNCERTAINTY_MEASURE_WITH_UNIT (LENGTH_MEASURE( 1.000000000000000100E-005 ), #809, 'distance_accuracy_value', 'NONE');
#306 = CARTESIAN_POINT ( 'NONE',  ( -0.3999999999999999700, -5.421010862427522200E-017, -0.3999999999999998000 ) ) ;
#307 = DIRECTION ( 'NONE',  ( 1.000000000000000000, -2.661027428305382000E-032, 1.224646799147353200E-016 ) ) ;
#308 = EDGE_CURVE ( 'NONE', #268, #79, #397, .T. ) ;
#309 = SPHERICAL_SURFACE ( 'NONE', #10, 0.1499999999999999900 ) ;
#310 = AXIS2_PLACEMENT_3D ( 'NONE', #102, #9, #783 ) ;
#311 =( NAMED_UNIT ( * ) PLANE_ANGLE_UNIT ( ) SI_UNIT ( $, .RADIAN. ) );
#312 = CARTESIAN_POINT ( 'NONE',  ( 0.4000000000000000800, -0.1500000000000000500, 1.084202172485504400E-016 ) ) ;
#313 = ORIENTED_EDGE ( 'NONE', *, *, #594, .T. ) ;
#314 = ORIENTED_EDGE ( 'NONE', *, *, #308, .F. ) ;
#315 =( NAMED_UNIT ( * ) PLANE_ANGLE_UNIT ( ) SI_UNIT ( $, .RADIAN. ) );
#316 = ADVANCED_FACE ( 'NONE', ( #374 ), #558, .T. ) ;
#317 =( NAMED_UNIT ( * ) PLANE_ANGLE_UNIT ( ) SI_UNIT ( $, .RADIAN. ) );
#318 = DIRECTION ( 'NONE',  ( 0.0000000000000000000, 0.0000000000000000000, -1.000000000000000000 ) ) ;
#319 = AXIS2_PLACEMENT_3D ( 'NONE', #884, #424, #197 ) ;
#320 = FACE_OUTER_BOUND ( 'NONE', #575, .T. ) ;
#321 = UNCERTAINTY_MEASURE_WITH_UNIT (LENGTH_MEASURE( 1.000000000000000100E-005 ), #234, 'distance_accuracy_value', 'NONE');
#322 =( NAMED_UNIT ( * ) SI_UNIT ( $, .STERADIAN. ) SOLID_ANGLE_UNIT ( ) );
#323 = EDGE_LOOP ( 'NONE', ( #955, #942 ) ) ;
#324 = ORIENTED_EDGE ( 'NONE', *, *, #811, .T. ) ;
#325 = DIRECTION ( 'NONE',  ( 1.000000000000000000, 0.0000000000000000000, 0.0000000000000000000 ) ) ;
#326 = ADVANCED_FACE ( 'NONE', ( #668 ), #202, .T. ) ;
#327 = EDGE_CURVE ( 'NONE', #142, #376, #872, .T. ) ;
#328 = FILL_AREA_STYLE_COLOUR ( '', #256 ) ;
#329 =( GEOMETRIC_REPRESENTATION_CONTEXT ( 3 ) GLOBAL_UNCERTAINTY_ASSIGNED_CONTEXT ( ( #921 ) ) GLOBAL_UNIT_ASSIGNED_CONTEXT ( ( #709, #315, #860 ) ) REPRESENTATION_CONTEXT ( 'NONE', 'WORKASPACE' ) );
#330 = CIRCLE ( 'NONE', #623, 0.1499999999999999900 ) ;
#331 = DIRECTION ( 'NONE',  ( -1.000000000000000000, 0.0000000000000000000, 0.0000000000000000000 ) ) ;
#332 = SPHERICAL_SURFACE ( 'NONE', #834, 0.1499999999999999900 ) ;
#333 = CARTESIAN_POINT ( 'NONE',  ( -0.3999999999999999700, -0.1500000000000000500, -0.3999999999999998600 ) ) ;
#334 = LINE ( 'NONE', #835, #776 ) ;
#335 = CARTESIAN_POINT ( 'NONE',  ( -0.3999999999999999700, -5.421010862427522200E-017, 0.8000000000000000400 ) ) ;
#336 = AXIS2_PLACEMENT_3D ( 'NONE', #530, #847, #843 ) ;
#337 = DIRECTION ( 'NONE',  ( 1.000000000000000000, 0.0000000000000000000, 0.0000000000000000000 ) ) ;
#338 = ORIENTED_EDGE ( 'NONE', *, *, #327, .F. ) ;
#339 = ORIENTED_EDGE ( 'NONE', *, *, #395, .T. ) ;
#340 = DIRECTION ( 'NONE',  ( 0.0000000000000000000, -1.807003620809174600E-016, 1.000000000000000000 ) ) ;
#341 = DIRECTION ( 'NONE',  ( 0.0000000000000000000, -1.807003620809174600E-016, 1.000000000000000000 ) ) ;
#342 = FACE_OUTER_BOUND ( 'NONE', #380, .T. ) ;
#343 = EDGE_CURVE ( 'NONE', #647, #529, #997, .T. ) ;
#344 = CARTESIAN_POINT ( 'NONE',  ( 0.6720000000000001500, 0.3250000000000000100, 1.127499999999999900 ) ) ;
#345 =( LENGTH_UNIT ( ) NAMED_UNIT ( * ) SI_UNIT ( .MILLI., .METRE. ) );
#346 = SPHERICAL_SURFACE ( 'NONE', #270, 0.1499999999999999900 ) ;
#347 = FILL_AREA_STYLE_COLOUR ( '', #873 ) ;
#348 = FILL_AREA_STYLE_COLOUR ( '', #739 ) ;
#349 =( NAMED_UNIT ( * ) SI_UNIT ( $, .STERADIAN. ) SOLID_ANGLE_UNIT ( ) );
#350 = FILL_AREA_STYLE ('',( #347 ) ) ;
#351 = LINE ( 'NONE', #985, #163 ) ;
#352 = PRESENTATION_LAYER_ASSIGNMENT (  '', '', ( #689 ) ) ;
#353 = CLOSED_SHELL ( 'NONE', ( #300, #95, #833, #222, #4, #18 ) ) ;
#354 = PLANE ( 'NONE',  #983 ) ;
#355 =( NAMED_UNIT ( * ) SI_UNIT ( $, .STERADIAN. ) SOLID_ANGLE_UNIT ( ) );
#356 = DIRECTION ( 'NONE',  ( 0.0000000000000000000, -1.807003620809174600E-016, 1.000000000000000000 ) ) ;
#357 = CIRCLE ( 'NONE', #602, 0.1499999999999999700 ) ;
#358 = MECHANICAL_DESIGN_GEOMETRIC_PRESENTATION_REPRESENTATION (  '', ( #994 ), #404 ) ;
#359 = FACE_OUTER_BOUND ( 'NONE', #991, .T. ) ;
#360 = MANIFOLD_SOLID_BREP ( 'Sketch-Pattern1[7]', #105 ) ;
#361 = CARTESIAN_POINT ( 'NONE',  ( -0.6720000000000000400, 0.3250000000000000100, 1.127500000000000200 ) ) ;
#362 = FILL_AREA_STYLE ('',( #141 ) ) ;
#363 = EDGE_CURVE ( 'NONE', #673, #77, #742, .T. ) ;
#364 = ORIENTED_EDGE ( 'NONE', *, *, #395, .F. ) ;
#365 = PRODUCT_CONTEXT ( 'NONE', #589, 'mechanical' ) ;
#366 = VERTEX_POINT ( 'NONE', #361 ) ;
#367 =( GEOMETRIC_REPRESENTATION_CONTEXT ( 3 ) GLOBAL_UNCERTAINTY_ASSIGNED_CONTEXT ( ( #738 ) ) GLOBAL_UNIT_ASSIGNED_CONTEXT ( ( #567, #263, #712 ) ) REPRESENTATION_CONTEXT ( 'NONE', 'WORKASPACE' ) );
#368 =( NAMED_UNIT ( * ) PLANE_ANGLE_UNIT ( ) SI_UNIT ( $, .RADIAN. ) );
#369 = MECHANICAL_DESIGN_GEOMETRIC_PRESENTATION_REPRESENTATION (  '', ( #689 ), #75 ) ;
#370 = UNCERTAINTY_MEASURE_WITH_UNIT (LENGTH_MEASURE( 1.000000000000000100E-005 ), #440, 'distance_accuracy_value', 'NONE');
#371 = CARTESIAN_POINT ( 'NONE',  ( 0.4000000000000000800, -0.1500000000000000500, 1.084202172485504400E-016 ) ) ;
#372 = FACE_OUTER_BOUND ( 'NONE', #290, .T. ) ;
#373 = FILL_AREA_STYLE ('',( #912 ) ) ;
#374 = FACE_OUTER_BOUND ( 'NONE', #917, .T. ) ;
#375 = DIRECTION ( 'NONE',  ( 1.000000000000000000, 0.0000000000000000000, 0.0000000000000000000 ) ) ;
#376 = VERTEX_POINT ( 'NONE', #866 ) ;
#377 = DIRECTION ( 'NONE',  ( 1.000000000000000000, 0.0000000000000000000, 0.0000000000000000000 ) ) ;
#378 = EDGE_LOOP ( 'NONE', ( #941, #29 ) ) ;
#379 = MECHANICAL_DESIGN_GEOMETRIC_PRESENTATION_REPRESENTATION (  '', ( #853 ), #610 ) ;
#380 = EDGE_LOOP ( 'NONE', ( #399, #781 ) ) ;
#381 = SPHERICAL_SURFACE ( 'NONE', #401, 0.1499999999999999900 ) ;
#382 = SPHERICAL_SURFACE ( 'NONE', #520, 0.1499999999999999900 ) ;
#383 = DIRECTION ( 'NONE',  ( 1.000000000000000000, -2.661027428305382000E-032, 1.224646799147353200E-016 ) ) ;
#384 = MECHANICAL_DESIGN_GEOMETRIC_PRESENTATION_REPRESENTATION (  '', ( #803 ), #36 ) ;
#385 = PRESENTATION_LAYER_ASSIGNMENT (  '', '', ( #828 ) ) ;
#386 = FILL_AREA_STYLE ('',( #763 ) ) ;
#387 = ORIENTED_EDGE ( 'NONE', *, *, #594, .F. ) ;
#388 = EDGE_CURVE ( 'NONE', #770, #299, #585, .T. ) ;
#389 = DIRECTION ( 'NONE',  ( 1.000000000000000000, 0.0000000000000000000, 0.0000000000000000000 ) ) ;
#390 = VERTEX_POINT ( 'NONE', #182 ) ;
#391 = AXIS2_PLACEMENT_3D ( 'NONE', #926, #307, #832 ) ;
#392 = PRESENTATION_STYLE_ASSIGNMENT (( #303 ) ) ;
#393 = FACE_OUTER_BOUND ( 'NONE', #635, .T. ) ;
#394 = DIRECTION ( 'NONE',  ( 0.0000000000000000000, 0.0000000000000000000, 1.000000000000000000 ) ) ;
#395 = EDGE_CURVE ( 'NONE', #205, #468, #101, .T. ) ;
#396 = ADVANCED_FACE ( 'NONE', ( #286 ), #160, .T. ) ;
#397 = CIRCLE ( 'NONE', #64, 0.1499999999999999700 ) ;
#398 = DIRECTION ( 'NONE',  ( -0.0000000000000000000, -1.000000000000000000, -0.0000000000000000000 ) ) ;
#399 = ORIENTED_EDGE ( 'NONE', *, *, #564, .F. ) ;
#400 = ORIENTED_EDGE ( 'NONE', *, *, #600, .T. ) ;
#401 = AXIS2_PLACEMENT_3D ( 'NONE', #953, #25, #565 ) ;
#402 = SPHERICAL_SURFACE ( 'NONE', #196, 0.1499999999999999900 ) ;
#403 = DIRECTION ( 'NONE',  ( 1.000000000000000000, -0.0000000000000000000, -1.613396090008191100E-016 ) ) ;
#404 =( GEOMETRIC_REPRESENTATION_CONTEXT ( 3 ) GLOBAL_UNCERTAINTY_ASSIGNED_CONTEXT ( ( #370 ) ) GLOBAL_UNIT_ASSIGNED_CONTEXT ( ( #440, #368, #62 ) ) REPRESENTATION_CONTEXT ( 'NONE', 'WORKASPACE' ) );
#405 = FACE_OUTER_BOUND ( 'NONE', #707, .T. ) ;
#406 = DIRECTION ( 'NONE',  ( 1.000000000000000000, -2.661027428305382000E-032, 1.224646799147353200E-016 ) ) ;
#407 = ORIENTED_EDGE ( 'NONE', *, *, #277, .T. ) ;
#408 = VERTEX_POINT ( 'NONE', #976 ) ;
#409 = MANIFOLD_SOLID_BREP ( 'Sketch-Pattern1[10]', #172 ) ;
#410 = STYLED_ITEM ( 'NONE', ( #837 ), #107 ) ;
#411 = CARTESIAN_POINT ( 'NONE',  ( 5.421010862427522200E-017, -5.421010862427522200E-017, -0.3999999999999998000 ) ) ;
#412 = DIRECTION ( 'NONE',  ( 0.0000000000000000000, -1.807003620809174600E-016, 1.000000000000000000 ) ) ;
#413 = AXIS2_PLACEMENT_3D ( 'NONE', #661, #969, #582 ) ;
#414 = PLANE ( 'NONE',  #959 ) ;
#415 = COLOUR_RGB ( '',0.7921568627450980000, 0.8196078431372548800, 0.9333333333333333500 ) ;
#416 = DIRECTION ( 'NONE',  ( 0.0000000000000000000, 0.0000000000000000000, 1.000000000000000000 ) ) ;
#417 = CARTESIAN_POINT ( 'NONE',  ( 0.4000000000000000800, -0.3000000000000000400, 8.501166134935075400E-017 ) ) ;
#418 = AXIS2_PLACEMENT_3D ( 'NONE', #181, #502, #966 ) ;
#419 = EDGE_LOOP ( 'NONE', ( #671, #41 ) ) ;
#420 = VERTEX_POINT ( 'NONE', #810 ) ;
#421 = DIRECTION ( 'NONE',  ( -1.613396090008191100E-016, 0.0000000000000000000, -1.000000000000000000 ) ) ;
#422 = SURFACE_SIDE_STYLE ('',( #537 ) ) ;
#423 = CLOSED_SHELL ( 'NONE', ( #527, #992 ) ) ;
#424 = DIRECTION ( 'NONE',  ( 1.000000000000000000, 0.0000000000000000000, 0.0000000000000000000 ) ) ;
#425 = STYLED_ITEM ( 'NONE', ( #114 ), #218 ) ;
#426 = CARTESIAN_POINT ( 'NONE',  ( -0.3999999999999999700, -0.1500000000000000500, 0.8000000000000000400 ) ) ;
#427 = SPHERICAL_SURFACE ( 'NONE', #814, 0.1499999999999999900 ) ;
#428 = VECTOR ( 'NONE', #560, 1000.000000000000000 ) ;
#429 = SURFACE_SIDE_STYLE ('',( #510 ) ) ;
#430 = SURFACE_STYLE_FILL_AREA ( #645 ) ;
#431 = UNCERTAINTY_MEASURE_WITH_UNIT (LENGTH_MEASURE( 1.000000000000000100E-005 ), #480, 'distance_accuracy_value', 'NONE');
#432 = CARTESIAN_POINT ( 'NONE',  ( -0.3999999999999999700, -0.3000000000000000400, -0.7999999999999999300 ) ) ;
#433 = AXIS2_PLACEMENT_3D ( 'NONE', #680, #220, #840 ) ;
#434 = VERTEX_POINT ( 'NONE', #576 ) ;
#435 = ORIENTED_EDGE ( 'NONE', *, *, #494, .T. ) ;
#436 =( LENGTH_UNIT ( ) NAMED_UNIT ( * ) SI_UNIT ( .MILLI., .METRE. ) );
#437 = SURFACE_STYLE_USAGE ( .BOTH. , #907 ) ;
#438 = PRODUCT ( 'TPS63805YFFR', 'TPS63805YFFR', '', ( #365 ) ) ;
#439 = AXIS2_PLACEMENT_3D ( 'NONE', #710, #251, #640 ) ;
#440 =( LENGTH_UNIT ( ) NAMED_UNIT ( * ) SI_UNIT ( .MILLI., .METRE. ) );
#441 = SPHERICAL_SURFACE ( 'NONE', #301, 0.1499999999999999900 ) ;
#442 = CIRCLE ( 'NONE', #747, 0.1499999999999999700 ) ;
#443 = UNCERTAINTY_MEASURE_WITH_UNIT (LENGTH_MEASURE( 1.000000000000000100E-005 ), #219, 'distance_accuracy_value', 'NONE');
#444 = PRESENTATION_STYLE_ASSIGNMENT (( #459 ) ) ;
#445 = PRESENTATION_LAYER_ASSIGNMENT (  '', '', ( #803 ) ) ;
#446 = EDGE_LOOP ( 'NONE', ( #808, #543 ) ) ;
#447 = VERTEX_POINT ( 'NONE', #191 ) ;
#448 = DIRECTION ( 'NONE',  ( 1.000000000000000000, 0.0000000000000000000, 0.0000000000000000000 ) ) ;
#449 = CARTESIAN_POINT ( 'NONE',  ( 0.0000000000000000000, 0.0000000000000000000, 0.0000000000000000000 ) ) ;
#450 = CARTESIAN_POINT ( 'NONE',  ( 0.4000000000000000800, -5.421010862427522200E-017, 1.501984751349604300E-016 ) ) ;
#451 = PRESENTATION_STYLE_ASSIGNMENT (( #990 ) ) ;
#452 = MECHANICAL_DESIGN_GEOMETRIC_PRESENTATION_REPRESENTATION (  '', ( #481 ), #329 ) ;
#453 =( NAMED_UNIT ( * ) SI_UNIT ( $, .STERADIAN. ) SOLID_ANGLE_UNIT ( ) );
#454 = ADVANCED_FACE ( 'NONE', ( #11 ), #332, .T. ) ;
#455 = VECTOR ( 'NONE', #683, 1000.000000000000000 ) ;
#456 = VERTEX_POINT ( 'NONE', #728 ) ;
#457 = AXIS2_PLACEMENT_3D ( 'NONE', #515, #144, #147 ) ;
#458 = ADVANCED_FACE ( 'NONE', ( #499 ), #137, .T. ) ;
#459 = SURFACE_STYLE_USAGE ( .BOTH. , #154 ) ;
#460 = DIRECTION ( 'NONE',  ( 0.0000000000000000000, -1.807003620809174600E-016, 1.000000000000000000 ) ) ;
#461 = COLOUR_RGB ( '',1.000000000000000000, 1.000000000000000000, 1.000000000000000000 ) ;
#462 = AXIS2_PLACEMENT_3D ( 'NONE', #616, #925, #76 ) ;
#463 = CIRCLE ( 'NONE', #336, 0.1499999999999999900 ) ;
#464 = DIRECTION ( 'NONE',  ( 1.000000000000000000, 0.0000000000000000000, 0.0000000000000000000 ) ) ;
#465 = COLOUR_RGB ( '',1.000000000000000000, 1.000000000000000000, 1.000000000000000000 ) ;
#466 = VERTEX_POINT ( 'NONE', #432 ) ;
#467 = CARTESIAN_POINT ( 'NONE',  ( 0.4000000000000000800, -0.3000000000000000400, 0.8000000000000000400 ) ) ;
#468 = VERTEX_POINT ( 'NONE', #653 ) ;
#469 = PRESENTATION_LAYER_ASSIGNMENT (  '', '', ( #792 ) ) ;
#470 = SURFACE_STYLE_USAGE ( .BOTH. , #12 ) ;
#471 = AXIS2_PLACEMENT_3D ( 'NONE', #743, #448, #593 ) ;
#472 = AXIS2_PLACEMENT_3D ( 'NONE', #285, #892, #194 ) ;
#473 = SPHERICAL_SURFACE ( 'NONE', #964, 0.1499999999999999900 ) ;
#474 = SURFACE_SIDE_STYLE ('',( #775 ) ) ;
#475 = SURFACE_STYLE_USAGE ( .BOTH. , #637 ) ;
#476 = ORIENTED_EDGE ( 'NONE', *, *, #162, .F. ) ;
#477 = ORIENTED_EDGE ( 'NONE', *, *, #820, .F. ) ;
#478 = EDGE_CURVE ( 'NONE', #468, #366, #170, .T. ) ;
#479 = CARTESIAN_POINT ( 'NONE',  ( 5.421010862427522200E-017, -0.3000000000000000400, 0.8000000000000000400 ) ) ;
#480 =( LENGTH_UNIT ( ) NAMED_UNIT ( * ) SI_UNIT ( .MILLI., .METRE. ) );
#481 = STYLED_ITEM ( 'NONE', ( #895 ), #755 ) ;
#482 = DIRECTION ( 'NONE',  ( 0.0000000000000000000, 1.000000000000000000, 0.0000000000000000000 ) ) ;
#483 =( NAMED_UNIT ( * ) PLANE_ANGLE_UNIT ( ) SI_UNIT ( $, .RADIAN. ) );
#484 = FACE_OUTER_BOUND ( 'NONE', #446, .T. ) ;
#485 = FACE_OUTER_BOUND ( 'NONE', #624, .T. ) ;
#486 =( NAMED_UNIT ( * ) SI_UNIT ( $, .STERADIAN. ) SOLID_ANGLE_UNIT ( ) );
#487 = AXIS2_PLACEMENT_3D ( 'NONE', #996, #389, #460 ) ;
#488 = FILL_AREA_STYLE ('',( #863 ) ) ;
#489 = FACE_OUTER_BOUND ( 'NONE', #659, .T. ) ;
#490 = DIRECTION ( 'NONE',  ( 0.0000000000000000000, 0.0000000000000000000, 1.000000000000000000 ) ) ;
#491 = ORIENTED_EDGE ( 'NONE', *, *, #388, .F. ) ;
#492 = VERTEX_POINT ( 'NONE', #807 ) ;
#493 = DIRECTION ( 'NONE',  ( 1.613396090008191100E-016, -0.0000000000000000000, 1.000000000000000000 ) ) ;
#494 = EDGE_CURVE ( 'NONE', #670, #65, #210, .T. ) ;
#495 = CARTESIAN_POINT ( 'NONE',  ( -0.3999999999999999700, -0.1500000000000000500, 1.084202172485504400E-016 ) ) ;
#496 = DIRECTION ( 'NONE',  ( -1.000000000000000000, 0.0000000000000000000, 1.613396090008191100E-016 ) ) ;
#497 = SURFACE_STYLE_FILL_AREA ( #386 ) ;
#498 = SURFACE_STYLE_USAGE ( .BOTH. , #965 ) ;
#499 = FACE_OUTER_BOUND ( 'NONE', #978, .T. ) ;
#500 = DIRECTION ( 'NONE',  ( 0.0000000000000000000, -0.0000000000000000000, 1.000000000000000000 ) ) ;
#501 = CIRCLE ( 'NONE', #462, 0.1499999999999999700 ) ;
#502 = DIRECTION ( 'NONE',  ( 1.000000000000000000, 0.0000000000000000000, 0.0000000000000000000 ) ) ;
#503 = AXIS2_PLACEMENT_3D ( 'NONE', #620, #939, #318 ) ;
#504 = UNCERTAINTY_MEASURE_WITH_UNIT (LENGTH_MEASURE( 1.000000000000000100E-005 ), #436, 'distance_accuracy_value', 'NONE');
#505 = ORIENTED_EDGE ( 'NONE', *, *, #81, .F. ) ;
#506 = CARTESIAN_POINT ( 'NONE',  ( 5.421010862427522200E-017, -5.421010862427522200E-017, -0.7999999999999999300 ) ) ;
#507 = EDGE_LOOP ( 'NONE', ( #771, #824, #779, #782 ) ) ;
#508 = AXIS2_PLACEMENT_3D ( 'NONE', #522, #900, #754 ) ;
#509 = DIRECTION ( 'NONE',  ( 0.0000000000000000000, -1.807003620809174100E-016, 1.000000000000000000 ) ) ;
#510 = SURFACE_STYLE_FILL_AREA ( #362 ) ;
#511 = PRESENTATION_STYLE_ASSIGNMENT (( #797 ) ) ;
#512 = DIRECTION ( 'NONE',  ( 1.000000000000000000, -2.661027428305382000E-032, 1.224646799147353200E-016 ) ) ;
#513 = VECTOR ( 'NONE', #398, 1000.000000000000000 ) ;
#514 = CARTESIAN_POINT ( 'NONE',  ( 1.151964808265848500E-016, -0.3000000000000000400, 0.4000000000000000800 ) ) ;
#515 = CARTESIAN_POINT ( 'NONE',  ( -0.3999999999999999100, -0.1500000000000000500, 0.4000000000000000800 ) ) ;
#516 = EDGE_CURVE ( 'NONE', #670, #65, #677, .T. ) ;
#517 = EDGE_LOOP ( 'NONE', ( #759, #970, #733, #339 ) ) ;
#518 = ORIENTED_EDGE ( 'NONE', *, *, #820, .T. ) ;
#519 = DIRECTION ( 'NONE',  ( 0.0000000000000000000, 0.0000000000000000000, -1.000000000000000000 ) ) ;
#520 = AXIS2_PLACEMENT_3D ( 'NONE', #801, #791, #37 ) ;
#521 = FILL_AREA_STYLE ('',( #725 ) ) ;
#522 = CARTESIAN_POINT ( 'NONE',  ( 5.421010862427522200E-017, -0.1500000000000000500, -0.3999999999999998600 ) ) ;
#523 = ADVANCED_FACE ( 'NONE', ( #372 ), #346, .T. ) ;
#524 = DIRECTION ( 'NONE',  ( -1.000000000000000000, 0.0000000000000000000, 1.613396090008191100E-016 ) ) ;
#525 = SURFACE_SIDE_STYLE ('',( #110 ) ) ;
#526 = AXIS2_PLACEMENT_3D ( 'NONE', #987, #66, #905 ) ;
#527 = ADVANCED_FACE ( 'NONE', ( #898 ), #441, .T. ) ;
#528 = DIRECTION ( 'NONE',  ( 0.0000000000000000000, -1.807003620809174600E-016, 1.000000000000000000 ) ) ;
#529 = VERTEX_POINT ( 'NONE', #750 ) ;
#530 = CARTESIAN_POINT ( 'NONE',  ( -0.3999999999999999700, -0.1500000000000000500, 1.084202172485504400E-016 ) ) ;
#531 = ORIENTED_EDGE ( 'NONE', *, *, #654, .F. ) ;
#532 = DIRECTION ( 'NONE',  ( 0.0000000000000000000, 0.0000000000000000000, 1.000000000000000000 ) ) ;
#533 = DIRECTION ( 'NONE',  ( 0.0000000000000000000, -1.807003620809174600E-016, 1.000000000000000000 ) ) ;
#534 = EDGE_CURVE ( 'NONE', #466, #598, #799, .T. ) ;
#535 = ADVANCED_FACE ( 'NONE', ( #870 ), #99, .T. ) ;
#536 = MANIFOLD_SOLID_BREP ( 'Sketch-Pattern1[3]', #266 ) ;
#537 = SURFACE_STYLE_FILL_AREA ( #881 ) ;
#538 = AXIS2_PLACEMENT_3D ( 'NONE', #118, #121, #962 ) ;
#539 =( NAMED_UNIT ( * ) PLANE_ANGLE_UNIT ( ) SI_UNIT ( $, .RADIAN. ) );
#540 = CARTESIAN_POINT ( 'NONE',  ( 0.4000000000000000800, -0.1500000000000000500, -0.7999999999999999300 ) ) ;
#541 = VECTOR ( 'NONE', #294, 1000.000000000000000 ) ;
#542 = CARTESIAN_POINT ( 'NONE',  ( 0.4000000000000000800, -0.1500000000000000500, 0.4000000000000000800 ) ) ;
#543 = ORIENTED_EDGE ( 'NONE', *, *, #654, .T. ) ;
#544 = AXIS2_PLACEMENT_3D ( 'NONE', #88, #231, #769 ) ;
#545 = EDGE_LOOP ( 'NONE', ( #476, #518 ) ) ;
#546 = DIRECTION ( 'NONE',  ( -1.000000000000000000, -0.0000000000000000000, 0.0000000000000000000 ) ) ;
#547 = ADVANCED_FACE ( 'NONE', ( #393 ), #936, .T. ) ;
#548 = UNCERTAINTY_MEASURE_WITH_UNIT (LENGTH_MEASURE( 1.000000000000000100E-005 ), #345, 'distance_accuracy_value', 'NONE');
#549 = CARTESIAN_POINT ( 'NONE',  ( 1.151964808265848500E-016, -5.421010862427522200E-017, 0.4000000000000001300 ) ) ;
#550 = EDGE_CURVE ( 'NONE', #204, #685, #910, .T. ) ;
#551 = CIRCLE ( 'NONE', #697, 0.1499999999999999700 ) ;
#552 = CIRCLE ( 'NONE', #254, 0.1499999999999999700 ) ;
#553 = AXIS2_PLACEMENT_3D ( 'NONE', #812, #274, #578 ) ;
#554 = CARTESIAN_POINT ( 'NONE',  ( 0.4000000000000000800, -0.3000000000000000400, 0.4000000000000000800 ) ) ;
#555 = ORIENTED_EDGE ( 'NONE', *, *, #478, .F. ) ;
#556 = PRESENTATION_LAYER_ASSIGNMENT (  '', '', ( #481 ) ) ;
#557 = CIRCLE ( 'NONE', #538, 0.1499999999999999700 ) ;
#558 = SPHERICAL_SURFACE ( 'NONE', #848, 0.1499999999999999900 ) ;
#559 = DIRECTION ( 'NONE',  ( 0.0000000000000000000, -0.0000000000000000000, 1.000000000000000000 ) ) ;
#560 = DIRECTION ( 'NONE',  ( -0.0000000000000000000, -1.000000000000000000, -0.0000000000000000000 ) ) ;
#561 = CARTESIAN_POINT ( 'NONE',  ( 0.4000000000000000800, -0.1500000000000000500, 0.8000000000000000400 ) ) ;
#562 = ORIENTED_EDGE ( 'NONE', *, *, #534, .T. ) ;
#563 = ORIENTED_EDGE ( 'NONE', *, *, #916, .T. ) ;
#564 = EDGE_CURVE ( 'NONE', #390, #6, #272, .T. ) ;
#565 = DIRECTION ( 'NONE',  ( 0.0000000000000000000, -1.807003620809174600E-016, 1.000000000000000000 ) ) ;
#566 = CARTESIAN_POINT ( 'NONE',  ( -0.3999999999999999700, -0.1500000000000000500, -0.3999999999999998600 ) ) ;
#567 =( LENGTH_UNIT ( ) NAMED_UNIT ( * ) SI_UNIT ( .MILLI., .METRE. ) );
#568 = CARTESIAN_POINT ( 'NONE',  ( 5.421010862427522200E-017, -0.1500000000000000500, 0.8000000000000000400 ) ) ;
#569 = DIRECTION ( 'NONE',  ( -1.000000000000000000, -0.0000000000000000000, 0.0000000000000000000 ) ) ;
#570 = AXIS2_PLACEMENT_3D ( 'NONE', #281, #730, #509 ) ;
#571 = CARTESIAN_POINT ( 'NONE',  ( 5.421010862427522200E-017, -0.1500000000000000500, -0.7999999999999999300 ) ) ;
#572 = PRESENTATION_STYLE_ASSIGNMENT (( #86 ) ) ;
#573 = ORIENTED_EDGE ( 'NONE', *, *, #74, .F. ) ;
#574 = MANIFOLD_SOLID_BREP ( 'Sketch-Pattern1[6]', #795 ) ;
#575 = EDGE_LOOP ( 'NONE', ( #314, #851 ) ) ;
#576 = CARTESIAN_POINT ( 'NONE',  ( 5.421010862427522200E-017, -0.3000000000000000400, 8.501166134935075400E-017 ) ) ;
#577 = AXIS2_PLACEMENT_3D ( 'NONE', #825, #664, #215 ) ;
#578 = DIRECTION ( 'NONE',  ( 0.0000000000000000000, 0.0000000000000000000, -1.000000000000000000 ) ) ;
#579 = SURFACE_SIDE_STYLE ('',( #960 ) ) ;
#580 = SPHERICAL_SURFACE ( 'NONE', #570, 0.1499999999999999900 ) ;
#581 = SPHERICAL_SURFACE ( 'NONE', #296, 0.1499999999999999900 ) ;
#582 = DIRECTION ( 'NONE',  ( 0.0000000000000000000, 0.0000000000000000000, 1.000000000000000000 ) ) ;
#583 = COLOUR_RGB ( '',1.000000000000000000, 1.000000000000000000, 1.000000000000000000 ) ;
#584 = DIRECTION ( 'NONE',  ( 0.0000000000000000000, 0.0000000000000000000, -1.000000000000000000 ) ) ;
#585 = CIRCLE ( 'NONE', #106, 0.1499999999999999700 ) ;
#586 = AXIS2_PLACEMENT_3D ( 'NONE', #686, #612, #690 ) ;
#587 = AXIS2_PLACEMENT_3D ( 'NONE', #684, #609, #687 ) ;
#588 = EDGE_LOOP ( 'NONE', ( #531, #979 ) ) ;
#589 = APPLICATION_CONTEXT ( 'automotive_design' ) ;
#590 = VERTEX_POINT ( 'NONE', #450 ) ;
#591 =( NAMED_UNIT ( * ) SI_UNIT ( $, .STERADIAN. ) SOLID_ANGLE_UNIT ( ) );
#592 = PRESENTATION_LAYER_ASSIGNMENT (  '', '', ( #184 ) ) ;
#593 = DIRECTION ( 'NONE',  ( 0.0000000000000000000, -1.807003620809174600E-016, 1.000000000000000000 ) ) ;
#594 = EDGE_CURVE ( 'NONE', #904, #590, #846, .T. ) ;
#595 = DIRECTION ( 'NONE',  ( 1.000000000000000000, 0.0000000000000000000, 0.0000000000000000000 ) ) ;
#596 = CLOSED_SHELL ( 'NONE', ( #957, #638 ) ) ;
#597 = EDGE_LOOP ( 'NONE', ( #228, #185, #364, #279 ) ) ;
#598 = VERTEX_POINT ( 'NONE', #209 ) ;
#599 =( NAMED_UNIT ( * ) PLANE_ANGLE_UNIT ( ) SI_UNIT ( $, .RADIAN. ) );
#600 = EDGE_CURVE ( 'NONE', #408, #447, #463, .T. ) ;
#601 = ADVANCED_FACE ( 'NONE', ( #485 ), #821, .T. ) ;
#602 = AXIS2_PLACEMENT_3D ( 'NONE', #704, #546, #856 ) ;
#603 = CARTESIAN_POINT ( 'NONE',  ( 5.421010862427522200E-017, -5.421010862427522200E-017, 0.8000000000000000400 ) ) ;
#604 = FACE_OUTER_BOUND ( 'NONE', #14, .T. ) ;
#605 = DIRECTION ( 'NONE',  ( -1.000000000000000000, -0.0000000000000000000, 0.0000000000000000000 ) ) ;
#606 = ADVANCED_FACE ( 'NONE', ( #359 ), #85, .T. ) ;
#607 = DIRECTION ( 'NONE',  ( 0.0000000000000000000, -1.807003620809174100E-016, 1.000000000000000000 ) ) ;
#608 = FACE_OUTER_BOUND ( 'NONE', #323, .T. ) ;
#609 = DIRECTION ( 'NONE',  ( 1.000000000000000000, 0.0000000000000000000, 0.0000000000000000000 ) ) ;
#610 =( GEOMETRIC_REPRESENTATION_CONTEXT ( 3 ) GLOBAL_UNCERTAINTY_ASSIGNED_CONTEXT ( ( #262 ) ) GLOBAL_UNIT_ASSIGNED_CONTEXT ( ( #223, #539, #762 ) ) REPRESENTATION_CONTEXT ( 'NONE', 'WORKASPACE' ) );
#611 = PRESENTATION_STYLE_ASSIGNMENT (( #753 ) ) ;
#612 = DIRECTION ( 'NONE',  ( -1.000000000000000000, -0.0000000000000000000, 0.0000000000000000000 ) ) ;
#613 = ORIENTED_EDGE ( 'NONE', *, *, #388, .T. ) ;
#614 = PRODUCT_DEFINITION_FORMATION_WITH_SPECIFIED_SOURCE ( 'ANY', '', #438, .NOT_KNOWN. ) ;
#615 =( NAMED_UNIT ( * ) PLANE_ANGLE_UNIT ( ) SI_UNIT ( $, .RADIAN. ) );
#616 = CARTESIAN_POINT ( 'NONE',  ( 0.4000000000000000800, -0.1500000000000000500, -0.3999999999999998600 ) ) ;
#617 = EDGE_CURVE ( 'NONE', #902, #213, #945, .T. ) ;
#618 = SURFACE_STYLE_FILL_AREA ( #373 ) ;
#619 = MANIFOLD_SOLID_BREP ( 'Boss-Extrude1', #353 ) ;
#620 = CARTESIAN_POINT ( 'NONE',  ( 0.4000000000000000800, -0.1500000000000000500, 0.8000000000000000400 ) ) ;
#621 = CARTESIAN_POINT ( 'NONE',  ( 0.4000000000000000800, -0.1500000000000000500, 0.4000000000000000800 ) ) ;
#622 = EDGE_LOOP ( 'NONE', ( #173, #167 ) ) ;
#623 = AXIS2_PLACEMENT_3D ( 'NONE', #495, #569, #490 ) ;
#624 = EDGE_LOOP ( 'NONE', ( #931, #17 ) ) ;
#625 = ORIENTED_EDGE ( 'NONE', *, *, #343, .F. ) ;
#626 = COLOUR_RGB ( '',1.000000000000000000, 1.000000000000000000, 1.000000000000000000 ) ;
#627 = FACE_OUTER_BOUND ( 'NONE', #507, .T. ) ;
#628 = PRESENTATION_LAYER_ASSIGNMENT (  '', '', ( #425 ) ) ;
#629 = PRESENTATION_STYLE_ASSIGNMENT (( #437 ) ) ;
#630 = DIRECTION ( 'NONE',  ( -0.0000000000000000000, -0.0000000000000000000, 1.000000000000000000 ) ) ;
#631 = PRODUCT_RELATED_PRODUCT_CATEGORY ( 'part', '', ( #438 ) ) ;
#632 = AXIS2_PLACEMENT_3D ( 'NONE', #293, #421, #70 ) ;
#633 = DIRECTION ( 'NONE',  ( 1.000000000000000000, 0.0000000000000000000, 0.0000000000000000000 ) ) ;
#634 = ORIENTED_EDGE ( 'NONE', *, *, #600, .F. ) ;
#635 = EDGE_LOOP ( 'NONE', ( #744, #407 ) ) ;
#636 = MECHANICAL_DESIGN_GEOMETRIC_PRESENTATION_REPRESENTATION (  '', ( #792 ), #367 ) ;
#637 = SURFACE_SIDE_STYLE ('',( #23 ) ) ;
#638 = ADVANCED_FACE ( 'NONE', ( #724 ), #402, .T. ) ;
#639 = DIRECTION ( 'NONE',  ( 1.000000000000000000, 0.0000000000000000000, 0.0000000000000000000 ) ) ;
#640 = DIRECTION ( 'NONE',  ( 0.0000000000000000000, -1.807003620809174600E-016, 1.000000000000000000 ) ) ;
#641 = CIRCLE ( 'NONE', #413, 0.1499999999999999700 ) ;
#642 = SPHERICAL_SURFACE ( 'NONE', #587, 0.1499999999999999900 ) ;
#643 =( GEOMETRIC_REPRESENTATION_CONTEXT ( 3 ) GLOBAL_UNCERTAINTY_ASSIGNED_CONTEXT ( ( #443 ) ) GLOBAL_UNIT_ASSIGNED_CONTEXT ( ( #219, #756, #453 ) ) REPRESENTATION_CONTEXT ( 'NONE', 'WORKASPACE' ) );
#644 = PLANE ( 'NONE',  #903 ) ;
#645 = FILL_AREA_STYLE ('',( #108 ) ) ;
#646 = ORIENTED_EDGE ( 'NONE', *, *, #916, .F. ) ;
#647 = VERTEX_POINT ( 'NONE', #166 ) ;
#648 = EDGE_CURVE ( 'NONE', #268, #79, #235, .T. ) ;
#649 = CLOSED_SHELL ( 'NONE', ( #159, #829 ) ) ;
#650 = UNCERTAINTY_MEASURE_WITH_UNIT (LENGTH_MEASURE( 1.000000000000000100E-005 ), #43, 'distance_accuracy_value', 'NONE');
#651 =( NAMED_UNIT ( * ) PLANE_ANGLE_UNIT ( ) SI_UNIT ( $, .RADIAN. ) );
#652 = SURFACE_STYLE_FILL_AREA ( #958 ) ;
#653 = CARTESIAN_POINT ( 'NONE',  ( -0.6720000000000000400, 0.3250000000000000100, -1.127499999999999500 ) ) ;
#654 = EDGE_CURVE ( 'NONE', #5, #129, #868, .T. ) ;
#655 =( NAMED_UNIT ( * ) SI_UNIT ( $, .STERADIAN. ) SOLID_ANGLE_UNIT ( ) );
#656 =( NAMED_UNIT ( * ) PLANE_ANGLE_UNIT ( ) SI_UNIT ( $, .RADIAN. ) );
#657 = SURFACE_SIDE_STYLE ('',( #237 ) ) ;
#658 = SPHERICAL_SURFACE ( 'NONE', #111, 0.1499999999999999900 ) ;
#659 = EDGE_LOOP ( 'NONE', ( #573, #313 ) ) ;
#660 = MECHANICAL_DESIGN_GEOMETRIC_PRESENTATION_REPRESENTATION (  '', ( #69 ), #713 ) ;
#661 = CARTESIAN_POINT ( 'NONE',  ( 1.151964808265848500E-016, -0.1500000000000000500, 0.4000000000000000800 ) ) ;
#662 =( LENGTH_UNIT ( ) NAMED_UNIT ( * ) SI_UNIT ( .MILLI., .METRE. ) );
#663 = PRESENTATION_STYLE_ASSIGNMENT (( #33 ) ) ;
#664 = DIRECTION ( 'NONE',  ( 1.000000000000000000, 0.0000000000000000000, 0.0000000000000000000 ) ) ;
#665 = SURFACE_STYLE_FILL_AREA ( #676 ) ;
#666 = COLOUR_RGB ( '',1.000000000000000000, 1.000000000000000000, 1.000000000000000000 ) ;
#667 = EDGE_CURVE ( 'NONE', #434, #420, #34, .T. ) ;
#668 = FACE_OUTER_BOUND ( 'NONE', #419, .T. ) ;
#669 = SURFACE_STYLE_FILL_AREA ( #350 ) ;
#670 = VERTEX_POINT ( 'NONE', #993 ) ;
#671 = ORIENTED_EDGE ( 'NONE', *, *, #3, .F. ) ;
#672 = CARTESIAN_POINT ( 'NONE',  ( -0.3999999999999999700, -0.1500000000000000500, 0.8000000000000000400 ) ) ;
#673 = VERTEX_POINT ( 'NONE', #158 ) ;
#674 = PRESENTATION_LAYER_ASSIGNMENT (  '', '', ( #857 ) ) ;
#675 = PLANE ( 'NONE',  #632 ) ;
#676 = FILL_AREA_STYLE ('',( #68 ) ) ;
#677 = CIRCLE ( 'NONE', #526, 0.1499999999999999700 ) ;
#678 = ADVANCED_FACE ( 'NONE', ( #961 ), #642, .T. ) ;
#679 = FILL_AREA_STYLE_COLOUR ( '', #729 ) ;
#680 = CARTESIAN_POINT ( 'NONE',  ( 0.4000000000000000800, -0.1500000000000000500, -0.7999999999999999300 ) ) ;
#681 = ADVANCED_BREP_SHAPE_REPRESENTATION ( 'TPS63805YFFR', ( #619, #694, #798, #536, #61, #180, #574, #360, #218, #168, #409, #871, #107, #711, #981, #755, #472 ), #919 ) ;
#682 = MECHANICAL_DESIGN_GEOMETRIC_PRESENTATION_REPRESENTATION (  '', ( #784 ), #200 ) ;
#683 = DIRECTION ( 'NONE',  ( -0.0000000000000000000, -1.000000000000000000, -0.0000000000000000000 ) ) ;
#684 = CARTESIAN_POINT ( 'NONE',  ( -0.3999999999999999100, -0.1500000000000000500, 0.4000000000000000800 ) ) ;
#685 = VERTEX_POINT ( 'NONE', #765 ) ;
#686 = CARTESIAN_POINT ( 'NONE',  ( 5.421010862427522200E-017, -0.1500000000000000500, 1.084202172485504400E-016 ) ) ;
#687 = DIRECTION ( 'NONE',  ( 0.0000000000000000000, -1.807003620809174600E-016, 1.000000000000000000 ) ) ;
#688 = AXIS2_PLACEMENT_3D ( 'NONE', #371, #375, #911 ) ;
#689 = STYLED_ITEM ( 'NONE', ( #511 ), #871 ) ;
#690 = DIRECTION ( 'NONE',  ( 0.0000000000000000000, 0.0000000000000000000, 1.000000000000000000 ) ) ;
#691 = SPHERICAL_SURFACE ( 'NONE', #310, 0.1499999999999999900 ) ;
#692 =( NAMED_UNIT ( * ) SI_UNIT ( $, .STERADIAN. ) SOLID_ANGLE_UNIT ( ) );
#693 = COLOUR_RGB ( '',0.2509803921568627400, 0.2509803921568627400, 0.2509803921568627400 ) ;
#694 = MANIFOLD_SOLID_BREP ( 'Sketch-Pattern1[1]', #719 ) ;
#695 = SURFACE_STYLE_USAGE ( .BOTH. , #82 ) ;
#696 = CIRCLE ( 'NONE', #586, 0.1499999999999999900 ) ;
#697 = AXIS2_PLACEMENT_3D ( 'NONE', #787, #260, #258 ) ;
#698 = LINE ( 'NONE', #880, #541 ) ;
#699 = ORIENTED_EDGE ( 'NONE', *, *, #811, .F. ) ;
#700 = ORIENTED_EDGE ( 'NONE', *, *, #947, .T. ) ;
#701 = CARTESIAN_POINT ( 'NONE',  ( 1.151964808265848500E-016, -0.1500000000000000500, 0.4000000000000000800 ) ) ;
#702 = EDGE_CURVE ( 'NONE', #918, #794, #995, .T. ) ;
#703 = PRESENTATION_STYLE_ASSIGNMENT (( #695 ) ) ;
#704 = CARTESIAN_POINT ( 'NONE',  ( -0.3999999999999999700, -0.1500000000000000500, -0.7999999999999999300 ) ) ;
#705 = AXIS2_PLACEMENT_3D ( 'NONE', #344, #331, #416 ) ;
#706 = DIRECTION ( 'NONE',  ( -1.000000000000000000, -0.0000000000000000000, 0.0000000000000000000 ) ) ;
#707 = EDGE_LOOP ( 'NONE', ( #954, #699, #555, #839 ) ) ;
#708 = EDGE_LOOP ( 'NONE', ( #151, #700 ) ) ;
#709 =( LENGTH_UNIT ( ) NAMED_UNIT ( * ) SI_UNIT ( .MILLI., .METRE. ) );
#710 = CARTESIAN_POINT ( 'NONE',  ( -0.3999999999999999100, -0.1500000000000000500, 0.4000000000000000800 ) ) ;
#711 = MANIFOLD_SOLID_BREP ( 'Sketch-Pattern1[13]', #423 ) ;
#712 =( NAMED_UNIT ( * ) SI_UNIT ( $, .STERADIAN. ) SOLID_ANGLE_UNIT ( ) );
#713 =( GEOMETRIC_REPRESENTATION_CONTEXT ( 3 ) GLOBAL_UNCERTAINTY_ASSIGNED_CONTEXT ( ( #548 ) ) GLOBAL_UNIT_ASSIGNED_CONTEXT ( ( #345, #815, #120 ) ) REPRESENTATION_CONTEXT ( 'NONE', 'WORKASPACE' ) );
#714 = CARTESIAN_POINT ( 'NONE',  ( -0.6720000000000000400, 0.0000000000000000000, 1.127500000000000200 ) ) ;
#715 = VECTOR ( 'NONE', #630, 1000.000000000000000 ) ;
#716 = DIRECTION ( 'NONE',  ( 1.000000000000000000, 0.0000000000000000000, 0.0000000000000000000 ) ) ;
#717 = EDGE_CURVE ( 'NONE', #468, #142, #984, .T. ) ;
#718 = SURFACE_SIDE_STYLE ('',( #652 ) ) ;
#719 = CLOSED_SHELL ( 'NONE', ( #316, #13 ) ) ;
#720 = ORIENTED_EDGE ( 'NONE', *, *, #363, .T. ) ;
#721 =( NAMED_UNIT ( * ) PLANE_ANGLE_UNIT ( ) SI_UNIT ( $, .RADIAN. ) );
#722 = CARTESIAN_POINT ( 'NONE',  ( 0.6720000000000001500, 0.3250000000000000100, 1.127499999999999900 ) ) ;
#723 = SURFACE_STYLE_USAGE ( .BOTH. , #657 ) ;
#724 = FACE_OUTER_BOUND ( 'NONE', #195, .T. ) ;
#725 = FILL_AREA_STYLE_COLOUR ( '', #104 ) ;
#726 = CARTESIAN_POINT ( 'NONE',  ( 5.421010862427522200E-017, -0.1500000000000000500, -0.3999999999999998600 ) ) ;
#727 = MECHANICAL_DESIGN_GEOMETRIC_PRESENTATION_REPRESENTATION (  '', ( #857 ), #896 ) ;
#728 = CARTESIAN_POINT ( 'NONE',  ( 0.4000000000000000800, -5.421010862427522200E-017, -0.3999999999999998000 ) ) ;
#729 = COLOUR_RGB ( '',1.000000000000000000, 1.000000000000000000, 1.000000000000000000 ) ;
#730 = DIRECTION ( 'NONE',  ( 1.000000000000000000, 0.0000000000000000000, 0.0000000000000000000 ) ) ;
#731 = DIRECTION ( 'NONE',  ( -0.0000000000000000000, -0.0000000000000000000, 1.000000000000000000 ) ) ;
#732 = FACE_OUTER_BOUND ( 'NONE', #517, .T. ) ;
#733 = ORIENTED_EDGE ( 'NONE', *, *, #206, .T. ) ;
#734 = AXIS2_PLACEMENT_3D ( 'NONE', #672, #295, #56 ) ;
#735 = CLOSED_SHELL ( 'NONE', ( #934, #844 ) ) ;
#736 = PRODUCT_DEFINITION_SHAPE ( 'NONE', 'NONE',  #786 ) ;
#737 = DIRECTION ( 'NONE',  ( 1.000000000000000000, 0.0000000000000000000, 0.0000000000000000000 ) ) ;
#738 = UNCERTAINTY_MEASURE_WITH_UNIT (LENGTH_MEASURE( 1.000000000000000100E-005 ), #567, 'distance_accuracy_value', 'NONE');
#739 = COLOUR_RGB ( '',1.000000000000000000, 1.000000000000000000, 1.000000000000000000 ) ;
#740 = MECHANICAL_DESIGN_GEOMETRIC_PRESENTATION_REPRESENTATION (  '', ( #410 ), #57 ) ;
#741 = AXIS2_PLACEMENT_3D ( 'NONE', #949, #639, #340 ) ;
#742 = CIRCLE ( 'NONE', #31, 0.1499999999999999700 ) ;
#743 = CARTESIAN_POINT ( 'NONE',  ( -0.3999999999999999700, -0.1500000000000000500, -0.3999999999999998600 ) ) ;
#744 = ORIENTED_EDGE ( 'NONE', *, *, #617, .F. ) ;
#745 = DIRECTION ( 'NONE',  ( 0.0000000000000000000, -1.807003620809174100E-016, 1.000000000000000000 ) ) ;
#746 = VERTEX_POINT ( 'NONE', #467 ) ;
#747 = AXIS2_PLACEMENT_3D ( 'NONE', #333, #706, #248 ) ;
#748 = SURFACE_SIDE_STYLE ('',( #618 ) ) ;
#749 = FACE_OUTER_BOUND ( 'NONE', #861, .T. ) ;
#750 = CARTESIAN_POINT ( 'NONE',  ( 0.6720000000000001500, 0.0000000000000000000, -1.127499999999999700 ) ) ;
#751 = VECTOR ( 'NONE', #731, 1000.000000000000000 ) ;
#752 = EDGE_CURVE ( 'NONE', #746, #193, #135, .T. ) ;
#753 = SURFACE_STYLE_USAGE ( .BOTH. , #212 ) ;
#754 = DIRECTION ( 'NONE',  ( 0.0000000000000000000, 0.0000000000000000000, 1.000000000000000000 ) ) ;
#755 = MANIFOLD_SOLID_BREP ( 'Sketch-Pattern1[15]', #806 ) ;
#756 =( NAMED_UNIT ( * ) PLANE_ANGLE_UNIT ( ) SI_UNIT ( $, .RADIAN. ) );
#757 = ORIENTED_EDGE ( 'NONE', *, *, #773, .T. ) ;
#758 = CARTESIAN_POINT ( 'NONE',  ( 5.421010862427522200E-017, -0.1500000000000000500, 0.8000000000000000400 ) ) ;
#759 = ORIENTED_EDGE ( 'NONE', *, *, #478, .T. ) ;
#760 = EDGE_CURVE ( 'NONE', #770, #299, #19, .T. ) ;
#761 = AXIS2_PLACEMENT_3D ( 'NONE', #886, #51, #975 ) ;
#762 =( NAMED_UNIT ( * ) SI_UNIT ( $, .STERADIAN. ) SOLID_ANGLE_UNIT ( ) );
#763 = FILL_AREA_STYLE_COLOUR ( '', #583 ) ;
#764 = VECTOR ( 'NONE', #804, 1000.000000000000000 ) ;
#765 = CARTESIAN_POINT ( 'NONE',  ( -0.3999999999999999100, -5.421010862427522200E-017, 0.4000000000000001300 ) ) ;
#766 = ADVANCED_FACE ( 'NONE', ( #484 ), #691, .T. ) ;
#767 = AXIS2_PLACEMENT_3D ( 'NONE', #60, #822, #519 ) ;
#768 = CARTESIAN_POINT ( 'NONE',  ( 0.6720000000000001500, 0.3250000000000000100, -1.127499999999999700 ) ) ;
#769 = DIRECTION ( 'NONE',  ( 0.0000000000000000000, -1.807003620809174600E-016, 1.000000000000000000 ) ) ;
#770 = VERTEX_POINT ( 'NONE', #554 ) ;
#771 = ORIENTED_EDGE ( 'NONE', *, *, #343, .T. ) ;
#772 = FILL_AREA_STYLE ('',( #157 ) ) ;
#773 = EDGE_CURVE ( 'NONE', #466, #598, #357, .T. ) ;
#774 = CIRCLE ( 'NONE', #265, 0.1499999999999999700 ) ;
#775 = SURFACE_STYLE_FILL_AREA ( #97 ) ;
#776 = VECTOR ( 'NONE', #302, 1000.000000000000000 ) ;
#777 = FILL_AREA_STYLE ('',( #328 ) ) ;
#778 = AXIS2_PLACEMENT_3D ( 'NONE', #90, #935, #877 ) ;
#779 = ORIENTED_EDGE ( 'NONE', *, *, #206, .F. ) ;
#780 = FILL_AREA_STYLE_COLOUR ( '', #461 ) ;
#781 = ORIENTED_EDGE ( 'NONE', *, *, #893, .T. ) ;
#782 = ORIENTED_EDGE ( 'NONE', *, *, #91, .T. ) ;
#783 = DIRECTION ( 'NONE',  ( 0.0000000000000000000, -1.807003620809174600E-016, 1.000000000000000000 ) ) ;
#784 = STYLED_ITEM ( 'NONE', ( #139 ), #409 ) ;
#785 = DIRECTION ( 'NONE',  ( 0.0000000000000000000, 0.0000000000000000000, -1.000000000000000000 ) ) ;
#786 = PRODUCT_DEFINITION ( 'UNKNOWN', '', #614, #980 ) ;
#787 = CARTESIAN_POINT ( 'NONE',  ( 5.421010862427522200E-017, -0.1500000000000000500, -0.7999999999999999300 ) ) ;
#788 = VECTOR ( 'NONE', #496, 1000.000000000000000 ) ;
#789 = ADVANCED_FACE ( 'NONE', ( #974 ), #867, .T. ) ;
#790 = EDGE_CURVE ( 'NONE', #366, #492, #98, .T. ) ;
#791 = DIRECTION ( 'NONE',  ( 1.000000000000000000, 0.0000000000000000000, 0.0000000000000000000 ) ) ;
#792 = STYLED_ITEM ( 'NONE', ( #663 ), #798 ) ;
#793 = DIRECTION ( 'NONE',  ( 0.0000000000000000000, -1.807003620809174600E-016, 1.000000000000000000 ) ) ;
#794 = VERTEX_POINT ( 'NONE', #549 ) ;
#795 = CLOSED_SHELL ( 'NONE', ( #789, #152 ) ) ;
#796 = DIRECTION ( 'NONE',  ( 1.000000000000000000, 0.0000000000000000000, -1.613396090008191100E-016 ) ) ;
#797 = SURFACE_STYLE_USAGE ( .BOTH. , #422 ) ;
#798 = MANIFOLD_SOLID_BREP ( 'Sketch-Pattern1[2]', #150 ) ;
#799 = CIRCLE ( 'NONE', #767, 0.1499999999999999700 ) ;
#800 = DIRECTION ( 'NONE',  ( 1.000000000000000000, -2.661027428305382000E-032, 1.224646799147353200E-016 ) ) ;
#801 = CARTESIAN_POINT ( 'NONE',  ( 0.4000000000000000800, -0.1500000000000000500, -0.7999999999999999300 ) ) ;
#802 = FACE_OUTER_BOUND ( 'NONE', #597, .T. ) ;
#803 = STYLED_ITEM ( 'NONE', ( #611 ), #61 ) ;
#804 = DIRECTION ( 'NONE',  ( 1.000000000000000000, -0.0000000000000000000, -1.613396090008191100E-016 ) ) ;
#805 = EDGE_LOOP ( 'NONE', ( #634, #165 ) ) ;
#806 = CLOSED_SHELL ( 'NONE', ( #606, #119 ) ) ;
#807 = CARTESIAN_POINT ( 'NONE',  ( 0.6720000000000001500, 0.3250000000000000100, 1.127499999999999900 ) ) ;
#808 = ORIENTED_EDGE ( 'NONE', *, *, #138, .F. ) ;
#809 =( LENGTH_UNIT ( ) NAMED_UNIT ( * ) SI_UNIT ( .MILLI., .METRE. ) );
#810 = CARTESIAN_POINT ( 'NONE',  ( 5.421010862427522200E-017, -5.421010862427522200E-017, 1.501984751349604300E-016 ) ) ;
#811 = EDGE_CURVE ( 'NONE', #366, #376, #831, .T. ) ;
#812 = CARTESIAN_POINT ( 'NONE',  ( 0.4000000000000000800, -0.1500000000000000500, 1.084202172485504400E-016 ) ) ;
#813 = SURFACE_STYLE_USAGE ( .BOTH. , #579 ) ;
#814 = AXIS2_PLACEMENT_3D ( 'NONE', #888, #737, #198 ) ;
#815 =( NAMED_UNIT ( * ) PLANE_ANGLE_UNIT ( ) SI_UNIT ( $, .RADIAN. ) );
#816 = UNCERTAINTY_MEASURE_WITH_UNIT (LENGTH_MEASURE( 1.000000000000000100E-005 ), #276, 'distance_accuracy_value', 'NONE');
#817 = ORIENTED_EDGE ( 'NONE', *, *, #790, .F. ) ;
#818 = MECHANICAL_DESIGN_GEOMETRIC_PRESENTATION_REPRESENTATION (  '', ( #184 ), #643 ) ;
#819 = CARTESIAN_POINT ( 'NONE',  ( -0.3999999999999999700, -0.1500000000000000500, 1.084202172485504400E-016 ) ) ;
#820 = EDGE_CURVE ( 'NONE', #53, #456, #557, .T. ) ;
#821 = SPHERICAL_SURFACE ( 'NONE', #487, 0.1499999999999999900 ) ;
#822 = DIRECTION ( 'NONE',  ( 1.000000000000000000, -2.661027428305382000E-032, 1.224646799147353200E-016 ) ) ;
#823 = DIRECTION ( 'NONE',  ( 0.0000000000000000000, -1.807003620809174600E-016, 1.000000000000000000 ) ) ;
#824 = ORIENTED_EDGE ( 'NONE', *, *, #145, .F. ) ;
#825 = CARTESIAN_POINT ( 'NONE',  ( 0.4000000000000000800, -0.1500000000000000500, -0.3999999999999998600 ) ) ;
#826 = ORIENTED_EDGE ( 'NONE', *, *, #855, .F. ) ;
#827 = ORIENTED_EDGE ( 'NONE', *, *, #667, .F. ) ;
#828 = STYLED_ITEM ( 'NONE', ( #392 ), #619 ) ;
#829 = ADVANCED_FACE ( 'NONE', ( #247 ), #382, .T. ) ;
#830 = FILL_AREA_STYLE ('',( #679 ) ) ;
#831 = LINE ( 'NONE', #187, #428 ) ;
#832 = DIRECTION ( 'NONE',  ( 0.0000000000000000000, 0.0000000000000000000, -1.000000000000000000 ) ) ;
#833 = ADVANCED_FACE ( 'NONE', ( #627 ), #259, .F. ) ;
#834 = AXIS2_PLACEMENT_3D ( 'NONE', #571, #48, #356 ) ;
#835 = CARTESIAN_POINT ( 'NONE',  ( 0.6720000000000001500, 0.3250000000000000100, 1.127499999999999900 ) ) ;
#836 = CARTESIAN_POINT ( 'NONE',  ( 5.421010862427522200E-017, -0.1500000000000000500, 1.084202172485504400E-016 ) ) ;
#837 = PRESENTATION_STYLE_ASSIGNMENT (( #498 ) ) ;
#838 = FACE_OUTER_BOUND ( 'NONE', #878, .T. ) ;
#839 = ORIENTED_EDGE ( 'NONE', *, *, #717, .T. ) ;
#840 = DIRECTION ( 'NONE',  ( 0.0000000000000000000, 0.0000000000000000000, -1.000000000000000000 ) ) ;
#841 = ORIENTED_EDGE ( 'NONE', *, *, #363, .F. ) ;
#842 = AXIS2_PLACEMENT_3D ( 'NONE', #47, #132, #125 ) ;
#843 = DIRECTION ( 'NONE',  ( 0.0000000000000000000, 0.0000000000000000000, -1.000000000000000000 ) ) ;
#844 = ADVANCED_FACE ( 'NONE', ( #604 ), #581, .T. ) ;
#845 =( NAMED_UNIT ( * ) SI_UNIT ( $, .STERADIAN. ) SOLID_ANGLE_UNIT ( ) );
#846 = CIRCLE ( 'NONE', #284, 0.1499999999999999900 ) ;
#847 = DIRECTION ( 'NONE',  ( 1.000000000000000000, -2.661027428305382000E-032, 1.224646799147353200E-016 ) ) ;
#848 = AXIS2_PLACEMENT_3D ( 'NONE', #858, #716, #943 ) ;
#849 =( LENGTH_UNIT ( ) NAMED_UNIT ( * ) SI_UNIT ( .MILLI., .METRE. ) );
#850 = ORIENTED_EDGE ( 'NONE', *, *, #516, .F. ) ;
#851 = ORIENTED_EDGE ( 'NONE', *, *, #648, .T. ) ;
#852 = CARTESIAN_POINT ( 'NONE',  ( -0.6720000000000000400, 0.3250000000000000100, -1.127499999999999500 ) ) ;
#853 = STYLED_ITEM ( 'NONE', ( #572 ), #180 ) ;
#854 = UNCERTAINTY_MEASURE_WITH_UNIT (LENGTH_MEASURE( 1.000000000000000100E-005 ), #915, 'distance_accuracy_value', 'NONE');
#855 = EDGE_CURVE ( 'NONE', #408, #447, #330, .T. ) ;
#856 = DIRECTION ( 'NONE',  ( 0.0000000000000000000, 0.0000000000000000000, 1.000000000000000000 ) ) ;
#857 = STYLED_ITEM ( 'NONE', ( #924 ), #981 ) ;
#858 = CARTESIAN_POINT ( 'NONE',  ( -0.3999999999999999700, -0.1500000000000000500, 0.8000000000000000400 ) ) ;
#859 = PLANE ( 'NONE',  #972 ) ;
#860 =( NAMED_UNIT ( * ) SI_UNIT ( $, .STERADIAN. ) SOLID_ANGLE_UNIT ( ) );
#861 = EDGE_LOOP ( 'NONE', ( #94, #613 ) ) ;
#862 = ORIENTED_EDGE ( 'NONE', *, *, #74, .T. ) ;
#863 = FILL_AREA_STYLE_COLOUR ( '', #465 ) ;
#864 = DIRECTION ( 'NONE',  ( 0.0000000000000000000, 0.0000000000000000000, -1.000000000000000000 ) ) ;
#865 = STYLED_ITEM ( 'NONE', ( #629 ), #574 ) ;
#866 = CARTESIAN_POINT ( 'NONE',  ( -0.6720000000000000400, 0.0000000000000000000, 1.127500000000000200 ) ) ;
#867 = SPHERICAL_SURFACE ( 'NONE', #778, 0.1499999999999999900 ) ;
#868 = CIRCLE ( 'NONE', #245, 0.1499999999999999700 ) ;
#869 = CARTESIAN_POINT ( 'NONE',  ( -0.3999999999999999700, -0.3000000000000000400, -0.3999999999999998600 ) ) ;
#870 = FACE_OUTER_BOUND ( 'NONE', #229, .T. ) ;
#871 = MANIFOLD_SOLID_BREP ( 'Sketch-Pattern1[11]', #649 ) ;
#872 = LINE ( 'NONE', #714, #715 ) ;
#873 = COLOUR_RGB ( '',1.000000000000000000, 1.000000000000000000, 1.000000000000000000 ) ;
#874 = CARTESIAN_POINT ( 'NONE',  ( 0.6720000000000001500, 0.0000000000000000000, 1.127499999999999900 ) ) ;
#875 = CLOSED_SHELL ( 'NONE', ( #678, #326 ) ) ;
#876 = ORIENTED_EDGE ( 'NONE', *, *, #131, .F. ) ;
#877 = DIRECTION ( 'NONE',  ( 0.0000000000000000000, -1.807003620809174100E-016, 1.000000000000000000 ) ) ;
#878 = EDGE_LOOP ( 'NONE', ( #252, #298, #817, #324 ) ) ;
#879 = DIRECTION ( 'NONE',  ( 1.224646799147353200E-016, 0.0000000000000000000, -1.000000000000000000 ) ) ;
#880 = CARTESIAN_POINT ( 'NONE',  ( 0.6720000000000001500, 0.3250000000000000100, 1.127499999999999900 ) ) ;
#881 = FILL_AREA_STYLE ('',( #348 ) ) ;
#882 = PRESENTATION_LAYER_ASSIGNMENT (  '', '', ( #133 ) ) ;
#883 = COLOUR_RGB ( '',1.000000000000000000, 1.000000000000000000, 1.000000000000000000 ) ;
#884 = CARTESIAN_POINT ( 'NONE',  ( 5.421010862427522200E-017, -0.1500000000000000500, -0.7999999999999999300 ) ) ;
#885 = CARTESIAN_POINT ( 'NONE',  ( 0.4000000000000000800, -0.3000000000000000400, -0.3999999999999998600 ) ) ;
#886 = CARTESIAN_POINT ( 'NONE',  ( 1.151964808265848500E-016, -0.1500000000000000500, 0.4000000000000000800 ) ) ;
#887 = PRESENTATION_LAYER_ASSIGNMENT (  '', '', ( #853 ) ) ;
#888 = CARTESIAN_POINT ( 'NONE',  ( 0.4000000000000000800, -0.1500000000000000500, 0.4000000000000000800 ) ) ;
#889 = FACE_OUTER_BOUND ( 'NONE', #117, .T. ) ;
#890 = ORIENTED_EDGE ( 'NONE', *, *, #131, .T. ) ;
#891 = CARTESIAN_POINT ( 'NONE',  ( -0.6720000000000000400, 0.3250000000000000100, 1.127500000000000200 ) ) ;
#892 = DIRECTION ( 'NONE',  ( 0.0000000000000000000, 0.0000000000000000000, 1.000000000000000000 ) ) ;
#893 = EDGE_CURVE ( 'NONE', #390, #6, #774, .T. ) ;
#894 = APPLICATION_PROTOCOL_DEFINITION ( 'draft international standard', 'automotive_design', 1998, #589 ) ;
#895 = PRESENTATION_STYLE_ASSIGNMENT (( #470 ) ) ;
#896 =( GEOMETRIC_REPRESENTATION_CONTEXT ( 3 ) GLOBAL_UNCERTAINTY_ASSIGNED_CONTEXT ( ( #906 ) ) GLOBAL_UNIT_ASSIGNED_CONTEXT ( ( #44, #128, #355 ) ) REPRESENTATION_CONTEXT ( 'NONE', 'WORKASPACE' ) );
#897 = DIRECTION ( 'NONE',  ( 0.0000000000000000000, -1.807003620809174100E-016, 1.000000000000000000 ) ) ;
#898 = FACE_OUTER_BOUND ( 'NONE', #933, .T. ) ;
#899 = APPLICATION_PROTOCOL_DEFINITION ( 'draft international standard', 'automotive_design', 1998, #271 ) ;
#900 = DIRECTION ( 'NONE',  ( -1.000000000000000000, -0.0000000000000000000, 0.0000000000000000000 ) ) ;
#901 = CIRCLE ( 'NONE', #553, 0.1499999999999999900 ) ;
#902 = VERTEX_POINT ( 'NONE', #869 ) ;
#903 = AXIS2_PLACEMENT_3D ( 'NONE', #179, #493, #796 ) ;
#904 = VERTEX_POINT ( 'NONE', #417 ) ;
#905 = DIRECTION ( 'NONE',  ( 0.0000000000000000000, 0.0000000000000000000, 1.000000000000000000 ) ) ;
#906 = UNCERTAINTY_MEASURE_WITH_UNIT (LENGTH_MEASURE( 1.000000000000000100E-005 ), #44, 'distance_accuracy_value', 'NONE');
#907 = SURFACE_SIDE_STYLE ('',( #665 ) ) ;
#908 = ADVANCED_FACE ( 'NONE', ( #342 ), #246, .T. ) ;
#909 = MECHANICAL_DESIGN_GEOMETRIC_PRESENTATION_REPRESENTATION (  '', ( #425 ), #217 ) ;
#910 = CIRCLE ( 'NONE', #457, 0.1499999999999999700 ) ;
#911 = DIRECTION ( 'NONE',  ( 0.0000000000000000000, -1.807003620809174100E-016, 1.000000000000000000 ) ) ;
#912 = FILL_AREA_STYLE_COLOUR ( '', #236 ) ;
#913 = ADVANCED_FACE ( 'NONE', ( #59 ), #381, .T. ) ;
#914 = DIRECTION ( 'NONE',  ( 1.000000000000000000, 0.0000000000000000000, 0.0000000000000000000 ) ) ;
#915 =( LENGTH_UNIT ( ) NAMED_UNIT ( * ) SI_UNIT ( .MILLI., .METRE. ) );
#916 = EDGE_CURVE ( 'NONE', #918, #794, #641, .T. ) ;
#917 = EDGE_LOOP ( 'NONE', ( #850, #435 ) ) ;
#918 = VERTEX_POINT ( 'NONE', #514 ) ;
#919 =( GEOMETRIC_REPRESENTATION_CONTEXT ( 3 ) GLOBAL_UNCERTAINTY_ASSIGNED_CONTEXT ( ( #26 ) ) GLOBAL_UNIT_ASSIGNED_CONTEXT ( ( #54, #656, #201 ) ) REPRESENTATION_CONTEXT ( 'NONE', 'WORKASPACE' ) );
#920 = CARTESIAN_POINT ( 'NONE',  ( -0.6720000000000000400, 0.0000000000000000000, -1.127499999999999500 ) ) ;
#921 = UNCERTAINTY_MEASURE_WITH_UNIT (LENGTH_MEASURE( 1.000000000000000100E-005 ), #709, 'distance_accuracy_value', 'NONE');
#922 = DIRECTION ( 'NONE',  ( 1.224646799147353000E-016, 0.0000000000000000000, -1.000000000000000000 ) ) ;
#923 = ADVANCED_FACE ( 'NONE', ( #944 ), #982, .T. ) ;
#924 = PRESENTATION_STYLE_ASSIGNMENT (( #813 ) ) ;
#925 = DIRECTION ( 'NONE',  ( -1.000000000000000000, -0.0000000000000000000, 0.0000000000000000000 ) ) ;
#926 = CARTESIAN_POINT ( 'NONE',  ( -0.3999999999999999700, -0.1500000000000000500, -0.3999999999999998600 ) ) ;
#927 = SURFACE_STYLE_FILL_AREA ( #777 ) ;
#928 = AXIS2_PLACEMENT_3D ( 'NONE', #164, #464, #607 ) ;
#929 = CARTESIAN_POINT ( 'NONE',  ( 5.421010862427522200E-017, -0.1500000000000000500, 0.8000000000000000400 ) ) ;
#930 = SURFACE_STYLE_FILL_AREA ( #830 ) ;
#931 = ORIENTED_EDGE ( 'NONE', *, *, #893, .F. ) ;
#932 = FILL_AREA_STYLE_COLOUR ( '', #693 ) ;
#933 = EDGE_LOOP ( 'NONE', ( #826, #400 ) ) ;
#934 = ADVANCED_FACE ( 'NONE', ( #253 ), #199, .T. ) ;
#935 = DIRECTION ( 'NONE',  ( 1.000000000000000000, 0.0000000000000000000, 0.0000000000000000000 ) ) ;
#936 = SPHERICAL_SURFACE ( 'NONE', #471, 0.1499999999999999900 ) ;
#937 = MECHANICAL_DESIGN_GEOMETRIC_PRESENTATION_REPRESENTATION (  '', ( #133 ), #45 ) ;
#938 = SPHERICAL_SURFACE ( 'NONE', #928, 0.1499999999999999900 ) ;
#939 = DIRECTION ( 'NONE',  ( 1.000000000000000000, -2.661027428305382000E-032, 1.224646799147353200E-016 ) ) ;
#940 = FACE_OUTER_BOUND ( 'NONE', #264, .T. ) ;
#941 = ORIENTED_EDGE ( 'NONE', *, *, #550, .F. ) ;
#942 = ORIENTED_EDGE ( 'NONE', *, *, #617, .T. ) ;
#943 = DIRECTION ( 'NONE',  ( 0.0000000000000000000, -1.807003620809174600E-016, 1.000000000000000000 ) ) ;
#944 = FACE_OUTER_BOUND ( 'NONE', #708, .T. ) ;
#945 = CIRCLE ( 'NONE', #391, 0.1499999999999999700 ) ;
#946 = CARTESIAN_POINT ( 'NONE',  ( 0.4000000000000000800, -5.421010862427522200E-017, 0.4000000000000001300 ) ) ;
#947 = EDGE_CURVE ( 'NONE', #746, #193, #169, .T. ) ;
#948 = CARTESIAN_POINT ( 'NONE',  ( 0.0000000000000000000, 0.3250000000000000100, 0.0000000000000000000 ) ) ;
#949 = CARTESIAN_POINT ( 'NONE',  ( 5.421010862427522200E-017, -0.1500000000000000500, -0.3999999999999998600 ) ) ;
#950 = AXIS2_PLACEMENT_3D ( 'NONE', #701, #177, #174 ) ;
#951 = DIRECTION ( 'NONE',  ( 0.0000000000000000000, 0.0000000000000000000, -1.000000000000000000 ) ) ;
#952 = SPHERICAL_SURFACE ( 'NONE', #688, 0.1499999999999999900 ) ;
#953 = CARTESIAN_POINT ( 'NONE',  ( 0.4000000000000000800, -0.1500000000000000500, -0.3999999999999998600 ) ) ;
#954 = ORIENTED_EDGE ( 'NONE', *, *, #327, .T. ) ;
#955 = ORIENTED_EDGE ( 'NONE', *, *, #277, .F. ) ;
#956 = DIRECTION ( 'NONE',  ( -1.000000000000000000, -0.0000000000000000000, 0.0000000000000000000 ) ) ;
#957 = ADVANCED_FACE ( 'NONE', ( #749 ), #427, .T. ) ;
#958 = FILL_AREA_STYLE ('',( #115 ) ) ;
#959 = AXIS2_PLACEMENT_3D ( 'NONE', #175, #113, #785 ) ;
#960 = SURFACE_STYLE_FILL_AREA ( #275 ) ;
#961 = FACE_OUTER_BOUND ( 'NONE', #378, .T. ) ;
#962 = DIRECTION ( 'NONE',  ( 0.0000000000000000000, 0.0000000000000000000, -1.000000000000000000 ) ) ;
#963 = FILL_AREA_STYLE ('',( #134 ) ) ;
#964 = AXIS2_PLACEMENT_3D ( 'NONE', #540, #914, #528 ) ;
#965 = SURFACE_SIDE_STYLE ('',( #250 ) ) ;
#966 = DIRECTION ( 'NONE',  ( 0.0000000000000000000, -1.807003620809174600E-016, 1.000000000000000000 ) ) ;
#967 = SURFACE_STYLE_USAGE ( .BOTH. , #269 ) ;
#968 = CLOSED_SHELL ( 'NONE', ( #908, #601 ) ) ;
#969 = DIRECTION ( 'NONE',  ( -1.000000000000000000, -0.0000000000000000000, 0.0000000000000000000 ) ) ;
#970 = ORIENTED_EDGE ( 'NONE', *, *, #790, .T. ) ;
#971 = DIRECTION ( 'NONE',  ( 0.0000000000000000000, -1.807003620809174600E-016, 1.000000000000000000 ) ) ;
#972 = AXIS2_PLACEMENT_3D ( 'NONE', #948, #482, #559 ) ;
#973 = SURFACE_STYLE_USAGE ( .BOTH. , #429 ) ;
#974 = FACE_OUTER_BOUND ( 'NONE', #292, .T. ) ;
#975 = DIRECTION ( 'NONE',  ( 0.0000000000000000000, -1.807003620809174600E-016, 1.000000000000000000 ) ) ;
#976 = CARTESIAN_POINT ( 'NONE',  ( -0.3999999999999999700, -0.3000000000000000400, 8.501166134935075400E-017 ) ) ;
#977 = CIRCLE ( 'NONE', #176, 0.1499999999999999700 ) ;
#978 = EDGE_LOOP ( 'NONE', ( #841, #214 ) ) ;
#979 = ORIENTED_EDGE ( 'NONE', *, *, #138, .T. ) ;
#980 = PRODUCT_DEFINITION_CONTEXT ( 'detailed design', #271, 'design' ) ;
#981 = MANIFOLD_SOLID_BREP ( 'Sketch-Pattern1[14]', #130 ) ;
#982 = SPHERICAL_SURFACE ( 'NONE', #418, 0.1499999999999999900 ) ;
#983 = AXIS2_PLACEMENT_3D ( 'NONE', #449, #127, #500 ) ;
#984 = LINE ( 'NONE', #852, #513 ) ;
#985 = CARTESIAN_POINT ( 'NONE',  ( 0.6720000000000001500, 0.0000000000000000000, -1.127499999999999700 ) ) ;
#986 = FACE_OUTER_BOUND ( 'NONE', #16, .T. ) ;
#987 = CARTESIAN_POINT ( 'NONE',  ( -0.3999999999999999700, -0.1500000000000000500, 0.8000000000000000400 ) ) ;
#988 = ORIENTED_EDGE ( 'NONE', *, *, #947, .F. ) ;
#989 = ORIENTED_EDGE ( 'NONE', *, *, #534, .F. ) ;
#990 = SURFACE_STYLE_USAGE ( .BOTH. , #748 ) ;
#991 = EDGE_LOOP ( 'NONE', ( #116, #562 ) ) ;
#992 = ADVANCED_FACE ( 'NONE', ( #221 ), #580, .T. ) ;
#993 = CARTESIAN_POINT ( 'NONE',  ( -0.3999999999999999700, -0.3000000000000000400, 0.8000000000000000400 ) ) ;
#994 = STYLED_ITEM ( 'NONE', ( #451 ), #536 ) ;
#995 = CIRCLE ( 'NONE', #950, 0.1499999999999999700 ) ;
#996 = CARTESIAN_POINT ( 'NONE',  ( 5.421010862427522200E-017, -0.1500000000000000500, -0.3999999999999998600 ) ) ;
#997 = LINE ( 'NONE', #27, #273 ) ;
ENDSEC;
END-ISO-10303-21;
