ISO-10303-21;
HEADER;
FILE_DESCRIPTION(('STEP AP214'),'1');
FILE_NAME('WLCSP114_SOT2019_NXP','2026-03-06T09:58:00',(''),(''),'','','');
FILE_SCHEMA(('AUTOMOTIVE_DESIGN'));
ENDSEC;
DATA;
#1=SHAPE_DEFINITION_REPRESENTATION(#2,#3);
#2=PRODUCT_DEFINITION_SHAPE('',$,#4);
#3=SHAPE_REPRESENTATION('',(#188,#197,#206,#215,#224,#233,#242,#251,#260,#269,#278,#287,#296,#305,#314,#323,#332,#341,#350,#359,#368,#377,#386,#395,#404,#413,#422,#431,#440,#449,#458,#467,#476,#485,#494,#503,#512,#521,#530,#539,#548,#557,#566,#575,#584,#593,#602,#611,#620,#629,#638,#647,#656,#665,#674,#683,#692,#701,#710,#719,#728,#737,#746,#755,#764,#773,#782,#791,#800,#809,#818,#827,#836,#845,#854,#863,#872,#881,#890,#899,#908,#917,#926,#935,#944,#953,#962,#971,#980,#989,#998,#1007,#1016,#1025,#1034,#1043,#1052,#1061,#1070,#1079,#1088,#1097,#1106,#1115,#1124,#1133,#1142,#1151,#1160,#1169,#1178,#1187,#1196,#1205,#1215,#1271,#19),#11);
#4=PRODUCT_DEFINITION('design','example product_definition',#6,#5);
#5=PRODUCT_DEFINITION_CONTEXT('3D Mechanical Parts',#10,'design');
#6=PRODUCT_DEFINITION_FORMATION('1.0','first version',#8);
#7=APPLICATION_PROTOCOL_DEFINITION('international standard','automotive_design',2003,#10);
#8=PRODUCT('product','part','',(#9));
#9=PRODUCT_CONTEXT('3D Mechanical Parts',#10,'mechanical');
#10=APPLICATION_CONTEXT('Core Data for Automotive Mechanical Design Process');
#11=(GEOMETRIC_REPRESENTATION_CONTEXT(3) GLOBAL_UNCERTAINTY_ASSIGNED_CONTEXT((#12)) GLOBAL_UNIT_ASSIGNED_CONTEXT((#13,#14,#18)) REPRESENTATION_CONTEXT('ID1','3D'));
#12=UNCERTAINTY_MEASURE_WITH_UNIT(LENGTH_MEASURE(1.E-005),#13,'DISTANCE_ACCURACY_VALUE','Maximum model space distance between geometric entities at asserted connectivities');
#13=(LENGTH_UNIT() NAMED_UNIT(*) SI_UNIT(.MILLI.,.METRE.));
#14=(CONVERSION_BASED_UNIT('degree',#16) NAMED_UNIT(#15) PLANE_ANGLE_UNIT());
#15=DIMENSIONAL_EXPONENTS(0.,0.,0.,0.,0.,0.,0.);
#16=MEASURE_WITH_UNIT(PLANE_ANGLE_MEASURE(0.01745329252),#17);
#17=(NAMED_UNIT(*) PLANE_ANGLE_UNIT() SI_UNIT($,.RADIAN.));
#18=(NAMED_UNIT(*) SI_UNIT($,.STERADIAN.) SOLID_ANGLE_UNIT());
#19=AXIS2_PLACEMENT_3D('',#20,#21,#22);
#20=CARTESIAN_POINT('',(0.0,0.0,0.0));
#21=DIRECTION('',(0.0,0.0,1.0));
#22=DIRECTION('',(1.0,0.0,0.0));
#25=MECHANICAL_DESIGN_GEOMETRIC_PRESENTATION_REPRESENTATION($,(#190,#199,#208,#217,#226,#235,#244,#253,#262,#271,#280,#289,#298,#307,#316,#325,#334,#343,#352,#361,#370,#379,#388,#397,#406,#415,#424,#433,#442,#451,#460,#469,#478,#487,#496,#505,#514,#523,#532,#541,#550,#559,#568,#577,#586,#595,#604,#613,#622,#631,#640,#649,#658,#667,#676,#685,#694,#703,#712,#721,#730,#739,#748,#757,#766,#775,#784,#793,#802,#811,#820,#829,#838,#847,#856,#865,#874,#883,#892,#901,#910,#919,#928,#937,#946,#955,#964,#973,#982,#991,#1000,#1009,#1018,#1027,#1036,#1045,#1054,#1063,#1072,#1081,#1090,#1099,#1108,#1117,#1126,#1135,#1144,#1153,#1162,#1171,#1180,#1189,#1198,#1207,#1267,#1268,#1269,#1273,#1322,#1371,#1420,#1469,#1518),#11);
#26=PRODUCT_CATEGORY_RELATIONSHIP('','',#27,#28);
#27=PRODUCT_CATEGORY('part','');
#28=PRODUCT_RELATED_PRODUCT_CATEGORY('','',(#8));
#34=PRESENTATION_STYLE_ASSIGNMENT((#35,#40));
#35=SURFACE_STYLE_USAGE(.BOTH.,#36);
#36=SURFACE_SIDE_STYLE('',(#37));
#37=SURFACE_STYLE_FILL_AREA(#38);
#38=FILL_AREA_STYLE('',(#39));
#39=FILL_AREA_STYLE_COLOUR('',#41);
#40=CURVE_STYLE('',#42,POSITIVE_LENGTH_MEASURE(0.1),#41);
#41=COLOUR_RGB('Aluminum',0.725,0.725,0.725);
#42=DRAUGHTING_PRE_DEFINED_CURVE_FONT('continuous');
#43=PRESENTATION_STYLE_ASSIGNMENT((#44,#49));
#44=SURFACE_STYLE_USAGE(.BOTH.,#45);
#45=SURFACE_SIDE_STYLE('',(#46));
#46=SURFACE_STYLE_FILL_AREA(#47);
#47=FILL_AREA_STYLE('',(#48));
#48=FILL_AREA_STYLE_COLOUR('',#50);
#49=CURVE_STYLE('',#51,POSITIVE_LENGTH_MEASURE(0.1),#50);
#50=COLOUR_RGB('Black',0.196,0.196,0.196);
#51=DRAUGHTING_PRE_DEFINED_CURVE_FONT('continuous');
#52=PRESENTATION_STYLE_ASSIGNMENT((#53,#58));
#53=SURFACE_STYLE_USAGE(.BOTH.,#54);
#54=SURFACE_SIDE_STYLE('',(#55));
#55=SURFACE_STYLE_FILL_AREA(#56);
#56=FILL_AREA_STYLE('',(#57));
#57=FILL_AREA_STYLE_COLOUR('',#59);
#58=CURVE_STYLE('',#60,POSITIVE_LENGTH_MEASURE(0.1),#59);
#59=COLOUR_RGB('Pin1',0.588,0.588,0.588);
#60=DRAUGHTING_PRE_DEFINED_CURVE_FONT('continuous');
#61=PRESENTATION_STYLE_ASSIGNMENT((#62,#67));
#62=SURFACE_STYLE_USAGE(.BOTH.,#63);
#63=SURFACE_SIDE_STYLE('',(#64));
#64=SURFACE_STYLE_FILL_AREA(#65);
#65=FILL_AREA_STYLE('',(#66));
#66=FILL_AREA_STYLE_COLOUR('',#68);
#67=CURVE_STYLE('',#69,POSITIVE_LENGTH_MEASURE(0.1),#68);
#68=COLOUR_RGB('HeatTab',0.588,0.588,0.588);
#69=DRAUGHTING_PRE_DEFINED_CURVE_FONT('continuous');
#70=PRESENTATION_STYLE_ASSIGNMENT((#71,#76));
#71=SURFACE_STYLE_USAGE(.BOTH.,#72);
#72=SURFACE_SIDE_STYLE('',(#73));
#73=SURFACE_STYLE_FILL_AREA(#74);
#74=FILL_AREA_STYLE('',(#75));
#75=FILL_AREA_STYLE_COLOUR('',#77);
#76=CURVE_STYLE('',#78,POSITIVE_LENGTH_MEASURE(0.1),#77);
#77=COLOUR_RGB('Gold',0.843,0.686,0.0);
#78=DRAUGHTING_PRE_DEFINED_CURVE_FONT('continuous');
#79=PRESENTATION_STYLE_ASSIGNMENT((#80,#85));
#80=SURFACE_STYLE_USAGE(.BOTH.,#81);
#81=SURFACE_SIDE_STYLE('',(#82));
#82=SURFACE_STYLE_FILL_AREA(#83);
#83=FILL_AREA_STYLE('',(#84));
#84=FILL_AREA_STYLE_COLOUR('',#86);
#85=CURVE_STYLE('',#87,POSITIVE_LENGTH_MEASURE(0.1),#86);
#86=COLOUR_RGB('Brown',0.459,0.345,0.176);
#87=DRAUGHTING_PRE_DEFINED_CURVE_FONT('continuous');
#88=PRESENTATION_STYLE_ASSIGNMENT((#89,#94));
#89=SURFACE_STYLE_USAGE(.BOTH.,#90);
#90=SURFACE_SIDE_STYLE('',(#91));
#91=SURFACE_STYLE_FILL_AREA(#92);
#92=FILL_AREA_STYLE('',(#93));
#93=FILL_AREA_STYLE_COLOUR('',#95);
#94=CURVE_STYLE('',#96,POSITIVE_LENGTH_MEASURE(0.1),#95);
#95=COLOUR_RGB('Tan',0.784,0.686,0.51);
#96=DRAUGHTING_PRE_DEFINED_CURVE_FONT('continuous');
#97=PRESENTATION_STYLE_ASSIGNMENT((#98,#103));
#98=SURFACE_STYLE_USAGE(.BOTH.,#99);
#99=SURFACE_SIDE_STYLE('',(#100));
#100=SURFACE_STYLE_FILL_AREA(#101);
#101=FILL_AREA_STYLE('',(#102));
#102=FILL_AREA_STYLE_COLOUR('',#104);
#103=CURVE_STYLE('',#105,POSITIVE_LENGTH_MEASURE(0.1),#104);
#104=COLOUR_RGB('Gray',0.431,0.431,0.431);
#105=DRAUGHTING_PRE_DEFINED_CURVE_FONT('continuous');
#106=PRESENTATION_STYLE_ASSIGNMENT((#107,#112));
#107=SURFACE_STYLE_USAGE(.BOTH.,#108);
#108=SURFACE_SIDE_STYLE('',(#109));
#109=SURFACE_STYLE_FILL_AREA(#110);
#110=FILL_AREA_STYLE('',(#111));
#111=FILL_AREA_STYLE_COLOUR('',#113);
#112=CURVE_STYLE('',#114,POSITIVE_LENGTH_MEASURE(0.1),#113);
#113=COLOUR_RGB('Red',0.6,0.0,0.0);
#114=DRAUGHTING_PRE_DEFINED_CURVE_FONT('continuous');
#115=PRESENTATION_STYLE_ASSIGNMENT((#116,#121));
#116=SURFACE_STYLE_USAGE(.BOTH.,#117);
#117=SURFACE_SIDE_STYLE('',(#118));
#118=SURFACE_STYLE_FILL_AREA(#119);
#119=FILL_AREA_STYLE('',(#120));
#120=FILL_AREA_STYLE_COLOUR('',#122);
#121=CURVE_STYLE('',#123,POSITIVE_LENGTH_MEASURE(0.1),#122);
#122=COLOUR_RGB('Blue',0.157,0.157,0.588);
#123=DRAUGHTING_PRE_DEFINED_CURVE_FONT('continuous');
#124=PRESENTATION_STYLE_ASSIGNMENT((#125,#130));
#125=SURFACE_STYLE_USAGE(.BOTH.,#126);
#126=SURFACE_SIDE_STYLE('',(#127));
#127=SURFACE_STYLE_FILL_AREA(#128);
#128=FILL_AREA_STYLE('',(#129));
#129=FILL_AREA_STYLE_COLOUR('',#131);
#130=CURVE_STYLE('',#132,POSITIVE_LENGTH_MEASURE(0.1),#131);
#131=COLOUR_RGB('Maroon',0.294,0.0,0.0);
#132=DRAUGHTING_PRE_DEFINED_CURVE_FONT('continuous');
#133=PRESENTATION_STYLE_ASSIGNMENT((#134,#139));
#134=SURFACE_STYLE_USAGE(.BOTH.,#135);
#135=SURFACE_SIDE_STYLE('',(#136));
#136=SURFACE_STYLE_FILL_AREA(#137);
#137=FILL_AREA_STYLE('',(#138));
#138=FILL_AREA_STYLE_COLOUR('',#140);
#139=CURVE_STYLE('',#141,POSITIVE_LENGTH_MEASURE(0.1),#140);
#140=COLOUR_RGB('Green',0.0,0.294,0.0);
#141=DRAUGHTING_PRE_DEFINED_CURVE_FONT('continuous');
#142=PRESENTATION_STYLE_ASSIGNMENT((#143,#148));
#143=SURFACE_STYLE_USAGE(.BOTH.,#144);
#144=SURFACE_SIDE_STYLE('',(#145));
#145=SURFACE_STYLE_FILL_AREA(#146);
#146=FILL_AREA_STYLE('',(#147));
#147=FILL_AREA_STYLE_COLOUR('',#149);
#148=CURVE_STYLE('',#150,POSITIVE_LENGTH_MEASURE(0.1),#149);
#149=COLOUR_RGB('Pin1Wrap',0.98,0.706,0.176);
#150=DRAUGHTING_PRE_DEFINED_CURVE_FONT('continuous');
#151=PRESENTATION_STYLE_ASSIGNMENT((#152,#157));
#152=SURFACE_STYLE_USAGE(.BOTH.,#153);
#153=SURFACE_SIDE_STYLE('',(#154));
#154=SURFACE_STYLE_FILL_AREA(#155);
#155=FILL_AREA_STYLE('',(#156));
#156=FILL_AREA_STYLE_COLOUR('',#158);
#157=CURVE_STYLE('',#159,POSITIVE_LENGTH_MEASURE(0.1),#158);
#158=COLOUR_RGB('Pin1Rad',0.588,0.588,0.588);
#159=DRAUGHTING_PRE_DEFINED_CURVE_FONT('continuous');
#160=PRESENTATION_STYLE_ASSIGNMENT((#161,#166));
#161=SURFACE_STYLE_USAGE(.BOTH.,#162);
#162=SURFACE_SIDE_STYLE('',(#163));
#163=SURFACE_STYLE_FILL_AREA(#164);
#164=FILL_AREA_STYLE('',(#165));
#165=FILL_AREA_STYLE_COLOUR('',#167);
#166=CURVE_STYLE('',#168,POSITIVE_LENGTH_MEASURE(0.1),#167);
#167=COLOUR_RGB('Pin1Axial',0.98,0.706,0.176);
#168=DRAUGHTING_PRE_DEFINED_CURVE_FONT('continuous');
#169=PRESENTATION_STYLE_ASSIGNMENT((#170,#175));
#170=SURFACE_STYLE_USAGE(.BOTH.,#171);
#171=SURFACE_SIDE_STYLE('',(#172));
#172=SURFACE_STYLE_FILL_AREA(#173);
#173=FILL_AREA_STYLE('',(#174));
#174=FILL_AREA_STYLE_COLOUR('',#176);
#175=CURVE_STYLE('',#177,POSITIVE_LENGTH_MEASURE(0.1),#176);
#176=COLOUR_RGB('Pin1Tant',0.459,0.345,0.176);
#177=DRAUGHTING_PRE_DEFINED_CURVE_FONT('continuous');
#178=PRESENTATION_STYLE_ASSIGNMENT((#179,#184));
#179=SURFACE_STYLE_USAGE(.BOTH.,#180);
#180=SURFACE_SIDE_STYLE('',(#181));
#181=SURFACE_STYLE_FILL_AREA(#182);
#182=FILL_AREA_STYLE('',(#183));
#183=FILL_AREA_STYLE_COLOUR('',#185);
#184=CURVE_STYLE('',#186,POSITIVE_LENGTH_MEASURE(0.1),#185);
#185=COLOUR_RGB('Shroud',0.235,0.235,0.235);
#186=DRAUGHTING_PRE_DEFINED_CURVE_FONT('continuous');
#188=MANIFOLD_SOLID_BREP($,#189);
#189=CLOSED_SHELL('',(#191));
#190=STYLED_ITEM('color',(#34),#191);
#191=ADVANCED_FACE('',(),#192,.T.);
#192=SPHERICAL_SURFACE('',#193,0.127);
#193=AXIS2_PLACEMENT_3D('',#194,#195,#196);
#194=CARTESIAN_POINT('',(-1.75,1.75,0.127));
#195=DIRECTION('',(0.,0.,-1.));
#196=DIRECTION('',(-1.,0.,0.));
#197=MANIFOLD_SOLID_BREP($,#198);
#198=CLOSED_SHELL('',(#200));
#199=STYLED_ITEM('color',(#34),#200);
#200=ADVANCED_FACE('',(),#201,.T.);
#201=SPHERICAL_SURFACE('',#202,0.127);
#202=AXIS2_PLACEMENT_3D('',#203,#204,#205);
#203=CARTESIAN_POINT('',(-1.4,1.75,0.127));
#204=DIRECTION('',(0.,0.,-1.));
#205=DIRECTION('',(-1.,0.,0.));
#206=MANIFOLD_SOLID_BREP($,#207);
#207=CLOSED_SHELL('',(#209));
#208=STYLED_ITEM('color',(#34),#209);
#209=ADVANCED_FACE('',(),#210,.T.);
#210=SPHERICAL_SURFACE('',#211,0.127);
#211=AXIS2_PLACEMENT_3D('',#212,#213,#214);
#212=CARTESIAN_POINT('',(-1.05,1.75,0.127));
#213=DIRECTION('',(0.,0.,-1.));
#214=DIRECTION('',(-1.,0.,0.));
#215=MANIFOLD_SOLID_BREP($,#216);
#216=CLOSED_SHELL('',(#218));
#217=STYLED_ITEM('color',(#34),#218);
#218=ADVANCED_FACE('',(),#219,.T.);
#219=SPHERICAL_SURFACE('',#220,0.127);
#220=AXIS2_PLACEMENT_3D('',#221,#222,#223);
#221=CARTESIAN_POINT('',(-0.35,1.75,0.127));
#222=DIRECTION('',(0.,0.,-1.));
#223=DIRECTION('',(-1.,0.,0.));
#224=MANIFOLD_SOLID_BREP($,#225);
#225=CLOSED_SHELL('',(#227));
#226=STYLED_ITEM('color',(#34),#227);
#227=ADVANCED_FACE('',(),#228,.T.);
#228=SPHERICAL_SURFACE('',#229,0.127);
#229=AXIS2_PLACEMENT_3D('',#230,#231,#232);
#230=CARTESIAN_POINT('',(0.0,1.75,0.127));
#231=DIRECTION('',(0.,0.,-1.));
#232=DIRECTION('',(-1.,0.,0.));
#233=MANIFOLD_SOLID_BREP($,#234);
#234=CLOSED_SHELL('',(#236));
#235=STYLED_ITEM('color',(#34),#236);
#236=ADVANCED_FACE('',(),#237,.T.);
#237=SPHERICAL_SURFACE('',#238,0.127);
#238=AXIS2_PLACEMENT_3D('',#239,#240,#241);
#239=CARTESIAN_POINT('',(0.35,1.75,0.127));
#240=DIRECTION('',(0.,0.,-1.));
#241=DIRECTION('',(-1.,0.,0.));
#242=MANIFOLD_SOLID_BREP($,#243);
#243=CLOSED_SHELL('',(#245));
#244=STYLED_ITEM('color',(#34),#245);
#245=ADVANCED_FACE('',(),#246,.T.);
#246=SPHERICAL_SURFACE('',#247,0.127);
#247=AXIS2_PLACEMENT_3D('',#248,#249,#250);
#248=CARTESIAN_POINT('',(0.7,1.75,0.127));
#249=DIRECTION('',(0.,0.,-1.));
#250=DIRECTION('',(-1.,0.,0.));
#251=MANIFOLD_SOLID_BREP($,#252);
#252=CLOSED_SHELL('',(#254));
#253=STYLED_ITEM('color',(#34),#254);
#254=ADVANCED_FACE('',(),#255,.T.);
#255=SPHERICAL_SURFACE('',#256,0.127);
#256=AXIS2_PLACEMENT_3D('',#257,#258,#259);
#257=CARTESIAN_POINT('',(1.05,1.75,0.127));
#258=DIRECTION('',(0.,0.,-1.));
#259=DIRECTION('',(-1.,0.,0.));
#260=MANIFOLD_SOLID_BREP($,#261);
#261=CLOSED_SHELL('',(#263));
#262=STYLED_ITEM('color',(#34),#263);
#263=ADVANCED_FACE('',(),#264,.T.);
#264=SPHERICAL_SURFACE('',#265,0.127);
#265=AXIS2_PLACEMENT_3D('',#266,#267,#268);
#266=CARTESIAN_POINT('',(1.4,1.75,0.127));
#267=DIRECTION('',(0.,0.,-1.));
#268=DIRECTION('',(-1.,0.,0.));
#269=MANIFOLD_SOLID_BREP($,#270);
#270=CLOSED_SHELL('',(#272));
#271=STYLED_ITEM('color',(#34),#272);
#272=ADVANCED_FACE('',(),#273,.T.);
#273=SPHERICAL_SURFACE('',#274,0.127);
#274=AXIS2_PLACEMENT_3D('',#275,#276,#277);
#275=CARTESIAN_POINT('',(1.75,1.75,0.127));
#276=DIRECTION('',(0.,0.,-1.));
#277=DIRECTION('',(-1.,0.,0.));
#278=MANIFOLD_SOLID_BREP($,#279);
#279=CLOSED_SHELL('',(#281));
#280=STYLED_ITEM('color',(#34),#281);
#281=ADVANCED_FACE('',(),#282,.T.);
#282=SPHERICAL_SURFACE('',#283,0.127);
#283=AXIS2_PLACEMENT_3D('',#284,#285,#286);
#284=CARTESIAN_POINT('',(-1.75,1.4,0.127));
#285=DIRECTION('',(0.,0.,-1.));
#286=DIRECTION('',(-1.,0.,0.));
#287=MANIFOLD_SOLID_BREP($,#288);
#288=CLOSED_SHELL('',(#290));
#289=STYLED_ITEM('color',(#34),#290);
#290=ADVANCED_FACE('',(),#291,.T.);
#291=SPHERICAL_SURFACE('',#292,0.127);
#292=AXIS2_PLACEMENT_3D('',#293,#294,#295);
#293=CARTESIAN_POINT('',(-1.4,1.4,0.127));
#294=DIRECTION('',(0.,0.,-1.));
#295=DIRECTION('',(-1.,0.,0.));
#296=MANIFOLD_SOLID_BREP($,#297);
#297=CLOSED_SHELL('',(#299));
#298=STYLED_ITEM('color',(#34),#299);
#299=ADVANCED_FACE('',(),#300,.T.);
#300=SPHERICAL_SURFACE('',#301,0.127);
#301=AXIS2_PLACEMENT_3D('',#302,#303,#304);
#302=CARTESIAN_POINT('',(-1.05,1.4,0.127));
#303=DIRECTION('',(0.,0.,-1.));
#304=DIRECTION('',(-1.,0.,0.));
#305=MANIFOLD_SOLID_BREP($,#306);
#306=CLOSED_SHELL('',(#308));
#307=STYLED_ITEM('color',(#34),#308);
#308=ADVANCED_FACE('',(),#309,.T.);
#309=SPHERICAL_SURFACE('',#310,0.127);
#310=AXIS2_PLACEMENT_3D('',#311,#312,#313);
#311=CARTESIAN_POINT('',(-0.7,1.4,0.127));
#312=DIRECTION('',(0.,0.,-1.));
#313=DIRECTION('',(-1.,0.,0.));
#314=MANIFOLD_SOLID_BREP($,#315);
#315=CLOSED_SHELL('',(#317));
#316=STYLED_ITEM('color',(#34),#317);
#317=ADVANCED_FACE('',(),#318,.T.);
#318=SPHERICAL_SURFACE('',#319,0.127);
#319=AXIS2_PLACEMENT_3D('',#320,#321,#322);
#320=CARTESIAN_POINT('',(-0.35,1.4,0.127));
#321=DIRECTION('',(0.,0.,-1.));
#322=DIRECTION('',(-1.,0.,0.));
#323=MANIFOLD_SOLID_BREP($,#324);
#324=CLOSED_SHELL('',(#326));
#325=STYLED_ITEM('color',(#34),#326);
#326=ADVANCED_FACE('',(),#327,.T.);
#327=SPHERICAL_SURFACE('',#328,0.127);
#328=AXIS2_PLACEMENT_3D('',#329,#330,#331);
#329=CARTESIAN_POINT('',(0.0,1.4,0.127));
#330=DIRECTION('',(0.,0.,-1.));
#331=DIRECTION('',(-1.,0.,0.));
#332=MANIFOLD_SOLID_BREP($,#333);
#333=CLOSED_SHELL('',(#335));
#334=STYLED_ITEM('color',(#34),#335);
#335=ADVANCED_FACE('',(),#336,.T.);
#336=SPHERICAL_SURFACE('',#337,0.127);
#337=AXIS2_PLACEMENT_3D('',#338,#339,#340);
#338=CARTESIAN_POINT('',(0.35,1.4,0.127));
#339=DIRECTION('',(0.,0.,-1.));
#340=DIRECTION('',(-1.,0.,0.));
#341=MANIFOLD_SOLID_BREP($,#342);
#342=CLOSED_SHELL('',(#344));
#343=STYLED_ITEM('color',(#34),#344);
#344=ADVANCED_FACE('',(),#345,.T.);
#345=SPHERICAL_SURFACE('',#346,0.127);
#346=AXIS2_PLACEMENT_3D('',#347,#348,#349);
#347=CARTESIAN_POINT('',(0.7,1.4,0.127));
#348=DIRECTION('',(0.,0.,-1.));
#349=DIRECTION('',(-1.,0.,0.));
#350=MANIFOLD_SOLID_BREP($,#351);
#351=CLOSED_SHELL('',(#353));
#352=STYLED_ITEM('color',(#34),#353);
#353=ADVANCED_FACE('',(),#354,.T.);
#354=SPHERICAL_SURFACE('',#355,0.127);
#355=AXIS2_PLACEMENT_3D('',#356,#357,#358);
#356=CARTESIAN_POINT('',(1.05,1.4,0.127));
#357=DIRECTION('',(0.,0.,-1.));
#358=DIRECTION('',(-1.,0.,0.));
#359=MANIFOLD_SOLID_BREP($,#360);
#360=CLOSED_SHELL('',(#362));
#361=STYLED_ITEM('color',(#34),#362);
#362=ADVANCED_FACE('',(),#363,.T.);
#363=SPHERICAL_SURFACE('',#364,0.127);
#364=AXIS2_PLACEMENT_3D('',#365,#366,#367);
#365=CARTESIAN_POINT('',(1.4,1.4,0.127));
#366=DIRECTION('',(0.,0.,-1.));
#367=DIRECTION('',(-1.,0.,0.));
#368=MANIFOLD_SOLID_BREP($,#369);
#369=CLOSED_SHELL('',(#371));
#370=STYLED_ITEM('color',(#34),#371);
#371=ADVANCED_FACE('',(),#372,.T.);
#372=SPHERICAL_SURFACE('',#373,0.127);
#373=AXIS2_PLACEMENT_3D('',#374,#375,#376);
#374=CARTESIAN_POINT('',(-1.75,1.05,0.127));
#375=DIRECTION('',(0.,0.,-1.));
#376=DIRECTION('',(-1.,0.,0.));
#377=MANIFOLD_SOLID_BREP($,#378);
#378=CLOSED_SHELL('',(#380));
#379=STYLED_ITEM('color',(#34),#380);
#380=ADVANCED_FACE('',(),#381,.T.);
#381=SPHERICAL_SURFACE('',#382,0.127);
#382=AXIS2_PLACEMENT_3D('',#383,#384,#385);
#383=CARTESIAN_POINT('',(-1.4,1.05,0.127));
#384=DIRECTION('',(0.,0.,-1.));
#385=DIRECTION('',(-1.,0.,0.));
#386=MANIFOLD_SOLID_BREP($,#387);
#387=CLOSED_SHELL('',(#389));
#388=STYLED_ITEM('color',(#34),#389);
#389=ADVANCED_FACE('',(),#390,.T.);
#390=SPHERICAL_SURFACE('',#391,0.127);
#391=AXIS2_PLACEMENT_3D('',#392,#393,#394);
#392=CARTESIAN_POINT('',(-1.05,1.05,0.127));
#393=DIRECTION('',(0.,0.,-1.));
#394=DIRECTION('',(-1.,0.,0.));
#395=MANIFOLD_SOLID_BREP($,#396);
#396=CLOSED_SHELL('',(#398));
#397=STYLED_ITEM('color',(#34),#398);
#398=ADVANCED_FACE('',(),#399,.T.);
#399=SPHERICAL_SURFACE('',#400,0.127);
#400=AXIS2_PLACEMENT_3D('',#401,#402,#403);
#401=CARTESIAN_POINT('',(-0.7,1.05,0.127));
#402=DIRECTION('',(0.,0.,-1.));
#403=DIRECTION('',(-1.,0.,0.));
#404=MANIFOLD_SOLID_BREP($,#405);
#405=CLOSED_SHELL('',(#407));
#406=STYLED_ITEM('color',(#34),#407);
#407=ADVANCED_FACE('',(),#408,.T.);
#408=SPHERICAL_SURFACE('',#409,0.127);
#409=AXIS2_PLACEMENT_3D('',#410,#411,#412);
#410=CARTESIAN_POINT('',(-0.35,1.05,0.127));
#411=DIRECTION('',(0.,0.,-1.));
#412=DIRECTION('',(-1.,0.,0.));
#413=MANIFOLD_SOLID_BREP($,#414);
#414=CLOSED_SHELL('',(#416));
#415=STYLED_ITEM('color',(#34),#416);
#416=ADVANCED_FACE('',(),#417,.T.);
#417=SPHERICAL_SURFACE('',#418,0.127);
#418=AXIS2_PLACEMENT_3D('',#419,#420,#421);
#419=CARTESIAN_POINT('',(0.0,1.05,0.127));
#420=DIRECTION('',(0.,0.,-1.));
#421=DIRECTION('',(-1.,0.,0.));
#422=MANIFOLD_SOLID_BREP($,#423);
#423=CLOSED_SHELL('',(#425));
#424=STYLED_ITEM('color',(#34),#425);
#425=ADVANCED_FACE('',(),#426,.T.);
#426=SPHERICAL_SURFACE('',#427,0.127);
#427=AXIS2_PLACEMENT_3D('',#428,#429,#430);
#428=CARTESIAN_POINT('',(0.35,1.05,0.127));
#429=DIRECTION('',(0.,0.,-1.));
#430=DIRECTION('',(-1.,0.,0.));
#431=MANIFOLD_SOLID_BREP($,#432);
#432=CLOSED_SHELL('',(#434));
#433=STYLED_ITEM('color',(#34),#434);
#434=ADVANCED_FACE('',(),#435,.T.);
#435=SPHERICAL_SURFACE('',#436,0.127);
#436=AXIS2_PLACEMENT_3D('',#437,#438,#439);
#437=CARTESIAN_POINT('',(0.7,1.05,0.127));
#438=DIRECTION('',(0.,0.,-1.));
#439=DIRECTION('',(-1.,0.,0.));
#440=MANIFOLD_SOLID_BREP($,#441);
#441=CLOSED_SHELL('',(#443));
#442=STYLED_ITEM('color',(#34),#443);
#443=ADVANCED_FACE('',(),#444,.T.);
#444=SPHERICAL_SURFACE('',#445,0.127);
#445=AXIS2_PLACEMENT_3D('',#446,#447,#448);
#446=CARTESIAN_POINT('',(1.05,1.05,0.127));
#447=DIRECTION('',(0.,0.,-1.));
#448=DIRECTION('',(-1.,0.,0.));
#449=MANIFOLD_SOLID_BREP($,#450);
#450=CLOSED_SHELL('',(#452));
#451=STYLED_ITEM('color',(#34),#452);
#452=ADVANCED_FACE('',(),#453,.T.);
#453=SPHERICAL_SURFACE('',#454,0.127);
#454=AXIS2_PLACEMENT_3D('',#455,#456,#457);
#455=CARTESIAN_POINT('',(1.4,1.05,0.127));
#456=DIRECTION('',(0.,0.,-1.));
#457=DIRECTION('',(-1.,0.,0.));
#458=MANIFOLD_SOLID_BREP($,#459);
#459=CLOSED_SHELL('',(#461));
#460=STYLED_ITEM('color',(#34),#461);
#461=ADVANCED_FACE('',(),#462,.T.);
#462=SPHERICAL_SURFACE('',#463,0.127);
#463=AXIS2_PLACEMENT_3D('',#464,#465,#466);
#464=CARTESIAN_POINT('',(1.75,1.05,0.127));
#465=DIRECTION('',(0.,0.,-1.));
#466=DIRECTION('',(-1.,0.,0.));
#467=MANIFOLD_SOLID_BREP($,#468);
#468=CLOSED_SHELL('',(#470));
#469=STYLED_ITEM('color',(#34),#470);
#470=ADVANCED_FACE('',(),#471,.T.);
#471=SPHERICAL_SURFACE('',#472,0.127);
#472=AXIS2_PLACEMENT_3D('',#473,#474,#475);
#473=CARTESIAN_POINT('',(-1.4,0.7,0.127));
#474=DIRECTION('',(0.,0.,-1.));
#475=DIRECTION('',(-1.,0.,0.));
#476=MANIFOLD_SOLID_BREP($,#477);
#477=CLOSED_SHELL('',(#479));
#478=STYLED_ITEM('color',(#34),#479);
#479=ADVANCED_FACE('',(),#480,.T.);
#480=SPHERICAL_SURFACE('',#481,0.127);
#481=AXIS2_PLACEMENT_3D('',#482,#483,#484);
#482=CARTESIAN_POINT('',(-1.05,0.7,0.127));
#483=DIRECTION('',(0.,0.,-1.));
#484=DIRECTION('',(-1.,0.,0.));
#485=MANIFOLD_SOLID_BREP($,#486);
#486=CLOSED_SHELL('',(#488));
#487=STYLED_ITEM('color',(#34),#488);
#488=ADVANCED_FACE('',(),#489,.T.);
#489=SPHERICAL_SURFACE('',#490,0.127);
#490=AXIS2_PLACEMENT_3D('',#491,#492,#493);
#491=CARTESIAN_POINT('',(-0.7,0.7,0.127));
#492=DIRECTION('',(0.,0.,-1.));
#493=DIRECTION('',(-1.,0.,0.));
#494=MANIFOLD_SOLID_BREP($,#495);
#495=CLOSED_SHELL('',(#497));
#496=STYLED_ITEM('color',(#34),#497);
#497=ADVANCED_FACE('',(),#498,.T.);
#498=SPHERICAL_SURFACE('',#499,0.127);
#499=AXIS2_PLACEMENT_3D('',#500,#501,#502);
#500=CARTESIAN_POINT('',(-0.35,0.7,0.127));
#501=DIRECTION('',(0.,0.,-1.));
#502=DIRECTION('',(-1.,0.,0.));
#503=MANIFOLD_SOLID_BREP($,#504);
#504=CLOSED_SHELL('',(#506));
#505=STYLED_ITEM('color',(#34),#506);
#506=ADVANCED_FACE('',(),#507,.T.);
#507=SPHERICAL_SURFACE('',#508,0.127);
#508=AXIS2_PLACEMENT_3D('',#509,#510,#511);
#509=CARTESIAN_POINT('',(0.0,0.7,0.127));
#510=DIRECTION('',(0.,0.,-1.));
#511=DIRECTION('',(-1.,0.,0.));
#512=MANIFOLD_SOLID_BREP($,#513);
#513=CLOSED_SHELL('',(#515));
#514=STYLED_ITEM('color',(#34),#515);
#515=ADVANCED_FACE('',(),#516,.T.);
#516=SPHERICAL_SURFACE('',#517,0.127);
#517=AXIS2_PLACEMENT_3D('',#518,#519,#520);
#518=CARTESIAN_POINT('',(0.35,0.7,0.127));
#519=DIRECTION('',(0.,0.,-1.));
#520=DIRECTION('',(-1.,0.,0.));
#521=MANIFOLD_SOLID_BREP($,#522);
#522=CLOSED_SHELL('',(#524));
#523=STYLED_ITEM('color',(#34),#524);
#524=ADVANCED_FACE('',(),#525,.T.);
#525=SPHERICAL_SURFACE('',#526,0.127);
#526=AXIS2_PLACEMENT_3D('',#527,#528,#529);
#527=CARTESIAN_POINT('',(0.7,0.7,0.127));
#528=DIRECTION('',(0.,0.,-1.));
#529=DIRECTION('',(-1.,0.,0.));
#530=MANIFOLD_SOLID_BREP($,#531);
#531=CLOSED_SHELL('',(#533));
#532=STYLED_ITEM('color',(#34),#533);
#533=ADVANCED_FACE('',(),#534,.T.);
#534=SPHERICAL_SURFACE('',#535,0.127);
#535=AXIS2_PLACEMENT_3D('',#536,#537,#538);
#536=CARTESIAN_POINT('',(1.05,0.7,0.127));
#537=DIRECTION('',(0.,0.,-1.));
#538=DIRECTION('',(-1.,0.,0.));
#539=MANIFOLD_SOLID_BREP($,#540);
#540=CLOSED_SHELL('',(#542));
#541=STYLED_ITEM('color',(#34),#542);
#542=ADVANCED_FACE('',(),#543,.T.);
#543=SPHERICAL_SURFACE('',#544,0.127);
#544=AXIS2_PLACEMENT_3D('',#545,#546,#547);
#545=CARTESIAN_POINT('',(1.4,0.7,0.127));
#546=DIRECTION('',(0.,0.,-1.));
#547=DIRECTION('',(-1.,0.,0.));
#548=MANIFOLD_SOLID_BREP($,#549);
#549=CLOSED_SHELL('',(#551));
#550=STYLED_ITEM('color',(#34),#551);
#551=ADVANCED_FACE('',(),#552,.T.);
#552=SPHERICAL_SURFACE('',#553,0.127);
#553=AXIS2_PLACEMENT_3D('',#554,#555,#556);
#554=CARTESIAN_POINT('',(-1.75,0.35,0.127));
#555=DIRECTION('',(0.,0.,-1.));
#556=DIRECTION('',(-1.,0.,0.));
#557=MANIFOLD_SOLID_BREP($,#558);
#558=CLOSED_SHELL('',(#560));
#559=STYLED_ITEM('color',(#34),#560);
#560=ADVANCED_FACE('',(),#561,.T.);
#561=SPHERICAL_SURFACE('',#562,0.127);
#562=AXIS2_PLACEMENT_3D('',#563,#564,#565);
#563=CARTESIAN_POINT('',(-1.4,0.35,0.127));
#564=DIRECTION('',(0.,0.,-1.));
#565=DIRECTION('',(-1.,0.,0.));
#566=MANIFOLD_SOLID_BREP($,#567);
#567=CLOSED_SHELL('',(#569));
#568=STYLED_ITEM('color',(#34),#569);
#569=ADVANCED_FACE('',(),#570,.T.);
#570=SPHERICAL_SURFACE('',#571,0.127);
#571=AXIS2_PLACEMENT_3D('',#572,#573,#574);
#572=CARTESIAN_POINT('',(-1.05,0.35,0.127));
#573=DIRECTION('',(0.,0.,-1.));
#574=DIRECTION('',(-1.,0.,0.));
#575=MANIFOLD_SOLID_BREP($,#576);
#576=CLOSED_SHELL('',(#578));
#577=STYLED_ITEM('color',(#34),#578);
#578=ADVANCED_FACE('',(),#579,.T.);
#579=SPHERICAL_SURFACE('',#580,0.127);
#580=AXIS2_PLACEMENT_3D('',#581,#582,#583);
#581=CARTESIAN_POINT('',(-0.7,0.35,0.127));
#582=DIRECTION('',(0.,0.,-1.));
#583=DIRECTION('',(-1.,0.,0.));
#584=MANIFOLD_SOLID_BREP($,#585);
#585=CLOSED_SHELL('',(#587));
#586=STYLED_ITEM('color',(#34),#587);
#587=ADVANCED_FACE('',(),#588,.T.);
#588=SPHERICAL_SURFACE('',#589,0.127);
#589=AXIS2_PLACEMENT_3D('',#590,#591,#592);
#590=CARTESIAN_POINT('',(-0.35,0.35,0.127));
#591=DIRECTION('',(0.,0.,-1.));
#592=DIRECTION('',(-1.,0.,0.));
#593=MANIFOLD_SOLID_BREP($,#594);
#594=CLOSED_SHELL('',(#596));
#595=STYLED_ITEM('color',(#34),#596);
#596=ADVANCED_FACE('',(),#597,.T.);
#597=SPHERICAL_SURFACE('',#598,0.127);
#598=AXIS2_PLACEMENT_3D('',#599,#600,#601);
#599=CARTESIAN_POINT('',(0.0,0.35,0.127));
#600=DIRECTION('',(0.,0.,-1.));
#601=DIRECTION('',(-1.,0.,0.));
#602=MANIFOLD_SOLID_BREP($,#603);
#603=CLOSED_SHELL('',(#605));
#604=STYLED_ITEM('color',(#34),#605);
#605=ADVANCED_FACE('',(),#606,.T.);
#606=SPHERICAL_SURFACE('',#607,0.127);
#607=AXIS2_PLACEMENT_3D('',#608,#609,#610);
#608=CARTESIAN_POINT('',(0.35,0.35,0.127));
#609=DIRECTION('',(0.,0.,-1.));
#610=DIRECTION('',(-1.,0.,0.));
#611=MANIFOLD_SOLID_BREP($,#612);
#612=CLOSED_SHELL('',(#614));
#613=STYLED_ITEM('color',(#34),#614);
#614=ADVANCED_FACE('',(),#615,.T.);
#615=SPHERICAL_SURFACE('',#616,0.127);
#616=AXIS2_PLACEMENT_3D('',#617,#618,#619);
#617=CARTESIAN_POINT('',(0.7,0.35,0.127));
#618=DIRECTION('',(0.,0.,-1.));
#619=DIRECTION('',(-1.,0.,0.));
#620=MANIFOLD_SOLID_BREP($,#621);
#621=CLOSED_SHELL('',(#623));
#622=STYLED_ITEM('color',(#34),#623);
#623=ADVANCED_FACE('',(),#624,.T.);
#624=SPHERICAL_SURFACE('',#625,0.127);
#625=AXIS2_PLACEMENT_3D('',#626,#627,#628);
#626=CARTESIAN_POINT('',(1.05,0.35,0.127));
#627=DIRECTION('',(0.,0.,-1.));
#628=DIRECTION('',(-1.,0.,0.));
#629=MANIFOLD_SOLID_BREP($,#630);
#630=CLOSED_SHELL('',(#632));
#631=STYLED_ITEM('color',(#34),#632);
#632=ADVANCED_FACE('',(),#633,.T.);
#633=SPHERICAL_SURFACE('',#634,0.127);
#634=AXIS2_PLACEMENT_3D('',#635,#636,#637);
#635=CARTESIAN_POINT('',(1.4,0.35,0.127));
#636=DIRECTION('',(0.,0.,-1.));
#637=DIRECTION('',(-1.,0.,0.));
#638=MANIFOLD_SOLID_BREP($,#639);
#639=CLOSED_SHELL('',(#641));
#640=STYLED_ITEM('color',(#34),#641);
#641=ADVANCED_FACE('',(),#642,.T.);
#642=SPHERICAL_SURFACE('',#643,0.127);
#643=AXIS2_PLACEMENT_3D('',#644,#645,#646);
#644=CARTESIAN_POINT('',(1.75,0.35,0.127));
#645=DIRECTION('',(0.,0.,-1.));
#646=DIRECTION('',(-1.,0.,0.));
#647=MANIFOLD_SOLID_BREP($,#648);
#648=CLOSED_SHELL('',(#650));
#649=STYLED_ITEM('color',(#34),#650);
#650=ADVANCED_FACE('',(),#651,.T.);
#651=SPHERICAL_SURFACE('',#652,0.127);
#652=AXIS2_PLACEMENT_3D('',#653,#654,#655);
#653=CARTESIAN_POINT('',(-1.75,0.0,0.127));
#654=DIRECTION('',(0.,0.,-1.));
#655=DIRECTION('',(-1.,0.,0.));
#656=MANIFOLD_SOLID_BREP($,#657);
#657=CLOSED_SHELL('',(#659));
#658=STYLED_ITEM('color',(#34),#659);
#659=ADVANCED_FACE('',(),#660,.T.);
#660=SPHERICAL_SURFACE('',#661,0.127);
#661=AXIS2_PLACEMENT_3D('',#662,#663,#664);
#662=CARTESIAN_POINT('',(-1.4,0.0,0.127));
#663=DIRECTION('',(0.,0.,-1.));
#664=DIRECTION('',(-1.,0.,0.));
#665=MANIFOLD_SOLID_BREP($,#666);
#666=CLOSED_SHELL('',(#668));
#667=STYLED_ITEM('color',(#34),#668);
#668=ADVANCED_FACE('',(),#669,.T.);
#669=SPHERICAL_SURFACE('',#670,0.127);
#670=AXIS2_PLACEMENT_3D('',#671,#672,#673);
#671=CARTESIAN_POINT('',(-1.05,0.0,0.127));
#672=DIRECTION('',(0.,0.,-1.));
#673=DIRECTION('',(-1.,0.,0.));
#674=MANIFOLD_SOLID_BREP($,#675);
#675=CLOSED_SHELL('',(#677));
#676=STYLED_ITEM('color',(#34),#677);
#677=ADVANCED_FACE('',(),#678,.T.);
#678=SPHERICAL_SURFACE('',#679,0.127);
#679=AXIS2_PLACEMENT_3D('',#680,#681,#682);
#680=CARTESIAN_POINT('',(-0.7,0.0,0.127));
#681=DIRECTION('',(0.,0.,-1.));
#682=DIRECTION('',(-1.,0.,0.));
#683=MANIFOLD_SOLID_BREP($,#684);
#684=CLOSED_SHELL('',(#686));
#685=STYLED_ITEM('color',(#34),#686);
#686=ADVANCED_FACE('',(),#687,.T.);
#687=SPHERICAL_SURFACE('',#688,0.127);
#688=AXIS2_PLACEMENT_3D('',#689,#690,#691);
#689=CARTESIAN_POINT('',(-0.35,0.0,0.127));
#690=DIRECTION('',(0.,0.,-1.));
#691=DIRECTION('',(-1.,0.,0.));
#692=MANIFOLD_SOLID_BREP($,#693);
#693=CLOSED_SHELL('',(#695));
#694=STYLED_ITEM('color',(#34),#695);
#695=ADVANCED_FACE('',(),#696,.T.);
#696=SPHERICAL_SURFACE('',#697,0.127);
#697=AXIS2_PLACEMENT_3D('',#698,#699,#700);
#698=CARTESIAN_POINT('',(0.0,0.0,0.127));
#699=DIRECTION('',(0.,0.,-1.));
#700=DIRECTION('',(-1.,0.,0.));
#701=MANIFOLD_SOLID_BREP($,#702);
#702=CLOSED_SHELL('',(#704));
#703=STYLED_ITEM('color',(#34),#704);
#704=ADVANCED_FACE('',(),#705,.T.);
#705=SPHERICAL_SURFACE('',#706,0.127);
#706=AXIS2_PLACEMENT_3D('',#707,#708,#709);
#707=CARTESIAN_POINT('',(0.35,0.0,0.127));
#708=DIRECTION('',(0.,0.,-1.));
#709=DIRECTION('',(-1.,0.,0.));
#710=MANIFOLD_SOLID_BREP($,#711);
#711=CLOSED_SHELL('',(#713));
#712=STYLED_ITEM('color',(#34),#713);
#713=ADVANCED_FACE('',(),#714,.T.);
#714=SPHERICAL_SURFACE('',#715,0.127);
#715=AXIS2_PLACEMENT_3D('',#716,#717,#718);
#716=CARTESIAN_POINT('',(0.7,0.0,0.127));
#717=DIRECTION('',(0.,0.,-1.));
#718=DIRECTION('',(-1.,0.,0.));
#719=MANIFOLD_SOLID_BREP($,#720);
#720=CLOSED_SHELL('',(#722));
#721=STYLED_ITEM('color',(#34),#722);
#722=ADVANCED_FACE('',(),#723,.T.);
#723=SPHERICAL_SURFACE('',#724,0.127);
#724=AXIS2_PLACEMENT_3D('',#725,#726,#727);
#725=CARTESIAN_POINT('',(1.05,0.0,0.127));
#726=DIRECTION('',(0.,0.,-1.));
#727=DIRECTION('',(-1.,0.,0.));
#728=MANIFOLD_SOLID_BREP($,#729);
#729=CLOSED_SHELL('',(#731));
#730=STYLED_ITEM('color',(#34),#731);
#731=ADVANCED_FACE('',(),#732,.T.);
#732=SPHERICAL_SURFACE('',#733,0.127);
#733=AXIS2_PLACEMENT_3D('',#734,#735,#736);
#734=CARTESIAN_POINT('',(1.4,0.0,0.127));
#735=DIRECTION('',(0.,0.,-1.));
#736=DIRECTION('',(-1.,0.,0.));
#737=MANIFOLD_SOLID_BREP($,#738);
#738=CLOSED_SHELL('',(#740));
#739=STYLED_ITEM('color',(#34),#740);
#740=ADVANCED_FACE('',(),#741,.T.);
#741=SPHERICAL_SURFACE('',#742,0.127);
#742=AXIS2_PLACEMENT_3D('',#743,#744,#745);
#743=CARTESIAN_POINT('',(1.75,0.0,0.127));
#744=DIRECTION('',(0.,0.,-1.));
#745=DIRECTION('',(-1.,0.,0.));
#746=MANIFOLD_SOLID_BREP($,#747);
#747=CLOSED_SHELL('',(#749));
#748=STYLED_ITEM('color',(#34),#749);
#749=ADVANCED_FACE('',(),#750,.T.);
#750=SPHERICAL_SURFACE('',#751,0.127);
#751=AXIS2_PLACEMENT_3D('',#752,#753,#754);
#752=CARTESIAN_POINT('',(-1.75,-0.35,0.127));
#753=DIRECTION('',(0.,0.,-1.));
#754=DIRECTION('',(-1.,0.,0.));
#755=MANIFOLD_SOLID_BREP($,#756);
#756=CLOSED_SHELL('',(#758));
#757=STYLED_ITEM('color',(#34),#758);
#758=ADVANCED_FACE('',(),#759,.T.);
#759=SPHERICAL_SURFACE('',#760,0.127);
#760=AXIS2_PLACEMENT_3D('',#761,#762,#763);
#761=CARTESIAN_POINT('',(-1.4,-0.35,0.127));
#762=DIRECTION('',(0.,0.,-1.));
#763=DIRECTION('',(-1.,0.,0.));
#764=MANIFOLD_SOLID_BREP($,#765);
#765=CLOSED_SHELL('',(#767));
#766=STYLED_ITEM('color',(#34),#767);
#767=ADVANCED_FACE('',(),#768,.T.);
#768=SPHERICAL_SURFACE('',#769,0.127);
#769=AXIS2_PLACEMENT_3D('',#770,#771,#772);
#770=CARTESIAN_POINT('',(-1.05,-0.35,0.127));
#771=DIRECTION('',(0.,0.,-1.));
#772=DIRECTION('',(-1.,0.,0.));
#773=MANIFOLD_SOLID_BREP($,#774);
#774=CLOSED_SHELL('',(#776));
#775=STYLED_ITEM('color',(#34),#776);
#776=ADVANCED_FACE('',(),#777,.T.);
#777=SPHERICAL_SURFACE('',#778,0.127);
#778=AXIS2_PLACEMENT_3D('',#779,#780,#781);
#779=CARTESIAN_POINT('',(-0.7,-0.35,0.127));
#780=DIRECTION('',(0.,0.,-1.));
#781=DIRECTION('',(-1.,0.,0.));
#782=MANIFOLD_SOLID_BREP($,#783);
#783=CLOSED_SHELL('',(#785));
#784=STYLED_ITEM('color',(#34),#785);
#785=ADVANCED_FACE('',(),#786,.T.);
#786=SPHERICAL_SURFACE('',#787,0.127);
#787=AXIS2_PLACEMENT_3D('',#788,#789,#790);
#788=CARTESIAN_POINT('',(-0.35,-0.35,0.127));
#789=DIRECTION('',(0.,0.,-1.));
#790=DIRECTION('',(-1.,0.,0.));
#791=MANIFOLD_SOLID_BREP($,#792);
#792=CLOSED_SHELL('',(#794));
#793=STYLED_ITEM('color',(#34),#794);
#794=ADVANCED_FACE('',(),#795,.T.);
#795=SPHERICAL_SURFACE('',#796,0.127);
#796=AXIS2_PLACEMENT_3D('',#797,#798,#799);
#797=CARTESIAN_POINT('',(0.0,-0.35,0.127));
#798=DIRECTION('',(0.,0.,-1.));
#799=DIRECTION('',(-1.,0.,0.));
#800=MANIFOLD_SOLID_BREP($,#801);
#801=CLOSED_SHELL('',(#803));
#802=STYLED_ITEM('color',(#34),#803);
#803=ADVANCED_FACE('',(),#804,.T.);
#804=SPHERICAL_SURFACE('',#805,0.127);
#805=AXIS2_PLACEMENT_3D('',#806,#807,#808);
#806=CARTESIAN_POINT('',(0.35,-0.35,0.127));
#807=DIRECTION('',(0.,0.,-1.));
#808=DIRECTION('',(-1.,0.,0.));
#809=MANIFOLD_SOLID_BREP($,#810);
#810=CLOSED_SHELL('',(#812));
#811=STYLED_ITEM('color',(#34),#812);
#812=ADVANCED_FACE('',(),#813,.T.);
#813=SPHERICAL_SURFACE('',#814,0.127);
#814=AXIS2_PLACEMENT_3D('',#815,#816,#817);
#815=CARTESIAN_POINT('',(0.7,-0.35,0.127));
#816=DIRECTION('',(0.,0.,-1.));
#817=DIRECTION('',(-1.,0.,0.));
#818=MANIFOLD_SOLID_BREP($,#819);
#819=CLOSED_SHELL('',(#821));
#820=STYLED_ITEM('color',(#34),#821);
#821=ADVANCED_FACE('',(),#822,.T.);
#822=SPHERICAL_SURFACE('',#823,0.127);
#823=AXIS2_PLACEMENT_3D('',#824,#825,#826);
#824=CARTESIAN_POINT('',(1.05,-0.35,0.127));
#825=DIRECTION('',(0.,0.,-1.));
#826=DIRECTION('',(-1.,0.,0.));
#827=MANIFOLD_SOLID_BREP($,#828);
#828=CLOSED_SHELL('',(#830));
#829=STYLED_ITEM('color',(#34),#830);
#830=ADVANCED_FACE('',(),#831,.T.);
#831=SPHERICAL_SURFACE('',#832,0.127);
#832=AXIS2_PLACEMENT_3D('',#833,#834,#835);
#833=CARTESIAN_POINT('',(1.4,-0.35,0.127));
#834=DIRECTION('',(0.,0.,-1.));
#835=DIRECTION('',(-1.,0.,0.));
#836=MANIFOLD_SOLID_BREP($,#837);
#837=CLOSED_SHELL('',(#839));
#838=STYLED_ITEM('color',(#34),#839);
#839=ADVANCED_FACE('',(),#840,.T.);
#840=SPHERICAL_SURFACE('',#841,0.127);
#841=AXIS2_PLACEMENT_3D('',#842,#843,#844);
#842=CARTESIAN_POINT('',(1.75,-0.35,0.127));
#843=DIRECTION('',(0.,0.,-1.));
#844=DIRECTION('',(-1.,0.,0.));
#845=MANIFOLD_SOLID_BREP($,#846);
#846=CLOSED_SHELL('',(#848));
#847=STYLED_ITEM('color',(#34),#848);
#848=ADVANCED_FACE('',(),#849,.T.);
#849=SPHERICAL_SURFACE('',#850,0.127);
#850=AXIS2_PLACEMENT_3D('',#851,#852,#853);
#851=CARTESIAN_POINT('',(-1.4,-0.7,0.127));
#852=DIRECTION('',(0.,0.,-1.));
#853=DIRECTION('',(-1.,0.,0.));
#854=MANIFOLD_SOLID_BREP($,#855);
#855=CLOSED_SHELL('',(#857));
#856=STYLED_ITEM('color',(#34),#857);
#857=ADVANCED_FACE('',(),#858,.T.);
#858=SPHERICAL_SURFACE('',#859,0.127);
#859=AXIS2_PLACEMENT_3D('',#860,#861,#862);
#860=CARTESIAN_POINT('',(-1.05,-0.7,0.127));
#861=DIRECTION('',(0.,0.,-1.));
#862=DIRECTION('',(-1.,0.,0.));
#863=MANIFOLD_SOLID_BREP($,#864);
#864=CLOSED_SHELL('',(#866));
#865=STYLED_ITEM('color',(#34),#866);
#866=ADVANCED_FACE('',(),#867,.T.);
#867=SPHERICAL_SURFACE('',#868,0.127);
#868=AXIS2_PLACEMENT_3D('',#869,#870,#871);
#869=CARTESIAN_POINT('',(-0.7,-0.7,0.127));
#870=DIRECTION('',(0.,0.,-1.));
#871=DIRECTION('',(-1.,0.,0.));
#872=MANIFOLD_SOLID_BREP($,#873);
#873=CLOSED_SHELL('',(#875));
#874=STYLED_ITEM('color',(#34),#875);
#875=ADVANCED_FACE('',(),#876,.T.);
#876=SPHERICAL_SURFACE('',#877,0.127);
#877=AXIS2_PLACEMENT_3D('',#878,#879,#880);
#878=CARTESIAN_POINT('',(-0.35,-0.7,0.127));
#879=DIRECTION('',(0.,0.,-1.));
#880=DIRECTION('',(-1.,0.,0.));
#881=MANIFOLD_SOLID_BREP($,#882);
#882=CLOSED_SHELL('',(#884));
#883=STYLED_ITEM('color',(#34),#884);
#884=ADVANCED_FACE('',(),#885,.T.);
#885=SPHERICAL_SURFACE('',#886,0.127);
#886=AXIS2_PLACEMENT_3D('',#887,#888,#889);
#887=CARTESIAN_POINT('',(0.0,-0.7,0.127));
#888=DIRECTION('',(0.,0.,-1.));
#889=DIRECTION('',(-1.,0.,0.));
#890=MANIFOLD_SOLID_BREP($,#891);
#891=CLOSED_SHELL('',(#893));
#892=STYLED_ITEM('color',(#34),#893);
#893=ADVANCED_FACE('',(),#894,.T.);
#894=SPHERICAL_SURFACE('',#895,0.127);
#895=AXIS2_PLACEMENT_3D('',#896,#897,#898);
#896=CARTESIAN_POINT('',(0.35,-0.7,0.127));
#897=DIRECTION('',(0.,0.,-1.));
#898=DIRECTION('',(-1.,0.,0.));
#899=MANIFOLD_SOLID_BREP($,#900);
#900=CLOSED_SHELL('',(#902));
#901=STYLED_ITEM('color',(#34),#902);
#902=ADVANCED_FACE('',(),#903,.T.);
#903=SPHERICAL_SURFACE('',#904,0.127);
#904=AXIS2_PLACEMENT_3D('',#905,#906,#907);
#905=CARTESIAN_POINT('',(0.7,-0.7,0.127));
#906=DIRECTION('',(0.,0.,-1.));
#907=DIRECTION('',(-1.,0.,0.));
#908=MANIFOLD_SOLID_BREP($,#909);
#909=CLOSED_SHELL('',(#911));
#910=STYLED_ITEM('color',(#34),#911);
#911=ADVANCED_FACE('',(),#912,.T.);
#912=SPHERICAL_SURFACE('',#913,0.127);
#913=AXIS2_PLACEMENT_3D('',#914,#915,#916);
#914=CARTESIAN_POINT('',(1.05,-0.7,0.127));
#915=DIRECTION('',(0.,0.,-1.));
#916=DIRECTION('',(-1.,0.,0.));
#917=MANIFOLD_SOLID_BREP($,#918);
#918=CLOSED_SHELL('',(#920));
#919=STYLED_ITEM('color',(#34),#920);
#920=ADVANCED_FACE('',(),#921,.T.);
#921=SPHERICAL_SURFACE('',#922,0.127);
#922=AXIS2_PLACEMENT_3D('',#923,#924,#925);
#923=CARTESIAN_POINT('',(1.4,-0.7,0.127));
#924=DIRECTION('',(0.,0.,-1.));
#925=DIRECTION('',(-1.,0.,0.));
#926=MANIFOLD_SOLID_BREP($,#927);
#927=CLOSED_SHELL('',(#929));
#928=STYLED_ITEM('color',(#34),#929);
#929=ADVANCED_FACE('',(),#930,.T.);
#930=SPHERICAL_SURFACE('',#931,0.127);
#931=AXIS2_PLACEMENT_3D('',#932,#933,#934);
#932=CARTESIAN_POINT('',(1.75,-0.7,0.127));
#933=DIRECTION('',(0.,0.,-1.));
#934=DIRECTION('',(-1.,0.,0.));
#935=MANIFOLD_SOLID_BREP($,#936);
#936=CLOSED_SHELL('',(#938));
#937=STYLED_ITEM('color',(#34),#938);
#938=ADVANCED_FACE('',(),#939,.T.);
#939=SPHERICAL_SURFACE('',#940,0.127);
#940=AXIS2_PLACEMENT_3D('',#941,#942,#943);
#941=CARTESIAN_POINT('',(-1.75,-1.05,0.127));
#942=DIRECTION('',(0.,0.,-1.));
#943=DIRECTION('',(-1.,0.,0.));
#944=MANIFOLD_SOLID_BREP($,#945);
#945=CLOSED_SHELL('',(#947));
#946=STYLED_ITEM('color',(#34),#947);
#947=ADVANCED_FACE('',(),#948,.T.);
#948=SPHERICAL_SURFACE('',#949,0.127);
#949=AXIS2_PLACEMENT_3D('',#950,#951,#952);
#950=CARTESIAN_POINT('',(-1.4,-1.05,0.127));
#951=DIRECTION('',(0.,0.,-1.));
#952=DIRECTION('',(-1.,0.,0.));
#953=MANIFOLD_SOLID_BREP($,#954);
#954=CLOSED_SHELL('',(#956));
#955=STYLED_ITEM('color',(#34),#956);
#956=ADVANCED_FACE('',(),#957,.T.);
#957=SPHERICAL_SURFACE('',#958,0.127);
#958=AXIS2_PLACEMENT_3D('',#959,#960,#961);
#959=CARTESIAN_POINT('',(-1.05,-1.05,0.127));
#960=DIRECTION('',(0.,0.,-1.));
#961=DIRECTION('',(-1.,0.,0.));
#962=MANIFOLD_SOLID_BREP($,#963);
#963=CLOSED_SHELL('',(#965));
#964=STYLED_ITEM('color',(#34),#965);
#965=ADVANCED_FACE('',(),#966,.T.);
#966=SPHERICAL_SURFACE('',#967,0.127);
#967=AXIS2_PLACEMENT_3D('',#968,#969,#970);
#968=CARTESIAN_POINT('',(-0.7,-1.05,0.127));
#969=DIRECTION('',(0.,0.,-1.));
#970=DIRECTION('',(-1.,0.,0.));
#971=MANIFOLD_SOLID_BREP($,#972);
#972=CLOSED_SHELL('',(#974));
#973=STYLED_ITEM('color',(#34),#974);
#974=ADVANCED_FACE('',(),#975,.T.);
#975=SPHERICAL_SURFACE('',#976,0.127);
#976=AXIS2_PLACEMENT_3D('',#977,#978,#979);
#977=CARTESIAN_POINT('',(-0.35,-1.05,0.127));
#978=DIRECTION('',(0.,0.,-1.));
#979=DIRECTION('',(-1.,0.,0.));
#980=MANIFOLD_SOLID_BREP($,#981);
#981=CLOSED_SHELL('',(#983));
#982=STYLED_ITEM('color',(#34),#983);
#983=ADVANCED_FACE('',(),#984,.T.);
#984=SPHERICAL_SURFACE('',#985,0.127);
#985=AXIS2_PLACEMENT_3D('',#986,#987,#988);
#986=CARTESIAN_POINT('',(0.0,-1.05,0.127));
#987=DIRECTION('',(0.,0.,-1.));
#988=DIRECTION('',(-1.,0.,0.));
#989=MANIFOLD_SOLID_BREP($,#990);
#990=CLOSED_SHELL('',(#992));
#991=STYLED_ITEM('color',(#34),#992);
#992=ADVANCED_FACE('',(),#993,.T.);
#993=SPHERICAL_SURFACE('',#994,0.127);
#994=AXIS2_PLACEMENT_3D('',#995,#996,#997);
#995=CARTESIAN_POINT('',(0.35,-1.05,0.127));
#996=DIRECTION('',(0.,0.,-1.));
#997=DIRECTION('',(-1.,0.,0.));
#998=MANIFOLD_SOLID_BREP($,#999);
#999=CLOSED_SHELL('',(#1001));
#1000=STYLED_ITEM('color',(#34),#1001);
#1001=ADVANCED_FACE('',(),#1002,.T.);
#1002=SPHERICAL_SURFACE('',#1003,0.127);
#1003=AXIS2_PLACEMENT_3D('',#1004,#1005,#1006);
#1004=CARTESIAN_POINT('',(0.7,-1.05,0.127));
#1005=DIRECTION('',(0.,0.,-1.));
#1006=DIRECTION('',(-1.,0.,0.));
#1007=MANIFOLD_SOLID_BREP($,#1008);
#1008=CLOSED_SHELL('',(#1010));
#1009=STYLED_ITEM('color',(#34),#1010);
#1010=ADVANCED_FACE('',(),#1011,.T.);
#1011=SPHERICAL_SURFACE('',#1012,0.127);
#1012=AXIS2_PLACEMENT_3D('',#1013,#1014,#1015);
#1013=CARTESIAN_POINT('',(1.05,-1.05,0.127));
#1014=DIRECTION('',(0.,0.,-1.));
#1015=DIRECTION('',(-1.,0.,0.));
#1016=MANIFOLD_SOLID_BREP($,#1017);
#1017=CLOSED_SHELL('',(#1019));
#1018=STYLED_ITEM('color',(#34),#1019);
#1019=ADVANCED_FACE('',(),#1020,.T.);
#1020=SPHERICAL_SURFACE('',#1021,0.127);
#1021=AXIS2_PLACEMENT_3D('',#1022,#1023,#1024);
#1022=CARTESIAN_POINT('',(1.4,-1.05,0.127));
#1023=DIRECTION('',(0.,0.,-1.));
#1024=DIRECTION('',(-1.,0.,0.));
#1025=MANIFOLD_SOLID_BREP($,#1026);
#1026=CLOSED_SHELL('',(#1028));
#1027=STYLED_ITEM('color',(#34),#1028);
#1028=ADVANCED_FACE('',(),#1029,.T.);
#1029=SPHERICAL_SURFACE('',#1030,0.127);
#1030=AXIS2_PLACEMENT_3D('',#1031,#1032,#1033);
#1031=CARTESIAN_POINT('',(1.75,-1.05,0.127));
#1032=DIRECTION('',(0.,0.,-1.));
#1033=DIRECTION('',(-1.,0.,0.));
#1034=MANIFOLD_SOLID_BREP($,#1035);
#1035=CLOSED_SHELL('',(#1037));
#1036=STYLED_ITEM('color',(#34),#1037);
#1037=ADVANCED_FACE('',(),#1038,.T.);
#1038=SPHERICAL_SURFACE('',#1039,0.127);
#1039=AXIS2_PLACEMENT_3D('',#1040,#1041,#1042);
#1040=CARTESIAN_POINT('',(-1.75,-1.4,0.127));
#1041=DIRECTION('',(0.,0.,-1.));
#1042=DIRECTION('',(-1.,0.,0.));
#1043=MANIFOLD_SOLID_BREP($,#1044);
#1044=CLOSED_SHELL('',(#1046));
#1045=STYLED_ITEM('color',(#34),#1046);
#1046=ADVANCED_FACE('',(),#1047,.T.);
#1047=SPHERICAL_SURFACE('',#1048,0.127);
#1048=AXIS2_PLACEMENT_3D('',#1049,#1050,#1051);
#1049=CARTESIAN_POINT('',(-1.4,-1.4,0.127));
#1050=DIRECTION('',(0.,0.,-1.));
#1051=DIRECTION('',(-1.,0.,0.));
#1052=MANIFOLD_SOLID_BREP($,#1053);
#1053=CLOSED_SHELL('',(#1055));
#1054=STYLED_ITEM('color',(#34),#1055);
#1055=ADVANCED_FACE('',(),#1056,.T.);
#1056=SPHERICAL_SURFACE('',#1057,0.127);
#1057=AXIS2_PLACEMENT_3D('',#1058,#1059,#1060);
#1058=CARTESIAN_POINT('',(-1.05,-1.4,0.127));
#1059=DIRECTION('',(0.,0.,-1.));
#1060=DIRECTION('',(-1.,0.,0.));
#1061=MANIFOLD_SOLID_BREP($,#1062);
#1062=CLOSED_SHELL('',(#1064));
#1063=STYLED_ITEM('color',(#34),#1064);
#1064=ADVANCED_FACE('',(),#1065,.T.);
#1065=SPHERICAL_SURFACE('',#1066,0.127);
#1066=AXIS2_PLACEMENT_3D('',#1067,#1068,#1069);
#1067=CARTESIAN_POINT('',(-0.7,-1.4,0.127));
#1068=DIRECTION('',(0.,0.,-1.));
#1069=DIRECTION('',(-1.,0.,0.));
#1070=MANIFOLD_SOLID_BREP($,#1071);
#1071=CLOSED_SHELL('',(#1073));
#1072=STYLED_ITEM('color',(#34),#1073);
#1073=ADVANCED_FACE('',(),#1074,.T.);
#1074=SPHERICAL_SURFACE('',#1075,0.127);
#1075=AXIS2_PLACEMENT_3D('',#1076,#1077,#1078);
#1076=CARTESIAN_POINT('',(-0.35,-1.4,0.127));
#1077=DIRECTION('',(0.,0.,-1.));
#1078=DIRECTION('',(-1.,0.,0.));
#1079=MANIFOLD_SOLID_BREP($,#1080);
#1080=CLOSED_SHELL('',(#1082));
#1081=STYLED_ITEM('color',(#34),#1082);
#1082=ADVANCED_FACE('',(),#1083,.T.);
#1083=SPHERICAL_SURFACE('',#1084,0.127);
#1084=AXIS2_PLACEMENT_3D('',#1085,#1086,#1087);
#1085=CARTESIAN_POINT('',(0.0,-1.4,0.127));
#1086=DIRECTION('',(0.,0.,-1.));
#1087=DIRECTION('',(-1.,0.,0.));
#1088=MANIFOLD_SOLID_BREP($,#1089);
#1089=CLOSED_SHELL('',(#1091));
#1090=STYLED_ITEM('color',(#34),#1091);
#1091=ADVANCED_FACE('',(),#1092,.T.);
#1092=SPHERICAL_SURFACE('',#1093,0.127);
#1093=AXIS2_PLACEMENT_3D('',#1094,#1095,#1096);
#1094=CARTESIAN_POINT('',(0.35,-1.4,0.127));
#1095=DIRECTION('',(0.,0.,-1.));
#1096=DIRECTION('',(-1.,0.,0.));
#1097=MANIFOLD_SOLID_BREP($,#1098);
#1098=CLOSED_SHELL('',(#1100));
#1099=STYLED_ITEM('color',(#34),#1100);
#1100=ADVANCED_FACE('',(),#1101,.T.);
#1101=SPHERICAL_SURFACE('',#1102,0.127);
#1102=AXIS2_PLACEMENT_3D('',#1103,#1104,#1105);
#1103=CARTESIAN_POINT('',(0.7,-1.4,0.127));
#1104=DIRECTION('',(0.,0.,-1.));
#1105=DIRECTION('',(-1.,0.,0.));
#1106=MANIFOLD_SOLID_BREP($,#1107);
#1107=CLOSED_SHELL('',(#1109));
#1108=STYLED_ITEM('color',(#34),#1109);
#1109=ADVANCED_FACE('',(),#1110,.T.);
#1110=SPHERICAL_SURFACE('',#1111,0.127);
#1111=AXIS2_PLACEMENT_3D('',#1112,#1113,#1114);
#1112=CARTESIAN_POINT('',(1.05,-1.4,0.127));
#1113=DIRECTION('',(0.,0.,-1.));
#1114=DIRECTION('',(-1.,0.,0.));
#1115=MANIFOLD_SOLID_BREP($,#1116);
#1116=CLOSED_SHELL('',(#1118));
#1117=STYLED_ITEM('color',(#34),#1118);
#1118=ADVANCED_FACE('',(),#1119,.T.);
#1119=SPHERICAL_SURFACE('',#1120,0.127);
#1120=AXIS2_PLACEMENT_3D('',#1121,#1122,#1123);
#1121=CARTESIAN_POINT('',(1.4,-1.4,0.127));
#1122=DIRECTION('',(0.,0.,-1.));
#1123=DIRECTION('',(-1.,0.,0.));
#1124=MANIFOLD_SOLID_BREP($,#1125);
#1125=CLOSED_SHELL('',(#1127));
#1126=STYLED_ITEM('color',(#34),#1127);
#1127=ADVANCED_FACE('',(),#1128,.T.);
#1128=SPHERICAL_SURFACE('',#1129,0.127);
#1129=AXIS2_PLACEMENT_3D('',#1130,#1131,#1132);
#1130=CARTESIAN_POINT('',(-1.75,-1.75,0.127));
#1131=DIRECTION('',(0.,0.,-1.));
#1132=DIRECTION('',(-1.,0.,0.));
#1133=MANIFOLD_SOLID_BREP($,#1134);
#1134=CLOSED_SHELL('',(#1136));
#1135=STYLED_ITEM('color',(#34),#1136);
#1136=ADVANCED_FACE('',(),#1137,.T.);
#1137=SPHERICAL_SURFACE('',#1138,0.127);
#1138=AXIS2_PLACEMENT_3D('',#1139,#1140,#1141);
#1139=CARTESIAN_POINT('',(-1.4,-1.75,0.127));
#1140=DIRECTION('',(0.,0.,-1.));
#1141=DIRECTION('',(-1.,0.,0.));
#1142=MANIFOLD_SOLID_BREP($,#1143);
#1143=CLOSED_SHELL('',(#1145));
#1144=STYLED_ITEM('color',(#34),#1145);
#1145=ADVANCED_FACE('',(),#1146,.T.);
#1146=SPHERICAL_SURFACE('',#1147,0.127);
#1147=AXIS2_PLACEMENT_3D('',#1148,#1149,#1150);
#1148=CARTESIAN_POINT('',(-1.05,-1.75,0.127));
#1149=DIRECTION('',(0.,0.,-1.));
#1150=DIRECTION('',(-1.,0.,0.));
#1151=MANIFOLD_SOLID_BREP($,#1152);
#1152=CLOSED_SHELL('',(#1154));
#1153=STYLED_ITEM('color',(#34),#1154);
#1154=ADVANCED_FACE('',(),#1155,.T.);
#1155=SPHERICAL_SURFACE('',#1156,0.127);
#1156=AXIS2_PLACEMENT_3D('',#1157,#1158,#1159);
#1157=CARTESIAN_POINT('',(-0.35,-1.75,0.127));
#1158=DIRECTION('',(0.,0.,-1.));
#1159=DIRECTION('',(-1.,0.,0.));
#1160=MANIFOLD_SOLID_BREP($,#1161);
#1161=CLOSED_SHELL('',(#1163));
#1162=STYLED_ITEM('color',(#34),#1163);
#1163=ADVANCED_FACE('',(),#1164,.T.);
#1164=SPHERICAL_SURFACE('',#1165,0.127);
#1165=AXIS2_PLACEMENT_3D('',#1166,#1167,#1168);
#1166=CARTESIAN_POINT('',(0.0,-1.75,0.127));
#1167=DIRECTION('',(0.,0.,-1.));
#1168=DIRECTION('',(-1.,0.,0.));
#1169=MANIFOLD_SOLID_BREP($,#1170);
#1170=CLOSED_SHELL('',(#1172));
#1171=STYLED_ITEM('color',(#34),#1172);
#1172=ADVANCED_FACE('',(),#1173,.T.);
#1173=SPHERICAL_SURFACE('',#1174,0.127);
#1174=AXIS2_PLACEMENT_3D('',#1175,#1176,#1177);
#1175=CARTESIAN_POINT('',(0.35,-1.75,0.127));
#1176=DIRECTION('',(0.,0.,-1.));
#1177=DIRECTION('',(-1.,0.,0.));
#1178=MANIFOLD_SOLID_BREP($,#1179);
#1179=CLOSED_SHELL('',(#1181));
#1180=STYLED_ITEM('color',(#34),#1181);
#1181=ADVANCED_FACE('',(),#1182,.T.);
#1182=SPHERICAL_SURFACE('',#1183,0.127);
#1183=AXIS2_PLACEMENT_3D('',#1184,#1185,#1186);
#1184=CARTESIAN_POINT('',(0.7,-1.75,0.127));
#1185=DIRECTION('',(0.,0.,-1.));
#1186=DIRECTION('',(-1.,0.,0.));
#1187=MANIFOLD_SOLID_BREP($,#1188);
#1188=CLOSED_SHELL('',(#1190));
#1189=STYLED_ITEM('color',(#34),#1190);
#1190=ADVANCED_FACE('',(),#1191,.T.);
#1191=SPHERICAL_SURFACE('',#1192,0.127);
#1192=AXIS2_PLACEMENT_3D('',#1193,#1194,#1195);
#1193=CARTESIAN_POINT('',(1.05,-1.75,0.127));
#1194=DIRECTION('',(0.,0.,-1.));
#1195=DIRECTION('',(-1.,0.,0.));
#1196=MANIFOLD_SOLID_BREP($,#1197);
#1197=CLOSED_SHELL('',(#1199));
#1198=STYLED_ITEM('color',(#34),#1199);
#1199=ADVANCED_FACE('',(),#1200,.T.);
#1200=SPHERICAL_SURFACE('',#1201,0.127);
#1201=AXIS2_PLACEMENT_3D('',#1202,#1203,#1204);
#1202=CARTESIAN_POINT('',(1.4,-1.75,0.127));
#1203=DIRECTION('',(0.,0.,-1.));
#1204=DIRECTION('',(-1.,0.,0.));
#1205=MANIFOLD_SOLID_BREP($,#1206);
#1206=CLOSED_SHELL('',(#1208));
#1207=STYLED_ITEM('color',(#34),#1208);
#1208=ADVANCED_FACE('',(),#1209,.T.);
#1209=SPHERICAL_SURFACE('',#1210,0.127);
#1210=AXIS2_PLACEMENT_3D('',#1211,#1212,#1213);
#1211=CARTESIAN_POINT('',(1.75,-1.75,0.127));
#1212=DIRECTION('',(0.,0.,-1.));
#1213=DIRECTION('',(-1.,0.,0.));
#1215=MANIFOLD_SOLID_BREP($,#1216);
#1216=CLOSED_SHELL('',(#1217,#1218,#1219));
#1217=ADVANCED_FACE($,(#1223,#1222),#1240,.T.);
#1218=ADVANCED_FACE($,(#1224),#1220,.F.);
#1219=ADVANCED_FACE($,(#1225),#1221,.T.);
#1220=PLANE($,#1245);
#1221=PLANE($,#1246);
#1222=FACE_BOUND($,#1227,.T.);
#1223=FACE_OUTER_BOUND($,#1226,.T.);
#1224=FACE_OUTER_BOUND($,#1228,.T.);
#1225=FACE_OUTER_BOUND($,#1229,.T.);
#1226=EDGE_LOOP($,(#1236));
#1227=EDGE_LOOP($,(#1237));
#1228=EDGE_LOOP($,(#1238));
#1229=EDGE_LOOP($,(#1239));
#1230=CIRCLE($,#1243,0.106045);
#1231=CIRCLE($,#1244,0.106045);
#1232=VERTEX_POINT('',#1261);
#1233=VERTEX_POINT('',#1263);
#1234=EDGE_CURVE($,#1232,#1232,#1230,.T.);
#1235=EDGE_CURVE($,#1233,#1233,#1231,.T.);
#1236=ORIENTED_EDGE($,*,*,#1234,.F.);
#1237=ORIENTED_EDGE($,*,*,#1235,.F.);
#1238=ORIENTED_EDGE($,*,*,#1235,.T.);
#1239=ORIENTED_EDGE($,*,*,#1234,.T.);
#1240=CYLINDRICAL_SURFACE($,#1242,0.106045);
#1241=AXIS2_PLACEMENT_3D('placement',#1259,#1247,#1248);
#1242=AXIS2_PLACEMENT_3D($,#1260,#1249,#1250);
#1243=AXIS2_PLACEMENT_3D($,#1262,#1251,#1252);
#1244=AXIS2_PLACEMENT_3D($,#1264,#1253,#1254);
#1245=AXIS2_PLACEMENT_3D($,#1265,#1255,#1256);
#1246=AXIS2_PLACEMENT_3D($,#1266,#1257,#1258);
#1247=DIRECTION('axis',(0.,1.,0.));
#1248=DIRECTION('refdir',(1.,0.,0.));
#1249=DIRECTION('',(0.,0.,1.));
#1250=DIRECTION('',(1.,0.,0.));
#1251=DIRECTION('',(0.,0.,1.));
#1252=DIRECTION('',(1.,0.,0.));
#1253=DIRECTION('',(0.,0.,-1.));
#1254=DIRECTION('',(1.,0.,0.));
#1255=DIRECTION('',(0.,0.,1.));
#1256=DIRECTION('',(0.,1.,0.));
#1257=DIRECTION('',(0.,0.,1.));
#1258=DIRECTION('',(0.,1.,0.));
#1259=CARTESIAN_POINT('',(0.,0.,0.));
#1260=CARTESIAN_POINT('',(-1.697,1.697,0.533));
#1261=CARTESIAN_POINT('',(-1.803,1.697,0.536));
#1262=CARTESIAN_POINT('',(-1.697,1.697,0.536));
#1263=CARTESIAN_POINT('',(-1.803,1.697,0.533));
#1264=CARTESIAN_POINT('',(-1.697,1.697,0.533));
#1265=CARTESIAN_POINT('',(-1.697,1.697,0.533));
#1266=CARTESIAN_POINT('',(-1.697,1.697,0.536));
#1267=STYLED_ITEM('color',(#52),#1217);
#1268=STYLED_ITEM('color',(#52),#1218);
#1269=STYLED_ITEM('color',(#52),#1219);
#1271=MANIFOLD_SOLID_BREP($,#1272);
#1272=CLOSED_SHELL('',(#1274,#1323,#1372,#1421,#1470,#1519));
#1273=STYLED_ITEM('',(#43),#1274);
#1274=ADVANCED_FACE('',(#1280),#1275,.T.);
#1275=PLANE('',#1276);
#1276=AXIS2_PLACEMENT_3D('',#1277,#1278,#1279);
#1277=CARTESIAN_POINT('',(-2.121,-2.121,0.253));
#1278=DIRECTION('',(0.0,-1.0,0.0));
#1279=DIRECTION('',(0.,0.,1.));
#1280=FACE_OUTER_BOUND('',#1281,.T.);
#1281=EDGE_LOOP('',(#1282,#1292,#1302,#1312));
#1285=CARTESIAN_POINT('',(2.121,-2.121,0.253));
#1284=VERTEX_POINT('',#1285);
#1287=CARTESIAN_POINT('',(-2.121,-2.121,0.253));
#1286=VERTEX_POINT('',#1287);
#1283=EDGE_CURVE('',#1284,#1286,#1288,.T.);
#1288=LINE('',#1285,#1290);
#1290=VECTOR('',#1291,4.2418);
#1291=DIRECTION('',(-1.0,0.0,0.0));
#1282=ORIENTED_EDGE('',*,*,#1283,.F.);
#1295=CARTESIAN_POINT('',(2.121,-2.121,0.533));
#1294=VERTEX_POINT('',#1295);
#1293=EDGE_CURVE('',#1294,#1284,#1298,.T.);
#1298=LINE('',#1295,#1300);
#1300=VECTOR('',#1301,0.2804000000066);
#1301=DIRECTION('',(0.0,0.0,-1.0));
#1292=ORIENTED_EDGE('',*,*,#1293,.F.);
#1305=CARTESIAN_POINT('',(-2.121,-2.121,0.533));
#1304=VERTEX_POINT('',#1305);
#1303=EDGE_CURVE('',#1304,#1294,#1308,.T.);
#1308=LINE('',#1305,#1310);
#1310=VECTOR('',#1311,4.2418);
#1311=DIRECTION('',(1.0,0.0,0.0));
#1302=ORIENTED_EDGE('',*,*,#1303,.F.);
#1313=EDGE_CURVE('',#1286,#1304,#1318,.T.);
#1318=LINE('',#1287,#1320);
#1320=VECTOR('',#1321,0.2804000000066);
#1321=DIRECTION('',(0.0,0.0,1.0));
#1312=ORIENTED_EDGE('',*,*,#1313,.F.);
#1322=STYLED_ITEM('',(#43),#1323);
#1323=ADVANCED_FACE('',(#1329),#1324,.T.);
#1324=PLANE('',#1325);
#1325=AXIS2_PLACEMENT_3D('',#1326,#1327,#1328);
#1326=CARTESIAN_POINT('',(2.121,-2.121,0.253));
#1327=DIRECTION('',(1.0,0.0,0.0));
#1328=DIRECTION('',(0.,0.,1.));
#1329=FACE_OUTER_BOUND('',#1330,.T.);
#1330=EDGE_LOOP('',(#1331,#1341,#1351,#1361));
#1334=CARTESIAN_POINT('',(2.121,2.121,0.253));
#1333=VERTEX_POINT('',#1334);
#1332=EDGE_CURVE('',#1333,#1284,#1337,.T.);
#1337=LINE('',#1334,#1339);
#1339=VECTOR('',#1340,4.2418);
#1340=DIRECTION('',(0.0,-1.0,0.0));
#1331=ORIENTED_EDGE('',*,*,#1332,.F.);
#1344=CARTESIAN_POINT('',(2.121,2.121,0.533));
#1343=VERTEX_POINT('',#1344);
#1342=EDGE_CURVE('',#1343,#1333,#1347,.T.);
#1347=LINE('',#1344,#1349);
#1349=VECTOR('',#1350,0.2804000000066);
#1350=DIRECTION('',(0.0,0.0,-1.0));
#1341=ORIENTED_EDGE('',*,*,#1342,.F.);
#1352=EDGE_CURVE('',#1294,#1343,#1357,.T.);
#1357=LINE('',#1295,#1359);
#1359=VECTOR('',#1360,4.2418);
#1360=DIRECTION('',(0.0,1.0,0.0));
#1351=ORIENTED_EDGE('',*,*,#1352,.F.);
#1361=ORIENTED_EDGE('',*,*,#1293,.T.);
#1371=STYLED_ITEM('',(#43),#1372);
#1372=ADVANCED_FACE('',(#1378),#1373,.T.);
#1373=PLANE('',#1374);
#1374=AXIS2_PLACEMENT_3D('',#1375,#1376,#1377);
#1375=CARTESIAN_POINT('',(2.121,2.121,0.253));
#1376=DIRECTION('',(0.0,1.0,0.0));
#1377=DIRECTION('',(0.,0.,1.));
#1378=FACE_OUTER_BOUND('',#1379,.T.);
#1379=EDGE_LOOP('',(#1380,#1390,#1400,#1410));
#1383=CARTESIAN_POINT('',(-2.121,2.121,0.253));
#1382=VERTEX_POINT('',#1383);
#1381=EDGE_CURVE('',#1382,#1333,#1386,.T.);
#1386=LINE('',#1383,#1388);
#1388=VECTOR('',#1389,4.2418);
#1389=DIRECTION('',(1.0,0.0,0.0));
#1380=ORIENTED_EDGE('',*,*,#1381,.F.);
#1393=CARTESIAN_POINT('',(-2.121,2.121,0.533));
#1392=VERTEX_POINT('',#1393);
#1391=EDGE_CURVE('',#1392,#1382,#1396,.T.);
#1396=LINE('',#1393,#1398);
#1398=VECTOR('',#1399,0.2804000000066);
#1399=DIRECTION('',(0.0,0.0,-1.0));
#1390=ORIENTED_EDGE('',*,*,#1391,.F.);
#1401=EDGE_CURVE('',#1343,#1392,#1406,.T.);
#1406=LINE('',#1344,#1408);
#1408=VECTOR('',#1409,4.2418);
#1409=DIRECTION('',(-1.0,0.0,0.0));
#1400=ORIENTED_EDGE('',*,*,#1401,.F.);
#1410=ORIENTED_EDGE('',*,*,#1342,.T.);
#1420=STYLED_ITEM('',(#43),#1421);
#1421=ADVANCED_FACE('',(#1427),#1422,.T.);
#1422=PLANE('',#1423);
#1423=AXIS2_PLACEMENT_3D('',#1424,#1425,#1426);
#1424=CARTESIAN_POINT('',(-2.121,2.121,0.253));
#1425=DIRECTION('',(-1.0,0.0,0.0));
#1426=DIRECTION('',(0.,0.,1.));
#1427=FACE_OUTER_BOUND('',#1428,.T.);
#1428=EDGE_LOOP('',(#1429,#1439,#1449,#1459));
#1430=EDGE_CURVE('',#1286,#1382,#1435,.T.);
#1435=LINE('',#1287,#1437);
#1437=VECTOR('',#1438,4.2418);
#1438=DIRECTION('',(0.0,1.0,0.0));
#1429=ORIENTED_EDGE('',*,*,#1430,.F.);
#1439=ORIENTED_EDGE('',*,*,#1313,.T.);
#1450=EDGE_CURVE('',#1392,#1304,#1455,.T.);
#1455=LINE('',#1393,#1457);
#1457=VECTOR('',#1458,4.2418);
#1458=DIRECTION('',(0.0,-1.0,0.0));
#1449=ORIENTED_EDGE('',*,*,#1450,.F.);
#1459=ORIENTED_EDGE('',*,*,#1391,.T.);
#1469=STYLED_ITEM('',(#43),#1470);
#1470=ADVANCED_FACE('',(#1476),#1471,.T.);
#1471=PLANE('',#1472);
#1472=AXIS2_PLACEMENT_3D('',#1473,#1474,#1475);
#1473=CARTESIAN_POINT('',(-2.121,2.121,0.253));
#1474=DIRECTION('',(0.0,0.0,-1.0));
#1475=DIRECTION('',(0.,1.,0.));
#1476=FACE_OUTER_BOUND('',#1477,.T.);
#1477=EDGE_LOOP('',(#1478,#1488,#1498,#1508));
#1478=ORIENTED_EDGE('',*,*,#1381,.T.);
#1488=ORIENTED_EDGE('',*,*,#1332,.T.);
#1498=ORIENTED_EDGE('',*,*,#1283,.T.);
#1508=ORIENTED_EDGE('',*,*,#1430,.T.);
#1518=STYLED_ITEM('',(#43),#1519);
#1519=ADVANCED_FACE('',(#1525),#1520,.T.);
#1520=PLANE('',#1521);
#1521=AXIS2_PLACEMENT_3D('',#1522,#1523,#1524);
#1522=CARTESIAN_POINT('',(-2.121,-2.121,0.533));
#1523=DIRECTION('',(0.0,0.0,1.0));
#1524=DIRECTION('',(0.,1.,0.));
#1525=FACE_OUTER_BOUND('',#1526,.T.);
#1526=EDGE_LOOP('',(#1527,#1537,#1547,#1557));
#1527=ORIENTED_EDGE('',*,*,#1303,.T.);
#1537=ORIENTED_EDGE('',*,*,#1352,.T.);
#1547=ORIENTED_EDGE('',*,*,#1401,.T.);
#1557=ORIENTED_EDGE('',*,*,#1450,.T.);
ENDSEC;
END-ISO-10303-21;
