%TF.GenerationSoftware,KiCad,Pcbnew,10.0.6*%
%TF.CreationDate,2026-10-06T11:55:12-07:00*%
%TF.ProjectId,openpci2-backplane,6f70656e-7063-4693-922d-6261636b706c,RevB*%
%TF.SameCoordinates,PX1239870PY922f724*%
%TF.FileFunction,Paste,Top*%
%TF.FilePolarity,Positive*%
%FSLAX46Y46*%
G04 Gerber Fmt 4.6, Leading zero omitted, Abs format (unit mm)*
G04 Created by KiCad (PCBNEW 10.0.6) date 2026-10-06 11:55:12*
%MOMM*%
%LPD*%
G01*
G04 APERTURE LIST*
G04 Aperture macros list*
%AMRoundRect*
0 Rectangle with rounded corners*
0 $1 Rounding radius*
0 $2 $3 $4 $5 $6 $7 $8 $9 X,Y pos of 4 corners*
0 Add a 4 corners polygon primitive as box body*
4,1,4,$2,$3,$4,$5,$6,$7,$8,$9,$2,$3,0*
0 Add four circle primitives for the rounded corners*
1,1,$1+$1,$2,$3*
1,1,$1+$1,$4,$5*
1,1,$1+$1,$6,$7*
1,1,$1+$1,$8,$9*
0 Add four rect primitives between the rounded corners*
20,1,$1+$1,$2,$3,$4,$5,0*
20,1,$1+$1,$4,$5,$6,$7,0*
20,1,$1+$1,$6,$7,$8,$9,0*
20,1,$1+$1,$8,$9,$2,$3,0*%
G04 Aperture macros list end*
%ADD10C,0.010000*%
%ADD11C,0.000000*%
%ADD12R,0.800100X0.508000*%
%ADD13RoundRect,0.140000X-0.140000X-0.170000X0.140000X-0.170000X0.140000X0.170000X-0.140000X0.170000X0*%
%ADD14R,0.762000X1.295400*%
%ADD15RoundRect,0.050800X0.330200X-1.574800X0.330200X1.574800X-0.330200X1.574800X-0.330200X-1.574800X0*%
%ADD16RoundRect,0.140000X0.140000X0.170000X-0.140000X0.170000X-0.140000X-0.170000X0.140000X-0.170000X0*%
%ADD17RoundRect,0.225000X-0.225000X-0.250000X0.225000X-0.250000X0.225000X0.250000X-0.225000X0.250000X0*%
%ADD18RoundRect,0.200000X0.200000X0.275000X-0.200000X0.275000X-0.200000X-0.275000X0.200000X-0.275000X0*%
%ADD19RoundRect,0.140000X0.170000X-0.140000X0.170000X0.140000X-0.170000X0.140000X-0.170000X-0.140000X0*%
%ADD20RoundRect,0.200000X-0.200000X-0.275000X0.200000X-0.275000X0.200000X0.275000X-0.200000X0.275000X0*%
%ADD21R,1.046000X1.296000*%
%ADD22RoundRect,0.200000X-0.275000X0.200000X-0.275000X-0.200000X0.275000X-0.200000X0.275000X0.200000X0*%
%ADD23RoundRect,0.225000X-0.250000X0.225000X-0.250000X-0.225000X0.250000X-0.225000X0.250000X0.225000X0*%
%ADD24RoundRect,0.250000X-0.475000X0.250000X-0.475000X-0.250000X0.475000X-0.250000X0.475000X0.250000X0*%
%ADD25RoundRect,0.225000X0.250000X-0.225000X0.250000X0.225000X-0.250000X0.225000X-0.250000X-0.225000X0*%
%ADD26RoundRect,0.200000X0.275000X-0.200000X0.275000X0.200000X-0.275000X0.200000X-0.275000X-0.200000X0*%
%ADD27RoundRect,0.250000X0.475000X-0.250000X0.475000X0.250000X-0.475000X0.250000X-0.475000X-0.250000X0*%
%ADD28RoundRect,0.250000X-0.325000X-0.650000X0.325000X-0.650000X0.325000X0.650000X-0.325000X0.650000X0*%
%ADD29R,0.304800X1.549400*%
%ADD30R,1.193800X2.743200*%
%ADD31R,2.280000X2.120000*%
%ADD32RoundRect,0.140000X-0.170000X0.140000X-0.170000X-0.140000X0.170000X-0.140000X0.170000X0.140000X0*%
%ADD33RoundRect,0.150000X-0.150000X0.512500X-0.150000X-0.512500X0.150000X-0.512500X0.150000X0.512500X0*%
%ADD34RoundRect,0.250000X-0.375000X-0.850000X0.375000X-0.850000X0.375000X0.850000X-0.375000X0.850000X0*%
%ADD35R,3.560000X3.000000*%
%ADD36R,2.000000X0.700000*%
%ADD37R,5.000000X3.000000*%
%ADD38RoundRect,0.147500X0.172500X-0.147500X0.172500X0.147500X-0.172500X0.147500X-0.172500X-0.147500X0*%
%ADD39RoundRect,0.027500X0.082500X-0.392500X0.082500X0.392500X-0.082500X0.392500X-0.082500X-0.392500X0*%
%ADD40RoundRect,0.027500X0.392500X-0.082500X0.392500X0.082500X-0.392500X0.082500X-0.392500X-0.082500X0*%
%ADD41RoundRect,0.050800X-0.330200X1.574800X-0.330200X-1.574800X0.330200X-1.574800X0.330200X1.574800X0*%
%ADD42RoundRect,0.050800X1.574800X0.330200X-1.574800X0.330200X-1.574800X-0.330200X1.574800X-0.330200X0*%
%ADD43RoundRect,0.147500X-0.172500X0.147500X-0.172500X-0.147500X0.172500X-0.147500X0.172500X0.147500X0*%
%ADD44R,1.150000X1.400000*%
%ADD45R,1.168400X0.304800*%
%ADD46RoundRect,0.250000X-0.250000X-0.475000X0.250000X-0.475000X0.250000X0.475000X-0.250000X0.475000X0*%
%ADD47RoundRect,0.225000X0.225000X0.250000X-0.225000X0.250000X-0.225000X-0.250000X0.225000X-0.250000X0*%
%ADD48R,0.249999X0.650001*%
%ADD49R,0.650001X0.249999*%
%ADD50RoundRect,0.250000X-0.275000X0.275000X-0.275000X-0.275000X0.275000X-0.275000X0.275000X0.275000X0*%
%ADD51RoundRect,0.062500X-0.062500X0.350000X-0.062500X-0.350000X0.062500X-0.350000X0.062500X0.350000X0*%
%ADD52RoundRect,0.062500X-0.350000X0.062500X-0.350000X-0.062500X0.350000X-0.062500X0.350000X0.062500X0*%
G04 APERTURE END LIST*
D10*
%TO.C,J5*%
X14130000Y19476436D02*
X14130000Y22476436D01*
X16082000Y22476436D01*
X16047000Y22401436D01*
X16021000Y22318436D01*
X16008000Y22233436D01*
X16006000Y22146436D01*
X16016000Y22060436D01*
X16038000Y21977436D01*
X16071000Y21897436D01*
X16115000Y21822436D01*
X16168000Y21755436D01*
X16231000Y21695436D01*
X16301000Y21644436D01*
X16378000Y21604436D01*
X16459000Y21575436D01*
X16544000Y21557436D01*
X16630000Y21551436D01*
X16716000Y21557436D01*
X16801000Y21575436D01*
X16882000Y21604436D01*
X16959000Y21644436D01*
X17029000Y21695436D01*
X17092000Y21755436D01*
X17145000Y21822436D01*
X17189000Y21897436D01*
X17222000Y21977436D01*
X17244000Y22060436D01*
X17254000Y22146436D01*
X17252000Y22233436D01*
X17239000Y22318436D01*
X17213000Y22401436D01*
X17178000Y22476436D01*
X19130000Y22476436D01*
X19130000Y19476436D01*
X14130000Y19476436D01*
G36*
X16047000Y22401436D02*
G01*
X16021000Y22318436D01*
X16008000Y22233436D01*
X16006000Y22146436D01*
X16016000Y22060436D01*
X16038000Y21977436D01*
X16071000Y21897436D01*
X16115000Y21822436D01*
X16168000Y21755436D01*
X16231000Y21695436D01*
X16301000Y21644436D01*
X16378000Y21604436D01*
X16459000Y21575436D01*
X16544000Y21557436D01*
X16630000Y21551436D01*
X16716000Y21557436D01*
X16801000Y21575436D01*
X16882000Y21604436D01*
X16959000Y21644436D01*
X17029000Y21695436D01*
X17092000Y21755436D01*
X17145000Y21822436D01*
X17189000Y21897436D01*
X17222000Y21977436D01*
X17244000Y22060436D01*
X17254000Y22146436D01*
X17252000Y22233436D01*
X17239000Y22318436D01*
X17213000Y22401436D01*
X17178000Y22476436D01*
X19130000Y22476436D01*
X19130000Y19476436D01*
X14130000Y19476436D01*
X14130000Y22476436D01*
X16082000Y22476436D01*
X16047000Y22401436D01*
G37*
%TO.C,U6*%
X9459600Y71893134D02*
X9459600Y73353134D01*
X10919600Y73353134D01*
X10919600Y71893134D01*
X9459600Y71893134D01*
G36*
X10919600Y71893134D02*
G01*
X9459600Y71893134D01*
X9459600Y73353134D01*
X10919600Y73353134D01*
X10919600Y71893134D01*
G37*
X9459600Y69583134D02*
X9459600Y71043134D01*
X10919600Y71043134D01*
X10919600Y69583134D01*
X9459600Y69583134D01*
G36*
X10919600Y69583134D02*
G01*
X9459600Y69583134D01*
X9459600Y71043134D01*
X10919600Y71043134D01*
X10919600Y69583134D01*
G37*
X11769600Y71893134D02*
X11769600Y73353134D01*
X13229600Y73353134D01*
X13229600Y71893134D01*
X11769600Y71893134D01*
G36*
X13229600Y71893134D02*
G01*
X11769600Y71893134D01*
X11769600Y73353134D01*
X13229600Y73353134D01*
X13229600Y71893134D01*
G37*
X11769600Y69583134D02*
X11769600Y71043134D01*
X13229600Y71043134D01*
X13229600Y69583134D01*
X11769600Y69583134D01*
G36*
X13229600Y69583134D02*
G01*
X11769600Y69583134D01*
X11769600Y71043134D01*
X13229600Y71043134D01*
X13229600Y69583134D01*
G37*
%TO.C,J15*%
X175650000Y75106436D02*
X175650000Y72106436D01*
X173698000Y72106436D01*
X173733000Y72181436D01*
X173759000Y72264436D01*
X173772000Y72349436D01*
X173774000Y72436436D01*
X173764000Y72522436D01*
X173742000Y72605436D01*
X173709000Y72685436D01*
X173665000Y72760436D01*
X173612000Y72827436D01*
X173549000Y72887436D01*
X173479000Y72938436D01*
X173402000Y72978436D01*
X173321000Y73007436D01*
X173236000Y73025436D01*
X173150000Y73031436D01*
X173064000Y73025436D01*
X172979000Y73007436D01*
X172898000Y72978436D01*
X172821000Y72938436D01*
X172751000Y72887436D01*
X172688000Y72827436D01*
X172635000Y72760436D01*
X172591000Y72685436D01*
X172558000Y72605436D01*
X172536000Y72522436D01*
X172526000Y72436436D01*
X172528000Y72349436D01*
X172541000Y72264436D01*
X172567000Y72181436D01*
X172602000Y72106436D01*
X170650000Y72106436D01*
X170650000Y75106436D01*
X175650000Y75106436D01*
G36*
X175650000Y72106436D02*
G01*
X173698000Y72106436D01*
X173733000Y72181436D01*
X173759000Y72264436D01*
X173772000Y72349436D01*
X173774000Y72436436D01*
X173764000Y72522436D01*
X173742000Y72605436D01*
X173709000Y72685436D01*
X173665000Y72760436D01*
X173612000Y72827436D01*
X173549000Y72887436D01*
X173479000Y72938436D01*
X173402000Y72978436D01*
X173321000Y73007436D01*
X173236000Y73025436D01*
X173150000Y73031436D01*
X173064000Y73025436D01*
X172979000Y73007436D01*
X172898000Y72978436D01*
X172821000Y72938436D01*
X172751000Y72887436D01*
X172688000Y72827436D01*
X172635000Y72760436D01*
X172591000Y72685436D01*
X172558000Y72605436D01*
X172536000Y72522436D01*
X172526000Y72436436D01*
X172528000Y72349436D01*
X172541000Y72264436D01*
X172567000Y72181436D01*
X172602000Y72106436D01*
X170650000Y72106436D01*
X170650000Y75106436D01*
X175650000Y75106436D01*
X175650000Y72106436D01*
G37*
%TO.C,J12*%
X117192500Y35896436D02*
X117192500Y38896436D01*
X119062500Y38896436D01*
X119062500Y38596436D01*
X119065500Y38530436D01*
X119076500Y38465436D01*
X119093500Y38401436D01*
X119116500Y38340436D01*
X119146500Y38281436D01*
X119182500Y38226436D01*
X119224500Y38174436D01*
X119270500Y38128436D01*
X119322500Y38086436D01*
X119377500Y38050436D01*
X119436500Y38020436D01*
X119497500Y37997436D01*
X119561500Y37980436D01*
X119626500Y37969436D01*
X119692500Y37966436D01*
X119758500Y37969436D01*
X119823500Y37980436D01*
X119887500Y37997436D01*
X119948500Y38020436D01*
X120007500Y38050436D01*
X120062500Y38086436D01*
X120114500Y38128436D01*
X120160500Y38174436D01*
X120202500Y38226436D01*
X120238500Y38281436D01*
X120268500Y38340436D01*
X120291500Y38401436D01*
X120308500Y38465436D01*
X120319500Y38530436D01*
X120322500Y38596436D01*
X120322500Y38896436D01*
X122192500Y38896436D01*
X122192500Y35896436D01*
X117192500Y35896436D01*
G36*
X119062500Y38596436D02*
G01*
X119065500Y38530436D01*
X119076500Y38465436D01*
X119093500Y38401436D01*
X119116500Y38340436D01*
X119146500Y38281436D01*
X119182500Y38226436D01*
X119224500Y38174436D01*
X119270500Y38128436D01*
X119322500Y38086436D01*
X119377500Y38050436D01*
X119436500Y38020436D01*
X119497500Y37997436D01*
X119561500Y37980436D01*
X119626500Y37969436D01*
X119692500Y37966436D01*
X119758500Y37969436D01*
X119823500Y37980436D01*
X119887500Y37997436D01*
X119948500Y38020436D01*
X120007500Y38050436D01*
X120062500Y38086436D01*
X120114500Y38128436D01*
X120160500Y38174436D01*
X120202500Y38226436D01*
X120238500Y38281436D01*
X120268500Y38340436D01*
X120291500Y38401436D01*
X120308500Y38465436D01*
X120319500Y38530436D01*
X120322500Y38596436D01*
X120322500Y38896436D01*
X122192500Y38896436D01*
X122192500Y35896436D01*
X117192500Y35896436D01*
X117192500Y38896436D01*
X119062500Y38896436D01*
X119062500Y38596436D01*
G37*
%TO.C,J11*%
X139540000Y35966436D02*
X139540000Y38966436D01*
X141410000Y38966436D01*
X141410000Y38666436D01*
X141413000Y38600436D01*
X141424000Y38535436D01*
X141441000Y38471436D01*
X141464000Y38410436D01*
X141494000Y38351436D01*
X141530000Y38296436D01*
X141572000Y38244436D01*
X141618000Y38198436D01*
X141670000Y38156436D01*
X141725000Y38120436D01*
X141784000Y38090436D01*
X141845000Y38067436D01*
X141909000Y38050436D01*
X141974000Y38039436D01*
X142040000Y38036436D01*
X142106000Y38039436D01*
X142171000Y38050436D01*
X142235000Y38067436D01*
X142296000Y38090436D01*
X142355000Y38120436D01*
X142410000Y38156436D01*
X142462000Y38198436D01*
X142508000Y38244436D01*
X142550000Y38296436D01*
X142586000Y38351436D01*
X142616000Y38410436D01*
X142639000Y38471436D01*
X142656000Y38535436D01*
X142667000Y38600436D01*
X142670000Y38666436D01*
X142670000Y38966436D01*
X144540000Y38966436D01*
X144540000Y35966436D01*
X139540000Y35966436D01*
G36*
X141410000Y38666436D02*
G01*
X141413000Y38600436D01*
X141424000Y38535436D01*
X141441000Y38471436D01*
X141464000Y38410436D01*
X141494000Y38351436D01*
X141530000Y38296436D01*
X141572000Y38244436D01*
X141618000Y38198436D01*
X141670000Y38156436D01*
X141725000Y38120436D01*
X141784000Y38090436D01*
X141845000Y38067436D01*
X141909000Y38050436D01*
X141974000Y38039436D01*
X142040000Y38036436D01*
X142106000Y38039436D01*
X142171000Y38050436D01*
X142235000Y38067436D01*
X142296000Y38090436D01*
X142355000Y38120436D01*
X142410000Y38156436D01*
X142462000Y38198436D01*
X142508000Y38244436D01*
X142550000Y38296436D01*
X142586000Y38351436D01*
X142616000Y38410436D01*
X142639000Y38471436D01*
X142656000Y38535436D01*
X142667000Y38600436D01*
X142670000Y38666436D01*
X142670000Y38966436D01*
X144540000Y38966436D01*
X144540000Y35966436D01*
X139540000Y35966436D01*
X139540000Y38966436D01*
X141410000Y38966436D01*
X141410000Y38666436D01*
G37*
D11*
%TO.C,U2*%
G36*
X166884227Y26203147D02*
G01*
X166884227Y25723148D01*
X166834227Y25673148D01*
X166074226Y25673148D01*
X166024226Y25723148D01*
X166024226Y26203147D01*
X166074226Y26253149D01*
X166834227Y26253149D01*
X166884227Y26203147D01*
G37*
G36*
X166884227Y25423148D02*
G01*
X166884227Y24943149D01*
X166834227Y24893147D01*
X166074226Y24893147D01*
X166024226Y24943149D01*
X166024226Y25423148D01*
X166074226Y25473148D01*
X166834227Y25473148D01*
X166884227Y25423148D01*
G37*
G36*
X165530227Y26385148D02*
G01*
X165623229Y26323149D01*
X165660226Y26323146D01*
X165710226Y26273149D01*
X165710226Y25773148D01*
X165660226Y25723148D01*
X164898226Y25723148D01*
X164848227Y25773148D01*
X164848227Y26373149D01*
X164898226Y26423149D01*
X165482226Y26423149D01*
X165530227Y26385148D01*
G37*
G36*
X165710226Y25373148D02*
G01*
X165710226Y24873147D01*
X165660226Y24823150D01*
X165623229Y24823150D01*
X165530227Y24761148D01*
X165482226Y24723147D01*
X164898226Y24723147D01*
X164848227Y24773147D01*
X164848227Y25373148D01*
X164898226Y25423148D01*
X165660229Y25423148D01*
X165710226Y25373148D01*
G37*
G36*
X164523226Y27223147D02*
G01*
X164523226Y26748147D01*
X164473226Y26698147D01*
X163998228Y26698147D01*
X163948228Y26748147D01*
X163948226Y26898149D01*
X163998228Y26948149D01*
X164173227Y26948149D01*
X164273226Y27048149D01*
X164273226Y27223147D01*
X164323226Y27273147D01*
X164473229Y27273147D01*
X164523226Y27223147D01*
G37*
G36*
X164523226Y24398149D02*
G01*
X164523226Y23923149D01*
X164473229Y23873149D01*
X164323226Y23873149D01*
X164273226Y23923149D01*
X164273226Y24098147D01*
X164173227Y24198147D01*
X163998228Y24198147D01*
X163948226Y24248147D01*
X163948228Y24398149D01*
X163998228Y24448149D01*
X164473229Y24448149D01*
X164523226Y24398149D01*
G37*
G36*
X167523228Y27223147D02*
G01*
X167523228Y27048149D01*
X167623227Y26948149D01*
X167798226Y26948149D01*
X167848228Y26898149D01*
X167848226Y26748147D01*
X167798226Y26698147D01*
X167323228Y26698147D01*
X167273226Y26748147D01*
X167273228Y27223147D01*
X167323228Y27273147D01*
X167473228Y27273147D01*
X167523228Y27223147D01*
G37*
G36*
X167848226Y24398147D02*
G01*
X167848228Y24248147D01*
X167798226Y24198147D01*
X167623227Y24198147D01*
X167523228Y24098147D01*
X167523228Y23923149D01*
X167473228Y23873149D01*
X167323225Y23873149D01*
X167273228Y23923149D01*
X167273228Y24398149D01*
X167323228Y24448149D01*
X167798226Y24448149D01*
X167848226Y24398147D01*
G37*
G36*
X165023230Y27223147D02*
G01*
X165023227Y26998149D01*
X165073227Y26948149D01*
X165223227Y26948149D01*
X165273227Y26998149D01*
X165273227Y27223147D01*
X165323227Y27273147D01*
X165473227Y27273147D01*
X165523229Y27223147D01*
X165523226Y26673148D01*
X165473227Y26623148D01*
X164798227Y26623148D01*
X164773228Y26648147D01*
X164773228Y27223147D01*
X164823228Y27273147D01*
X164973228Y27273147D01*
X165023230Y27223147D01*
G37*
G36*
X165523226Y24473148D02*
G01*
X165523229Y23923149D01*
X165473227Y23873149D01*
X165323227Y23873149D01*
X165273227Y23923149D01*
X165273230Y24148147D01*
X165223227Y24198147D01*
X165073227Y24198149D01*
X165023227Y24148147D01*
X165023230Y23923149D01*
X164973228Y23873149D01*
X164823228Y23873149D01*
X164773228Y23923149D01*
X164773228Y24498149D01*
X164798227Y24523148D01*
X165473227Y24523148D01*
X165523226Y24473148D01*
G37*
G36*
X166023228Y27223147D02*
G01*
X166023225Y26998149D01*
X166073228Y26948149D01*
X166223228Y26948149D01*
X166273228Y26998149D01*
X166273228Y27223147D01*
X166323227Y27273147D01*
X166473227Y27273147D01*
X166523227Y27223147D01*
X166523227Y26623148D01*
X166473227Y26573149D01*
X165823228Y26573149D01*
X165773226Y26623148D01*
X165773226Y27223147D01*
X165823226Y27273147D01*
X165973226Y27273147D01*
X166023228Y27223147D01*
G37*
G36*
X166523227Y24523148D02*
G01*
X166523227Y23923149D01*
X166473227Y23873149D01*
X166323225Y23873149D01*
X166273228Y23923149D01*
X166273225Y24148147D01*
X166223228Y24198149D01*
X166073228Y24198149D01*
X166023228Y24148147D01*
X166023225Y23923149D01*
X165973228Y23873149D01*
X165823228Y23873149D01*
X165773226Y23923149D01*
X165773226Y24523148D01*
X165823228Y24573147D01*
X166473227Y24573147D01*
X166523227Y24523148D01*
G37*
G36*
X164548227Y26398148D02*
G01*
X164548227Y24748148D01*
X164498227Y24698148D01*
X163998228Y24698148D01*
X163948226Y24748148D01*
X163948228Y24898148D01*
X163998228Y24948148D01*
X164223227Y24948148D01*
X164273226Y24998148D01*
X164273226Y25148148D01*
X164223227Y25198147D01*
X163998228Y25198147D01*
X163948226Y25248147D01*
X163948228Y25398147D01*
X163998228Y25448147D01*
X164223227Y25448150D01*
X164273226Y25498149D01*
X164273226Y25648147D01*
X164223227Y25698149D01*
X163998228Y25698149D01*
X163948226Y25748149D01*
X163948228Y25898149D01*
X163998228Y25948149D01*
X164223227Y25948149D01*
X164273226Y25998148D01*
X164273226Y26148148D01*
X164223227Y26198148D01*
X163998228Y26198148D01*
X163948226Y26248148D01*
X163948228Y26398148D01*
X163998228Y26448148D01*
X164498227Y26448148D01*
X164548227Y26398148D01*
G37*
%TD*%
D12*
%TO.C,U3*%
X119579050Y19021437D03*
X119579050Y18071436D03*
X119579050Y17121435D03*
X122080950Y17121435D03*
X122080950Y18071436D03*
X122080950Y19021437D03*
%TD*%
D13*
%TO.C,C60*%
X123207500Y82396436D03*
X124167500Y82396436D03*
%TD*%
D14*
%TO.C,D4*%
X61394000Y2146436D03*
X63045000Y2146436D03*
%TD*%
%TO.C,D5*%
X30389500Y2146436D03*
X32040500Y2146436D03*
%TD*%
D15*
%TO.C,C17*%
X154710000Y39696436D03*
X154710000Y44522436D03*
%TD*%
D16*
%TO.C,C89*%
X49400000Y12586436D03*
X48440000Y12586436D03*
%TD*%
D17*
%TO.C,C7*%
X164854800Y29438148D03*
X166404800Y29438148D03*
%TD*%
D15*
%TO.C,C80*%
X128830000Y57415186D03*
X128830000Y62241186D03*
%TD*%
D16*
%TO.C,C82*%
X126484643Y51836436D03*
X125524643Y51836436D03*
%TD*%
D18*
%TO.C,R25*%
X18145000Y71446436D03*
X16495000Y71446436D03*
%TD*%
D16*
%TO.C,C28*%
X8614600Y67248134D03*
X7654600Y67248134D03*
%TD*%
D19*
%TO.C,C68*%
X128100000Y72296436D03*
X128100000Y73256436D03*
%TD*%
D20*
%TO.C,R1*%
X119925000Y15311436D03*
X121575000Y15311436D03*
%TD*%
D21*
%TO.C,SW1*%
X134820000Y10246436D03*
X134820000Y2286436D03*
X130320000Y10246436D03*
X130320000Y2286436D03*
%TD*%
D22*
%TO.C,R36*%
X10450000Y27921436D03*
X10450000Y26271436D03*
%TD*%
D13*
%TO.C,C88*%
X86270000Y82006436D03*
X87230000Y82006436D03*
%TD*%
D14*
%TO.C,D2*%
X141289000Y2996436D03*
X142940000Y2996436D03*
%TD*%
D23*
%TO.C,JP8*%
X131347500Y88236436D03*
X131347500Y86686436D03*
X131347500Y85136436D03*
%TD*%
D24*
%TO.C,C19*%
X155080000Y32786436D03*
X155080000Y30886436D03*
%TD*%
D16*
%TO.C,C46*%
X23320000Y48519769D03*
X22360000Y48519769D03*
%TD*%
D25*
%TO.C,JP3*%
X122602500Y73526436D03*
X122602500Y71976436D03*
X122602500Y70426436D03*
%TD*%
D26*
%TO.C,R29*%
X118940000Y80211436D03*
X118940000Y81861436D03*
%TD*%
D13*
%TO.C,C56*%
X123207500Y81476436D03*
X124167500Y81476436D03*
%TD*%
D27*
%TO.C,C85*%
X121790000Y84606436D03*
X121790000Y86506436D03*
%TD*%
D28*
%TO.C,C3*%
X164385000Y31326436D03*
X167335000Y31326436D03*
%TD*%
D29*
%TO.C,J13*%
X89750000Y88887438D03*
X90000000Y81337435D03*
X90249999Y88887438D03*
X90499999Y81337435D03*
X90749998Y88887438D03*
X90999998Y81337435D03*
X91250000Y88887438D03*
X91500000Y81337435D03*
X91749999Y88887438D03*
X91999999Y81337435D03*
X92249998Y88887438D03*
X92499999Y81337435D03*
X92749998Y88887438D03*
X92999998Y81337435D03*
X93249999Y88887438D03*
X93499999Y81337435D03*
X93749998Y88887438D03*
X93999998Y81337435D03*
X94250000Y88887438D03*
X94500000Y81337435D03*
X94749999Y88887438D03*
X94999999Y81337435D03*
X95249998Y88887438D03*
X95499998Y81337435D03*
X95749999Y88887438D03*
X95999999Y81337435D03*
X96249998Y88887438D03*
X96499998Y81337435D03*
X96750000Y88887438D03*
X97000000Y81337435D03*
X97249999Y88887438D03*
X97499999Y81337435D03*
X97749998Y88887438D03*
X97999998Y81337435D03*
X98250000Y88887438D03*
X98500000Y81337435D03*
X98749999Y88887438D03*
X98999999Y81337435D03*
X99250000Y88887438D03*
X99500000Y81337435D03*
X99749999Y88887438D03*
X99999999Y81337435D03*
X100249998Y88887438D03*
X100499998Y81337435D03*
X100750000Y88887438D03*
X101000000Y81337435D03*
X101249999Y88887438D03*
X101499999Y81337435D03*
X101750000Y88887438D03*
X102000000Y81337435D03*
X102249999Y88887438D03*
X102499999Y81337435D03*
X102749998Y88887438D03*
X102999998Y81337435D03*
X103250000Y88887438D03*
X103500000Y81337435D03*
X103749999Y88887438D03*
X103999999Y81337435D03*
X106250000Y88887438D03*
X106500000Y81337435D03*
X106749999Y88887438D03*
X106999999Y81337435D03*
X107249998Y88887438D03*
X107499998Y81337435D03*
X107750000Y88887438D03*
X108000000Y81337435D03*
X108249999Y88887438D03*
D30*
X88650000Y88112436D03*
X109349999Y88112436D03*
%TD*%
D25*
%TO.C,JP14*%
X166240000Y57106436D03*
X166240000Y58656436D03*
X166240000Y60206436D03*
%TD*%
D16*
%TO.C,C49*%
X49400000Y11656436D03*
X48440000Y11656436D03*
%TD*%
D19*
%TO.C,C25*%
X15194163Y66356761D03*
X15194163Y67316761D03*
%TD*%
D24*
%TO.C,C14*%
X159010000Y32786436D03*
X159010000Y30886436D03*
%TD*%
D13*
%TO.C,C37*%
X6349600Y72338134D03*
X7309600Y72338134D03*
%TD*%
D20*
%TO.C,R7*%
X169459800Y20918148D03*
X171109800Y20918148D03*
%TD*%
D22*
%TO.C,R10*%
X126259800Y12856436D03*
X126259800Y11206436D03*
%TD*%
D13*
%TO.C,C10*%
X165154800Y28243148D03*
X166114800Y28243148D03*
%TD*%
D23*
%TO.C,JP12*%
X23360000Y7356436D03*
X23360000Y5806436D03*
X23360000Y4256436D03*
%TD*%
D16*
%TO.C,C64*%
X136347500Y75474740D03*
X135387500Y75474740D03*
%TD*%
D28*
%TO.C,C4*%
X164345000Y19876436D03*
X167295000Y19876436D03*
%TD*%
D16*
%TO.C,C81*%
X126480000Y50916436D03*
X125520000Y50916436D03*
%TD*%
D23*
%TO.C,JP6*%
X132757500Y88236436D03*
X132757500Y86686436D03*
X132757500Y85136436D03*
%TD*%
D31*
%TO.C,D1*%
X147965000Y4516436D03*
X152295000Y4516436D03*
%TD*%
D20*
%TO.C,R38*%
X58220000Y2146436D03*
X59870000Y2146436D03*
%TD*%
D22*
%TO.C,R4*%
X172479800Y31303148D03*
X172479800Y29653148D03*
%TD*%
D16*
%TO.C,C67*%
X137250000Y83286436D03*
X136290000Y83286436D03*
%TD*%
D27*
%TO.C,C27*%
X15160000Y78226436D03*
X15160000Y80126436D03*
%TD*%
D25*
%TO.C,JP2*%
X121177500Y73526436D03*
X121177500Y71976436D03*
X121177500Y70426436D03*
%TD*%
D20*
%TO.C,R28*%
X27145000Y2146436D03*
X28795000Y2146436D03*
%TD*%
%TO.C,R34*%
X135522500Y74144740D03*
X137172500Y74144740D03*
%TD*%
D32*
%TO.C,C51*%
X130097500Y85846436D03*
X130097500Y84886436D03*
%TD*%
D13*
%TO.C,C87*%
X86270000Y82936436D03*
X87230000Y82936436D03*
%TD*%
D25*
%TO.C,JP4*%
X119752500Y73526436D03*
X119752500Y71976436D03*
X119752500Y70426436D03*
%TD*%
D18*
%TO.C,R16*%
X5816496Y66078134D03*
X4166496Y66078134D03*
%TD*%
D32*
%TO.C,C32*%
X13059600Y77188134D03*
X13059600Y76228134D03*
%TD*%
D26*
%TO.C,R26*%
X118740000Y76271436D03*
X118740000Y77921436D03*
%TD*%
D19*
%TO.C,C30*%
X11339600Y65688134D03*
X11339600Y66648134D03*
%TD*%
D33*
%TO.C,U7*%
X117212500Y81550186D03*
X116262500Y81550186D03*
X115312500Y81550186D03*
X115312500Y79075186D03*
X117212500Y79075186D03*
%TD*%
D32*
%TO.C,C54*%
X126217500Y85851436D03*
X126217500Y84891436D03*
%TD*%
%TO.C,C73*%
X129020000Y73266436D03*
X129020000Y72306436D03*
%TD*%
D13*
%TO.C,C38*%
X4504600Y69118134D03*
X5464600Y69118134D03*
%TD*%
D16*
%TO.C,C69*%
X124100000Y80496436D03*
X123140000Y80496436D03*
%TD*%
D13*
%TO.C,C8*%
X165154800Y22973148D03*
X166114800Y22973148D03*
%TD*%
D18*
%TO.C,R23*%
X18159600Y69518134D03*
X16509600Y69518134D03*
%TD*%
D29*
%TO.C,J14*%
X59270000Y88887438D03*
X59520000Y81337435D03*
X59769999Y88887438D03*
X60019999Y81337435D03*
X60269998Y88887438D03*
X60519998Y81337435D03*
X60770000Y88887438D03*
X61020000Y81337435D03*
X61269999Y88887438D03*
X61519999Y81337435D03*
X61769998Y88887438D03*
X62019999Y81337435D03*
X62269998Y88887438D03*
X62519998Y81337435D03*
X62769999Y88887438D03*
X63019999Y81337435D03*
X63269998Y88887438D03*
X63519998Y81337435D03*
X63770000Y88887438D03*
X64020000Y81337435D03*
X64269999Y88887438D03*
X64519999Y81337435D03*
X64769998Y88887438D03*
X65019998Y81337435D03*
X65269999Y88887438D03*
X65519999Y81337435D03*
X65769998Y88887438D03*
X66019998Y81337435D03*
X66270000Y88887438D03*
X66520000Y81337435D03*
X66769999Y88887438D03*
X67019999Y81337435D03*
X67269998Y88887438D03*
X67519998Y81337435D03*
X67770000Y88887438D03*
X68020000Y81337435D03*
X68269999Y88887438D03*
X68519999Y81337435D03*
X68770000Y88887438D03*
X69020000Y81337435D03*
X69269999Y88887438D03*
X69519999Y81337435D03*
X69769998Y88887438D03*
X70019998Y81337435D03*
X70270000Y88887438D03*
X70520000Y81337435D03*
X70769999Y88887438D03*
X71019999Y81337435D03*
X71270000Y88887438D03*
X71520000Y81337435D03*
X71769999Y88887438D03*
X72019999Y81337435D03*
X72269998Y88887438D03*
X72519998Y81337435D03*
X72770000Y88887438D03*
X73020000Y81337435D03*
X73269999Y88887438D03*
X73519999Y81337435D03*
X75770000Y88887438D03*
X76020000Y81337435D03*
X76269999Y88887438D03*
X76519999Y81337435D03*
X76769998Y88887438D03*
X77019998Y81337435D03*
X77270000Y88887438D03*
X77520000Y81337435D03*
X77769999Y88887438D03*
D30*
X58170000Y88112436D03*
X78869999Y88112436D03*
%TD*%
D32*
%TO.C,C35*%
X12129600Y77188134D03*
X12129600Y76228134D03*
%TD*%
D26*
%TO.C,R12*%
X169534800Y25243148D03*
X169534800Y26893148D03*
%TD*%
D24*
%TO.C,C15*%
X157070000Y20346436D03*
X157070000Y18446436D03*
%TD*%
D18*
%TO.C,R9*%
X171109800Y22378148D03*
X169459800Y22378148D03*
%TD*%
D19*
%TO.C,C55*%
X131390000Y72326436D03*
X131390000Y73286436D03*
%TD*%
D34*
%TO.C,L3*%
X115560000Y83866436D03*
X117710000Y83866436D03*
%TD*%
D18*
%TO.C,R2*%
X121575000Y13841436D03*
X119925000Y13841436D03*
%TD*%
D13*
%TO.C,C48*%
X135360000Y78066436D03*
X136320000Y78066436D03*
%TD*%
%TO.C,C57*%
X123207500Y83316436D03*
X124167500Y83316436D03*
%TD*%
D14*
%TO.C,D3*%
X91754500Y2086436D03*
X93405500Y2086436D03*
%TD*%
D35*
%TO.C,L1*%
X160120000Y25636436D03*
X152500000Y25636436D03*
%TD*%
D32*
%TO.C,C59*%
X133877500Y85846436D03*
X133877500Y84886436D03*
%TD*%
D24*
%TO.C,C23*%
X16790000Y66646436D03*
X16790000Y64746436D03*
%TD*%
D36*
%TO.C,J5*%
X20230000Y56976436D03*
X20230000Y55976436D03*
X20230000Y54976436D03*
X20230000Y53976436D03*
X20230000Y52976436D03*
X20230000Y51976436D03*
X20230000Y50976436D03*
X20230000Y49976436D03*
X20230000Y48976436D03*
X20230000Y47976436D03*
X20230000Y46976436D03*
X20230000Y43976436D03*
X20230000Y42976436D03*
X20230000Y41976436D03*
X20230000Y40976436D03*
X20230000Y39976436D03*
X20230000Y38976436D03*
X20230000Y37976436D03*
X20230000Y36976436D03*
X20230000Y35976436D03*
X20230000Y34976436D03*
X20230000Y33976436D03*
X20230000Y32976436D03*
X20230000Y31976436D03*
X20230000Y30976436D03*
X20230000Y29976436D03*
X20230000Y28976436D03*
X20230000Y27976436D03*
X20230000Y26976436D03*
X20230000Y25976436D03*
X20230000Y24976436D03*
X20230000Y23976436D03*
X13030000Y56976436D03*
X13030000Y55976436D03*
X13030000Y54976436D03*
X13030000Y53976436D03*
X13030000Y52976436D03*
X13030000Y51976436D03*
X13030000Y50976436D03*
X13030000Y49976436D03*
X13030000Y48976436D03*
X13030000Y47976436D03*
X13030000Y46976436D03*
X13030000Y43976436D03*
X13030000Y42976436D03*
X13030000Y41976436D03*
X13030000Y40976436D03*
X13030000Y39976436D03*
X13030000Y38976436D03*
X13030000Y37976436D03*
X13030000Y36976436D03*
X13030000Y35976436D03*
X13030000Y34976436D03*
X13030000Y33976436D03*
X13030000Y32976436D03*
X13030000Y31976436D03*
X13030000Y30976436D03*
X13030000Y29976436D03*
X13030000Y28976436D03*
X13030000Y27976436D03*
X13030000Y26976436D03*
X13030000Y25976436D03*
X13030000Y24976436D03*
X13030000Y23976436D03*
D37*
X16630000Y59976436D03*
%TD*%
D19*
%TO.C,C58*%
X133800000Y72676436D03*
X133800000Y73636436D03*
%TD*%
D13*
%TO.C,C62*%
X123207500Y75476436D03*
X124167500Y75476436D03*
%TD*%
D24*
%TO.C,C13*%
X159040000Y20346436D03*
X159040000Y18446436D03*
%TD*%
D18*
%TO.C,R19*%
X5816496Y67538134D03*
X4166496Y67538134D03*
%TD*%
D23*
%TO.C,JP7*%
X124027500Y73526436D03*
X124027500Y71976436D03*
X124027500Y70426436D03*
%TD*%
D25*
%TO.C,C9*%
X163039800Y22248148D03*
X163039800Y23798148D03*
%TD*%
D38*
%TO.C,FB3*%
X16729600Y77453134D03*
X16729600Y78423134D03*
%TD*%
D25*
%TO.C,JP5*%
X118327500Y73526436D03*
X118327500Y71976436D03*
X118327500Y70426436D03*
%TD*%
D16*
%TO.C,C45*%
X23320000Y49449769D03*
X22360000Y49449769D03*
%TD*%
D38*
%TO.C,FB1*%
X18320000Y65971436D03*
X18320000Y66941436D03*
%TD*%
D39*
%TO.C,U6*%
X9144600Y68533134D03*
X9544600Y68533134D03*
X9944600Y68533134D03*
X10344600Y68533134D03*
X10744600Y68533134D03*
X11144600Y68533134D03*
X11544600Y68533134D03*
X11944600Y68533134D03*
X12344600Y68533134D03*
X12744600Y68533134D03*
X13144600Y68533134D03*
X13544600Y68533134D03*
D40*
X14279600Y69268134D03*
X14279600Y69668134D03*
X14279600Y70068134D03*
X14279600Y70468134D03*
X14279600Y70868134D03*
X14279600Y71268134D03*
X14279600Y71668134D03*
X14279600Y72068134D03*
X14279600Y72468134D03*
X14279600Y72868134D03*
X14279600Y73268134D03*
X14279600Y73668134D03*
D39*
X13544600Y74403134D03*
X13144600Y74403134D03*
X12744600Y74403134D03*
X12344600Y74403134D03*
X11944600Y74403134D03*
X11544600Y74403134D03*
X11144600Y74403134D03*
X10744600Y74403134D03*
X10344600Y74403134D03*
X9944600Y74403134D03*
X9544600Y74403134D03*
X9144600Y74403134D03*
D40*
X8409600Y73668134D03*
X8409600Y73268134D03*
X8409600Y72868134D03*
X8409600Y72468134D03*
X8409600Y72068134D03*
X8409600Y71668134D03*
X8409600Y71268134D03*
X8409600Y70868134D03*
X8409600Y70468134D03*
X8409600Y70068134D03*
X8409600Y69668134D03*
X8409600Y69268134D03*
%TD*%
D19*
%TO.C,C71*%
X128190000Y87006436D03*
X128190000Y87966436D03*
%TD*%
D15*
%TO.C,C41*%
X162230000Y39696436D03*
X162230000Y44522436D03*
%TD*%
D16*
%TO.C,C31*%
X17230000Y73556436D03*
X16270000Y73556436D03*
%TD*%
D18*
%TO.C,R18*%
X5809600Y70568134D03*
X4159600Y70568134D03*
%TD*%
D41*
%TO.C,C44*%
X5900000Y49076436D03*
X5900000Y44250436D03*
%TD*%
D16*
%TO.C,C22*%
X131790000Y21381436D03*
X130830000Y21381436D03*
%TD*%
D24*
%TO.C,C21*%
X153110000Y32786436D03*
X153110000Y30886436D03*
%TD*%
D23*
%TO.C,C12*%
X172489800Y26838148D03*
X172489800Y25288148D03*
%TD*%
D29*
%TO.C,J7*%
X45830000Y4696434D03*
X45580000Y12246437D03*
X45330001Y4696434D03*
X45080001Y12246437D03*
X44830002Y4696434D03*
X44580002Y12246437D03*
X44330000Y4696434D03*
X44080000Y12246437D03*
X43830001Y4696434D03*
X43580001Y12246437D03*
X43330002Y4696434D03*
X43080001Y12246437D03*
X42830002Y4696434D03*
X42580002Y12246437D03*
X42330001Y4696434D03*
X42080001Y12246437D03*
X41830002Y4696434D03*
X41580002Y12246437D03*
X41330000Y4696434D03*
X41080000Y12246437D03*
X40830001Y4696434D03*
X40580001Y12246437D03*
X40330002Y4696434D03*
X40080002Y12246437D03*
X39830001Y4696434D03*
X39580001Y12246437D03*
X39330002Y4696434D03*
X39080002Y12246437D03*
X38830000Y4696434D03*
X38580000Y12246437D03*
X38330001Y4696434D03*
X38080001Y12246437D03*
X37830002Y4696434D03*
X37580002Y12246437D03*
X37330000Y4696434D03*
X37080000Y12246437D03*
X36830001Y4696434D03*
X36580001Y12246437D03*
X36330000Y4696434D03*
X36080000Y12246437D03*
X35830001Y4696434D03*
X35580001Y12246437D03*
X35330002Y4696434D03*
X35080002Y12246437D03*
X34830000Y4696434D03*
X34580000Y12246437D03*
X34330001Y4696434D03*
X34080001Y12246437D03*
X33830000Y4696434D03*
X33580000Y12246437D03*
X33330001Y4696434D03*
X33080001Y12246437D03*
X32830002Y4696434D03*
X32580002Y12246437D03*
X32330000Y4696434D03*
X32080000Y12246437D03*
X31830001Y4696434D03*
X31580001Y12246437D03*
X29330000Y4696434D03*
X29080000Y12246437D03*
X28830001Y4696434D03*
X28580001Y12246437D03*
X28330002Y4696434D03*
X28080002Y12246437D03*
X27830000Y4696434D03*
X27580000Y12246437D03*
X27330001Y4696434D03*
D30*
X46930000Y5471436D03*
X26230001Y5471436D03*
%TD*%
D20*
%TO.C,R3*%
X16000000Y76206436D03*
X17650000Y76206436D03*
%TD*%
D13*
%TO.C,C83*%
X55820000Y81116436D03*
X56780000Y81116436D03*
%TD*%
D20*
%TO.C,R21*%
X164695000Y83496436D03*
X166345000Y83496436D03*
%TD*%
D13*
%TO.C,C76*%
X136320000Y80826436D03*
X137280000Y80826436D03*
%TD*%
D16*
%TO.C,C79*%
X148830000Y51976436D03*
X147870000Y51976436D03*
%TD*%
D32*
%TO.C,C53*%
X129177500Y85846436D03*
X129177500Y84886436D03*
%TD*%
D13*
%TO.C,C47*%
X135370000Y77146436D03*
X136330000Y77146436D03*
%TD*%
D19*
%TO.C,C52*%
X127180000Y72306436D03*
X127180000Y73266436D03*
%TD*%
D16*
%TO.C,C29*%
X10444600Y67248134D03*
X9484600Y67248134D03*
%TD*%
D20*
%TO.C,R35*%
X43200000Y2916436D03*
X44850000Y2916436D03*
%TD*%
D19*
%TO.C,C11*%
X163279800Y26298148D03*
X163279800Y27258148D03*
%TD*%
D13*
%TO.C,C66*%
X123200000Y78486436D03*
X124160000Y78486436D03*
%TD*%
D25*
%TO.C,JP1*%
X135037500Y88236436D03*
X135037500Y86686436D03*
X135037500Y85136436D03*
%TD*%
D16*
%TO.C,C70*%
X124100000Y79486436D03*
X123140000Y79486436D03*
%TD*%
D18*
%TO.C,R17*%
X5799600Y77578134D03*
X4149600Y77578134D03*
%TD*%
D42*
%TO.C,C2*%
X152221250Y10176436D03*
X147395250Y10176436D03*
%TD*%
D24*
%TO.C,C16*%
X157050000Y32786436D03*
X157050000Y30886436D03*
%TD*%
D13*
%TO.C,C1*%
X120840000Y12641436D03*
X121800000Y12641436D03*
%TD*%
D16*
%TO.C,C26*%
X16339600Y68328134D03*
X15379600Y68328134D03*
%TD*%
D43*
%TO.C,FB2*%
X6969600Y79323134D03*
X6969600Y78353134D03*
%TD*%
D22*
%TO.C,R32*%
X125480000Y73461436D03*
X125480000Y71811436D03*
%TD*%
D26*
%TO.C,R27*%
X120510000Y81421436D03*
X120510000Y83071436D03*
%TD*%
%TO.C,R6*%
X171019800Y29653148D03*
X171019800Y31303148D03*
%TD*%
D20*
%TO.C,R15*%
X4149600Y79038134D03*
X5799600Y79038134D03*
%TD*%
D32*
%TO.C,C34*%
X11204600Y77188134D03*
X11204600Y76228134D03*
%TD*%
D36*
%TO.C,J15*%
X169550000Y37606436D03*
X169550000Y38606436D03*
X169550000Y39606436D03*
X169550000Y40606436D03*
X169550000Y41606436D03*
X169550000Y42606436D03*
X169550000Y43606436D03*
X169550000Y44606436D03*
X169550000Y45606436D03*
X169550000Y46606436D03*
X169550000Y47606436D03*
X169550000Y50606436D03*
X169550000Y51606436D03*
X169550000Y52606436D03*
X169550000Y53606436D03*
X169550000Y54606436D03*
X169550000Y55606436D03*
X169550000Y56606436D03*
X169550000Y57606436D03*
X169550000Y58606436D03*
X169550000Y59606436D03*
X169550000Y60606436D03*
X169550000Y61606436D03*
X169550000Y62606436D03*
X169550000Y63606436D03*
X169550000Y64606436D03*
X169550000Y65606436D03*
X169550000Y66606436D03*
X169550000Y67606436D03*
X169550000Y68606436D03*
X169550000Y69606436D03*
X169550000Y70606436D03*
X176750000Y37606436D03*
X176750000Y38606436D03*
X176750000Y39606436D03*
X176750000Y40606436D03*
X176750000Y41606436D03*
X176750000Y42606436D03*
X176750000Y43606436D03*
X176750000Y44606436D03*
X176750000Y45606436D03*
X176750000Y46606436D03*
X176750000Y47606436D03*
X176750000Y50606436D03*
X176750000Y51606436D03*
X176750000Y52606436D03*
X176750000Y53606436D03*
X176750000Y54606436D03*
X176750000Y55606436D03*
X176750000Y56606436D03*
X176750000Y57606436D03*
X176750000Y58606436D03*
X176750000Y59606436D03*
X176750000Y60606436D03*
X176750000Y61606436D03*
X176750000Y62606436D03*
X176750000Y63606436D03*
X176750000Y64606436D03*
X176750000Y65606436D03*
X176750000Y66606436D03*
X176750000Y67606436D03*
X176750000Y68606436D03*
X176750000Y69606436D03*
X176750000Y70606436D03*
D37*
X173150000Y34606436D03*
%TD*%
D19*
%TO.C,C72*%
X127220000Y87006436D03*
X127220000Y87966436D03*
%TD*%
D13*
%TO.C,C63*%
X123207500Y76976436D03*
X124167500Y76976436D03*
%TD*%
D44*
%TO.C,Y1*%
X8244600Y65818134D03*
X8244600Y63618134D03*
X9844600Y63618134D03*
X9844600Y65818134D03*
%TD*%
D16*
%TO.C,C6*%
X171971221Y28229569D03*
X171011221Y28229569D03*
%TD*%
D17*
%TO.C,C5*%
X164859800Y21778148D03*
X166409800Y21778148D03*
%TD*%
D45*
%TO.C,U4*%
X124929800Y20441436D03*
X124929800Y19791435D03*
X124929800Y19141437D03*
X124929800Y18491435D03*
X124929800Y17841437D03*
X124929800Y17191438D03*
X124929800Y16541437D03*
X124929800Y15891438D03*
X124929800Y15241437D03*
X124929800Y14591438D03*
X130670200Y14591436D03*
X130670200Y15241434D03*
X130670200Y15891435D03*
X130670200Y16541434D03*
X130670200Y17191435D03*
X130670200Y17841434D03*
X130670200Y18491435D03*
X130670200Y19141434D03*
X130670200Y19791435D03*
X130670200Y20441434D03*
%TD*%
D24*
%TO.C,C20*%
X153140000Y20346436D03*
X153140000Y18446436D03*
%TD*%
D20*
%TO.C,R20*%
X164695000Y84976436D03*
X166345000Y84976436D03*
%TD*%
D13*
%TO.C,C36*%
X6349600Y73268134D03*
X7309600Y73268134D03*
%TD*%
D46*
%TO.C,C50*%
X115280000Y75906436D03*
X117180000Y75906436D03*
%TD*%
D22*
%TO.C,R22*%
X14004163Y66431761D03*
X14004163Y64781761D03*
%TD*%
%TO.C,R24*%
X172531221Y23904569D03*
X172531221Y22254569D03*
%TD*%
D20*
%TO.C,R37*%
X88707000Y2036436D03*
X90357000Y2036436D03*
%TD*%
D16*
%TO.C,C65*%
X136340000Y78986436D03*
X135380000Y78986436D03*
%TD*%
D15*
%TO.C,C77*%
X151290000Y57415186D03*
X151290000Y62241186D03*
%TD*%
D36*
%TO.C,J12*%
X123292500Y59396436D03*
X123292500Y58396436D03*
X123292500Y57396436D03*
X123292500Y56396436D03*
X123292500Y55396436D03*
X123292500Y54396436D03*
X123292500Y53396436D03*
X123292500Y52396436D03*
X123292500Y51396436D03*
X123292500Y50396436D03*
X123292500Y49396436D03*
X123292500Y46396436D03*
X123292500Y45396436D03*
X123292500Y44396436D03*
X123292500Y43396436D03*
X123292500Y42396436D03*
X123292500Y41396436D03*
X123292500Y40396436D03*
X116092500Y59396436D03*
X116092500Y58396436D03*
X116092500Y57396436D03*
X116092500Y56396436D03*
X116092500Y55396436D03*
X116092500Y54396436D03*
X116092500Y53396436D03*
X116092500Y52396436D03*
X116092500Y51396436D03*
X116092500Y50396436D03*
X116092500Y49396436D03*
X116092500Y46396436D03*
X116092500Y45396436D03*
X116092500Y44396436D03*
X116092500Y43396436D03*
X116092500Y42396436D03*
X116092500Y41396436D03*
X116092500Y40396436D03*
D37*
X119692500Y62396436D03*
%TD*%
D13*
%TO.C,C84*%
X55830000Y80196436D03*
X56790000Y80196436D03*
%TD*%
%TO.C,C75*%
X136320000Y79906436D03*
X137280000Y79906436D03*
%TD*%
D26*
%TO.C,R13*%
X171009800Y25233148D03*
X171009800Y26883148D03*
%TD*%
D27*
%TO.C,C24*%
X8500000Y78636436D03*
X8500000Y80536436D03*
%TD*%
D20*
%TO.C,R11*%
X138289500Y2986436D03*
X139939500Y2986436D03*
%TD*%
D26*
%TO.C,R33*%
X125017500Y85041436D03*
X125017500Y86691436D03*
%TD*%
D47*
%TO.C,JP13*%
X9690000Y37796436D03*
X8140000Y37796436D03*
X6590000Y37796436D03*
%TD*%
D16*
%TO.C,C40*%
X6029600Y84358134D03*
X5069600Y84358134D03*
%TD*%
D18*
%TO.C,R8*%
X171109800Y23838148D03*
X169459800Y23838148D03*
%TD*%
D36*
%TO.C,J11*%
X145640000Y59466436D03*
X145640000Y58466436D03*
X145640000Y57466436D03*
X145640000Y56466436D03*
X145640000Y55466436D03*
X145640000Y54466436D03*
X145640000Y53466436D03*
X145640000Y52466436D03*
X145640000Y51466436D03*
X145640000Y50466436D03*
X145640000Y49466436D03*
X145640000Y46466436D03*
X145640000Y45466436D03*
X145640000Y44466436D03*
X145640000Y43466436D03*
X145640000Y42466436D03*
X145640000Y41466436D03*
X145640000Y40466436D03*
X138440000Y59466436D03*
X138440000Y58466436D03*
X138440000Y57466436D03*
X138440000Y56466436D03*
X138440000Y55466436D03*
X138440000Y54466436D03*
X138440000Y53466436D03*
X138440000Y52466436D03*
X138440000Y51466436D03*
X138440000Y50466436D03*
X138440000Y49466436D03*
X138440000Y46466436D03*
X138440000Y45466436D03*
X138440000Y44466436D03*
X138440000Y43466436D03*
X138440000Y42466436D03*
X138440000Y41466436D03*
X138440000Y40466436D03*
D37*
X142040000Y62466436D03*
%TD*%
D13*
%TO.C,C42*%
X166740000Y45046436D03*
X167700000Y45046436D03*
%TD*%
D16*
%TO.C,C61*%
X137260000Y82366436D03*
X136300000Y82366436D03*
%TD*%
%TO.C,C78*%
X148830000Y51056436D03*
X147870000Y51056436D03*
%TD*%
D22*
%TO.C,R5*%
X124799800Y12856436D03*
X124799800Y11206436D03*
%TD*%
D25*
%TO.C,C39*%
X12539600Y64833134D03*
X12539600Y66383134D03*
%TD*%
D33*
%TO.C,U5*%
X5930800Y82985634D03*
X4980800Y82985634D03*
X4030800Y82985634D03*
X4030800Y80710634D03*
X5930800Y80710634D03*
%TD*%
D48*
%TO.C,U2*%
X166898228Y26948149D03*
X166898228Y24198147D03*
D49*
X167523228Y24823147D03*
X167523228Y25323148D03*
X167523228Y25823148D03*
X167523228Y26323149D03*
%TD*%
D32*
%TO.C,C74*%
X129940000Y73266436D03*
X129940000Y72306436D03*
%TD*%
D13*
%TO.C,C43*%
X166740000Y45976436D03*
X167700000Y45976436D03*
%TD*%
D16*
%TO.C,C33*%
X17230000Y72636436D03*
X16270000Y72636436D03*
%TD*%
D24*
%TO.C,C18*%
X155100000Y20346436D03*
X155100000Y18446436D03*
%TD*%
D18*
%TO.C,R14*%
X121595000Y20641436D03*
X119945000Y20641436D03*
%TD*%
D50*
%TO.C,U8*%
X131690000Y81176436D03*
X130390000Y81176436D03*
X129090000Y81176436D03*
X127790000Y81176436D03*
X131690000Y79876436D03*
X130390000Y79876436D03*
X129090000Y79876436D03*
X127790000Y79876436D03*
X131690000Y78576436D03*
X130390000Y78576436D03*
X129090000Y78576436D03*
X127790000Y78576436D03*
X131690000Y77276436D03*
X130390000Y77276436D03*
X129090000Y77276436D03*
X127790000Y77276436D03*
D51*
X133490000Y83663936D03*
X132990000Y83663936D03*
X132490000Y83663936D03*
X131990000Y83663936D03*
X131490000Y83663936D03*
X130990000Y83663936D03*
X130490000Y83663936D03*
X129990000Y83663936D03*
X129490000Y83663936D03*
X128990000Y83663936D03*
X128490000Y83663936D03*
X127990000Y83663936D03*
X127490000Y83663936D03*
X126990000Y83663936D03*
X126490000Y83663936D03*
X125990000Y83663936D03*
D52*
X125302500Y82976436D03*
X125302500Y82476436D03*
X125302500Y81976436D03*
X125302500Y81476436D03*
X125302500Y80976436D03*
X125302500Y80476436D03*
X125302500Y79976436D03*
X125302500Y79476436D03*
X125302500Y78976436D03*
X125302500Y78476436D03*
X125302500Y77976436D03*
X125302500Y77476436D03*
X125302500Y76976436D03*
X125302500Y76476436D03*
X125302500Y75976436D03*
X125302500Y75476436D03*
D51*
X125990000Y74788936D03*
X126490000Y74788936D03*
X126990000Y74788936D03*
X127490000Y74788936D03*
X127990000Y74788936D03*
X128490000Y74788936D03*
X128990000Y74788936D03*
X129490000Y74788936D03*
X129990000Y74788936D03*
X130490000Y74788936D03*
X130990000Y74788936D03*
X131490000Y74788936D03*
X131990000Y74788936D03*
X132490000Y74788936D03*
X132990000Y74788936D03*
X133490000Y74788936D03*
D52*
X134177500Y75476436D03*
X134177500Y75976436D03*
X134177500Y76476436D03*
X134177500Y76976436D03*
X134177500Y77476436D03*
X134177500Y77976436D03*
X134177500Y78476436D03*
X134177500Y78976436D03*
X134177500Y79476436D03*
X134177500Y79976436D03*
X134177500Y80476436D03*
X134177500Y80976436D03*
X134177500Y81476436D03*
X134177500Y81976436D03*
X134177500Y82476436D03*
X134177500Y82976436D03*
%TD*%
M02*
