%TF.GenerationSoftware,KiCad,Pcbnew,10.0.6*%
%TF.CreationDate,2026-10-06T12:53:37-07:00*%
%TF.ProjectId,openpci2-backplane,6f70656e-7063-4693-922d-6261636b706c,RevB*%
%TF.SameCoordinates,PX1239870PY922f724*%
%TF.FileFunction,Soldermask,Top*%
%TF.FilePolarity,Negative*%
%FSLAX46Y46*%
G04 Gerber Fmt 4.6, Leading zero omitted, Abs format (unit mm)*
G04 Created by KiCad (PCBNEW 10.0.6) date 2026-10-06 12:53:37*
%MOMM*%
%LPD*%
G01*
G04 APERTURE LIST*
G04 Aperture macros list*
%AMRoundRect*
0 Rectangle with rounded corners*
0 $1 Rounding radius*
0 $2 $3 $4 $5 $6 $7 $8 $9 X,Y pos of 4 corners*
0 Add a 4 corners polygon primitive as box body*
4,1,4,$2,$3,$4,$5,$6,$7,$8,$9,$2,$3,0*
0 Add four circle primitives for the rounded corners*
1,1,$1+$1,$2,$3*
1,1,$1+$1,$4,$5*
1,1,$1+$1,$6,$7*
1,1,$1+$1,$8,$9*
0 Add four rect primitives between the rounded corners*
20,1,$1+$1,$2,$3,$4,$5,0*
20,1,$1+$1,$4,$5,$6,$7,0*
20,1,$1+$1,$6,$7,$8,$9,0*
20,1,$1+$1,$8,$9,$2,$3,0*%
%AMFreePoly0*
4,1,17,0.479825,1.094901,1.094901,0.479825,1.113500,0.434924,1.113500,-0.434924,1.094901,-0.479825,0.479825,-1.094901,0.434924,-1.113500,-0.434924,-1.113500,-0.479825,-1.094901,-1.094901,-0.479825,-1.113500,-0.434924,-1.113500,0.434924,-1.094901,0.479825,-0.479825,1.094901,-0.434924,1.113500,0.434924,1.113500,0.479825,1.094901,0.479825,1.094901,$1*%
G04 Aperture macros list end*
%ADD10C,0.010000*%
%ADD11C,0.000000*%
%ADD12C,2.777400*%
%ADD13R,0.800100X0.508000*%
%ADD14C,1.600000*%
%ADD15RoundRect,0.140000X-0.140000X-0.170000X0.140000X-0.170000X0.140000X0.170000X-0.140000X0.170000X0*%
%ADD16R,0.762000X1.295400*%
%ADD17RoundRect,0.114300X0.330200X-1.574800X0.330200X1.574800X-0.330200X1.574800X-0.330200X-1.574800X0*%
%ADD18RoundRect,0.140000X0.140000X0.170000X-0.140000X0.170000X-0.140000X-0.170000X0.140000X-0.170000X0*%
%ADD19RoundRect,0.225000X-0.225000X-0.250000X0.225000X-0.250000X0.225000X0.250000X-0.225000X0.250000X0*%
%ADD20RoundRect,0.200000X0.200000X0.275000X-0.200000X0.275000X-0.200000X-0.275000X0.200000X-0.275000X0*%
%ADD21RoundRect,0.140000X0.170000X-0.140000X0.170000X0.140000X-0.170000X0.140000X-0.170000X-0.140000X0*%
%ADD22RoundRect,0.200000X-0.200000X-0.275000X0.200000X-0.275000X0.200000X0.275000X-0.200000X0.275000X0*%
%ADD23R,1.300000X1.550000*%
%ADD24RoundRect,0.200000X-0.275000X0.200000X-0.275000X-0.200000X0.275000X-0.200000X0.275000X0.200000X0*%
%ADD25RoundRect,0.225000X-0.250000X0.225000X-0.250000X-0.225000X0.250000X-0.225000X0.250000X0.225000X0*%
%ADD26RoundRect,0.250000X-0.475000X0.250000X-0.475000X-0.250000X0.475000X-0.250000X0.475000X0.250000X0*%
%ADD27C,1.500000*%
%ADD28RoundRect,0.225000X0.250000X-0.225000X0.250000X0.225000X-0.250000X0.225000X-0.250000X-0.225000X0*%
%ADD29RoundRect,0.200000X0.275000X-0.200000X0.275000X0.200000X-0.275000X0.200000X-0.275000X-0.200000X0*%
%ADD30RoundRect,0.250000X0.475000X-0.250000X0.475000X0.250000X-0.475000X0.250000X-0.475000X-0.250000X0*%
%ADD31RoundRect,0.250000X-0.325000X-0.650000X0.325000X-0.650000X0.325000X0.650000X-0.325000X0.650000X0*%
%ADD32C,1.092200*%
%ADD33C,1.600200*%
%ADD34R,0.304800X1.549400*%
%ADD35R,1.193800X2.743200*%
%ADD36C,5.500000*%
%ADD37C,1.574800*%
%ADD38RoundRect,0.102000X1.140000X1.060000X-1.140000X1.060000X-1.140000X-1.060000X1.140000X-1.060000X0*%
%ADD39RoundRect,0.140000X-0.170000X0.140000X-0.170000X-0.140000X0.170000X-0.140000X0.170000X0.140000X0*%
%ADD40RoundRect,0.150000X-0.150000X0.512500X-0.150000X-0.512500X0.150000X-0.512500X0.150000X0.512500X0*%
%ADD41RoundRect,0.250000X-0.375000X-0.850000X0.375000X-0.850000X0.375000X0.850000X-0.375000X0.850000X0*%
%ADD42RoundRect,0.102000X1.780000X1.500000X-1.780000X1.500000X-1.780000X-1.500000X1.780000X-1.500000X0*%
%ADD43C,1.200000*%
%ADD44RoundRect,0.102000X-1.000000X0.350000X-1.000000X-0.350000X1.000000X-0.350000X1.000000X0.350000X0*%
%ADD45RoundRect,0.102000X-2.500000X1.500000X-2.500000X-1.500000X2.500000X-1.500000X2.500000X1.500000X0*%
%ADD46RoundRect,0.147500X0.172500X-0.147500X0.172500X0.147500X-0.172500X0.147500X-0.172500X-0.147500X0*%
%ADD47RoundRect,0.027500X0.082500X-0.392500X0.082500X0.392500X-0.082500X0.392500X-0.082500X-0.392500X0*%
%ADD48RoundRect,0.027500X0.392500X-0.082500X0.392500X0.082500X-0.392500X0.082500X-0.392500X-0.082500X0*%
%ADD49RoundRect,0.102000X2.310000X-2.310000X2.310000X2.310000X-2.310000X2.310000X-2.310000X-2.310000X0*%
%ADD50RoundRect,0.114300X-0.330200X1.574800X-0.330200X-1.574800X0.330200X-1.574800X0.330200X1.574800X0*%
%ADD51RoundRect,0.114300X1.574800X0.330200X-1.574800X0.330200X-1.574800X-0.330200X1.574800X-0.330200X0*%
%ADD52RoundRect,0.147500X-0.172500X0.147500X-0.172500X-0.147500X0.172500X-0.147500X0.172500X0.147500X0*%
%ADD53R,1.650000X1.650000*%
%ADD54C,1.650000*%
%ADD55RoundRect,0.102000X1.000000X-0.350000X1.000000X0.350000X-1.000000X0.350000X-1.000000X-0.350000X0*%
%ADD56RoundRect,0.102000X2.500000X-1.500000X2.500000X1.500000X-2.500000X1.500000X-2.500000X-1.500000X0*%
%ADD57RoundRect,0.102000X-0.575000X-0.700000X0.575000X-0.700000X0.575000X0.700000X-0.575000X0.700000X0*%
%ADD58FreePoly0,180.000000*%
%ADD59R,1.168400X0.304800*%
%ADD60RoundRect,0.250000X-0.250000X-0.475000X0.250000X-0.475000X0.250000X0.475000X-0.250000X0.475000X0*%
%ADD61RoundRect,0.225000X0.225000X0.250000X-0.225000X0.250000X-0.225000X-0.250000X0.225000X-0.250000X0*%
%ADD62RoundRect,0.102000X-0.754000X0.754000X-0.754000X-0.754000X0.754000X-0.754000X0.754000X0.754000X0*%
%ADD63C,1.712000*%
%ADD64RoundRect,0.062500X-0.062500X0.350000X-0.062500X-0.350000X0.062500X-0.350000X0.062500X0.350000X0*%
%ADD65RoundRect,0.062500X-0.350000X0.062500X-0.350000X-0.062500X0.350000X-0.062500X0.350000X0.062500X0*%
%ADD66R,5.200000X5.200000*%
G04 APERTURE END LIST*
D10*
%TO.C,LOGO3*%
X46210999Y57507479D02*
X46210999Y55933709D01*
X46640209Y55933709D01*
X46640209Y57507479D01*
X46210999Y57507479D01*
G36*
X46640209Y55933709D02*
G01*
X46210999Y55933709D01*
X46210999Y57507479D01*
X46640209Y57507479D01*
X46640209Y55933709D01*
G37*
X51504590Y52976928D02*
X51504590Y51689297D01*
X51838420Y51689297D01*
X51838420Y52976928D01*
X51504590Y52976928D01*
G36*
X51838420Y51689297D02*
G01*
X51504590Y51689297D01*
X51504590Y52976928D01*
X51838420Y52976928D01*
X51838420Y51689297D01*
G37*
X51933800Y54598388D02*
X51933800Y54503008D01*
X52172250Y54455318D01*
X51933800Y54073798D01*
X52410700Y54073798D01*
X52124560Y54169178D01*
X52410700Y54598388D01*
X51933800Y54598388D01*
G36*
X52124560Y54169178D02*
G01*
X52410700Y54073798D01*
X51933800Y54073798D01*
X52172250Y54455318D01*
X51933800Y54503008D01*
X51933800Y54598388D01*
X52410700Y54598388D01*
X52124560Y54169178D01*
G37*
X52553770Y54598388D02*
X52553770Y54073798D01*
X52982981Y54073798D01*
X52982981Y54169178D01*
X52696841Y54216868D01*
X52744531Y54312248D01*
X52982981Y54312248D01*
X52696841Y54407628D01*
X52744531Y54503008D01*
X52982981Y54503008D01*
X52982981Y54598388D01*
X52553770Y54598388D01*
G36*
X52982981Y54503008D02*
G01*
X52744531Y54503008D01*
X52696841Y54407628D01*
X52982981Y54312248D01*
X52744531Y54312248D01*
X52696841Y54216868D01*
X52982981Y54169178D01*
X52982981Y54073798D01*
X52553770Y54073798D01*
X52553770Y54598388D01*
X52982981Y54598388D01*
X52982981Y54503008D01*
G37*
X48881639Y52976928D02*
X48881639Y51689297D01*
X49215469Y51689297D01*
X49215469Y51880057D01*
X49406230Y52070818D01*
X49596990Y51689297D01*
X49978510Y51689297D01*
X49644680Y52261578D01*
X49930820Y52643098D01*
X49549300Y52643098D01*
X49263159Y52309268D01*
X49215469Y52976928D01*
X48881639Y52976928D01*
G36*
X49263159Y52309268D02*
G01*
X49549300Y52643098D01*
X49930820Y52643098D01*
X49644680Y52261578D01*
X49978510Y51689297D01*
X49596990Y51689297D01*
X49406230Y52070818D01*
X49215469Y51880057D01*
X49215469Y51689297D01*
X48881639Y51689297D01*
X48881639Y52976928D01*
X49215469Y52976928D01*
X49263159Y52309268D01*
G37*
X53459881Y52595408D02*
X53459881Y51689297D01*
X53793711Y51689297D01*
X53793711Y52213888D01*
X53936781Y52404648D01*
X54127541Y52309268D01*
X54127541Y51689297D01*
X54461371Y51689297D01*
X54461371Y52452338D01*
X54365991Y52595408D01*
X54032161Y52643098D01*
X53841401Y52500028D01*
X53746021Y52643098D01*
X53459881Y52595408D01*
G36*
X54365991Y52595408D02*
G01*
X54461371Y52452338D01*
X54461371Y51689297D01*
X54127541Y51689297D01*
X54127541Y52309268D01*
X53936781Y52404648D01*
X53793711Y52213888D01*
X53793711Y51689297D01*
X53459881Y51689297D01*
X53459881Y52595408D01*
X53746021Y52643098D01*
X53841401Y52500028D01*
X54032161Y52643098D01*
X54365991Y52595408D01*
G37*
X53841401Y54550698D02*
X53793711Y54169178D01*
X53889091Y54073798D01*
X54270611Y54121488D01*
X54175231Y54216868D01*
X54079851Y54121488D01*
X53889091Y54312248D01*
X53984471Y54503008D01*
X54175231Y54455318D01*
X54175231Y54216868D01*
X54270611Y54121488D01*
X54318301Y54455318D01*
X54175231Y54598388D01*
X53841401Y54550698D01*
G36*
X54318301Y54455318D02*
G01*
X54270611Y54121488D01*
X53889091Y54073798D01*
X53793711Y54169178D01*
X53811595Y54312248D01*
X53889091Y54312248D01*
X54079851Y54121488D01*
X54175231Y54216868D01*
X54175231Y54455318D01*
X53984471Y54503008D01*
X53889091Y54312248D01*
X53811595Y54312248D01*
X53841401Y54550698D01*
X54175231Y54598388D01*
X54318301Y54455318D01*
G37*
X48786259Y57459789D02*
X48547809Y57078269D01*
X48977019Y57030579D01*
X49120089Y57269029D01*
X49263159Y57269029D01*
X49406230Y57030579D01*
X48738569Y56410609D01*
X48547809Y55933709D01*
X49787750Y55933709D01*
X49787750Y56267539D01*
X49167779Y56315229D01*
X49740060Y56839819D01*
X49740060Y57316719D01*
X49501610Y57507479D01*
X48786259Y57459789D01*
G36*
X49740060Y57316719D02*
G01*
X49740060Y56839819D01*
X49167779Y56315229D01*
X49787750Y56267539D01*
X49787750Y55933709D01*
X48547809Y55933709D01*
X48738569Y56410609D01*
X49406230Y57030579D01*
X49263159Y57269029D01*
X49120089Y57269029D01*
X48977019Y57030579D01*
X48547809Y57078269D01*
X48786259Y57459789D01*
X49501610Y57507479D01*
X49740060Y57316719D01*
G37*
X53173741Y54598388D02*
X53173741Y54073798D01*
X53269121Y54073798D01*
X53364501Y54312248D01*
X53364501Y54359938D01*
X53269121Y54455318D01*
X53364501Y54550698D01*
X53507571Y54407628D01*
X53364501Y54359938D01*
X53364501Y54312248D01*
X53507571Y54073798D01*
X53650641Y54073798D01*
X53555261Y54264558D01*
X53650641Y54503008D01*
X53555261Y54598388D01*
X53173741Y54598388D01*
G36*
X53650641Y54503008D02*
G01*
X53555261Y54264558D01*
X53650641Y54073798D01*
X53507571Y54073798D01*
X53364501Y54312248D01*
X53269121Y54073798D01*
X53173741Y54073798D01*
X53173741Y54455318D01*
X53269121Y54455318D01*
X53364501Y54359938D01*
X53507571Y54407628D01*
X53364501Y54550698D01*
X53269121Y54455318D01*
X53173741Y54455318D01*
X53173741Y54598388D01*
X53555261Y54598388D01*
X53650641Y54503008D01*
G37*
X56178212Y57507479D02*
X55892072Y57364409D01*
X55796692Y57125959D01*
X55653621Y57078269D01*
X55653621Y56792129D01*
X55796692Y56744439D01*
X55844382Y56076779D01*
X56035142Y55933709D01*
X56464352Y55981399D01*
X56464352Y56219849D01*
X56225902Y56267539D01*
X56225902Y56744439D01*
X56464352Y56792129D01*
X56464352Y57078269D01*
X56225902Y57125959D01*
X56178212Y57507479D01*
G36*
X56225902Y57125959D02*
G01*
X56464352Y57078269D01*
X56464352Y56792129D01*
X56225902Y56744439D01*
X56225902Y56267539D01*
X56464352Y56219849D01*
X56464352Y55981399D01*
X56035142Y55933709D01*
X55844382Y56076779D01*
X55796692Y56744439D01*
X55653621Y56792129D01*
X55653621Y57078269D01*
X55796692Y57125959D01*
X55892072Y57364409D01*
X56178212Y57507479D01*
X56225902Y57125959D01*
G37*
X47641699Y52452338D02*
X47546319Y52118508D01*
X47737079Y51736987D01*
X48213979Y51641607D01*
X48595499Y51832367D01*
X48643189Y51975437D01*
X48452429Y52023128D01*
X48213979Y51880057D01*
X48023219Y51880057D01*
X47880149Y52118508D01*
X48023219Y52404648D01*
X48213979Y52404648D01*
X48309359Y52309268D01*
X48643189Y52356958D01*
X48500119Y52547718D01*
X48309359Y52643098D01*
X47927839Y52643098D01*
X47641699Y52452338D01*
G36*
X48500119Y52547718D02*
G01*
X48643189Y52356958D01*
X48309359Y52309268D01*
X48213979Y52404648D01*
X48023219Y52404648D01*
X47880149Y52118508D01*
X48023219Y51880057D01*
X48213979Y51880057D01*
X48452429Y52023128D01*
X48643189Y51975437D01*
X48595499Y51832367D01*
X48213979Y51641607D01*
X47737079Y51736987D01*
X47546319Y52118508D01*
X47641699Y52452338D01*
X47927839Y52643098D01*
X48309359Y52643098D01*
X48500119Y52547718D01*
G37*
X43778808Y57459789D02*
X42729627Y57507479D01*
X42729627Y55933709D01*
X43158838Y55933709D01*
X43158838Y56458299D01*
X43254218Y56553679D01*
X43206528Y56792129D01*
X43158838Y57173649D01*
X43444978Y57221339D01*
X43588048Y57078269D01*
X43588048Y56935199D01*
X43397288Y56792129D01*
X43206528Y56792129D01*
X43254218Y56553679D01*
X43731118Y56553679D01*
X43921878Y56649059D01*
X44017258Y56792129D01*
X44017258Y57221339D01*
X43778808Y57459789D01*
G36*
X43778808Y57459789D02*
G01*
X44017258Y57221339D01*
X44017258Y56792129D01*
X43921878Y56649059D01*
X43731118Y56553679D01*
X43254218Y56553679D01*
X43158838Y56458299D01*
X43158838Y55933709D01*
X42729627Y55933709D01*
X42729627Y57173649D01*
X43158838Y57173649D01*
X43206528Y56792129D01*
X43397288Y56792129D01*
X43588048Y56935199D01*
X43588048Y57078269D01*
X43444978Y57221339D01*
X43158838Y57173649D01*
X42729627Y57173649D01*
X42729627Y57507479D01*
X43778808Y57459789D01*
G37*
X54413681Y57030579D02*
X54127541Y56649059D01*
X54222921Y56172159D01*
X54652131Y55933709D01*
X54795201Y56172159D01*
X54556751Y56315229D01*
X54509061Y56505989D01*
X54699821Y56839819D01*
X54842891Y56839819D01*
X55033651Y56601369D01*
X54985961Y56315229D01*
X54795201Y56172159D01*
X54652131Y55933709D01*
X55176721Y56029089D01*
X55415171Y56362919D01*
X55415171Y56696749D01*
X55319791Y56887509D01*
X55033651Y57078269D01*
X54413681Y57030579D01*
G36*
X55319791Y56887509D02*
G01*
X55415171Y56696749D01*
X55415171Y56362919D01*
X55176721Y56029089D01*
X54652131Y55933709D01*
X54222921Y56172159D01*
X54156155Y56505989D01*
X54509061Y56505989D01*
X54556751Y56315229D01*
X54795201Y56172159D01*
X54985961Y56315229D01*
X55033651Y56601369D01*
X54842891Y56839819D01*
X54699821Y56839819D01*
X54509061Y56505989D01*
X54156155Y56505989D01*
X54127541Y56649059D01*
X54413681Y57030579D01*
X55033651Y57078269D01*
X55319791Y56887509D01*
G37*
X44971058Y52976928D02*
X44971058Y51689297D01*
X45304888Y51689297D01*
X45352578Y51784677D01*
X45447958Y51880057D01*
X45304888Y52118508D01*
X45447958Y52404648D01*
X45686408Y52309268D01*
X45686408Y52023128D01*
X45543338Y51880057D01*
X45447958Y51880057D01*
X45352578Y51784677D01*
X45591028Y51641607D01*
X45829478Y51689297D01*
X46020238Y51975437D01*
X45972548Y52452338D01*
X45734098Y52643098D01*
X45352578Y52547718D01*
X45304888Y52976928D01*
X44971058Y52976928D01*
G36*
X45352578Y52547718D02*
G01*
X45734098Y52643098D01*
X45972548Y52452338D01*
X46020238Y51975437D01*
X45829478Y51689297D01*
X45591028Y51641607D01*
X45352578Y51784677D01*
X45304888Y51689297D01*
X44971058Y51689297D01*
X44971058Y52118508D01*
X45304888Y52118508D01*
X45447958Y51880057D01*
X45543338Y51880057D01*
X45686408Y52023128D01*
X45686408Y52309268D01*
X45447958Y52404648D01*
X45304888Y52118508D01*
X44971058Y52118508D01*
X44971058Y52976928D01*
X45304888Y52976928D01*
X45352578Y52547718D01*
G37*
X50980000Y52643098D02*
X50741550Y52643098D01*
X50550790Y52500028D01*
X50646170Y52404648D01*
X50884620Y52309268D01*
X50884620Y51975437D01*
X50741550Y51880057D01*
X50550790Y52023128D01*
X50550790Y52309268D01*
X50646170Y52404648D01*
X50550790Y52500028D01*
X50503100Y52643098D01*
X50216960Y52643098D01*
X50216960Y51307777D01*
X50550790Y51307777D01*
X50598480Y51736987D01*
X50884620Y51641607D01*
X51170760Y51832367D01*
X51218450Y52356958D01*
X50980000Y52643098D01*
G36*
X50550790Y52500028D02*
G01*
X50741550Y52643098D01*
X50980000Y52643098D01*
X51218450Y52356958D01*
X51170760Y51832367D01*
X50884620Y51641607D01*
X50598480Y51736987D01*
X50550790Y51307777D01*
X50216960Y51307777D01*
X50216960Y52309268D01*
X50550790Y52309268D01*
X50550790Y52023128D01*
X50741550Y51880057D01*
X50884620Y51975437D01*
X50884620Y52309268D01*
X50646170Y52404648D01*
X50550790Y52309268D01*
X50216960Y52309268D01*
X50216960Y52643098D01*
X50503100Y52643098D01*
X50550790Y52500028D01*
G37*
X52792221Y56982889D02*
X52601461Y56696749D01*
X52601461Y56315229D01*
X52887601Y55981399D01*
X53412191Y55933709D01*
X53269121Y56172159D01*
X52982981Y56410609D01*
X52982981Y56601369D01*
X53173741Y56839819D01*
X53316811Y56839819D01*
X53459881Y56696749D01*
X53459881Y56362919D01*
X53269121Y56172159D01*
X53412191Y55933709D01*
X53793711Y56172159D01*
X53889091Y56553679D01*
X53793711Y56839819D01*
X53602951Y57030579D01*
X52982981Y57078269D01*
X52792221Y56982889D01*
G36*
X53602951Y57030579D02*
G01*
X53793711Y56839819D01*
X53889091Y56553679D01*
X53793711Y56172159D01*
X53412191Y55933709D01*
X52887601Y55981399D01*
X52601461Y56315229D01*
X52601461Y56601369D01*
X52982981Y56601369D01*
X52982981Y56410609D01*
X53269121Y56172159D01*
X53459881Y56362919D01*
X53459881Y56696749D01*
X53316811Y56839819D01*
X53173741Y56839819D01*
X52982981Y56601369D01*
X52601461Y56601369D01*
X52601461Y56696749D01*
X52792221Y56982889D01*
X52982981Y57078269D01*
X53602951Y57030579D01*
G37*
X44637228Y57412099D02*
X44351088Y56982889D01*
X44351088Y56458299D01*
X44446468Y56219849D01*
X44827988Y55933709D01*
X45543338Y55981399D01*
X45781788Y56219849D01*
X45829478Y56410609D01*
X45447958Y56553679D01*
X45257198Y56267539D01*
X45066438Y56219849D01*
X44827988Y56410609D01*
X44780298Y56887509D01*
X44971058Y57173649D01*
X45257198Y57173649D01*
X45447958Y56982889D01*
X45781788Y57030579D01*
X45734098Y57269029D01*
X45400268Y57507479D01*
X44875678Y57507479D01*
X44637228Y57412099D01*
G36*
X45734098Y57269029D02*
G01*
X45781788Y57030579D01*
X45447958Y56982889D01*
X45257198Y57173649D01*
X44971058Y57173649D01*
X44780298Y56887509D01*
X44827988Y56410609D01*
X45066438Y56219849D01*
X45257198Y56267539D01*
X45447958Y56553679D01*
X45829478Y56410609D01*
X45781788Y56219849D01*
X45543338Y55981399D01*
X44827988Y55933709D01*
X44446468Y56219849D01*
X44351088Y56458299D01*
X44351088Y56982889D01*
X44637228Y57412099D01*
X44875678Y57507479D01*
X45400268Y57507479D01*
X45734098Y57269029D01*
G37*
X46354069Y52547718D02*
X46354069Y52356958D01*
X46878659Y52452338D01*
X46974039Y52309268D01*
X46401759Y52166198D01*
X46258689Y52023128D01*
X46306379Y51736987D01*
X46544829Y51641607D01*
X46926349Y51784677D01*
X46830969Y51832367D01*
X46592519Y51927747D01*
X46783279Y52118508D01*
X46974039Y52070818D01*
X46830969Y51832367D01*
X46926349Y51784677D01*
X47021729Y51689297D01*
X47307869Y51689297D01*
X47307869Y52356958D01*
X47164799Y52595408D01*
X46544829Y52643098D01*
X46354069Y52547718D01*
G36*
X47164799Y52595408D02*
G01*
X47307869Y52356958D01*
X47307869Y51689297D01*
X47021729Y51689297D01*
X46926349Y51784677D01*
X46544829Y51641607D01*
X46306379Y51736987D01*
X46274586Y51927747D01*
X46592519Y51927747D01*
X46830969Y51832367D01*
X46974039Y52070818D01*
X46783279Y52118508D01*
X46592519Y51927747D01*
X46274586Y51927747D01*
X46258689Y52023128D01*
X46401759Y52166198D01*
X46974039Y52309268D01*
X46878659Y52452338D01*
X46354069Y52356958D01*
X46354069Y52547718D01*
X46544829Y52643098D01*
X47164799Y52595408D01*
G37*
X50932310Y57507479D02*
X50932310Y55981399D01*
X51409210Y55981399D01*
X51456900Y56601369D01*
X51456900Y56839819D01*
X51409210Y57173649D01*
X51790730Y57221339D01*
X51886110Y56982889D01*
X51790730Y56887509D01*
X51456900Y56839819D01*
X51456900Y56601369D01*
X51695350Y56458299D01*
X51933800Y55981399D01*
X52458390Y55981399D01*
X52172250Y56505989D01*
X51981490Y56649059D01*
X52315320Y56887509D01*
X52363010Y57125959D01*
X52267630Y57364409D01*
X52029180Y57507479D01*
X50932310Y57507479D01*
G36*
X52267630Y57364409D02*
G01*
X52363010Y57125959D01*
X52315320Y56887509D01*
X51981490Y56649059D01*
X52172250Y56505989D01*
X52458390Y55981399D01*
X51933800Y55981399D01*
X51695350Y56458299D01*
X51456900Y56601369D01*
X51409210Y55981399D01*
X50932310Y55981399D01*
X50932310Y57173649D01*
X51409210Y57173649D01*
X51456900Y56839819D01*
X51790730Y56887509D01*
X51886110Y56982889D01*
X51790730Y57221339D01*
X51409210Y57173649D01*
X50932310Y57173649D01*
X50932310Y57507479D01*
X52029180Y57507479D01*
X52267630Y57364409D01*
G37*
X57322772Y57555169D02*
X56845872Y57269029D01*
X56702802Y56792129D01*
X56750492Y56458299D01*
X56988942Y56076779D01*
X57322772Y55933709D01*
X57704292Y55933709D01*
X57942742Y56029089D01*
X58228882Y56458299D01*
X57847362Y56553679D01*
X57704292Y56315229D01*
X57418152Y56267539D01*
X57179702Y56505989D01*
X57179702Y56982889D01*
X57418152Y57221339D01*
X57608912Y57221339D01*
X57799672Y57030579D01*
X58181192Y57078269D01*
X58181192Y57173649D01*
X57847362Y57507479D01*
X57322772Y57555169D01*
G36*
X57847362Y57507479D02*
G01*
X58181192Y57173649D01*
X58181192Y57078269D01*
X57799672Y57030579D01*
X57608912Y57221339D01*
X57418152Y57221339D01*
X57179702Y56982889D01*
X57179702Y56505989D01*
X57418152Y56267539D01*
X57704292Y56315229D01*
X57847362Y56553679D01*
X58228882Y56458299D01*
X57942742Y56029089D01*
X57704292Y55933709D01*
X57322772Y55933709D01*
X56988942Y56076779D01*
X56750492Y56458299D01*
X56702802Y56792129D01*
X56845872Y57269029D01*
X57322772Y57555169D01*
X57847362Y57507479D01*
G37*
X54842891Y52500028D02*
X54747511Y52309268D01*
X54747511Y51975437D01*
X54985961Y51689297D01*
X55367481Y51641607D01*
X55796692Y51880057D01*
X55462861Y51927747D01*
X55224411Y51832367D01*
X55081341Y51975437D01*
X55129031Y52070818D01*
X55129031Y52213888D01*
X55081341Y52309268D01*
X55224411Y52452338D01*
X55367481Y52452338D01*
X55510551Y52261578D01*
X55129031Y52213888D01*
X55129031Y52070818D01*
X55844382Y52070818D01*
X55796692Y52356958D01*
X55605931Y52595408D01*
X55129031Y52643098D01*
X54842891Y52500028D01*
G36*
X55605931Y52595408D02*
G01*
X55796692Y52356958D01*
X55844382Y52070818D01*
X55129031Y52070818D01*
X55081341Y51975437D01*
X55224411Y51832367D01*
X55462861Y51927747D01*
X55796692Y51880057D01*
X55367481Y51641607D01*
X54985961Y51689297D01*
X54747511Y51975437D01*
X54747511Y52309268D01*
X55081341Y52309268D01*
X55129031Y52213888D01*
X55510551Y52261578D01*
X55367481Y52452338D01*
X55224411Y52452338D01*
X55081341Y52309268D01*
X54747511Y52309268D01*
X54842891Y52500028D01*
X55129031Y52643098D01*
X55605931Y52595408D01*
G37*
X47212489Y56982889D02*
X47021729Y56696749D01*
X47021729Y56315229D01*
X47260179Y55981399D01*
X47927839Y55933709D01*
X48261669Y56172159D01*
X47832459Y56219849D01*
X47594009Y56124469D01*
X47403249Y56315229D01*
X47450939Y56410609D01*
X47498629Y56553679D01*
X47403249Y56649059D01*
X47546319Y56839819D01*
X47784769Y56839819D01*
X47880149Y56696749D01*
X47832459Y56553679D01*
X47498629Y56553679D01*
X47450939Y56410609D01*
X48309359Y56410609D01*
X48261669Y56744439D01*
X48023219Y57030579D01*
X47450939Y57078269D01*
X47212489Y56982889D01*
G36*
X48023219Y57030579D02*
G01*
X48261669Y56744439D01*
X48309359Y56410609D01*
X47450939Y56410609D01*
X47403249Y56315229D01*
X47594009Y56124469D01*
X47832459Y56219849D01*
X48261669Y56172159D01*
X47927839Y55933709D01*
X47260179Y55981399D01*
X47021729Y56315229D01*
X47021729Y56649059D01*
X47403249Y56649059D01*
X47498629Y56553679D01*
X47832459Y56553679D01*
X47880149Y56696749D01*
X47784769Y56839819D01*
X47546319Y56839819D01*
X47403249Y56649059D01*
X47021729Y56649059D01*
X47021729Y56696749D01*
X47212489Y56982889D01*
X47450939Y57078269D01*
X48023219Y57030579D01*
G37*
X52219940Y52547718D02*
X52219940Y52356958D01*
X52458390Y52356958D01*
X52553770Y52452338D01*
X52744531Y52452338D01*
X52839911Y52356958D01*
X52744531Y52261578D01*
X52267630Y52166198D01*
X52124560Y52023128D01*
X52172250Y51736987D01*
X52410700Y51641607D01*
X52792221Y51784677D01*
X52696841Y51832367D01*
X52458390Y51880057D01*
X52553770Y52070818D01*
X52839911Y52070818D01*
X52696841Y51832367D01*
X52792221Y51784677D01*
X52887601Y51689297D01*
X53173741Y51689297D01*
X53173741Y52309268D01*
X53030671Y52595408D01*
X52410700Y52643098D01*
X52219940Y52547718D01*
G36*
X53030671Y52595408D02*
G01*
X53173741Y52309268D01*
X53173741Y51689297D01*
X52887601Y51689297D01*
X52792221Y51784677D01*
X52410700Y51641607D01*
X52172250Y51736987D01*
X52148405Y51880057D01*
X52458390Y51880057D01*
X52696841Y51832367D01*
X52839911Y52070818D01*
X52553770Y52070818D01*
X52458390Y51880057D01*
X52148405Y51880057D01*
X52124560Y52023128D01*
X52267630Y52166198D01*
X52744531Y52261578D01*
X52839911Y52356958D01*
X52744531Y52452338D01*
X52553770Y52452338D01*
X52458390Y52356958D01*
X52219940Y52356958D01*
X52219940Y52547718D01*
X52410700Y52643098D01*
X53030671Y52595408D01*
G37*
X48118599Y54932218D02*
X48309359Y54741458D01*
X48404739Y54836838D01*
X48595499Y54836838D01*
X48977019Y54312248D01*
X48977019Y54789148D01*
X49215469Y54836838D01*
X49310849Y54741458D01*
X49263159Y53835348D01*
X48977019Y53835348D01*
X48643189Y54312248D01*
X48643189Y53883038D01*
X48309359Y53883038D01*
X48309359Y54741458D01*
X48118599Y54932218D01*
X48118599Y53692278D01*
X48213979Y53549208D01*
X51075380Y53549208D01*
X51170760Y53644588D01*
X51170760Y54073798D01*
X51409210Y54312248D01*
X51170760Y54550698D01*
X50980000Y54741458D01*
X50932310Y53835348D01*
X50646170Y53883038D01*
X50407720Y53930728D01*
X50264650Y53835348D01*
X49835440Y53787658D01*
X49501610Y54026108D01*
X49453920Y54503008D01*
X49692370Y54789148D01*
X50169270Y54836838D01*
X50407720Y54646078D01*
X50360030Y54503008D01*
X50169270Y54455318D01*
X50073890Y54550698D01*
X49883130Y54550698D01*
X49787750Y54455318D01*
X49787750Y54169178D01*
X49883130Y54073798D01*
X50121580Y54073798D01*
X50121580Y54169178D01*
X49930820Y54216868D01*
X49978510Y54407628D01*
X50407720Y54407628D01*
X50407720Y53930728D01*
X50646170Y53883038D01*
X50693860Y54836838D01*
X50884620Y54836838D01*
X50980000Y54741458D01*
X51170760Y54550698D01*
X51170760Y54979908D01*
X51027690Y55122978D01*
X48309359Y55122978D01*
X48118599Y54932218D01*
G36*
X51170760Y54979908D02*
G01*
X51170760Y54550698D01*
X51409210Y54312248D01*
X51170760Y54073798D01*
X51170760Y53644588D01*
X51075380Y53549208D01*
X48213979Y53549208D01*
X48118599Y53692278D01*
X48118599Y54741458D01*
X48309359Y54741458D01*
X48309359Y53883038D01*
X48643189Y53883038D01*
X48643189Y54312248D01*
X48977019Y53835348D01*
X49263159Y53835348D01*
X49298299Y54503008D01*
X49453920Y54503008D01*
X49501610Y54026108D01*
X49835440Y53787658D01*
X50264650Y53835348D01*
X50336185Y53883038D01*
X50646170Y53883038D01*
X50932310Y53835348D01*
X50980000Y54741458D01*
X50884620Y54836838D01*
X50693860Y54836838D01*
X50646170Y53883038D01*
X50336185Y53883038D01*
X50407720Y53930728D01*
X50407720Y54407628D01*
X49978510Y54407628D01*
X49930820Y54216868D01*
X50121580Y54169178D01*
X50121580Y54073798D01*
X49883130Y54073798D01*
X49787750Y54169178D01*
X49787750Y54455318D01*
X49883130Y54550698D01*
X50073890Y54550698D01*
X50169270Y54455318D01*
X50360030Y54503008D01*
X50407720Y54646078D01*
X50169270Y54836838D01*
X49692370Y54789148D01*
X49453920Y54503008D01*
X49298299Y54503008D01*
X49310849Y54741458D01*
X49215469Y54836838D01*
X48977019Y54789148D01*
X48977019Y54312248D01*
X48595499Y54836838D01*
X48404739Y54836838D01*
X48309359Y54741458D01*
X48118599Y54741458D01*
X48118599Y54932218D01*
X48309359Y55122978D01*
X51027690Y55122978D01*
X51170760Y54979908D01*
G37*
X50121580Y79206436D02*
X50121580Y78967986D01*
X51838420Y78967986D01*
X53555261Y78777226D01*
X55081341Y78443396D01*
X56559732Y77966496D01*
X57370462Y77632666D01*
X59182683Y76678865D01*
X60184173Y76011205D01*
X61376423Y75057405D01*
X62807124Y73626704D01*
X63760924Y72434454D01*
X64619344Y71099133D01*
X65334694Y69716123D01*
X65763905Y68666943D01*
X66336185Y66759342D01*
X66622325Y65137882D01*
X66717705Y64041011D01*
X66717705Y62371861D01*
X66574635Y60941160D01*
X66240805Y59272010D01*
X65763905Y57745929D01*
X65334694Y56696749D01*
X64619344Y55313739D01*
X63760924Y53978418D01*
X62807124Y52786168D01*
X61376423Y51355467D01*
X60184173Y50401667D01*
X58944232Y49590937D01*
X57370462Y48780206D01*
X56559732Y48446376D01*
X54509061Y47826406D01*
X51838420Y47444886D01*
X50121580Y47444886D01*
X48404739Y47635646D01*
X46878659Y47969476D01*
X45400268Y48446376D01*
X44589538Y48780206D01*
X42777317Y49734007D01*
X41775827Y50401667D01*
X40583577Y51355467D01*
X39152876Y52786168D01*
X38199076Y53978418D01*
X37340656Y55313739D01*
X36625306Y56696749D01*
X36196095Y57745929D01*
X35623815Y59653530D01*
X35337675Y61274990D01*
X35242295Y62371861D01*
X35242295Y64041011D01*
X35385365Y65471712D01*
X35719195Y67140862D01*
X36196095Y68666943D01*
X36625306Y69716123D01*
X37340656Y71099133D01*
X38199076Y72434454D01*
X39152876Y73626704D01*
X40583577Y75057405D01*
X41775827Y76011205D01*
X43015768Y76821935D01*
X44589538Y77632666D01*
X45400268Y77966496D01*
X47450939Y78586466D01*
X50121580Y78967986D01*
X50121580Y79206436D01*
X48690879Y79063366D01*
X47212489Y78777226D01*
X44541848Y77871116D01*
X42872697Y77012695D01*
X41632757Y76201965D01*
X40488197Y75295855D01*
X38962116Y73769774D01*
X38008316Y72577524D01*
X37197586Y71337584D01*
X36386855Y69763813D01*
X35957645Y68714633D01*
X35576125Y67522382D01*
X35194605Y65805542D01*
X35003845Y64041011D01*
X35003845Y62371861D01*
X35337675Y59844290D01*
X35671505Y58556660D01*
X36386855Y56649059D01*
X37197586Y55075288D01*
X38008316Y53835348D01*
X39439016Y52118508D01*
X40488197Y51117017D01*
X41632757Y50210907D01*
X42872697Y49400177D01*
X44541848Y48541756D01*
X45495648Y48160236D01*
X47021729Y47683336D01*
X48690879Y47349506D01*
X50121580Y47206436D01*
X51838420Y47206436D01*
X53269121Y47349506D01*
X54747511Y47635646D01*
X57418152Y48541756D01*
X59087303Y49400177D01*
X60327243Y50210907D01*
X61471803Y51117017D01*
X62997884Y52643098D01*
X63951684Y53835348D01*
X64762414Y55075288D01*
X65573145Y56649059D01*
X66002355Y57698239D01*
X66383875Y58890490D01*
X66765395Y60607330D01*
X66956155Y62371861D01*
X66956155Y64041011D01*
X66622325Y66568582D01*
X66288495Y67856212D01*
X65573145Y69763813D01*
X64762414Y71337584D01*
X63951684Y72577524D01*
X62520984Y74294364D01*
X61471803Y75295855D01*
X60327243Y76201965D01*
X59087303Y77012695D01*
X57418152Y77871116D01*
X56464352Y78252636D01*
X54938271Y78729536D01*
X53269121Y79063366D01*
X51838420Y79206436D01*
X50121580Y79206436D01*
G36*
X53269121Y79063366D02*
G01*
X54938271Y78729536D01*
X56464352Y78252636D01*
X57418152Y77871116D01*
X59087303Y77012695D01*
X60327243Y76201965D01*
X61471803Y75295855D01*
X62520984Y74294364D01*
X63951684Y72577524D01*
X64762414Y71337584D01*
X65573145Y69763813D01*
X66288495Y67856212D01*
X66622325Y66568582D01*
X66956155Y64041011D01*
X66956155Y62371861D01*
X66765395Y60607330D01*
X66383875Y58890490D01*
X66002355Y57698239D01*
X65573145Y56649059D01*
X64762414Y55075288D01*
X63951684Y53835348D01*
X62997884Y52643098D01*
X61471803Y51117017D01*
X60327243Y50210907D01*
X59087303Y49400177D01*
X57418152Y48541756D01*
X54747511Y47635646D01*
X53269121Y47349506D01*
X51838420Y47206436D01*
X50121580Y47206436D01*
X48690879Y47349506D01*
X47021729Y47683336D01*
X45495648Y48160236D01*
X44541848Y48541756D01*
X42872697Y49400177D01*
X41632757Y50210907D01*
X40488197Y51117017D01*
X39439016Y52118508D01*
X38008316Y53835348D01*
X37197586Y55075288D01*
X36386855Y56649059D01*
X35671505Y58556660D01*
X35337675Y59844290D01*
X35003845Y62371861D01*
X35003845Y64041011D01*
X35242295Y64041011D01*
X35242295Y62371861D01*
X35337675Y61274990D01*
X35623815Y59653530D01*
X36196095Y57745929D01*
X36625306Y56696749D01*
X37340656Y55313739D01*
X38199076Y53978418D01*
X39152876Y52786168D01*
X40583577Y51355467D01*
X41775827Y50401667D01*
X42777317Y49734007D01*
X44589538Y48780206D01*
X45400268Y48446376D01*
X46878659Y47969476D01*
X48404739Y47635646D01*
X50121580Y47444886D01*
X51838420Y47444886D01*
X54509061Y47826406D01*
X56559732Y48446376D01*
X57370462Y48780206D01*
X58944232Y49590937D01*
X60184173Y50401667D01*
X61376423Y51355467D01*
X62807124Y52786168D01*
X63760924Y53978418D01*
X64619344Y55313739D01*
X65334694Y56696749D01*
X65763905Y57745929D01*
X66240805Y59272010D01*
X66574635Y60941160D01*
X66717705Y62371861D01*
X66717705Y64041011D01*
X66622325Y65137882D01*
X66336185Y66759342D01*
X65763905Y68666943D01*
X65334694Y69716123D01*
X64619344Y71099133D01*
X63760924Y72434454D01*
X62807124Y73626704D01*
X61376423Y75057405D01*
X60184173Y76011205D01*
X59182683Y76678865D01*
X57370462Y77632666D01*
X56559732Y77966496D01*
X55081341Y78443396D01*
X53555261Y78777226D01*
X51838420Y78967986D01*
X50121580Y78967986D01*
X47450939Y78586466D01*
X45400268Y77966496D01*
X44589538Y77632666D01*
X43015768Y76821935D01*
X41775827Y76011205D01*
X40583577Y75057405D01*
X39152876Y73626704D01*
X38199076Y72434454D01*
X37340656Y71099133D01*
X36625306Y69716123D01*
X36196095Y68666943D01*
X35719195Y67140862D01*
X35385365Y65471712D01*
X35242295Y64041011D01*
X35003845Y64041011D01*
X35194605Y65805542D01*
X35576125Y67522382D01*
X35957645Y68714633D01*
X36386855Y69763813D01*
X37197586Y71337584D01*
X38008316Y72577524D01*
X38962116Y73769774D01*
X40488197Y75295855D01*
X41632757Y76201965D01*
X42872697Y77012695D01*
X44541848Y77871116D01*
X47212489Y78777226D01*
X48690879Y79063366D01*
X50121580Y79206436D01*
X51838420Y79206436D01*
X53269121Y79063366D01*
G37*
X46544829Y74723575D02*
X46449449Y74628195D01*
X46449449Y74294364D01*
X46067928Y73960534D01*
X47212489Y72339074D01*
X47307869Y72339074D01*
X47260179Y72434454D01*
X47403249Y72720594D01*
X48357049Y73674394D01*
X48070909Y73865154D01*
X46449449Y74103604D01*
X46640209Y74294364D01*
X46687899Y74532815D01*
X47260179Y74628195D01*
X47832459Y74866645D01*
X49883130Y74532815D01*
X50789240Y74485125D01*
X50598480Y74294364D01*
X50455410Y73960534D01*
X50360030Y73292874D01*
X50407720Y72529834D01*
X50169270Y71576034D01*
X49978510Y71194513D01*
X49453920Y70669923D01*
X49310849Y70336093D01*
X49215469Y70526853D01*
X49215469Y71528344D01*
X49358539Y72625214D01*
X49215469Y72768284D01*
X48977019Y72768284D01*
X47307869Y72339074D01*
X47212489Y72339074D01*
X46067928Y73960534D01*
X45877168Y74055914D01*
X45924858Y74198984D01*
X45495648Y74055914D01*
X44827988Y73674394D01*
X44208018Y73102114D01*
X43301908Y71814484D01*
X42443487Y69859193D01*
X41918897Y67522382D01*
X41775827Y65233262D01*
X41966587Y62705691D01*
X42205037Y61942651D01*
X42920387Y60607330D01*
X43444978Y60082740D01*
X43921878Y59796600D01*
X44684918Y59605840D01*
X45447958Y59605840D01*
X45209508Y60416570D01*
X45352578Y60464260D01*
X47021729Y59796600D01*
X51838420Y58127449D01*
X52696841Y58127449D01*
X53126051Y58508970D01*
X57036632Y64565601D01*
X56845872Y64660981D01*
X53364501Y59272010D01*
X52649151Y58365899D01*
X52363010Y58222829D01*
X52029180Y58270519D01*
X48404739Y59558150D01*
X48833949Y60464260D01*
X52410700Y59224320D01*
X52696841Y59605840D01*
X52649151Y59701220D01*
X49167779Y60845780D01*
X49167779Y60988850D01*
X52744531Y59796600D01*
X53078361Y60178120D01*
X52982981Y60273500D01*
X49453920Y61465750D01*
X49549300Y61561130D01*
X53030671Y60368880D01*
X53173741Y60368880D01*
X53412191Y60702710D01*
X53412191Y60798090D01*
X49930820Y61942651D01*
X49835440Y62038031D01*
X49930820Y62133411D01*
X53507571Y60893470D01*
X53793711Y61274990D01*
X53746021Y61370370D01*
X50264650Y62514931D01*
X50264650Y62658001D01*
X53793711Y61465750D01*
X53984471Y61561130D01*
X54175231Y61894961D01*
X50693860Y63039521D01*
X50550790Y63134901D01*
X50646170Y63230281D01*
X54222921Y61990341D01*
X54509061Y62371861D01*
X54222921Y62562621D01*
X51123070Y63564111D01*
X50932310Y63707181D01*
X50980000Y63754871D01*
X54556751Y62562621D01*
X54890581Y62944141D01*
X54795201Y63039521D01*
X51266140Y64231771D01*
X51361520Y64327151D01*
X54842891Y63134901D01*
X54985961Y63134901D01*
X55224411Y63468731D01*
X55224411Y63564111D01*
X51743040Y64708671D01*
X51647660Y64804051D01*
X51743040Y64899432D01*
X55319791Y63659491D01*
X55605931Y64041011D01*
X55558241Y64136391D01*
X52076870Y65280952D01*
X52076870Y65424022D01*
X55605931Y64231771D01*
X55749001Y64279461D01*
X55987452Y64660981D01*
X52506080Y65805542D01*
X52363010Y65900922D01*
X52458390Y65996302D01*
X55939762Y64804051D01*
X56082832Y64804051D01*
X56368972Y65233262D01*
X56607422Y65137882D01*
X56845872Y64947122D01*
X56845872Y64660981D01*
X57036632Y64565601D01*
X57084322Y64947122D01*
X56941252Y65185572D01*
X56607422Y65376332D01*
X51790730Y66902412D01*
X50360030Y67570072D01*
X49596990Y68142353D01*
X49978510Y68190043D01*
X49978510Y68285423D01*
X49501610Y68237733D01*
X49358539Y68476183D01*
X49453920Y68619253D01*
X49835440Y68714633D01*
X49453920Y70097643D01*
X49406230Y70145333D01*
X49501610Y70145333D01*
X49549300Y70145333D01*
X49453920Y70240713D01*
X49644680Y70669923D01*
X50169270Y71099133D01*
X50169270Y71289894D01*
X50360030Y71576034D01*
X50550790Y72196004D01*
X50598480Y73054424D01*
X50550790Y73102114D01*
X50646170Y73102114D01*
X50550790Y73102114D01*
X50598480Y73054424D01*
X50789240Y73149804D01*
X55796692Y71528344D01*
X53459881Y67951592D01*
X52267630Y68380803D01*
X50503100Y68810013D01*
X49549300Y68810013D01*
X49263159Y68619253D01*
X49263159Y68285423D01*
X49453920Y67999282D01*
X49930820Y67617762D01*
X51170760Y66997792D01*
X52506080Y66473202D01*
X48595499Y60559640D01*
X48261669Y59701220D01*
X48166289Y59605840D01*
X45209508Y60702710D01*
X45114128Y60798090D01*
X44923368Y61704201D01*
X44827988Y63325661D01*
X45018748Y64279461D01*
X45638718Y65853232D01*
X46354069Y66997792D01*
X47212489Y67808522D01*
X48595499Y68857703D01*
X49644680Y70002263D01*
X49787750Y70383783D01*
X49549300Y70145333D01*
X49501610Y70145333D01*
X49406230Y70145333D01*
X49453920Y70097643D01*
X49358539Y70097643D01*
X49453920Y70097643D01*
X49835440Y68714633D01*
X50503100Y68666943D01*
X52076870Y68285423D01*
X53316811Y67856212D01*
X53364501Y67760832D01*
X53173741Y67379312D01*
X53030671Y67331622D01*
X50693860Y68142353D01*
X49978510Y68285423D01*
X49978510Y68190043D01*
X51170760Y67903902D01*
X53126051Y67188552D01*
X53078361Y67093172D01*
X57227392Y65567092D01*
X57608912Y65567092D01*
X60136483Y69334603D01*
X60231863Y69620743D01*
X60041103Y69620743D01*
X57656602Y65948612D01*
X57418152Y65710162D01*
X53316811Y67236242D01*
X53555261Y67713142D01*
X53746021Y67760832D01*
X57132012Y66568582D01*
X57322772Y66663962D01*
X57513532Y66997792D01*
X54032161Y68142353D01*
X53889091Y68237733D01*
X53984471Y68333113D01*
X57465842Y67140862D01*
X57608912Y67140862D01*
X57847362Y67474692D01*
X57847362Y67570072D01*
X54365991Y68714633D01*
X54270611Y68810013D01*
X54509061Y68857703D01*
X57895052Y67665452D01*
X58228882Y68046973D01*
X57322772Y68428493D01*
X54795201Y69239223D01*
X54652131Y69334603D01*
X54699821Y69429983D01*
X58228882Y68237733D01*
X58371952Y68285423D01*
X58610402Y68666943D01*
X55129031Y69811503D01*
X54985961Y69906883D01*
X55081341Y70002263D01*
X58658092Y68762323D01*
X58944232Y69143843D01*
X58896542Y69239223D01*
X55415171Y70383783D01*
X55415171Y70526853D01*
X58991923Y69334603D01*
X59325753Y69763813D01*
X55701311Y71003753D01*
X55796692Y71099133D01*
X59278063Y69906883D01*
X59421133Y69906883D01*
X59659583Y70240713D01*
X59945723Y70145333D01*
X60088793Y69954573D01*
X60041103Y69620743D01*
X60231863Y69620743D01*
X60231863Y70145333D01*
X60041103Y70336093D01*
X56941252Y71337584D01*
X56845872Y71432964D01*
X52935291Y72720594D01*
X50598480Y73388254D01*
X50693860Y74103604D01*
X50980000Y74485125D01*
X51218450Y74580505D01*
X52839911Y74532815D01*
X53269121Y74342054D01*
X53412191Y74580505D01*
X53173741Y74628195D01*
X53078361Y74628195D01*
X53030671Y74628195D01*
X52839911Y74723575D01*
X53030671Y74771265D01*
X53126051Y74675885D01*
X53030671Y74628195D01*
X53078361Y74628195D01*
X53173741Y74628195D01*
X53412191Y74580505D01*
X53030671Y74962025D01*
X52410700Y74962025D01*
X52410700Y74771265D01*
X51886110Y74771265D01*
X52076870Y74866645D01*
X52410700Y74771265D01*
X52410700Y74962025D01*
X52076870Y75057405D01*
X51886110Y74962025D01*
X51456900Y74962025D01*
X50932310Y74723575D01*
X50312340Y74675885D01*
X48690879Y74962025D01*
X47594009Y75057405D01*
X47260179Y74818955D01*
X46544829Y74723575D01*
G36*
X60136483Y69334603D02*
G01*
X57608912Y65567092D01*
X57227392Y65567092D01*
X53078361Y67093172D01*
X53126051Y67188552D01*
X52995698Y67236242D01*
X53316811Y67236242D01*
X57418152Y65710162D01*
X57656602Y65948612D01*
X60041103Y69620743D01*
X60088793Y69954573D01*
X59945723Y70145333D01*
X59659583Y70240713D01*
X59421133Y69906883D01*
X59278063Y69906883D01*
X55796692Y71099133D01*
X55701311Y71003753D01*
X59325753Y69763813D01*
X58991923Y69334603D01*
X55415171Y70526853D01*
X55415171Y70383783D01*
X58896542Y69239223D01*
X58944232Y69143843D01*
X58658092Y68762323D01*
X55081341Y70002263D01*
X54985961Y69906883D01*
X55129031Y69811503D01*
X58610402Y68666943D01*
X58371952Y68285423D01*
X58228882Y68237733D01*
X54699821Y69429983D01*
X54652131Y69334603D01*
X54795201Y69239223D01*
X57322772Y68428493D01*
X58228882Y68046973D01*
X57895052Y67665452D01*
X54509061Y68857703D01*
X54270611Y68810013D01*
X54365991Y68714633D01*
X57847362Y67570072D01*
X57847362Y67474692D01*
X57608912Y67140862D01*
X57465842Y67140862D01*
X53984471Y68333113D01*
X53889091Y68237733D01*
X54032161Y68142353D01*
X57513532Y66997792D01*
X57322772Y66663962D01*
X57132012Y66568582D01*
X53746021Y67760832D01*
X53555261Y67713142D01*
X53316811Y67236242D01*
X52995698Y67236242D01*
X51170760Y67903902D01*
X49978510Y68190043D01*
X49596990Y68142353D01*
X50360030Y67570072D01*
X51790730Y66902412D01*
X56607422Y65376332D01*
X56941252Y65185572D01*
X57084322Y64947122D01*
X57036632Y64565601D01*
X53126051Y58508970D01*
X52696841Y58127449D01*
X51838420Y58127449D01*
X47709827Y59558150D01*
X48404739Y59558150D01*
X52029180Y58270519D01*
X52363010Y58222829D01*
X52649151Y58365899D01*
X53364501Y59272010D01*
X56845872Y64660981D01*
X56845872Y64947122D01*
X56607422Y65137882D01*
X56368972Y65233262D01*
X56082832Y64804051D01*
X55939762Y64804051D01*
X52458390Y65996302D01*
X52363010Y65900922D01*
X52506080Y65805542D01*
X55987452Y64660981D01*
X55749001Y64279461D01*
X55605931Y64231771D01*
X52076870Y65424022D01*
X52076870Y65280952D01*
X55558241Y64136391D01*
X55605931Y64041011D01*
X55319791Y63659491D01*
X51743040Y64899432D01*
X51647660Y64804051D01*
X51743040Y64708671D01*
X55224411Y63564111D01*
X55224411Y63468731D01*
X54985961Y63134901D01*
X54842891Y63134901D01*
X51361520Y64327151D01*
X51266140Y64231771D01*
X54795201Y63039521D01*
X54890581Y62944141D01*
X54556751Y62562621D01*
X50980000Y63754871D01*
X50932310Y63707181D01*
X51123070Y63564111D01*
X54222921Y62562621D01*
X54509061Y62371861D01*
X54222921Y61990341D01*
X50646170Y63230281D01*
X50550790Y63134901D01*
X50693860Y63039521D01*
X54175231Y61894961D01*
X53984471Y61561130D01*
X53793711Y61465750D01*
X50264650Y62658001D01*
X50264650Y62514931D01*
X53746021Y61370370D01*
X53793711Y61274990D01*
X53507571Y60893470D01*
X49930820Y62133411D01*
X49835440Y62038031D01*
X49930820Y61942651D01*
X53412191Y60798090D01*
X53412191Y60702710D01*
X53173741Y60368880D01*
X53030671Y60368880D01*
X49549300Y61561130D01*
X49453920Y61465750D01*
X52982981Y60273500D01*
X53078361Y60178120D01*
X52744531Y59796600D01*
X49167779Y60988850D01*
X49167779Y60845780D01*
X52649151Y59701220D01*
X52696841Y59605840D01*
X52410700Y59224320D01*
X48833949Y60464260D01*
X48404739Y59558150D01*
X47709827Y59558150D01*
X47021729Y59796600D01*
X45352578Y60464260D01*
X45209508Y60416570D01*
X45447958Y59605840D01*
X44684918Y59605840D01*
X43921878Y59796600D01*
X43444978Y60082740D01*
X42920387Y60607330D01*
X42205037Y61942651D01*
X41966587Y62705691D01*
X41919797Y63325661D01*
X44827988Y63325661D01*
X44923368Y61704201D01*
X45114128Y60798090D01*
X45209508Y60702710D01*
X48166289Y59605840D01*
X48261669Y59701220D01*
X48595499Y60559640D01*
X52506080Y66473202D01*
X51170760Y66997792D01*
X49930820Y67617762D01*
X49453920Y67999282D01*
X49263159Y68285423D01*
X49263159Y68476183D01*
X49358539Y68476183D01*
X49501610Y68237733D01*
X49978510Y68285423D01*
X50693860Y68142353D01*
X53030671Y67331622D01*
X53173741Y67379312D01*
X53364501Y67760832D01*
X53316811Y67856212D01*
X52076870Y68285423D01*
X50503100Y68666943D01*
X49835440Y68714633D01*
X49453920Y68619253D01*
X49358539Y68476183D01*
X49263159Y68476183D01*
X49263159Y68619253D01*
X49549300Y68810013D01*
X49809128Y68810013D01*
X50503100Y68810013D01*
X52267630Y68380803D01*
X53459881Y67951592D01*
X55796692Y71528344D01*
X50789240Y73149804D01*
X50598480Y73054424D01*
X50550790Y72196004D01*
X50360030Y71576034D01*
X50169270Y71289894D01*
X50169270Y71099133D01*
X49644680Y70669923D01*
X49453920Y70240713D01*
X49549300Y70145333D01*
X49787750Y70383783D01*
X49644680Y70002263D01*
X49518272Y69864365D01*
X48595499Y68857703D01*
X47212489Y67808522D01*
X46354069Y66997792D01*
X45638718Y65853232D01*
X45018748Y64279461D01*
X44827988Y63325661D01*
X41919797Y63325661D01*
X41775827Y65233262D01*
X41918897Y67522382D01*
X42443487Y69859193D01*
X43301908Y71814484D01*
X44208018Y73102114D01*
X44827988Y73674394D01*
X45495648Y74055914D01*
X45924858Y74198984D01*
X45877168Y74055914D01*
X46067928Y73960534D01*
X46231437Y74103604D01*
X46449449Y74103604D01*
X48070909Y73865154D01*
X48357049Y73674394D01*
X47403249Y72720594D01*
X47260179Y72434454D01*
X47307869Y72339074D01*
X48977019Y72768284D01*
X49215469Y72768284D01*
X49358539Y72625214D01*
X49215469Y71528344D01*
X49215469Y70526853D01*
X49310849Y70336093D01*
X49453920Y70669923D01*
X49978510Y71194513D01*
X50169270Y71576034D01*
X50407720Y72529834D01*
X50360030Y73292874D01*
X50455410Y73960534D01*
X50598480Y74294364D01*
X50789240Y74485125D01*
X49883130Y74532815D01*
X47832459Y74866645D01*
X47260179Y74628195D01*
X46687899Y74532815D01*
X46640209Y74294364D01*
X46449449Y74103604D01*
X46231437Y74103604D01*
X46449449Y74294364D01*
X46449449Y74628195D01*
X46544829Y74723575D01*
X47260179Y74818955D01*
X47594009Y75057405D01*
X48690879Y74962025D01*
X50312340Y74675885D01*
X50932310Y74723575D01*
X52839911Y74723575D01*
X53030671Y74628195D01*
X53126051Y74675885D01*
X53030671Y74771265D01*
X52839911Y74723575D01*
X50932310Y74723575D01*
X51037228Y74771265D01*
X51886110Y74771265D01*
X52410700Y74771265D01*
X52076870Y74866645D01*
X51886110Y74771265D01*
X51037228Y74771265D01*
X51456900Y74962025D01*
X51886110Y74962025D01*
X52076870Y75057405D01*
X52410700Y74962025D01*
X53030671Y74962025D01*
X53412191Y74580505D01*
X53269121Y74342054D01*
X52839911Y74532815D01*
X51218450Y74580505D01*
X50980000Y74485125D01*
X50693860Y74103604D01*
X50598480Y73388254D01*
X52935291Y72720594D01*
X56845872Y71432964D01*
X56941252Y71337584D01*
X60041103Y70336093D01*
X60231863Y70145333D01*
X60231863Y69620743D01*
X60136483Y69334603D01*
G37*
%TO.C,J5*%
X14030000Y19376436D02*
X14030000Y22576436D01*
X16290000Y22576436D01*
X16232000Y22518436D01*
X16182000Y22449436D01*
X16143000Y22373436D01*
X16118000Y22291436D01*
X16106000Y22207436D01*
X16108000Y22121436D01*
X16124000Y22037436D01*
X16153000Y21957436D01*
X16195000Y21882436D01*
X16248000Y21816436D01*
X16312000Y21759436D01*
X16384000Y21712436D01*
X16462000Y21679436D01*
X16545000Y21658436D01*
X16630000Y21651436D01*
X16715000Y21658436D01*
X16798000Y21679436D01*
X16876000Y21712436D01*
X16948000Y21759436D01*
X17012000Y21816436D01*
X17065000Y21882436D01*
X17107000Y21957436D01*
X17136000Y22037436D01*
X17152000Y22121436D01*
X17154000Y22207436D01*
X17142000Y22291436D01*
X17117000Y22373436D01*
X17078000Y22449436D01*
X17028000Y22518436D01*
X16970000Y22576436D01*
X19230000Y22576436D01*
X19230000Y19376436D01*
X14030000Y19376436D01*
G36*
X16232000Y22518436D02*
G01*
X16182000Y22449436D01*
X16143000Y22373436D01*
X16118000Y22291436D01*
X16106000Y22207436D01*
X16108000Y22121436D01*
X16124000Y22037436D01*
X16153000Y21957436D01*
X16195000Y21882436D01*
X16248000Y21816436D01*
X16312000Y21759436D01*
X16384000Y21712436D01*
X16462000Y21679436D01*
X16545000Y21658436D01*
X16630000Y21651436D01*
X16715000Y21658436D01*
X16798000Y21679436D01*
X16876000Y21712436D01*
X16948000Y21759436D01*
X17012000Y21816436D01*
X17065000Y21882436D01*
X17107000Y21957436D01*
X17136000Y22037436D01*
X17152000Y22121436D01*
X17154000Y22207436D01*
X17142000Y22291436D01*
X17117000Y22373436D01*
X17078000Y22449436D01*
X17028000Y22518436D01*
X16970000Y22576436D01*
X19230000Y22576436D01*
X19230000Y19376436D01*
X14030000Y19376436D01*
X14030000Y22576436D01*
X16290000Y22576436D01*
X16232000Y22518436D01*
G37*
%TO.C,J15*%
X175750000Y75206436D02*
X175750000Y72006436D01*
X173490000Y72006436D01*
X173548000Y72064436D01*
X173598000Y72133436D01*
X173637000Y72209436D01*
X173662000Y72291436D01*
X173674000Y72375436D01*
X173672000Y72461436D01*
X173656000Y72545436D01*
X173627000Y72625436D01*
X173585000Y72700436D01*
X173532000Y72766436D01*
X173468000Y72823436D01*
X173396000Y72870436D01*
X173318000Y72903436D01*
X173235000Y72924436D01*
X173150000Y72931436D01*
X173065000Y72924436D01*
X172982000Y72903436D01*
X172904000Y72870436D01*
X172832000Y72823436D01*
X172768000Y72766436D01*
X172715000Y72700436D01*
X172673000Y72625436D01*
X172644000Y72545436D01*
X172628000Y72461436D01*
X172626000Y72375436D01*
X172638000Y72291436D01*
X172663000Y72209436D01*
X172702000Y72133436D01*
X172752000Y72064436D01*
X172810000Y72006436D01*
X170550000Y72006436D01*
X170550000Y75206436D01*
X175750000Y75206436D01*
G36*
X175750000Y72006436D02*
G01*
X173490000Y72006436D01*
X173548000Y72064436D01*
X173598000Y72133436D01*
X173637000Y72209436D01*
X173662000Y72291436D01*
X173674000Y72375436D01*
X173672000Y72461436D01*
X173656000Y72545436D01*
X173627000Y72625436D01*
X173585000Y72700436D01*
X173532000Y72766436D01*
X173468000Y72823436D01*
X173396000Y72870436D01*
X173318000Y72903436D01*
X173235000Y72924436D01*
X173150000Y72931436D01*
X173065000Y72924436D01*
X172982000Y72903436D01*
X172904000Y72870436D01*
X172832000Y72823436D01*
X172768000Y72766436D01*
X172715000Y72700436D01*
X172673000Y72625436D01*
X172644000Y72545436D01*
X172628000Y72461436D01*
X172626000Y72375436D01*
X172638000Y72291436D01*
X172663000Y72209436D01*
X172702000Y72133436D01*
X172752000Y72064436D01*
X172810000Y72006436D01*
X170550000Y72006436D01*
X170550000Y75206436D01*
X175750000Y75206436D01*
X175750000Y72006436D01*
G37*
%TO.C,J12*%
X117092500Y35796436D02*
X117092500Y38996436D01*
X119167500Y38996436D01*
X119167500Y38596436D01*
X119170500Y38541436D01*
X119178500Y38487436D01*
X119193500Y38434436D01*
X119212500Y38382436D01*
X119237500Y38334436D01*
X119267500Y38287436D01*
X119302500Y38245436D01*
X119341500Y38206436D01*
X119383500Y38171436D01*
X119430500Y38141436D01*
X119478500Y38116436D01*
X119530500Y38097436D01*
X119583500Y38082436D01*
X119637500Y38074436D01*
X119692500Y38071436D01*
X119747500Y38074436D01*
X119801500Y38082436D01*
X119854500Y38097436D01*
X119906500Y38116436D01*
X119954500Y38141436D01*
X120001500Y38171436D01*
X120043500Y38206436D01*
X120082500Y38245436D01*
X120117500Y38287436D01*
X120147500Y38334436D01*
X120172500Y38382436D01*
X120191500Y38434436D01*
X120206500Y38487436D01*
X120214500Y38541436D01*
X120217500Y38596436D01*
X120217500Y38996436D01*
X122292500Y38996436D01*
X122292500Y35796436D01*
X117092500Y35796436D01*
G36*
X119167500Y38596436D02*
G01*
X119170500Y38541436D01*
X119178500Y38487436D01*
X119193500Y38434436D01*
X119212500Y38382436D01*
X119237500Y38334436D01*
X119267500Y38287436D01*
X119302500Y38245436D01*
X119341500Y38206436D01*
X119383500Y38171436D01*
X119430500Y38141436D01*
X119478500Y38116436D01*
X119530500Y38097436D01*
X119583500Y38082436D01*
X119637500Y38074436D01*
X119692500Y38071436D01*
X119747500Y38074436D01*
X119801500Y38082436D01*
X119854500Y38097436D01*
X119906500Y38116436D01*
X119954500Y38141436D01*
X120001500Y38171436D01*
X120043500Y38206436D01*
X120082500Y38245436D01*
X120117500Y38287436D01*
X120147500Y38334436D01*
X120172500Y38382436D01*
X120191500Y38434436D01*
X120206500Y38487436D01*
X120214500Y38541436D01*
X120217500Y38596436D01*
X120217500Y38996436D01*
X122292500Y38996436D01*
X122292500Y35796436D01*
X117092500Y35796436D01*
X117092500Y38996436D01*
X119167500Y38996436D01*
X119167500Y38596436D01*
G37*
%TO.C,J11*%
X139440000Y35866436D02*
X139440000Y39066436D01*
X141515000Y39066436D01*
X141515000Y38666436D01*
X141518000Y38611436D01*
X141526000Y38557436D01*
X141541000Y38504436D01*
X141560000Y38452436D01*
X141585000Y38404436D01*
X141615000Y38357436D01*
X141650000Y38315436D01*
X141689000Y38276436D01*
X141731000Y38241436D01*
X141778000Y38211436D01*
X141826000Y38186436D01*
X141878000Y38167436D01*
X141931000Y38152436D01*
X141985000Y38144436D01*
X142040000Y38141436D01*
X142095000Y38144436D01*
X142149000Y38152436D01*
X142202000Y38167436D01*
X142254000Y38186436D01*
X142302000Y38211436D01*
X142349000Y38241436D01*
X142391000Y38276436D01*
X142430000Y38315436D01*
X142465000Y38357436D01*
X142495000Y38404436D01*
X142520000Y38452436D01*
X142539000Y38504436D01*
X142554000Y38557436D01*
X142562000Y38611436D01*
X142565000Y38666436D01*
X142565000Y39066436D01*
X144640000Y39066436D01*
X144640000Y35866436D01*
X139440000Y35866436D01*
G36*
X141515000Y38666436D02*
G01*
X141518000Y38611436D01*
X141526000Y38557436D01*
X141541000Y38504436D01*
X141560000Y38452436D01*
X141585000Y38404436D01*
X141615000Y38357436D01*
X141650000Y38315436D01*
X141689000Y38276436D01*
X141731000Y38241436D01*
X141778000Y38211436D01*
X141826000Y38186436D01*
X141878000Y38167436D01*
X141931000Y38152436D01*
X141985000Y38144436D01*
X142040000Y38141436D01*
X142095000Y38144436D01*
X142149000Y38152436D01*
X142202000Y38167436D01*
X142254000Y38186436D01*
X142302000Y38211436D01*
X142349000Y38241436D01*
X142391000Y38276436D01*
X142430000Y38315436D01*
X142465000Y38357436D01*
X142495000Y38404436D01*
X142520000Y38452436D01*
X142539000Y38504436D01*
X142554000Y38557436D01*
X142562000Y38611436D01*
X142565000Y38666436D01*
X142565000Y39066436D01*
X144640000Y39066436D01*
X144640000Y35866436D01*
X139440000Y35866436D01*
X139440000Y39066436D01*
X141515000Y39066436D01*
X141515000Y38666436D01*
G37*
D11*
%TO.C,U2*%
G36*
X166898228Y26223149D02*
G01*
X166898228Y24923147D01*
X166848228Y24873147D01*
X166060228Y24873147D01*
X166010226Y24923147D01*
X166010226Y26223149D01*
X166060228Y26273149D01*
X166848228Y26273149D01*
X166898228Y26223149D01*
G37*
G36*
X167073226Y27223147D02*
G01*
X167073226Y26673148D01*
X166973226Y26573149D01*
X166823226Y26573149D01*
X166723227Y26673148D01*
X166723227Y27223147D01*
X166823226Y27323147D01*
X166973226Y27323147D01*
X167073226Y27223147D01*
G37*
G36*
X167073226Y24473148D02*
G01*
X167073226Y23923149D01*
X166973226Y23823149D01*
X166823226Y23823149D01*
X166723227Y23923149D01*
X166723227Y24473148D01*
X166823226Y24573147D01*
X166973226Y24573147D01*
X167073226Y24473148D01*
G37*
G36*
X167898228Y26398148D02*
G01*
X167898228Y26248148D01*
X167798226Y26148148D01*
X167248227Y26148148D01*
X167148227Y26248148D01*
X167148227Y26398148D01*
X167248227Y26498147D01*
X167798226Y26498147D01*
X167898228Y26398148D01*
G37*
G36*
X167898228Y25898149D02*
G01*
X167898228Y25748149D01*
X167798226Y25648149D01*
X167248227Y25648149D01*
X167148227Y25748149D01*
X167148227Y25898149D01*
X167248227Y25998148D01*
X167798226Y25998148D01*
X167898228Y25898149D01*
G37*
G36*
X167898228Y25398147D02*
G01*
X167898228Y25248147D01*
X167798226Y25148148D01*
X167248227Y25148148D01*
X167148227Y25248147D01*
X167148227Y25398147D01*
X167248227Y25498147D01*
X167798226Y25498147D01*
X167898228Y25398147D01*
G37*
G36*
X167898228Y24898148D02*
G01*
X167898228Y24748148D01*
X167798226Y24648149D01*
X167248227Y24648149D01*
X167148227Y24748148D01*
X167148227Y24898148D01*
X167248227Y24998148D01*
X167798226Y24998148D01*
X167898228Y24898148D01*
G37*
G36*
X164523226Y27223147D02*
G01*
X164523226Y26748147D01*
X164473226Y26698147D01*
X163998228Y26698147D01*
X163948228Y26748147D01*
X163948226Y26898149D01*
X163998228Y26948149D01*
X164173227Y26948149D01*
X164273226Y27048149D01*
X164273226Y27223147D01*
X164323226Y27273147D01*
X164473229Y27273147D01*
X164523226Y27223147D01*
G37*
G36*
X164523226Y24398149D02*
G01*
X164523226Y23923149D01*
X164473229Y23873149D01*
X164323226Y23873149D01*
X164273226Y23923149D01*
X164273226Y24098147D01*
X164173227Y24198147D01*
X163998228Y24198147D01*
X163948226Y24248147D01*
X163948228Y24398149D01*
X163998228Y24448149D01*
X164473229Y24448149D01*
X164523226Y24398149D01*
G37*
G36*
X167523228Y27223147D02*
G01*
X167523228Y27048149D01*
X167623227Y26948149D01*
X167798226Y26948149D01*
X167848228Y26898149D01*
X167848226Y26748147D01*
X167798226Y26698147D01*
X167323228Y26698147D01*
X167273226Y26748147D01*
X167273228Y27223147D01*
X167323228Y27273147D01*
X167473228Y27273147D01*
X167523228Y27223147D01*
G37*
G36*
X167848226Y24398147D02*
G01*
X167848228Y24248147D01*
X167798226Y24198147D01*
X167623227Y24198147D01*
X167523228Y24098147D01*
X167523228Y23923149D01*
X167473228Y23873149D01*
X167323225Y23873149D01*
X167273228Y23923149D01*
X167273228Y24398149D01*
X167323228Y24448149D01*
X167798226Y24448149D01*
X167848226Y24398147D01*
G37*
G36*
X166023228Y27223147D02*
G01*
X166023225Y26998149D01*
X166073228Y26948149D01*
X166223228Y26948149D01*
X166273228Y26998149D01*
X166273228Y27223147D01*
X166323227Y27273147D01*
X166473227Y27273147D01*
X166523227Y27223147D01*
X166523227Y26623148D01*
X166473227Y26573149D01*
X165823228Y26573149D01*
X165773226Y26623148D01*
X165773226Y27223147D01*
X165823226Y27273147D01*
X165973226Y27273147D01*
X166023228Y27223147D01*
G37*
G36*
X166523227Y24523148D02*
G01*
X166523227Y23923149D01*
X166473227Y23873149D01*
X166323225Y23873149D01*
X166273228Y23923149D01*
X166273225Y24148147D01*
X166223228Y24198149D01*
X166073228Y24198149D01*
X166023228Y24148147D01*
X166023225Y23923149D01*
X165973228Y23873149D01*
X165823228Y23873149D01*
X165773226Y23923149D01*
X165773226Y24523148D01*
X165823228Y24573147D01*
X166473227Y24573147D01*
X166523227Y24523148D01*
G37*
G36*
X165023230Y27223147D02*
G01*
X165023227Y26998149D01*
X165073227Y26948149D01*
X165223227Y26948147D01*
X165273227Y26998149D01*
X165273227Y27223147D01*
X165323227Y27273147D01*
X165473227Y27273147D01*
X165523229Y27223147D01*
X165522228Y26423149D01*
X165623229Y26323149D01*
X165660226Y26323149D01*
X165710229Y26273149D01*
X165710226Y25773148D01*
X165659228Y25723148D01*
X164898226Y25723148D01*
X164848227Y25773148D01*
X164848227Y26598147D01*
X164823228Y26623148D01*
X164798227Y26623148D01*
X164773228Y26648147D01*
X164773228Y27223147D01*
X164823228Y27273147D01*
X164973228Y27273147D01*
X165023230Y27223147D01*
G37*
G36*
X165710226Y25373148D02*
G01*
X165710229Y24873147D01*
X165660226Y24823147D01*
X165623229Y24823147D01*
X165522228Y24723147D01*
X165523229Y23923149D01*
X165473227Y23873149D01*
X165323227Y23873149D01*
X165273227Y23923149D01*
X165273230Y24148147D01*
X165223227Y24198147D01*
X165073227Y24198149D01*
X165023227Y24148147D01*
X165023230Y23923149D01*
X164973228Y23873149D01*
X164823228Y23873149D01*
X164773228Y23923149D01*
X164773228Y24498149D01*
X164798227Y24523148D01*
X164823228Y24523148D01*
X164848227Y24548149D01*
X164848227Y25373148D01*
X164898226Y25423148D01*
X165659228Y25423148D01*
X165710226Y25373148D01*
G37*
G36*
X164548227Y26398148D02*
G01*
X164548227Y24748148D01*
X164498227Y24698148D01*
X163998228Y24698148D01*
X163948226Y24748148D01*
X163948228Y24898148D01*
X163998228Y24948148D01*
X164223227Y24948148D01*
X164273226Y24998148D01*
X164273226Y25148148D01*
X164223227Y25198147D01*
X163998228Y25198147D01*
X163948226Y25248147D01*
X163948228Y25398147D01*
X163998228Y25448147D01*
X164223227Y25448150D01*
X164273226Y25498149D01*
X164273226Y25648147D01*
X164223227Y25698149D01*
X163998228Y25698149D01*
X163948226Y25748149D01*
X163948228Y25898149D01*
X163998228Y25948149D01*
X164223227Y25948149D01*
X164273226Y25998148D01*
X164273226Y26148148D01*
X164223227Y26198148D01*
X163998228Y26198148D01*
X163948226Y26248148D01*
X163948228Y26398148D01*
X163998228Y26448148D01*
X164498227Y26448148D01*
X164548227Y26398148D01*
G37*
%TD*%
D12*
%TO.C,J3*%
X52490000Y4136436D03*
X55030000Y6676436D03*
X49950000Y6676436D03*
X55030000Y1596436D03*
X49950000Y1596436D03*
%TD*%
D13*
%TO.C,U3*%
X119579050Y19021437D03*
X119579050Y18071436D03*
X119579050Y17121435D03*
X122080950Y17121435D03*
X122080950Y18071436D03*
X122080950Y19021437D03*
%TD*%
D14*
%TO.C,TP6*%
X112540000Y86906436D03*
%TD*%
D15*
%TO.C,C60*%
X123207500Y82396436D03*
X124167500Y82396436D03*
%TD*%
D16*
%TO.C,D4*%
X61394000Y2146436D03*
X63045000Y2146436D03*
%TD*%
%TO.C,D5*%
X30389500Y2146436D03*
X32040500Y2146436D03*
%TD*%
D17*
%TO.C,C17*%
X154710000Y39696436D03*
X154710000Y44522436D03*
%TD*%
D18*
%TO.C,C89*%
X49400000Y12586436D03*
X48440000Y12586436D03*
%TD*%
D19*
%TO.C,C7*%
X164854800Y29438148D03*
X166404800Y29438148D03*
%TD*%
D17*
%TO.C,C80*%
X128830000Y57415186D03*
X128830000Y62241186D03*
%TD*%
D12*
%TO.C,J6*%
X5510000Y26286436D03*
X8050000Y23746436D03*
X8050000Y28826436D03*
X2970000Y23746436D03*
X2970000Y28826436D03*
%TD*%
D18*
%TO.C,C82*%
X126484643Y51836436D03*
X125524643Y51836436D03*
%TD*%
D20*
%TO.C,R25*%
X18145000Y71446436D03*
X16495000Y71446436D03*
%TD*%
D18*
%TO.C,C28*%
X8614600Y67248134D03*
X7654600Y67248134D03*
%TD*%
D21*
%TO.C,C68*%
X128100000Y72296436D03*
X128100000Y73256436D03*
%TD*%
D22*
%TO.C,R1*%
X119925000Y15311436D03*
X121575000Y15311436D03*
%TD*%
D23*
%TO.C,SW1*%
X134820000Y10246436D03*
X134820000Y2286436D03*
X130320000Y10246436D03*
X130320000Y2286436D03*
%TD*%
D24*
%TO.C,R36*%
X10450000Y27921436D03*
X10450000Y26271436D03*
%TD*%
D15*
%TO.C,C88*%
X86270000Y82006436D03*
X87230000Y82006436D03*
%TD*%
D16*
%TO.C,D2*%
X141289000Y2996436D03*
X142940000Y2996436D03*
%TD*%
D25*
%TO.C,JP8*%
X131347500Y88236436D03*
X131347500Y86686436D03*
X131347500Y85136436D03*
%TD*%
D26*
%TO.C,C19*%
X155080000Y32786436D03*
X155080000Y30886436D03*
%TD*%
D18*
%TO.C,C46*%
X23320000Y48519769D03*
X22360000Y48519769D03*
%TD*%
D27*
%TO.C,FM2*%
X171150000Y90726436D03*
%TD*%
D28*
%TO.C,JP3*%
X122602500Y73526436D03*
X122602500Y71976436D03*
X122602500Y70426436D03*
%TD*%
D29*
%TO.C,R29*%
X118940000Y80211436D03*
X118940000Y81861436D03*
%TD*%
D15*
%TO.C,C56*%
X123207500Y81476436D03*
X124167500Y81476436D03*
%TD*%
D30*
%TO.C,C85*%
X121790000Y84606436D03*
X121790000Y86506436D03*
%TD*%
D31*
%TO.C,C3*%
X164385000Y31326436D03*
X167335000Y31326436D03*
%TD*%
D32*
%TO.C,J13*%
X88999999Y83612436D03*
D33*
X109000000Y83612436D03*
D34*
X89750000Y88887438D03*
X90000000Y81337435D03*
X90249999Y88887438D03*
X90499999Y81337435D03*
X90749998Y88887438D03*
X90999998Y81337435D03*
X91250000Y88887438D03*
X91500000Y81337435D03*
X91749999Y88887438D03*
X91999999Y81337435D03*
X92249998Y88887438D03*
X92499999Y81337435D03*
X92749998Y88887438D03*
X92999998Y81337435D03*
X93249999Y88887438D03*
X93499999Y81337435D03*
X93749998Y88887438D03*
X93999998Y81337435D03*
X94250000Y88887438D03*
X94500000Y81337435D03*
X94749999Y88887438D03*
X94999999Y81337435D03*
X95249998Y88887438D03*
X95499998Y81337435D03*
X95749999Y88887438D03*
X95999999Y81337435D03*
X96249998Y88887438D03*
X96499998Y81337435D03*
X96750000Y88887438D03*
X97000000Y81337435D03*
X97249999Y88887438D03*
X97499999Y81337435D03*
X97749998Y88887438D03*
X97999998Y81337435D03*
X98250000Y88887438D03*
X98500000Y81337435D03*
X98749999Y88887438D03*
X98999999Y81337435D03*
X99250000Y88887438D03*
X99500000Y81337435D03*
X99749999Y88887438D03*
X99999999Y81337435D03*
X100249998Y88887438D03*
X100499998Y81337435D03*
X100750000Y88887438D03*
X101000000Y81337435D03*
X101249999Y88887438D03*
X101499999Y81337435D03*
X101750000Y88887438D03*
X102000000Y81337435D03*
X102249999Y88887438D03*
X102499999Y81337435D03*
X102749998Y88887438D03*
X102999998Y81337435D03*
X103250000Y88887438D03*
X103500000Y81337435D03*
X103749999Y88887438D03*
X103999999Y81337435D03*
X106250000Y88887438D03*
X106500000Y81337435D03*
X106749999Y88887438D03*
X106999999Y81337435D03*
X107249998Y88887438D03*
X107499998Y81337435D03*
X107750000Y88887438D03*
X108000000Y81337435D03*
X108249999Y88887438D03*
D35*
X88650000Y88112436D03*
X109349999Y88112436D03*
D36*
X99000000Y55087436D03*
X99000000Y43087436D03*
X99000000Y5087436D03*
%TD*%
D28*
%TO.C,JP14*%
X166240000Y57106436D03*
X166240000Y58656436D03*
X166240000Y60206436D03*
%TD*%
D18*
%TO.C,C49*%
X49400000Y11656436D03*
X48440000Y11656436D03*
%TD*%
D21*
%TO.C,C25*%
X15194163Y66356761D03*
X15194163Y67316761D03*
%TD*%
D37*
%TO.C,J9*%
X164530000Y68606436D03*
X161990000Y68606436D03*
X159450000Y68606436D03*
X156910000Y68606436D03*
%TD*%
D26*
%TO.C,C14*%
X159010000Y32786436D03*
X159010000Y30886436D03*
%TD*%
D15*
%TO.C,C37*%
X6349600Y72338134D03*
X7309600Y72338134D03*
%TD*%
D22*
%TO.C,R7*%
X169459800Y20918148D03*
X171109800Y20918148D03*
%TD*%
D24*
%TO.C,R10*%
X126259800Y12856436D03*
X126259800Y11206436D03*
%TD*%
D15*
%TO.C,C10*%
X165154800Y28243148D03*
X166114800Y28243148D03*
%TD*%
D25*
%TO.C,JP12*%
X23360000Y7356436D03*
X23360000Y5806436D03*
X23360000Y4256436D03*
%TD*%
D18*
%TO.C,C64*%
X136347500Y75474740D03*
X135387500Y75474740D03*
%TD*%
D31*
%TO.C,C4*%
X164345000Y19876436D03*
X167295000Y19876436D03*
%TD*%
D18*
%TO.C,C81*%
X126480000Y50916436D03*
X125520000Y50916436D03*
%TD*%
D25*
%TO.C,JP6*%
X132757500Y88236436D03*
X132757500Y86686436D03*
X132757500Y85136436D03*
%TD*%
D27*
%TO.C,FM3*%
X7240000Y1846436D03*
%TD*%
D38*
%TO.C,D1*%
X147965000Y4516436D03*
X152295000Y4516436D03*
%TD*%
D22*
%TO.C,R38*%
X58220000Y2146436D03*
X59870000Y2146436D03*
%TD*%
D24*
%TO.C,R4*%
X172479800Y31303148D03*
X172479800Y29653148D03*
%TD*%
D14*
%TO.C,TP1*%
X112480000Y3786436D03*
%TD*%
D18*
%TO.C,C67*%
X137250000Y83286436D03*
X136290000Y83286436D03*
%TD*%
D30*
%TO.C,C27*%
X15160000Y78226436D03*
X15160000Y80126436D03*
%TD*%
D28*
%TO.C,JP2*%
X121177500Y73526436D03*
X121177500Y71976436D03*
X121177500Y70426436D03*
%TD*%
D22*
%TO.C,R28*%
X27145000Y2146436D03*
X28795000Y2146436D03*
%TD*%
%TO.C,R34*%
X135522500Y74144740D03*
X137172500Y74144740D03*
%TD*%
D39*
%TO.C,C51*%
X130097500Y85846436D03*
X130097500Y84886436D03*
%TD*%
D15*
%TO.C,C87*%
X86270000Y82936436D03*
X87230000Y82936436D03*
%TD*%
D28*
%TO.C,JP4*%
X119752500Y73526436D03*
X119752500Y71976436D03*
X119752500Y70426436D03*
%TD*%
D20*
%TO.C,R16*%
X5816496Y66078134D03*
X4166496Y66078134D03*
%TD*%
D39*
%TO.C,C32*%
X13059600Y77188134D03*
X13059600Y76228134D03*
%TD*%
D29*
%TO.C,R26*%
X118740000Y76271436D03*
X118740000Y77921436D03*
%TD*%
D21*
%TO.C,C30*%
X11339600Y65688134D03*
X11339600Y66648134D03*
%TD*%
D40*
%TO.C,U7*%
X117212500Y81550186D03*
X116262500Y81550186D03*
X115312500Y81550186D03*
X115312500Y79075186D03*
X117212500Y79075186D03*
%TD*%
D39*
%TO.C,C54*%
X126217500Y85851436D03*
X126217500Y84891436D03*
%TD*%
D14*
%TO.C,TP4*%
X157280000Y49986436D03*
%TD*%
D36*
%TO.C,H4*%
X175590000Y3746436D03*
%TD*%
D39*
%TO.C,C73*%
X129020000Y73266436D03*
X129020000Y72306436D03*
%TD*%
D15*
%TO.C,C38*%
X4504600Y69118134D03*
X5464600Y69118134D03*
%TD*%
D18*
%TO.C,C69*%
X124100000Y80496436D03*
X123140000Y80496436D03*
%TD*%
D15*
%TO.C,C8*%
X165154800Y22973148D03*
X166114800Y22973148D03*
%TD*%
D20*
%TO.C,R23*%
X18159600Y69518134D03*
X16509600Y69518134D03*
%TD*%
D32*
%TO.C,J14*%
X58519999Y83612436D03*
D33*
X78520000Y83612436D03*
D34*
X59270000Y88887438D03*
X59520000Y81337435D03*
X59769999Y88887438D03*
X60019999Y81337435D03*
X60269998Y88887438D03*
X60519998Y81337435D03*
X60770000Y88887438D03*
X61020000Y81337435D03*
X61269999Y88887438D03*
X61519999Y81337435D03*
X61769998Y88887438D03*
X62019999Y81337435D03*
X62269998Y88887438D03*
X62519998Y81337435D03*
X62769999Y88887438D03*
X63019999Y81337435D03*
X63269998Y88887438D03*
X63519998Y81337435D03*
X63770000Y88887438D03*
X64020000Y81337435D03*
X64269999Y88887438D03*
X64519999Y81337435D03*
X64769998Y88887438D03*
X65019998Y81337435D03*
X65269999Y88887438D03*
X65519999Y81337435D03*
X65769998Y88887438D03*
X66019998Y81337435D03*
X66270000Y88887438D03*
X66520000Y81337435D03*
X66769999Y88887438D03*
X67019999Y81337435D03*
X67269998Y88887438D03*
X67519998Y81337435D03*
X67770000Y88887438D03*
X68020000Y81337435D03*
X68269999Y88887438D03*
X68519999Y81337435D03*
X68770000Y88887438D03*
X69020000Y81337435D03*
X69269999Y88887438D03*
X69519999Y81337435D03*
X69769998Y88887438D03*
X70019998Y81337435D03*
X70270000Y88887438D03*
X70520000Y81337435D03*
X70769999Y88887438D03*
X71019999Y81337435D03*
X71270000Y88887438D03*
X71520000Y81337435D03*
X71769999Y88887438D03*
X72019999Y81337435D03*
X72269998Y88887438D03*
X72519998Y81337435D03*
X72770000Y88887438D03*
X73020000Y81337435D03*
X73269999Y88887438D03*
X73519999Y81337435D03*
X75770000Y88887438D03*
X76020000Y81337435D03*
X76269999Y88887438D03*
X76519999Y81337435D03*
X76769998Y88887438D03*
X77019998Y81337435D03*
X77270000Y88887438D03*
X77520000Y81337435D03*
X77769999Y88887438D03*
D35*
X58170000Y88112436D03*
X78869999Y88112436D03*
D36*
X68520000Y55087436D03*
X68520000Y43087436D03*
X68520000Y5087436D03*
%TD*%
D39*
%TO.C,C35*%
X12129600Y77188134D03*
X12129600Y76228134D03*
%TD*%
D29*
%TO.C,R12*%
X169534800Y25243148D03*
X169534800Y26893148D03*
%TD*%
D26*
%TO.C,C15*%
X157070000Y20346436D03*
X157070000Y18446436D03*
%TD*%
D20*
%TO.C,R9*%
X171109800Y22378148D03*
X169459800Y22378148D03*
%TD*%
D21*
%TO.C,C55*%
X131390000Y72326436D03*
X131390000Y73286436D03*
%TD*%
D12*
%TO.C,J4*%
X5010000Y55306436D03*
X7550000Y52766436D03*
X7550000Y57846436D03*
X2470000Y52766436D03*
X2470000Y57846436D03*
%TD*%
D41*
%TO.C,L3*%
X115560000Y83866436D03*
X117710000Y83866436D03*
%TD*%
D27*
%TO.C,FM1*%
X7400000Y90936436D03*
%TD*%
D20*
%TO.C,R2*%
X121575000Y13841436D03*
X119925000Y13841436D03*
%TD*%
D27*
%TO.C,FM4*%
X171290000Y1746436D03*
%TD*%
D15*
%TO.C,C48*%
X135360000Y78066436D03*
X136320000Y78066436D03*
%TD*%
D36*
%TO.C,H2*%
X3500000Y4076436D03*
%TD*%
D15*
%TO.C,C57*%
X123207500Y83316436D03*
X124167500Y83316436D03*
%TD*%
D16*
%TO.C,D3*%
X91754500Y2086436D03*
X93405500Y2086436D03*
%TD*%
D42*
%TO.C,L1*%
X160120000Y25636436D03*
X152500000Y25636436D03*
%TD*%
D39*
%TO.C,C59*%
X133877500Y85846436D03*
X133877500Y84886436D03*
%TD*%
D26*
%TO.C,C23*%
X16790000Y66646436D03*
X16790000Y64746436D03*
%TD*%
D43*
%TO.C,J5*%
X16630000Y45326436D03*
X16630000Y22176436D03*
D44*
X20230000Y56976436D03*
X20230000Y55976436D03*
X20230000Y54976436D03*
X20230000Y53976436D03*
X20230000Y52976436D03*
X20230000Y51976436D03*
X20230000Y50976436D03*
X20230000Y49976436D03*
X20230000Y48976436D03*
X20230000Y47976436D03*
X20230000Y46976436D03*
X20230000Y43976436D03*
X20230000Y42976436D03*
X20230000Y41976436D03*
X20230000Y40976436D03*
X20230000Y39976436D03*
X20230000Y38976436D03*
X20230000Y37976436D03*
X20230000Y36976436D03*
X20230000Y35976436D03*
X20230000Y34976436D03*
X20230000Y33976436D03*
X20230000Y32976436D03*
X20230000Y31976436D03*
X20230000Y30976436D03*
X20230000Y29976436D03*
X20230000Y28976436D03*
X20230000Y27976436D03*
X20230000Y26976436D03*
X20230000Y25976436D03*
X20230000Y24976436D03*
X20230000Y23976436D03*
X13030000Y56976436D03*
X13030000Y55976436D03*
X13030000Y54976436D03*
X13030000Y53976436D03*
X13030000Y52976436D03*
X13030000Y51976436D03*
X13030000Y50976436D03*
X13030000Y49976436D03*
X13030000Y48976436D03*
X13030000Y47976436D03*
X13030000Y46976436D03*
X13030000Y43976436D03*
X13030000Y42976436D03*
X13030000Y41976436D03*
X13030000Y40976436D03*
X13030000Y39976436D03*
X13030000Y38976436D03*
X13030000Y37976436D03*
X13030000Y36976436D03*
X13030000Y35976436D03*
X13030000Y34976436D03*
X13030000Y33976436D03*
X13030000Y32976436D03*
X13030000Y31976436D03*
X13030000Y30976436D03*
X13030000Y29976436D03*
X13030000Y28976436D03*
X13030000Y27976436D03*
X13030000Y26976436D03*
X13030000Y25976436D03*
X13030000Y24976436D03*
X13030000Y23976436D03*
D45*
X16630000Y59976436D03*
%TD*%
D21*
%TO.C,C58*%
X133800000Y72676436D03*
X133800000Y73636436D03*
%TD*%
D15*
%TO.C,C62*%
X123207500Y75476436D03*
X124167500Y75476436D03*
%TD*%
D26*
%TO.C,C13*%
X159040000Y20346436D03*
X159040000Y18446436D03*
%TD*%
D20*
%TO.C,R19*%
X5816496Y67538134D03*
X4166496Y67538134D03*
%TD*%
D25*
%TO.C,JP7*%
X124027500Y73526436D03*
X124027500Y71976436D03*
X124027500Y70426436D03*
%TD*%
D36*
%TO.C,H6*%
X83890000Y3786436D03*
%TD*%
D28*
%TO.C,C9*%
X163039800Y22248148D03*
X163039800Y23798148D03*
%TD*%
D46*
%TO.C,FB3*%
X16729600Y77453134D03*
X16729600Y78423134D03*
%TD*%
D28*
%TO.C,JP5*%
X118327500Y73526436D03*
X118327500Y71976436D03*
X118327500Y70426436D03*
%TD*%
D18*
%TO.C,C45*%
X23320000Y49449769D03*
X22360000Y49449769D03*
%TD*%
D46*
%TO.C,FB1*%
X18320000Y65971436D03*
X18320000Y66941436D03*
%TD*%
D47*
%TO.C,U6*%
X9144600Y68533134D03*
X9544600Y68533134D03*
X9944600Y68533134D03*
X10344600Y68533134D03*
X10744600Y68533134D03*
X11144600Y68533134D03*
X11544600Y68533134D03*
X11944600Y68533134D03*
X12344600Y68533134D03*
X12744600Y68533134D03*
X13144600Y68533134D03*
X13544600Y68533134D03*
D48*
X14279600Y69268134D03*
X14279600Y69668134D03*
X14279600Y70068134D03*
X14279600Y70468134D03*
X14279600Y70868134D03*
X14279600Y71268134D03*
X14279600Y71668134D03*
X14279600Y72068134D03*
X14279600Y72468134D03*
X14279600Y72868134D03*
X14279600Y73268134D03*
X14279600Y73668134D03*
D47*
X13544600Y74403134D03*
X13144600Y74403134D03*
X12744600Y74403134D03*
X12344600Y74403134D03*
X11944600Y74403134D03*
X11544600Y74403134D03*
X11144600Y74403134D03*
X10744600Y74403134D03*
X10344600Y74403134D03*
X9944600Y74403134D03*
X9544600Y74403134D03*
X9144600Y74403134D03*
D48*
X8409600Y73668134D03*
X8409600Y73268134D03*
X8409600Y72868134D03*
X8409600Y72468134D03*
X8409600Y72068134D03*
X8409600Y71668134D03*
X8409600Y71268134D03*
X8409600Y70868134D03*
X8409600Y70468134D03*
X8409600Y70068134D03*
X8409600Y69668134D03*
X8409600Y69268134D03*
D49*
X11344600Y71468134D03*
%TD*%
D21*
%TO.C,C71*%
X128190000Y87006436D03*
X128190000Y87966436D03*
%TD*%
D17*
%TO.C,C41*%
X162230000Y39696436D03*
X162230000Y44522436D03*
%TD*%
D18*
%TO.C,C31*%
X17230000Y73556436D03*
X16270000Y73556436D03*
%TD*%
D20*
%TO.C,R18*%
X5809600Y70568134D03*
X4159600Y70568134D03*
%TD*%
D50*
%TO.C,C44*%
X5900000Y49076436D03*
X5900000Y44250436D03*
%TD*%
D18*
%TO.C,C22*%
X131790000Y21381436D03*
X130830000Y21381436D03*
%TD*%
D36*
%TO.C,H5*%
X83890000Y88586436D03*
%TD*%
D14*
%TO.C,TP3*%
X1890000Y63286436D03*
%TD*%
D26*
%TO.C,C21*%
X153110000Y32786436D03*
X153110000Y30886436D03*
%TD*%
D25*
%TO.C,C12*%
X172489800Y26838148D03*
X172489800Y25288148D03*
%TD*%
D32*
%TO.C,J7*%
X46580001Y9971436D03*
D33*
X26580000Y9971436D03*
D34*
X45830000Y4696434D03*
X45580000Y12246437D03*
X45330001Y4696434D03*
X45080001Y12246437D03*
X44830002Y4696434D03*
X44580002Y12246437D03*
X44330000Y4696434D03*
X44080000Y12246437D03*
X43830001Y4696434D03*
X43580001Y12246437D03*
X43330002Y4696434D03*
X43080001Y12246437D03*
X42830002Y4696434D03*
X42580002Y12246437D03*
X42330001Y4696434D03*
X42080001Y12246437D03*
X41830002Y4696434D03*
X41580002Y12246437D03*
X41330000Y4696434D03*
X41080000Y12246437D03*
X40830001Y4696434D03*
X40580001Y12246437D03*
X40330002Y4696434D03*
X40080002Y12246437D03*
X39830001Y4696434D03*
X39580001Y12246437D03*
X39330002Y4696434D03*
X39080002Y12246437D03*
X38830000Y4696434D03*
X38580000Y12246437D03*
X38330001Y4696434D03*
X38080001Y12246437D03*
X37830002Y4696434D03*
X37580002Y12246437D03*
X37330000Y4696434D03*
X37080000Y12246437D03*
X36830001Y4696434D03*
X36580001Y12246437D03*
X36330000Y4696434D03*
X36080000Y12246437D03*
X35830001Y4696434D03*
X35580001Y12246437D03*
X35330002Y4696434D03*
X35080002Y12246437D03*
X34830000Y4696434D03*
X34580000Y12246437D03*
X34330001Y4696434D03*
X34080001Y12246437D03*
X33830000Y4696434D03*
X33580000Y12246437D03*
X33330001Y4696434D03*
X33080001Y12246437D03*
X32830002Y4696434D03*
X32580002Y12246437D03*
X32330000Y4696434D03*
X32080000Y12246437D03*
X31830001Y4696434D03*
X31580001Y12246437D03*
X29330000Y4696434D03*
X29080000Y12246437D03*
X28830001Y4696434D03*
X28580001Y12246437D03*
X28330002Y4696434D03*
X28080002Y12246437D03*
X27830000Y4696434D03*
X27580000Y12246437D03*
X27330001Y4696434D03*
D35*
X46930000Y5471436D03*
X26230001Y5471436D03*
D36*
X36580000Y38496436D03*
X36580000Y50496436D03*
X36580000Y88496436D03*
%TD*%
D22*
%TO.C,R3*%
X16000000Y76206436D03*
X17650000Y76206436D03*
%TD*%
D15*
%TO.C,C83*%
X55820000Y81116436D03*
X56780000Y81116436D03*
%TD*%
D22*
%TO.C,R21*%
X164695000Y83496436D03*
X166345000Y83496436D03*
%TD*%
D15*
%TO.C,C76*%
X136320000Y80826436D03*
X137280000Y80826436D03*
%TD*%
D18*
%TO.C,C79*%
X148830000Y51976436D03*
X147870000Y51976436D03*
%TD*%
D39*
%TO.C,C53*%
X129177500Y85846436D03*
X129177500Y84886436D03*
%TD*%
D14*
%TO.C,TP2*%
X112540000Y10201436D03*
%TD*%
D15*
%TO.C,C47*%
X135370000Y77146436D03*
X136330000Y77146436D03*
%TD*%
D21*
%TO.C,C52*%
X127180000Y72306436D03*
X127180000Y73266436D03*
%TD*%
D18*
%TO.C,C29*%
X10444600Y67248134D03*
X9484600Y67248134D03*
%TD*%
D22*
%TO.C,R35*%
X43200000Y2916436D03*
X44850000Y2916436D03*
%TD*%
D21*
%TO.C,C11*%
X163279800Y26298148D03*
X163279800Y27258148D03*
%TD*%
D15*
%TO.C,C66*%
X123200000Y78486436D03*
X124160000Y78486436D03*
%TD*%
D36*
%TO.C,H1*%
X3450000Y88966436D03*
%TD*%
D28*
%TO.C,JP1*%
X135037500Y88236436D03*
X135037500Y86686436D03*
X135037500Y85136436D03*
%TD*%
D18*
%TO.C,C70*%
X124100000Y79486436D03*
X123140000Y79486436D03*
%TD*%
D20*
%TO.C,R17*%
X5799600Y77578134D03*
X4149600Y77578134D03*
%TD*%
D51*
%TO.C,C2*%
X152221250Y10176436D03*
X147395250Y10176436D03*
%TD*%
D26*
%TO.C,C16*%
X157050000Y32786436D03*
X157050000Y30886436D03*
%TD*%
D15*
%TO.C,C1*%
X120840000Y12641436D03*
X121800000Y12641436D03*
%TD*%
D18*
%TO.C,C26*%
X16339600Y68328134D03*
X15379600Y68328134D03*
%TD*%
D52*
%TO.C,FB2*%
X6969600Y79323134D03*
X6969600Y78353134D03*
%TD*%
D24*
%TO.C,R32*%
X125480000Y73461436D03*
X125480000Y71811436D03*
%TD*%
D29*
%TO.C,R27*%
X120510000Y81421436D03*
X120510000Y83071436D03*
%TD*%
%TO.C,R6*%
X171019800Y29653148D03*
X171019800Y31303148D03*
%TD*%
D22*
%TO.C,R15*%
X4149600Y79038134D03*
X5799600Y79038134D03*
%TD*%
D39*
%TO.C,C34*%
X11204600Y77188134D03*
X11204600Y76228134D03*
%TD*%
D53*
%TO.C,J8*%
X142750000Y77996436D03*
D54*
X145290000Y77996436D03*
X147830000Y77996436D03*
X150370000Y77996436D03*
X152910000Y77996436D03*
X155450000Y77996436D03*
X142750000Y80536436D03*
X145290000Y80536436D03*
X147830000Y80536436D03*
X150370000Y80536436D03*
X152910000Y80536436D03*
X155450000Y80536436D03*
%TD*%
D43*
%TO.C,J15*%
X173150000Y49256436D03*
X173150000Y72406436D03*
D55*
X169550000Y37606436D03*
X169550000Y38606436D03*
X169550000Y39606436D03*
X169550000Y40606436D03*
X169550000Y41606436D03*
X169550000Y42606436D03*
X169550000Y43606436D03*
X169550000Y44606436D03*
X169550000Y45606436D03*
X169550000Y46606436D03*
X169550000Y47606436D03*
X169550000Y50606436D03*
X169550000Y51606436D03*
X169550000Y52606436D03*
X169550000Y53606436D03*
X169550000Y54606436D03*
X169550000Y55606436D03*
X169550000Y56606436D03*
X169550000Y57606436D03*
X169550000Y58606436D03*
X169550000Y59606436D03*
X169550000Y60606436D03*
X169550000Y61606436D03*
X169550000Y62606436D03*
X169550000Y63606436D03*
X169550000Y64606436D03*
X169550000Y65606436D03*
X169550000Y66606436D03*
X169550000Y67606436D03*
X169550000Y68606436D03*
X169550000Y69606436D03*
X169550000Y70606436D03*
X176750000Y37606436D03*
X176750000Y38606436D03*
X176750000Y39606436D03*
X176750000Y40606436D03*
X176750000Y41606436D03*
X176750000Y42606436D03*
X176750000Y43606436D03*
X176750000Y44606436D03*
X176750000Y45606436D03*
X176750000Y46606436D03*
X176750000Y47606436D03*
X176750000Y50606436D03*
X176750000Y51606436D03*
X176750000Y52606436D03*
X176750000Y53606436D03*
X176750000Y54606436D03*
X176750000Y55606436D03*
X176750000Y56606436D03*
X176750000Y57606436D03*
X176750000Y58606436D03*
X176750000Y59606436D03*
X176750000Y60606436D03*
X176750000Y61606436D03*
X176750000Y62606436D03*
X176750000Y63606436D03*
X176750000Y64606436D03*
X176750000Y65606436D03*
X176750000Y66606436D03*
X176750000Y67606436D03*
X176750000Y68606436D03*
X176750000Y69606436D03*
X176750000Y70606436D03*
D56*
X173150000Y34606436D03*
%TD*%
D21*
%TO.C,C72*%
X127220000Y87006436D03*
X127220000Y87966436D03*
%TD*%
D15*
%TO.C,C63*%
X123207500Y76976436D03*
X124167500Y76976436D03*
%TD*%
D57*
%TO.C,Y1*%
X8244600Y65818134D03*
X8244600Y63618134D03*
X9844600Y63618134D03*
X9844600Y65818134D03*
%TD*%
D18*
%TO.C,C6*%
X171971221Y28229569D03*
X171011221Y28229569D03*
%TD*%
D58*
%TO.C,J1*%
X157140000Y11406436D03*
X161340000Y11406436D03*
X165540000Y11406436D03*
X157140000Y5906436D03*
X161340000Y5906436D03*
X165540000Y5906436D03*
%TD*%
D19*
%TO.C,C5*%
X164859800Y21778148D03*
X166409800Y21778148D03*
%TD*%
D36*
%TO.C,H3*%
X175450000Y88726436D03*
%TD*%
D59*
%TO.C,U4*%
X124929800Y20441436D03*
X124929800Y19791435D03*
X124929800Y19141437D03*
X124929800Y18491435D03*
X124929800Y17841437D03*
X124929800Y17191438D03*
X124929800Y16541437D03*
X124929800Y15891438D03*
X124929800Y15241437D03*
X124929800Y14591438D03*
X130670200Y14591436D03*
X130670200Y15241434D03*
X130670200Y15891435D03*
X130670200Y16541434D03*
X130670200Y17191435D03*
X130670200Y17841434D03*
X130670200Y18491435D03*
X130670200Y19141434D03*
X130670200Y19791435D03*
X130670200Y20441434D03*
%TD*%
D26*
%TO.C,C20*%
X153140000Y20346436D03*
X153140000Y18446436D03*
%TD*%
D22*
%TO.C,R20*%
X164695000Y84976436D03*
X166345000Y84976436D03*
%TD*%
D15*
%TO.C,C36*%
X6349600Y73268134D03*
X7309600Y73268134D03*
%TD*%
D60*
%TO.C,C50*%
X115280000Y75906436D03*
X117180000Y75906436D03*
%TD*%
D24*
%TO.C,R22*%
X14004163Y66431761D03*
X14004163Y64781761D03*
%TD*%
%TO.C,R24*%
X172531221Y23904569D03*
X172531221Y22254569D03*
%TD*%
D22*
%TO.C,R37*%
X88707000Y2036436D03*
X90357000Y2036436D03*
%TD*%
D18*
%TO.C,C65*%
X136340000Y78986436D03*
X135380000Y78986436D03*
%TD*%
D17*
%TO.C,C77*%
X151290000Y57415186D03*
X151290000Y62241186D03*
%TD*%
D43*
%TO.C,J12*%
X119692500Y47746436D03*
X119692500Y38596436D03*
D44*
X123292500Y59396436D03*
X123292500Y58396436D03*
X123292500Y57396436D03*
X123292500Y56396436D03*
X123292500Y55396436D03*
X123292500Y54396436D03*
X123292500Y53396436D03*
X123292500Y52396436D03*
X123292500Y51396436D03*
X123292500Y50396436D03*
X123292500Y49396436D03*
X123292500Y46396436D03*
X123292500Y45396436D03*
X123292500Y44396436D03*
X123292500Y43396436D03*
X123292500Y42396436D03*
X123292500Y41396436D03*
X123292500Y40396436D03*
X116092500Y59396436D03*
X116092500Y58396436D03*
X116092500Y57396436D03*
X116092500Y56396436D03*
X116092500Y55396436D03*
X116092500Y54396436D03*
X116092500Y53396436D03*
X116092500Y52396436D03*
X116092500Y51396436D03*
X116092500Y50396436D03*
X116092500Y49396436D03*
X116092500Y46396436D03*
X116092500Y45396436D03*
X116092500Y44396436D03*
X116092500Y43396436D03*
X116092500Y42396436D03*
X116092500Y41396436D03*
X116092500Y40396436D03*
D45*
X119692500Y62396436D03*
%TD*%
D15*
%TO.C,C84*%
X55830000Y80196436D03*
X56790000Y80196436D03*
%TD*%
%TO.C,C75*%
X136320000Y79906436D03*
X137280000Y79906436D03*
%TD*%
D29*
%TO.C,R13*%
X171009800Y25233148D03*
X171009800Y26883148D03*
%TD*%
D30*
%TO.C,C24*%
X8500000Y78636436D03*
X8500000Y80536436D03*
%TD*%
D22*
%TO.C,R11*%
X138289500Y2986436D03*
X139939500Y2986436D03*
%TD*%
D29*
%TO.C,R33*%
X125017500Y85041436D03*
X125017500Y86691436D03*
%TD*%
D61*
%TO.C,JP13*%
X9690000Y37796436D03*
X8140000Y37796436D03*
X6590000Y37796436D03*
%TD*%
D18*
%TO.C,C40*%
X6029600Y84358134D03*
X5069600Y84358134D03*
%TD*%
D20*
%TO.C,R8*%
X171109800Y23838148D03*
X169459800Y23838148D03*
%TD*%
D43*
%TO.C,J11*%
X142040000Y47816436D03*
X142040000Y38666436D03*
D44*
X145640000Y59466436D03*
X145640000Y58466436D03*
X145640000Y57466436D03*
X145640000Y56466436D03*
X145640000Y55466436D03*
X145640000Y54466436D03*
X145640000Y53466436D03*
X145640000Y52466436D03*
X145640000Y51466436D03*
X145640000Y50466436D03*
X145640000Y49466436D03*
X145640000Y46466436D03*
X145640000Y45466436D03*
X145640000Y44466436D03*
X145640000Y43466436D03*
X145640000Y42466436D03*
X145640000Y41466436D03*
X145640000Y40466436D03*
X138440000Y59466436D03*
X138440000Y58466436D03*
X138440000Y57466436D03*
X138440000Y56466436D03*
X138440000Y55466436D03*
X138440000Y54466436D03*
X138440000Y53466436D03*
X138440000Y52466436D03*
X138440000Y51466436D03*
X138440000Y50466436D03*
X138440000Y49466436D03*
X138440000Y46466436D03*
X138440000Y45466436D03*
X138440000Y44466436D03*
X138440000Y43466436D03*
X138440000Y42466436D03*
X138440000Y41466436D03*
X138440000Y40466436D03*
D45*
X142040000Y62466436D03*
%TD*%
D15*
%TO.C,C42*%
X166740000Y45046436D03*
X167700000Y45046436D03*
%TD*%
D14*
%TO.C,TP5*%
X161180000Y49966436D03*
%TD*%
D18*
%TO.C,C61*%
X137260000Y82366436D03*
X136300000Y82366436D03*
%TD*%
%TO.C,C78*%
X148830000Y51056436D03*
X147870000Y51056436D03*
%TD*%
D24*
%TO.C,R5*%
X124799800Y12856436D03*
X124799800Y11206436D03*
%TD*%
D28*
%TO.C,C39*%
X12539600Y64833134D03*
X12539600Y66383134D03*
%TD*%
D62*
%TO.C,J2*%
X160370000Y80496436D03*
D63*
X160370000Y82996436D03*
X160370000Y85496436D03*
X160370000Y87996436D03*
%TD*%
D40*
%TO.C,U5*%
X5930800Y82985634D03*
X4980800Y82985634D03*
X4030800Y82985634D03*
X4030800Y80710634D03*
X5930800Y80710634D03*
%TD*%
D39*
%TO.C,C74*%
X129940000Y73266436D03*
X129940000Y72306436D03*
%TD*%
D15*
%TO.C,C43*%
X166740000Y45976436D03*
X167700000Y45976436D03*
%TD*%
D18*
%TO.C,C33*%
X17230000Y72636436D03*
X16270000Y72636436D03*
%TD*%
D26*
%TO.C,C18*%
X155100000Y20346436D03*
X155100000Y18446436D03*
%TD*%
D20*
%TO.C,R14*%
X121595000Y20641436D03*
X119945000Y20641436D03*
%TD*%
D64*
%TO.C,U8*%
X133490000Y83663936D03*
X132990000Y83663936D03*
X132490000Y83663936D03*
X131990000Y83663936D03*
X131490000Y83663936D03*
X130990000Y83663936D03*
X130490000Y83663936D03*
X129990000Y83663936D03*
X129490000Y83663936D03*
X128990000Y83663936D03*
X128490000Y83663936D03*
X127990000Y83663936D03*
X127490000Y83663936D03*
X126990000Y83663936D03*
X126490000Y83663936D03*
X125990000Y83663936D03*
D65*
X125302500Y82976436D03*
X125302500Y82476436D03*
X125302500Y81976436D03*
X125302500Y81476436D03*
X125302500Y80976436D03*
X125302500Y80476436D03*
X125302500Y79976436D03*
X125302500Y79476436D03*
X125302500Y78976436D03*
X125302500Y78476436D03*
X125302500Y77976436D03*
X125302500Y77476436D03*
X125302500Y76976436D03*
X125302500Y76476436D03*
X125302500Y75976436D03*
X125302500Y75476436D03*
D64*
X125990000Y74788936D03*
X126490000Y74788936D03*
X126990000Y74788936D03*
X127490000Y74788936D03*
X127990000Y74788936D03*
X128490000Y74788936D03*
X128990000Y74788936D03*
X129490000Y74788936D03*
X129990000Y74788936D03*
X130490000Y74788936D03*
X130990000Y74788936D03*
X131490000Y74788936D03*
X131990000Y74788936D03*
X132490000Y74788936D03*
X132990000Y74788936D03*
X133490000Y74788936D03*
D65*
X134177500Y75476436D03*
X134177500Y75976436D03*
X134177500Y76476436D03*
X134177500Y76976436D03*
X134177500Y77476436D03*
X134177500Y77976436D03*
X134177500Y78476436D03*
X134177500Y78976436D03*
X134177500Y79476436D03*
X134177500Y79976436D03*
X134177500Y80476436D03*
X134177500Y80976436D03*
X134177500Y81476436D03*
X134177500Y81976436D03*
X134177500Y82476436D03*
X134177500Y82976436D03*
D66*
X129740000Y79226436D03*
%TD*%
M02*
