M48
; DRILL file KiCad 10.0.6 date 2026-10-06T11:55:13
; FORMAT={-:-/ absolute / metric / decimal}
; #@! TF.CreationDate,2026-10-06T11:55:13-07:00
; #@! TF.GenerationSoftware,Kicad,Pcbnew,10.0.6
; #@! TF.FileFunction,MixedPlating,1,4
FMAT,2
METRIC
; #@! TA.AperFunction,Plated,PTH,ViaDrill
T1C0.300
; #@! TA.AperFunction,Plated,PTH,ComponentDrill
T2C1.000
; #@! TA.AperFunction,Plated,PTH,ComponentDrill
T3C1.020
; #@! TA.AperFunction,Plated,PTH,ComponentDrill
T4C1.067
; #@! TA.AperFunction,Plated,PTH,ComponentDrill
T5C1.100
; #@! TA.AperFunction,Plated,PTH,ComponentDrill
T6C1.400
; #@! TA.AperFunction,Plated,PTH,ComponentDrill
T7C1.750
; #@! TA.AperFunction,Plated,PTH,ComponentDrill
T8C3.200
; #@! TA.AperFunction,Plated,PTH,ComponentDrill
T9C4.200
; #@! TA.AperFunction,NonPlated,NPTH,ComponentDrill
T10C1.092
; #@! TA.AperFunction,NonPlated,NPTH,ComponentDrill
T11C1.200
; #@! TA.AperFunction,NonPlated,NPTH,ComponentDrill
T12C1.600
%
G90
G05
T1
X3.4Y67.566
X3.49Y70.566
X3.93Y69.116
X4.02Y83.906
X4.82Y66.096
X5.03Y83.858
X5.07Y84.858
X5.09Y44.256
X5.1Y81.358
X5.1Y80.728
X5.1Y80.098
X5.13Y77.596
X5.74Y72.316
X5.76Y73.266
X5.917Y37.809
X6.7Y84.688
X6.7Y84.108
X6.74Y44.266
X6.87Y69.838
X7.13Y67.236
X7.3Y71.776
X7.49Y73.856
X7.74Y76.916
X8.17Y81.256
X8.78Y81.256
X9.89Y2.186
X10.595Y73.168
X10.595Y72.318
X10.595Y71.468
X10.595Y70.618
X10.595Y69.768
X10.678Y66.817
X11.179Y67.176
X11.33Y65.116
X11.345Y73.168
X11.345Y72.318
X11.345Y71.468
X11.345Y70.618
X11.345Y69.768
X12.054Y75.466
X12.095Y73.168
X12.095Y72.318
X12.095Y71.468
X12.095Y70.618
X12.095Y69.768
X12.221Y79.97
X12.47Y67.718
X12.55Y65.706
X12.55Y64.026
X12.59Y77.188
X12.656Y75.48
X12.823Y79.958
X13.2Y67.528
X13.233Y75.48
X13.83Y20.976
X14.27Y29.956
X14.29Y39.966
X14.3Y37.966
X14.3Y33.976
X14.3Y23.976
X14.31Y31.036
X14.31Y26.976
X14.32Y42.986
X14.32Y34.996
X14.4Y53.976
X14.41Y50.966
X14.82Y80.846
X14.92Y28.745
X14.92Y28.168
X14.95Y32.755
X14.95Y32.178
X14.98Y36.765
X14.98Y36.188
X15.01Y76.258
X15.089Y69.011
X15.146Y73.952
X15.19Y65.816
X15.339Y70.557
X15.339Y69.98
X15.45Y80.846
X15.53Y72.123
X15.53Y71.546
X15.554Y73.544
X15.823Y72.621
X16.18Y63.976
X16.22Y58.166
X16.53Y46.716
X16.59Y41.736
X16.59Y41.159
X16.614Y73.257
X16.774Y68.329
X16.83Y67.226
X17.07Y70.356
X17.25Y77.458
X17.67Y72.636
X17.74Y73.44
X17.972Y43.116
X18.4Y76.206
X18.54Y42.076
X18.81Y71.466
X18.86Y69.516
X18.89Y68.506
X18.99Y35.976
X19.042Y66.097
X19.43Y20.956
X21.48Y28.756
X21.5Y27.956
X21.51Y43.966
X21.51Y25.016
X21.56Y32.776
X21.57Y31.976
X21.61Y40.666
X21.65Y38.046
X21.69Y53.936
X21.89Y26.745
X21.89Y26.168
X21.92Y30.755
X21.92Y30.178
X21.93Y49.533
X21.94Y48.966
X21.94Y48.4
X21.94Y34.765
X21.94Y34.188
X22.11Y46.576
X22.598Y39.755
X22.598Y39.178
X23.31Y49.986
X23.31Y47.986
X23.32Y48.99
X23.36Y3.136
X25.14Y45.736
X26.235Y21.061
X26.24Y15.456
X26.67Y7.156
X27.53Y72.416
X27.83Y3.596
X31.47Y5.056
X32.292Y6.226
X32.869Y6.226
X33.4Y5.856
X33.85Y7.863
X33.85Y7.286
X34.84Y5.818
X35.34Y7.393
X35.34Y6.816
X36.4Y6.206
X37.526Y7.13
X37.854Y5.664
X37.934Y6.722
X38.12Y10.846
X38.292Y6.04
X38.869Y6.04
X39.356Y5.732
X39.792Y6.111
X40.369Y6.111
X41.292Y6.096
X41.869Y6.096
X42.33Y5.696
X42.792Y6.092
X43.369Y6.092
X43.83Y5.686
X44.292Y6.096
X44.869Y6.096
X45.34Y5.676
X46.93Y7.096
X47.94Y13.096
X47.94Y12.53
X47.95Y11.963
X47.95Y11.396
X49.4Y13.086
X49.4Y12.106
X55.82Y81.646
X55.82Y79.676
X55.83Y80.656
X57.24Y81.51
X57.24Y80.943
X57.25Y80.376
X57.25Y79.81
X58.17Y86.536
X58.21Y2.856
X59.77Y87.896
X61.27Y87.896
X61.52Y80.266
X61.52Y78.296
X62.77Y87.896
X63.07Y14.996
X63.1Y19.916
X65.76Y87.896
X67.2Y78.286
X67.21Y82.726
X67.27Y87.896
X68.78Y87.896
X70.146Y86.52
X70.27Y87.896
X70.554Y86.112
X70.696Y84.582
X70.731Y87.386
X71.104Y84.99
X71.308Y87.386
X71.8Y87.896
X73.27Y87.896
X77.01Y87.896
X78.88Y86.506
X86.27Y83.506
X86.27Y82.466
X86.28Y81.456
X87.68Y83.32
X87.68Y82.753
X87.69Y82.186
X87.69Y81.62
X88.67Y86.546
X88.697Y2.736
X88.8Y46.966
X90.24Y87.896
X91.74Y87.896
X93.24Y87.896
X93.41Y15.006
X93.48Y19.946
X93.77Y39.706
X94.6Y40.296
X95.62Y38.946
X96.23Y87.896
X96.5Y39.376
X97.74Y87.896
X99.25Y87.896
X99.976Y86.542
X100.384Y86.95
X100.74Y87.896
X101.212Y90.766
X101.99Y91.491
X102.27Y87.896
X102.711Y87.316
X103.288Y87.316
X103.74Y87.896
X107.48Y87.896
X107.49Y7.886
X107.49Y7.286
X107.49Y6.686
X108.09Y7.886
X108.09Y7.286
X108.09Y6.686
X109.37Y86.486
X111.02Y19.986
X114.74Y77.146
X115.35Y77.136
X115.687Y80.559
X115.99Y77.136
X116.262Y80.559
X116.86Y80.566
X116.88Y62.446
X116.91Y37.376
X117.3Y42.396
X117.34Y45.426
X117.35Y56.406
X117.35Y40.376
X117.36Y53.386
X117.66Y73.526
X118.73Y75.426
X118.75Y7.286
X118.94Y80.816
X118.95Y18.046
X119.02Y71.286
X119.03Y70.426
X119.31Y13.836
X119.513Y69.098
X119.724Y76.273
X120.03Y68.596
X120.059Y84.206
X120.06Y83.631
X120.064Y84.781
X120.279Y76.507
X120.34Y12.616
X120.422Y16.139
X120.53Y71.155
X120.531Y70.394
X120.561Y73.526
X120.59Y20.636
X121.45Y19.026
X121.63Y21.346
X121.821Y72.441
X121.89Y70.426
X122.0Y56.386
X122.02Y43.406
X122.04Y40.386
X122.05Y46.376
X122.326Y80.28
X122.326Y79.703
X122.44Y37.366
X122.45Y78.015
X122.45Y77.438
X122.46Y62.416
X122.69Y76.786
X122.69Y75.476
X122.7Y17.106
X122.763Y78.5
X123.08Y15.961
X123.19Y83.846
X123.19Y82.786
X123.32Y70.426
X123.33Y73.526
X123.76Y15.236
X123.812Y81.138
X123.832Y78.294
X123.839Y76.775
X123.84Y75.484
X124.15Y83.826
X124.158Y20.446
X124.16Y82.856
X124.29Y86.686
X124.58Y72.756
X124.8Y11.856
X125.07Y52.226
X125.07Y51.66
X125.08Y51.093
X125.08Y50.526
X125.27Y45.235
X125.27Y44.658
X125.275Y69.883
X125.535Y74.239
X125.75Y16.546
X125.75Y14.576
X125.866Y86.26
X125.88Y86.836
X125.89Y84.476
X125.914Y71.316
X126.201Y82.524
X126.201Y81.947
X126.269Y69.756
X126.304Y79.515
X126.304Y78.938
X126.342Y87.239
X126.49Y52.34
X126.49Y51.38
X126.49Y50.386
X126.77Y68.486
X126.82Y38.016
X126.851Y71.672
X127.11Y88.936
X127.485Y73.67
X127.635Y18.01
X127.64Y72.306
X127.88Y88.946
X127.99Y62.226
X128.04Y81.396
X128.04Y80.736
X128.04Y79.976
X128.04Y79.226
X128.04Y78.476
X128.04Y77.786
X128.04Y77.126
X128.405Y72.911
X128.54Y45.806
X128.54Y45.206
X128.54Y44.606
X128.64Y17.656
X128.89Y81.376
X128.89Y80.716
X128.89Y79.976
X128.89Y79.226
X128.89Y78.476
X128.89Y77.766
X128.89Y77.106
X128.91Y86.546
X129.14Y45.806
X129.14Y45.206
X129.14Y44.606
X129.61Y61.976
X129.74Y81.376
X129.74Y80.716
X129.74Y79.976
X129.74Y79.226
X129.74Y78.476
X129.74Y77.786
X129.74Y77.126
X129.798Y85.231
X129.85Y16.546
X129.9Y15.276
X130.072Y86.336
X130.33Y82.813
X130.394Y89.34
X130.59Y81.356
X130.59Y80.696
X130.59Y79.976
X130.59Y79.226
X130.59Y78.476
X130.59Y77.766
X130.59Y77.106
X130.83Y21.806
X130.95Y89.842
X130.98Y82.836
X131.28Y71.816
X131.334Y70.378
X131.334Y84.523
X131.339Y69.753
X131.34Y70.981
X131.343Y69.093
X131.35Y68.466
X131.44Y81.346
X131.44Y80.686
X131.44Y79.976
X131.44Y79.226
X131.44Y78.476
X131.44Y77.766
X131.44Y77.106
X131.48Y19.796
X131.572Y72.958
X131.696Y82.847
X131.79Y21.906
X131.851Y71.598
X131.97Y87.326
X131.972Y82.259
X132.04Y88.236
X132.428Y71.598
X132.706Y73.868
X132.77Y84.476
X132.98Y82.996
X133.02Y82.257
X133.158Y73.35
X133.428Y81.849
X133.5Y77.476
X133.79Y72.166
X133.87Y86.326
X134.194Y85.233
X134.33Y73.636
X135.04Y85.986
X135.398Y74.972
X135.45Y79.559
X135.7Y2.266
X135.72Y10.236
X135.74Y88.226
X135.75Y85.116
X135.83Y82.184
X135.87Y83.736
X136.23Y35.306
X136.24Y86.816
X136.33Y74.936
X136.62Y73.596
X136.693Y79.301
X137.25Y82.836
X137.26Y83.816
X137.67Y2.996
X137.899Y77.776
X137.902Y77.126
X139.27Y37.446
X139.28Y62.456
X139.31Y70.981
X139.31Y70.378
X139.31Y69.753
X139.31Y69.093
X139.31Y68.476
X139.38Y77.855
X139.38Y77.278
X139.66Y45.466
X139.67Y40.466
X139.68Y42.446
X139.69Y53.446
X139.71Y56.476
X141.95Y70.928
X141.95Y69.796
X141.96Y71.626
X142.45Y70.426
X142.48Y69.256
X143.28Y29.796
X143.28Y29.196
X143.28Y28.596
X143.55Y2.996
X143.88Y29.796
X143.88Y29.196
X143.88Y28.596
X144.152Y45.246
X144.152Y44.669
X144.34Y46.456
X144.37Y43.436
X144.4Y56.466
X144.4Y40.446
X144.76Y37.466
X144.82Y62.466
X146.58Y5.106
X146.6Y4.496
X146.6Y3.826
X146.62Y9.536
X146.64Y10.786
X147.237Y29.955
X147.237Y29.076
X147.237Y28.198
X147.237Y27.319
X147.237Y26.44
X147.237Y25.562
X147.237Y24.683
X147.237Y23.804
X147.237Y22.926
X147.237Y22.047
X147.237Y21.168
X147.41Y52.353
X147.41Y51.786
X147.42Y51.22
X147.42Y50.653
X147.54Y9.536
X147.56Y10.796
X147.963Y29.955
X147.963Y29.076
X147.963Y28.198
X147.963Y27.319
X147.963Y26.44
X147.963Y25.562
X147.963Y24.683
X147.963Y23.804
X147.963Y22.926
X147.963Y22.047
X147.963Y21.168
X148.41Y45.016
X148.41Y44.416
X148.41Y43.816
X148.44Y10.806
X148.44Y9.536
X148.69Y29.965
X148.69Y29.086
X148.69Y28.208
X148.69Y27.329
X148.69Y26.45
X148.69Y25.572
X148.69Y24.693
X148.69Y23.814
X148.69Y22.936
X148.69Y22.057
X148.69Y21.178
X148.83Y51.506
X148.83Y50.516
X148.84Y52.496
X149.01Y45.016
X149.01Y44.416
X149.01Y43.816
X149.32Y3.836
X149.33Y4.526
X149.34Y5.156
X149.417Y29.965
X149.417Y29.086
X149.417Y28.208
X149.417Y27.329
X149.417Y26.45
X149.417Y25.572
X149.417Y24.693
X149.417Y23.814
X149.417Y22.936
X149.417Y22.057
X149.417Y21.178
X150.5Y62.226
X152.14Y61.936
X152.29Y7.886
X152.29Y7.286
X152.29Y6.686
X152.63Y33.505
X152.77Y17.726
X152.89Y7.886
X152.89Y7.286
X152.89Y6.686
X153.4Y33.505
X153.54Y17.726
X153.86Y38.886
X153.88Y44.516
X153.91Y40.506
X154.61Y33.505
X154.75Y17.726
X155.38Y33.505
X155.52Y17.726
X155.6Y44.516
X155.6Y38.886
X155.64Y40.506
X156.58Y33.505
X156.72Y17.726
X157.35Y33.505
X157.49Y17.726
X158.51Y33.505
X158.65Y17.726
X159.28Y33.505
X159.42Y17.726
X161.38Y44.516
X163.07Y45.276
X163.46Y20.285
X163.46Y19.515
X163.57Y31.675
X163.57Y30.905
X164.11Y22.136
X164.11Y21.366
X164.18Y29.846
X164.18Y29.076
X164.54Y22.986
X164.61Y28.226
X165.12Y25.968
X165.12Y25.198
X165.13Y26.878
X165.13Y24.218
X165.81Y25.968
X165.81Y25.198
X166.03Y48.686
X166.24Y60.926
X166.34Y84.236
X166.49Y25.196
X166.5Y25.968
X166.74Y44.506
X166.75Y46.496
X166.75Y45.496
X167.97Y52.335
X167.97Y51.758
X168.06Y54.82
X168.06Y55.397
X168.09Y26.988
X168.13Y47.646
X168.16Y46.35
X168.16Y45.783
X168.17Y45.216
X168.17Y44.65
X169.36Y20.166
X169.97Y31.336
X170.09Y24.716
X170.36Y34.596
X170.42Y73.626
X170.77Y50.596
X170.78Y40.586
X170.79Y66.566
X170.79Y56.586
X170.8Y65.596
X170.82Y62.566
X170.83Y61.606
X170.84Y58.596
X170.85Y69.586
X171.09Y17.866
X171.49Y53.906
X171.94Y22.966
X174.91Y53.405
X174.91Y52.828
X175.38Y59.596
X175.41Y54.606
X175.42Y56.576
X175.44Y67.596
X175.46Y63.606
X175.48Y70.576
X175.48Y64.566
X175.48Y60.596
X175.48Y40.576
X175.49Y51.576
X175.49Y43.596
X175.89Y73.576
X175.89Y34.596
T2
X160.37Y87.996
X160.37Y85.496
X160.37Y82.996
X160.37Y80.496
T3
X1.89Y63.286
X112.48Y3.786
X112.54Y86.906
X112.54Y10.201
X157.28Y49.986
X161.18Y49.966
T4
X156.91Y68.606
X159.45Y68.606
X161.99Y68.606
X164.53Y68.606
T5
X142.75Y80.536
X142.75Y77.996
X145.29Y80.536
X145.29Y77.996
X147.83Y80.536
X147.83Y77.996
X150.37Y80.536
X150.37Y77.996
X152.91Y80.536
X152.91Y77.996
X155.45Y80.536
X155.45Y77.996
T6
X157.14Y11.406
X157.14Y5.906
X161.34Y11.406
X161.34Y5.906
X165.54Y11.406
X165.54Y5.906
T7
X2.47Y57.846
X2.47Y52.766
X2.97Y28.826
X2.97Y23.746
X5.01Y55.306
X5.51Y26.286
X7.55Y57.846
X7.55Y52.766
X8.05Y28.826
X8.05Y23.746
X49.95Y6.676
X49.95Y1.596
X52.49Y4.136
X55.03Y6.676
X55.03Y1.596
T8
X3.45Y88.966
X3.5Y4.076
X83.89Y88.586
X83.89Y3.786
X175.45Y88.726
X175.59Y3.746
T9
X36.58Y88.496
X36.58Y50.496
X36.58Y38.496
X68.52Y55.087
X68.52Y43.087
X68.52Y5.087
X99.0Y55.087
X99.0Y43.087
X99.0Y5.087
T10
X46.58Y9.971
X58.52Y83.612
X89.0Y83.612
T11
X16.63Y45.326
X16.63Y22.176
X119.692Y47.746
X119.692Y38.596
X142.04Y47.816
X142.04Y38.666
X173.15Y72.406
X173.15Y49.256
T12
X26.58Y9.971
X78.52Y83.612
X109.0Y83.612
M30
